<svg width="100" height="100" viewBox="0 0 100 100" fill="none" xmlns="http://www.w3.org/2000/svg">
<path d="M43.805 49.26C42.805 50.16 40.865 50.98 39.185 51.42C39.625 51.78 40.165 52.34 40.445 52.78C42.325 52.18 44.305 51.24 45.565 49.98L43.805 49.26ZM45.765 51.08C44.445 52.42 41.825 53.42 39.325 53.92C39.745 54.32 40.205 54.98 40.465 55.42C43.225 54.72 45.885 53.52 47.485 51.78L45.765 51.08ZM47.225 53.34C45.505 55.24 42.005 56.34 38.305 56.84C38.765 57.34 39.265 58.14 39.505 58.72C43.605 57.96 47.185 56.64 49.265 54.18L47.225 53.34ZM41.085 40C40.365 42.04 39.025 44 37.465 45.22C37.985 45.52 38.865 46.22 39.265 46.6C40.845 45.18 42.365 42.92 43.265 40.54L41.085 40ZM41.065 42.04L39.905 43.96H49.125V42.04H41.065ZM45.825 42.52C44.645 45.74 41.645 47.58 37.725 48.52C38.145 48.94 38.865 49.86 39.125 50.34C43.225 49.08 46.485 46.88 48.065 43L45.825 42.52ZM41.045 43.14L39.545 44.08C40.945 46.6 43.965 49.18 48.465 50.18C48.745 49.6 49.345 48.72 49.785 48.26C45.305 47.54 42.305 45.36 41.045 43.14ZM35.985 42.58V55.46H38.065V42.58H35.985ZM34.145 40.08C33.265 43.02 31.785 45.94 30.185 47.82C30.545 48.46 31.145 49.84 31.325 50.42C33.385 48.02 35.225 44.24 36.365 40.74L34.145 40.08ZM32.585 45.54V58.78H34.865V43.38L34.805 43.34L32.585 45.54ZM62.335 40.02V42.88H64.655V40.02H62.335ZM57.875 41.94V43.8H68.995V41.94H57.875ZM61.435 46.16H65.615V47.36H61.435V46.16ZM59.415 44.54V48.98H67.755V44.54H59.415ZM58.015 49.7V58.82H60.155V51.56H67.655V49.7H58.015ZM66.835 49.7V56.7C66.835 56.9 66.775 56.94 66.595 56.96C66.415 56.96 65.875 56.96 65.355 56.94C65.595 57.46 65.855 58.24 65.915 58.8C66.955 58.8 67.715 58.78 68.295 58.48C68.855 58.16 69.015 57.64 69.015 56.74V49.7H66.835ZM60.995 52.36V57.58H62.635V52.36H60.995ZM62.235 52.36V53.82H64.295V55.2H62.235V56.64H65.955V52.36H62.235ZM53.375 41.86V58.8H55.675V41.86H53.375ZM50.735 45.68V47.88H57.855V45.68H50.735ZM53.535 46.56C52.975 48.74 51.695 51.66 50.435 53.28C50.795 53.88 51.335 54.9 51.535 55.58C52.975 53.6 54.255 49.98 54.935 47.16L53.535 46.56ZM56.455 40.3C55.035 40.92 52.715 41.44 50.635 41.76C50.895 42.26 51.195 43.08 51.295 43.58C53.535 43.32 56.155 42.84 58.135 42.1L56.455 40.3ZM55.595 48.08L54.555 49C55.135 49.88 56.295 51.76 56.735 52.78L58.115 50.92C57.755 50.42 56.095 48.52 55.595 48.08Z" fill="#F0EBF5"/>
<rect x="0.75" y="0.75" width="98.5" height="98.5" rx="49.25" stroke="#5FAAE0" stroke-width="1.5"/>
</svg>
