<svg width="100" height="100" viewBox="0 0 100 100" fill="none" xmlns="http://www.w3.org/2000/svg">
<path d="M21.692 35.36V36.928H31.884V32.816H20.044V34.368H29.996V35.36H21.692ZM20.636 35.36C20.38 36.768 19.948 38.48 19.58 39.616L21.5 39.84C21.836 38.672 22.252 36.88 22.556 35.36H20.636ZM21.308 37.872L20.828 39.472H31.388V37.872H21.308ZM30.892 37.872V38.096C30.764 39.952 30.62 40.72 30.396 40.944C30.236 41.072 30.092 41.088 29.836 41.088C29.548 41.104 28.876 41.088 28.204 41.008C28.492 41.488 28.716 42.208 28.748 42.768C29.564 42.784 30.332 42.784 30.78 42.72C31.276 42.672 31.66 42.544 32.012 42.176C32.412 41.728 32.604 40.688 32.764 38.56C32.796 38.32 32.812 37.872 32.812 37.872H30.892ZM24.972 33.184V43.44H26.86V33.184H24.972ZM24.588 38.448C23.372 39.856 20.94 41.136 18.684 41.76C19.084 42.128 19.628 42.816 19.9 43.28C22.22 42.48 24.636 40.896 26.076 39.088L24.588 38.448ZM20.684 29.648V31.12H25.724V29.648H20.684ZM27.036 29.648V31.12H33.244V29.648H27.036ZM20.764 28.288C20.22 29.664 19.276 31.072 18.236 31.952C18.684 32.192 19.452 32.688 19.804 32.976C20.812 31.984 21.884 30.352 22.54 28.768L20.764 28.288ZM27.276 28.288C26.796 29.632 25.884 30.96 24.812 31.776C25.26 32.016 26.044 32.528 26.396 32.848C27.436 31.872 28.476 30.336 29.084 28.752L27.276 28.288ZM21.276 30.816C21.692 31.488 22.124 32.368 22.284 32.944L23.916 32.224C23.708 31.664 23.228 30.784 22.812 30.16L21.276 30.816ZM28.22 30.8C28.732 31.44 29.292 32.32 29.516 32.88L31.18 32.24C30.908 31.664 30.316 30.832 29.804 30.24L28.22 30.8ZM36.18 30.624V32.736H47.796V30.624H36.18ZM34.852 39.904V42.112H49.14V39.904H34.852ZM57.356 30.32V31.824H60.252V30.32H57.356ZM57.692 38.896V40.352H63.468V38.896H57.692ZM57.628 41.344V42.912H63.852V41.344H57.628ZM56.508 28.624V34.304H58.22V28.624H56.508ZM55.532 33.968L55.98 35.552C57.292 35.264 58.908 34.88 60.444 34.512L60.3 33.072C58.556 33.424 56.764 33.776 55.532 33.968ZM60.748 28.624V33.264C60.748 34.864 61.068 35.36 62.54 35.36C62.828 35.36 63.628 35.36 63.916 35.36C65.02 35.36 65.484 34.864 65.66 33.056C65.18 32.944 64.476 32.672 64.124 32.4C64.092 33.584 64.012 33.776 63.724 33.776C63.564 33.776 62.972 33.776 62.828 33.776C62.524 33.776 62.476 33.728 62.476 33.264V28.624H60.748ZM64.188 29.472C63.532 30.016 62.412 30.624 61.42 31.04C61.612 31.376 61.852 31.92 61.932 32.272C63.068 31.888 64.38 31.36 65.42 30.736L64.188 29.472ZM59.34 34.912C59.26 35.536 59.02 36.448 58.828 37.04L60.492 37.376C60.716 36.848 60.988 36.064 61.276 35.248L59.34 34.912ZM56.748 36.4V43.408H58.524V37.984H62.94V43.344H64.796V36.4H56.748ZM51.18 29.104V43.456H52.86V30.816H54.892V29.104H51.18ZM54.3 29.104V29.648C54.076 30.672 53.58 32.88 53.164 34.32C54.044 35.392 54.236 36.384 54.252 37.12C54.252 37.584 54.156 37.92 53.98 38.064C53.868 38.144 53.708 38.176 53.532 38.176C53.356 38.176 53.148 38.176 52.876 38.16C53.132 38.624 53.276 39.344 53.292 39.792C53.66 39.808 54.028 39.792 54.3 39.76C54.652 39.696 54.956 39.6 55.196 39.424C55.708 39.072 55.916 38.384 55.9 37.36C55.9 36.448 55.724 35.36 54.764 34.112C55.212 32.848 55.74 31.12 56.14 29.744L54.876 29.024L54.62 29.104H54.3ZM73.444 35.488V37.216H79.316V35.488H73.444ZM68.66 32.384V34.16H72.74V32.384H68.66ZM68.66 35.472V37.248H72.884V35.472H68.66ZM75.108 29.008V30.672H78.724V29.008H75.108ZM79.044 35.488V35.776C78.18 38.992 75.588 40.992 72.18 41.776C72.532 42.192 72.996 42.976 73.188 43.488C77.012 42.384 79.828 40.128 80.964 35.872L79.732 35.424L79.396 35.488H79.044ZM75.684 37.04L74.004 37.488C75.22 40.48 77.252 42.496 80.484 43.424C80.756 42.896 81.3 42.096 81.748 41.712C78.74 41.04 76.676 39.376 75.684 37.04ZM67.716 29.488V43.408H69.54V30.032L67.716 29.488ZM66.388 39.328L66.692 41.2C68.532 40.944 71.028 40.576 73.348 40.224L73.284 38.464C70.804 38.8 68.164 39.136 66.388 39.328ZM74.276 29.008V31.296C74.276 32.352 74.116 33.488 72.612 34.336C72.98 34.576 73.684 35.264 73.94 35.616C75.7 34.576 76.036 32.832 76.036 31.344V29.008H74.276ZM71.972 28.432C71.044 28.976 69.492 29.536 68.068 29.888C68.292 30.256 68.58 30.912 68.676 31.328C70.276 30.992 72.132 30.48 73.556 29.792L71.972 28.432ZM77.7 29.008V32.832C77.7 33.872 77.828 34.224 78.1 34.496C78.372 34.768 78.82 34.896 79.22 34.896C79.46 34.896 79.812 34.896 80.1 34.896C80.372 34.896 80.74 34.832 80.964 34.704C81.252 34.576 81.444 34.368 81.556 34.064C81.668 33.76 81.732 33.056 81.78 32.416C81.3 32.256 80.676 31.952 80.356 31.648C80.34 32.272 80.324 32.752 80.292 32.976C80.26 33.168 80.212 33.28 80.164 33.312C80.116 33.344 80.036 33.36 79.956 33.36C79.876 33.36 79.764 33.36 79.7 33.36C79.62 33.36 79.572 33.344 79.54 33.296C79.492 33.232 79.492 33.088 79.492 32.816V29.008H77.7Z" fill="#F0EBF5"/>
<path d="M39.9065 59.344V64.924H41.9405V59.344H39.9065ZM39.9065 65.932V70.45H41.9405V65.932H39.9065ZM35.1545 65.104V71.584H37.1885V66.58H44.8025V71.53H46.9265V65.104H35.1545ZM32.9765 61.45V63.214H48.9965V61.45H32.9765ZM36.3605 67.444V68.722H45.7745V67.444H36.3605ZM36.3605 69.622V71.116H45.7745V69.622H36.3605ZM45.0545 58.03C42.7505 58.408 38.9345 58.642 35.6765 58.714C35.8565 59.11 36.0545 59.758 36.1085 60.172C39.4025 60.154 43.3805 59.92 46.1705 59.488L45.0545 58.03ZM38.9165 61.81C37.5125 63.268 34.7945 64.654 32.3465 65.338C32.7965 65.752 33.4265 66.526 33.7145 67.03C36.1985 66.148 38.9525 64.438 40.5725 62.584L38.9165 61.81ZM42.8585 61.756L41.3105 62.44C42.9485 64.294 45.6665 65.896 48.2405 66.67C48.5465 66.148 49.1405 65.374 49.5905 64.96C46.9985 64.402 44.2625 63.16 42.8585 61.756ZM35.3525 60.262C35.6765 60.802 35.9645 61.558 36.0545 62.044L37.9985 61.612C37.8905 61.108 37.5665 60.406 37.2065 59.902L35.3525 60.262ZM44.6405 59.668C44.4605 60.244 44.1005 61.072 43.7945 61.648L45.4865 62.17C45.8645 61.666 46.3325 60.964 46.8365 60.208L44.6405 59.668ZM39.9065 54.736V57.202H42.0665V54.736H39.9065ZM33.1925 55.96V59.542H35.1905V57.778H46.6385V59.542H48.7445V55.96H33.1925ZM61.1015 54.718V57.292H63.1895V54.718H61.1015ZM57.0875 56.446V58.12H67.0955V56.446H57.0875ZM60.2915 60.244H64.0535V61.324H60.2915V60.244ZM58.4735 58.786V62.782H65.9795V58.786H58.4735ZM57.2135 63.43V71.638H59.1395V65.104H65.8895V63.43H57.2135ZM65.1515 63.43V69.73C65.1515 69.91 65.0975 69.946 64.9355 69.964C64.7735 69.964 64.2875 69.964 63.8195 69.946C64.0355 70.414 64.2695 71.116 64.3235 71.62C65.2595 71.62 65.9435 71.602 66.4655 71.332C66.9695 71.044 67.1135 70.576 67.1135 69.766V63.43H65.1515ZM59.8955 65.824V70.522H61.3715V65.824H59.8955ZM61.0115 65.824V67.138H62.8655V68.38H61.0115V69.676H64.3595V65.824H61.0115ZM53.0375 56.374V71.62H55.1075V56.374H53.0375ZM50.6615 59.812V61.792H57.0695V59.812H50.6615ZM53.1815 60.604C52.6775 62.566 51.5255 65.194 50.3915 66.652C50.7155 67.192 51.2015 68.11 51.3815 68.722C52.6775 66.94 53.8295 63.682 54.4415 61.144L53.1815 60.604ZM55.8095 54.97C54.5315 55.528 52.4435 55.996 50.5715 56.284C50.8055 56.734 51.0755 57.472 51.1655 57.922C53.1815 57.688 55.5395 57.256 57.3215 56.59L55.8095 54.97ZM55.0355 61.972L54.0995 62.8C54.6215 63.592 55.6655 65.284 56.0615 66.202L57.3035 64.528C56.9795 64.078 55.4855 62.368 55.0355 61.972Z" fill="#F0EBF5"/>
<rect x="0.75" y="0.75" width="98.5" height="98.5" rx="49.25" stroke="#5FAAE0" stroke-width="1.5"/>
</svg>
