<svg width="247" height="169" viewBox="0 0 247 169" fill="none" xmlns="http://www.w3.org/2000/svg">
<rect y="35" width="247" height="99" rx="10" fill="#E099E1"/>
<path d="M61.9976 64.0025L61.9976 52.2319L64.0858 52.2319L64.0858 56.9653L68.8562 56.9653L68.8562 52.2319L70.9444 52.2319L70.9444 64.0025L68.8562 64.0025L68.8562 58.7831L64.0858 58.7831L64.0858 64.0025L61.9976 64.0025ZM76.3824 64.2184C75.4343 64.2184 74.7443 63.9125 74.3122 63.3006C73.8802 62.6886 73.6642 61.8247 73.6642 60.7089L73.6642 55.1655L75.7344 55.1655L75.7344 60.4389C75.7344 61.1708 75.8424 61.6867 76.0584 61.9867C76.2744 62.2867 76.6224 62.4367 77.1025 62.4367C77.4865 62.4367 77.8225 62.3407 78.1106 62.1487C78.4106 61.9567 78.7286 61.6448 79.0646 61.2128L79.0646 55.1655L81.1348 55.1655L81.1348 64.0025L79.4427 64.0025L79.2807 62.7066L79.2267 62.7066C78.8426 63.1626 78.4226 63.5285 77.9666 63.8045C77.5105 64.0805 76.9825 64.2184 76.3824 64.2184ZM83.757 64.0025L83.757 55.1655L85.4672 55.1655L85.6112 56.3714L85.6832 56.3714C86.0552 55.9754 86.4573 55.6395 86.8893 55.3635C87.3333 55.0875 87.8314 54.9496 88.3834 54.9496C89.0315 54.9496 89.5475 55.0935 89.9316 55.3815C90.3276 55.6575 90.6276 56.0414 90.8316 56.5334C91.2517 56.0774 91.6897 55.6995 92.1458 55.3995C92.6138 55.0995 93.1238 54.9496 93.6759 54.9496C94.612 54.9496 95.302 55.2555 95.7461 55.8674C96.1901 56.4794 96.4121 57.3433 96.4121 58.4591L96.4121 64.0025L94.324 64.0025L94.324 58.7291C94.324 57.9972 94.2099 57.4813 93.9819 57.1813C93.7659 56.8813 93.4299 56.7313 92.9738 56.7313C92.4218 56.7313 91.8037 57.0973 91.1197 57.8292L91.1197 64.0025L89.0495 64.0025L89.0495 58.7291C89.0495 57.9972 88.9355 57.4813 88.7075 57.1813C88.4914 56.8813 88.1494 56.7313 87.6814 56.7313C87.1293 56.7313 86.5113 57.0973 85.8272 57.8292L85.8272 64.0025L83.757 64.0025ZM101.07 64.2184C100.302 64.2184 99.6723 63.9785 99.1803 63.4985C98.7003 63.0186 98.4602 62.3947 98.4602 61.6268C98.4602 60.6789 98.8743 59.947 99.7024 59.431C100.53 58.9031 101.851 58.5431 103.663 58.3511C103.651 57.8832 103.525 57.4813 103.285 57.1453C103.057 56.7973 102.643 56.6234 102.043 56.6234C101.611 56.6234 101.184 56.7073 100.764 56.8753C100.356 57.0433 99.9544 57.2473 99.5583 57.4873L98.8023 56.1014C99.2943 55.7895 99.8464 55.5195 100.458 55.2915C101.082 55.0635 101.743 54.9496 102.439 54.9496C103.543 54.9496 104.365 55.2795 104.905 55.9394C105.457 56.5874 105.733 57.5292 105.733 58.7651L105.733 64.0025L104.023 64.0025L103.879 63.0306L103.807 63.0306C103.411 63.3665 102.985 63.6485 102.529 63.8765C102.085 64.1045 101.599 64.2184 101.07 64.2184ZM101.737 62.5986C102.097 62.5986 102.421 62.5146 102.709 62.3467C103.009 62.1667 103.327 61.9267 103.663 61.6268L103.663 59.647C102.463 59.803 101.629 60.0369 101.16 60.3489C100.692 60.6489 100.458 61.0208 100.458 61.4648C100.458 61.8607 100.578 62.1487 100.818 62.3287C101.058 62.5086 101.364 62.5986 101.737 62.5986ZM108.21 64.0025L108.21 55.1655L109.921 55.1655L110.065 56.3534L110.137 56.3534C110.533 55.9694 110.965 55.6395 111.433 55.3635C111.901 55.0875 112.435 54.9496 113.035 54.9496C113.983 54.9496 114.673 55.2555 115.105 55.8674C115.537 56.4794 115.753 57.3433 115.753 58.4591L115.753 64.0025L113.683 64.0025L113.683 58.7291C113.683 57.9972 113.575 57.4813 113.359 57.1813C113.143 56.8813 112.789 56.7313 112.297 56.7313C111.913 56.7313 111.571 56.8273 111.271 57.0193C110.983 57.1993 110.653 57.4693 110.281 57.8292L110.281 64.0025L108.21 64.0025ZM118.284 64.0025L118.284 55.1655L120.354 55.1655L120.354 64.0025L118.284 64.0025ZM119.328 53.6177C118.956 53.6177 118.656 53.5097 118.428 53.2938C118.2 53.0778 118.085 52.7898 118.085 52.4299C118.085 52.0819 118.2 51.7999 118.428 51.584C118.656 51.368 118.956 51.26 119.328 51.26C119.7 51.26 120 51.368 120.228 51.584C120.456 51.7999 120.57 52.0819 120.57 52.4299C120.57 52.7898 120.456 53.0778 120.228 53.2938C120 53.5097 119.7 53.6177 119.328 53.6177ZM126.109 64.2184C125.089 64.2184 124.363 63.9245 123.931 63.3365C123.511 62.7366 123.301 61.9627 123.301 61.0148L123.301 56.8033L122.041 56.8033L122.041 55.2555L123.409 55.1655L123.661 52.7538L125.389 52.7538L125.389 55.1655L127.639 55.1655L127.639 56.8033L125.389 56.8033L125.389 61.0148C125.389 62.0467 125.803 62.5626 126.631 62.5626C126.787 62.5626 126.949 62.5446 127.117 62.5086C127.285 62.4607 127.429 62.4127 127.549 62.3647L127.909 63.8945C127.669 63.9785 127.393 64.0505 127.081 64.1105C126.781 64.1824 126.457 64.2184 126.109 64.2184ZM129.499 64.0025L129.499 55.1655L131.57 55.1655L131.57 64.0025L129.499 64.0025ZM130.543 53.6177C130.171 53.6177 129.871 53.5097 129.643 53.2938C129.415 53.0778 129.301 52.7898 129.301 52.4299C129.301 52.0819 129.415 51.7999 129.643 51.584C129.871 51.368 130.171 51.26 130.543 51.26C130.915 51.26 131.216 51.368 131.444 51.584C131.672 51.7999 131.786 52.0819 131.786 52.4299C131.786 52.7898 131.672 53.0778 131.444 53.2938C131.216 53.5097 130.915 53.6177 130.543 53.6177ZM137.991 64.2184C137.175 64.2184 136.437 64.0385 135.777 63.6785C135.117 63.3066 134.595 62.7786 134.211 62.0947C133.827 61.3988 133.635 60.5649 133.635 59.593C133.635 58.6331 133.827 57.8052 134.211 57.1093C134.607 56.4134 135.117 55.8794 135.741 55.5075C136.365 55.1355 137.019 54.9496 137.703 54.9496C138.507 54.9496 139.179 55.1295 139.719 55.4895C140.259 55.8375 140.667 56.3294 140.943 56.9653C141.219 57.5892 141.357 58.3152 141.357 59.1431C141.357 59.575 141.327 59.911 141.267 60.1509L135.651 60.1509C135.747 60.9308 136.029 61.5368 136.497 61.9687C136.965 62.4007 137.553 62.6166 138.261 62.6166C138.645 62.6166 138.999 62.5626 139.323 62.4547C139.659 62.3347 139.989 62.1727 140.313 61.9687L141.015 63.2646C140.595 63.5405 140.127 63.7685 139.611 63.9485C139.095 64.1285 138.555 64.2184 137.991 64.2184ZM135.633 58.7471L139.557 58.7471C139.557 58.0632 139.407 57.5292 139.107 57.1453C138.807 56.7493 138.357 56.5514 137.757 56.5514C137.241 56.5514 136.779 56.7433 136.371 57.1273C135.975 57.4993 135.729 58.0392 135.633 58.7471ZM145.801 64.2184C145.201 64.2184 144.601 64.1045 144.001 63.8765C143.401 63.6365 142.885 63.3425 142.452 62.9946L143.425 61.6627C143.821 61.9627 144.217 62.2027 144.613 62.3827C145.009 62.5626 145.429 62.6526 145.873 62.6526C146.353 62.6526 146.707 62.5506 146.935 62.3467C147.163 62.1427 147.277 61.8907 147.277 61.5908C147.277 61.3388 147.181 61.1348 146.989 60.9788C146.809 60.8109 146.575 60.6669 146.287 60.5469C145.999 60.4149 145.699 60.2889 145.387 60.1689C145.003 60.0249 144.619 59.851 144.235 59.647C143.863 59.431 143.557 59.1611 143.317 58.8371C143.077 58.5011 142.957 58.0872 142.957 57.5952C142.957 56.8153 143.245 56.1794 143.821 55.6875C144.397 55.1955 145.177 54.9496 146.161 54.9496C146.785 54.9496 147.343 55.0575 147.835 55.2735C148.327 55.4895 148.753 55.7355 149.113 56.0114L148.159 57.2713C147.847 57.0433 147.529 56.8633 147.205 56.7313C146.893 56.5874 146.563 56.5154 146.215 56.5154C145.771 56.5154 145.441 56.6114 145.225 56.8033C145.009 56.9833 144.901 57.2113 144.901 57.4873C144.901 57.8352 145.081 58.0992 145.441 58.2792C145.801 58.4591 146.221 58.6331 146.701 58.8011C147.109 58.9451 147.505 59.1251 147.889 59.341C148.273 59.545 148.591 59.815 148.843 60.1509C149.107 60.4869 149.239 60.9308 149.239 61.4828C149.239 62.2387 148.945 62.8866 148.357 63.4265C147.769 63.9545 146.917 64.2184 145.801 64.2184ZM156.833 64.2184C156.065 64.2184 155.435 63.9785 154.943 63.4985C154.463 63.0186 154.223 62.3947 154.223 61.6268C154.223 60.6789 154.637 59.947 155.465 59.431C156.293 58.9031 157.613 58.5431 159.425 58.3511C159.413 57.8832 159.287 57.4813 159.047 57.1453C158.819 56.7973 158.405 56.6234 157.805 56.6234C157.373 56.6234 156.947 56.7073 156.527 56.8753C156.119 57.0433 155.717 57.2473 155.321 57.4873L154.565 56.1014C155.057 55.7895 155.609 55.5195 156.221 55.2915C156.845 55.0635 157.505 54.9496 158.201 54.9496C159.305 54.9496 160.128 55.2795 160.668 55.9394C161.22 56.5874 161.496 57.5292 161.496 58.7651L161.496 64.0025L159.785 64.0025L159.641 63.0306L159.569 63.0306C159.173 63.3665 158.747 63.6485 158.291 63.8765C157.847 64.1045 157.361 64.2184 156.833 64.2184ZM157.499 62.5986C157.859 62.5986 158.183 62.5146 158.471 62.3467C158.771 62.1667 159.089 61.9267 159.425 61.6268L159.425 59.647C158.225 59.803 157.391 60.0369 156.923 60.3489C156.455 60.6489 156.221 61.0208 156.221 61.4648C156.221 61.8607 156.341 62.1487 156.581 62.3287C156.821 62.5086 157.127 62.5986 157.499 62.5986ZM163.973 64.0025L163.973 55.1655L165.683 55.1655L165.827 56.3534L165.899 56.3534C166.295 55.9694 166.727 55.6395 167.195 55.3635C167.663 55.0875 168.197 54.9496 168.798 54.9496C169.746 54.9496 170.436 55.2555 170.868 55.8674C171.3 56.4794 171.516 57.3433 171.516 58.4591L171.516 64.0025L169.446 64.0025L169.446 58.7291C169.446 57.9972 169.338 57.4813 169.122 57.1813C168.906 56.8813 168.552 56.7313 168.059 56.7313C167.675 56.7313 167.333 56.8273 167.033 57.0193C166.745 57.1993 166.415 57.4693 166.043 57.8292L166.043 64.0025L163.973 64.0025ZM177.143 64.2184C176.038 64.2184 175.156 63.8105 174.496 62.9946C173.836 62.1787 173.506 61.0448 173.506 59.593C173.506 58.6331 173.68 57.8052 174.028 57.1093C174.388 56.4134 174.856 55.8794 175.432 55.5075C176.008 55.1355 176.614 54.9496 177.251 54.9496C177.755 54.9496 178.181 55.0395 178.529 55.2195C178.889 55.3875 179.237 55.6215 179.573 55.9214L179.501 54.4996L179.501 51.296L181.571 51.296L181.571 64.0025L179.861 64.0025L179.717 63.0486L179.645 63.0486C179.321 63.3725 178.943 63.6485 178.511 63.8765C178.079 64.1045 177.623 64.2184 177.143 64.2184ZM177.647 62.5086C178.307 62.5086 178.925 62.1787 179.501 61.5188L179.501 57.3973C179.201 57.1213 178.901 56.9293 178.601 56.8213C178.301 56.7133 178.001 56.6594 177.701 56.6594C177.137 56.6594 176.65 56.9173 176.242 57.4333C175.846 57.9372 175.648 58.6511 175.648 59.575C175.648 60.5229 175.822 61.2488 176.17 61.7527C176.518 62.2567 177.011 62.5086 177.647 62.5086ZM37.7479 91.2152C36.9558 91.2152 36.1878 91.0652 35.4437 90.7652C34.7116 90.4653 34.0636 90.0393 33.4995 89.4874L34.7236 88.0656C35.1437 88.4615 35.6237 88.7855 36.1638 89.0374C36.7038 89.2774 37.2439 89.3974 37.7839 89.3974C38.456 89.3974 38.966 89.2594 39.314 88.9834C39.6621 88.7075 39.8361 88.3415 39.8361 87.8856C39.8361 87.3936 39.6621 87.0397 39.314 86.8237C38.978 86.6077 38.546 86.3858 38.0179 86.1578L36.3978 85.4559C36.0137 85.2879 35.6357 85.0719 35.2637 84.808C34.9036 84.544 34.6036 84.208 34.3636 83.8001C34.1356 83.3921 34.0216 82.9002 34.0216 82.3243C34.0216 81.7003 34.1896 81.1424 34.5256 80.6505C34.8736 80.1465 35.3417 79.7506 35.9297 79.4626C36.5298 79.1626 37.2138 79.0127 37.9819 79.0127C38.666 79.0127 39.326 79.1506 39.9621 79.4266C40.5981 79.6906 41.1442 80.0505 41.6002 80.5065L40.5381 81.8383C40.1661 81.5263 39.7701 81.2804 39.35 81.1004C38.942 80.9204 38.486 80.8304 37.9819 80.8304C37.4299 80.8304 36.9798 80.9564 36.6318 81.2084C36.2958 81.4484 36.1278 81.7843 36.1278 82.2163C36.1278 82.5162 36.2118 82.7682 36.3798 82.9722C36.5598 83.1642 36.7938 83.3321 37.0818 83.4761C37.3699 83.6081 37.6759 83.7401 37.9999 83.8721L39.6021 84.538C40.2981 84.8379 40.8682 85.2339 41.3122 85.7258C41.7563 86.2058 41.9783 86.8717 41.9783 87.7236C41.9783 88.3595 41.8103 88.9415 41.4742 89.4694C41.1382 89.9973 40.6522 90.4233 40.0161 90.7472C39.392 91.0592 38.636 91.2152 37.7479 91.2152ZM47.5574 91.2152C46.8253 91.2152 46.1412 91.0352 45.5052 90.6752C44.8691 90.3033 44.3531 89.7754 43.957 89.0914C43.561 88.3955 43.363 87.5616 43.363 86.5897C43.363 85.6059 43.561 84.772 43.957 84.088C44.3531 83.3921 44.8691 82.8642 45.5052 82.5042C46.1412 82.1323 46.8253 81.9463 47.5574 81.9463C48.3014 81.9463 48.9915 82.1323 49.6275 82.5042C50.2636 82.8642 50.7796 83.3921 51.1757 84.088C51.5717 84.772 51.7697 85.6059 51.7697 86.5897C51.7697 87.5616 51.5717 88.3955 51.1757 89.0914C50.7796 89.7754 50.2636 90.3033 49.6275 90.6752C48.9915 91.0352 48.3014 91.2152 47.5574 91.2152ZM47.5574 89.5234C48.2054 89.5234 48.7155 89.2534 49.0875 88.7135C49.4595 88.1735 49.6455 87.4656 49.6455 86.5897C49.6455 85.7018 49.4595 84.9879 49.0875 84.448C48.7155 83.9081 48.2054 83.6381 47.5574 83.6381C46.9093 83.6381 46.3993 83.9081 46.0272 84.448C45.6672 84.9879 45.4872 85.7018 45.4872 86.5897C45.4872 87.4656 45.6672 88.1735 46.0272 88.7135C46.3993 89.2534 46.9093 89.5234 47.5574 89.5234ZM57.5091 91.2152C56.7051 91.2152 55.979 91.0352 55.331 90.6752C54.6949 90.3033 54.1849 89.7754 53.8008 89.0914C53.4288 88.3955 53.2428 87.5616 53.2428 86.5897C53.2428 85.6059 53.4468 84.772 53.8548 84.088C54.2629 83.3921 54.8029 82.8642 55.475 82.5042C56.159 82.1323 56.8911 81.9463 57.6712 81.9463C58.2352 81.9463 58.7273 82.0423 59.1473 82.2343C59.5673 82.4262 59.9394 82.6602 60.2634 82.9362L59.2553 84.286C59.0273 84.082 58.7933 83.9261 58.5532 83.8181C58.3132 83.6981 58.0552 83.6381 57.7792 83.6381C57.0711 83.6381 56.4891 83.9081 56.033 84.448C55.589 84.9879 55.367 85.7018 55.367 86.5897C55.367 87.4656 55.583 88.1735 56.015 88.7135C56.4591 89.2534 57.0291 89.5234 57.7252 89.5234C58.0732 89.5234 58.3972 89.4514 58.6973 89.3074C59.0093 89.1514 59.2913 88.9714 59.5433 88.7675L60.3894 90.1353C59.9814 90.4953 59.5253 90.7652 59.0213 90.9452C58.5172 91.1252 58.0132 91.2152 57.5091 91.2152ZM62.134 90.9992L62.134 82.1623L64.2042 82.1623L64.2042 90.9992L62.134 90.9992ZM63.1781 80.6145C62.8061 80.6145 62.506 80.5065 62.278 80.2905C62.05 80.0745 61.936 79.7866 61.936 79.4266C61.936 79.0786 62.05 78.7967 62.278 78.5807C62.506 78.3647 62.8061 78.2567 63.1781 78.2567C63.5501 78.2567 63.8502 78.3647 64.0782 78.5807C64.3062 78.7967 64.4202 79.0786 64.4202 79.4266C64.4202 79.7866 64.3062 80.0745 64.0782 80.2905C63.8502 80.5065 63.5501 80.6145 63.1781 80.6145ZM68.9876 91.2152C68.2195 91.2152 67.5894 90.9752 67.0974 90.4953C66.6173 90.0153 66.3773 89.3914 66.3773 88.6235C66.3773 87.6756 66.7914 86.9437 67.6194 86.4278C68.4475 85.8998 69.7676 85.5399 71.5798 85.3479C71.5678 84.8799 71.4418 84.478 71.2017 84.142C70.9737 83.7941 70.5597 83.6201 69.9596 83.6201C69.5276 83.6201 69.1016 83.7041 68.6815 83.8721C68.2735 84.04 67.8715 84.244 67.4754 84.484L66.7194 83.0982C67.2114 82.7862 67.7634 82.5162 68.3755 82.2883C68.9996 82.0603 69.6596 81.9463 70.3557 81.9463C71.4598 81.9463 72.2818 82.2763 72.8219 82.9362C73.3739 83.5841 73.65 84.526 73.65 85.7618L73.65 90.9992L71.9398 90.9992L71.7958 90.0273L71.7238 90.0273C71.3278 90.3633 70.9017 90.6452 70.4457 90.8732C70.0016 91.1012 69.5156 91.2152 68.9876 91.2152ZM69.6536 89.5954C70.0136 89.5954 70.3377 89.5114 70.6257 89.3434C70.9257 89.1634 71.2438 88.9235 71.5798 88.6235L71.5798 86.6437C70.3797 86.7997 69.5456 87.0337 69.0776 87.3456C68.6095 87.6456 68.3755 88.0176 68.3755 88.4615C68.3755 88.8575 68.4955 89.1454 68.7355 89.3254C68.9756 89.5054 69.2816 89.5954 69.6536 89.5954ZM78.1436 91.2152C77.4115 91.2152 76.8895 90.9932 76.5775 90.5493C76.2774 90.1053 76.1274 89.4994 76.1274 88.7315L76.1274 78.2927L78.1976 78.2927L78.1976 88.8395C78.1976 89.0914 78.2456 89.2714 78.3416 89.3794C78.4376 89.4754 78.5396 89.5234 78.6477 89.5234C78.6957 89.5234 78.7377 89.5234 78.7737 89.5234C78.8217 89.5114 78.8877 89.4994 78.9717 89.4874L79.2417 91.0352C79.1217 91.0832 78.9657 91.1252 78.7737 91.1612C78.5937 91.1972 78.3836 91.2152 78.1436 91.2152ZM88.2367 91.2152C87.4447 91.2152 86.6766 91.0652 85.9325 90.7652C85.2005 90.4653 84.5524 90.0393 83.9884 89.4874L85.2125 88.0656C85.6325 88.4615 86.1126 88.7855 86.6526 89.0374C87.1926 89.2774 87.7327 89.3974 88.2727 89.3974C88.9448 89.3974 89.4548 89.2594 89.8029 88.9834C90.1509 88.7075 90.3249 88.3415 90.3249 87.8856C90.3249 87.3936 90.1509 87.0397 89.8029 86.8237C89.4669 86.6077 89.0348 86.3858 88.5068 86.1578L86.8866 85.4559C86.5026 85.2879 86.1246 85.0719 85.7525 84.808C85.3925 84.544 85.0925 84.208 84.8524 83.8001C84.6244 83.3921 84.5104 82.9002 84.5104 82.3243C84.5104 81.7003 84.6784 81.1424 85.0145 80.6505C85.3625 80.1465 85.8305 79.7506 86.4186 79.4626C87.0186 79.1626 87.7027 79.0127 88.4708 79.0127C89.1548 79.0127 89.8149 79.1506 90.4509 79.4266C91.087 79.6906 91.633 80.0505 92.0891 80.5065L91.027 81.8383C90.655 81.5263 90.2589 81.2804 89.8389 81.1004C89.4308 80.9204 88.9748 80.8304 88.4708 80.8304C87.9187 80.8304 87.4687 80.9564 87.1206 81.2084C86.7846 81.4484 86.6166 81.7843 86.6166 82.2163C86.6166 82.5162 86.7006 82.7682 86.8686 82.9722C87.0486 83.1642 87.2827 83.3321 87.5707 83.4761C87.8587 83.6081 88.1647 83.7401 88.4888 83.8721L90.0909 84.538C90.787 84.8379 91.357 85.2339 91.8011 85.7258C92.2451 86.2058 92.4671 86.8717 92.4671 87.7236C92.4671 88.3595 92.2991 88.9415 91.9631 89.4694C91.627 89.9973 91.141 90.4233 90.5049 90.7472C89.8809 91.0592 89.1248 91.2152 88.2367 91.2152ZM98.1182 91.2152C97.3141 91.2152 96.5881 91.0352 95.94 90.6752C95.304 90.3033 94.7939 89.7754 94.4099 89.0914C94.0378 88.3955 93.8518 87.5616 93.8518 86.5897C93.8518 85.6059 94.0559 84.772 94.4639 84.088C94.8719 83.3921 95.412 82.8642 96.084 82.5042C96.7681 82.1323 97.5002 81.9463 98.2802 81.9463C98.8443 81.9463 99.3363 82.0423 99.7564 82.2343C100.176 82.4262 100.548 82.6602 100.872 82.9362L99.8644 84.286C99.6363 84.082 99.4023 83.9261 99.1623 83.8181C98.9223 83.6981 98.6643 83.6381 98.3882 83.6381C97.6802 83.6381 97.0981 83.9081 96.6421 84.448C96.198 84.9879 95.976 85.7018 95.976 86.5897C95.976 87.4656 96.192 88.1735 96.6241 88.7135C97.0681 89.2534 97.6382 89.5234 98.3342 89.5234C98.6823 89.5234 99.0063 89.4514 99.3063 89.3074C99.6183 89.1514 99.9004 88.9714 100.152 88.7675L100.998 90.1353C100.59 90.4953 100.134 90.7652 99.6303 90.9452C99.1263 91.1252 98.6223 91.2152 98.1182 91.2152ZM102.743 90.9992L102.743 82.1623L104.813 82.1623L104.813 90.9992L102.743 90.9992ZM103.787 80.6145C103.415 80.6145 103.115 80.5065 102.887 80.2905C102.659 80.0745 102.545 79.7866 102.545 79.4266C102.545 79.0786 102.659 78.7967 102.887 78.5807C103.115 78.3647 103.415 78.2567 103.787 78.2567C104.159 78.2567 104.459 78.3647 104.687 78.5807C104.915 78.7967 105.029 79.0786 105.029 79.4266C105.029 79.7866 104.915 80.0745 104.687 80.2905C104.459 80.5065 104.159 80.6145 103.787 80.6145ZM111.235 91.2152C110.419 91.2152 109.681 91.0352 109.021 90.6752C108.361 90.3033 107.838 89.7754 107.454 89.0914C107.07 88.3955 106.878 87.5616 106.878 86.5897C106.878 85.6299 107.07 84.802 107.454 84.106C107.85 83.4101 108.361 82.8762 108.985 82.5042C109.609 82.1323 110.263 81.9463 110.947 81.9463C111.751 81.9463 112.423 82.1263 112.963 82.4862C113.503 82.8342 113.911 83.3261 114.187 83.9621C114.463 84.586 114.601 85.3119 114.601 86.1398C114.601 86.5717 114.571 86.9077 114.511 87.1477L108.895 87.1477C108.991 87.9276 109.273 88.5335 109.741 88.9655C110.209 89.3974 110.797 89.6134 111.505 89.6134C111.889 89.6134 112.243 89.5594 112.567 89.4514C112.903 89.3314 113.233 89.1694 113.557 88.9655L114.259 90.2613C113.839 90.5373 113.371 90.7652 112.855 90.9452C112.339 91.1252 111.799 91.2152 111.235 91.2152ZM108.877 85.7438L112.801 85.7438C112.801 85.0599 112.651 84.526 112.351 84.142C112.051 83.7461 111.601 83.5481 111.001 83.5481C110.485 83.5481 110.023 83.7401 109.615 84.124C109.219 84.496 108.973 85.0359 108.877 85.7438ZM116.578 90.9992L116.578 82.1623L118.288 82.1623L118.432 83.3501L118.504 83.3501C118.9 82.9662 119.333 82.6362 119.801 82.3602C120.269 82.0843 120.803 81.9463 121.403 81.9463C122.351 81.9463 123.041 82.2523 123.473 82.8642C123.905 83.4761 124.121 84.34 124.121 85.4559L124.121 90.9992L122.051 90.9992L122.051 85.7258C122.051 84.9939 121.943 84.478 121.727 84.178C121.511 83.8781 121.157 83.7281 120.665 83.7281C120.281 83.7281 119.939 83.8241 119.639 84.016C119.351 84.196 119.02 84.466 118.648 84.8259L118.648 90.9992L116.578 90.9992ZM130.342 91.2152C129.538 91.2152 128.812 91.0352 128.164 90.6752C127.528 90.3033 127.017 89.7754 126.633 89.0914C126.261 88.3955 126.075 87.5616 126.075 86.5897C126.075 85.6059 126.279 84.772 126.687 84.088C127.095 83.3921 127.636 82.8642 128.308 82.5042C128.992 82.1323 129.724 81.9463 130.504 81.9463C131.068 81.9463 131.56 82.0423 131.98 82.2343C132.4 82.4262 132.772 82.6602 133.096 82.9362L132.088 84.286C131.86 84.082 131.626 83.9261 131.386 83.8181C131.146 83.6981 130.888 83.6381 130.612 83.6381C129.904 83.6381 129.322 83.9081 128.866 84.448C128.422 84.9879 128.2 85.7018 128.2 86.5897C128.2 87.4656 128.416 88.1735 128.848 88.7135C129.292 89.2534 129.862 89.5234 130.558 89.5234C130.906 89.5234 131.23 89.4514 131.53 89.3074C131.842 89.1514 132.124 88.9714 132.376 88.7675L133.222 90.1353C132.814 90.4953 132.358 90.7652 131.854 90.9452C131.35 91.1252 130.846 91.2152 130.342 91.2152ZM138.307 91.2152C137.491 91.2152 136.753 91.0352 136.093 90.6752C135.433 90.3033 134.911 89.7754 134.527 89.0914C134.143 88.3955 133.951 87.5616 133.951 86.5897C133.951 85.6299 134.143 84.802 134.527 84.106C134.923 83.4101 135.433 82.8762 136.057 82.5042C136.681 82.1323 137.335 81.9463 138.019 81.9463C138.824 81.9463 139.496 82.1263 140.036 82.4862C140.576 82.8342 140.984 83.3261 141.26 83.9621C141.536 84.586 141.674 85.3119 141.674 86.1398C141.674 86.5717 141.644 86.9077 141.584 87.1477L135.967 87.1477C136.063 87.9276 136.345 88.5335 136.813 88.9655C137.281 89.3974 137.869 89.6134 138.577 89.6134C138.962 89.6134 139.316 89.5594 139.64 89.4514C139.976 89.3314 140.306 89.1694 140.63 88.9655L141.332 90.2613C140.912 90.5373 140.444 90.7652 139.928 90.9452C139.412 91.1252 138.872 91.2152 138.307 91.2152ZM135.949 85.7438L139.874 85.7438C139.874 85.0599 139.724 84.526 139.424 84.142C139.124 83.7461 138.674 83.5481 138.073 83.5481C137.557 83.5481 137.095 83.7401 136.687 84.124C136.291 84.496 136.045 85.0359 135.949 85.7438ZM147.435 90.9992L147.435 79.2286L151.197 79.2286C152.013 79.2286 152.733 79.3186 153.357 79.4986C153.993 79.6786 154.491 79.9845 154.852 80.4165C155.224 80.8364 155.41 81.4064 155.41 82.1263C155.41 82.6782 155.266 83.2001 154.978 83.6921C154.689 84.172 154.287 84.502 153.771 84.682L153.771 84.754C154.419 84.8979 154.954 85.2039 155.374 85.6718C155.806 86.1278 156.022 86.7517 156.022 87.5436C156.022 88.3235 155.824 88.9714 155.428 89.4874C155.044 90.0033 154.509 90.3873 153.825 90.6392C153.141 90.8792 152.367 90.9992 151.503 90.9992L147.435 90.9992ZM149.523 84.088L151.017 84.088C151.833 84.088 152.427 83.9381 152.799 83.6381C153.171 83.3381 153.357 82.9362 153.357 82.4322C153.357 81.8563 153.165 81.4484 152.781 81.2084C152.397 80.9684 151.821 80.8484 151.053 80.8484L149.523 80.8484L149.523 84.088ZM149.523 89.3794L151.287 89.3794C152.151 89.3794 152.817 89.2234 153.285 88.9115C153.753 88.5875 153.987 88.0956 153.987 87.4356C153.987 86.8117 153.759 86.3618 153.303 86.0858C152.847 85.7978 152.175 85.6539 151.287 85.6539L149.523 85.6539L149.523 89.3794ZM160.624 91.2152C159.676 91.2152 158.986 90.9092 158.554 90.2973C158.122 89.6854 157.906 88.8215 157.906 87.7056L157.906 82.1623L159.976 82.1623L159.976 87.4356C159.976 88.1675 160.084 88.6835 160.3 88.9834C160.516 89.2834 160.864 89.4334 161.344 89.4334C161.728 89.4334 162.064 89.3374 162.352 89.1454C162.652 88.9535 162.97 88.6415 163.306 88.2095L163.306 82.1623L165.377 82.1623L165.377 90.9992L163.685 90.9992L163.523 89.7034L163.468 89.7034C163.084 90.1593 162.664 90.5253 162.208 90.8012C161.752 91.0772 161.224 91.2152 160.624 91.2152ZM167.999 90.9992L167.999 82.1623L170.069 82.1623L170.069 90.9992L167.999 90.9992ZM169.043 80.6145C168.671 80.6145 168.371 80.5065 168.143 80.2905C167.915 80.0745 167.801 79.7866 167.801 79.4266C167.801 79.0786 167.915 78.7967 168.143 78.5807C168.371 78.3647 168.671 78.2567 169.043 78.2567C169.415 78.2567 169.715 78.3647 169.943 78.5807C170.171 78.7967 170.285 79.0786 170.285 79.4266C170.285 79.7866 170.171 80.0745 169.943 80.2905C169.715 80.5065 169.415 80.6145 169.043 80.6145ZM174.726 91.2152C173.994 91.2152 173.472 90.9932 173.16 90.5493C172.86 90.1053 172.71 89.4994 172.71 88.7315L172.71 78.2927L174.78 78.2927L174.78 88.8395C174.78 89.0914 174.828 89.2714 174.924 89.3794C175.02 89.4754 175.122 89.5234 175.23 89.5234C175.278 89.5234 175.32 89.5234 175.356 89.5234C175.404 89.5114 175.47 89.4994 175.554 89.4874L175.824 91.0352C175.704 91.0832 175.548 91.1252 175.356 91.1612C175.176 91.1972 174.966 91.2152 174.726 91.2152ZM180.694 91.2152C179.59 91.2152 178.707 90.8072 178.047 89.9913C177.387 89.1754 177.057 88.0416 177.057 86.5897C177.057 85.6299 177.231 84.802 177.579 84.106C177.939 83.4101 178.407 82.8762 178.983 82.5042C179.56 82.1323 180.166 81.9463 180.802 81.9463C181.306 81.9463 181.732 82.0363 182.08 82.2163C182.44 82.3842 182.788 82.6182 183.124 82.9182L183.052 81.4964L183.052 78.2927L185.122 78.2927L185.122 90.9992L183.412 90.9992L183.268 90.0453L183.196 90.0453C182.872 90.3693 182.494 90.6452 182.062 90.8732C181.63 91.1012 181.174 91.2152 180.694 91.2152ZM181.198 89.5054C181.858 89.5054 182.476 89.1754 183.052 88.5155L183.052 84.394C182.752 84.118 182.452 83.9261 182.152 83.8181C181.852 83.7101 181.552 83.6561 181.252 83.6561C180.688 83.6561 180.202 83.9141 179.794 84.43C179.398 84.9339 179.2 85.6479 179.2 86.5717C179.2 87.5196 179.374 88.2455 179.722 88.7495C180.07 89.2534 180.562 89.5054 181.198 89.5054ZM187.758 90.9992L187.758 82.1623L189.829 82.1623L189.829 90.9992L187.758 90.9992ZM188.803 80.6145C188.43 80.6145 188.13 80.5065 187.902 80.2905C187.674 80.0745 187.56 79.7866 187.56 79.4266C187.56 79.0786 187.674 78.7967 187.902 78.5807C188.13 78.3647 188.43 78.2567 188.803 78.2567C189.175 78.2567 189.475 78.3647 189.703 78.5807C189.931 78.7967 190.045 79.0786 190.045 79.4266C190.045 79.7866 189.931 80.0745 189.703 80.2905C189.475 80.5065 189.175 80.6145 188.803 80.6145ZM192.47 90.9992L192.47 82.1623L194.18 82.1623L194.324 83.3501L194.396 83.3501C194.792 82.9662 195.224 82.6362 195.692 82.3602C196.16 82.0843 196.694 81.9463 197.294 81.9463C198.242 81.9463 198.932 82.2523 199.364 82.8642C199.796 83.4761 200.012 84.34 200.012 85.4559L200.012 90.9992L197.942 90.9992L197.942 85.7258C197.942 84.9939 197.834 84.478 197.618 84.178C197.402 83.8781 197.048 83.7281 196.556 83.7281C196.172 83.7281 195.83 83.8241 195.53 84.016C195.242 84.196 194.912 84.466 194.54 84.826L194.54 90.9992L192.47 90.9992ZM205.621 94.9047C204.925 94.9047 204.295 94.8207 203.731 94.6528C203.179 94.4848 202.741 94.2268 202.417 93.8789C202.105 93.5429 201.949 93.1169 201.949 92.601C201.949 91.8691 202.369 91.2392 203.209 90.7112L203.209 90.6392C202.981 90.4953 202.789 90.3033 202.633 90.0633C202.489 89.8233 202.417 89.5234 202.417 89.1634C202.417 88.8155 202.513 88.5035 202.705 88.2275C202.909 87.9396 203.137 87.7056 203.389 87.5256L203.389 87.4536C203.089 87.2257 202.819 86.9077 202.579 86.4997C202.351 86.0918 202.237 85.6299 202.237 85.1139C202.237 84.43 202.399 83.8541 202.723 83.3861C203.047 82.9182 203.473 82.5642 204.001 82.3243C204.541 82.0723 205.117 81.9463 205.729 81.9463C205.969 81.9463 206.197 81.9703 206.413 82.0183C206.641 82.0543 206.845 82.1023 207.025 82.1623L210.194 82.1623L210.194 83.6921L208.573 83.6921C208.717 83.8601 208.837 84.076 208.933 84.34C209.03 84.592 209.078 84.8739 209.078 85.1859C209.078 85.8338 208.927 86.3858 208.627 86.8417C208.327 87.2857 207.925 87.6216 207.421 87.8496C206.917 88.0776 206.353 88.1915 205.729 88.1915C205.537 88.1915 205.339 88.1735 205.135 88.1376C204.931 88.1016 204.727 88.0416 204.523 87.9576C204.391 88.0776 204.283 88.1975 204.199 88.3175C204.127 88.4375 204.091 88.5995 204.091 88.8035C204.091 89.0554 204.193 89.2534 204.397 89.3974C204.613 89.5414 204.991 89.6134 205.531 89.6134L207.097 89.6134C208.165 89.6134 208.969 89.7874 209.51 90.1353C210.062 90.4713 210.338 91.0232 210.338 91.7911C210.338 92.367 210.146 92.889 209.762 93.3569C209.378 93.8369 208.831 94.2148 208.123 94.4908C207.415 94.7667 206.581 94.9047 205.621 94.9047ZM205.729 86.8957C206.149 86.8957 206.509 86.7397 206.809 86.4278C207.109 86.1158 207.259 85.6778 207.259 85.1139C207.259 84.562 207.109 84.136 206.809 83.8361C206.521 83.5241 206.161 83.3681 205.729 83.3681C205.297 83.3681 204.931 83.5181 204.631 83.8181C204.331 84.118 204.181 84.55 204.181 85.1139C204.181 85.6778 204.331 86.1158 204.631 86.4278C204.931 86.7397 205.297 86.8957 205.729 86.8957ZM205.945 93.5549C206.653 93.5549 207.229 93.4109 207.673 93.1229C208.117 92.835 208.339 92.505 208.339 92.1331C208.339 91.7851 208.201 91.5511 207.925 91.4312C207.661 91.3112 207.277 91.2512 206.773 91.2512L205.567 91.2512C205.087 91.2512 204.685 91.2092 204.361 91.1252C203.905 91.4731 203.677 91.8631 203.677 92.295C203.677 92.691 203.881 92.997 204.289 93.2129C204.697 93.4409 205.249 93.5549 205.945 93.5549ZM100.418 121.2C99.6743 119.976 99.0923 118.698 98.6723 117.366C98.2522 116.034 98.0422 114.576 98.0422 112.993C98.0422 111.409 98.2522 109.951 98.6723 108.619C99.0923 107.287 99.6743 106.009 100.418 104.786L101.715 105.361C101.042 106.513 100.544 107.743 100.22 109.051C99.8964 110.359 99.7343 111.673 99.7343 112.993C99.7343 114.312 99.8964 115.626 100.22 116.934C100.544 118.242 101.042 119.472 101.715 120.624L100.418 121.2ZM103.987 117.996L103.987 106.225L106.075 106.225L106.075 110.959L110.845 110.959L110.845 106.225L112.933 106.225L112.933 117.996L110.845 117.996L110.845 112.777L106.075 112.777L106.075 117.996L103.987 117.996ZM119.362 118.212C118.569 118.212 117.801 118.062 117.057 117.762C116.325 117.462 115.677 117.036 115.113 116.484L116.337 115.062C116.757 115.458 117.237 115.782 117.777 116.034C118.317 116.274 118.858 116.394 119.398 116.394C120.07 116.394 120.58 116.256 120.928 115.98C121.276 115.704 121.45 115.338 121.45 114.882C121.45 114.39 121.276 114.036 120.928 113.82C120.592 113.604 120.16 113.382 119.632 113.155L118.011 112.453C117.627 112.285 117.249 112.069 116.877 111.805C116.517 111.541 116.217 111.205 115.977 110.797C115.749 110.389 115.635 109.897 115.635 109.321C115.635 108.697 115.803 108.139 116.139 107.647C116.487 107.143 116.955 106.747 117.543 106.459C118.143 106.159 118.828 106.009 119.596 106.009C120.28 106.009 120.94 106.147 121.576 106.423C122.212 106.687 122.758 107.047 123.214 107.503L122.152 108.835C121.78 108.523 121.384 108.277 120.964 108.097C120.556 107.917 120.1 107.827 119.596 107.827C119.044 107.827 118.594 107.953 118.245 108.205C117.909 108.445 117.741 108.781 117.741 109.213C117.741 109.513 117.825 109.765 117.993 109.969C118.173 110.161 118.407 110.329 118.696 110.473C118.984 110.605 119.29 110.737 119.614 110.869L121.216 111.535C121.912 111.835 122.482 112.231 122.926 112.723C123.37 113.203 123.592 113.868 123.592 114.72C123.592 115.356 123.424 115.938 123.088 116.466C122.752 116.994 122.266 117.42 121.63 117.744C121.006 118.056 120.25 118.212 119.362 118.212ZM128.89 118.212C128.098 118.212 127.33 118.062 126.586 117.762C125.853 117.462 125.205 117.036 124.641 116.484L125.865 115.062C126.286 115.458 126.766 115.782 127.306 116.034C127.846 116.274 128.386 116.394 128.926 116.394C129.598 116.394 130.108 116.256 130.456 115.98C130.804 115.704 130.978 115.338 130.978 114.882C130.978 114.39 130.804 114.036 130.456 113.82C130.12 113.604 129.688 113.382 129.16 113.155L127.54 112.453C127.156 112.285 126.778 112.069 126.406 111.805C126.046 111.541 125.745 111.205 125.505 110.797C125.277 110.389 125.163 109.897 125.163 109.321C125.163 108.697 125.331 108.139 125.667 107.647C126.016 107.143 126.484 106.747 127.072 106.459C127.672 106.159 128.356 106.009 129.124 106.009C129.808 106.009 130.468 106.147 131.104 106.423C131.74 106.687 132.286 107.047 132.742 107.503L131.68 108.835C131.308 108.523 130.912 108.277 130.492 108.097C130.084 107.917 129.628 107.827 129.124 107.827C128.572 107.827 128.122 107.953 127.774 108.205C127.438 108.445 127.27 108.781 127.27 109.213C127.27 109.513 127.354 109.765 127.522 109.969C127.702 110.161 127.936 110.329 128.224 110.473C128.512 110.605 128.818 110.737 129.142 110.869L130.744 111.535C131.44 111.835 132.01 112.231 132.454 112.723C132.898 113.203 133.12 113.868 133.12 114.72C133.12 115.356 132.952 115.938 132.616 116.466C132.28 116.994 131.794 117.42 131.158 117.744C130.534 118.056 129.778 118.212 128.89 118.212ZM135.261 117.996L135.261 106.225L139.023 106.225C139.839 106.225 140.559 106.315 141.183 106.495C141.819 106.675 142.318 106.981 142.678 107.413C143.05 107.833 143.236 108.403 143.236 109.123C143.236 109.675 143.092 110.197 142.804 110.689C142.516 111.169 142.114 111.499 141.597 111.679L141.597 111.751C142.246 111.895 142.78 112.201 143.2 112.669C143.632 113.125 143.848 113.748 143.848 114.54C143.848 115.32 143.65 115.968 143.254 116.484C142.87 117 142.336 117.384 141.651 117.636C140.967 117.876 140.193 117.996 139.329 117.996L135.261 117.996ZM137.349 111.085L138.843 111.085C139.659 111.085 140.253 110.935 140.625 110.635C140.997 110.335 141.183 109.933 141.183 109.429C141.183 108.853 140.991 108.445 140.607 108.205C140.223 107.965 139.647 107.845 138.879 107.845L137.349 107.845L137.349 111.085ZM137.349 116.376L139.113 116.376C139.977 116.376 140.643 116.22 141.111 115.908C141.579 115.584 141.813 115.092 141.813 114.432C141.813 113.808 141.585 113.359 141.129 113.083C140.673 112.795 140.001 112.651 139.113 112.651L137.349 112.651L137.349 116.376ZM146.578 121.2L145.282 120.624C145.954 119.472 146.452 118.242 146.776 116.934C147.1 115.626 147.262 114.312 147.262 112.993C147.262 111.673 147.1 110.359 146.776 109.051C146.452 107.743 145.954 106.513 145.282 105.361L146.578 104.786C147.322 106.009 147.904 107.287 148.324 108.619C148.744 109.951 148.954 111.409 148.954 112.993C148.954 114.576 148.744 116.034 148.324 117.366C147.904 118.698 147.322 119.976 146.578 121.2Z" fill="#121023"/>
<path d="M123.48 0.314941L123.48 35.3149" stroke="white" stroke-width="2"/>
<path d="M124.355 133.312L124.355 168.312" stroke="white" stroke-width="2"/>
</svg>
