<svg width="29" height="27" viewBox="0 0 29 27" fill="none" xmlns="http://www.w3.org/2000/svg">
    <g clip-path="url(#clip0)">
        <path
            d="M25.1992 0H17.7648C16.356 0 15.0304 0.5265 14.0342 1.48273L0.999744 13.995C0.364527 14.6047 0 15.4485 0 16.3148C0 17.1765 0.364527 18.0202 0.999744 18.63L8.72123 26.0415C9.35535 26.6501 10.2344 27 11.1368 27C12.0346 27 12.9137 26.6501 13.5489 26.0404L26.5845 13.5282C27.5808 12.573 28.1293 11.3006 28.1293 9.94839V2.81248C28.1293 1.26114 26.8154 0 25.1992 0ZM21.683 9.00002C20.0667 9.00002 18.7529 7.73887 18.7529 6.18754C18.7529 4.63614 20.0668 3.37505 21.683 3.37505C23.2992 3.37505 24.6131 4.63614 24.6131 6.18748C24.6131 7.73887 23.2992 9.00002 21.683 9.00002Z"
            fill="#C2A53A" />
    </g>
    <defs>
        <clipPath id="clip0">
            <rect width="28.1293" height="27" fill="white" />
        </clipPath>
    </defs>
</svg>