<svg width="29" height="27" xmlns="http://www.w3.org/2000/svg" fill="none">
    <path
        d="m14.45892,0c-5.6871,0 -10.3141,4.0375 -10.3141,9.00002c0,1.48978 0.42684,2.96688 1.23829,4.27698l8.51175,13.433c0.11331,0.179 0.32926,0.29 0.56406,0.29c0.2348,0 0.4507,-0.111 0.564,-0.29l8.5149,-13.4374c0.8083,-1.3057 1.2351,-2.7829 1.2351,-4.27264c0,-4.96246 -4.627,-8.99996 -10.314,-8.99996zm0,13.5c-2.84357,0 -5.15704,-2.0187 -5.15704,-4.49998c0,-2.48126 2.31347,-4.49998 5.15704,-4.49998c2.8435,0 5.157,2.01872 5.157,4.49998c0,2.48128 -2.3135,4.49998 -5.157,4.49998z"
        fill="#C2A53A" id="svg_1" stroke="null" />
</svg>