<svg width="21" height="27" viewBox="0 0 21 27" fill="none" xmlns="http://www.w3.org/2000/svg">
    <path
        d="M10.3141 0C4.627 0 0 4.0375 0 9.00002C0 10.4898 0.426844 11.9669 1.23829 13.277L9.75004 26.71C9.86335 26.889 10.0793 27 10.3141 27C10.5489 27 10.7648 26.889 10.8781 26.71L19.393 13.2726C20.2013 11.9669 20.6281 10.4897 20.6281 8.99996C20.6281 4.0375 16.0011 0 10.3141 0ZM10.3141 13.5C7.47053 13.5 5.15706 11.4813 5.15706 9.00002C5.15706 6.51876 7.47053 4.50004 10.3141 4.50004C13.1576 4.50004 15.4711 6.51876 15.4711 9.00002C15.4711 11.4813 13.1576 13.5 10.3141 13.5Z"
        fill="#C2A53A" />
</svg>