<svg width="32" height="31" viewBox="0 0 32 31" fill="none" xmlns="http://www.w3.org/2000/svg">
    <path
        d="M15.7464 0.785156C15.7379 0.793252 15.7208 0.793252 15.6951 0.793252C7.03927 0.793252 0 7.45579 0 15.6484C0 18.9918 1.206 22.238 3.41272 24.8529L1.12902 29.872C0.94085 30.2849 1.14613 30.7625 1.57379 30.9325C1.72774 30.9973 1.89881 31.0135 2.06132 30.9892L10.4349 29.5968C12.1113 30.1716 13.8733 30.463 15.6523 30.4549C24.3082 30.4549 31.3474 23.7924 31.3474 15.5998C31.3645 7.4315 24.3766 0.793252 15.7464 0.785156ZM15.6609 28.8439C14.0101 28.8439 12.3765 28.5606 10.8283 28.0101C10.6829 27.9534 10.529 27.9453 10.375 27.9696L3.32719 29.1353L5.19178 25.031C5.32008 24.7476 5.26876 24.4157 5.05493 24.1809C4.04566 23.0719 3.24166 21.809 2.67715 20.4409C2.04421 18.9108 1.71919 17.2836 1.71919 15.6403C1.71919 8.33819 7.99723 2.40424 15.7036 2.40424C23.393 2.38805 29.6368 8.27343 29.6453 15.5512C29.6453 15.5674 29.6453 15.5836 29.6453 15.5998C29.6453 22.91 23.3673 28.8439 15.6609 28.8439Z"
        fill="#C2A53A" />
    <circle cx="10.5" cy="15.5" r="1.5" fill="#C2A53A" />
    <circle cx="16.5" cy="15.5" r="1.5" fill="#C2A53A" />
    <circle cx="22.5" cy="15.5" r="1.5" fill="#C2A53A" />
</svg>