<svg width="496" height="256" viewBox="0 0 496 256" fill="none" xmlns="http://www.w3.org/2000/svg">
<path fill-rule="evenodd" clip-rule="evenodd" d="M22.7194 0L472.609 1.95561e-05L473.203 0.113157C485.507 0.367715 495.406 10.5218 495.434 22.8113L495.427 81.9042C495.434 83.8346 494.713 85.6872 493.504 87.1226C492.316 88.5368 490.626 89.6046 488.724 90.0218C484.404 90.9208 480.27 92.5569 476.505 94.8584C451.728 110.005 451.947 145.735 476.279 160.648C479.885 162.868 483.958 164.523 488.236 165.449C490.193 165.737 491.983 166.718 493.278 168.214C494.551 169.684 495.321 171.615 495.321 173.68V232.78C495.321 245.239 485.068 255.492 472.609 255.492L22.7194 255.492C10.246 255.492 4.9309e-05 245.246 4.9309e-05 232.772L5.47038e-05 173.248C-0.00701636 171.431 0.67181 169.621 1.81025 168.199C2.92041 166.821 4.4831 165.739 6.31451 165.265C10.5359 164.296 14.4957 162.613 18.0242 160.329C41.281 145.388 41.8678 110.973 18.3 95.5372C14.8069 93.2603 10.8895 91.5208 6.74586 90.446C4.84374 90.0147 3.1184 88.954 1.91632 87.5115C0.67529 86.0348 -0.00128809 84.1655 0.0071138 82.2365L0.00713133 22.7123C6.00987e-05 10.3167 10.2036 0 22.7194 0ZM397.67 236.188C397.67 237.121 397.79 237.977 398.023 238.748L97.5525 238.74L97.6868 238.111C97.7293 237.701 97.7717 237.319 97.7717 236.895V220.151C97.7717 210.053 82.8447 208.589 81.1193 218.927C81.0769 219.352 81.0274 219.712 81.0274 220.151L81.0345 236.888C81.0345 237.538 81.0981 238.168 81.2113 238.733L22.7265 238.74C19.4455 238.74 16.4827 235.891 16.5393 232.553L16.5322 179.244C21.0718 177.519 25.3498 175.221 29.2601 172.414C59.7647 150.55 60.2385 104.864 29.2601 82.6396C25.364 79.8465 21.0718 77.5484 16.5393 75.816L16.5322 22.4931C16.5393 19.3889 19.5586 15.818 22.7265 16.5251L81.5012 16.5251C81.3456 17.0059 81.2042 17.515 81.1193 18.0666C81.0698 18.4838 81.0274 18.8515 81.0415 19.2899L81.0345 36.0271C81.0274 46.1317 95.9615 47.6024 97.6868 37.2504C97.7293 36.8403 97.7717 36.4726 97.7788 36.0271L97.7717 19.2899C97.7816 18.3519 97.6407 17.4184 97.3545 16.5251L397.917 16.5251L397.755 17.3665C397.712 17.7908 397.67 18.1585 397.663 18.5899L397.67 35.3271C397.67 45.4245 412.597 46.9024 414.315 36.5433C414.373 36.1405 414.401 35.734 414.4 35.3271L414.407 18.5898C414.4 17.8474 414.315 17.1686 414.181 16.5251L472.616 16.5251C475.939 16.5251 478.796 19.3818 478.796 22.7052L478.789 75.5473C474.125 77.1287 469.695 79.3285 465.616 82.088C433.138 104.1 433.57 151.469 465.623 173.185C469.66 175.921 474.108 178.134 478.796 179.725L478.803 232.567C478.803 235.877 475.932 238.748 472.609 238.748H414.004C414.131 238.323 414.23 237.885 414.322 237.411C414.365 237.001 414.414 236.626 414.4 236.188L414.407 219.451C414.407 209.353 399.487 207.882 397.762 218.234C397.705 218.644 397.677 219.012 397.67 219.458L397.67 236.188ZM81.0274 186.676C81.0274 196.774 95.9615 198.244 97.6868 187.907C97.7363 187.475 97.7717 187.115 97.7788 186.683L97.7717 169.932C97.7717 159.834 82.8447 158.357 81.1193 168.723C81.0698 169.126 81.0345 169.501 81.0345 169.939L81.0274 186.676ZM81.0416 136.457C81.0274 146.569 95.9615 148.04 97.6798 137.681C97.7363 137.271 97.7788 136.903 97.7717 136.457L97.7717 119.727C97.7788 109.623 82.8447 108.152 81.1123 118.497C81.0769 118.914 81.0345 119.282 81.0345 119.72L81.0416 136.457ZM81.0345 86.2458C81.0345 96.3433 95.9544 97.8141 97.6869 87.4691C97.7293 87.0448 97.7717 86.6772 97.7717 86.2529L97.7788 69.5015C97.7717 59.397 82.8447 57.9333 81.1193 68.2853C81.0769 68.7096 81.0416 69.0702 81.0274 69.5086L81.0345 86.2458ZM397.677 185.976C397.67 196.081 412.59 197.552 414.315 187.199C414.372 186.797 414.4 186.39 414.4 185.983L414.414 169.239C414.4 159.127 399.48 157.671 397.755 168.009C397.719 168.426 397.67 168.801 397.67 169.239L397.677 185.976ZM397.663 135.757C397.67 145.862 412.597 147.326 414.315 136.981C414.365 136.564 414.4 136.203 414.407 135.757L414.4 119.02C414.4 108.923 399.487 107.445 397.755 117.804C397.719 118.221 397.67 118.582 397.67 119.02L397.663 135.757ZM397.67 85.5458C397.663 95.6504 412.59 97.1141 414.322 86.7691C414.365 86.3448 414.407 85.9771 414.407 85.5529V68.8086C414.414 58.704 399.48 57.2332 397.755 67.5711C397.705 68.0025 397.67 68.3631 397.677 68.8086L397.67 85.5458Z" fill="url(#paint0_linear_534_379)" fill-opacity="0.75"/>
<path opacity="0.2" d="M314.417 127.737C314.427 137.098 312.463 146.356 308.653 154.907C304.843 163.458 299.273 171.109 292.306 177.362C288.117 169.123 281.73 162.204 273.851 157.373C265.972 152.541 256.909 149.985 247.667 149.987C253.168 149.987 258.545 148.356 263.119 145.3C267.692 142.244 271.257 137.9 273.362 132.818C275.467 127.736 276.018 122.144 274.945 116.749C273.872 111.354 271.223 106.398 267.333 102.508C263.444 98.6186 258.488 95.9697 253.093 94.8965C247.698 93.8234 242.106 94.3741 237.024 96.4792C231.941 98.5843 227.598 102.149 224.542 106.723C221.486 111.297 219.854 116.674 219.854 122.175C219.854 129.551 222.785 136.625 228.001 141.841C233.216 147.057 240.291 149.987 247.667 149.987C238.425 149.985 229.362 152.541 221.483 157.373C213.604 162.204 207.216 169.123 203.028 177.362C194.755 169.921 188.474 160.53 184.755 150.043C181.037 139.556 179.998 128.306 181.735 117.316C183.471 106.326 187.928 95.9443 194.698 87.1149C201.469 78.2856 210.34 71.2888 220.503 66.7609C230.667 62.233 241.801 60.3175 252.893 61.1887C263.986 62.0599 274.684 65.6901 284.017 71.7492C293.349 77.8083 301.018 86.1041 306.327 95.8822C311.637 105.66 314.418 116.611 314.417 127.737Z" fill="white"/>
<path d="M247.667 55.4246C233.365 55.4246 219.384 59.6656 207.492 67.6114C195.601 75.5572 186.332 86.8509 180.859 100.064C175.386 113.278 173.954 127.817 176.744 141.845C179.534 155.872 186.421 168.757 196.534 178.87C206.647 188.983 219.532 195.87 233.559 198.66C247.587 201.45 262.126 200.018 275.34 194.545C288.553 189.072 299.847 179.803 307.793 167.912C315.738 156.02 319.979 142.039 319.979 127.737C319.959 108.565 312.334 90.1836 298.777 76.6268C285.22 63.0699 266.839 55.4448 247.667 55.4246ZM210.176 176.061C214.2 169.768 219.743 164.589 226.295 161.001C232.847 157.414 240.197 155.533 247.667 155.533C255.137 155.533 262.487 157.414 269.039 161.001C275.591 164.589 281.134 169.768 285.158 176.061C274.439 184.398 261.247 188.924 247.667 188.924C234.087 188.924 220.895 184.398 210.176 176.061ZM225.417 122.175C225.417 117.774 226.722 113.472 229.167 109.813C231.612 106.154 235.087 103.302 239.152 101.618C243.218 99.9342 247.692 99.4936 252.008 100.352C256.324 101.211 260.288 103.33 263.4 106.441C266.512 109.553 268.631 113.518 269.489 117.834C270.348 122.15 269.907 126.624 268.223 130.689C266.539 134.755 263.687 138.23 260.028 140.675C256.369 143.12 252.068 144.425 247.667 144.425C241.766 144.425 236.107 142.08 231.934 137.908C227.761 133.735 225.417 128.076 225.417 122.175ZM293.391 168.35C287.187 159.36 278.464 152.405 268.318 148.36C273.768 144.067 277.745 138.183 279.695 131.526C281.646 124.868 281.474 117.768 279.202 111.213C276.931 104.658 272.673 98.974 267.021 94.9509C261.369 90.9279 254.604 88.766 247.667 88.766C240.73 88.766 233.965 90.9279 228.313 94.9509C222.661 98.974 218.403 104.658 216.132 111.213C213.86 117.768 213.688 124.868 215.639 131.526C217.589 138.183 221.566 144.067 227.016 148.36C216.87 152.405 208.147 159.36 201.943 168.35C194.104 159.535 188.98 148.641 187.189 136.981C185.398 125.321 187.015 113.392 191.847 102.63C196.678 91.868 204.518 82.7321 214.421 76.3224C224.325 69.9128 235.87 66.5026 247.667 66.5026C259.464 66.5026 271.009 69.9128 280.913 76.3224C290.816 82.7321 298.656 91.868 303.487 102.63C308.319 113.392 309.936 125.321 308.145 136.981C306.354 148.641 301.23 159.535 293.391 168.35Z" fill="white"/>
<defs>
<linearGradient id="paint0_linear_534_379" x1="428.692" y1="-53.2824" x2="66.6413" y2="308.769" gradientUnits="userSpaceOnUse">
<stop stop-color="white"/>
<stop offset="1" stop-color="#999999" stop-opacity="0.5"/>
</linearGradient>
</defs>
</svg>
