<svg width="496" height="256" viewBox="0 0 496 256" fill="none" xmlns="http://www.w3.org/2000/svg">
<path fill-rule="evenodd" clip-rule="evenodd" d="M22.7194 0L472.609 1.95561e-05L473.203 0.113157C485.507 0.367715 495.406 10.5218 495.434 22.8113L495.427 81.9042C495.434 83.8346 494.713 85.6872 493.504 87.1226C492.316 88.5368 490.626 89.6046 488.724 90.0218C484.404 90.9208 480.27 92.5569 476.505 94.8584C451.728 110.005 451.947 145.735 476.279 160.648C479.885 162.868 483.958 164.523 488.236 165.449C490.193 165.737 491.983 166.718 493.278 168.214C494.551 169.684 495.321 171.615 495.321 173.68V232.78C495.321 245.239 485.068 255.492 472.609 255.492L22.7194 255.492C10.246 255.492 4.9309e-05 245.246 4.9309e-05 232.772L5.47038e-05 173.248C-0.00701636 171.431 0.67181 169.621 1.81025 168.199C2.92041 166.821 4.4831 165.739 6.31451 165.265C10.5359 164.296 14.4957 162.613 18.0242 160.329C41.281 145.388 41.8678 110.973 18.3 95.5372C14.8069 93.2603 10.8895 91.5208 6.74586 90.446C4.84374 90.0147 3.1184 88.954 1.91632 87.5115C0.67529 86.0348 -0.00128809 84.1655 0.0071138 82.2365L0.00713133 22.7123C6.00987e-05 10.3167 10.2036 0 22.7194 0ZM397.67 236.188C397.67 237.121 397.79 237.977 398.023 238.748L97.5525 238.74L97.6868 238.111C97.7293 237.701 97.7717 237.319 97.7717 236.895V220.151C97.7717 210.053 82.8447 208.589 81.1193 218.927C81.0769 219.352 81.0274 219.712 81.0274 220.151L81.0345 236.888C81.0345 237.538 81.0981 238.168 81.2113 238.733L22.7265 238.74C19.4455 238.74 16.4827 235.891 16.5393 232.553L16.5322 179.244C21.0718 177.519 25.3498 175.221 29.2601 172.414C59.7647 150.55 60.2385 104.864 29.2601 82.6396C25.364 79.8465 21.0718 77.5484 16.5393 75.816L16.5322 22.4931C16.5393 19.3889 19.5586 15.818 22.7265 16.5251L81.5012 16.5251C81.3456 17.0059 81.2042 17.515 81.1193 18.0666C81.0698 18.4838 81.0274 18.8515 81.0415 19.2899L81.0345 36.0271C81.0274 46.1317 95.9615 47.6024 97.6868 37.2504C97.7293 36.8403 97.7717 36.4726 97.7788 36.0271L97.7717 19.2899C97.7816 18.3519 97.6407 17.4184 97.3545 16.5251L397.917 16.5251L397.755 17.3665C397.712 17.7908 397.67 18.1585 397.663 18.5899L397.67 35.3271C397.67 45.4245 412.597 46.9024 414.315 36.5433C414.373 36.1405 414.401 35.734 414.4 35.3271L414.407 18.5898C414.4 17.8474 414.315 17.1686 414.181 16.5251L472.616 16.5251C475.939 16.5251 478.796 19.3818 478.796 22.7052L478.789 75.5473C474.125 77.1287 469.695 79.3285 465.616 82.088C433.138 104.1 433.57 151.469 465.623 173.185C469.66 175.921 474.108 178.134 478.796 179.725L478.803 232.567C478.803 235.877 475.932 238.748 472.609 238.748H414.004C414.131 238.323 414.23 237.885 414.322 237.411C414.365 237.001 414.414 236.626 414.4 236.188L414.407 219.451C414.407 209.353 399.487 207.882 397.762 218.234C397.705 218.644 397.677 219.012 397.67 219.458L397.67 236.188ZM81.0274 186.676C81.0274 196.774 95.9615 198.244 97.6868 187.907C97.7363 187.475 97.7717 187.115 97.7788 186.683L97.7717 169.932C97.7717 159.834 82.8447 158.357 81.1193 168.723C81.0698 169.126 81.0345 169.501 81.0345 169.939L81.0274 186.676ZM81.0416 136.457C81.0274 146.569 95.9615 148.04 97.6798 137.681C97.7363 137.271 97.7788 136.903 97.7717 136.457L97.7717 119.727C97.7788 109.623 82.8447 108.152 81.1123 118.497C81.0769 118.914 81.0345 119.282 81.0345 119.72L81.0416 136.457ZM81.0345 86.2458C81.0345 96.3433 95.9544 97.8141 97.6869 87.4691C97.7293 87.0448 97.7717 86.6772 97.7717 86.2529L97.7788 69.5015C97.7717 59.397 82.8447 57.9333 81.1193 68.2853C81.0769 68.7096 81.0416 69.0702 81.0274 69.5086L81.0345 86.2458ZM397.677 185.976C397.67 196.081 412.59 197.552 414.315 187.199C414.372 186.797 414.4 186.39 414.4 185.983L414.414 169.239C414.4 159.127 399.48 157.671 397.755 168.009C397.719 168.426 397.67 168.801 397.67 169.239L397.677 185.976ZM397.663 135.757C397.67 145.862 412.597 147.326 414.315 136.981C414.365 136.564 414.4 136.203 414.407 135.757L414.4 119.02C414.4 108.923 399.487 107.445 397.755 117.804C397.719 118.221 397.67 118.582 397.67 119.02L397.663 135.757ZM397.67 85.5458C397.663 95.6504 412.59 97.1141 414.322 86.7691C414.365 86.3448 414.407 85.9771 414.407 85.5529V68.8086C414.414 58.704 399.48 57.2332 397.755 67.5711C397.705 68.0025 397.67 68.3631 397.677 68.8086L397.67 85.5458Z" fill="url(#paint0_linear_534_380)" fill-opacity="0.75"/>
<path opacity="0.2" d="M314.418 121V177.8C314.418 179.275 313.832 180.69 312.789 181.733C311.745 182.776 310.33 183.362 308.855 183.362H186.48C185.005 183.362 183.59 182.776 182.547 181.733C181.504 180.69 180.918 179.275 180.918 177.8V121C201.204 132.735 224.232 138.898 247.668 138.862C271.104 138.899 294.132 132.736 314.418 121Z" fill="white"/>
<path d="M230.98 116.612C230.98 115.137 231.566 113.722 232.609 112.679C233.653 111.636 235.067 111.05 236.543 111.05H258.793C260.268 111.05 261.683 111.636 262.726 112.679C263.769 113.722 264.355 115.137 264.355 116.612C264.355 118.088 263.769 119.503 262.726 120.546C261.683 121.589 260.268 122.175 258.793 122.175H236.543C235.067 122.175 233.653 121.589 232.609 120.546C231.566 119.503 230.98 118.088 230.98 116.612ZM319.98 88.7999V177.8C319.98 180.75 318.808 183.58 316.722 185.666C314.635 187.753 311.806 188.925 308.855 188.925H186.48C183.53 188.925 180.7 187.753 178.614 185.666C176.527 183.58 175.355 180.75 175.355 177.8V88.7999C175.355 85.8494 176.527 83.0197 178.614 80.9334C180.7 78.847 183.53 77.6749 186.48 77.6749H214.293V72.1124C214.293 67.6866 216.051 63.4421 219.18 60.3126C222.31 57.1831 226.554 55.4249 230.98 55.4249L264.355 55.4249C268.781 55.4249 273.026 57.1831 276.155 60.3126C279.285 63.4421 281.043 67.6866 281.043 72.1124V77.6749H308.855C311.806 77.6749 314.635 78.847 316.722 80.9334C318.808 83.0197 319.98 85.8494 319.98 88.7999ZM225.418 77.6749H269.918V72.1124C269.918 70.6372 269.332 69.2223 268.289 68.1791C267.245 67.136 265.83 66.5499 264.355 66.5499H230.98C229.505 66.5499 228.09 67.136 227.047 68.1791C226.004 69.2223 225.418 70.6372 225.418 72.1124V77.6749ZM186.48 88.7999V117.739C205.257 127.953 226.293 133.303 247.668 133.3C269.044 133.304 290.08 127.951 308.855 117.732V88.7999H186.48ZM308.855 177.8V130.261C289.804 139.581 268.876 144.425 247.668 144.425C226.46 144.429 205.531 139.587 186.48 130.268V177.8H308.855Z" fill="white"/>
<defs>
<linearGradient id="paint0_linear_534_380" x1="428.693" y1="-53.2823" x2="66.6414" y2="308.769" gradientUnits="userSpaceOnUse">
<stop stop-color="white"/>
<stop offset="1" stop-color="#999999" stop-opacity="0.5"/>
</linearGradient>
</defs>
</svg>
