<svg width="20" height="20" viewBox="0 0 20 20" fill="none" xmlns="http://www.w3.org/2000/svg">
<path d="M10 0C4.477 0 0 4.477 0 10C0 15.523 4.477 20 10 20C15.523 20 20 15.523 20 10C20 4.477 15.523 0 10 0ZM10 18L12 16L13 15V13H11V12L10 11H7V14L9 16V17.931C5.06 17.436 2 14.072 2 10L3 11H5V9H7L10 6V4H8L7 3V2.589C8.92313 1.80478 11.0769 1.80478 13 2.589V4L12 5V7L13 8L16.13 4.87C16.8914 5.78093 17.4401 6.85022 17.736 8H16L14 10V12L15 13H17L17.286 13.286C16.029 16.061 13.239 18 10 18Z" fill="white"/>
</svg>
