<?xml version="1.0" encoding="utf-8"?>
<!-- Generator: Adobe Illustrator 25.0.1, SVG Export Plug-In . SVG Version: 6.00 Build 0)  -->
<svg version="1.1" id="圖層_1" xmlns="http://www.w3.org/2000/svg" xmlns:xlink="http://www.w3.org/1999/xlink" x="0px" y="0px"
	 viewBox="0 0 283 39" style="enable-background:new 0 0 283 39;" xml:space="preserve">
<style type="text/css">
	.st0{fill-rule:evenodd;clip-rule:evenodd;fill:#9387FF;}
	.st1{fill-rule:evenodd;clip-rule:evenodd;fill:#C2A53A;}
</style>
<path class="st0" d="M15.4,2.2c0.4,0,0.7-0.2,0.7-0.7V0.7c0-0.5-0.3-0.7-0.7-0.7h-0.9c-0.4,0-0.7,0.2-0.7,0.7v0.7
	c0,0.5,0.3,0.7,0.7,0.7H15.4z M2.3,12.5c0.3,0,0.5-0.3,0.6-0.5l0.8-1.3L4.6,12c0.1,0.2,0.4,0.5,0.6,0.5h0.6c0.5,0,0.6-0.4,0.7-0.8
	c0-0.1,0-0.1,0.1-0.2l0.8-2.3L7.6,5c0-0.5-0.1-1.1-0.8-1.1C6.2,3.9,6.1,4.4,6,5L5.9,9l-0.5,1.4L4.6,9V7.5c0-0.5-0.1-1.1-0.8-1.1
	C3.1,6.5,3,7,3,7.5V9l-0.8,1.4L1.7,9L1.5,5c0-0.5-0.1-1.1-0.8-1.1C0.1,3.9,0,4.4,0,5l0.2,4.3l0.8,2.3c0,0.1,0,0.1,0.1,0.2
	c0.1,0.4,0.3,0.8,0.7,0.8H2.3z M18.4,11.8c0,0.7-0.6,0.8-1.1,0.8h-3.9c-0.5,0-1.1-0.1-1.1-0.8c0-0.7,0.5-0.8,1.1-0.8h1.2V5.4h-1.2
	c-0.5,0-1.1-0.1-1.1-0.8c0-0.7,0.5-0.8,1.1-0.8H15c0.9,0,1.1,0.2,1.1,1.1V11h1.2C17.8,11,18.4,11.1,18.4,11.8z M28,12.5
	c0.8,0,1.6-0.1,2.1-0.8c0.3-0.3,0.5-0.9,0.5-1.3c0-0.4-0.4-0.8-0.8-0.8c-0.4,0-0.7,0.3-0.8,0.6C29,10.9,28.7,11,28,11h-0.8
	c-1,0-1-0.4-1-1.2V5.4h2.6c0.5,0,1.1-0.1,1.1-0.8c0-0.7-0.5-0.8-1.1-0.8h-2.6V2.3c0-0.5-0.1-1.1-0.8-1.1s-0.8,0.5-0.8,1.1v1.6h-0.5
	c-0.5,0-1.1,0.1-1.1,0.8c0,0.7,0.6,0.8,1.1,0.8h0.5l0,4.5c0,0.7,0,1.3,0.6,1.8c0.5,0.6,1.2,0.8,2,0.8H28z M42.2,11.4
	c0,0.5-0.1,1.2-0.8,1.2c-0.6,0-0.8-0.5-0.8-1l-0.2-4.8c0-0.1,0-0.1,0-0.2c0-0.7,0-1.2-0.8-1.2H39c-0.2,0-0.3,0-0.5,0.1L36.2,7v4.5
	c0,0.5-0.1,1.1-0.8,1.1c-0.7,0-0.8-0.5-0.8-1.1V1.7c0-0.5,0.1-1.1,0.8-1.1c0.7,0,0.8,0.5,0.8,1.1v3.5l1.3-0.8
	c0.4-0.3,0.9-0.5,1.4-0.5l1.1,0c0.3,0,0.8,0,1.4,0.6C42,5,42,5.6,42.1,6.3c0,0.1,0,0.1,0,0.2L42.2,11.4z"/>
<path class="st1" d="M58.4,12.5c0.6,0,0.8-0.3,0.8-0.8V7.8h3.5c0.9,0,1.5-0.1,2.2-0.8c0.6-0.7,0.7-1.2,0.7-2.1V2.8
	c0-0.9-0.1-1.5-0.8-2.1C64.2,0.1,63.7,0,62.9,0h-5.4v11.7C57.6,12.3,57.8,12.5,58.4,12.5z M62.8,6.2h-3.6V1.6h3.6
	c1,0,1.2,0.2,1.2,1.2V5C63.9,5.9,63.7,6.2,62.8,6.2z M72.8,15c-0.3,0.7-0.5,0.8-1.2,0.8h-1.2c-0.5,0-1.1-0.1-1.1-0.8
	c0-0.7,0.5-0.8,1.1-0.8h1.1l1.1-2.4h-0.1c-0.6,0-0.7-0.2-0.8-0.6c0-0.1-0.1-0.1-0.1-0.2l-1.9-4.2l0,0c-0.2-0.5-0.4-0.8-0.4-1.3V4.9
	c0-0.5,0.1-1.1,0.8-1.1c0.7,0,0.8,0.5,0.8,1.1v0.9l2.1,4.6h0.3l2.1-4.6V4.9c0-0.5,0.1-1.1,0.8-1.1c0.7,0,0.8,0.5,0.8,1.1v0.6
	c0,0.4,0,0.6-0.2,1L72.8,15z M85.8,12.5c0.8,0,1.6-0.1,2.1-0.8c0.3-0.3,0.5-0.9,0.5-1.3c0-0.4-0.4-0.8-0.8-0.8
	c-0.4,0-0.7,0.3-0.8,0.6c-0.2,0.6-0.5,0.7-1.1,0.7H85c-1,0-1-0.4-1-1.2V5.4h2.6c0.5,0,1.1-0.1,1.1-0.8c0-0.7-0.5-0.8-1.1-0.8H84V2.3
	c0-0.5-0.1-1.1-0.8-1.1c-0.7,0-0.8,0.5-0.8,1.1v1.6h-0.5c-0.5,0-1.1,0.1-1.1,0.8c0,0.7,0.6,0.8,1.1,0.8h0.5v4.2l0,0.1
	c0,0.8,0,1.4,0.6,2c0.5,0.6,1.2,0.8,2,0.8H85.8z M100,11.4c0,0.5-0.1,1.2-0.8,1.2c-0.6,0-0.8-0.5-0.8-1l-0.2-4.8c0-0.1,0-0.1,0-0.2
	c0-0.7,0-1.2-0.8-1.2h-0.7c-0.2,0-0.3,0-0.5,0.1L94,7v4.5c0,0.5-0.1,1.1-0.8,1.1c-0.7,0-0.8-0.5-0.8-1.1V1.7c0-0.5,0.1-1.1,0.8-1.1
	c0.7,0,0.8,0.5,0.8,1.1v3.5l1.3-0.8c0.4-0.3,0.9-0.5,1.4-0.5l1.1,0c0.3,0,0.8,0,1.4,0.6c0.6,0.6,0.7,1.2,0.7,1.9l0,0.1l0,0.1
	L100,11.4z M108.4,12.5c1,0,1.3-0.1,2.1-0.8c0.8-0.7,1.1-1.1,1.1-2.1V6.7c0-1-0.2-1.4-1-2c-0.8-0.6-1.1-0.9-2.2-0.9h-1.2
	c-1.1,0-1.4,0.2-2.2,0.9c-0.8,0.6-1,1-1,2v2.9c0,1,0.3,1.4,1.1,2.1c0.8,0.7,1.1,0.8,2.1,0.8H108.4z M107.2,11h1.2
	c0.5,0,0.7-0.1,1.1-0.4c0.5-0.4,0.6-0.6,0.6-0.9V6.7c0-0.3-0.1-0.5-0.6-0.9c-0.3-0.3-0.6-0.4-1.1-0.4h-1.2c-0.5,0-0.7,0.1-1.1,0.4
	c-0.5,0.4-0.6,0.6-0.6,0.9v2.9c0,0.3,0.1,0.5,0.6,0.9C106.4,10.9,106.7,11,107.2,11z M122.4,12.5c0.7,0,0.8-0.6,0.8-1.2L123,6.5
	l0-0.1l0-0.1v0v0v0c0-0.8,0-1.4-0.7-1.9c-0.5-0.4-0.8-0.6-1.4-0.6h-1.1c-0.5,0-0.9,0.3-1.3,0.5l-1.3,0.8V5c0-0.5-0.1-1.1-0.8-1.1
	c-0.7,0-0.8,0.6-0.8,1.1v6.5c0,0.5,0.1,1.1,0.8,1.1c0.7,0,0.8-0.5,0.8-1.1V7l2.3-1.4c0.2-0.1,0.3-0.1,0.5-0.1h0.5c0.9,0,1,0.4,1,1.3
	l0.2,4.8C121.6,12,121.7,12.5,122.4,12.5z M131.7,1.5c0,0.5-0.3,0.7-0.7,0.7h-0.9c-0.4,0-0.7-0.2-0.7-0.7V0.7c0-0.5,0.3-0.7,0.7-0.7
	h0.9c0.4,0,0.7,0.2,0.7,0.7V1.5z M132.9,12.5c0.5,0,1.1-0.1,1.1-0.8c0-0.7-0.5-0.8-1.1-0.8h-1.2V4.9c0-0.9-0.3-1.1-1.1-1.1h-1.6
	c-0.5,0-1.1,0.1-1.1,0.8c0,0.7,0.6,0.8,1.1,0.8h1.2V11h-1.2c-0.5,0-1.1,0.1-1.1,0.8c0,0.7,0.6,0.8,1.1,0.8H132.9z M146.2,10.2
	c0,1.6-1.1,2.3-2.5,2.3l-2.6,0c-0.7,0-1.2-0.1-1.8-0.5l0,0l0,0c-0.3-0.2-0.6-0.5-0.6-0.8c0-0.4,0.4-0.8,0.8-0.8
	c0.2,0,0.4,0.1,0.6,0.3c0.3,0.3,0.8,0.3,1.2,0.3l2.2,0c0.5,0,1.2,0,1.2-0.9c0-0.4-0.5-0.6-0.8-0.8l-3.6-1.7
	c-0.9-0.4-1.4-0.9-1.4-1.9c0-1.2,1-2,2.1-2h2.6c0.9,0,1.2,0,1.8,0.5c0,0,0.1,0.1,0.1,0.1c0.3,0.2,0.5,0.4,0.5,0.8
	c0,0.4-0.4,0.8-0.8,0.8c-0.3,0-0.5-0.1-0.7-0.3c-0.3-0.3-0.5-0.3-1-0.3h-2.4l0,0l0,0l-0.1,0l0,0c-0.3,0-0.8,0-0.8,0.4
	c0,0.3,0.2,0.4,0.4,0.5l3.9,1.8C145.7,8.5,146.2,9.1,146.2,10.2z M155.1,12.5c0.8,0,1.6-0.1,2.1-0.8c0.3-0.3,0.5-0.9,0.5-1.3
	c0-0.4-0.4-0.8-0.8-0.8c-0.4,0-0.7,0.3-0.8,0.6c-0.2,0.6-0.5,0.7-1.1,0.7h-0.8c-1,0-1-0.4-1-1.2V5.4h2.6c0.5,0,1.1-0.1,1.1-0.8
	c0-0.7-0.5-0.8-1.1-0.8h-2.6V2.3c0-0.5-0.1-1.1-0.8-1.1c-0.7,0-0.8,0.5-0.8,1.1v1.6h-0.5c-0.5,0-1.1,0.1-1.1,0.8
	c0,0.7,0.6,0.8,1.1,0.8h0.5l0,4.5c0,0.7,0,1.3,0.6,1.8c0.5,0.6,1.2,0.8,2,0.8H155.1z M167.8,11.8l-1.1,0.5c-0.4,0.2-0.5,0.2-1,0.2
	h-1.5c-0.7,0-1.2-0.1-1.8-0.5c-0.6-0.5-0.8-1.1-0.8-1.9V9.4c0-0.7,0.2-1.2,0.8-1.7c0.5-0.5,1.1-0.6,1.8-0.6h3.3V6.8
	c0-1.2-0.3-1.4-1.4-1.4h-1.9c-0.5,0-1.1-0.1-1.1-0.8c0-0.7,0.5-0.8,1.1-0.8h2.1c0.8,0,1.4,0.1,2,0.7c0.6,0.6,0.7,1.1,0.7,1.8
	l0.2,5.3c0,0.5-0.2,0.9-0.7,0.9C168.2,12.5,167.8,12.2,167.8,11.8z M166,11h-1.7c-0.4,0-1-0.1-1-0.6v-1c0-0.6,0.6-0.7,1-0.7h2.3
	c0.9,0,1.1,0.3,1.1,1.1v0.3L166,11z M180.9,10.2c0,1.6-1.1,2.3-2.5,2.3l-2.6,0c-0.7,0-1.2-0.1-1.8-0.5c0,0,0,0-0.1-0.1
	c-0.3-0.2-0.6-0.5-0.6-0.8c0-0.4,0.4-0.8,0.8-0.8c0.2,0,0.4,0.1,0.6,0.3C175,11,175.5,11,176,11l2.2,0c0.5,0,1.2,0,1.2-0.9
	c0-0.4-0.5-0.6-0.8-0.8l-3.6-1.7c-0.9-0.4-1.4-0.9-1.4-1.9c0-1.2,1-2,2.1-2h2.6c0.9,0,1.2,0,1.8,0.5c0,0,0,0,0.1,0.1l0.1,0
	c0.3,0.2,0.5,0.4,0.5,0.8c0,0.4-0.4,0.8-0.8,0.8c-0.3,0-0.5-0.1-0.7-0.3c-0.3-0.3-0.5-0.3-1-0.3H176l0,0c0,0,0,0-0.1,0l0,0
	c-0.3,0-0.8,0-0.8,0.4c0,0.3,0.2,0.4,0.4,0.5l3.9,1.8C180.4,8.5,180.9,9.1,180.9,10.2z M189.9,12.5c0.4,0,0.8-0.4,0.8-0.8
	c0-0.2-0.2-0.4-0.3-0.6c0,0,0-0.1-0.1-0.1l-1.7-2.2c-0.4-0.5-0.4-0.6-0.4-1.1V5c0-0.7,0-0.7,0.4-1.3l1.7-2.3l0,0
	c0.1-0.2,0.3-0.4,0.3-0.7c0-0.4-0.3-0.8-0.7-0.8c-0.4,0-0.6,0.2-0.8,0.5l0,0.1l-1.5,1.9c-0.7,0.9-0.9,1.5-0.9,2.6v2.5
	c0,1.1,0.2,1.7,0.9,2.6l1.6,2l0,0C189.4,12.3,189.6,12.5,189.9,12.5z M199.7,12.1c-0.2,0.3-0.4,0.5-0.8,0.5c-0.4,0-0.8-0.4-0.8-0.8
	c0-0.2,0.2-0.4,0.3-0.6c0,0,0-0.1,0.1-0.1l1.7-2.2c0.4-0.5,0.4-0.6,0.4-1.3V4.9c0-0.5,0-0.6-0.4-1.1l-1.7-2.3l0,0
	c-0.1-0.2-0.3-0.4-0.3-0.7c0-0.4,0.3-0.8,0.7-0.8c0.4,0,0.6,0.2,0.8,0.5c0,0,0,0,0,0.1l1.5,1.9c0.7,0.9,0.9,1.5,0.9,2.6v2.5
	c0,1.1-0.2,1.7-0.9,2.6L199.7,12.1C199.7,12,199.7,12.1,199.7,12.1z"/>
<path class="st0" d="M224.5,12.3l1.1-0.5c0,0.4,0.4,0.8,0.8,0.8c0.5,0,0.7-0.5,0.7-0.9l-0.2-5.3c0-0.8-0.1-1.2-0.7-1.8
	c-0.6-0.6-1.2-0.7-2-0.7h-2.1c-0.5,0-1.1,0.1-1.1,0.8c0,0.7,0.6,0.8,1.1,0.8h1.9c1.1,0,1.4,0.2,1.4,1.4v0.4h-3.3
	c-0.7,0-1.3,0.1-1.8,0.6c-0.6,0.5-0.8,1-0.8,1.7v0.7c0,0.8,0.2,1.4,0.8,1.9c0.6,0.5,1.1,0.5,1.8,0.5h1.5
	C224.1,12.5,224.1,12.5,224.5,12.3z M223.8,11h-1.7c-0.4,0-1-0.1-1-0.6v-1c0-0.6,0.6-0.7,1-0.7h2.3c0.9,0,1.1,0.3,1.1,1.1v0.3
	L223.8,11z M238.7,10.2c0,1.6-1.1,2.3-2.5,2.3l-2.6,0c-0.7,0-1.2-0.1-1.8-0.5c0,0,0,0-0.1-0.1c-0.3-0.2-0.6-0.5-0.6-0.8
	c0-0.4,0.4-0.8,0.8-0.8c0.2,0,0.4,0.1,0.6,0.3c0.3,0.3,0.8,0.3,1.2,0.3l2.2,0c0.5,0,1.2,0,1.2-0.9c0-0.4-0.5-0.6-0.8-0.8l-3.6-1.7
	c-0.9-0.4-1.4-0.9-1.4-1.9c0-1.2,1-2,2.1-2h2.6c0.9,0,1.2,0,1.8,0.5c0,0,0.1,0.1,0.1,0.1c0.3,0.2,0.5,0.4,0.5,0.8
	c0,0.4-0.4,0.8-0.8,0.8c-0.3,0-0.5-0.1-0.7-0.3c-0.3-0.3-0.5-0.3-1-0.3h-2.4c0,0-0.1,0-0.1,0c-0.3,0-0.8,0-0.8,0.4
	c0,0.3,0.2,0.4,0.4,0.5l3.9,1.8C238.1,8.5,238.7,9.1,238.7,10.2z"/>
<path class="st1" d="M282.5,4.7c0.2-0.2,0.2-0.4,0.2-0.6v-1c0-0.3,0-0.5-0.2-0.7C282.3,2,282,2,281.7,2h-1.2c-0.4,0-0.6,0-0.8,0.3
	c-0.2,0.2-0.2,0.4-0.2,0.6v1c0,0.3,0,0.5,0.2,0.7c0.2,0.3,0.4,0.3,0.7,0.3l1.3,0C282,5,282.3,5,282.5,4.7z M259,12
	c-0.5,0.3-0.9,0.5-1.3,0.5h-1.1c-0.4,0-0.9-0.1-1.4-0.6c-0.7-0.6-0.7-1.2-0.7-2l0-0.1L254.2,5c0-0.6,0.1-1.2,0.8-1.2
	c0.7,0,0.7,0.6,0.8,1.1l0.2,4.8l0,0c0,0.3,0,0.8,0.2,1c0.1,0.2,0.5,0.3,0.9,0.3h0.5c0.2,0,0.3,0,0.5-0.1l2.3-1.4V4.9
	c0-0.5,0.1-1.1,0.8-1.1s0.8,0.5,0.8,1.1v6.5c0,0,0,0,0,0.1c0,0.4,0,1.1-0.8,1.1c-0.7,0-0.8-0.5-0.8-1.1v-0.3L259,12z M273.3,10.2
	c0,1.6-1.1,2.3-2.5,2.3l-2.6,0c-0.7,0-1.2-0.1-1.8-0.5c0,0,0,0-0.1-0.1c-0.3-0.2-0.6-0.5-0.6-0.8c0-0.4,0.4-0.8,0.8-0.8
	c0.2,0,0.4,0.1,0.6,0.3c0.3,0.3,0.8,0.3,1.2,0.3l2.2,0c0.5,0,1.2,0,1.2-0.9c0-0.4-0.5-0.6-0.8-0.8l-3.6-1.7
	c-0.9-0.4-1.4-0.9-1.4-1.9c0-1.2,1-2,2.1-2h2.6c0.9,0,1.2,0,1.8,0.5c0,0,0.1,0.1,0.1,0.1c0.3,0.2,0.5,0.4,0.5,0.8
	c0,0.4-0.4,0.8-0.8,0.8c-0.3,0-0.5-0.1-0.7-0.3c-0.3-0.3-0.5-0.3-1-0.3h-2.4c0,0,0,0-0.1,0l0,0c-0.3,0-0.8,0-0.8,0.4
	c0,0.3,0.2,0.4,0.4,0.5l3.9,1.8C272.8,8.5,273.3,9.1,273.3,10.2z M282.5,10.2c-0.2,0.3-0.5,0.3-0.8,0.3h-1.2c-0.4,0-0.6,0-0.8-0.3
	c-0.2-0.2-0.2-0.4-0.2-0.7v-1c0-0.2,0-0.4,0.2-0.6c0.2-0.3,0.5-0.3,0.8-0.3l1.3,0c0.3,0,0.5,0,0.7,0.3c0.2,0.2,0.2,0.4,0.2,0.7v1
	C282.7,9.8,282.7,10,282.5,10.2z"/>
<path class="st1" d="M48.4,34.5c0,0.5-0.2,0.8-0.8,0.8c-0.6,0-0.8-0.3-0.8-0.8V22.8h5.4c0.7,0,1.3,0.1,1.9,0.7
	c0.7,0.6,0.8,1.2,0.8,2.1v2.2c0,0.8-0.1,1.4-0.7,2.1c-0.6,0.7-1.3,0.8-2.2,0.8h-3.5V34.5z M48.4,29H52c1,0,1.2-0.2,1.2-1.2v-2.3
	c0-0.9-0.2-1.2-1.2-1.2h-3.6V29z M60.8,38.6c0.7,0,0.9-0.1,1.2-0.8l3.9-8.5c0.2-0.3,0.2-0.6,0.2-1v-0.6c0-0.5-0.1-1.1-0.8-1.1
	c-0.7,0-0.8,0.5-0.8,1.1v0.9l-2.1,4.6h-0.3l-2.1-4.6v-0.9c0-0.5-0.1-1.1-0.8-1.1c-0.7,0-0.8,0.5-0.8,1.1v0.7c0,0.4,0.2,0.8,0.4,1.3
	l0,0l1.9,4.2c0,0.1,0.1,0.1,0.1,0.2c0.2,0.4,0.3,0.6,0.8,0.6h0.1l-1.1,2.4h-1.1c-0.5,0-1.1,0.1-1.1,0.8c0,0.7,0.6,0.8,1.1,0.8H60.8z
	 M77.2,34.5c-0.6,0.7-1.3,0.8-2.1,0.8h-0.8c-0.8,0-1.5-0.2-2-0.8c-0.6-0.6-0.6-1.3-0.6-2l0-0.1v-4.2h-0.5c-0.5,0-1.1-0.1-1.1-0.8
	c0-0.7,0.5-0.8,1.1-0.8h0.5V25c0-0.5,0.1-1.1,0.8-1.1c0.7,0,0.8,0.5,0.8,1.1v1.6h2.6c0.5,0,1.1,0.1,1.1,0.8c0,0.7-0.6,0.8-1.1,0.8
	h-2.6v4.4c0,0.7,0.1,1.2,1,1.2H75c0.6,0,0.9,0,1.1-0.7c0.1-0.4,0.4-0.6,0.8-0.6c0.4,0,0.8,0.3,0.8,0.8
	C77.7,33.7,77.4,34.2,77.2,34.5z M88.5,35.3c0.7,0,0.8-0.6,0.8-1.2l-0.2-4.9l0-0.1l0-0.1v0v0c0-0.8,0-1.4-0.7-1.9
	c-0.6-0.5-1.1-0.6-1.4-0.6l-1.1,0c-0.5,0-1,0.3-1.4,0.5L83.2,28v-3.5c0-0.5-0.1-1.1-0.8-1.1c-0.7,0-0.8,0.5-0.8,1.1v9.8
	c0,0.5,0.1,1.1,0.8,1.1c0.7,0,0.8-0.5,0.8-1.1v-4.5l2.3-1.4c0.2-0.1,0.3-0.1,0.5-0.1h0.7c0.8,0,0.8,0.5,0.8,1.2c0,0.1,0,0.1,0,0.2
	l0.2,4.8C87.7,34.8,87.9,35.3,88.5,35.3z M99.7,34.5c-0.8,0.7-1.1,0.8-2.1,0.8h-1.2c-1,0-1.3-0.1-2.1-0.8c-0.8-0.7-1.1-1.1-1.1-2.1
	v-2.9c0-1,0.2-1.4,1-2c0.8-0.6,1.1-0.9,2.2-0.9h1.2c1.1,0,1.4,0.2,2.2,0.9c0.8,0.6,1,1,1,2v2.9C100.8,33.4,100.5,33.8,99.7,34.5z
	 M97.6,33.8h-1.2c-0.5,0-0.7-0.1-1.1-0.4c-0.5-0.4-0.6-0.6-0.6-0.9v-2.9c0-0.3,0.1-0.5,0.6-0.9c0.3-0.3,0.6-0.4,1.1-0.4h1.2
	c0.5,0,0.7,0.1,1.1,0.4c0.5,0.4,0.6,0.6,0.6,0.9v2.9c0,0.3-0.1,0.5-0.6,0.9C98.3,33.6,98.1,33.8,97.6,33.8z M112.3,34.2
	c0,0.5-0.1,1.2-0.8,1.2c-0.6,0-0.8-0.5-0.8-1l-0.2-4.8c0-1-0.1-1.3-1-1.3h-0.5c-0.2,0-0.3,0-0.5,0.1l-2.3,1.4v4.5
	c0,0.5-0.1,1.1-0.8,1.1c-0.7,0-0.8-0.5-0.8-1.1v-6.5c0-0.6,0.1-1.1,0.8-1.1c0.7,0,0.8,0.6,0.8,1.1V28l1.3-0.8
	c0.4-0.3,0.8-0.5,1.3-0.5h1.1c0.6,0,1,0.2,1.4,0.6c0.6,0.6,0.7,1.2,0.7,1.9v0l0,0.1l0,0.1L112.3,34.2z M121.5,32.9
	c0.2-0.2,0.2-0.4,0.2-0.6v-1c0-0.3,0-0.5-0.2-0.7c-0.2-0.3-0.5-0.3-0.8-0.3h-1.2c-0.4,0-0.6,0-0.8,0.3c-0.2,0.2-0.2,0.4-0.2,0.6l0,1
	c0,0.3,0,0.5,0.2,0.7c0.2,0.3,0.4,0.3,0.7,0.3l1.3,0C121,33.3,121.3,33.3,121.5,32.9z M132.5,34.5c0,0.5-0.2,0.8-0.8,0.8
	c-0.6,0-0.8-0.3-0.8-0.8V24.4h-1.6V25c0,0.5-0.2,0.8-0.8,0.8c-0.6,0-0.8-0.3-0.8-0.8v-2.2h8V25c0,0.5-0.2,0.8-0.8,0.8
	c-0.6,0-0.8-0.3-0.8-0.8v-0.6h-1.6V34.5z M142.2,35.3c0.5,0,0.9-0.1,1-0.7h0c0.1,0.6,0.4,0.7,1,0.7h1.2c0.6,0,0.7-0.1,1-0.6l0.6-1
	c0.2-0.4,0.2-0.4,0.2-0.8v-9.3c0-0.5-0.2-0.8-0.8-0.8c-0.6,0-0.8,0.3-0.8,0.8v9.3l-0.4,0.8h-0.7l-0.4-0.8v-5.1c0-0.5-0.2-1-0.8-1
	c-0.6,0-0.8,0.5-0.8,1v5.1l-0.4,0.8h-0.7l-0.4-0.8v-9.3c0-0.5-0.2-0.8-0.8-0.8c-0.6,0-0.8,0.3-0.8,0.8v9.3c0,0.4,0,0.5,0.2,0.8
	l0.6,1c0.3,0.5,0.4,0.6,1,0.6H142.2z M156.4,32.2c0,0.3,0,0.5-0.2,0.7c-0.2,0.3-0.5,0.3-0.8,0.3l-1.3,0c-0.3,0-0.5,0-0.7-0.3
	c-0.2-0.2-0.2-0.4-0.2-0.7v-0.9c0-0.3,0-0.5,0.2-0.7c0.2-0.3,0.5-0.3,0.8-0.3h1.2c0.4,0,0.6,0,0.8,0.3c0.2,0.2,0.2,0.4,0.2,0.7V32.2
	z M163.3,35.3c0.7,0,0.8-0.5,0.8-1.1v-3.9l2.2-1.8c0.3-0.2,0.5-0.4,0.8-0.4h0.5c0.4,0,0.7,0,0.9,0.3c0.2,0.2,0.2,0.4,0.2,0.7
	c0,0.5,0.2,1,0.8,1c0.7,0,0.8-0.5,0.8-1.1c0-0.7-0.2-1.2-0.7-1.8c-0.4-0.4-0.9-0.6-1.5-0.6h-1.2c-0.5,0-0.9,0.3-1.4,0.7l-1.2,1v-0.6
	c0-0.5-0.2-1-0.8-1c-0.7,0-0.8,0.6-0.8,1.1v6.5C162.5,34.8,162.7,35.3,163.3,35.3z M181.7,34.5c0,0.7-0.6,0.8-1.1,0.8l-3.8,0
	c-0.5,0-0.8,0-1.2-0.4l-0.7-0.6c-0.6-0.5-0.8-0.9-0.8-1.7v-3c0-0.8,0.1-1.3,0.8-1.9l0.5-0.5c0.7-0.6,1.1-0.6,1.7-0.6h1.4
	c0.8,0,1.1,0.1,1.7,0.6l0.6,0.5c0.7,0.6,0.8,1.2,0.8,2V31c0,0.9-0.1,1.1-1.1,1.1h-5v0.5c0,0.1,0.1,0.3,0.2,0.5l0.4,0.4
	c0.2,0.2,0.5,0.3,1,0.3h3.3C181.1,33.8,181.7,33.9,181.7,34.5z M180.1,30.5h-4.5v-1.1c0-0.5,0.1-0.6,0.3-0.7l0.5-0.4
	c0.2-0.2,0.4-0.2,0.7-0.2l1.4,0c0.2,0,0.5,0,0.7,0.2l0.6,0.5c0.2,0.2,0.2,0.4,0.2,0.6V30.5z M190.4,34.8c-0.5,0.3-0.9,0.5-1.3,0.5
	H188c-0.4,0-0.9-0.1-1.4-0.6c-0.7-0.6-0.7-1.2-0.7-2l0-0.1l-0.2-4.9c0-0.6,0.1-1.2,0.8-1.2c0.7,0,0.7,0.6,0.8,1.1l0.2,4.8l0,0
	c0,0.3,0,0.8,0.2,1c0.1,0.2,0.5,0.3,0.9,0.3h0.5c0.2,0,0.3,0,0.5-0.1l2.3-1.4v-4.5c0-0.5,0.1-1.1,0.8-1.1c0.7,0,0.8,0.5,0.8,1.1
	l0,6.5v0c0,0.4,0,1.1-0.8,1.1c-0.7,0-0.8-0.5-0.8-1.1V34L190.4,34.8z M204,35.3c0.7,0,0.8-0.6,0.8-1.2l-0.2-4.9c0-0.1,0-0.1,0-0.2
	c0-0.8,0-1.4-0.7-1.9c-0.5-0.4-0.8-0.6-1.4-0.6h-1.1c-0.5,0-0.9,0.3-1.3,0.5l-1.3,0.8v-0.2c0-0.5-0.1-1.1-0.8-1.1
	c-0.7,0-0.8,0.6-0.8,1.1v6.5c0,0.5,0.1,1.1,0.8,1.1c0.7,0,0.8-0.5,0.8-1.1v-4.5l2.3-1.4c0.2-0.1,0.3-0.1,0.5-0.1h0.5
	c0.9,0,1,0.4,1,1.3l0.2,4.8C203.3,34.8,203.4,35.3,204,35.3z M213.4,24.2c0,0.5-0.3,0.7-0.7,0.7h-0.9c-0.4,0-0.7-0.2-0.7-0.7v-0.7
	c0-0.5,0.3-0.7,0.7-0.7h0.9c0.4,0,0.7,0.2,0.7,0.7V24.2z M214.5,35.3c0.5,0,1.1-0.1,1.1-0.8c0-0.7-0.5-0.8-1.1-0.8h-1.2v-6.1
	c0-0.9-0.3-1.1-1.1-1.1h-1.6c-0.5,0-1.1,0.1-1.1,0.8c0,0.7,0.6,0.8,1.1,0.8h1.2v5.6h-1.2c-0.5,0-1.1,0.1-1.1,0.8
	c0,0.7,0.6,0.8,1.1,0.8H214.5z M226.8,34.5c-0.8,0.7-1.1,0.8-2.1,0.8h-1.2c-1,0-1.3-0.1-2.1-0.8c-0.8-0.7-1.1-1.1-1.1-2.1v-2.9
	c0-1,0.2-1.4,1-2c0.8-0.6,1.1-0.9,2.2-0.9h1.2c1.1,0,1.4,0.2,2.2,0.9c0.8,0.6,1,1,1,2v2.9C227.9,33.4,227.6,33.8,226.8,34.5z
	 M224.7,33.8h-1.2c-0.5,0-0.7-0.1-1.1-0.4c-0.5-0.4-0.6-0.6-0.6-0.9v-2.9c0-0.3,0.1-0.5,0.6-0.9c0.3-0.3,0.6-0.4,1.1-0.4h1.2
	c0.5,0,0.7,0.1,1.1,0.4c0.5,0.4,0.6,0.6,0.6,0.9v2.9c0,0.3-0.1,0.5-0.6,0.9C225.4,33.6,225.2,33.8,224.7,33.8z M239.4,34.2
	c0,0.5-0.1,1.2-0.8,1.2c-0.6,0-0.8-0.5-0.8-1l-0.2-4.8c0-1-0.1-1.3-1-1.3h-0.5c-0.2,0-0.3,0-0.5,0.1l-2.3,1.4v4.5
	c0,0.5-0.1,1.1-0.8,1.1c-0.7,0-0.8-0.5-0.8-1.1v-6.5c0-0.6,0.1-1.1,0.8-1.1c0.7,0,0.8,0.6,0.8,1.1V28l1.3-0.8
	c0.4-0.3,0.8-0.5,1.3-0.5h1.1c0.6,0,1,0.2,1.4,0.6c0.6,0.6,0.7,1.2,0.7,1.9l0,0.1l0,0.1L239.4,34.2z M248.5,35.3
	c0.4,0,0.8-0.4,0.8-0.8c0-0.2-0.2-0.4-0.3-0.6c0,0,0-0.1-0.1-0.1l-1.7-2.2c-0.4-0.5-0.4-0.6-0.4-1.1l0-2.6c0-0.7,0-0.7,0.4-1.3
	l1.7-2.3l0,0c0.1-0.2,0.3-0.4,0.3-0.7c0-0.4-0.3-0.8-0.7-0.8c-0.4,0-0.6,0.2-0.8,0.5l0,0.1l-1.5,1.9c-0.7,0.9-0.9,1.5-0.9,2.6v2.5
	c0,1.1,0.2,1.7,0.9,2.6l1.6,2l0,0C247.9,35.1,248.1,35.3,248.5,35.3z M258.2,34.8c-0.2,0.3-0.4,0.5-0.8,0.5c-0.4,0-0.8-0.4-0.8-0.8
	c0-0.2,0.2-0.4,0.3-0.6c0,0,0-0.1,0.1-0.1l1.7-2.2c0.4-0.5,0.4-0.6,0.4-1.3v-2.6c0-0.5,0-0.6-0.4-1.1l-1.7-2.3l0,0
	c-0.1-0.2-0.3-0.4-0.3-0.7c0-0.4,0.3-0.8,0.7-0.8c0.4,0,0.6,0.2,0.8,0.5c0,0,0,0,0,0.1l1.5,1.9c0.7,0.9,0.9,1.5,0.9,2.6v2.5
	c0,1.1-0.2,1.7-0.9,2.6L258.2,34.8C258.3,34.8,258.3,34.8,258.2,34.8z"/>
</svg>
