<svg width="122" height="121" viewBox="0 0 122 121" fill="none" xmlns="http://www.w3.org/2000/svg">
<g opacity="0.22547">
<path d="M18.6506 103C-4.78314 79.7658 -4.89789 41.9816 18.3947 18.6064C41.6872 -4.76867 79.5662 -4.88312 103 18.3511" stroke="#F7E757"/>
<path d="M104 18.224C81.4473 -4.13214 44.2511 -3.27821 20.9203 20.132C-2.41111 43.5422 -3.0429 80.6438 19.5098 103" stroke="#F7E757"/>
<path d="M103 18.1151C81.5531 -3.35639 45.4148 -1.76043 22.2829 21.6799C-0.848227 45.1202 -2.21428 81.5285 19.2326 103" stroke="#F7E757"/>
<path d="M103 18.8843C82.4424 -1.4874 47.0047 0.828318 23.8469 24.0562C0.689157 47.2841 -1.41892 82.6289 19.1387 103" stroke="#F7E757"/>
<path d="M103 18.8264C83.1366 -0.652881 48.0514 2.39849 24.6346 25.6424C1.21778 48.8862 -1.66265 83.5207 18.2007 103" stroke="#F7E757"/>
<path d="M104 17.9157C85.0479 -0.858751 50.6878 2.96831 27.255 26.4636C3.82216 49.959 0.189784 84.2255 19.1426 103" stroke="#F7E757"/>
<path d="M103 17.8993C85.1531 0.0369892 51.8799 4.6076 28.6824 28.1075C5.48561 51.6073 1.14796 85.1383 18.9949 103" stroke="#F7E757"/>
<path d="M103 17.9117C86.0699 0.968219 53.5409 6.2802 30.3452 29.7767C7.14945 53.2731 2.07109 86.0565 19.0012 103" stroke="#F7E757"/>
<path d="M103 17.8606C86.9919 2.01147 55.2196 7.99864 32.0343 31.2331C8.84896 54.4675 3.03084 86.1516 19.039 102" stroke="#F7E757"/>
<path d="M103 18.9479C87.9198 4.01968 56.9153 10.7343 33.7498 33.9446C10.5842 57.155 4.03031 88.0725 19.1105 103" stroke="#F7E757"/>
<path d="M103 19.0717C88.6963 5.06927 58.1396 12.5059 34.7505 35.6821C11.3607 58.8582 3.99479 88.9976 18.2985 103" stroke="#F7E757"/>
<path d="M103 17.3045C89.6415 4.08555 59.8818 12.3295 36.5306 35.7174C13.18 59.1054 5.07951 88.7817 18.4381 102" stroke="#F7E757"/>
<path d="M103 17.5631C90.5893 5.14849 61.6397 14.2096 38.3389 37.8023C15.0382 61.3951 6.21013 90.5854 18.6209 103" stroke="#F7E757"/>
<path d="M103 17.7984C91.54 6.33484 63.4117 16.1147 40.174 39.6425C16.9362 63.1702 7.38898 91.5364 18.849 103" stroke="#F7E757"/>
<path d="M103 18.0823C92.4911 7.57064 65.1968 18.0592 42.0356 41.5085C18.8743 64.9579 8.61724 92.4891 19.1261 103" stroke="#F7E757"/>
<path d="M104 18.417C94.3329 8.85768 67.5784 20.0425 44.2433 43.3994C20.9075 66.7563 9.82699 93.4407 19.4941 103" stroke="#F7E757"/>
<path d="M103 18.8058C94.2921 10.1964 68.4002 22.0647 45.1682 45.3142C21.9369 68.5638 10.1621 94.3906 18.8699 103" stroke="#F7E757"/>
<path d="M103 18.2768C95.2491 10.525 70.2294 23.2074 47.1168 46.603C24.0043 69.9987 11.5517 95.2489 19.3026 103" stroke="#F7E757"/>
<path d="M104 18.7741C97.1208 11.9748 72.6996 25.3173 49.4526 48.5756C26.2056 71.8339 12.9366 96.2007 19.8157 103" stroke="#F7E757"/>
<path d="M103 18.3479C97.0771 12.4251 73.5533 26.574 50.4577 49.95C27.362 73.326 13.4408 97.0779 19.3636 103" stroke="#F7E757"/>
<path d="M103 18.9637C97.9661 13.9884 75.0773 28.7679 51.8782 51.9738C28.6784 75.1798 13.9526 98.0253 18.9865 103" stroke="#F7E757"/>
<path d="M103 18.651C98.8653 14.5655 76.6348 30.1355 53.3467 53.4278C30.0592 76.7201 14.532 98.9145 18.6666 103" stroke="#F7E757"/>
<path d="M103 18.397C99.7745 15.2096 78.2224 31.565 54.8624 54.9274C31.5024 78.2899 15.181 99.8133 18.4065 103" stroke="#F7E757"/>
<path d="M103 18.2038C100.69 15.9223 79.8373 33.0545 56.4228 56.4703C33.0082 79.8861 15.8993 100.718 18.2089 103" stroke="#F7E757"/>
<path d="M104 18.0738C102.612 16.7026 82.4763 34.6024 59.025 58.0541C35.5736 81.5058 17.6879 101.629 19.0756 103" stroke="#F7E757"/>
<path d="M104 18.0082C103.537 17.5506 84.1354 36.2061 60.6662 59.6759C37.1963 83.1457 18.5453 102.543 19.0084 103" stroke="#F7E757"/>
<path d="M103.992 18C104.455 18.4576 85.8037 37.8543 62.3338 61.3241C38.8646 84.7939 19.4631 103.449 19 102.992" stroke="#F7E757"/>
<path d="M103.924 18C105.312 19.3712 87.4264 39.4941 63.975 62.9458C40.5237 86.3975 20.3877 104.298 19 102.926" stroke="#F7E757"/>
<path d="M103.791 18C106.101 20.2815 88.9918 41.1139 65.5772 64.5296C42.1627 87.9454 21.3096 105.078 19 102.796" stroke="#F7E757"/>
<path d="M103.593 18C106.819 21.1874 90.4976 42.7101 67.1376 66.0726C43.7776 89.435 22.2255 105.79 19 102.603" stroke="#F7E757"/>
<path d="M103.333 18C107.468 22.0855 91.9408 44.2798 68.6533 67.5721C45.3652 90.8643 23.1347 106.435 19 102.349" stroke="#F7E757"/>
<path d="M103.013 18C108.047 22.9753 93.3216 45.8202 70.1218 69.0262C46.9227 92.2321 24.0339 107.012 19 102.036" stroke="#F7E757"/>
<path d="M102.636 18C108.559 23.9227 94.638 47.674 71.5423 71.05C48.4467 94.426 24.9229 108.575 19 102.652" stroke="#F7E757"/>
<path d="M103.185 18C110.063 24.7992 96.7946 49.166 73.5475 72.4243C50.3005 95.6825 25.8785 109.026 19 102.226" stroke="#F7E757"/>
<path d="M102.697 17C110.448 24.7518 97.9957 50.0013 74.8832 73.397C51.7706 96.7926 26.7509 109.475 19 101.723" stroke="#F7E757"/>
<path d="M103.13 18C111.838 26.6094 100.063 52.4362 76.8311 75.6858C53.5998 98.9353 27.7079 110.804 19 102.194" stroke="#F7E757"/>
<path d="M103.506 18C113.173 27.5593 102.092 54.2436 78.7567 77.6004C55.4209 100.957 28.6671 112.143 19 102.583" stroke="#F7E757"/>
<path d="M102.874 18C113.383 28.5116 103.126 56.0421 79.9644 79.4915C56.8032 102.941 29.5089 113.429 19 102.918" stroke="#F7E757"/>
<path d="M103.151 17C114.611 28.4636 105.064 56.8297 81.826 80.3573C58.5883 103.885 30.46 113.666 19 102.201" stroke="#F7E757"/>
<path d="M103.379 17C115.79 29.4146 106.962 58.6048 83.6611 82.1974C60.3603 105.79 31.4107 114.852 19 102.437" stroke="#F7E757"/>
<path d="M103.562 18C116.921 31.219 108.82 60.8946 85.4688 84.2826C62.1182 107.671 32.3586 115.914 19 102.695" stroke="#F7E757"/>
<path d="M103.701 18C118.005 32.0023 110.639 62.1416 87.2495 85.3177C63.8597 108.494 33.3037 115.931 19 101.928" stroke="#F7E757"/>
<path d="M102.889 18C117.97 32.9282 111.416 63.845 88.2502 87.0554C65.0847 110.266 34.0802 116.98 19 102.052" stroke="#F7E757"/>
<path d="M102.961 18C118.969 33.8491 113.151 65.5325 89.9657 88.7669C66.7804 112.001 35.0081 117.989 19 102.139" stroke="#F7E757"/>
<path d="M102.999 17C119.929 33.9434 114.851 66.7267 91.6548 90.2231C68.4591 113.719 35.9301 119.032 19 102.088" stroke="#F7E757"/>
<path d="M103.005 17C120.852 34.8624 116.514 68.3927 93.3169 91.8925C70.1201 115.392 36.8469 119.963 19 102.101" stroke="#F7E757"/>
<path d="M103.858 18C122.81 36.7745 119.178 71.041 95.7452 94.5364C72.3123 118.032 37.9522 121.859 19 103.084" stroke="#F7E757"/>
<path d="M103.799 18C123.663 37.4793 120.782 72.1136 97.3654 95.3574C73.9486 118.601 38.8634 121.653 19 102.173" stroke="#F7E757"/>
<path d="M102.861 18C123.419 38.3717 121.311 73.7159 98.1531 96.9438C74.9953 120.172 39.5576 122.487 19 102.116" stroke="#F7E757"/>
<path d="M102.767 17C124.214 38.4714 122.848 74.8797 99.717 98.3199C76.5852 121.76 40.4469 123.357 19 101.885" stroke="#F7E757"/>
<path d="M103.49 18C126.043 40.3561 125.411 77.4576 102.08 100.868C78.7489 124.278 41.5527 125.133 19 102.776" stroke="#F7E757"/>
<path d="M103.349 18C126.783 41.2342 126.898 79.0184 103.605 102.394C80.3128 125.769 42.4338 125.883 19 102.649" stroke="#F7E757"/>
</g>
</svg>
