<svg width="28" height="28" viewBox="0 0 28 28" fill="none" xmlns="http://www.w3.org/2000/svg">
<path d="M7.2638 24.5002C7.01102 24.5002 6.78741 24.4272 6.59297 24.2814C6.39852 24.1356 6.3013 23.946 6.3013 23.7127V21.2627C5.73741 20.9516 5.32422 20.5043 5.06172 19.921C4.79922 19.3377 4.66797 18.7154 4.66797 18.0543V6.47516C4.66797 5.03627 5.41172 3.98627 6.89922 3.32516C8.38672 2.66405 10.7638 2.3335 14.0305 2.3335C17.2582 2.3335 19.6159 2.66405 21.1034 3.32516C22.5909 3.98627 23.3346 5.03627 23.3346 6.47516V18.0543C23.3346 18.7154 23.2034 19.3377 22.9409 19.921C22.6784 20.5043 22.2652 20.9516 21.7013 21.2627V23.7127C21.7013 23.946 21.6041 24.1356 21.4096 24.2814C21.2152 24.4272 20.9916 24.5002 20.7388 24.5002H20.1846C19.9124 24.5002 19.6791 24.4272 19.4846 24.2814C19.2902 24.1356 19.193 23.946 19.193 23.7127V22.1085H8.80964V23.7127C8.80964 23.946 8.71241 24.1356 8.51797 24.2814C8.32352 24.4272 8.09019 24.5002 7.81797 24.5002H7.2638ZM14.0305 5.71683H21.5846H6.41797H14.0305ZM19.193 14.2627H6.41797H21.5846H19.193ZM6.41797 12.5127H21.5846V7.46683H6.41797V12.5127ZM9.50963 18.9002C9.95686 18.9002 10.336 18.7446 10.6471 18.4335C10.9582 18.1224 11.1138 17.7432 11.1138 17.296C11.1138 16.8488 10.9582 16.4696 10.6471 16.1585C10.336 15.8474 9.95686 15.6918 9.50963 15.6918C9.06241 15.6918 8.68325 15.8474 8.37214 16.1585C8.06102 16.4696 7.90547 16.8488 7.90547 17.296C7.90547 17.7432 8.06102 18.1224 8.37214 18.4335C8.68325 18.7446 9.06241 18.9002 9.50963 18.9002ZM18.493 18.9002C18.9402 18.9002 19.3194 18.7446 19.6305 18.4335C19.9416 18.1224 20.0971 17.7432 20.0971 17.296C20.0971 16.8488 19.9416 16.4696 19.6305 16.1585C19.3194 15.8474 18.9402 15.6918 18.493 15.6918C18.0457 15.6918 17.6666 15.8474 17.3555 16.1585C17.0444 16.4696 16.8888 16.8488 16.8888 17.296C16.8888 17.7432 17.0444 18.1224 17.3555 18.4335C17.6666 18.7446 18.0457 18.9002 18.493 18.9002ZM6.41797 5.71683H21.5846C21.118 5.21127 20.2235 4.81266 18.9013 4.521C17.5791 4.22933 15.9555 4.0835 14.0305 4.0835C11.736 4.0835 9.9763 4.21475 8.7513 4.47725C7.5263 4.73975 6.74852 5.15294 6.41797 5.71683ZM8.80964 20.3585H19.193C19.8735 20.3585 20.4423 20.096 20.8992 19.571C21.3562 19.046 21.5846 18.4432 21.5846 17.7627V14.2627H6.41797V17.7627C6.41797 18.4432 6.64644 19.046 7.10339 19.571C7.56033 20.096 8.12908 20.3585 8.80964 20.3585Z" fill="white"/>
</svg>
