<svg width="26" height="28" viewBox="0 0 26 28" fill="none" xmlns="http://www.w3.org/2000/svg">
<path d="M22.75 13.2632H3.25V5.89474H22.75M20.3125 22.1053C19.666 22.1053 19.046 21.8724 18.5889 21.4578C18.1318 21.0433 17.875 20.481 17.875 19.8947C17.875 19.3085 18.1318 18.7462 18.5889 18.3317C19.046 17.9171 19.666 17.6842 20.3125 17.6842C20.959 17.6842 21.579 17.9171 22.0361 18.3317C22.4932 18.7462 22.75 19.3085 22.75 19.8947C22.75 20.481 22.4932 21.0433 22.0361 21.4578C21.579 21.8724 20.959 22.1053 20.3125 22.1053ZM5.6875 22.1053C5.04103 22.1053 4.42105 21.8724 3.96393 21.4578C3.50681 21.0433 3.25 20.481 3.25 19.8947C3.25 19.3085 3.50681 18.7462 3.96393 18.3317C4.42105 17.9171 5.04103 17.6842 5.6875 17.6842C6.33397 17.6842 6.95395 17.9171 7.41107 18.3317C7.86819 18.7462 8.125 19.3085 8.125 19.8947C8.125 20.481 7.86819 21.0433 7.41107 21.4578C6.95395 21.8724 6.33397 22.1053 5.6875 22.1053ZM0 20.6316C0 21.9284 0.63375 23.0926 1.625 23.9032V26.5263C1.625 26.9172 1.79621 27.292 2.10095 27.5684C2.4057 27.8447 2.81902 28 3.25 28H4.875C5.30598 28 5.7193 27.8447 6.02405 27.5684C6.32879 27.292 6.5 26.9172 6.5 26.5263V25.0526H19.5V26.5263C19.5 26.9172 19.6712 27.292 19.976 27.5684C20.2807 27.8447 20.694 28 21.125 28H22.75C23.181 28 23.5943 27.8447 23.899 27.5684C24.2038 27.292 24.375 26.9172 24.375 26.5263V23.9032C25.3663 23.0926 26 21.9284 26 20.6316V5.89474C26 0.736842 20.1825 0 13 0C5.8175 0 0 0.736842 0 5.89474V20.6316Z" fill="white"/>
</svg>
