<svg width="40" height="40" viewBox="0 0 40 40" fill="none" xmlns="http://www.w3.org/2000/svg">
<path d="M8.33333 31.8009V34.0509C8.33333 34.4051 8.21354 34.702 7.97396 34.9416C7.73438 35.1812 7.4375 35.3009 7.08333 35.3009H6.25C5.89583 35.3009 5.59896 35.1812 5.35938 34.9416C5.11979 34.702 5 34.4051 5 34.0509V20.5509L8.54167 9.88428C8.68056 9.49539 8.90972 9.18983 9.22917 8.96761C9.54861 8.74539 9.91667 8.63428 10.3333 8.63428H29.6667C30.0833 8.63428 30.4514 8.74539 30.7708 8.96761C31.0903 9.18983 31.3194 9.49539 31.4583 9.88428L35 20.5509V34.0509C35 34.4051 34.8802 34.702 34.6406 34.9416C34.401 35.1812 34.1042 35.3009 33.75 35.3009H32.875C32.5139 35.3009 32.2222 35.1812 32 34.9416C31.7778 34.702 31.6667 34.4051 31.6667 34.0509V31.8009H8.33333ZM8.45833 18.0509H31.5417L29.25 11.1343H10.75L8.45833 18.0509ZM11.9069 27.2176C12.5523 27.2176 13.0903 26.9989 13.5208 26.5614C13.9514 26.1239 14.1667 25.5926 14.1667 24.9676C14.1667 24.3195 13.9479 23.7685 13.5104 23.3148C13.0729 22.8611 12.5417 22.6343 11.9167 22.6343C11.2685 22.6343 10.7176 22.8602 10.2639 23.312C9.81018 23.7638 9.58333 24.3124 9.58333 24.9578C9.58333 25.6032 9.80924 26.1412 10.261 26.5718C10.7128 27.0023 11.2614 27.2176 11.9069 27.2176ZM28.125 27.2176C28.7731 27.2176 29.3241 26.9989 29.7778 26.5614C30.2315 26.1239 30.4583 25.5926 30.4583 24.9676C30.4583 24.3195 30.2324 23.7685 29.7806 23.3148C29.3288 22.8611 28.7802 22.6343 28.1348 22.6343C27.4894 22.6343 26.9514 22.8602 26.5208 23.312C26.0903 23.7638 25.875 24.3124 25.875 24.9578C25.875 25.6032 26.0938 26.1412 26.5312 26.5718C26.9688 27.0023 27.5 27.2176 28.125 27.2176ZM7.5 29.3009H32.5V20.5509H7.5V29.3009Z" fill="white"/>
</svg>
