<svg width="48" height="48" viewBox="0 0 48 48" fill="none" xmlns="http://www.w3.org/2000/svg">
<path d="M10.125 38.565L10.1209 41.2649C10.1203 41.6899 9.97652 42.0463 9.68957 42.3342C9.40261 42.6222 9.04735 42.7664 8.62378 42.7671L7.62716 42.7686C7.20359 42.7692 6.84875 42.626 6.56265 42.339C6.27655 42.0519 6.13381 41.6959 6.13444 41.2709L6.15847 25.0718L10.4131 12.266C10.5799 11.7991 10.8545 11.432 11.237 11.1648C11.6194 10.8975 12.0598 10.7635 12.5581 10.7628L35.6798 10.7277C36.1781 10.7269 36.6181 10.8596 36.9998 11.1256C37.3814 11.3917 37.6549 11.7579 37.8203 12.2243L42.037 25.0173L42.013 41.2165C42.0124 41.6414 41.8686 41.9979 41.5816 42.2858C41.2946 42.5737 40.9394 42.718 40.5158 42.7187L39.4694 42.7202C39.0375 42.7209 38.6889 42.5777 38.4235 42.2906C38.1582 42.0035 38.0258 41.6475 38.0265 41.2225L38.0305 38.5227L10.125 38.565ZM10.2989 22.0656L37.9055 22.0237L35.1771 13.7283L13.052 13.7619L10.2989 22.0656ZM14.4069 33.0588C15.1788 33.0576 15.8226 32.7942 16.3383 32.2684C16.854 31.7427 17.1124 31.1048 17.1135 30.3548C17.1147 29.5771 16.854 28.9164 16.3316 28.3728C15.8092 27.8292 15.1742 27.5579 14.4268 27.5591C13.6516 27.5602 12.9923 27.8323 12.4489 28.3753C11.9055 28.9182 11.6332 29.5769 11.6321 30.3514C11.6309 31.1259 11.9001 31.771 12.4397 32.2868C12.9792 32.8027 13.635 33.06 14.4069 33.0588ZM33.803 33.0294C34.5781 33.0282 35.2374 32.7647 35.7808 32.2389C36.3242 31.7131 36.5964 31.0752 36.5975 30.3253C36.5987 29.5475 36.3295 28.8869 35.79 28.3432C35.2505 27.7996 34.5948 27.5284 33.8228 27.5296C33.051 27.5308 32.4072 27.8028 31.8914 28.3458C31.3757 28.8886 31.1173 29.5473 31.1161 30.3218C31.115 31.0963 31.3756 31.7414 31.8981 32.2573C32.4205 32.7731 33.0555 33.0305 33.803 33.0294ZM9.13278 35.5667L39.0316 35.5213L39.0471 25.0218L9.14835 25.0672L9.13278 35.5667Z" fill="#C078E4"/>
</svg>
