<svg width="40" height="41" viewBox="0 0 40 41" fill="none" xmlns="http://www.w3.org/2000/svg">
<g clip-path="url(#clip0_6440_26739)">
<path d="M16.6641 14.1948V24.1948L24.4974 29.0282L25.8307 27.0282L19.1641 23.0282V14.1948H16.6641Z" fill="white"/>
<path d="M29.8654 20.8617C29.9487 21.4117 29.9987 21.9617 29.9987 22.5283C29.9987 29.0283 24.832 34.195 18.332 34.195C11.832 34.195 6.66536 29.0283 6.66536 22.5283C6.66536 16.0283 11.832 10.8617 18.332 10.8617C19.4987 10.8617 20.6154 11.0283 21.6654 11.345V7.91165C20.5987 7.66165 19.482 7.52832 18.332 7.52832C9.9987 7.52832 3.33203 14.195 3.33203 22.5283C3.33203 30.8617 9.9987 37.5283 18.332 37.5283C26.6654 37.5283 33.332 30.8617 33.332 22.5283C33.332 21.9617 33.2987 21.4117 33.232 20.8617H29.8654Z" fill="white"/>
<path d="M33.3333 9.19482V4.19482H30V9.19482H25V12.5282H30V17.5282H33.3333V12.5282H38.3333V9.19482H33.3333Z" fill="white"/>
</g>
<defs>
<clipPath id="clip0_6440_26739">
<rect width="40" height="40" fill="white" transform="translate(0 0.861328)"/>
</clipPath>
</defs>
</svg>
