<svg width="40" height="41" viewBox="0 0 40 41" fill="none" xmlns="http://www.w3.org/2000/svg">
<path d="M11.4252 31.9671C10.0853 31.9671 8.94314 31.488 7.9987 30.5296C7.05425 29.5713 6.58203 28.4255 6.58203 27.0921H3.33203V22.0921C3.33203 20.2866 3.95703 18.7518 5.20703 17.488C6.45703 16.2241 7.98481 15.5921 9.79036 15.5921H16.2487V24.5921H22.957L29.082 16.8838V11.1338H23.957V8.63379H29.082C29.7695 8.63379 30.3581 8.87858 30.8477 9.36816C31.3372 9.85775 31.582 10.4463 31.582 11.1338V17.7588L24.1654 27.0921H16.2487C16.2487 28.4255 15.7797 29.5713 14.8418 30.5296C13.9039 31.488 12.765 31.9671 11.4252 31.9671ZM11.4154 29.4671C12.0543 29.4671 12.6029 29.231 13.0612 28.7588C13.5195 28.2866 13.7487 27.731 13.7487 27.0921H9.08203C9.08203 27.731 9.3112 28.2866 9.76953 28.7588C10.2279 29.231 10.7765 29.4671 11.4154 29.4671ZM8.33203 13.0921V10.5921H16.2487V13.0921H8.33203ZM31.8418 31.9671C30.502 31.9671 29.3598 31.4982 28.4154 30.5602C27.4709 29.6224 26.9987 28.4835 26.9987 27.1436C26.9987 25.8037 27.4677 24.6616 28.4056 23.7171C29.3435 22.7727 30.4824 22.3005 31.8222 22.3005C33.1621 22.3005 34.3043 22.7694 35.2487 23.7073C36.1931 24.6452 36.6654 25.7841 36.6654 27.124C36.6654 28.4639 36.1964 29.606 35.2585 30.5505C34.3206 31.4949 33.1817 31.9671 31.8418 31.9671ZM31.832 29.4671C32.4709 29.4671 33.0195 29.238 33.4779 28.7796C33.9362 28.3213 34.1654 27.7727 34.1654 27.1338C34.1654 26.4949 33.9362 25.9463 33.4779 25.488C33.0195 25.0296 32.4709 24.8005 31.832 24.8005C31.1931 24.8005 30.6445 25.0296 30.1862 25.488C29.7279 25.9463 29.4987 26.4949 29.4987 27.1338C29.4987 27.7727 29.7279 28.3213 30.1862 28.7796C30.6445 29.238 31.1931 29.4671 31.832 29.4671ZM5.83203 24.5921H13.7487V18.0921H9.79036C8.67925 18.0921 7.74175 18.4838 6.97786 19.2671C6.21398 20.0505 5.83203 20.9921 5.83203 22.0921V24.5921Z" fill="white"/>
</svg>
