<svg width="31" height="31" viewBox="0 0 31 31" fill="none" xmlns="http://www.w3.org/2000/svg">
<path d="M8 26.3496V3.84961H17C19.0417 3.84961 20.7604 4.54753 22.1563 5.94336C23.5521 7.33919 24.25 9.05794 24.25 11.0996C24.25 13.1413 23.5521 14.86 22.1563 16.2559C20.7604 17.6517 19.0417 18.3496 17 18.3496H11.75V26.3496H8ZM11.75 14.5996H17C18 14.5996 18.8333 14.2663 19.5 13.5996C20.1667 12.9329 20.5 12.0996 20.5 11.0996C20.5 10.0996 20.1667 9.26628 19.5 8.59961C18.8333 7.93294 18 7.59961 17 7.59961H11.75V14.5996Z" fill="#9387FF"/>
</svg>
