<svg width="60" height="60" viewBox="0 0 60 60" fill="none" xmlns="http://www.w3.org/2000/svg">
<path d="M18.1223 49.6973L18.2227 13.709L32.6266 13.6709C35.8942 13.6623 38.6418 14.7713 40.8695 16.998C43.0973 19.2247 44.2066 21.9709 44.1974 25.2365C44.1883 28.5021 43.0637 31.2542 40.8235 33.4927C38.5834 35.7312 35.8295 36.8547 32.5619 36.8634L24.1596 36.8856L24.1239 49.6814L18.1223 49.6973ZM24.1763 30.8875L32.5787 30.8653C34.1791 30.8611 35.5143 30.3244 36.5842 29.2553C37.6541 28.1861 38.1913 26.8518 38.1958 25.2524C38.2003 23.6529 37.6705 22.3214 36.6065 21.2579C35.5425 20.1944 34.2103 19.6647 32.6099 19.669L24.2076 19.6912L24.1763 30.8875Z" fill="#C078E4"/>
</svg>
