<svg width="840" height="443" viewBox="0 0 840 443" fill="none" xmlns="http://www.w3.org/2000/svg">
<path d="M0.226562 269L340.411 269" stroke="white" stroke-width="4"/>
<path d="M127.968 250L127.968 230.3C127.968 227.3 129.143 225.317 131.493 224.35C133.844 223.383 137.485 222.867 142.419 222.8L144.019 219.5H133.969L133.969 217H153.969L153.969 219.5H147.019L145.519 222.8C149.719 222.867 153.177 223.375 155.893 224.325C158.61 225.275 159.968 227.267 159.968 230.3L159.968 250C159.968 251.967 159.292 253.625 157.942 254.975C156.592 256.325 154.934 257 152.967 257L155.967 260L155.967 261H152.467L148.467 257H139.467L135.467 261H131.967L131.967 260L134.967 257C133.001 257 131.342 256.325 129.992 254.975C128.642 253.625 127.968 251.967 127.968 250ZM153.218 242.3H130.968H156.918H153.218ZM144.118 250.8C144.884 250.8 145.534 250.533 146.068 250C146.601 249.467 146.868 248.817 146.868 248.05C146.868 247.283 146.601 246.633 146.068 246.1C145.534 245.567 144.884 245.3 144.118 245.3C143.351 245.3 142.701 245.567 142.168 246.1C141.634 246.633 141.368 247.283 141.368 248.05C141.368 248.817 141.634 249.467 142.168 250C142.701 250.533 143.351 250.8 144.118 250.8ZM144.018 228.55H156.568H131.118H144.018ZM130.968 239.3H156.918L156.918 231.55H130.968L130.968 239.3ZM134.667 253.8H153.217C154.284 253.8 155.167 253.433 155.867 252.7C156.568 251.967 156.918 251.067 156.918 250L156.918 242.3H130.968L130.968 250C130.968 251.067 131.326 251.967 132.042 252.7C132.759 253.433 133.634 253.8 134.667 253.8ZM144.018 225.8C139.918 225.8 136.827 226.042 134.743 226.525C132.66 227.008 131.452 227.683 131.118 228.55H156.568C156.235 227.883 155.06 227.258 153.043 226.675C151.027 226.092 148.018 225.8 144.018 225.8Z" fill="#C078E4"/>
<path d="M184.125 231.28H193.089L193.091 232.432H184.127L184.125 231.28ZM184.483 240.64H192.763L192.765 241.792H184.485L184.483 240.64ZM183.483 245.32H193.329L193.331 246.49H183.485L183.483 245.32ZM187.796 241.198H189.146L189.155 246.184H187.805L187.796 241.198ZM185.568 233.044L186.72 233.332C186.272 234.268 185.626 235.438 185.07 236.374C185.81 237.472 186.568 238.75 186.911 239.596L185.814 240.046C185.452 239.092 184.694 237.67 183.828 236.392C184.492 235.294 185.209 233.908 185.568 233.044ZM188.52 233.044L189.654 233.332C189.206 234.268 188.524 235.438 187.968 236.374C188.743 237.436 189.538 238.714 189.935 239.542L188.82 240.028C188.458 239.074 187.628 237.652 186.708 236.392C187.408 235.276 188.143 233.908 188.52 233.044ZM191.58 233.044L192.75 233.332C192.266 234.304 191.548 235.438 190.974 236.374C191.785 237.436 192.634 238.732 193.031 239.578L191.952 240.046C191.536 239.092 190.634 237.67 189.66 236.392C190.396 235.294 191.185 233.908 191.58 233.044ZM176.926 232.342H183.676L183.679 233.548H176.929L176.926 232.342ZM176.711 242.602H183.839L183.841 243.808H176.713L176.711 242.602ZM179.731 230.398H180.865L180.874 235.312H179.74L179.731 230.398ZM179.848 235.384H180.802L180.811 240.622H180.901L180.912 246.976H179.76L179.749 240.622H179.857L179.848 235.384ZM178.287 238.48L178.29 240.136H182.394L182.391 238.48H178.287ZM178.283 235.888L178.286 237.508H182.39L182.387 235.888H178.283ZM177.273 234.88H183.447L183.458 241.144H177.284L177.273 234.88ZM202.85 234.304H208.826L208.828 235.51H202.852L202.85 234.304ZM204.787 230.434H206.047L206.057 236.086C206.064 239.866 205.747 243.934 202.476 247.03C202.242 246.76 201.773 246.382 201.449 246.184C204.522 243.286 204.803 239.56 204.797 236.086L204.787 230.434ZM194.98 232.324H202.684L202.687 233.53H194.983L194.98 232.324ZM194.747 242.602H202.919L202.921 243.808H194.749L194.747 242.602ZM198.217 230.398H199.495L199.504 235.366H198.226L198.217 230.398ZM198.334 235.348H199.378L199.387 240.586H199.495L199.506 246.94H198.246L198.235 240.586H198.343L198.334 235.348ZM196.503 238.498L196.506 240.154H201.294L201.291 238.498H196.503ZM196.499 235.906L196.502 237.526H201.29L201.287 235.906H196.499ZM195.417 234.898H202.419L202.43 241.162H195.428L195.417 234.898ZM207.98 234.304H209.222L209.241 245.086C209.241 245.212 209.277 245.338 209.349 245.392C209.422 245.464 209.512 245.518 209.638 245.518C209.746 245.518 209.908 245.518 210.052 245.518C210.178 245.518 210.322 245.482 210.375 245.41C210.447 245.302 210.537 245.14 210.555 244.906C210.59 244.546 210.624 243.682 210.605 242.674C210.857 242.89 211.271 243.124 211.596 243.232C211.579 244.168 211.527 245.32 211.456 245.698C211.367 246.148 211.223 246.418 210.989 246.58C210.756 246.76 210.432 246.832 210.108 246.832C209.892 246.832 209.496 246.832 209.298 246.832C208.938 246.832 208.578 246.742 208.307 246.472C208.055 246.22 208 245.914 207.999 244.96L207.98 234.304Z" fill="#F8F9FB"/>
<path d="M310.016 102H474.716" stroke="white" stroke-width="4"/>
<path d="M360.53 79.4453L360.531 60.4453C360.531 59.0786 360.833 57.887 361.438 56.8703C362.043 55.8536 362.974 55.0203 364.231 54.3703C365.488 53.7203 367.08 53.237 369.005 52.9203C370.931 52.6036 373.198 52.4453 375.808 52.4453C378.545 52.4453 380.876 52.5953 382.802 52.8953C384.727 53.1953 386.303 53.6703 387.528 54.3203C388.753 54.9703 389.652 55.7953 390.225 56.7953C390.798 57.7953 391.084 59.012 391.084 60.4453L391.084 79.4453C391.084 81.412 390.439 83.0703 389.15 84.4203C387.861 85.7703 386.278 86.4453 384.4 86.4453L387.264 89.4453L387.264 90.4453H383.922L380.103 86.4453H371.51L367.691 90.4453H364.349L364.349 89.4453L367.214 86.4453C365.336 86.4453 363.753 85.7703 362.464 84.4203C361.175 83.0703 360.53 81.412 360.53 79.4453ZM375.808 55.4453C371.989 55.4453 369.236 55.7036 367.549 56.2203C365.862 56.737 364.653 57.4786 363.921 58.4453H387.838C387.265 57.5453 386.048 56.8203 384.186 56.2703C382.324 55.7203 379.532 55.4453 375.808 55.4453ZM363.395 69.1953H374.566L374.566 61.4453H363.395L363.395 69.1953ZM384.4 72.1953H363.395H388.22H384.4ZM377.43 69.1953H388.22L388.22 61.4453H377.431L377.43 69.1953ZM368.885 80.6953C369.617 80.6953 370.237 80.4286 370.747 79.8953C371.256 79.362 371.51 78.712 371.51 77.9453C371.51 77.1786 371.256 76.5286 370.747 75.9953C370.237 75.462 369.617 75.1953 368.885 75.1953C368.153 75.1953 367.532 75.462 367.023 75.9953C366.514 76.5286 366.259 77.1786 366.259 77.9453C366.259 78.712 366.514 79.362 367.023 79.8953C367.532 80.4286 368.153 80.6953 368.885 80.6953ZM382.729 80.6953C383.461 80.6953 384.082 80.4286 384.591 79.8953C385.1 79.362 385.355 78.712 385.355 77.9453C385.355 77.1786 385.1 76.5286 384.591 75.9953C384.082 75.462 383.461 75.1953 382.729 75.1953C381.997 75.1953 381.377 75.462 380.867 75.9953C380.358 76.5286 380.104 77.1786 380.104 77.9453C380.104 78.712 380.358 79.362 380.867 79.8953C381.377 80.4286 381.997 80.6953 382.729 80.6953ZM367.214 83.6953H384.4C385.482 83.6953 386.389 83.2787 387.121 82.4453C387.853 81.612 388.219 80.612 388.219 79.4453L388.22 72.1953H363.395L363.395 79.4453C363.395 80.612 363.761 81.612 364.493 82.4453C365.225 83.2787 366.132 83.6953 367.214 83.6953ZM375.808 58.4453H387.838H363.921H375.808Z" fill="#C078E4"/>
<path d="M411.26 77.834H421.394L421.396 79.148H411.262L411.26 77.834ZM410.638 72.272H422.104L422.117 79.904H420.695L420.684 73.568H412.008L412.019 79.94H410.651L410.638 72.272ZM414.24 63.326L415.717 63.848C414.641 65.936 413.133 68.42 411.93 70.004L410.759 69.5C411.944 67.898 413.416 65.252 414.24 63.326ZM418.565 66.242L419.626 65.45C421.465 66.908 423.592 69.032 424.531 70.526L423.381 71.426C422.478 69.932 420.422 67.754 418.565 66.242ZM408.508 68.906C411.928 68.816 417.472 68.582 422.601 68.348L422.531 69.644C417.474 69.914 412.038 70.148 408.601 70.292L408.508 68.906ZM432.477 65H437.625L437.627 66.08H432.479L432.477 65ZM432.313 73.73H437.821L437.822 74.648H432.314L432.313 73.73ZM432.604 75.674H437.608L437.61 76.556H432.606L432.604 75.674ZM431.816 67.646H442.67L442.672 68.762H431.818L431.816 67.646ZM434.472 63.38H435.696L435.705 68.168H434.481L434.472 63.38ZM433.549 70.508L433.552 71.984H436.558L436.555 70.508H433.549ZM432.521 69.59H437.615L437.621 72.902H432.527L432.521 69.59ZM439.964 64.208L440.971 63.758C441.639 64.622 442.361 65.792 442.65 66.566L441.571 67.088C441.318 66.314 440.631 65.108 439.964 64.208ZM431.78 78.014C433.31 77.906 435.542 77.708 437.773 77.492L437.793 78.482C435.669 78.716 433.546 78.932 431.926 79.094L431.78 78.014ZM441.199 70.454L442.369 70.706C441.332 74.756 439.394 77.942 436.68 79.976C436.481 79.742 436.012 79.31 435.742 79.094C438.457 77.258 440.251 74.216 441.199 70.454ZM434.473 73.982H435.661L435.668 78.068L434.48 78.176L434.473 73.982ZM438.144 63.38H439.44C439.351 73.91 440.187 78.698 441.339 78.698C441.663 78.698 441.842 78.104 441.911 76.034C442.181 76.304 442.578 76.592 442.866 76.682C442.709 79.454 442.259 79.94 441.216 79.958C438.822 79.958 438.271 74.216 438.144 63.38ZM426.074 78.194C427.622 77.924 429.961 77.474 432.228 77.006L432.338 78.158C430.233 78.608 428.038 79.058 426.383 79.4L426.074 78.194ZM426.992 67.862H431.654L431.656 68.996H426.994L426.992 67.862ZM426.26 70.904H432.02L432.022 72.074H426.262L426.26 70.904ZM426.57 73.28L427.433 73.082C427.795 74.162 428.05 75.566 428.105 76.484L427.17 76.718C427.132 75.782 426.878 74.36 426.57 73.28ZM430.997 72.884L431.933 73.082C431.683 74.18 431.416 75.476 431.165 76.322L430.337 76.124C430.569 75.26 430.873 73.82 430.997 72.884ZM428.739 68.366H429.873L429.89 77.942L428.756 78.104L428.739 68.366ZM428.838 63.398H429.54L429.541 63.686H429.919L429.92 64.028C429.274 65.414 428.197 67.322 426.508 68.906C426.328 68.636 425.931 68.24 425.661 68.06C427.206 66.692 428.283 64.838 428.838 63.398ZM429 63.398H429.954C430.928 64.37 432.083 65.756 432.606 66.656L431.726 67.628C431.202 66.728 430.138 65.198 429.218 64.28H429.002L429 63.398Z" fill="#F8F9FB"/>
<path d="M99.2344 61H286.483" stroke="white" stroke-width="4"/>
<path d="M547.258 60L752.153 60" stroke="white" stroke-width="4"/>
<path d="M535.492 142L742.348 142" stroke="white" stroke-width="4"/>
<g clip-path="url(#clip0_6907_5817)">
<path d="M624.416 134.937C621.769 134.937 619.522 133.987 617.676 132.087C615.829 130.187 614.906 127.887 614.906 125.187C614.906 122.487 615.838 120.195 617.702 118.312C619.566 116.428 621.82 115.487 624.465 115.487C626.785 115.487 628.819 116.245 630.567 117.762C632.316 119.278 633.37 121.203 633.729 123.537H636.229L632.21 111.937H628.631V108.937H637.847V111.937H635.298L636.572 115.487H647.454L643.974 105.937H638.827V102.937H643.68C644.464 102.937 645.126 103.12 645.665 103.487C646.204 103.853 646.605 104.403 646.866 105.137L650.591 115.487H652.454C655.085 115.487 657.328 116.424 659.182 118.298C661.036 120.173 661.963 122.44 661.963 125.099C661.963 127.791 661.044 130.103 659.206 132.037C657.367 133.97 655.117 134.937 652.454 134.937C650.114 134.937 648.059 134.137 646.287 132.537C644.516 130.937 643.435 128.937 643.043 126.537H633.729C633.37 128.937 632.316 130.937 630.567 132.537C628.819 134.137 626.769 134.937 624.416 134.937ZM624.416 131.937C625.984 131.937 627.349 131.42 628.509 130.387C629.669 129.353 630.445 128.07 630.837 126.537H625.004V123.537H630.837C630.445 122.037 629.661 120.82 628.484 119.887C627.308 118.953 625.968 118.487 624.465 118.487C622.635 118.487 621.074 119.137 619.784 120.437C618.493 121.737 617.847 123.32 617.847 125.187C617.847 127.062 618.485 128.655 619.759 129.968C621.033 131.28 622.586 131.937 624.416 131.937ZM639.366 123.537H643.092C643.222 122.77 643.476 121.92 643.851 120.987C644.227 120.053 644.742 119.22 645.395 118.487H637.602L639.366 123.537ZM652.454 131.937C654.284 131.937 655.836 131.28 657.111 129.968C658.385 128.655 659.022 127.062 659.022 125.187C659.022 123.32 658.385 121.737 657.111 120.437C655.836 119.137 654.284 118.487 652.454 118.487H651.67L653.581 124.137L650.836 125.087L648.729 119.487C647.781 120.053 647.07 120.853 646.596 121.887C646.123 122.92 645.886 124.02 645.886 125.187C645.886 127.062 646.523 128.655 647.797 129.968C649.072 131.28 650.624 131.937 652.454 131.937Z" fill="#C078E4"/>
</g>
<path d="M640.595 59L645.997 29.7L641.294 31.85V38.5H638.453V29.85L647.394 25.8C647.829 25.6 648.287 25.475 648.768 25.425C649.249 25.375 649.723 25.4 650.188 25.5C650.716 25.6 651.174 25.7833 651.562 26.05C651.95 26.3167 652.268 26.65 652.517 27.05L654.473 30.35C655.435 31.95 656.638 33.2083 658.082 34.125C659.525 35.0417 661.07 35.5 662.715 35.5V38.5C660.542 38.4333 658.625 37.925 656.964 36.975C655.303 36.025 653.805 34.5667 652.47 32.6L650.701 40.2L654.985 44.35V59H652.191V47L647.161 42.1L643.482 59H640.595ZM652.796 23.3C651.865 23.3 651.065 22.9417 650.398 22.225C649.73 21.5083 649.397 20.65 649.397 19.65C649.397 18.65 649.73 17.7917 650.398 17.075C651.065 16.3583 651.865 16 652.796 16C653.727 16 654.527 16.3583 655.194 17.075C655.862 17.7917 656.196 18.65 656.196 19.65C656.196 20.65 655.862 21.5083 655.194 22.225C654.527 22.9417 653.727 23.3 652.796 23.3Z" fill="#C078E4"/>
<path d="M391.383 243L724.705 243" stroke="white" stroke-width="4"/>
<path d="M380.594 321L713.916 321" stroke="white" stroke-width="4"/>
<path d="M497.258 399L693.33 399" stroke="white" stroke-width="4"/>
<g clip-path="url(#clip1_6907_5817)">
<path d="M533.236 313C530.589 313 528.342 312.05 526.496 310.15C524.65 308.25 523.727 305.95 523.727 303.25C523.727 300.55 524.659 298.258 526.522 296.375C528.386 294.492 530.641 293.55 533.285 293.55C535.605 293.55 537.639 294.308 539.388 295.825C541.136 297.342 542.19 299.267 542.549 301.6H545.049L541.03 290H537.452V287H546.667V290H544.118L545.392 293.55H556.274L552.794 284H547.647V281H552.5C553.284 281 553.946 281.183 554.485 281.55C555.025 281.917 555.425 282.467 555.686 283.2L559.412 293.55H561.274C563.905 293.55 566.148 294.487 568.002 296.362C569.857 298.236 570.784 300.503 570.784 303.163C570.784 305.854 569.865 308.167 568.026 310.1C566.188 312.033 563.937 313 561.274 313C558.934 313 556.879 312.2 555.108 310.6C553.337 309 552.255 307 551.863 304.6H542.549C542.19 307 541.136 309 539.388 310.6C537.639 312.2 535.589 313 533.236 313ZM533.236 310C534.805 310 536.169 309.483 537.329 308.45C538.489 307.417 539.265 306.133 539.657 304.6H533.824V301.6H539.657C539.265 300.1 538.481 298.883 537.305 297.95C536.128 297.017 534.788 296.55 533.285 296.55C531.455 296.55 529.895 297.2 528.604 298.5C527.313 299.8 526.668 301.383 526.668 303.25C526.668 305.125 527.305 306.719 528.579 308.031C529.854 309.344 531.406 310 533.236 310ZM548.187 301.6H551.912C552.043 300.833 552.296 299.983 552.672 299.05C553.047 298.117 553.562 297.283 554.216 296.55H546.422L548.187 301.6ZM561.274 310C563.104 310 564.657 309.344 565.931 308.031C567.205 306.719 567.843 305.125 567.843 303.25C567.843 301.383 567.205 299.8 565.931 298.5C564.657 297.2 563.104 296.55 561.274 296.55H560.49L562.402 302.2L559.657 303.15L557.549 297.55C556.601 298.117 555.891 298.917 555.417 299.95C554.943 300.983 554.706 302.083 554.706 303.25C554.706 305.125 555.343 306.719 556.618 308.031C557.892 309.344 559.444 310 561.274 310Z" fill="#C078E4"/>
</g>
<path d="M548.439 241L553.841 211.7L549.138 213.85V220.5H546.297V211.85L555.238 207.8C555.673 207.6 556.13 207.475 556.612 207.425C557.093 207.375 557.566 207.4 558.032 207.5C558.56 207.6 559.018 207.783 559.406 208.05C559.794 208.317 560.112 208.65 560.36 209.05L562.316 212.35C563.279 213.95 564.482 215.208 565.925 216.125C567.369 217.042 568.913 217.5 570.559 217.5V220.5C568.386 220.433 566.469 219.925 564.808 218.975C563.147 218.025 561.649 216.567 560.314 214.6L558.544 222.2L562.829 226.35V241H560.034V229L555.005 224.1L551.326 241H548.439ZM560.64 205.3C559.708 205.3 558.909 204.942 558.242 204.225C557.574 203.508 557.24 202.65 557.24 201.65C557.24 200.65 557.574 199.792 558.242 199.075C558.909 198.358 559.708 198 560.64 198C561.571 198 562.371 198.358 563.038 199.075C563.706 199.792 564.039 200.65 564.039 201.65C564.039 202.65 563.706 203.508 563.038 204.225C562.371 204.942 561.571 205.3 560.64 205.3Z" fill="#C078E4"/>
<path d="M54.1484 143H293.356" stroke="white" stroke-width="4"/>
<path d="M0.226562 399L196.298 399" stroke="white" stroke-width="4"/>
<rect width="84.7546" height="179.879" rx="10" transform="matrix(1 0 -0.182129 0.983275 256.102 0)" fill="#E099E1"/>
<path d="M248.503 81.2692H264.307L263.973 83.0745H248.169L248.503 81.2692ZM255.46 79.7648H257.692L257.246 82.1719H255.014L255.46 79.7648ZM247.899 88.4196H261.057L260.732 90.1718H249.68L248.52 96.4372H246.414L247.899 88.4196ZM260.247 88.4196H262.425L261.356 94.1895C261.176 95.1629 260.873 95.7293 260.112 96.0479C259.369 96.3664 258.408 96.4018 257.112 96.4018C257.152 95.8001 257.003 94.9505 256.817 94.4018C257.62 94.4372 258.538 94.4372 258.794 94.4195C259.064 94.4195 259.149 94.3488 259.188 94.1364L260.247 88.4196ZM251.149 90.986H253.021L252.136 95.7647H250.264L251.149 90.986ZM252.085 90.986H258.061L257.327 94.9505H251.351L251.613 93.5346H255.681L255.891 92.4019H251.823L252.085 90.986ZM252.783 85.1807L252.586 86.2426H258.256L258.453 85.1807H252.783ZM250.993 83.7648H260.893L260.169 87.6763H250.269L250.993 83.7648ZM265.989 82.4905H274.089L273.722 84.4727H265.622L265.989 82.4905ZM265.972 93.8532C267.372 93.5877 269.473 93.1275 271.559 92.6497L271.47 94.2957C269.683 94.8089 267.81 95.3045 266.279 95.6939L265.972 93.8532ZM270.41 90.4019L272.036 89.7824C272.25 91.4461 272.31 93.5523 272.171 94.9859L270.433 95.6231C270.584 94.2249 270.552 92.0656 270.41 90.4019ZM270.113 85.7825L271.931 86.1718C270.913 88.9506 269.503 92.3842 268.407 94.508L266.985 94.1187C268.018 91.9417 269.347 88.3665 270.113 85.7825ZM274.52 86.7736H281.414L281.086 88.5435H274.192L274.52 86.7736ZM273.88 90.2249H280.774L280.443 92.0125H273.549L273.88 90.2249ZM273.228 93.747H280.482L280.125 95.6762H272.871L273.228 93.747ZM276.247 79.7825L278.168 80.2958C276.723 83.2338 274.69 86.2426 272.716 88.1541C272.503 87.747 271.908 86.8798 271.566 86.4904C273.337 84.8975 275.051 82.3489 276.247 79.7825ZM279.865 79.9772L281.797 80.5259C280.898 81.9772 279.865 83.5701 279.084 84.5789L277.491 84.048C278.267 82.9683 279.272 81.2338 279.865 79.9772ZM276.424 83.1984H282.274L281.923 85.0922H276.073L273.975 96.4195H271.995L274.116 84.9683L276.136 83.1984H276.424ZM277.945 84.1188H279.925L277.945 94.8089H275.965L277.945 84.1188ZM268.683 79.8002H270.609L270.318 81.3754C269.567 85.4285 268.377 91.0744 264.792 95.8532C264.422 95.5169 263.673 95.0921 263.112 94.9151C266.548 90.455 267.68 85.2161 268.392 81.3754L268.683 79.8002ZM284.669 81.2515H300.149L299.791 83.1807H284.311L284.669 81.2515ZM282.22 92.1364H298.672L298.318 94.0479H281.866L282.22 92.1364ZM291.507 79.8002H293.739L290.658 96.4372H288.426L291.507 79.8002ZM286.785 88.3842L286.582 89.4815H295.096L295.299 88.3842H286.785ZM287.277 85.7294L287.077 86.809H295.591L295.791 85.7294H287.277ZM285.522 84.0303H298.284L296.959 91.1806H284.197L285.522 84.0303ZM302.04 83.0922H309.024L308.656 85.0745H301.672L302.04 83.0922ZM305.16 80.048H307.176L306.431 84.0657H304.415L305.16 80.048ZM313.278 83.0568H318.516L318.142 85.0745H312.904L313.278 83.0568ZM308.322 93.5877H314.766L314.398 95.57H307.954L308.322 93.5877ZM312.805 79.7825H315.037L313.329 89.0037H311.097L312.805 79.7825ZM308.377 88.1364H316.945L315.427 96.331H313.231L314.382 90.1187H310.098L308.934 96.4018H306.846L308.377 88.1364ZM299.857 92.7381C301.788 92.4196 304.737 91.8532 307.491 91.2691L307.343 93.2337C304.769 93.8178 301.994 94.4195 299.896 94.862L299.857 92.7381ZM301.986 85.9064L303.755 85.5878C303.851 87.4993 303.697 89.8886 303.428 91.5346L301.508 91.8886C301.843 90.278 302.014 87.8001 301.986 85.9064ZM306.092 85.4108L308.133 85.7648C307.428 88.0125 306.514 90.6143 305.831 92.2603L304.097 91.9063C304.775 90.1895 305.628 87.4285 306.092 85.4108Z" fill="#121023"/>
<rect width="81.9605" height="179.879" rx="10" transform="matrix(1 0 -0.182129 0.983275 32.7578 0)" fill="#E099E1"/>
<path d="M44.222 67.9948H60.0261L59.6917 69.8001H43.8877L44.222 67.9948ZM51.1787 66.4904H53.4107L52.9649 68.8975H50.7329L51.1787 66.4904ZM43.6176 75.1452H56.7756L56.4511 76.8974H45.3991L44.2385 83.1628H42.1325L43.6176 75.1452ZM55.9656 75.1452H58.1436L57.0749 80.915C56.8946 81.8885 56.5917 82.4549 55.8306 82.7734C55.0876 83.092 54.1271 83.1274 52.8311 83.1274C52.8705 82.5257 52.7219 81.6761 52.5355 81.1274C53.339 81.1628 54.257 81.1628 54.5123 81.1451C54.7823 81.1451 54.8674 81.0743 54.9067 80.862L55.9656 75.1452ZM46.8682 77.7115H48.7402L47.8551 82.4903H45.9831L46.8682 77.7115ZM47.8042 77.7115H53.7802L53.0459 81.6761H47.0699L47.3322 80.2602H51.4002L51.61 79.1275H47.542L47.8042 77.7115ZM48.5015 71.9063L48.3048 72.9682H53.9748L54.1715 71.9063H48.5015ZM46.7118 70.4904H56.6118L55.8873 74.4018H45.9873L46.7118 70.4904ZM68.2897 67.8886H73.3117L73.0134 69.4992H67.9914L68.2897 67.8886ZM66.4591 76.7027H71.8231L71.5805 78.0124H66.2165L66.4591 76.7027ZM66.3538 78.6319H71.2678L71.0416 79.8531H66.1276L66.3538 78.6319ZM67.1925 70.5081H78.1545L77.8431 72.1895H66.8811L67.1925 70.5081ZM70.1262 66.5258H72.0342L71.1457 71.3222H69.2377L70.1262 66.5258ZM68.6609 74.0479L68.5101 74.862H70.4001L70.5509 74.0479H68.6609ZM67.3522 72.7558H72.4102L71.784 76.1363H66.726L67.3522 72.7558ZM75.7516 67.6408L77.4389 66.986C77.8461 67.8001 78.2369 68.8975 78.3364 69.6231L76.5248 70.3665C76.4612 69.6408 76.131 68.5081 75.7516 67.6408ZM65.1127 80.862C66.6624 80.7558 68.8699 80.5965 71.0807 80.4195L70.8266 81.8885C68.7745 82.0832 66.6864 82.2779 65.0402 82.4195L65.1127 80.862ZM75.7088 73.6054L77.4727 73.9948C75.6584 77.9593 73.067 81.1628 69.9491 83.1274C69.7266 82.7734 69.1345 82.0832 68.7795 81.7646C71.7942 80.0655 74.1286 77.1806 75.7088 73.6054ZM68.1543 77.0744H69.9723L69.2281 81.092L67.3839 81.2336L68.1543 77.0744ZM73.9422 66.5258H75.9942C73.9587 76.154 73.715 81.1628 74.543 81.1628C74.813 81.1628 75.0816 80.4903 75.5207 78.508C75.8233 78.9151 76.3174 79.3575 76.7379 79.5168C75.9694 82.5964 75.3131 83.1274 73.9778 83.1451C71.2238 83.1451 72.0734 76.8089 73.9422 66.5258ZM59.3396 80.9327C60.9482 80.7027 63.3996 80.2956 65.7283 79.8708L65.5657 81.623C63.4383 82.0301 61.1849 82.4372 59.4339 82.7557L59.3396 80.9327ZM62.0853 70.9682H66.8913L66.5733 72.685H61.7673L62.0853 70.9682ZM60.9193 73.9594H66.6793L66.3514 75.7293H60.5914L60.9193 73.9594ZM60.5027 76.7912L61.8185 76.4903C61.9229 77.4815 61.9241 78.7381 61.842 79.5699L60.4477 79.9062C60.5691 79.0567 60.5744 77.7646 60.5027 76.7912ZM65.0012 76.3133L66.2775 76.6142C65.8206 77.623 65.3621 78.7381 64.9904 79.4814L63.8729 79.1983C64.2331 78.4195 64.7359 77.1629 65.0012 76.3133ZM63.4662 71.6762H65.1942L63.4861 80.8973L61.709 81.1628L63.4662 71.6762ZM64.5822 66.5258H65.6982L65.626 66.9152H66.22L66.1217 67.4462C65.2032 68.809 63.8183 70.6497 61.7953 72.2426C61.6039 71.8178 61.11 71.1806 60.7664 70.8974C62.4784 69.6231 63.7832 67.924 64.5822 66.5258ZM64.7262 66.5258H66.1662C66.9497 67.4462 67.8804 68.7382 68.2499 69.6585L66.6147 71.1983C66.3139 70.2957 65.5224 68.7382 64.7977 67.8886H64.4737L64.7262 66.5258ZM29.9899 96.0476H45.9019L45.5216 98.1007H29.6096L29.9899 96.0476ZM34.4327 100.826H44.6568L44.2797 102.862H34.0557L34.4327 100.826ZM31.2807 107.251H44.1327L43.7524 109.304H30.9004L31.2807 107.251ZM37.7984 101.8H40.0124L38.7962 108.366H36.5822L37.7984 101.8ZM35.8147 93.0742L38.0122 93.3574C35.9944 99.0034 33.1681 105.127 28.3315 108.791C28.0993 108.295 27.5775 107.517 27.2242 107.092C31.537 103.924 34.1636 98.1007 35.8147 93.0742ZM53.448 103.8L55.8075 104.083C55.318 104.879 54.8416 105.605 54.5125 106.118L52.6668 105.782C52.9436 105.163 53.2678 104.384 53.448 103.8ZM51.8317 102.419L51.6743 103.269H57.3443L57.5017 102.419H51.8317ZM50.0763 101.11H59.8863L59.247 104.561H49.437L50.0763 101.11ZM48.0295 105.357H60.8275L60.0243 109.694H57.8823L58.4134 106.826H49.7914L49.2603 109.694H47.2263L48.0295 105.357ZM48.8371 107.8H59.1331L58.8577 109.286H48.5617L48.8371 107.8ZM47.6945 98.8087H63.2105L62.5712 102.26H60.3932L60.7342 100.419H49.4662L49.1252 102.26H47.0552L47.6945 98.8087ZM54.6277 93.8353L56.2541 94.3839C55.5502 95.0742 54.8496 95.7468 54.3177 96.1892L53.1675 95.6937C53.6618 95.1627 54.2773 94.3662 54.6277 93.8353ZM50.8565 96.8972L52.3116 95.7468C53.1558 96.2423 54.3469 97.0034 54.9391 97.499L53.4038 98.791C52.8508 98.2777 51.7056 97.4636 50.8565 96.8972ZM51.7807 93.0742H53.6527C52.894 96.2954 51.9263 98.1184 48.0887 99.1096C48.012 98.6494 47.6538 97.9591 47.3381 97.6228C50.5685 96.8972 51.1826 95.6229 51.7807 93.0742ZM49.6155 93.7822L50.895 94.26C50.4464 95.1273 49.8472 96.0299 48.9895 96.5786L47.8198 95.7999C48.571 95.3397 49.2258 94.5255 49.6155 93.7822ZM62.6262 93.7999L64.3688 94.4016C63.6109 95.0919 62.8678 95.7999 62.3146 96.26L61.0956 95.7468C61.6145 95.1804 62.2693 94.3662 62.6262 93.7999ZM58.6374 96.968L60.0795 95.6937C61.1806 96.26 62.7986 97.145 63.6085 97.729L62.0616 99.1804C61.3271 98.5786 59.7581 97.6228 58.6374 96.968ZM59.5027 93.0742H61.4467C60.706 96.2954 59.7596 98.1007 55.8271 99.0211C55.7684 98.5609 55.4168 97.8352 55.0896 97.4636C58.3642 96.791 58.9259 95.6052 59.5027 93.0742ZM57.2982 93.7999L58.5925 94.2954C58.1258 95.1627 57.5365 96.0122 56.6903 96.5963L55.5091 95.7822C56.2603 95.322 56.9118 94.5255 57.2982 93.7999ZM65.8409 96.3662H72.8249L72.4577 98.3485H65.4737L65.8409 96.3662ZM68.9608 93.322H70.9768L70.2326 97.3397H68.2166L68.9608 93.322ZM77.0794 96.3308H82.3174L81.9437 98.3485H76.7057L77.0794 96.3308ZM72.1228 106.862H78.5668L78.1997 108.844H71.7557L72.1228 106.862ZM76.6059 93.0565H78.8379L77.1299 102.278H74.8979L76.6059 93.0565ZM72.1786 101.41H80.7466L79.2287 109.605H77.0327L78.1834 103.393H73.8994L72.7356 109.676H70.6476L72.1786 101.41ZM63.6582 106.012C65.5892 105.694 68.5381 105.127 71.2923 104.543L71.1444 106.508C68.5702 107.092 65.7948 107.694 63.6968 108.136L63.6582 106.012ZM65.7876 99.1804L67.5566 98.8618C67.6526 100.773 67.498 103.163 67.2291 104.809L65.3096 105.163C65.6439 103.552 65.8149 101.074 65.7876 99.1804ZM69.8934 98.6848L71.9339 99.0388C71.2295 101.287 70.3156 103.888 69.6327 105.534L67.8983 105.18C68.5763 103.464 69.4297 100.702 69.8934 98.6848Z" fill="#121023"/>
<rect width="84.752" height="144.903" rx="10" transform="matrix(1 0 -0.182129 0.983275 334.453 198)" fill="#E099E1"/>
<path d="M357.679 248.056H366.769L366.441 249.826H357.351L357.679 248.056ZM356.382 257.295H364.77L364.442 259.065H356.054L356.382 257.295ZM354.731 261.737H364.505L364.174 263.525H354.4L354.731 261.737ZM359.212 258.145H361.39L360.469 263.118H358.291L359.212 258.145ZM358.465 250.127L360.143 250.499C359.509 251.49 358.776 252.534 358.126 253.419C358.62 254.445 359.087 255.614 359.267 256.392L357.472 257.047C357.307 256.091 356.86 254.711 356.286 253.437C357.08 252.357 357.978 251.012 358.465 250.127ZM361.363 250.127L363.041 250.499C362.407 251.49 361.641 252.516 360.973 253.401C361.527 254.392 362.034 255.543 362.25 256.322L360.451 256.994C360.268 256.038 359.747 254.676 359.098 253.419C359.949 252.322 360.858 251.012 361.363 250.127ZM364.423 250.127L366.133 250.516C365.442 251.525 364.626 252.534 363.922 253.419C364.512 254.41 365.07 255.578 365.3 256.375L363.52 257.047C363.301 256.091 362.71 254.711 361.992 253.437C362.894 252.357 363.864 251.012 364.423 250.127ZM350.137 249.03H357.031L356.693 250.853H349.799L350.137 249.03ZM347.965 259.295H355.327L354.986 261.136H347.624L347.965 259.295ZM352.986 247.348H354.75L353.796 252.499H352.032L352.986 247.348ZM352.242 252.534H353.628L352.716 257.454H352.914L351.711 263.95H349.929L351.132 257.454H351.33L352.242 252.534ZM350.683 255.702L350.486 256.764H353.834L354.031 255.702H350.683ZM351.132 253.277L350.942 254.304H354.29L354.48 253.277H351.132ZM349.91 251.808H356.318L355.128 258.233H348.72L349.91 251.808ZM375.856 251.083H381.85L381.506 252.941H375.512L375.856 251.083ZM377.949 247.366H379.929L378.758 253.684C378.08 257.348 377.053 261.242 373.612 264.074C373.31 263.667 372.65 263.047 372.181 262.764C375.292 260.251 376.182 256.906 376.778 253.684L377.949 247.366ZM368.194 249.012H376.06L375.722 250.835H367.856L368.194 249.012ZM366.041 259.277H374.285L373.94 261.136H365.696L366.041 259.277ZM371.454 247.348H373.47L372.513 252.516H370.497L371.454 247.348ZM370.695 252.516H372.279L371.367 257.437H371.583L370.38 263.932H368.382L369.585 257.437H369.783L370.695 252.516ZM368.985 255.72L368.789 256.782H372.677L372.873 255.72H368.985ZM369.435 253.295L369.241 254.339H373.129L373.323 253.295H369.435ZM368.069 251.826H375.323L374.133 258.251H366.879L368.069 251.826ZM380.392 251.083H382.372L380.471 261.348C380.448 261.472 380.443 261.596 380.469 261.649C380.51 261.72 380.572 261.773 380.662 261.773C380.734 261.773 380.824 261.773 380.914 261.773C381.004 261.773 381.101 261.737 381.171 261.649C381.245 261.543 381.335 261.348 381.392 261.136C381.497 260.764 381.666 259.95 381.832 258.959C382.154 259.26 382.704 259.596 383.16 259.755C382.937 260.764 382.646 261.95 382.467 262.428C382.264 262.941 382.025 263.26 381.694 263.49C381.382 263.72 380.966 263.826 380.588 263.826C380.3 263.826 379.904 263.826 379.652 263.826C379.184 263.826 378.739 263.702 378.499 263.348C378.255 263.012 378.248 262.658 378.471 261.454L380.392 251.083ZM329.785 275.525H331.891L329.121 290.481H327.015L329.785 275.525ZM326.433 278.852H333.651L333.284 280.835H326.066L326.433 278.852ZM329.147 279.649L330.306 280.197C329.153 282.728 327.291 285.879 325.581 287.631C325.497 287.012 325.193 286.127 324.95 285.596C326.472 284.18 328.207 281.613 329.147 279.649ZM333.282 274.038L334.167 275.773C332.171 276.445 329.623 276.888 327.471 277.136C327.469 276.658 327.33 275.95 327.2 275.49C329.307 275.189 331.677 274.64 333.282 274.038ZM330.837 280.923C331.208 281.348 332.465 283.118 332.743 283.56L331.174 285.224C330.928 284.321 330.143 282.534 329.744 281.773L330.837 280.923ZM340.065 273.861H342.189L339.111 290.481H336.987L340.065 273.861ZM332.155 285.277L342.18 283.631L342.133 285.631L332.102 287.312L332.155 285.277ZM335.016 276.144L336.643 274.941C337.499 275.667 338.544 276.728 338.961 277.489L337.203 278.817C336.84 278.056 335.862 276.923 335.016 276.144ZM333.488 280.799L335.082 279.578C335.992 280.304 337.124 281.383 337.592 282.162L335.863 283.525C335.431 282.746 334.388 281.578 333.488 280.799ZM346.237 275.72H360.673L360.263 277.932H345.827L346.237 275.72ZM343.114 287.135H359.584L359.188 289.277H342.718L343.114 287.135ZM351.9 276.923H354.366L352.317 287.985H349.851L351.9 276.923ZM370.243 287.896H376.219L375.888 289.684H369.912L370.243 287.896ZM371.099 278.711H373.043L370.86 290.498H368.916L371.099 278.711ZM371.945 278.711H377.957L377.068 283.507H371.056L371.368 281.826H375.4L375.665 280.392H371.633L371.945 278.711ZM370.62 275.755H379.674L379.061 279.065H377.045L377.344 277.454H372.232L371.933 279.065H370.007L370.62 275.755ZM374.337 273.861H376.443L375.935 276.605H373.829L374.337 273.861ZM370.85 284.622H377.636L376.564 290.41H374.566L375.317 286.357H370.529L370.85 284.622ZM366.151 277.242H367.933L367.523 279.454H365.741L366.151 277.242ZM363.521 278.711H365.429L363.606 288.551H361.698L363.521 278.711ZM364.324 281.082H368.23L367.977 282.445H364.071L364.324 281.082ZM360.699 288.02C362.281 287.737 364.716 287.224 367.04 286.728L366.93 288.392C364.863 288.958 362.652 289.525 360.932 289.967L360.699 288.02ZM365.33 285.755L367.153 285.047C367.799 286.321 368.367 288.02 368.477 289.171L366.491 289.985C366.412 288.852 365.912 287.082 365.33 285.755ZM364.583 278.711H369.533L368.392 284.87H363.442L363.724 283.348H366.784L367.361 280.233H364.301L364.583 278.711ZM366.252 273.879H367.422L367.35 274.268H367.962L367.854 274.852C366.884 276.197 365.392 278.038 363.213 279.596C363.025 279.153 362.538 278.481 362.158 278.197C364.011 276.941 365.399 275.277 366.252 273.879ZM366.774 273.879H368.214C369.137 274.728 370.188 275.95 370.615 276.852L368.955 278.428C368.615 277.543 367.714 276.091 366.847 275.33H366.505L366.774 273.879ZM381.122 277.171H388.106L387.739 279.153H380.755L381.122 277.171ZM384.242 274.127H386.258L385.514 278.144H383.498L384.242 274.127ZM392.361 277.136H397.599L397.225 279.153H391.987L392.361 277.136ZM387.404 287.666H393.848L393.481 289.649H387.037L387.404 287.666ZM391.887 273.861H394.119L392.411 283.082H390.179L391.887 273.861ZM387.46 282.215H396.028L394.51 290.41H392.314L393.465 284.197H389.181L388.017 290.481H385.929L387.46 282.215ZM378.939 286.817C380.87 286.498 383.819 285.932 386.574 285.348L386.426 287.312C383.851 287.896 381.076 288.498 378.978 288.941L378.939 286.817ZM381.069 279.985L382.838 279.666C382.934 281.578 382.779 283.967 382.51 285.613L380.591 285.967C380.925 284.357 381.096 281.879 381.069 279.985ZM385.175 279.489L387.215 279.843C386.511 282.091 385.597 284.693 384.914 286.339L383.18 285.985C383.858 284.268 384.711 281.507 385.175 279.489Z" fill="#121023"/>
<rect width="84.752" height="179.879" rx="10" transform="matrix(1 0 -0.182129 0.983275 482.562 0)" fill="#E099E1"/>
<path d="M498.457 67.092H508.393L508.012 69.145H498.076L498.457 67.092ZM498.425 62.0124H510.467L509.015 69.853H506.693L507.768 64.0477H500.262L499.187 69.853H496.973L498.425 62.0124ZM503.602 53.1098L505.921 53.9063C504.344 56.1009 502.375 58.4726 500.866 60.0124L499.063 59.2513C500.567 57.6407 502.461 55.0921 503.602 53.1098ZM507.336 56.2779L509.275 55.039C510.795 56.4549 512.575 58.508 513.229 60.0301L511.076 61.446C510.506 59.9593 508.854 57.8 507.336 56.2779ZM497.212 58.2602C500.865 58.1717 506.484 57.9593 511.474 57.7469L510.985 59.8C505.95 60.0655 500.511 60.2779 496.938 60.4195L497.212 58.2602ZM521.954 54.6142H526.976L526.677 56.2248H521.655L521.954 54.6142ZM520.123 63.4283H525.487L525.245 64.738H519.881L520.123 63.4283ZM520.018 65.3575H524.932L524.706 66.5787H519.792L520.018 65.3575ZM520.857 57.2337H531.819L531.507 58.9151H520.545L520.857 57.2337ZM523.79 53.2514H525.698L524.81 58.0478H522.902L523.79 53.2514ZM522.325 60.7734L522.174 61.5876H524.064L524.215 60.7734H522.325ZM521.016 59.4814H526.074L525.448 62.8619H520.39L521.016 59.4814ZM529.416 54.3664L531.103 53.7116C531.51 54.5257 531.901 55.6231 532.001 56.3487L530.189 57.0921C530.125 56.3664 529.795 55.2337 529.416 54.3664ZM518.777 67.5875C520.326 67.4813 522.534 67.3221 524.745 67.1451L524.491 68.6141C522.439 68.8088 520.351 69.0035 518.704 69.145L518.777 67.5875ZM529.373 60.331L531.137 60.7203C529.322 64.6849 526.731 67.8884 523.613 69.853C523.391 69.499 522.799 68.8088 522.444 68.4902C525.458 66.7911 527.793 63.9062 529.373 60.331ZM521.818 63.8H523.636L522.892 67.8176L521.048 67.9592L521.818 63.8ZM527.606 53.2514H529.658C527.623 62.8796 527.379 67.8884 528.207 67.8884C528.477 67.8884 528.746 67.2159 529.185 65.2336C529.487 65.6407 529.981 66.0831 530.402 66.2424C529.633 69.322 528.977 69.853 527.642 69.8707C524.888 69.8707 525.738 63.5345 527.606 53.2514ZM513.004 67.6583C514.612 67.4282 517.064 67.0212 519.392 66.5964L519.23 68.3486C517.102 68.7557 514.849 69.1627 513.098 69.4813L513.004 67.6583ZM515.749 57.6938H520.555L520.237 59.4106H515.431L515.749 57.6938ZM514.583 60.6849H520.343L520.015 62.4548H514.255L514.583 60.6849ZM514.167 63.5168L515.483 63.2159C515.587 64.207 515.588 65.4637 515.506 66.2955L514.112 66.6318C514.233 65.7822 514.238 64.4902 514.167 63.5168ZM518.665 63.0389L519.942 63.3398C519.485 64.3486 519.026 65.4637 518.654 66.207L517.537 65.9238C517.897 65.1451 518.4 63.8885 518.665 63.0389ZM517.13 58.4018H518.858L517.15 67.6229L515.373 67.8884L517.13 58.4018ZM518.246 53.2514H519.362L519.29 53.6408H519.884L519.786 54.1717C518.867 55.5346 517.482 57.3752 515.459 58.9682C515.268 58.5434 514.774 57.9062 514.43 57.623C516.143 56.3487 517.447 54.6496 518.246 53.2514ZM518.39 53.2514H519.83C520.614 54.1717 521.544 55.4638 521.914 56.3841L520.279 57.9239C519.978 57.0213 519.186 55.4638 518.462 54.6142H518.138L518.39 53.2514ZM486.168 81.4458H488.274L485.504 96.4014H483.398L486.168 81.4458ZM482.816 84.7732H490.034L489.666 86.7555H482.448L482.816 84.7732ZM485.53 85.5697L486.688 86.1183C485.536 88.6493 483.674 91.7997 481.963 93.5519C481.88 92.9324 481.576 92.0475 481.332 91.5165C482.855 90.1006 484.59 87.5342 485.53 85.5697ZM489.665 79.9591L490.55 81.6936C488.553 82.3662 486.005 82.8086 483.854 83.0564C483.852 82.5785 483.713 81.8706 483.582 81.4104C485.69 81.1095 488.06 80.5609 489.665 79.9591ZM487.22 86.844C487.591 87.2688 488.847 89.0387 489.125 89.4811L487.557 91.1448C487.311 90.2422 486.526 88.4546 486.127 87.6935L487.22 86.844ZM496.448 79.7821H498.572L495.494 96.4014H493.37L496.448 79.7821ZM488.537 91.1979L498.562 89.5519L498.516 91.5519L488.484 93.2333L488.537 91.1979ZM491.399 82.0653L493.026 80.8617C493.882 81.5874 494.927 82.6493 495.344 83.4104L493.586 84.7378C493.223 83.9768 492.245 82.844 491.399 82.0653ZM489.871 86.7201L491.465 85.4989C492.375 86.2245 493.507 87.3042 493.974 88.0829L492.246 89.4457C491.814 88.667 490.771 87.4988 489.871 86.7201ZM502.62 81.6405H517.056L516.646 83.8529H502.21L502.62 81.6405ZM499.497 93.0563H515.967L515.571 95.1979H499.101L499.497 93.0563ZM508.283 82.844H510.749L508.7 93.9059H506.234L508.283 82.844ZM526.626 93.8174H532.602L532.271 95.605H526.295L526.626 93.8174ZM527.482 84.6316H529.426L527.242 96.4191H525.298L527.482 84.6316ZM528.328 84.6316H534.34L533.451 89.428H527.439L527.751 87.7466H531.783L532.048 86.313H528.016L528.328 84.6316ZM527.003 81.6759H536.057L535.444 84.9856H533.428L533.726 83.375H528.614L528.316 84.9856H526.39L527.003 81.6759ZM530.72 79.7821H532.826L532.318 82.5254H530.212L530.72 79.7821ZM527.233 90.5431H534.019L532.947 96.3306H530.949L531.699 92.2776H526.911L527.233 90.5431ZM522.534 83.1626H524.316L523.906 85.375H522.124L522.534 83.1626ZM519.904 84.6316H521.812L519.989 94.4722H518.081L519.904 84.6316ZM520.706 87.0033H524.612L524.36 88.3661H520.454L520.706 87.0033ZM517.081 93.9413C518.664 93.6581 521.099 93.1448 523.423 92.6492L523.312 94.3129C521.246 94.8793 519.035 95.4457 517.315 95.8881L517.081 93.9413ZM521.713 91.6758L523.536 90.9678C524.182 92.2422 524.749 93.9413 524.86 95.0917L522.873 95.9058C522.795 94.7731 522.295 93.0032 521.713 91.6758ZM520.966 84.6316H525.916L524.775 90.7909H519.825L520.107 89.2687H523.167L523.744 86.1537H520.684L520.966 84.6316ZM522.635 79.7998H523.805L523.733 80.1892H524.345L524.236 80.7732C523.267 82.1184 521.774 83.9591 519.596 85.5166C519.408 85.0741 518.92 84.4015 518.541 84.1183C520.394 82.8617 521.782 81.198 522.635 79.7998ZM523.157 79.7998H524.597C525.519 80.6494 526.571 81.8706 526.998 82.7732L525.338 84.3484C524.998 83.4635 524.097 82.0122 523.23 81.2511H522.888L523.157 79.7998ZM488.216 107.8H503.696L503.339 109.729H487.859L488.216 107.8ZM485.768 118.684H502.22L501.866 120.596H485.414L485.768 118.684ZM495.055 106.348H497.287L494.206 122.985H491.974L495.055 106.348ZM490.333 114.932L490.13 116.03H498.644L498.847 114.932H490.333ZM490.825 112.277L490.625 113.357H499.139L499.339 112.277H490.825ZM489.07 110.578H501.832L500.507 117.729H487.745L489.07 110.578ZM505.587 109.64H512.571L512.204 111.623H505.22L505.587 109.64ZM508.707 106.596H510.723L509.979 110.614H507.963L508.707 106.596ZM516.826 109.605H522.064L521.69 111.623H516.452L516.826 109.605ZM511.869 120.136H518.313L517.946 122.118H511.502L511.869 120.136ZM516.353 106.331H518.585L516.876 115.552H514.644L516.353 106.331ZM511.925 114.684H520.493L518.975 122.879H516.779L517.93 116.667H513.646L512.482 122.95H510.394L511.925 114.684ZM503.405 119.286C505.336 118.968 508.285 118.401 511.039 117.817L510.891 119.782C508.317 120.366 505.541 120.968 503.443 121.41L503.405 119.286ZM505.534 112.454L507.303 112.136C507.399 114.047 507.245 116.437 506.976 118.083L505.056 118.437C505.39 116.826 505.561 114.348 505.534 112.454ZM509.64 111.959L511.68 112.313C510.976 114.561 510.062 117.162 509.379 118.808L507.645 118.454C508.323 116.738 509.176 113.976 509.64 111.959Z" fill="#121023"/>
<rect width="81.9605" height="449.698" rx="10" transform="matrix(1 0 -0.182129 0.983275 758.047 0)" fill="#E099E1"/>
<path d="M778.403 84.1538H788.447L788.171 85.6405H778.127L778.403 84.1538ZM785.816 83.198L786.94 82.2777C787.5 82.5609 788.153 83.0211 788.441 83.4104L787.264 84.4193C786.976 84.0299 786.348 83.5343 785.816 83.198ZM786.01 86.1361L787.625 86.4547C786.144 89.5874 783.953 91.9944 781.319 93.4811C781.162 93.1626 780.693 92.49 780.385 92.2068C782.868 90.9502 784.806 88.844 786.01 86.1361ZM776.953 90.9148C778.293 90.7732 780.225 90.5431 782.161 90.2953L781.953 91.7112C780.158 91.9767 778.345 92.2422 776.865 92.4546L776.953 90.9148ZM779.631 87.5343L779.421 88.667H780.627L780.837 87.5343H779.631ZM778.455 86.4016H782.487L781.86 89.7821H777.828L778.455 86.4016ZM783.509 82.6317H785.309C784.618 87.0387 784.46 91.198 785.596 91.4812C785.784 91.5342 786.056 90.844 786.339 89.7998C786.601 90.136 787.157 90.6316 787.484 90.8086C786.808 93.0033 785.711 93.6758 784.621 93.1449C782.503 92.4369 782.835 87.729 783.509 82.6317ZM776.403 80.4724H791.829L788.882 96.3838H786.74L789.333 82.3839H778.083L775.49 96.3838H773.456L776.403 80.4724ZM775.222 93.7466H788.398L788.047 95.6404H774.871L775.222 93.7466ZM771.179 109.357H786.443L786.056 111.446H770.792L771.179 109.357ZM768.601 120.065H784.999L784.606 122.189H768.208L768.601 120.065ZM778.178 106.26H780.446L779.656 110.525H777.388L778.178 106.26ZM781.171 112.065L783.576 112.49C782.333 115.41 780.761 118.649 779.529 120.738L777.508 120.277C778.754 118.118 780.272 114.684 781.171 112.065ZM772.891 112.649L775.041 112.118C775.499 114.313 775.656 117.056 775.489 118.932L773.167 119.516C773.382 117.676 773.265 114.808 772.891 112.649ZM768.438 134.454H770.544L767.774 149.41H765.668L768.438 134.454ZM765.086 137.782H772.304L771.936 139.764H764.718L765.086 137.782ZM767.8 138.578L768.958 139.127C767.806 141.658 765.944 144.808 764.233 146.56C764.15 145.941 763.846 145.056 763.602 144.525C765.125 143.109 766.86 140.543 767.8 138.578ZM771.935 132.967L772.82 134.702C770.823 135.375 768.275 135.817 766.124 136.065C766.122 135.587 765.983 134.879 765.852 134.419C767.96 134.118 770.33 133.569 771.935 132.967ZM769.49 139.852C769.861 140.277 771.117 142.047 771.395 142.49L769.827 144.153C769.581 143.251 768.796 141.463 768.397 140.702L769.49 139.852ZM778.718 132.79H780.842L777.764 149.41H775.64L778.718 132.79ZM770.807 144.206L780.832 142.56L780.786 144.56L770.754 146.242L770.807 144.206ZM773.669 135.074L775.296 133.87C776.152 134.596 777.197 135.658 777.614 136.419L775.856 137.746C775.493 136.985 774.515 135.852 773.669 135.074ZM772.141 139.728L773.735 138.507C774.645 139.233 775.777 140.313 776.244 141.091L774.516 142.454C774.084 141.675 773.041 140.507 772.141 139.728ZM759.484 171.038H775.234L774.922 172.719H759.172L759.484 171.038ZM763.23 168.011H770.898L770.619 169.516H762.951L763.23 168.011ZM766.42 170.224H768.544L767.843 174.011C767.666 174.967 767.379 175.445 766.574 175.71C765.805 175.976 764.794 175.994 763.426 175.994C763.423 175.427 763.272 174.684 763.091 174.206C763.948 174.241 765.031 174.224 765.301 174.224C765.593 174.206 765.693 174.153 765.732 173.941L766.42 170.224ZM770.394 168.011H770.916L771.386 167.905L772.392 168.985C771.03 169.923 769.241 170.932 767.673 171.622C767.498 171.303 767.107 170.79 766.901 170.542C768.08 170.011 769.595 169.02 770.329 168.365L770.394 168.011ZM760.449 165.728H776.253L775.578 169.374H773.436L773.826 167.268H762.216L761.826 169.374H759.774L760.449 165.728ZM762.529 160.135L764.957 160.631C764.895 160.773 764.735 160.861 764.437 160.914L763.744 166.401H761.746L762.529 160.135ZM774.319 159.941H776.371C775.86 162.118 775.182 164.808 774.672 166.489H772.602C773.157 164.755 773.854 162.065 774.319 159.941ZM771.781 159.941H775.111L774.865 161.268H771.535L771.781 159.941ZM766.293 159.445L767.091 160.578C766.013 161.056 764.576 161.427 763.579 161.657L762.918 160.56C763.912 160.348 765.399 159.799 766.293 159.445ZM763.342 161.87H766.726L766.483 163.18H763.099L763.342 161.87ZM763.038 163.799H766.404L766.162 165.109H762.796L763.038 163.799ZM771.496 161.87H774.538L774.295 163.18H771.253L771.496 161.87ZM771.084 163.799H774.126L773.884 165.109H770.842L771.084 163.799ZM770.106 159.463L771.416 159.87C770.406 160.949 768.869 161.958 767.527 162.596C767.342 162.33 766.87 161.87 766.57 161.64C767.911 161.109 769.261 160.33 770.106 159.463ZM767.253 160.383L768.373 159.587C769.343 160.082 770.521 160.914 771.072 161.534L769.882 162.419C769.364 161.817 768.21 160.949 767.253 160.383ZM769.627 162.436L770.973 162.843C769.932 163.994 768.332 165.056 766.95 165.711C766.744 165.463 766.275 164.985 765.975 164.755C767.358 164.188 768.772 163.357 769.627 162.436ZM766.746 163.41L767.887 162.596C768.869 163.126 770.094 163.994 770.678 164.631L769.431 165.534C768.919 164.896 767.736 163.994 766.746 163.41ZM757.055 187.746H771.491L771.081 189.958H756.645L757.055 187.746ZM753.932 199.162H770.402L770.006 201.303H753.536L753.932 199.162ZM762.718 188.949H765.184L763.135 200.011H760.669L762.718 188.949ZM751.455 213.409H767.583L767.308 214.896H751.18L751.455 213.409ZM749.179 225.214H765.397L765.174 226.418H748.956L749.179 225.214ZM752.012 215.94H758.222L758.029 216.984H751.819L752.012 215.94ZM759.233 216.701H764.489L764.214 218.188H758.958L759.233 216.701ZM751.774 223.444H763.618L763.395 224.648H751.551L751.774 223.444ZM751.07 220.347H757.568L757.375 221.391H750.877L751.07 220.347ZM750.899 217.48H758.765L758.565 218.56H750.699L750.899 217.48ZM755.632 212.436H757.72L757.162 215.445H755.074L755.632 212.436ZM754.29 215.498H756.09L755.586 218.223H753.786L754.29 215.498ZM753.571 219.48H755.371L754.804 222.542H753.004L753.571 219.48ZM761.572 212.436H763.696L763.138 215.445H761.014L761.572 212.436ZM749.759 227.621C752.817 227.533 757.803 227.338 762.469 227.126L762.21 228.329C757.729 228.613 752.928 228.878 749.716 229.02L749.759 227.621ZM749.954 222.099C751.947 222.029 754.976 221.905 757.921 221.745L757.721 222.825C754.841 223.02 751.91 223.197 749.803 223.303L749.954 222.099ZM752.702 218.046H754.016C753.6 219.321 752.806 220.011 750.668 220.383C750.615 220.082 750.377 219.621 750.146 219.409C751.874 219.214 752.425 218.86 752.702 218.046ZM763.607 216.701H765.317L764.534 220.931C764.475 221.25 764.442 221.427 764.468 221.48C764.491 221.551 764.542 221.568 764.614 221.568C764.686 221.568 764.776 221.568 764.83 221.568C764.92 221.568 764.995 221.551 765.056 221.515C765.116 221.48 765.172 221.374 765.226 221.179C765.298 220.984 765.401 220.524 765.521 219.975C765.763 220.223 766.224 220.453 766.594 220.595C766.443 221.214 766.255 221.94 766.08 222.206C765.937 222.489 765.721 222.683 765.464 222.807C765.24 222.949 764.888 223.002 764.618 223.002C764.384 223.002 764.06 223.002 763.862 223.002C763.484 223.002 763.093 222.878 762.872 222.613C762.67 222.347 762.624 222.011 762.817 220.967L763.607 216.701ZM759.135 226.754L760.744 225.94C762.022 226.524 763.452 227.551 764.196 228.294L762.532 229.214C761.848 228.436 760.407 227.374 759.135 226.754ZM755.144 218.082H756.422L756.291 218.79C756.235 219.091 756.264 219.126 756.48 219.126C756.588 219.126 757.02 219.126 757.146 219.126C757.362 219.126 757.447 219.055 757.556 218.666C757.763 218.807 758.187 218.949 758.516 219.02C758.267 219.781 757.879 220.029 757.177 220.029C756.961 220.029 756.349 220.029 756.133 220.029C755.035 220.029 754.832 219.763 755.013 218.79L755.144 218.082ZM753.618 225.639L755.428 226.17C754.711 226.931 754 227.657 753.458 228.152L752.071 227.675C752.593 227.09 753.24 226.223 753.618 225.639ZM758.295 219.533L759.447 218.365C760.753 218.896 762.346 219.816 763.091 220.56L761.861 221.852C761.153 221.108 759.609 220.117 758.295 219.533ZM761.269 215.622H762.871L762.55 217.356C762.206 219.214 761.379 221.639 758.343 223.356C758.135 223.02 757.669 222.524 757.307 222.241C760.001 220.719 760.692 218.737 760.958 217.303L761.269 215.622ZM751.494 240.896H762.744L762.439 242.542H751.189L751.494 240.896ZM749.51 249.763H761.264L760.949 251.462H749.195L749.51 249.763ZM745.478 243.444H751.364L751.007 245.373H745.121L745.478 243.444ZM748.263 239.002H750.369L747.29 255.621H745.184L748.263 239.002ZM756.417 239.002H758.487L756.785 248.188H754.715L756.417 239.002ZM756.815 248.612H758.867L757.926 253.692C757.755 254.612 757.49 255.072 756.79 255.356C756.074 255.621 755.189 255.639 753.983 255.639C753.991 255.108 753.874 254.382 753.714 253.887C754.43 253.904 755.276 253.904 755.51 253.904C755.762 253.904 755.844 253.851 755.884 253.639L756.815 248.612ZM750.641 252.205L752.289 251.179C752.963 251.816 753.779 252.754 754.126 253.409L752.365 254.559C752.094 253.887 751.323 252.896 750.641 252.205ZM758.887 240.046L760.027 238.949C760.756 239.285 761.71 239.869 762.178 240.258L760.962 241.48C760.518 241.055 759.607 240.435 758.887 240.046ZM753.166 246.736L753.009 247.586H758.841L758.998 246.736H753.166ZM753.553 244.648L753.402 245.462H759.234L759.385 244.648H753.553ZM751.901 243.267H761.639L760.586 248.949H750.848L751.901 243.267ZM750.131 265.55L752.006 265.922C750.814 268.86 749.105 271.674 747.319 273.444C747.036 273.125 746.302 272.524 745.901 272.258C747.629 270.701 749.106 268.17 750.131 265.55ZM755.668 268.311H757.702C757.702 268.311 757.556 269.002 757.489 269.267C755.675 277.214 754.813 280.116 753.965 281.001C753.44 281.603 753.004 281.816 752.391 281.922C751.867 282.028 751.111 282.028 750.326 281.993C750.383 281.391 750.334 280.488 750.119 279.904C750.771 279.975 751.38 279.993 751.722 279.993C751.992 279.993 752.171 279.904 752.432 279.656C753.051 279.037 753.901 276.294 755.583 268.771L755.668 268.311ZM750.16 268.311H756.586L756.222 270.276H748.806L750.16 268.311ZM751.302 268.948L752.727 269.71C751.443 272.754 749.21 276.258 746.913 278.063C746.575 277.656 745.983 277.161 745.48 276.86C747.867 275.249 750.067 271.922 751.302 268.948ZM753.768 269.143L755.301 269.904C753.584 274.506 750.785 279.32 747.362 281.762C747.027 281.338 746.369 280.807 745.828 280.524C749.388 278.311 752.097 273.692 753.768 269.143ZM739.525 275.196C741.361 274.807 744.123 274.081 746.735 273.391L746.675 275.267C744.28 275.957 741.679 276.683 739.67 277.232L739.525 275.196ZM744.551 265.55H746.531L743.453 282.17H741.473L744.551 265.55ZM741.988 266.559L743.733 266.86C743.066 269.196 742.175 271.674 741.235 273.249C740.957 273.002 740.275 272.506 739.882 272.294C740.72 270.878 741.436 268.665 741.988 266.559ZM742.029 268.966H747.393L747.016 271.002H741.256L742.029 268.966ZM743.391 306.116H749.367L749.036 307.904H743.06L743.391 306.116ZM744.247 296.93H746.191L744.007 308.718H742.063L744.247 296.93ZM745.093 296.93H751.105L750.216 301.727H744.204L744.516 300.045H748.548L748.813 298.612H744.781L745.093 296.93ZM743.768 293.975H752.822L752.209 297.284H750.193L750.492 295.674H745.38L745.081 297.284H743.155L743.768 293.975ZM747.485 292.081H749.591L749.083 294.824H746.977L747.485 292.081ZM743.998 302.842H750.784L749.712 308.629H747.714L748.465 304.576H743.677L743.998 302.842ZM739.299 295.461H741.081L740.671 297.674H738.889L739.299 295.461ZM736.669 296.93H738.577L736.754 306.771H734.846L736.669 296.93ZM737.471 299.302H741.377L741.125 300.665H737.219L737.471 299.302ZM733.846 306.24C735.429 305.957 737.864 305.444 740.188 304.948L740.078 306.612C738.011 307.178 735.8 307.745 734.08 308.187L733.846 306.24ZM738.478 303.975L740.301 303.267C740.947 304.541 741.514 306.24 741.625 307.391L739.638 308.205C739.56 307.072 739.06 305.302 738.478 303.975ZM737.731 296.93H742.681L741.54 303.09H736.59L736.872 301.568H739.932L740.509 298.453H737.449L737.731 296.93ZM739.4 292.099H740.57L740.498 292.488H741.11L741.001 293.072C740.032 294.417 738.539 296.258 736.361 297.815C736.173 297.373 735.685 296.7 735.306 296.417C737.159 295.161 738.547 293.497 739.4 292.099ZM739.922 292.099H741.362C742.284 292.948 743.336 294.169 743.763 295.072L742.103 296.647C741.763 295.762 740.862 294.311 739.995 293.55H739.653L739.922 292.099ZM731.744 320.116H747.728L747.361 322.098H731.377L731.744 320.116ZM734.276 327.727H742.34L742.036 329.373H733.972L734.276 327.727ZM733.377 330.541H742.215L741.901 332.24H733.063L733.377 330.541ZM737.081 328.523H739.133L737.979 334.753H735.927L737.081 328.523ZM731.797 323.426H744.829L744.469 325.373H733.615L731.788 335.231H729.61L731.797 323.426ZM744.217 323.426H746.449L744.656 333.107C744.466 334.134 744.125 334.612 743.331 334.912C742.556 335.213 741.49 335.231 740.032 335.231C740.026 334.682 739.846 333.904 739.647 333.426C740.519 333.479 741.653 333.479 741.944 333.461C742.272 333.443 742.378 333.355 742.427 333.089L744.217 323.426ZM735.308 325.851L737.128 325.355C737.437 325.921 737.7 326.735 737.8 327.266L735.888 327.868C735.831 327.302 735.571 326.47 735.308 325.851ZM740.469 325.39L742.213 325.886C741.57 326.735 740.93 327.567 740.411 328.134L738.963 327.691C739.462 327.036 740.111 326.063 740.469 325.39ZM738.819 318.753H741.195L740.077 324.789H737.701L738.819 318.753ZM733.556 359.213H739.532L739.201 361.001H733.225L733.556 359.213ZM734.412 350.027H736.356L734.172 361.815H732.228L734.412 350.027ZM735.258 350.027H741.27L740.381 354.824H734.369L734.681 353.142H738.713L738.978 351.709H734.946L735.258 350.027ZM733.933 347.072H742.987L742.374 350.381H740.358L740.657 348.771H735.545L735.246 350.381H733.32L733.933 347.072ZM737.65 345.178H739.756L739.248 347.921H737.142L737.65 345.178ZM734.163 355.939H740.949L739.877 361.726H737.879L738.63 357.673H733.842L734.163 355.939ZM729.464 348.558H731.246L730.836 350.771H729.054L729.464 348.558ZM726.834 350.027H728.742L726.919 359.868H725.011L726.834 350.027ZM727.637 352.399H731.543L731.29 353.762H727.384L727.637 352.399ZM724.011 359.337C725.594 359.054 728.029 358.54 730.353 358.045L730.243 359.709C728.176 360.275 725.965 360.841 724.245 361.284L724.011 359.337ZM728.643 357.071L730.466 356.364C731.112 357.638 731.679 359.337 731.79 360.487L729.804 361.302C729.725 360.169 729.225 358.399 728.643 357.071ZM727.896 350.027H732.846L731.705 356.187H726.755L727.037 354.664H730.097L730.674 351.549H727.614L727.896 350.027ZM729.565 345.195H730.735L730.663 345.585H731.275L731.166 346.169C730.197 347.514 728.704 349.355 726.526 350.912C726.338 350.47 725.85 349.797 725.471 349.514C727.324 348.257 728.712 346.594 729.565 345.195ZM730.087 345.195H731.527C732.449 346.045 733.501 347.266 733.928 348.169L732.268 349.744C731.928 348.859 731.027 347.408 730.16 346.647H729.818L730.087 345.195Z" fill="#121023"/>
<path d="M231.411 405C230.978 405 230.594 404.875 230.261 404.625C229.928 404.375 229.761 404.05 229.761 403.65V399.45C228.794 398.917 228.086 398.15 227.636 397.15C227.186 396.15 226.961 395.083 226.961 393.95V374.1C226.961 371.633 228.236 369.833 230.786 368.7C233.336 367.567 237.411 367 243.011 367C248.544 367 252.586 367.567 255.136 368.7C257.686 369.833 258.961 371.633 258.961 374.1V393.95C258.961 395.083 258.736 396.15 258.286 397.15C257.836 398.15 257.128 398.917 256.161 399.45V403.65C256.161 404.05 255.994 404.375 255.661 404.625C255.328 404.875 254.944 405 254.511 405H253.561C253.094 405 252.694 404.875 252.361 404.625C252.028 404.375 251.861 404.05 251.861 403.65V400.9H234.061V403.65C234.061 404.05 233.894 404.375 233.561 404.625C233.228 404.875 232.828 405 232.361 405H231.411ZM243.011 372.8H255.961H229.961H243.011ZM251.861 387.45H229.961H255.961H251.861ZM229.961 384.45H255.961V375.8H229.961V384.45ZM235.261 395.4C236.028 395.4 236.678 395.133 237.211 394.6C237.744 394.067 238.011 393.417 238.011 392.65C238.011 391.883 237.744 391.233 237.211 390.7C236.678 390.167 236.028 389.9 235.261 389.9C234.494 389.9 233.844 390.167 233.311 390.7C232.778 391.233 232.511 391.883 232.511 392.65C232.511 393.417 232.778 394.067 233.311 394.6C233.844 395.133 234.494 395.4 235.261 395.4ZM250.661 395.4C251.428 395.4 252.078 395.133 252.611 394.6C253.144 394.067 253.411 393.417 253.411 392.65C253.411 391.883 253.144 391.233 252.611 390.7C252.078 390.167 251.428 389.9 250.661 389.9C249.894 389.9 249.244 390.167 248.711 390.7C248.178 391.233 247.911 391.883 247.911 392.65C247.911 393.417 248.178 394.067 248.711 394.6C249.244 395.133 249.894 395.4 250.661 395.4ZM229.961 372.8H255.961C255.161 371.933 253.628 371.25 251.361 370.75C249.094 370.25 246.311 370 243.011 370C239.078 370 236.061 370.225 233.961 370.675C231.861 371.125 230.528 371.833 229.961 372.8ZM234.061 397.9H251.861C253.028 397.9 254.003 397.45 254.786 396.55C255.569 395.65 255.961 394.617 255.961 393.45V387.45H229.961V393.45C229.961 394.617 230.353 395.65 231.136 396.55C231.919 397.45 232.894 397.9 234.061 397.9Z" fill="#C078E4"/>
<path d="M232.467 428.414C231.621 430.952 230.055 434.462 228.777 436.676L230.019 437.072C231.351 434.894 232.917 431.528 234.051 428.81L232.467 428.414ZM226.563 436.262L226.743 437.684C230.127 437.54 235.167 437.27 239.883 437L239.919 435.704C235.095 435.938 229.857 436.154 226.563 436.262ZM235.923 432.356C237.525 434.264 239.397 436.892 240.243 438.53L241.611 437.792C240.711 436.154 238.857 433.652 237.219 431.762L235.923 432.356ZM230.649 422.42C229.605 425.084 227.823 427.676 225.843 429.296C226.221 429.512 226.851 429.998 227.139 430.268C229.047 428.486 230.937 425.732 232.143 422.834L230.649 422.42ZM237.093 422.402L235.761 422.96C237.147 425.48 239.397 428.54 241.071 430.25C241.341 429.908 241.845 429.386 242.205 429.098C240.549 427.604 238.281 424.76 237.093 422.402ZM244.455 423.536V424.778H259.467V423.536H244.455ZM243.897 434.588V435.83H260.079V434.588H243.897ZM251.223 421.898V438.494H252.609V421.898H251.223ZM247.083 430.124H256.821V431.996H247.083V430.124ZM247.083 427.226H256.821V429.062H247.083V427.226ZM245.787 426.092V433.112H258.171V426.092H245.787Z" fill="#F8F9FB"/>
<path d="M297.223 377.306H305.953V378.602H297.223V377.306ZM296.485 389.996H306.241V391.292H296.485V389.996ZM300.823 377.72H302.209V390.68H300.823V377.72ZM293.137 383.786H294.451V391.94H293.137V383.786ZM292.957 375.362L294.235 375.884C293.443 377.18 292.435 378.728 291.625 379.7L290.653 379.25C291.427 378.224 292.417 376.55 292.957 375.362ZM295.279 377.36L296.521 377.954C295.153 379.97 293.245 382.49 291.733 384.02L290.833 383.48C292.309 381.896 294.199 379.268 295.279 377.36ZM289.681 378.98L290.365 378.098C291.499 378.98 292.849 380.204 293.443 381.068L292.723 382.112C292.111 381.212 290.815 379.898 289.681 378.98ZM294.973 381.5L295.963 380.996C296.881 382.13 297.871 383.66 298.267 384.668L297.223 385.262C296.827 384.254 295.873 382.67 294.973 381.5ZM289.609 383.282C291.427 383.21 294.163 383.084 296.845 382.94V384.092C294.289 384.272 291.661 384.452 289.771 384.56L289.609 383.282ZM295.369 385.91L296.467 385.55C297.079 386.702 297.655 388.196 297.889 389.168L296.719 389.618C296.503 388.61 295.927 387.08 295.369 385.91ZM290.887 385.658L292.147 385.892C291.859 387.602 291.337 389.366 290.707 390.518C290.455 390.338 289.879 390.068 289.573 389.942C290.203 388.862 290.635 387.224 290.887 385.658ZM307.681 390.5V389.618C308.833 388.466 309.811 387.458 310.615 386.594C311.419 385.718 312.031 384.932 312.451 384.236C312.871 383.528 313.081 382.868 313.081 382.256C313.081 381.596 312.901 381.056 312.541 380.636C312.181 380.216 311.635 380.006 310.903 380.006C310.423 380.006 309.979 380.144 309.571 380.42C309.163 380.684 308.791 381.008 308.455 381.392L307.609 380.546C308.089 380.018 308.599 379.598 309.139 379.286C309.691 378.962 310.339 378.8 311.083 378.8C312.151 378.8 312.991 379.112 313.603 379.736C314.215 380.348 314.521 381.164 314.521 382.184C314.521 382.904 314.317 383.636 313.909 384.38C313.513 385.112 312.961 385.886 312.253 386.702C311.557 387.506 310.753 388.382 309.841 389.33C310.153 389.306 310.477 389.282 310.813 389.258C311.149 389.234 311.467 389.222 311.767 389.222H315.097V390.5H307.681ZM320.408 390.716C319.688 390.716 319.046 390.584 318.482 390.32C317.918 390.044 317.468 389.666 317.132 389.186C316.808 388.706 316.646 388.166 316.646 387.566C316.646 387.062 316.748 386.618 316.952 386.234C317.168 385.838 317.438 385.496 317.762 385.208C318.098 384.908 318.446 384.662 318.806 384.47V384.398C318.386 384.098 318.014 383.732 317.69 383.3C317.366 382.868 317.204 382.352 317.204 381.752C317.204 381.164 317.348 380.648 317.636 380.204C317.924 379.76 318.314 379.418 318.806 379.178C319.298 378.926 319.85 378.8 320.462 378.8C321.458 378.8 322.244 379.088 322.82 379.664C323.408 380.24 323.702 380.972 323.702 381.86C323.702 382.256 323.618 382.634 323.45 382.994C323.282 383.342 323.078 383.66 322.838 383.948C322.598 384.224 322.358 384.452 322.118 384.632V384.704C322.466 384.896 322.79 385.124 323.09 385.388C323.39 385.652 323.636 385.97 323.828 386.342C324.02 386.702 324.116 387.14 324.116 387.656C324.116 388.22 323.96 388.736 323.648 389.204C323.348 389.672 322.916 390.044 322.352 390.32C321.8 390.584 321.152 390.716 320.408 390.716ZM321.218 384.236C321.602 383.888 321.896 383.522 322.1 383.138C322.316 382.754 322.424 382.352 322.424 381.932C322.424 381.368 322.25 380.888 321.902 380.492C321.554 380.096 321.062 379.898 320.426 379.898C319.898 379.898 319.454 380.066 319.094 380.402C318.746 380.738 318.572 381.188 318.572 381.752C318.572 382.208 318.692 382.586 318.932 382.886C319.184 383.186 319.514 383.444 319.922 383.66C320.33 383.864 320.762 384.056 321.218 384.236ZM320.444 389.618C321.116 389.618 321.656 389.432 322.064 389.06C322.484 388.676 322.694 388.19 322.694 387.602C322.694 387.11 322.55 386.708 322.262 386.396C321.974 386.084 321.59 385.814 321.11 385.586C320.642 385.358 320.132 385.136 319.58 384.92C319.124 385.22 318.74 385.58 318.428 386C318.128 386.42 317.978 386.894 317.978 387.422C317.978 388.058 318.212 388.586 318.68 389.006C319.16 389.414 319.748 389.618 320.444 389.618ZM329.769 391.508C328.599 390.086 327.051 388.556 325.773 387.512L326.943 386.486C328.239 387.53 329.859 389.15 330.993 390.464L329.769 391.508ZM347.553 384.596C347.181 384.596 346.779 384.716 346.347 384.956C345.915 385.196 345.519 385.58 345.159 386.108C345.255 387.224 345.513 388.076 345.933 388.664C346.365 389.252 346.947 389.546 347.679 389.546C348.243 389.546 348.717 389.318 349.101 388.862C349.485 388.394 349.677 387.782 349.677 387.026C349.677 386.282 349.497 385.694 349.137 385.262C348.789 384.818 348.261 384.596 347.553 384.596ZM347.679 390.716C346.935 390.716 346.263 390.512 345.663 390.104C345.063 389.696 344.589 389.084 344.241 388.268C343.893 387.44 343.719 386.414 343.719 385.19C343.719 383.654 343.923 382.418 344.331 381.482C344.751 380.546 345.291 379.868 345.951 379.448C346.623 379.016 347.337 378.8 348.093 378.8C348.717 378.8 349.251 378.92 349.695 379.16C350.151 379.388 350.541 379.676 350.865 380.024L350.037 380.942C349.809 380.666 349.527 380.45 349.191 380.294C348.855 380.126 348.507 380.042 348.147 380.042C347.607 380.042 347.115 380.198 346.671 380.51C346.227 380.81 345.861 381.32 345.573 382.04C345.297 382.748 345.147 383.708 345.123 384.92C345.483 384.476 345.903 384.128 346.383 383.876C346.863 383.612 347.337 383.48 347.805 383.48C348.801 383.48 349.593 383.78 350.181 384.38C350.781 384.968 351.081 385.85 351.081 387.026C351.081 387.758 350.925 388.4 350.613 388.952C350.301 389.504 349.887 389.936 349.371 390.248C348.867 390.56 348.303 390.716 347.679 390.716ZM356.285 390.716C355.133 390.716 354.227 390.2 353.567 389.168C352.919 388.124 352.595 386.642 352.595 384.722C352.595 382.79 352.919 381.32 353.567 380.312C354.227 379.304 355.133 378.8 356.285 378.8C357.425 378.8 358.319 379.304 358.967 380.312C359.627 381.32 359.957 382.79 359.957 384.722C359.957 386.642 359.627 388.124 358.967 389.168C358.319 390.2 357.425 390.716 356.285 390.716ZM356.285 389.528C356.957 389.528 357.497 389.15 357.905 388.394C358.313 387.626 358.517 386.402 358.517 384.722C358.517 383.042 358.313 381.836 357.905 381.104C357.497 380.36 356.957 379.988 356.285 379.988C355.613 379.988 355.067 380.36 354.647 381.104C354.239 381.836 354.035 383.042 354.035 384.722C354.035 386.402 354.239 387.626 354.647 388.394C355.067 389.15 355.613 389.528 356.285 389.528ZM365.664 391.508C364.494 390.086 362.946 388.556 361.668 387.512L362.838 386.486C364.134 387.53 365.754 389.15 366.888 390.464L365.664 391.508ZM381.936 390.5C382.008 389.06 382.158 387.77 382.386 386.63C382.626 385.478 382.974 384.398 383.43 383.39C383.898 382.37 384.51 381.338 385.266 380.294H379.542V379.016H386.94V379.934C386.256 380.798 385.698 381.632 385.266 382.436C384.834 383.228 384.498 384.032 384.258 384.848C384.018 385.652 383.838 386.516 383.718 387.44C383.598 388.364 383.514 389.384 383.466 390.5H381.936ZM391.945 390.716C391.033 390.716 390.271 390.554 389.659 390.23C389.047 389.894 388.549 389.516 388.165 389.096L388.921 388.124C389.269 388.484 389.677 388.802 390.145 389.078C390.613 389.354 391.183 389.492 391.855 389.492C392.551 389.492 393.121 389.3 393.565 388.916C394.009 388.532 394.231 388.022 394.231 387.386C394.231 386.93 394.111 386.534 393.871 386.198C393.643 385.85 393.259 385.58 392.719 385.388C392.191 385.196 391.471 385.1 390.559 385.1V383.966C391.375 383.966 392.017 383.87 392.485 383.678C392.965 383.486 393.307 383.228 393.511 382.904C393.715 382.58 393.817 382.22 393.817 381.824C393.817 381.26 393.637 380.816 393.277 380.492C392.929 380.168 392.449 380.006 391.837 380.006C391.357 380.006 390.913 380.114 390.505 380.33C390.109 380.546 389.737 380.828 389.389 381.176L388.597 380.24C389.041 379.82 389.533 379.478 390.073 379.214C390.613 378.938 391.219 378.8 391.891 378.8C392.887 378.8 393.709 379.058 394.357 379.574C395.005 380.078 395.329 380.792 395.329 381.716C395.329 382.412 395.137 382.982 394.753 383.426C394.369 383.87 393.865 384.212 393.241 384.452V384.524C393.937 384.68 394.525 385.01 395.005 385.514C395.485 386.006 395.725 386.648 395.725 387.44C395.725 388.112 395.557 388.694 395.221 389.186C394.885 389.678 394.429 390.056 393.853 390.32C393.289 390.584 392.653 390.716 391.945 390.716ZM401.559 391.508C400.389 390.086 398.841 388.556 397.563 387.512L398.733 386.486C400.029 387.53 401.649 389.15 402.783 390.464L401.559 391.508ZM418.893 390.716C417.981 390.716 417.219 390.554 416.607 390.23C415.995 389.894 415.497 389.516 415.113 389.096L415.869 388.124C416.217 388.484 416.625 388.802 417.093 389.078C417.561 389.354 418.131 389.492 418.803 389.492C419.499 389.492 420.069 389.3 420.513 388.916C420.957 388.532 421.179 388.022 421.179 387.386C421.179 386.93 421.059 386.534 420.819 386.198C420.591 385.85 420.207 385.58 419.667 385.388C419.139 385.196 418.419 385.1 417.507 385.1V383.966C418.323 383.966 418.965 383.87 419.433 383.678C419.913 383.486 420.255 383.228 420.459 382.904C420.663 382.58 420.765 382.22 420.765 381.824C420.765 381.26 420.585 380.816 420.225 380.492C419.877 380.168 419.397 380.006 418.785 380.006C418.305 380.006 417.861 380.114 417.453 380.33C417.057 380.546 416.685 380.828 416.337 381.176L415.545 380.24C415.989 379.82 416.481 379.478 417.021 379.214C417.561 378.938 418.167 378.8 418.839 378.8C419.835 378.8 420.657 379.058 421.305 379.574C421.953 380.078 422.277 380.792 422.277 381.716C422.277 382.412 422.085 382.982 421.701 383.426C421.317 383.87 420.813 384.212 420.189 384.452V384.524C420.885 384.68 421.473 385.01 421.953 385.514C422.433 386.006 422.673 386.648 422.673 387.44C422.673 388.112 422.505 388.694 422.169 389.186C421.833 389.678 421.377 390.056 420.801 390.32C420.237 390.584 419.601 390.716 418.893 390.716ZM426.778 390.5C426.85 389.06 427 387.77 427.228 386.63C427.468 385.478 427.816 384.398 428.272 383.39C428.74 382.37 429.352 381.338 430.108 380.294H424.384V379.016H431.782V379.934C431.098 380.798 430.54 381.632 430.108 382.436C429.676 383.228 429.34 384.032 429.1 384.848C428.86 385.652 428.68 386.516 428.56 387.44C428.44 388.364 428.356 389.384 428.308 390.5H426.778ZM437.453 391.508C436.283 390.086 434.735 388.556 433.457 387.512L434.627 386.486C435.923 387.53 437.543 389.15 438.677 390.464L437.453 391.508ZM292.147 420.5C292.219 419.06 292.369 417.77 292.597 416.63C292.837 415.478 293.185 414.398 293.641 413.39C294.109 412.37 294.721 411.338 295.477 410.294H289.753V409.016H297.151V409.934C296.467 410.798 295.909 411.632 295.477 412.436C295.045 413.228 294.709 414.032 294.469 414.848C294.229 415.652 294.049 416.516 293.929 417.44C293.809 418.364 293.725 419.384 293.677 420.5H292.147ZM302.606 414.596C302.234 414.596 301.832 414.716 301.4 414.956C300.968 415.196 300.572 415.58 300.212 416.108C300.308 417.224 300.566 418.076 300.986 418.664C301.418 419.252 302 419.546 302.732 419.546C303.296 419.546 303.77 419.318 304.154 418.862C304.538 418.394 304.73 417.782 304.73 417.026C304.73 416.282 304.55 415.694 304.19 415.262C303.842 414.818 303.314 414.596 302.606 414.596ZM302.732 420.716C301.988 420.716 301.316 420.512 300.716 420.104C300.116 419.696 299.642 419.084 299.294 418.268C298.946 417.44 298.772 416.414 298.772 415.19C298.772 413.654 298.976 412.418 299.384 411.482C299.804 410.546 300.344 409.868 301.004 409.448C301.676 409.016 302.39 408.8 303.146 408.8C303.77 408.8 304.304 408.92 304.748 409.16C305.204 409.388 305.594 409.676 305.918 410.024L305.09 410.942C304.862 410.666 304.58 410.45 304.244 410.294C303.908 410.126 303.56 410.042 303.2 410.042C302.66 410.042 302.168 410.198 301.724 410.51C301.28 410.81 300.914 411.32 300.626 412.04C300.35 412.748 300.2 413.708 300.176 414.92C300.536 414.476 300.956 414.128 301.436 413.876C301.916 413.612 302.39 413.48 302.858 413.48C303.854 413.48 304.646 413.78 305.234 414.38C305.834 414.968 306.134 415.85 306.134 417.026C306.134 417.758 305.978 418.4 305.666 418.952C305.354 419.504 304.94 419.936 304.424 420.248C303.92 420.56 303.356 420.716 302.732 420.716ZM311.769 421.508C310.599 420.086 309.051 418.556 307.773 417.512L308.943 416.486C310.239 417.53 311.859 419.15 312.993 420.464L311.769 421.508ZM328.041 420.5C328.113 419.06 328.263 417.77 328.491 416.63C328.731 415.478 329.079 414.398 329.535 413.39C330.003 412.37 330.615 411.338 331.371 410.294H325.647V409.016H333.045V409.934C332.361 410.798 331.803 411.632 331.371 412.436C330.939 413.228 330.603 414.032 330.363 414.848C330.123 415.652 329.943 416.516 329.823 417.44C329.703 418.364 329.619 419.384 329.571 420.5H328.041ZM336.989 420.5C337.061 419.06 337.211 417.77 337.439 416.63C337.679 415.478 338.027 414.398 338.483 413.39C338.951 412.37 339.563 411.338 340.319 410.294H334.595V409.016H341.993V409.934C341.309 410.798 340.751 411.632 340.319 412.436C339.887 413.228 339.551 414.032 339.311 414.848C339.071 415.652 338.891 416.516 338.771 417.44C338.651 418.364 338.567 419.384 338.519 420.5H336.989ZM347.664 421.508C346.494 420.086 344.946 418.556 343.668 417.512L344.838 416.486C346.134 417.53 347.754 419.15 348.888 420.464L347.664 421.508ZM365.25 420.716C364.53 420.716 363.888 420.584 363.324 420.32C362.76 420.044 362.31 419.666 361.974 419.186C361.65 418.706 361.488 418.166 361.488 417.566C361.488 417.062 361.59 416.618 361.794 416.234C362.01 415.838 362.28 415.496 362.604 415.208C362.94 414.908 363.288 414.662 363.648 414.47V414.398C363.228 414.098 362.856 413.732 362.532 413.3C362.208 412.868 362.046 412.352 362.046 411.752C362.046 411.164 362.19 410.648 362.478 410.204C362.766 409.76 363.156 409.418 363.648 409.178C364.14 408.926 364.692 408.8 365.304 408.8C366.3 408.8 367.086 409.088 367.662 409.664C368.25 410.24 368.544 410.972 368.544 411.86C368.544 412.256 368.46 412.634 368.292 412.994C368.124 413.342 367.92 413.66 367.68 413.948C367.44 414.224 367.2 414.452 366.96 414.632V414.704C367.308 414.896 367.632 415.124 367.932 415.388C368.232 415.652 368.478 415.97 368.67 416.342C368.862 416.702 368.958 417.14 368.958 417.656C368.958 418.22 368.802 418.736 368.49 419.204C368.19 419.672 367.758 420.044 367.194 420.32C366.642 420.584 365.994 420.716 365.25 420.716ZM366.06 414.236C366.444 413.888 366.738 413.522 366.942 413.138C367.158 412.754 367.266 412.352 367.266 411.932C367.266 411.368 367.092 410.888 366.744 410.492C366.396 410.096 365.904 409.898 365.268 409.898C364.74 409.898 364.296 410.066 363.936 410.402C363.588 410.738 363.414 411.188 363.414 411.752C363.414 412.208 363.534 412.586 363.774 412.886C364.026 413.186 364.356 413.444 364.764 413.66C365.172 413.864 365.604 414.056 366.06 414.236ZM365.286 419.618C365.958 419.618 366.498 419.432 366.906 419.06C367.326 418.676 367.536 418.19 367.536 417.602C367.536 417.11 367.392 416.708 367.104 416.396C366.816 416.084 366.432 415.814 365.952 415.586C365.484 415.358 364.974 415.136 364.422 414.92C363.966 415.22 363.582 415.58 363.27 416C362.97 416.42 362.82 416.894 362.82 417.422C362.82 418.058 363.054 418.586 363.522 419.006C364.002 419.414 364.59 419.618 365.286 419.618ZM371.119 420.5V419.276H373.747V410.816H371.659V409.862C372.187 409.766 372.643 409.652 373.027 409.52C373.423 409.376 373.777 409.208 374.089 409.016H375.223V419.276H377.599V420.5H371.119ZM383.559 421.508C382.389 420.086 380.841 418.556 379.563 417.512L380.733 416.486C382.029 417.53 383.649 419.15 384.783 420.464L383.559 421.508ZM398.067 420.5V419.276H400.695V410.816H398.607V409.862C399.135 409.766 399.591 409.652 399.975 409.52C400.371 409.376 400.725 409.208 401.037 409.016H402.171V419.276H404.547V420.5H398.067ZM410.29 414.596C409.918 414.596 409.516 414.716 409.084 414.956C408.652 415.196 408.256 415.58 407.896 416.108C407.992 417.224 408.25 418.076 408.67 418.664C409.102 419.252 409.684 419.546 410.416 419.546C410.98 419.546 411.454 419.318 411.838 418.862C412.222 418.394 412.414 417.782 412.414 417.026C412.414 416.282 412.234 415.694 411.874 415.262C411.526 414.818 410.998 414.596 410.29 414.596ZM410.416 420.716C409.672 420.716 409 420.512 408.4 420.104C407.8 419.696 407.326 419.084 406.978 418.268C406.63 417.44 406.456 416.414 406.456 415.19C406.456 413.654 406.66 412.418 407.068 411.482C407.488 410.546 408.028 409.868 408.688 409.448C409.36 409.016 410.074 408.8 410.83 408.8C411.454 408.8 411.988 408.92 412.432 409.16C412.888 409.388 413.278 409.676 413.602 410.024L412.774 410.942C412.546 410.666 412.264 410.45 411.928 410.294C411.592 410.126 411.244 410.042 410.884 410.042C410.344 410.042 409.852 410.198 409.408 410.51C408.964 410.81 408.598 411.32 408.31 412.04C408.034 412.748 407.884 413.708 407.86 414.92C408.22 414.476 408.64 414.128 409.12 413.876C409.6 413.612 410.074 413.48 410.542 413.48C411.538 413.48 412.33 413.78 412.918 414.38C413.518 414.968 413.818 415.85 413.818 417.026C413.818 417.758 413.662 418.4 413.35 418.952C413.038 419.504 412.624 419.936 412.108 420.248C411.604 420.56 411.04 420.716 410.416 420.716ZM419.039 420.716C418.319 420.716 417.677 420.584 417.113 420.32C416.549 420.044 416.099 419.666 415.763 419.186C415.439 418.706 415.277 418.166 415.277 417.566C415.277 417.062 415.379 416.618 415.583 416.234C415.799 415.838 416.069 415.496 416.393 415.208C416.729 414.908 417.077 414.662 417.437 414.47V414.398C417.017 414.098 416.645 413.732 416.321 413.3C415.997 412.868 415.835 412.352 415.835 411.752C415.835 411.164 415.979 410.648 416.267 410.204C416.555 409.76 416.945 409.418 417.437 409.178C417.929 408.926 418.481 408.8 419.093 408.8C420.089 408.8 420.875 409.088 421.451 409.664C422.039 410.24 422.333 410.972 422.333 411.86C422.333 412.256 422.249 412.634 422.081 412.994C421.913 413.342 421.709 413.66 421.469 413.948C421.229 414.224 420.989 414.452 420.749 414.632V414.704C421.097 414.896 421.421 415.124 421.721 415.388C422.021 415.652 422.267 415.97 422.459 416.342C422.651 416.702 422.747 417.14 422.747 417.656C422.747 418.22 422.591 418.736 422.279 419.204C421.979 419.672 421.547 420.044 420.983 420.32C420.431 420.584 419.783 420.716 419.039 420.716ZM419.849 414.236C420.233 413.888 420.527 413.522 420.731 413.138C420.947 412.754 421.055 412.352 421.055 411.932C421.055 411.368 420.881 410.888 420.533 410.492C420.185 410.096 419.693 409.898 419.057 409.898C418.529 409.898 418.085 410.066 417.725 410.402C417.377 410.738 417.203 411.188 417.203 411.752C417.203 412.208 417.323 412.586 417.563 412.886C417.815 413.186 418.145 413.444 418.553 413.66C418.961 413.864 419.393 414.056 419.849 414.236ZM419.075 419.618C419.747 419.618 420.287 419.432 420.695 419.06C421.115 418.676 421.325 418.19 421.325 417.602C421.325 417.11 421.181 416.708 420.893 416.396C420.605 416.084 420.221 415.814 419.741 415.586C419.273 415.358 418.763 415.136 418.211 414.92C417.755 415.22 417.371 415.58 417.059 416C416.759 416.42 416.609 416.894 416.609 417.422C416.609 418.058 416.843 418.586 417.311 419.006C417.791 419.414 418.379 419.618 419.075 419.618ZM428.4 421.508C427.23 420.086 425.682 418.556 424.404 417.512L425.574 416.486C426.87 417.53 428.49 419.15 429.624 420.464L428.4 421.508ZM445.986 420.716C445.266 420.716 444.624 420.584 444.06 420.32C443.496 420.044 443.046 419.666 442.71 419.186C442.386 418.706 442.224 418.166 442.224 417.566C442.224 417.062 442.326 416.618 442.53 416.234C442.746 415.838 443.016 415.496 443.34 415.208C443.676 414.908 444.024 414.662 444.384 414.47V414.398C443.964 414.098 443.592 413.732 443.268 413.3C442.944 412.868 442.782 412.352 442.782 411.752C442.782 411.164 442.926 410.648 443.214 410.204C443.502 409.76 443.892 409.418 444.384 409.178C444.876 408.926 445.428 408.8 446.04 408.8C447.036 408.8 447.822 409.088 448.398 409.664C448.986 410.24 449.28 410.972 449.28 411.86C449.28 412.256 449.196 412.634 449.028 412.994C448.86 413.342 448.656 413.66 448.416 413.948C448.176 414.224 447.936 414.452 447.696 414.632V414.704C448.044 414.896 448.368 415.124 448.668 415.388C448.968 415.652 449.214 415.97 449.406 416.342C449.598 416.702 449.694 417.14 449.694 417.656C449.694 418.22 449.538 418.736 449.226 419.204C448.926 419.672 448.494 420.044 447.93 420.32C447.378 420.584 446.73 420.716 445.986 420.716ZM446.796 414.236C447.18 413.888 447.474 413.522 447.678 413.138C447.894 412.754 448.002 412.352 448.002 411.932C448.002 411.368 447.828 410.888 447.48 410.492C447.132 410.096 446.64 409.898 446.004 409.898C445.476 409.898 445.032 410.066 444.672 410.402C444.324 410.738 444.15 411.188 444.15 411.752C444.15 412.208 444.27 412.586 444.51 412.886C444.762 413.186 445.092 413.444 445.5 413.66C445.908 413.864 446.34 414.056 446.796 414.236ZM446.022 419.618C446.694 419.618 447.234 419.432 447.642 419.06C448.062 418.676 448.272 418.19 448.272 417.602C448.272 417.11 448.128 416.708 447.84 416.396C447.552 416.084 447.168 415.814 446.688 415.586C446.22 415.358 445.71 415.136 445.158 414.92C444.702 415.22 444.318 415.58 444.006 416C443.706 416.42 443.556 416.894 443.556 417.422C443.556 418.058 443.79 418.586 444.258 419.006C444.738 419.414 445.326 419.618 446.022 419.618ZM454.646 420.716C453.734 420.716 452.978 420.554 452.378 420.23C451.778 419.906 451.28 419.546 450.884 419.15L451.604 418.178C451.952 418.514 452.354 418.82 452.81 419.096C453.266 419.36 453.83 419.492 454.502 419.492C455.21 419.492 455.804 419.258 456.284 418.79C456.776 418.31 457.022 417.668 457.022 416.864C457.022 416.072 456.8 415.454 456.356 415.01C455.912 414.566 455.318 414.344 454.574 414.344C454.178 414.344 453.836 414.404 453.548 414.524C453.272 414.644 452.96 414.818 452.612 415.046L451.82 414.542L452.198 409.016H457.94V410.294H453.494L453.188 413.696C453.464 413.552 453.74 413.438 454.016 413.354C454.292 413.27 454.604 413.228 454.952 413.228C455.612 413.228 456.206 413.36 456.734 413.624C457.274 413.876 457.706 414.266 458.03 414.794C458.354 415.322 458.516 416 458.516 416.828C458.516 417.656 458.33 418.364 457.958 418.952C457.598 419.528 457.124 419.966 456.536 420.266C455.948 420.566 455.318 420.716 454.646 420.716ZM463.863 420.716C462.711 420.716 461.805 420.2 461.145 419.168C460.497 418.124 460.173 416.642 460.173 414.722C460.173 412.79 460.497 411.32 461.145 410.312C461.805 409.304 462.711 408.8 463.863 408.8C465.003 408.8 465.897 409.304 466.545 410.312C467.205 411.32 467.535 412.79 467.535 414.722C467.535 416.642 467.205 418.124 466.545 419.168C465.897 420.2 465.003 420.716 463.863 420.716ZM463.863 419.528C464.535 419.528 465.075 419.15 465.483 418.394C465.891 417.626 466.095 416.402 466.095 414.722C466.095 413.042 465.891 411.836 465.483 411.104C465.075 410.36 464.535 409.988 463.863 409.988C463.191 409.988 462.645 410.36 462.225 411.104C461.817 411.836 461.613 413.042 461.613 414.722C461.613 416.402 461.817 417.626 462.225 418.394C462.645 419.15 463.191 419.528 463.863 419.528ZM472.576 420.716C471.664 420.716 470.902 420.554 470.29 420.23C469.678 419.894 469.18 419.516 468.796 419.096L469.552 418.124C469.9 418.484 470.308 418.802 470.776 419.078C471.244 419.354 471.814 419.492 472.486 419.492C473.182 419.492 473.752 419.3 474.196 418.916C474.64 418.532 474.862 418.022 474.862 417.386C474.862 416.93 474.742 416.534 474.502 416.198C474.274 415.85 473.89 415.58 473.35 415.388C472.822 415.196 472.102 415.1 471.19 415.1V413.966C472.006 413.966 472.648 413.87 473.116 413.678C473.596 413.486 473.938 413.228 474.142 412.904C474.346 412.58 474.448 412.22 474.448 411.824C474.448 411.26 474.268 410.816 473.908 410.492C473.56 410.168 473.08 410.006 472.468 410.006C471.988 410.006 471.544 410.114 471.136 410.33C470.74 410.546 470.368 410.828 470.02 411.176L469.228 410.24C469.672 409.82 470.164 409.478 470.704 409.214C471.244 408.938 471.85 408.8 472.522 408.8C473.518 408.8 474.34 409.058 474.988 409.574C475.636 410.078 475.96 410.792 475.96 411.716C475.96 412.412 475.768 412.982 475.384 413.426C475 413.87 474.496 414.212 473.872 414.452V414.524C474.568 414.68 475.156 415.01 475.636 415.514C476.116 416.006 476.356 416.648 476.356 417.44C476.356 418.112 476.188 418.694 475.852 419.186C475.516 419.678 475.06 420.056 474.484 420.32C473.92 420.584 473.284 420.716 472.576 420.716Z" fill="white"/>
<path d="M143.874 38.4453L143.875 19.4453C143.875 18.0786 144.177 16.887 144.782 15.8703C145.387 14.8536 146.318 14.0203 147.575 13.3703C148.832 12.7203 150.423 12.237 152.349 11.9203C154.274 11.6036 156.542 11.4453 159.152 11.4453C161.889 11.4453 164.22 11.5953 166.146 11.8953C168.071 12.1953 169.646 12.6703 170.872 13.3203C172.097 13.9703 172.996 14.7953 173.569 15.7953C174.142 16.7953 174.428 18.012 174.428 19.4453L174.427 38.4453C174.427 40.412 173.783 42.0703 172.494 43.4203C171.205 44.7703 169.621 45.4453 167.744 45.4453L170.608 48.4453L170.608 49.4453H167.266L163.447 45.4453H154.854L151.035 49.4453H147.693L147.693 48.4453L150.557 45.4453C148.68 45.4453 147.096 44.7703 145.807 43.4203C144.518 42.0703 143.874 40.412 143.874 38.4453ZM159.152 14.4453C155.332 14.4453 152.579 14.7036 150.893 15.2203C149.206 15.737 147.996 16.4786 147.264 17.4453H171.182C170.609 16.5453 169.392 15.8203 167.53 15.2703C165.668 14.7203 162.875 14.4453 159.152 14.4453ZM146.739 28.1953H157.91L157.91 20.4453H146.739L146.739 28.1953ZM167.744 31.1953H146.739H171.563H167.744ZM160.774 28.1953H171.563L171.564 20.4453H160.774L160.774 28.1953ZM152.228 39.6953C152.96 39.6953 153.581 39.4286 154.09 38.8953C154.6 38.362 154.854 37.712 154.854 36.9453C154.854 36.1786 154.6 35.5286 154.09 34.9953C153.581 34.462 152.961 34.1953 152.229 34.1953C151.497 34.1953 150.876 34.462 150.367 34.9953C149.858 35.5286 149.603 36.1786 149.603 36.9453C149.603 37.712 149.857 38.362 150.367 38.8953C150.876 39.4286 151.496 39.6953 152.228 39.6953ZM166.073 39.6953C166.805 39.6953 167.426 39.4286 167.935 38.8953C168.444 38.362 168.699 37.712 168.699 36.9453C168.699 36.1786 168.444 35.5286 167.935 34.9953C167.426 34.462 166.805 34.1953 166.073 34.1953C165.341 34.1953 164.72 34.462 164.211 34.9953C163.702 35.5286 163.447 36.1786 163.447 36.9453C163.447 37.712 163.702 38.362 164.211 38.8953C164.72 39.4286 165.341 39.6953 166.073 39.6953ZM150.557 42.6953H167.744C168.826 42.6953 169.733 42.2787 170.465 41.4453C171.197 40.612 171.563 39.612 171.563 38.4453L171.563 31.1953H146.739L146.738 38.4453C146.738 39.612 147.104 40.612 147.836 41.4453C148.568 42.2787 149.475 42.6953 150.557 42.6953ZM159.151 17.4453H171.182H147.264H159.151Z" fill="#C078E4"/>
<path d="M194.604 36.834H204.738L204.74 38.148H194.606L194.604 36.834ZM193.982 31.272H205.448L205.461 38.904H204.039L204.028 32.568H195.352L195.363 38.94H193.995L193.982 31.272ZM197.584 22.326L199.061 22.848C197.985 24.936 196.477 27.42 195.274 29.004L194.103 28.5C195.288 26.898 196.759 24.252 197.584 22.326ZM201.909 25.242L202.97 24.45C204.808 25.908 206.936 28.032 207.875 29.526L206.724 30.426C205.822 28.932 203.766 26.754 201.909 25.242ZM191.852 27.906C195.272 27.816 200.815 27.582 205.945 27.348L205.875 28.644C200.818 28.914 195.382 29.148 191.944 29.292L191.852 27.906ZM215.821 24H220.969L220.971 25.08H215.823L215.821 24ZM215.656 32.73H221.164L221.166 33.648H215.658L215.656 32.73ZM215.948 34.674H220.952L220.953 35.556H215.949L215.948 34.674ZM215.16 26.646H226.014L226.016 27.762H215.162L215.16 26.646ZM217.816 22.38H219.04L219.049 27.168H217.825L217.816 22.38ZM216.893 29.508L216.895 30.984H219.901L219.899 29.508H216.893ZM215.865 28.59H220.959L220.965 31.902H215.871L215.865 28.59ZM223.308 23.208L224.315 22.758C224.982 23.622 225.704 24.792 225.994 25.566L224.915 26.088C224.661 25.314 223.975 24.108 223.308 23.208ZM215.124 37.014C216.654 36.906 218.885 36.708 221.117 36.492L221.137 37.482C219.013 37.716 216.889 37.932 215.27 38.094L215.124 37.014ZM224.543 29.454L225.713 29.706C224.676 33.756 222.738 36.942 220.023 38.976C219.825 38.742 219.356 38.31 219.086 38.094C221.801 36.258 223.595 33.216 224.543 29.454ZM217.817 32.982H219.005L219.012 37.068L217.824 37.176L217.817 32.982ZM221.488 22.38H222.784C222.695 32.91 223.531 37.698 224.683 37.698C225.007 37.698 225.186 37.104 225.254 35.034C225.525 35.304 225.921 35.592 226.21 35.682C226.052 38.454 225.603 38.94 224.559 38.958C222.165 38.958 221.615 33.216 221.488 22.38ZM209.418 37.194C210.966 36.924 213.305 36.474 215.572 36.006L215.682 37.158C213.577 37.608 211.382 38.058 209.726 38.4L209.418 37.194ZM210.336 26.862H214.998L215 27.996H210.338L210.336 26.862ZM209.603 29.904H215.363L215.365 31.074H209.605L209.603 29.904ZM209.914 32.28L210.777 32.082C211.139 33.162 211.394 34.566 211.449 35.484L210.514 35.718C210.476 34.782 210.221 33.36 209.914 32.28ZM214.341 31.884L215.277 32.082C215.027 33.18 214.759 34.476 214.509 35.322L213.681 35.124C213.913 34.26 214.217 32.82 214.341 31.884ZM212.083 27.366H213.217L213.234 36.942L212.1 37.104L212.083 27.366ZM212.182 22.398H212.884L212.885 22.686H213.263L213.263 23.028C212.618 24.414 211.541 26.322 209.852 27.906C209.671 27.636 209.275 27.24 209.004 27.06C210.55 25.692 211.627 23.838 212.182 22.398ZM212.344 22.398H213.298C214.272 23.37 215.426 24.756 215.95 25.656L215.07 26.628C214.546 25.728 213.481 24.198 212.562 23.28H212.346L212.344 22.398Z" fill="#F8F9FB"/>
<path d="M121.93 130L121.883 103.3C121.878 100.567 122.55 98.1667 123.899 96.1C125.248 94.0333 127.131 92.5 129.548 91.5C131.329 90.8 133.222 90.375 135.226 90.225C137.231 90.075 139.141 90 140.955 90C142.769 90 144.686 90.075 146.707 90.225C148.729 90.375 150.631 90.8 152.414 91.5C154.835 92.5 156.715 94.0333 158.056 96.1C159.396 98.1667 160.068 100.567 160.073 103.3L160.12 130H121.93ZM134.67 127H147.369L143.495 122.95H138.53L134.67 127ZM131.685 112.6H150.303L150.288 103.85H131.67L131.685 112.6ZM147.689 118.95C148.216 118.95 148.658 118.763 149.014 118.389C149.37 118.016 149.548 117.552 149.547 117C149.546 116.447 149.367 115.984 149.009 115.611C148.652 115.237 148.209 115.05 147.682 115.05C147.154 115.05 146.713 115.237 146.356 115.611C146 115.984 145.823 116.447 145.824 117C145.824 117.552 146.004 118.016 146.361 118.389C146.719 118.763 147.161 118.95 147.689 118.95ZM134.322 118.95C134.85 118.95 135.291 118.763 135.648 118.389C136.004 118.016 136.181 117.552 136.18 117C136.179 116.447 136 115.984 135.643 115.611C135.285 115.237 134.843 115.05 134.315 115.05C133.788 115.05 133.346 115.237 132.99 115.611C132.633 115.984 132.456 116.447 132.457 117C132.458 117.552 132.637 118.016 132.995 118.389C133.352 118.763 133.795 118.95 134.322 118.95ZM124.789 127H132.379L132.377 126L135.284 122.95C134.074 122.95 132.817 122.458 131.51 121.475C130.203 120.492 129.548 119 129.545 117L129.522 103.85C129.518 101.45 130.581 99.875 132.712 99.125C134.843 98.375 137.595 98 140.969 98C143.833 98 146.459 98.375 148.847 99.125C151.236 99.875 152.432 101.45 152.436 103.85L152.459 117C152.462 118.867 151.884 120.325 150.724 121.375C149.565 122.425 148.237 122.95 146.741 122.95L149.658 126L149.66 127H157.25L157.209 103.3C157.205 101.1 156.701 99.275 155.695 97.825C154.69 96.375 153.194 95.2187 151.205 94.3562C149.722 93.7187 148.076 93.3333 146.267 93.2C144.459 93.0667 142.692 93 140.968 93C139.244 93 137.483 93.0667 135.685 93.2C133.887 93.3333 132.248 93.7187 130.767 94.3562C128.782 95.2187 127.281 96.375 126.265 97.825C125.249 99.275 124.743 101.1 124.747 103.3L124.789 127Z" fill="#C078E4"/>
<path d="M179.525 106L179.527 107.098H190.039L190.037 106H179.525ZM184.708 115.99L184.71 117.106H189.372L189.37 115.99H184.708ZM179.299 110.752L179.301 111.85H190.497L190.495 110.752H179.299ZM180.321 108.322L180.323 109.402H187.937L187.943 113.344H180.329L180.331 114.424H189.205L189.195 108.322H180.321ZM184.004 104.38L184.03 119.392L185.291 120.04L185.264 104.38H184.004ZM180.53 114.73C180.228 117.07 179.457 119.014 178.056 120.256C178.362 120.418 178.885 120.796 179.101 121.012C180.52 119.626 181.399 117.502 181.79 114.892L180.53 114.73ZM181.307 116.35L180.317 116.764C181.565 120.022 183.619 120.796 186.931 120.796H190.081C190.134 120.454 190.313 119.896 190.492 119.608C189.88 119.608 187.396 119.608 186.982 119.608C184.246 119.608 182.283 119.014 181.307 116.35ZM173.562 113.722L173.924 115.036C175.454 114.55 177.432 113.902 179.303 113.254L179.121 112.012C177.07 112.678 174.965 113.326 173.562 113.722ZM173.804 108.016L173.806 109.276H179.278L179.276 108.016H173.804ZM176.066 104.398L176.092 119.374C176.093 119.644 175.985 119.698 175.769 119.698C175.553 119.716 174.869 119.716 174.077 119.698C174.257 120.076 174.42 120.634 174.475 120.958C175.609 120.958 176.311 120.922 176.724 120.706C177.174 120.49 177.353 120.13 177.352 119.374L177.326 104.398H176.066ZM195.482 111.49H191.9L191.902 112.75H194.188L194.197 117.862H195.493L195.482 111.49ZM195.492 117.322H194.322C193.478 118.096 192.507 118.906 191.716 119.482L192.421 120.796C193.319 120.004 194.146 119.23 194.936 118.456C196.055 119.878 197.694 120.508 200.07 120.598C202.086 120.688 205.938 120.652 207.972 120.562C208.025 120.166 208.24 119.536 208.402 119.23C206.224 119.374 202.066 119.428 200.068 119.338C197.926 119.266 196.341 118.654 195.492 117.322ZM192.052 105.586C193.151 106.468 194.396 107.728 194.901 108.628L196.016 107.782C195.456 106.9 194.194 105.658 193.077 104.848L192.052 105.586ZM201.521 106.486L201.543 118.852H202.839L202.817 106.486H201.521ZM198.779 112.858H205.637L205.639 114.082H198.781L198.779 112.858ZM198.775 110.788H205.633L205.635 111.976H198.777L198.775 110.788ZM197.603 109.87L197.612 115H206.864L206.855 109.87H197.603ZM196.641 105.028L196.645 107.368H197.851L197.849 106.054H206.543L206.545 107.368H207.805L207.801 105.028H196.641ZM197.024 107.764L197.025 108.772H207.375L207.374 107.764H197.024ZM196.354 116.08L196.356 117.142H208.146L208.144 116.08H196.354Z" fill="#F8F9FB"/>
<defs>
<clipPath id="clip0_6907_5817">
<rect width="47.0572" height="48" fill="white" transform="translate(614.906 94.9365)"/>
</clipPath>
<clipPath id="clip1_6907_5817">
<rect width="47.0572" height="48" fill="white" transform="translate(523.727 273)"/>
</clipPath>
</defs>
</svg>
