<svg width="279" height="736" viewBox="0 0 279 736" fill="none" xmlns="http://www.w3.org/2000/svg">
<rect y="661" width="278.975" height="75" rx="10" fill="#E099E1"/>
<path d="M70.8444 695.726H78.0984V696.818H70.8444V695.726ZM76.0704 695.024L76.7594 694.348C77.2014 694.556 77.7344 694.894 77.9944 695.18L77.2794 695.921C77.0194 695.635 76.4994 695.271 76.0704 695.024ZM76.6034 697.182L77.8124 697.416C77.1624 699.717 75.9014 701.485 74.1984 702.577C74.0424 702.343 73.6134 701.849 73.3534 701.641C74.9784 700.718 76.0964 699.171 76.6034 697.182ZM70.7014 700.692C71.6504 700.588 73.0154 700.419 74.3804 700.237L74.4194 701.277C73.1584 701.472 71.8844 701.667 70.8444 701.823L70.7014 700.692ZM72.1834 698.209V699.041H73.0544V698.209H72.1834ZM71.1824 697.377H74.0944V699.86H71.1824V697.377ZM74.3284 694.608H75.6284C75.7194 697.845 76.1614 700.9 77.0194 701.108C77.1624 701.147 77.2664 700.64 77.3314 699.873C77.5654 700.12 78.0334 700.484 78.2934 700.614C78.0984 702.226 77.3964 702.72 76.5384 702.33C74.9134 701.81 74.5234 698.352 74.3284 694.608ZM68.9074 693.022H80.0484V704.709H78.5014V694.426H70.3764V704.709H68.9074V693.022ZM69.8304 702.772H79.3464V704.163H69.8304V702.772ZM81.9984 694.738H93.0224V696.272H81.9984V694.738ZM81.5694 702.603H93.4124V704.163H81.5694V702.603ZM86.6394 692.463H88.2774V695.596H86.6394V692.463ZM89.5774 696.727L91.3714 697.039C90.8644 699.184 90.1624 701.563 89.5514 703.097L88.0304 702.759C88.6414 701.173 89.2784 698.651 89.5774 696.727ZM83.6754 697.156L85.1574 696.766C85.7814 698.378 86.2624 700.393 86.3924 701.771L84.7934 702.2C84.7024 700.848 84.2344 698.742 83.6754 697.156ZM96.3764 693.672H97.8974V704.657H96.3764V693.672ZM94.4004 696.116H99.6134V697.572H94.4004V696.116ZM96.4674 696.701L97.3774 697.104C96.8834 698.963 95.9604 701.277 94.9594 702.564C94.8164 702.109 94.4784 701.459 94.2314 701.069C95.1414 700.029 96.0514 698.144 96.4674 696.701ZM98.7034 692.58L99.5744 693.854C98.2224 694.348 96.4414 694.673 94.9204 694.855C94.8554 694.504 94.6604 693.984 94.5044 693.646C95.9864 693.425 97.6244 693.022 98.7034 692.58ZM97.8584 697.637C98.1834 697.949 99.3274 699.249 99.5874 699.574L98.6774 700.796C98.3784 700.133 97.5724 698.82 97.1824 698.261L97.8584 697.637ZM103.578 692.45H105.112V704.657H103.578V692.45ZM99.3924 700.835L106.412 699.626L106.646 701.095L99.6264 702.33L99.3924 700.835ZM100.237 694.127L101.251 693.243C101.966 693.776 102.863 694.556 103.266 695.115L102.174 696.09C101.81 695.531 100.952 694.699 100.237 694.127ZM99.7564 697.546L100.744 696.649C101.498 697.182 102.46 697.975 102.902 698.547L101.836 699.548C101.42 698.976 100.51 698.118 99.7564 697.546ZM107.803 701.043H119.178V702.278H107.803V701.043ZM110.104 698.82H115.642V699.925H110.104V698.82ZM112.704 700.445H114.238V703.227C114.238 703.929 114.095 704.28 113.549 704.475C113.029 704.67 112.301 704.683 111.313 704.683C111.235 704.267 111.027 703.721 110.832 703.37C111.456 703.396 112.236 703.383 112.431 703.383C112.639 703.37 112.704 703.331 112.704 703.175V700.445ZM115.278 698.82H115.655L115.98 698.742L116.851 699.535C115.993 700.224 114.836 700.965 113.796 701.472C113.627 701.238 113.276 700.861 113.094 700.679C113.874 700.289 114.836 699.561 115.278 699.08V698.82ZM107.79 697.143H119.204V699.821H117.657V698.274H109.272V699.821H107.79V697.143ZM108.544 693.035L110.364 693.399C110.338 693.503 110.234 693.568 110.026 693.607L110.26 697.637H108.817L108.544 693.035ZM117.033 692.892H118.515C118.437 694.491 118.307 696.467 118.164 697.702H116.669C116.838 696.428 116.981 694.452 117.033 692.892ZM115.2 692.892H117.605V693.867H115.2V692.892ZM111.17 692.528L111.898 693.36C111.183 693.711 110.195 693.984 109.506 694.153L108.882 693.347C109.571 693.191 110.572 692.788 111.17 692.528ZM109.363 694.309H111.807V695.271H109.363V694.309ZM109.402 695.726H111.833V696.688H109.402V695.726ZM115.252 694.309H117.449V695.271H115.252V694.309ZM115.213 695.726H117.41V696.688H115.213V695.726ZM113.926 692.541L114.927 692.84C114.342 693.633 113.367 694.374 112.483 694.842C112.314 694.647 111.911 694.309 111.664 694.14C112.561 693.75 113.432 693.178 113.926 692.541ZM111.989 693.217L112.691 692.632C113.458 692.996 114.42 693.607 114.901 694.062L114.16 694.712C113.705 694.27 112.756 693.633 111.989 693.217ZM113.978 694.725L115.005 695.024C114.407 695.869 113.393 696.649 112.483 697.13C112.301 696.948 111.898 696.597 111.651 696.428C112.574 696.012 113.484 695.401 113.978 694.725ZM112.028 695.44L112.743 694.842C113.523 695.232 114.524 695.869 115.031 696.337L114.251 697C113.796 696.532 112.821 695.869 112.028 695.44ZM121.284 693.815H131.71V695.44H121.284V693.815ZM120.556 702.2H132.451V703.773H120.556V702.2ZM125.535 694.699H127.316V702.824H125.535V694.699ZM133.673 693.165H145.321V694.257H133.673V693.165ZM133.608 701.836H145.321V702.72H133.608V701.836ZM134.414 695.024H138.899V695.791H134.414V695.024ZM139.731 695.583H143.527V696.675H139.731V695.583ZM135.246 700.536H143.8V701.42H135.246V700.536ZM134.323 698.261H139.016V699.028H134.323V698.261ZM133.816 696.155H139.497V696.948H133.816V696.155ZM136.559 692.45H138.067V694.66H136.559V692.45ZM136 694.699H137.3V696.701H136V694.699ZM136.013 697.624H137.313V699.873H136.013V697.624ZM140.849 692.45H142.383V694.66H140.849V692.45ZM134.349 703.604C136.546 703.539 140.121 703.396 143.462 703.24L143.436 704.124C140.238 704.332 136.806 704.527 134.505 704.631L134.349 703.604ZM133.751 699.548C135.181 699.496 137.352 699.405 139.458 699.288V700.081C137.404 700.224 135.311 700.354 133.803 700.432L133.751 699.548ZM135.194 696.571H136.143C136.013 697.507 135.532 698.014 134.037 698.287C133.959 698.066 133.725 697.728 133.53 697.572C134.752 697.429 135.103 697.169 135.194 696.571ZM142.89 695.583H144.125V698.69C144.125 698.924 144.125 699.054 144.151 699.093C144.177 699.145 144.216 699.158 144.268 699.158C144.32 699.158 144.385 699.158 144.424 699.158C144.489 699.158 144.541 699.145 144.58 699.119C144.619 699.093 144.645 699.015 144.658 698.872C144.684 698.729 144.697 698.391 144.71 697.988C144.918 698.17 145.282 698.339 145.568 698.443C145.542 698.898 145.503 699.431 145.412 699.626C145.347 699.834 145.217 699.977 145.048 700.068C144.905 700.172 144.658 700.211 144.463 700.211C144.294 700.211 144.06 700.211 143.917 700.211C143.644 700.211 143.345 700.12 143.15 699.925C142.968 699.73 142.89 699.483 142.89 698.716V695.583ZM141.005 702.967L142.058 702.369C143.059 702.798 144.229 703.552 144.866 704.098L143.787 704.774C143.189 704.202 142.006 703.422 141.005 702.967ZM136.962 696.597H137.885V697.117C137.885 697.338 137.911 697.364 138.067 697.364C138.145 697.364 138.457 697.364 138.548 697.364C138.704 697.364 138.756 697.312 138.782 697.026C138.951 697.13 139.276 697.234 139.523 697.286C139.445 697.845 139.198 698.027 138.691 698.027C138.535 698.027 138.093 698.027 137.937 698.027C137.144 698.027 136.962 697.832 136.962 697.117V696.597ZM136.871 702.148L138.249 702.538C137.833 703.097 137.417 703.63 137.092 703.994L136.026 703.643C136.325 703.214 136.676 702.577 136.871 702.148ZM139.432 697.663L140.108 696.805C141.122 697.195 142.396 697.871 143.033 698.417L142.318 699.366C141.707 698.82 140.459 698.092 139.432 697.663ZM141.057 694.79H142.214V696.064C142.214 697.429 141.941 699.21 139.978 700.471C139.783 700.224 139.38 699.86 139.081 699.652C140.823 698.534 141.057 697.078 141.057 696.025V694.79ZM150.378 693.854H158.503V695.063H150.378V693.854ZM150.131 700.367H158.62V701.615H150.131V700.367ZM146.374 695.726H150.625V697.143H146.374V695.726ZM147.791 692.463H149.312V704.67H147.791V692.463ZM153.68 692.463H155.175V699.21H153.68V692.463ZM155.253 699.522H156.735V703.253C156.735 703.929 156.605 704.267 156.137 704.475C155.656 704.67 155.019 704.683 154.148 704.683C154.083 704.293 153.901 703.76 153.719 703.396C154.239 703.409 154.85 703.409 155.019 703.409C155.201 703.409 155.253 703.37 155.253 703.214V699.522ZM151.275 702.161L152.328 701.407C152.9 701.875 153.615 702.564 153.953 703.045L152.835 703.89C152.549 703.396 151.86 702.668 151.275 702.161ZM155.604 693.23L156.28 692.424C156.852 692.671 157.619 693.1 158.009 693.386L157.294 694.283C156.917 693.971 156.176 693.516 155.604 693.23ZM152.367 698.144V698.768H156.579V698.144H152.367ZM152.367 696.61V697.208H156.579V696.61H152.367ZM150.989 695.596H158.022V699.769H150.989V695.596ZM165.692 692.463L167.096 692.736C166.628 694.894 165.77 696.961 164.717 698.261C164.47 698.027 163.859 697.585 163.534 697.39C164.574 696.246 165.302 694.387 165.692 692.463ZM170.06 694.491H171.529C171.529 694.491 171.516 694.998 171.503 695.193C171.256 701.03 171.022 703.162 170.528 703.812C170.229 704.254 169.943 704.41 169.514 704.488C169.15 704.566 168.604 704.566 168.032 704.54C167.993 704.098 167.837 703.435 167.603 703.006C168.084 703.058 168.526 703.071 168.773 703.071C168.968 703.071 169.085 703.006 169.241 702.824C169.605 702.369 169.852 700.354 170.06 694.829V694.491ZM166.082 694.491H170.723V695.934H165.367L166.082 694.491ZM166.992 694.959L168.123 695.518C167.603 697.754 166.459 700.328 165.042 701.654C164.743 701.355 164.249 700.991 163.846 700.77C165.354 699.587 166.498 697.143 166.992 694.959ZM168.799 695.102L170.008 695.661C169.384 699.041 168.006 702.577 165.861 704.371C165.562 704.059 165.016 703.669 164.587 703.461C166.862 701.836 168.201 698.443 168.799 695.102ZM159.322 699.548C160.596 699.262 162.494 698.729 164.288 698.222L164.496 699.6C162.858 700.107 161.077 700.64 159.699 701.043L159.322 699.548ZM161.662 692.463H163.092V704.67H161.662V692.463ZM159.946 693.204L161.246 693.425C161.077 695.141 160.765 696.961 160.297 698.118C160.063 697.936 159.504 697.572 159.192 697.416C159.608 696.376 159.829 694.751 159.946 693.204ZM160.297 694.972H164.171V696.467H160.011L160.297 694.972ZM179.251 702.759H183.567V704.072H179.251V702.759ZM178.64 696.012H180.044V704.67H178.64V696.012ZM179.251 696.012H183.593V699.535H179.251V698.3H182.163V697.247H179.251V696.012ZM177.899 693.841H184.438V696.272H182.982V695.089H179.29V696.272H177.899V693.841ZM180.33 692.45H181.851V694.465H180.33V692.45ZM179.251 700.354H184.152V704.605H182.709V701.628H179.251V700.354ZM174.87 694.933H176.157V696.558H174.87V694.933ZM173.167 696.012H174.545V703.24H173.167V696.012ZM174.064 697.754H176.885V698.755H174.064V697.754ZM172.374 702.85C173.479 702.642 175.169 702.265 176.781 701.901L176.924 703.123C175.507 703.539 173.986 703.955 172.803 704.28L172.374 702.85ZM175.416 701.186L176.638 700.666C177.275 701.602 177.912 702.85 178.146 703.695L176.82 704.293C176.612 703.461 176.014 702.161 175.416 701.186ZM173.934 696.012H177.509V700.536H173.934V699.418H176.144V697.13H173.934V696.012ZM174.493 692.463H175.338V692.749H175.78V693.178C175.26 694.166 174.428 695.518 173.063 696.662C172.868 696.337 172.426 695.843 172.114 695.635C173.284 694.712 174.064 693.49 174.493 692.463ZM174.87 692.463H175.91C176.69 693.087 177.613 693.984 178.042 694.647L177.054 695.804C176.69 695.154 175.845 694.088 175.117 693.529H174.87V692.463ZM185.712 693.542H197.256V694.998H185.712V693.542ZM188.559 699.132H194.383V700.341H188.559V699.132ZM188.286 701.199H194.669V702.447H188.286V701.199ZM190.691 699.717H192.173V704.293H190.691V699.717ZM186.193 695.973H195.605V697.403H187.766V704.644H186.193V695.973ZM195.163 695.973H196.775V703.084C196.775 703.838 196.593 704.189 196.06 704.41C195.54 704.631 194.773 704.644 193.72 704.644C193.642 704.241 193.408 703.669 193.2 703.318C193.837 703.357 194.656 703.357 194.864 703.344C195.098 703.331 195.163 703.266 195.163 703.071V695.973ZM189.053 697.754L190.301 697.39C190.6 697.806 190.899 698.404 191.042 698.794L189.742 699.236C189.625 698.82 189.326 698.209 189.053 697.754ZM192.719 697.416L194.045 697.78C193.694 698.404 193.343 699.015 193.044 699.431L191.939 699.106C192.212 698.625 192.55 697.91 192.719 697.416ZM190.639 692.541H192.355V696.974H190.639V692.541ZM205.251 702.759H209.567V704.072H205.251V702.759ZM204.64 696.012H206.044V704.67H204.64V696.012ZM205.251 696.012H209.593V699.535H205.251V698.3H208.163V697.247H205.251V696.012ZM203.899 693.841H210.438V696.272H208.982V695.089H205.29V696.272H203.899V693.841ZM206.33 692.45H207.851V694.465H206.33V692.45ZM205.251 700.354H210.152V704.605H208.709V701.628H205.251V700.354ZM200.87 694.933H202.157V696.558H200.87V694.933ZM199.167 696.012H200.545V703.24H199.167V696.012ZM200.064 697.754H202.885V698.755H200.064V697.754ZM198.374 702.85C199.479 702.642 201.169 702.265 202.781 701.901L202.924 703.123C201.507 703.539 199.986 703.955 198.803 704.28L198.374 702.85ZM201.416 701.186L202.638 700.666C203.275 701.602 203.912 702.85 204.146 703.695L202.82 704.293C202.612 703.461 202.014 702.161 201.416 701.186ZM199.934 696.012H203.509V700.536H199.934V699.418H202.144V697.13H199.934V696.012ZM200.493 692.463H201.338V692.749H201.78V693.178C201.26 694.166 200.428 695.518 199.063 696.662C198.868 696.337 198.426 695.843 198.114 695.635C199.284 694.712 200.064 693.49 200.493 692.463ZM200.87 692.463H201.91C202.69 693.087 203.613 693.984 204.042 694.647L203.054 695.804C202.69 695.154 201.845 694.088 201.117 693.529H200.87V692.463Z" fill="#121023"/>
<rect x="170.484" y="466" width="108.49" height="52" rx="10" fill="#E099E1"/>
<path d="M182.074 496.129H189.25V497.637H182.074V496.129ZM181.372 492.398H190.069V498.157H188.392V493.893H182.971V498.157H181.372V492.398ZM183.92 485.859L185.701 486.444C184.856 488.056 183.751 489.798 182.867 490.929L181.463 490.37C182.334 489.187 183.361 487.315 183.92 485.859ZM187.04 488.186L188.275 487.276C189.562 488.316 191.122 489.824 191.798 490.942L190.433 491.982C189.822 490.89 188.34 489.304 187.04 488.186ZM179.994 489.642C182.62 489.577 186.65 489.421 190.225 489.265L190.147 490.773C186.546 490.968 182.646 491.124 180.085 491.228L179.994 489.642ZM197.375 486.964H201.002V488.147H197.375V486.964ZM197.232 493.438H201.106V494.4H197.232V493.438ZM197.414 494.855H200.963V495.752H197.414V494.855ZM196.933 488.888H204.85V490.123H196.933V488.888ZM198.519 485.963H199.897V489.486H198.519V485.963ZM198.467 491.488V492.086H199.832V491.488H198.467ZM197.349 490.539H201.002V493.022H197.349V490.539ZM202.731 486.782L203.862 486.301C204.265 486.899 204.694 487.705 204.863 488.238L203.654 488.784C203.511 488.251 203.121 487.419 202.731 486.782ZM196.816 496.493C197.921 496.415 199.494 496.298 201.067 496.168L201.08 497.247C199.624 497.39 198.142 497.533 196.972 497.637L196.816 496.493ZM203.498 491.163L204.824 491.449C204.044 494.361 202.601 496.714 200.612 498.157C200.404 497.897 199.884 497.39 199.585 497.156C201.535 495.908 202.835 493.789 203.498 491.163ZM198.506 493.711H199.819V496.662L198.506 496.766V493.711ZM201.275 485.963H202.757C202.575 493.035 203.069 496.714 203.667 496.714C203.862 496.714 203.966 496.22 204.018 494.764C204.291 495.063 204.707 495.388 205.032 495.505C204.889 497.767 204.486 498.157 203.524 498.17C201.535 498.17 201.301 493.516 201.275 485.963ZM192.656 496.545C193.787 496.376 195.503 496.077 197.128 495.765L197.245 497.052C195.763 497.351 194.19 497.65 192.968 497.884L192.656 496.545ZM193.306 489.226H196.777V490.487H193.306V489.226ZM192.864 491.423H197.024V492.723H192.864V491.423ZM192.942 493.503L193.852 493.282C194.06 494.01 194.229 494.933 194.281 495.544L193.319 495.791C193.293 495.167 193.124 494.218 192.942 493.503ZM196.127 493.152L197.089 493.373C196.894 494.114 196.712 494.933 196.543 495.479L195.698 495.271C195.854 494.699 196.049 493.776 196.127 493.152ZM194.398 489.746H195.646V496.519L194.398 496.714V489.746ZM194.515 485.963H195.321V486.249H195.75V486.639C195.269 487.64 194.515 488.992 193.267 490.162C193.072 489.85 192.63 489.382 192.344 489.174C193.41 488.238 194.125 486.99 194.515 485.963ZM194.619 485.963H195.659C196.348 486.639 197.193 487.588 197.583 488.264L196.608 489.395C196.27 488.732 195.49 487.588 194.853 486.964H194.619V485.963ZM207.619 487.172H209.14V498.157H207.619V487.172ZM205.643 489.616H210.856V491.072H205.643V489.616ZM207.71 490.201L208.62 490.604C208.126 492.463 207.203 494.777 206.202 496.064C206.059 495.609 205.721 494.959 205.474 494.569C206.384 493.529 207.294 491.644 207.71 490.201ZM209.946 486.08L210.817 487.354C209.465 487.848 207.684 488.173 206.163 488.355C206.098 488.004 205.903 487.484 205.747 487.146C207.229 486.925 208.867 486.522 209.946 486.08ZM209.101 491.137C209.426 491.449 210.57 492.749 210.83 493.074L209.92 494.296C209.621 493.633 208.815 492.32 208.425 491.761L209.101 491.137ZM214.821 485.95H216.355V498.157H214.821V485.95ZM210.635 494.335L217.655 493.126L217.889 494.595L210.869 495.83L210.635 494.335ZM211.48 487.627L212.494 486.743C213.209 487.276 214.106 488.056 214.509 488.615L213.417 489.59C213.053 489.031 212.195 488.199 211.48 487.627ZM210.999 491.046L211.987 490.149C212.741 490.682 213.703 491.475 214.145 492.047L213.079 493.048C212.663 492.476 211.753 491.618 210.999 491.046ZM219.527 487.315H229.953V488.94H219.527V487.315ZM218.799 495.7H230.694V497.273H218.799V495.7ZM223.778 488.199H225.559V496.324H223.778V488.199ZM238.494 496.259H242.81V497.572H238.494V496.259ZM237.883 489.512H239.287V498.17H237.883V489.512ZM238.494 489.512H242.836V493.035H238.494V491.8H241.406V490.747H238.494V489.512ZM237.142 487.341H243.681V489.772H242.225V488.589H238.533V489.772H237.142V487.341ZM239.573 485.95H241.094V487.965H239.573V485.95ZM238.494 493.854H243.395V498.105H241.952V495.128H238.494V493.854ZM234.113 488.433H235.4V490.058H234.113V488.433ZM232.41 489.512H233.788V496.74H232.41V489.512ZM233.307 491.254H236.128V492.255H233.307V491.254ZM231.617 496.35C232.722 496.142 234.412 495.765 236.024 495.401L236.167 496.623C234.75 497.039 233.229 497.455 232.046 497.78L231.617 496.35ZM234.659 494.686L235.881 494.166C236.518 495.102 237.155 496.35 237.389 497.195L236.063 497.793C235.855 496.961 235.257 495.661 234.659 494.686ZM233.177 489.512H236.752V494.036H233.177V492.918H235.387V490.63H233.177V489.512ZM233.736 485.963H234.581V486.249H235.023V486.678C234.503 487.666 233.671 489.018 232.306 490.162C232.111 489.837 231.669 489.343 231.357 489.135C232.527 488.212 233.307 486.99 233.736 485.963ZM234.113 485.963H235.153C235.933 486.587 236.856 487.484 237.285 488.147L236.297 489.304C235.933 488.654 235.088 487.588 234.36 487.029H234.113V485.963ZM245.124 487.029H256.304V488.446H245.124V487.029ZM244.812 495.024H256.694V496.428H244.812V495.024ZM249.869 485.963H251.481V498.183H249.869V485.963ZM247.607 492.268V493.074H253.756V492.268H247.607ZM247.607 490.318V491.111H253.756V490.318H247.607ZM246.112 489.07H255.329V494.322H246.112V489.07ZM257.916 488.381H262.96V489.837H257.916V488.381ZM259.762 486.145H261.218V489.096H259.762V486.145ZM266.028 488.355H269.811V489.837H266.028V488.355ZM263.857 496.09H268.511V497.546H263.857V496.09ZM265.248 485.95H266.86V492.723H265.248V485.95ZM263.168 492.086H269.356V498.105H267.77V493.542H264.676V498.157H263.168V492.086ZM257.63 495.466C258.982 495.232 261.036 494.816 262.947 494.387L263.103 495.83C261.322 496.259 259.398 496.701 257.942 497.026L257.63 495.466ZM258.254 490.448L259.489 490.214C259.814 491.618 260.022 493.373 260.048 494.582L258.709 494.842C258.735 493.659 258.527 491.839 258.254 490.448ZM261.153 490.084L262.674 490.344C262.466 491.995 262.154 493.906 261.881 495.115L260.581 494.855C260.841 493.594 261.088 491.566 261.153 490.084Z" fill="#121023"/>
<path d="M252.25 184L252.25 234" stroke="white" stroke-width="2"/>
<path d="M233.118 149L233.071 122.3C233.066 119.567 233.738 117.167 235.087 115.1C236.436 113.033 238.318 111.5 240.735 110.5C242.516 109.8 244.409 109.375 246.414 109.225C248.419 109.075 250.328 109 252.142 109C253.956 109 255.874 109.075 257.895 109.225C259.916 109.375 261.818 109.8 263.602 110.5C266.022 111.5 267.903 113.033 269.243 115.1C270.584 117.167 271.256 119.567 271.261 122.3L271.309 149H233.118ZM245.859 146H258.557L254.683 141.95H249.719L245.859 146ZM242.874 131.6H261.491L261.476 122.85H242.858L242.874 131.6ZM258.877 137.95C259.405 137.95 259.847 137.763 260.203 137.389C260.559 137.016 260.737 136.552 260.736 136C260.735 135.447 260.555 134.984 260.198 134.611C259.84 134.237 259.398 134.05 258.87 134.05C258.343 134.05 257.901 134.237 257.545 134.611C257.189 134.984 257.011 135.447 257.012 136C257.013 136.552 257.192 137.016 257.55 137.389C257.907 137.763 258.35 137.95 258.877 137.95ZM245.511 137.95C246.038 137.95 246.48 137.763 246.836 137.389C247.192 137.016 247.37 136.552 247.369 136C247.368 135.447 247.189 134.984 246.831 134.611C246.474 134.237 246.031 134.05 245.504 134.05C244.976 134.05 244.534 134.237 244.178 134.611C243.822 134.984 243.644 135.447 243.645 136C243.646 136.552 243.826 137.016 244.183 137.389C244.541 137.763 244.983 137.95 245.511 137.95ZM235.977 146H243.568L243.566 145L246.473 141.95C245.263 141.95 244.005 141.458 242.699 140.475C241.392 139.492 240.737 138 240.733 136L240.71 122.85C240.705 120.45 241.769 118.875 243.9 118.125C246.031 117.375 248.783 117 252.156 117C255.021 117 257.647 117.375 260.035 118.125C262.423 118.875 263.62 120.45 263.624 122.85L263.648 136C263.651 137.867 263.073 139.325 261.913 140.375C260.753 141.425 259.425 141.95 257.93 141.95L260.847 145L260.849 146H268.439L268.397 122.3C268.393 120.1 267.888 118.275 266.883 116.825C265.878 115.375 264.381 114.219 262.393 113.356C260.91 112.719 259.264 112.333 257.455 112.2C255.646 112.067 253.88 112 252.156 112C250.432 112 248.671 112.067 246.873 112.2C245.075 112.333 243.436 112.719 241.955 113.356C239.969 114.219 238.469 115.375 237.453 116.825C236.437 118.275 235.931 120.1 235.935 122.3L235.977 146Z" fill="#C078E4"/>
<path d="M243.933 169.25H251.525V170.043H243.933V169.25ZM247.664 176.465H251.031V177.271H247.664V176.465ZM243.764 172.682H251.85V173.475H243.764V172.682ZM244.505 170.927H250.914V175.334H244.505V174.554H250.004V171.707H244.505V170.927ZM247.17 168.08H248.08V179.39L247.17 178.922V168.08ZM244.648 175.555L245.558 175.672C245.272 177.557 244.635 179.091 243.608 180.092C243.452 179.936 243.075 179.663 242.854 179.546C243.868 178.649 244.427 177.245 244.648 175.555ZM245.207 176.725C245.909 178.649 247.326 179.078 249.302 179.078C249.601 179.078 251.395 179.078 251.837 179.078C251.707 179.286 251.577 179.689 251.538 179.936H249.263C246.871 179.936 245.389 179.377 244.492 177.024L245.207 176.725ZM239.617 174.827C240.631 174.541 242.152 174.073 243.634 173.592L243.764 174.489C242.412 174.957 240.982 175.425 239.877 175.776L239.617 174.827ZM239.799 170.706H243.751V171.616H239.799V170.706ZM241.437 168.093H242.347V178.909C242.347 179.455 242.217 179.715 241.892 179.871C241.593 180.027 241.086 180.053 240.267 180.053C240.228 179.819 240.111 179.416 239.981 179.143C240.553 179.156 241.047 179.156 241.203 179.143C241.359 179.143 241.437 179.104 241.437 178.909V168.093ZM255.451 173.215V177.817H254.515V174.125H252.864V173.215H255.451ZM255.451 177.427C256.062 178.389 257.206 178.831 258.753 178.883C260.196 178.948 263.199 178.909 264.772 178.805C264.655 179.026 264.499 179.481 264.46 179.767C262.991 179.832 260.209 179.858 258.753 179.793C257.037 179.728 255.854 179.273 255.048 178.246C254.476 178.805 253.878 179.364 253.228 179.936L252.721 178.987C253.293 178.571 253.995 177.986 254.606 177.427H255.451ZM252.981 168.951L253.722 168.418C254.528 169.003 255.438 169.9 255.841 170.537L255.035 171.148C254.671 170.498 253.774 169.588 252.981 168.951ZM259.819 169.601H260.755V178.532H259.819V169.601ZM257.83 174.203V175.087H262.783V174.203H257.83ZM257.83 172.708V173.566H262.783V172.708H257.83ZM256.985 172.045H263.667V175.75H256.985V172.045ZM256.296 168.548H264.356V170.238H263.446V169.289H257.167V170.238H256.296V168.548ZM256.569 170.524H264.044V171.252H256.569V170.524ZM256.075 176.53H264.59V177.297H256.075V176.53Z" fill="#F8F9FB"/>
<path d="M252.25 52L252.25 102" stroke="white" stroke-width="2"/>
<path d="M197.234 52L197.234 102" stroke="white" stroke-width="2"/>
<path d="M182.383 139.445L182.383 120.445C182.383 119.079 182.685 117.887 183.29 116.87C183.895 115.854 184.825 115.02 186.083 114.37C187.34 113.72 188.931 113.237 190.857 112.92C192.782 112.604 195.05 112.445 197.659 112.445C200.397 112.445 202.728 112.595 204.653 112.895C206.579 113.195 208.154 113.67 209.38 114.32C210.605 114.97 211.504 115.795 212.077 116.795C212.65 117.795 212.936 119.012 212.936 120.445L212.936 139.445C212.936 141.412 212.292 143.07 211.003 144.42C209.714 145.77 208.13 146.445 206.253 146.445L209.117 149.445L209.117 150.445H205.775L201.956 146.445H193.363L189.544 150.445H186.202L186.202 149.445L189.066 146.445C187.189 146.445 185.605 145.77 184.316 144.42C183.027 143.07 182.383 141.412 182.383 139.445ZM197.659 115.445C193.84 115.445 191.087 115.704 189.401 116.22C187.714 116.737 186.504 117.479 185.772 118.445H209.69C209.117 117.545 207.9 116.82 206.038 116.27C204.176 115.72 201.383 115.445 197.659 115.445ZM185.247 129.195H196.418L196.418 121.445H185.247L185.247 129.195ZM206.253 132.195H185.247H210.072H206.253ZM199.283 129.195H210.072L210.072 121.445H199.283L199.283 129.195ZM190.737 140.695C191.469 140.695 192.09 140.429 192.599 139.895C193.108 139.362 193.363 138.712 193.363 137.945C193.363 137.179 193.108 136.529 192.599 135.995C192.09 135.462 191.469 135.195 190.737 135.195C190.005 135.195 189.385 135.462 188.875 135.995C188.366 136.529 188.112 137.179 188.112 137.945C188.112 138.712 188.366 139.362 188.875 139.895C189.385 140.429 190.005 140.695 190.737 140.695ZM204.582 140.695C205.314 140.695 205.934 140.429 206.444 139.895C206.953 139.362 207.207 138.712 207.207 137.945C207.207 137.179 206.953 136.529 206.444 135.995C205.934 135.462 205.314 135.195 204.582 135.195C203.85 135.195 203.229 135.462 202.72 135.995C202.211 136.529 201.956 137.179 201.956 137.945C201.956 138.712 202.211 139.362 202.72 139.895C203.229 140.429 203.85 140.695 204.582 140.695ZM189.066 143.695H206.253C207.335 143.695 208.242 143.279 208.974 142.445C209.706 141.612 210.072 140.612 210.072 139.445L210.072 132.195H185.247L185.247 139.445C185.247 140.612 185.613 141.612 186.345 142.445C187.077 143.279 187.984 143.695 189.066 143.695ZM197.659 118.445H209.69H185.772H197.659Z" fill="#C078E4"/>
<path d="M187.029 178.519H194.348V179.468H187.029V178.519ZM186.587 174.502H194.868V180.014H193.841V175.438H187.575V180.04H186.587V174.502ZM189.2 168.041L190.266 168.418C189.486 169.926 188.394 171.72 187.523 172.864L186.678 172.5C187.536 171.343 188.602 169.432 189.2 168.041ZM192.32 170.147L193.087 169.575C194.413 170.628 195.947 172.162 196.623 173.241L195.791 173.891C195.141 172.812 193.659 171.239 192.32 170.147ZM185.053 172.071C187.523 172.006 191.527 171.837 195.232 171.668L195.18 172.604C191.527 172.799 187.601 172.968 185.118 173.072L185.053 172.071ZM202.369 169.25H206.087V170.03H202.369V169.25ZM202.239 175.555H206.217V176.218H202.239V175.555ZM202.447 176.959H206.061V177.596H202.447V176.959ZM201.888 171.161H209.727V171.967H201.888V171.161ZM203.812 168.08H204.696V171.538H203.812V168.08ZM203.136 173.228V174.294H205.307V173.228H203.136ZM202.395 172.565H206.074V174.957H202.395V172.565ZM207.777 168.678L208.505 168.353C208.986 168.977 209.506 169.822 209.714 170.381L208.934 170.758C208.752 170.199 208.258 169.328 207.777 168.678ZM201.849 178.649C202.954 178.571 204.566 178.428 206.178 178.272L206.191 178.987C204.657 179.156 203.123 179.312 201.953 179.429L201.849 178.649ZM208.661 173.189L209.506 173.371C208.752 176.296 207.348 178.597 205.385 180.066C205.242 179.897 204.904 179.585 204.709 179.429C206.672 178.103 207.972 175.906 208.661 173.189ZM203.799 175.737H204.657V178.688L203.799 178.766V175.737ZM206.464 168.08H207.4C207.322 175.685 207.92 179.143 208.752 179.143C208.986 179.143 209.116 178.714 209.168 177.219C209.363 177.414 209.649 177.622 209.857 177.687C209.74 179.689 209.415 180.04 208.661 180.053C206.932 180.053 206.542 175.906 206.464 168.08ZM197.728 178.779C198.846 178.584 200.536 178.259 202.174 177.921L202.252 178.753C200.731 179.078 199.145 179.403 197.949 179.65L197.728 178.779ZM198.404 171.317H201.771V172.136H198.404V171.317ZM197.871 173.514H202.031V174.359H197.871V173.514ZM198.092 175.23L198.716 175.087C198.976 175.867 199.158 176.881 199.197 177.544L198.521 177.713C198.495 177.037 198.313 176.01 198.092 175.23ZM201.29 174.944L201.966 175.087C201.784 175.88 201.589 176.816 201.407 177.427L200.809 177.284C200.978 176.66 201.199 175.62 201.29 174.944ZM199.665 171.681H200.484V178.597L199.665 178.714V171.681ZM199.743 168.093H200.25V168.301H200.523V168.548C200.055 169.549 199.275 170.927 198.053 172.071C197.923 171.876 197.637 171.59 197.442 171.46C198.56 170.472 199.34 169.133 199.743 168.093ZM199.86 168.093H200.549C201.251 168.795 202.083 169.796 202.46 170.446L201.823 171.148C201.446 170.498 200.679 169.393 200.016 168.73H199.86V168.093Z" fill="#F8F9FB"/>
<path d="M197.234 184L197.234 234" stroke="white" stroke-width="2"/>
<path d="M252.625 616L252.625 661" stroke="white" stroke-width="2"/>
<g clip-path="url(#clip0_6910_6126)">
<path d="M237.958 605C235.258 605 232.966 604.05 231.083 602.15C229.199 600.25 228.258 597.95 228.258 595.25C228.258 592.55 229.208 590.258 231.11 588.375C233.011 586.492 235.31 585.55 238.008 585.55C240.374 585.55 242.449 586.308 244.233 587.825C246.016 589.342 247.091 591.267 247.458 593.6H250.008L245.908 582H242.258V579H251.658V582H249.058L250.358 585.55H261.458L257.908 576H252.658V573H257.608C258.408 573 259.083 573.183 259.633 573.55C260.183 573.917 260.591 574.467 260.858 575.2L264.658 585.55H266.558C269.241 585.55 271.529 586.487 273.421 588.362C275.312 590.236 276.258 592.503 276.258 595.163C276.258 597.854 275.32 600.167 273.445 602.1C271.569 604.033 269.274 605 266.558 605C264.171 605 262.074 604.2 260.268 602.6C258.461 601 257.358 599 256.958 596.6H247.458C247.091 599 246.016 601 244.233 602.6C242.449 604.2 240.358 605 237.958 605ZM237.958 602C239.558 602 240.949 601.483 242.133 600.45C243.316 599.417 244.108 598.133 244.508 596.6H238.558V593.6H244.508C244.108 592.1 243.308 590.883 242.108 589.95C240.908 589.017 239.541 588.55 238.008 588.55C236.141 588.55 234.549 589.2 233.233 590.5C231.916 591.8 231.258 593.383 231.258 595.25C231.258 597.125 231.908 598.719 233.208 600.031C234.508 601.344 236.091 602 237.958 602ZM253.208 593.6H257.008C257.141 592.833 257.399 591.983 257.783 591.05C258.166 590.117 258.691 589.283 259.358 588.55H251.408L253.208 593.6ZM266.558 602C268.424 602 270.008 601.344 271.308 600.031C272.608 598.719 273.258 597.125 273.258 595.25C273.258 593.383 272.608 591.8 271.308 590.5C270.008 589.2 268.424 588.55 266.558 588.55H265.758L267.708 594.2L264.908 595.15L262.758 589.55C261.791 590.117 261.066 590.917 260.583 591.95C260.099 592.983 259.858 594.083 259.858 595.25C259.858 597.125 260.508 598.719 261.808 600.031C263.108 601.344 264.691 602 266.558 602Z" fill="#C078E4"/>
</g>
<path d="M252.625 518L252.625 563" stroke="white" stroke-width="2"/>
<path d="M224.359 286L224.359 336" stroke="white" stroke-width="2"/>
<path d="M224.359 416L224.359 466" stroke="white" stroke-width="2"/>
<path d="M209.508 373.445L209.508 354.445C209.508 353.079 209.81 351.887 210.415 350.87C211.02 349.854 211.95 349.02 213.208 348.37C214.465 347.72 216.056 347.237 217.982 346.92C219.907 346.604 222.175 346.445 224.784 346.445C227.522 346.445 229.853 346.595 231.778 346.895C233.704 347.195 235.279 347.67 236.505 348.32C237.73 348.97 238.629 349.795 239.202 350.795C239.775 351.795 240.061 353.012 240.061 354.445L240.061 373.445C240.061 375.412 239.417 377.07 238.128 378.42C236.839 379.77 235.255 380.445 233.378 380.445L236.242 383.445L236.242 384.445H232.9L229.081 380.445H220.488L216.669 384.445H213.327L213.327 383.445L216.191 380.445C214.314 380.445 212.73 379.77 211.441 378.42C210.152 377.07 209.508 375.412 209.508 373.445ZM224.784 349.445C220.965 349.445 218.212 349.704 216.526 350.22C214.839 350.737 213.629 351.479 212.897 352.445H236.815C236.242 351.545 235.025 350.82 233.163 350.27C231.301 349.72 228.508 349.445 224.784 349.445ZM212.372 363.195H223.543L223.543 355.445H212.372L212.372 363.195ZM233.378 366.195H212.372H237.197H233.378ZM226.408 363.195H237.197L237.197 355.445H226.408L226.408 363.195ZM217.862 374.695C218.594 374.695 219.215 374.429 219.724 373.895C220.233 373.362 220.488 372.712 220.488 371.945C220.488 371.179 220.233 370.529 219.724 369.995C219.215 369.462 218.594 369.195 217.862 369.195C217.13 369.195 216.51 369.462 216 369.995C215.491 370.529 215.237 371.179 215.237 371.945C215.237 372.712 215.491 373.362 216 373.895C216.51 374.429 217.13 374.695 217.862 374.695ZM231.707 374.695C232.439 374.695 233.059 374.429 233.569 373.895C234.078 373.362 234.332 372.712 234.332 371.945C234.332 371.179 234.078 370.529 233.569 369.995C233.059 369.462 232.439 369.195 231.707 369.195C230.975 369.195 230.354 369.462 229.845 369.995C229.336 370.529 229.081 371.179 229.081 371.945C229.081 372.712 229.336 373.362 229.845 373.895C230.354 374.429 230.975 374.695 231.707 374.695ZM216.191 377.695H233.378C234.46 377.695 235.367 377.279 236.099 376.445C236.831 375.612 237.197 374.612 237.197 373.445L237.197 366.195H212.372L212.372 373.445C212.372 374.612 212.738 375.612 213.47 376.445C214.202 377.279 215.109 377.695 216.191 377.695ZM224.784 352.445H236.815H212.897H224.784Z" fill="#C078E4"/>
<path d="M214.154 412.519H221.473V413.468H214.154V412.519ZM213.712 408.502H221.993V414.014H220.966V409.438H214.7V414.04H213.712V408.502ZM216.325 402.041L217.391 402.418C216.611 403.926 215.519 405.72 214.648 406.864L213.803 406.5C214.661 405.343 215.727 403.432 216.325 402.041ZM219.445 404.147L220.212 403.575C221.538 404.628 223.072 406.162 223.748 407.241L222.916 407.891C222.266 406.812 220.784 405.239 219.445 404.147ZM212.178 406.071C214.648 406.006 218.652 405.837 222.357 405.668L222.305 406.604C218.652 406.799 214.726 406.968 212.243 407.072L212.178 406.071ZM229.494 403.25H233.212V404.03H229.494V403.25ZM229.364 409.555H233.342V410.218H229.364V409.555ZM229.572 410.959H233.186V411.596H229.572V410.959ZM229.013 405.161H236.852V405.967H229.013V405.161ZM230.937 402.08H231.821V405.538H230.937V402.08ZM230.261 407.228V408.294H232.432V407.228H230.261ZM229.52 406.565H233.199V408.957H229.52V406.565ZM234.902 402.678L235.63 402.353C236.111 402.977 236.631 403.822 236.839 404.381L236.059 404.758C235.877 404.199 235.383 403.328 234.902 402.678ZM228.974 412.649C230.079 412.571 231.691 412.428 233.303 412.272L233.316 412.987C231.782 413.156 230.248 413.312 229.078 413.429L228.974 412.649ZM235.786 407.189L236.631 407.371C235.877 410.296 234.473 412.597 232.51 414.066C232.367 413.897 232.029 413.585 231.834 413.429C233.797 412.103 235.097 409.906 235.786 407.189ZM230.924 409.737H231.782V412.688L230.924 412.766V409.737ZM233.589 402.08H234.525C234.447 409.685 235.045 413.143 235.877 413.143C236.111 413.143 236.241 412.714 236.293 411.219C236.488 411.414 236.774 411.622 236.982 411.687C236.865 413.689 236.54 414.04 235.786 414.053C234.057 414.053 233.667 409.906 233.589 402.08ZM224.853 412.779C225.971 412.584 227.661 412.259 229.299 411.921L229.377 412.753C227.856 413.078 226.27 413.403 225.074 413.65L224.853 412.779ZM225.529 405.317H228.896V406.136H225.529V405.317ZM224.996 407.514H229.156V408.359H224.996V407.514ZM225.217 409.23L225.841 409.087C226.101 409.867 226.283 410.881 226.322 411.544L225.646 411.713C225.62 411.037 225.438 410.01 225.217 409.23ZM228.415 408.944L229.091 409.087C228.909 409.88 228.714 410.816 228.532 411.427L227.934 411.284C228.103 410.66 228.324 409.62 228.415 408.944ZM226.79 405.681H227.609V412.597L226.79 412.714V405.681ZM226.868 402.093H227.375V402.301H227.648V402.548C227.18 403.549 226.4 404.927 225.178 406.071C225.048 405.876 224.762 405.59 224.567 405.46C225.685 404.472 226.465 403.133 226.868 402.093ZM226.985 402.093H227.674C228.376 402.795 229.208 403.796 229.585 404.446L228.948 405.148C228.571 404.498 227.804 403.393 227.141 402.73H226.985V402.093Z" fill="#F8F9FB"/>
<path d="M30.9922 661L30.9575 441" stroke="white" stroke-width="2"/>
<path d="M30.9922 0L30.9922 220" stroke="white" stroke-width="2"/>
<path d="M19.45 268C19.0167 268 18.6333 267.875 18.3 267.625C17.9667 267.375 17.8 267.05 17.8 266.65V262.45C16.8333 261.917 16.125 261.15 15.675 260.15C15.225 259.15 15 258.083 15 256.95V237.1C15 234.633 16.275 232.833 18.825 231.7C21.375 230.567 25.45 230 31.05 230C36.5833 230 40.625 230.567 43.175 231.7C45.725 232.833 47 234.633 47 237.1V256.95C47 258.083 46.775 259.15 46.325 260.15C45.875 261.15 45.1667 261.917 44.2 262.45V266.65C44.2 267.05 44.0333 267.375 43.7 267.625C43.3667 267.875 42.9833 268 42.55 268H41.6C41.1333 268 40.7333 267.875 40.4 267.625C40.0667 267.375 39.9 267.05 39.9 266.65V263.9H22.1V266.65C22.1 267.05 21.9333 267.375 21.6 267.625C21.2667 267.875 20.8667 268 20.4 268H19.45ZM31.05 235.8H44H18H31.05ZM39.9 250.45H18H44H39.9ZM18 247.45H44V238.8H18V247.45ZM23.3 258.4C24.0667 258.4 24.7167 258.133 25.25 257.6C25.7833 257.067 26.05 256.417 26.05 255.65C26.05 254.883 25.7833 254.233 25.25 253.7C24.7167 253.167 24.0667 252.9 23.3 252.9C22.5333 252.9 21.8833 253.167 21.35 253.7C20.8167 254.233 20.55 254.883 20.55 255.65C20.55 256.417 20.8167 257.067 21.35 257.6C21.8833 258.133 22.5333 258.4 23.3 258.4ZM38.7 258.4C39.4667 258.4 40.1167 258.133 40.65 257.6C41.1833 257.067 41.45 256.417 41.45 255.65C41.45 254.883 41.1833 254.233 40.65 253.7C40.1167 253.167 39.4667 252.9 38.7 252.9C37.9333 252.9 37.2833 253.167 36.75 253.7C36.2167 254.233 35.95 254.883 35.95 255.65C35.95 256.417 36.2167 257.067 36.75 257.6C37.2833 258.133 37.9333 258.4 38.7 258.4ZM18 235.8H44C43.2 234.933 41.6667 234.25 39.4 233.75C37.1333 233.25 34.35 233 31.05 233C27.1167 233 24.1 233.225 22 233.675C19.9 234.125 18.5667 234.833 18 235.8ZM22.1 260.9H39.9C41.0667 260.9 42.0417 260.45 42.825 259.55C43.6083 258.65 44 257.617 44 256.45V250.45H18V256.45C18 257.617 18.3917 258.65 19.175 259.55C19.9583 260.45 20.9333 260.9 22.1 260.9Z" fill="#C078E4"/>
<path d="M23.421 288.799L24.565 289.085C23.746 291.048 22.615 293.479 21.653 295.052L20.756 294.766C21.679 293.167 22.81 290.632 23.421 288.799ZM19.157 294.467C21.536 294.389 25.319 294.233 28.803 294.064L28.777 295C25.371 295.195 21.731 295.39 19.287 295.494L19.157 294.467ZM25.917 291.646L26.853 291.217C28.036 292.582 29.375 294.389 30.025 295.572L29.037 296.105C28.426 294.922 27.074 293.024 25.917 291.646ZM22.108 284.47L23.187 284.769C22.316 286.862 20.951 288.851 19.573 290.138C19.365 289.943 18.91 289.592 18.637 289.436C20.067 288.266 21.354 286.394 22.108 284.47ZM26.762 284.457C27.62 286.16 29.258 288.214 30.454 289.293C30.194 289.501 29.83 289.878 29.635 290.125C28.426 288.89 26.801 286.68 25.8 284.86L26.762 284.457ZM32.079 285.276H42.921V286.173H32.079V285.276ZM31.676 293.258H43.363V294.155H31.676V293.258ZM36.967 284.093H37.968V296.079H36.967V284.093ZM33.977 290.034V291.386H41.01V290.034H33.977ZM33.977 287.941V289.267H41.01V287.941H33.977ZM33.041 287.122H41.985V292.192H33.041V287.122Z" fill="#F8F9FB"/>
<path d="M11.049 316.937H16.384V317.729H11.049V316.937ZM10.598 324.692H16.56V325.484H10.598V324.692ZM13.249 317.19H14.096V325.11H13.249V317.19ZM8.552 320.897H9.355V325.88H8.552V320.897ZM8.442 315.749L9.223 316.068C8.739 316.86 8.123 317.806 7.628 318.4L7.034 318.125C7.507 317.498 8.112 316.475 8.442 315.749ZM9.861 316.97L10.62 317.333C9.784 318.565 8.618 320.105 7.694 321.04L7.144 320.71C8.046 319.742 9.201 318.136 9.861 316.97ZM6.44 317.96L6.858 317.421C7.551 317.96 8.376 318.708 8.739 319.236L8.299 319.874C7.925 319.324 7.133 318.521 6.44 317.96ZM9.674 319.5L10.279 319.192C10.84 319.885 11.445 320.82 11.687 321.436L11.049 321.799C10.807 321.183 10.224 320.215 9.674 319.5ZM6.396 320.589C7.507 320.545 9.179 320.468 10.818 320.38V321.084C9.256 321.194 7.65 321.304 6.495 321.37L6.396 320.589ZM9.916 322.195L10.587 321.975C10.961 322.679 11.313 323.592 11.456 324.186L10.741 324.461C10.609 323.845 10.257 322.91 9.916 322.195ZM7.177 322.041L7.947 322.184C7.771 323.229 7.452 324.307 7.067 325.011C6.913 324.901 6.561 324.736 6.374 324.659C6.759 323.999 7.023 322.998 7.177 322.041ZM17.44 325V324.461C18.144 323.757 18.7417 323.141 19.233 322.613C19.7243 322.078 20.0983 321.597 20.355 321.172C20.6117 320.739 20.74 320.336 20.74 319.962C20.74 319.559 20.63 319.229 20.41 318.972C20.19 318.715 19.8563 318.587 19.409 318.587C19.1157 318.587 18.8443 318.671 18.595 318.84C18.3457 319.001 18.1183 319.199 17.913 319.434L17.396 318.917C17.6893 318.594 18.001 318.338 18.331 318.147C18.6683 317.949 19.0643 317.85 19.519 317.85C20.1717 317.85 20.685 318.041 21.059 318.422C21.433 318.796 21.62 319.295 21.62 319.918C21.62 320.358 21.4953 320.805 21.246 321.26C21.004 321.707 20.6667 322.18 20.234 322.679C19.8087 323.17 19.3173 323.706 18.76 324.285C18.9507 324.27 19.1487 324.256 19.354 324.241C19.5593 324.226 19.7537 324.219 19.937 324.219H21.972V325H17.44ZM25.2178 325.132C24.7778 325.132 24.3854 325.051 24.0408 324.89C23.6961 324.721 23.4211 324.49 23.2158 324.197C23.0178 323.904 22.9188 323.574 22.9188 323.207C22.9188 322.899 22.9811 322.628 23.1058 322.393C23.2378 322.151 23.4028 321.942 23.6008 321.766C23.8061 321.583 24.0188 321.432 24.2388 321.315V321.271C23.9821 321.088 23.7548 320.864 23.5568 320.6C23.3588 320.336 23.2598 320.021 23.2598 319.654C23.2598 319.295 23.3478 318.979 23.5238 318.708C23.6998 318.437 23.9381 318.228 24.2388 318.081C24.5394 317.927 24.8768 317.85 25.2508 317.85C25.8594 317.85 26.3398 318.026 26.6918 318.378C27.0511 318.73 27.2308 319.177 27.2308 319.72C27.2308 319.962 27.1794 320.193 27.0768 320.413C26.9741 320.626 26.8494 320.82 26.7028 320.996C26.5561 321.165 26.4094 321.304 26.2628 321.414V321.458C26.4754 321.575 26.6734 321.715 26.8568 321.876C27.0401 322.037 27.1904 322.232 27.3078 322.459C27.4251 322.679 27.4838 322.947 27.4838 323.262C27.4838 323.607 27.3884 323.922 27.1978 324.208C27.0144 324.494 26.7504 324.721 26.4058 324.89C26.0684 325.051 25.6724 325.132 25.2178 325.132ZM25.7128 321.172C25.9474 320.959 26.1271 320.736 26.2518 320.501C26.3838 320.266 26.4498 320.021 26.4498 319.764C26.4498 319.419 26.3434 319.126 26.1308 318.884C25.9181 318.642 25.6174 318.521 25.2288 318.521C24.9061 318.521 24.6348 318.624 24.4148 318.829C24.2021 319.034 24.0958 319.309 24.0958 319.654C24.0958 319.933 24.1691 320.164 24.3158 320.347C24.4698 320.53 24.6714 320.688 24.9208 320.82C25.1701 320.945 25.4341 321.062 25.7128 321.172ZM25.2398 324.461C25.6504 324.461 25.9804 324.347 26.2298 324.12C26.4864 323.885 26.6148 323.588 26.6148 323.229C26.6148 322.928 26.5268 322.683 26.3508 322.492C26.1748 322.301 25.9401 322.136 25.6468 321.997C25.3608 321.858 25.0491 321.722 24.7118 321.59C24.4331 321.773 24.1984 321.993 24.0078 322.25C23.8244 322.507 23.7328 322.796 23.7328 323.119C23.7328 323.508 23.8758 323.83 24.1618 324.087C24.4551 324.336 24.8144 324.461 25.2398 324.461ZM30.9385 325.616C30.2235 324.747 29.2775 323.812 28.4965 323.174L29.2115 322.547C30.0035 323.185 30.9935 324.175 31.6865 324.978L30.9385 325.616ZM8.871 346.392C8.64367 346.392 8.398 346.465 8.134 346.612C7.87 346.759 7.628 346.993 7.408 347.316C7.46667 347.998 7.62433 348.519 7.881 348.878C8.145 349.237 8.50067 349.417 8.948 349.417C9.29267 349.417 9.58233 349.278 9.817 348.999C10.0517 348.713 10.169 348.339 10.169 347.877C10.169 347.422 10.059 347.063 9.839 346.799C9.62633 346.528 9.30367 346.392 8.871 346.392ZM8.948 350.132C8.49333 350.132 8.08267 350.007 7.716 349.758C7.34933 349.509 7.05967 349.135 6.847 348.636C6.63433 348.13 6.528 347.503 6.528 346.755C6.528 345.816 6.65267 345.061 6.902 344.489C7.15867 343.917 7.48867 343.503 7.892 343.246C8.30267 342.982 8.739 342.85 9.201 342.85C9.58233 342.85 9.90867 342.923 10.18 343.07C10.4587 343.209 10.697 343.385 10.895 343.598L10.389 344.159C10.2497 343.99 10.0773 343.858 9.872 343.763C9.66667 343.66 9.454 343.609 9.234 343.609C8.904 343.609 8.60333 343.704 8.332 343.895C8.06067 344.078 7.837 344.39 7.661 344.83C7.49233 345.263 7.40067 345.849 7.386 346.59C7.606 346.319 7.86267 346.106 8.156 345.952C8.44933 345.791 8.739 345.71 9.025 345.71C9.63367 345.71 10.1177 345.893 10.477 346.26C10.8437 346.619 11.027 347.158 11.027 347.877C11.027 348.324 10.9317 348.717 10.741 349.054C10.5503 349.391 10.2973 349.655 9.982 349.846C9.674 350.037 9.32933 350.132 8.948 350.132ZM14.2068 350.132C13.5028 350.132 12.9491 349.817 12.5458 349.186C12.1498 348.548 11.9518 347.642 11.9518 346.469C11.9518 345.288 12.1498 344.39 12.5458 343.774C12.9491 343.158 13.5028 342.85 14.2068 342.85C14.9034 342.85 15.4498 343.158 15.8458 343.774C16.2491 344.39 16.4508 345.288 16.4508 346.469C16.4508 347.642 16.2491 348.548 15.8458 349.186C15.4498 349.817 14.9034 350.132 14.2068 350.132ZM14.2068 349.406C14.6174 349.406 14.9474 349.175 15.1968 348.713C15.4461 348.244 15.5708 347.496 15.5708 346.469C15.5708 345.442 15.4461 344.705 15.1968 344.258C14.9474 343.803 14.6174 343.576 14.2068 343.576C13.7961 343.576 13.4624 343.803 13.2058 344.258C12.9564 344.705 12.8318 345.442 12.8318 346.469C12.8318 347.496 12.9564 348.244 13.2058 348.713C13.4624 349.175 13.7961 349.406 14.2068 349.406ZM19.9385 350.616C19.2235 349.747 18.2775 348.812 17.4965 348.174L18.2115 347.547C19.0035 348.185 19.9935 349.175 20.6865 349.978L19.9385 350.616ZM29.8825 350C29.9265 349.12 30.0182 348.332 30.1575 347.635C30.3042 346.931 30.5169 346.271 30.7955 345.655C31.0815 345.032 31.4555 344.401 31.9175 343.763H28.4195V342.982H32.9405V343.543C32.5225 344.071 32.1815 344.581 31.9175 345.072C31.6535 345.556 31.4482 346.047 31.3015 346.546C31.1549 347.037 31.0449 347.565 30.9715 348.13C30.8982 348.695 30.8469 349.318 30.8175 350H29.8825ZM35.9993 350.132C35.442 350.132 34.9763 350.033 34.6023 349.835C34.2283 349.63 33.924 349.399 33.6893 349.142L34.1513 348.548C34.364 348.768 34.6133 348.962 34.8993 349.131C35.1853 349.3 35.5337 349.384 35.9443 349.384C36.3697 349.384 36.718 349.267 36.9893 349.032C37.2607 348.797 37.3963 348.486 37.3963 348.097C37.3963 347.818 37.323 347.576 37.1763 347.371C37.037 347.158 36.8023 346.993 36.4723 346.876C36.1497 346.759 35.7097 346.7 35.1523 346.7V346.007C35.651 346.007 36.0433 345.948 36.3293 345.831C36.6227 345.714 36.8317 345.556 36.9563 345.358C37.081 345.16 37.1433 344.94 37.1433 344.698C37.1433 344.353 37.0333 344.082 36.8133 343.884C36.6007 343.686 36.3073 343.587 35.9333 343.587C35.64 343.587 35.3687 343.653 35.1193 343.785C34.8773 343.917 34.65 344.089 34.4373 344.302L33.9533 343.73C34.2247 343.473 34.5253 343.264 34.8553 343.103C35.1853 342.934 35.5557 342.85 35.9663 342.85C36.575 342.85 37.0773 343.008 37.4733 343.323C37.8693 343.631 38.0673 344.067 38.0673 344.632C38.0673 345.057 37.95 345.406 37.7153 345.677C37.4807 345.948 37.1727 346.157 36.7913 346.304V346.348C37.2167 346.443 37.576 346.645 37.8693 346.953C38.1627 347.254 38.3093 347.646 38.3093 348.13C38.3093 348.541 38.2067 348.896 38.0013 349.197C37.796 349.498 37.5173 349.729 37.1653 349.89C36.8207 350.051 36.432 350.132 35.9993 350.132ZM41.8741 350.616C41.1591 349.747 40.2131 348.812 39.4321 348.174L40.1471 347.547C40.9391 348.185 41.9291 349.175 42.6221 349.978L41.8741 350.616ZM8.596 375.132C8.03867 375.132 7.573 375.033 7.199 374.835C6.825 374.63 6.52067 374.399 6.286 374.142L6.748 373.548C6.96067 373.768 7.21 373.962 7.496 374.131C7.782 374.3 8.13033 374.384 8.541 374.384C8.96633 374.384 9.31467 374.267 9.586 374.032C9.85733 373.797 9.993 373.486 9.993 373.097C9.993 372.818 9.91967 372.576 9.773 372.371C9.63367 372.158 9.399 371.993 9.069 371.876C8.74633 371.759 8.30633 371.7 7.749 371.7V371.007C8.24767 371.007 8.64 370.948 8.926 370.831C9.21933 370.714 9.42833 370.556 9.553 370.358C9.67767 370.16 9.74 369.94 9.74 369.698C9.74 369.353 9.63 369.082 9.41 368.884C9.19733 368.686 8.904 368.587 8.53 368.587C8.23667 368.587 7.96533 368.653 7.716 368.785C7.474 368.917 7.24667 369.089 7.034 369.302L6.55 368.73C6.82133 368.473 7.122 368.264 7.452 368.103C7.782 367.934 8.15233 367.85 8.563 367.85C9.17167 367.85 9.674 368.008 10.07 368.323C10.466 368.631 10.664 369.067 10.664 369.632C10.664 370.057 10.5467 370.406 10.312 370.677C10.0773 370.948 9.76933 371.157 9.388 371.304V371.348C9.81333 371.443 10.1727 371.645 10.466 371.953C10.7593 372.254 10.906 372.646 10.906 373.13C10.906 373.541 10.8033 373.896 10.598 374.197C10.3927 374.498 10.114 374.729 9.762 374.89C9.41733 375.051 9.02867 375.132 8.596 375.132ZM13.4148 375C13.4588 374.12 13.5504 373.332 13.6898 372.635C13.8364 371.931 14.0491 371.271 14.3278 370.655C14.6138 370.032 14.9878 369.401 15.4498 368.763H11.9518V367.982H16.4728V368.543C16.0548 369.071 15.7138 369.581 15.4498 370.072C15.1858 370.556 14.9804 371.047 14.8338 371.546C14.6871 372.037 14.5771 372.565 14.5038 373.13C14.4304 373.695 14.3791 374.318 14.3498 375H13.4148ZM19.9385 375.616C19.2235 374.747 18.2775 373.812 17.4965 373.174L18.2115 372.547C19.0035 373.185 19.9935 374.175 20.6865 374.978L19.9385 375.616ZM32.0847 375C32.1287 374.12 32.2204 373.332 32.3597 372.635C32.5064 371.931 32.719 371.271 32.9977 370.655C33.2837 370.032 33.6577 369.401 34.1197 368.763H30.6217V367.982H35.1427V368.543C34.7247 369.071 34.3837 369.581 34.1197 370.072C33.8557 370.556 33.6504 371.047 33.5037 371.546C33.357 372.037 33.247 372.565 33.1737 373.13C33.1004 373.695 33.049 374.318 33.0197 375H32.0847ZM38.4765 371.392C38.2491 371.392 38.0035 371.465 37.7395 371.612C37.4755 371.759 37.2335 371.993 37.0135 372.316C37.0721 372.998 37.2298 373.519 37.4865 373.878C37.7505 374.237 38.1061 374.417 38.5535 374.417C38.8981 374.417 39.1878 374.278 39.4225 373.999C39.6571 373.713 39.7745 373.339 39.7745 372.877C39.7745 372.422 39.6645 372.063 39.4445 371.799C39.2318 371.528 38.9091 371.392 38.4765 371.392ZM38.5535 375.132C38.0988 375.132 37.6881 375.007 37.3215 374.758C36.9548 374.509 36.6651 374.135 36.4525 373.636C36.2398 373.13 36.1335 372.503 36.1335 371.755C36.1335 370.816 36.2581 370.061 36.5075 369.489C36.7641 368.917 37.0941 368.503 37.4975 368.246C37.9081 367.982 38.3445 367.85 38.8065 367.85C39.1878 367.85 39.5141 367.923 39.7855 368.07C40.0641 368.209 40.3025 368.385 40.5005 368.598L39.9945 369.159C39.8551 368.99 39.6828 368.858 39.4775 368.763C39.2721 368.66 39.0595 368.609 38.8395 368.609C38.5095 368.609 38.2088 368.704 37.9375 368.895C37.6661 369.078 37.4425 369.39 37.2665 369.83C37.0978 370.263 37.0061 370.849 36.9915 371.59C37.2115 371.319 37.4681 371.106 37.7615 370.952C38.0548 370.791 38.3445 370.71 38.6305 370.71C39.2391 370.71 39.7231 370.893 40.0825 371.26C40.4491 371.619 40.6325 372.158 40.6325 372.877C40.6325 373.324 40.5371 373.717 40.3465 374.054C40.1558 374.391 39.9028 374.655 39.5875 374.846C39.2795 375.037 38.9348 375.132 38.5535 375.132ZM44.0762 375.616C43.3612 374.747 42.4152 373.812 41.6342 373.174L42.3492 372.547C43.1412 373.185 44.1312 374.175 44.8242 374.978L44.0762 375.616ZM7.947 400C7.991 399.12 8.08267 398.332 8.222 397.635C8.36867 396.931 8.58133 396.271 8.86 395.655C9.146 395.032 9.52 394.401 9.982 393.763H6.484V392.982H11.005V393.543C10.587 394.071 10.246 394.581 9.982 395.072C9.718 395.556 9.51267 396.047 9.366 396.546C9.21933 397.037 9.10933 397.565 9.036 398.13C8.96267 398.695 8.91133 399.318 8.882 400H7.947ZM13.4148 400C13.4588 399.12 13.5504 398.332 13.6898 397.635C13.8364 396.931 14.0491 396.271 14.3278 395.655C14.6138 395.032 14.9878 394.401 15.4498 393.763H11.9518V392.982H16.4728V393.543C16.0548 394.071 15.7138 394.581 15.4498 395.072C15.1858 395.556 14.9804 396.047 14.8338 396.546C14.6871 397.037 14.5771 397.565 14.5038 398.13C14.4304 398.695 14.3791 399.318 14.3498 400H13.4148ZM19.9385 400.616C19.2235 399.747 18.2775 398.812 17.4965 398.174L18.2115 397.547C19.0035 398.185 19.9935 399.175 20.6865 399.978L19.9385 400.616ZM30.6855 400.132C30.2455 400.132 29.8532 400.051 29.5085 399.89C29.1639 399.721 28.8889 399.49 28.6835 399.197C28.4855 398.904 28.3865 398.574 28.3865 398.207C28.3865 397.899 28.4489 397.628 28.5735 397.393C28.7055 397.151 28.8705 396.942 29.0685 396.766C29.2739 396.583 29.4865 396.432 29.7065 396.315V396.271C29.4499 396.088 29.2225 395.864 29.0245 395.6C28.8265 395.336 28.7275 395.021 28.7275 394.654C28.7275 394.295 28.8155 393.979 28.9915 393.708C29.1675 393.437 29.4059 393.228 29.7065 393.081C30.0072 392.927 30.3445 392.85 30.7185 392.85C31.3272 392.85 31.8075 393.026 32.1595 393.378C32.5189 393.73 32.6985 394.177 32.6985 394.72C32.6985 394.962 32.6472 395.193 32.5445 395.413C32.4419 395.626 32.3172 395.82 32.1705 395.996C32.0239 396.165 31.8772 396.304 31.7305 396.414V396.458C31.9432 396.575 32.1412 396.715 32.3245 396.876C32.5079 397.037 32.6582 397.232 32.7755 397.459C32.8929 397.679 32.9515 397.947 32.9515 398.262C32.9515 398.607 32.8562 398.922 32.6655 399.208C32.4822 399.494 32.2182 399.721 31.8735 399.89C31.5362 400.051 31.1402 400.132 30.6855 400.132ZM31.1805 396.172C31.4152 395.959 31.5949 395.736 31.7195 395.501C31.8515 395.266 31.9175 395.021 31.9175 394.764C31.9175 394.419 31.8112 394.126 31.5985 393.884C31.3859 393.642 31.0852 393.521 30.6965 393.521C30.3739 393.521 30.1025 393.624 29.8825 393.829C29.6699 394.034 29.5635 394.309 29.5635 394.654C29.5635 394.933 29.6369 395.164 29.7835 395.347C29.9375 395.53 30.1392 395.688 30.3885 395.82C30.6379 395.945 30.9019 396.062 31.1805 396.172ZM30.7075 399.461C31.1182 399.461 31.4482 399.347 31.6975 399.12C31.9542 398.885 32.0825 398.588 32.0825 398.229C32.0825 397.928 31.9945 397.683 31.8185 397.492C31.6425 397.301 31.4079 397.136 31.1145 396.997C30.8285 396.858 30.5169 396.722 30.1795 396.59C29.9009 396.773 29.6662 396.993 29.4755 397.25C29.2922 397.507 29.2005 397.796 29.2005 398.119C29.2005 398.508 29.3435 398.83 29.6295 399.087C29.9229 399.336 30.2822 399.461 30.7075 399.461ZM34.2723 400V399.252H35.8783V394.082H34.6023V393.499C34.925 393.44 35.2037 393.371 35.4383 393.29C35.6803 393.202 35.8967 393.099 36.0873 392.982H36.7803V399.252H38.2323V400H34.2723ZM41.8741 400.616C41.1591 399.747 40.2131 398.812 39.4321 398.174L40.1471 397.547C40.9391 398.185 41.9291 399.175 42.6221 399.978L41.8741 400.616ZM6.869 425V424.252H8.475V419.082H7.199V418.499C7.52167 418.44 7.80033 418.371 8.035 418.29C8.277 418.202 8.49333 418.099 8.684 417.982H9.377V424.252H10.829V425H6.869ZM14.3388 421.392C14.1114 421.392 13.8658 421.465 13.6018 421.612C13.3378 421.759 13.0958 421.993 12.8758 422.316C12.9344 422.998 13.0921 423.519 13.3488 423.878C13.6128 424.237 13.9684 424.417 14.4158 424.417C14.7604 424.417 15.0501 424.278 15.2848 423.999C15.5194 423.713 15.6368 423.339 15.6368 422.877C15.6368 422.422 15.5268 422.063 15.3068 421.799C15.0941 421.528 14.7714 421.392 14.3388 421.392ZM14.4158 425.132C13.9611 425.132 13.5504 425.007 13.1838 424.758C12.8171 424.509 12.5274 424.135 12.3148 423.636C12.1021 423.13 11.9958 422.503 11.9958 421.755C11.9958 420.816 12.1204 420.061 12.3698 419.489C12.6264 418.917 12.9564 418.503 13.3598 418.246C13.7704 417.982 14.2068 417.85 14.6688 417.85C15.0501 417.85 15.3764 417.923 15.6478 418.07C15.9264 418.209 16.1648 418.385 16.3628 418.598L15.8568 419.159C15.7174 418.99 15.5451 418.858 15.3398 418.763C15.1344 418.66 14.9218 418.609 14.7018 418.609C14.3718 418.609 14.0711 418.704 13.7998 418.895C13.5284 419.078 13.3048 419.39 13.1288 419.83C12.9601 420.263 12.8684 420.849 12.8538 421.59C13.0738 421.319 13.3304 421.106 13.6238 420.952C13.9171 420.791 14.2068 420.71 14.4928 420.71C15.1014 420.71 15.5854 420.893 15.9448 421.26C16.3114 421.619 16.4948 422.158 16.4948 422.877C16.4948 423.324 16.3994 423.717 16.2088 424.054C16.0181 424.391 15.7651 424.655 15.4498 424.846C15.1418 425.037 14.7971 425.132 14.4158 425.132ZM19.6855 425.132C19.2455 425.132 18.8532 425.051 18.5085 424.89C18.1639 424.721 17.8889 424.49 17.6835 424.197C17.4855 423.904 17.3865 423.574 17.3865 423.207C17.3865 422.899 17.4489 422.628 17.5735 422.393C17.7055 422.151 17.8705 421.942 18.0685 421.766C18.2739 421.583 18.4865 421.432 18.7065 421.315V421.271C18.4499 421.088 18.2225 420.864 18.0245 420.6C17.8265 420.336 17.7275 420.021 17.7275 419.654C17.7275 419.295 17.8155 418.979 17.9915 418.708C18.1675 418.437 18.4059 418.228 18.7065 418.081C19.0072 417.927 19.3445 417.85 19.7185 417.85C20.3272 417.85 20.8075 418.026 21.1595 418.378C21.5189 418.73 21.6985 419.177 21.6985 419.72C21.6985 419.962 21.6472 420.193 21.5445 420.413C21.4419 420.626 21.3172 420.82 21.1705 420.996C21.0239 421.165 20.8772 421.304 20.7305 421.414V421.458C20.9432 421.575 21.1412 421.715 21.3245 421.876C21.5079 422.037 21.6582 422.232 21.7755 422.459C21.8929 422.679 21.9515 422.947 21.9515 423.262C21.9515 423.607 21.8562 423.922 21.6655 424.208C21.4822 424.494 21.2182 424.721 20.8735 424.89C20.5362 425.051 20.1402 425.132 19.6855 425.132ZM20.1805 421.172C20.4152 420.959 20.5949 420.736 20.7195 420.501C20.8515 420.266 20.9175 420.021 20.9175 419.764C20.9175 419.419 20.8112 419.126 20.5985 418.884C20.3859 418.642 20.0852 418.521 19.6965 418.521C19.3739 418.521 19.1025 418.624 18.8825 418.829C18.6699 419.034 18.5635 419.309 18.5635 419.654C18.5635 419.933 18.6369 420.164 18.7835 420.347C18.9375 420.53 19.1392 420.688 19.3885 420.82C19.6379 420.945 19.9019 421.062 20.1805 421.172ZM19.7075 424.461C20.1182 424.461 20.4482 424.347 20.6975 424.12C20.9542 423.885 21.0825 423.588 21.0825 423.229C21.0825 422.928 20.9945 422.683 20.8185 422.492C20.6425 422.301 20.4079 422.136 20.1145 421.997C19.8285 421.858 19.5169 421.722 19.1795 421.59C18.9009 421.773 18.6662 421.993 18.4755 422.25C18.2922 422.507 18.2005 422.796 18.2005 423.119C18.2005 423.508 18.3435 423.83 18.6295 424.087C18.9229 424.336 19.2822 424.461 19.7075 424.461ZM25.4063 425.616C24.6913 424.747 23.7453 423.812 22.9643 423.174L23.6793 422.547C24.4713 423.185 25.4613 424.175 26.1543 424.978L25.4063 425.616ZM36.1533 425.132C35.7133 425.132 35.321 425.051 34.9763 424.89C34.6317 424.721 34.3567 424.49 34.1513 424.197C33.9533 423.904 33.8543 423.574 33.8543 423.207C33.8543 422.899 33.9167 422.628 34.0413 422.393C34.1733 422.151 34.3383 421.942 34.5363 421.766C34.7417 421.583 34.9543 421.432 35.1743 421.315V421.271C34.9177 421.088 34.6903 420.864 34.4923 420.6C34.2943 420.336 34.1953 420.021 34.1953 419.654C34.1953 419.295 34.2833 418.979 34.4593 418.708C34.6353 418.437 34.8737 418.228 35.1743 418.081C35.475 417.927 35.8123 417.85 36.1863 417.85C36.795 417.85 37.2753 418.026 37.6273 418.378C37.9867 418.73 38.1663 419.177 38.1663 419.72C38.1663 419.962 38.115 420.193 38.0123 420.413C37.9097 420.626 37.785 420.82 37.6383 420.996C37.4917 421.165 37.345 421.304 37.1983 421.414V421.458C37.411 421.575 37.609 421.715 37.7923 421.876C37.9757 422.037 38.126 422.232 38.2433 422.459C38.3607 422.679 38.4193 422.947 38.4193 423.262C38.4193 423.607 38.324 423.922 38.1333 424.208C37.95 424.494 37.686 424.721 37.3413 424.89C37.004 425.051 36.608 425.132 36.1533 425.132ZM36.6483 421.172C36.883 420.959 37.0627 420.736 37.1873 420.501C37.3193 420.266 37.3853 420.021 37.3853 419.764C37.3853 419.419 37.279 419.126 37.0663 418.884C36.8537 418.642 36.553 418.521 36.1643 418.521C35.8417 418.521 35.5703 418.624 35.3503 418.829C35.1377 419.034 35.0313 419.309 35.0313 419.654C35.0313 419.933 35.1047 420.164 35.2513 420.347C35.4053 420.53 35.607 420.688 35.8563 420.82C36.1057 420.945 36.3697 421.062 36.6483 421.172ZM36.1753 424.461C36.586 424.461 36.916 424.347 37.1653 424.12C37.422 423.885 37.5503 423.588 37.5503 423.229C37.5503 422.928 37.4623 422.683 37.2863 422.492C37.1103 422.301 36.8757 422.136 36.5823 421.997C36.2963 421.858 35.9847 421.722 35.6473 421.59C35.3687 421.773 35.134 421.993 34.9433 422.25C34.76 422.507 34.6683 422.796 34.6683 423.119C34.6683 423.508 34.8113 423.83 35.0973 424.087C35.3907 424.336 35.75 424.461 36.1753 424.461ZM41.4451 425.132C40.8878 425.132 40.4258 425.033 40.0591 424.835C39.6924 424.637 39.3881 424.417 39.1461 424.175L39.5861 423.581C39.7988 423.786 40.0444 423.973 40.3231 424.142C40.6018 424.303 40.9464 424.384 41.3571 424.384C41.7898 424.384 42.1528 424.241 42.4461 423.955C42.7468 423.662 42.8971 423.269 42.8971 422.778C42.8971 422.294 42.7614 421.916 42.4901 421.645C42.2188 421.374 41.8558 421.238 41.4011 421.238C41.1591 421.238 40.9501 421.275 40.7741 421.348C40.6054 421.421 40.4148 421.528 40.2021 421.667L39.7181 421.359L39.9491 417.982H43.4581V418.763H40.7411L40.5541 420.842C40.7228 420.754 40.8914 420.684 41.0601 420.633C41.2288 420.582 41.4194 420.556 41.6321 420.556C42.0354 420.556 42.3984 420.637 42.7211 420.798C43.0511 420.952 43.3151 421.19 43.5131 421.513C43.7111 421.836 43.8101 422.25 43.8101 422.756C43.8101 423.262 43.6964 423.695 43.4691 424.054C43.2491 424.406 42.9594 424.674 42.6001 424.857C42.2408 425.04 41.8558 425.132 41.4451 425.132ZM47.0779 425.132C46.3739 425.132 45.8202 424.817 45.4169 424.186C45.0209 423.548 44.8229 422.642 44.8229 421.469C44.8229 420.288 45.0209 419.39 45.4169 418.774C45.8202 418.158 46.3739 417.85 47.0779 417.85C47.7745 417.85 48.3209 418.158 48.7169 418.774C49.1202 419.39 49.3219 420.288 49.3219 421.469C49.3219 422.642 49.1202 423.548 48.7169 424.186C48.3209 424.817 47.7745 425.132 47.0779 425.132ZM47.0779 424.406C47.4885 424.406 47.8185 424.175 48.0679 423.713C48.3172 423.244 48.4419 422.496 48.4419 421.469C48.4419 420.442 48.3172 419.705 48.0679 419.258C47.8185 418.803 47.4885 418.576 47.0779 418.576C46.6672 418.576 46.3335 418.803 46.0769 419.258C45.8275 419.705 45.7029 420.442 45.7029 421.469C45.7029 422.496 45.8275 423.244 46.0769 423.713C46.3335 424.175 46.6672 424.406 47.0779 424.406ZM52.4026 425.132C51.8453 425.132 51.3796 425.033 51.0056 424.835C50.6316 424.63 50.3273 424.399 50.0926 424.142L50.5546 423.548C50.7673 423.768 51.0166 423.962 51.3026 424.131C51.5886 424.3 51.937 424.384 52.3476 424.384C52.773 424.384 53.1213 424.267 53.3926 424.032C53.664 423.797 53.7996 423.486 53.7996 423.097C53.7996 422.818 53.7263 422.576 53.5796 422.371C53.4403 422.158 53.2056 421.993 52.8756 421.876C52.553 421.759 52.113 421.7 51.5556 421.7V421.007C52.0543 421.007 52.4466 420.948 52.7326 420.831C53.026 420.714 53.235 420.556 53.3596 420.358C53.4843 420.16 53.5466 419.94 53.5466 419.698C53.5466 419.353 53.4366 419.082 53.2166 418.884C53.004 418.686 52.7106 418.587 52.3366 418.587C52.0433 418.587 51.772 418.653 51.5226 418.785C51.2806 418.917 51.0533 419.089 50.8406 419.302L50.3566 418.73C50.628 418.473 50.9286 418.264 51.2586 418.103C51.5886 417.934 51.959 417.85 52.3696 417.85C52.9783 417.85 53.4806 418.008 53.8766 418.323C54.2726 418.631 54.4706 419.067 54.4706 419.632C54.4706 420.057 54.3533 420.406 54.1186 420.677C53.884 420.948 53.576 421.157 53.1946 421.304V421.348C53.62 421.443 53.9793 421.645 54.2726 421.953C54.566 422.254 54.7126 422.646 54.7126 423.13C54.7126 423.541 54.61 423.896 54.4046 424.197C54.1993 424.498 53.9206 424.729 53.5686 424.89C53.224 425.051 52.8353 425.132 52.4026 425.132Z" fill="white"/>
<rect x="170.484" width="108.49" height="52" rx="10" fill="#E099E1"/>
<path d="M193.007 21.042H204.421V22.368H193.007V21.042ZM197.83 19.937H199.442V21.705H197.83V19.937ZM193.527 26.294H203.03V27.581H195.048V32.183H193.527V26.294ZM202.445 26.294H204.018V30.532C204.018 31.247 203.875 31.663 203.368 31.897C202.874 32.131 202.185 32.157 201.249 32.157C201.197 31.715 200.976 31.091 200.768 30.688C201.353 30.714 202.016 30.714 202.198 30.701C202.393 30.701 202.445 30.649 202.445 30.493V26.294ZM196.218 28.179H197.57V31.689H196.218V28.179ZM196.894 28.179H201.21V31.091H196.894V30.051H199.832V29.219H196.894V28.179ZM196.621 23.915V24.695H200.716V23.915H196.621ZM195.139 22.875H202.289V25.748H195.139V22.875ZM210.375 20.964H214.002V22.147H210.375V20.964ZM210.232 27.438H214.106V28.4H210.232V27.438ZM210.414 28.855H213.963V29.752H210.414V28.855ZM209.933 22.888H217.85V24.123H209.933V22.888ZM211.519 19.963H212.897V23.486H211.519V19.963ZM211.467 25.488V26.086H212.832V25.488H211.467ZM210.349 24.539H214.002V27.022H210.349V24.539ZM215.731 20.782L216.862 20.301C217.265 20.899 217.694 21.705 217.863 22.238L216.654 22.784C216.511 22.251 216.121 21.419 215.731 20.782ZM209.816 30.493C210.921 30.415 212.494 30.298 214.067 30.168L214.08 31.247C212.624 31.39 211.142 31.533 209.972 31.637L209.816 30.493ZM216.498 25.163L217.824 25.449C217.044 28.361 215.601 30.714 213.612 32.157C213.404 31.897 212.884 31.39 212.585 31.156C214.535 29.908 215.835 27.789 216.498 25.163ZM211.506 27.711H212.819V30.662L211.506 30.766V27.711ZM214.275 19.963H215.757C215.575 27.035 216.069 30.714 216.667 30.714C216.862 30.714 216.966 30.22 217.018 28.764C217.291 29.063 217.707 29.388 218.032 29.505C217.889 31.767 217.486 32.157 216.524 32.17C214.535 32.17 214.301 27.516 214.275 19.963ZM205.656 30.545C206.787 30.376 208.503 30.077 210.128 29.765L210.245 31.052C208.763 31.351 207.19 31.65 205.968 31.884L205.656 30.545ZM206.306 23.226H209.777V24.487H206.306V23.226ZM205.864 25.423H210.024V26.723H205.864V25.423ZM205.942 27.503L206.852 27.282C207.06 28.01 207.229 28.933 207.281 29.544L206.319 29.791C206.293 29.167 206.124 28.218 205.942 27.503ZM209.127 27.152L210.089 27.373C209.894 28.114 209.712 28.933 209.543 29.479L208.698 29.271C208.854 28.699 209.049 27.776 209.127 27.152ZM207.398 23.746H208.646V30.519L207.398 30.714V23.746ZM207.515 19.963H208.321V20.249H208.75V20.639C208.269 21.64 207.515 22.992 206.267 24.162C206.072 23.85 205.63 23.382 205.344 23.174C206.41 22.238 207.125 20.99 207.515 19.963ZM207.619 19.963H208.659C209.348 20.639 210.193 21.588 210.583 22.264L209.608 23.395C209.27 22.732 208.49 21.588 207.853 20.964H207.619V19.963ZM218.981 22.147H230.473V23.655H218.981V22.147ZM222.829 25.657H230.213V27.152H222.829V25.657ZM221.412 30.376H230.694V31.884H221.412V30.376ZM225.39 26.372H226.989V31.195H225.39V26.372ZM222.79 19.963L224.415 20.171C223.713 24.318 222.491 28.816 219.488 31.507C219.254 31.143 218.773 30.571 218.461 30.259C221.152 27.932 222.27 23.655 222.79 19.963ZM236.96 27.841L238.702 28.049C238.455 28.634 238.208 29.167 238.039 29.544L236.661 29.297C236.778 28.842 236.908 28.27 236.96 27.841ZM235.608 26.827V27.451H239.703V26.827H235.608ZM234.165 25.865H241.25V28.4H234.165V25.865ZM233.255 28.985H242.498V32.17H240.951V30.064H234.724V32.17H233.255V28.985ZM234.165 30.779H241.601V31.871H234.165V30.779ZM232.137 24.175H243.343V26.71H241.77V25.358H233.632V26.71H232.137V24.175ZM236.479 20.522L237.727 20.925C237.311 21.432 236.895 21.926 236.57 22.251L235.673 21.887C235.959 21.497 236.297 20.912 236.479 20.522ZM234.165 22.771L235.062 21.926C235.738 22.29 236.7 22.849 237.194 23.213L236.258 24.162C235.79 23.785 234.854 23.187 234.165 22.771ZM234.321 19.963H235.673C235.556 22.329 235.101 23.668 232.462 24.396C232.345 24.058 231.994 23.551 231.721 23.304C233.957 22.771 234.23 21.835 234.321 19.963ZM232.852 20.483L233.84 20.834C233.632 21.471 233.32 22.134 232.774 22.537L231.825 21.965C232.306 21.627 232.67 21.029 232.852 20.483ZM242.251 20.496L243.59 20.938C243.135 21.445 242.693 21.965 242.355 22.303L241.406 21.926C241.705 21.51 242.069 20.912 242.251 20.496ZM239.794 22.823L240.665 21.887C241.536 22.303 242.823 22.953 243.486 23.382L242.563 24.448C241.952 24.006 240.691 23.304 239.794 22.823ZM239.898 19.963H241.302C241.198 22.329 240.756 23.655 238.039 24.331C237.935 23.993 237.584 23.46 237.298 23.187C239.573 22.693 239.82 21.822 239.898 19.963ZM238.403 20.496L239.404 20.86C239.183 21.497 238.871 22.121 238.338 22.55L237.376 21.952C237.857 21.614 238.221 21.029 238.403 20.496ZM244.916 22.381H249.96V23.837H244.916V22.381ZM246.762 20.145H248.218V23.096H246.762V20.145ZM253.028 22.355H256.811V23.837H253.028V22.355ZM250.857 30.09H255.511V31.546H250.857V30.09ZM252.248 19.95H253.86V26.723H252.248V19.95ZM250.168 26.086H256.356V32.105H254.77V27.542H251.676V32.157H250.168V26.086ZM244.63 29.466C245.982 29.232 248.036 28.816 249.947 28.387L250.103 29.83C248.322 30.259 246.398 30.701 244.942 31.026L244.63 29.466ZM245.254 24.448L246.489 24.214C246.814 25.618 247.022 27.373 247.048 28.582L245.709 28.842C245.735 27.659 245.527 25.839 245.254 24.448ZM248.153 24.084L249.674 24.344C249.466 25.995 249.154 27.906 248.881 29.115L247.581 28.855C247.841 27.594 248.088 25.566 248.153 24.084Z" fill="#121023"/>
<path d="M185.357 611L192.03 581.7L186.22 583.85L186.22 590.5H182.711L182.711 581.85L193.756 577.8C194.293 577.6 194.859 577.475 195.453 577.425C196.047 577.375 196.632 577.4 197.208 577.5C197.86 577.6 198.425 577.783 198.905 578.05C199.384 578.317 199.777 578.65 200.084 579.05L202.5 582.35C203.689 583.95 205.175 585.208 206.958 586.125C208.742 587.042 210.65 587.5 212.682 587.5L212.682 590.5C209.998 590.433 207.629 589.925 205.578 588.975C203.526 588.025 201.675 586.567 200.026 584.6L197.84 592.2L203.133 596.35L203.133 611H199.681L199.681 599L193.468 594.1L188.924 611H185.357ZM200.429 575.3C199.279 575.3 198.291 574.942 197.466 574.225C196.642 573.508 196.23 572.65 196.23 571.65C196.23 570.65 196.642 569.792 197.466 569.075C198.291 568.358 199.279 568 200.429 568C201.58 568 202.567 568.358 203.392 569.075C204.216 569.792 204.628 570.65 204.628 571.65C204.628 572.65 204.216 573.508 203.392 574.225C202.567 574.942 201.58 575.3 200.429 575.3Z" fill="#C078E4"/>
<path d="M197.234 518L197.234 563" stroke="white" stroke-width="2"/>
<path d="M197 616L197 661" stroke="white" stroke-width="2"/>
<path d="M138.711 551L138.711 661" stroke="white" stroke-width="2"/>
<g clip-path="url(#clip1_6910_6126)">
<path d="M124.075 546C121.375 546 119.083 545.05 117.2 543.15C115.317 541.25 114.375 538.95 114.375 536.25C114.375 533.55 115.326 531.258 117.227 529.375C119.128 527.492 121.428 526.55 124.125 526.55C126.492 526.55 128.567 527.308 130.35 528.825C132.133 530.342 133.208 532.267 133.575 534.6H136.125L132.025 523H128.375V520H137.775V523H135.175L136.475 526.55H147.575L144.025 517H138.775V514H143.725C144.525 514 145.2 514.183 145.75 514.55C146.3 514.917 146.708 515.467 146.975 516.2L150.775 526.55H152.675C155.359 526.55 157.646 527.487 159.538 529.362C161.429 531.236 162.375 533.503 162.375 536.163C162.375 538.854 161.437 541.167 159.562 543.1C157.687 545.033 155.391 546 152.675 546C150.288 546 148.192 545.2 146.385 543.6C144.578 542 143.475 540 143.075 537.6H133.575C133.208 540 132.133 542 130.35 543.6C128.567 545.2 126.475 546 124.075 546ZM124.075 543C125.675 543 127.067 542.483 128.25 541.45C129.433 540.417 130.225 539.133 130.625 537.6H124.675V534.6H130.625C130.225 533.1 129.425 531.883 128.225 530.95C127.025 530.017 125.658 529.55 124.125 529.55C122.258 529.55 120.667 530.2 119.35 531.5C118.033 532.8 117.375 534.383 117.375 536.25C117.375 538.125 118.025 539.719 119.325 541.031C120.625 542.344 122.208 543 124.075 543ZM139.325 534.6H143.125C143.258 533.833 143.517 532.983 143.9 532.05C144.283 531.117 144.808 530.283 145.475 529.55H137.525L139.325 534.6ZM152.675 543C154.542 543 156.125 542.344 157.425 541.031C158.725 539.719 159.375 538.125 159.375 536.25C159.375 534.383 158.725 532.8 157.425 531.5C156.125 530.2 154.542 529.55 152.675 529.55H151.875L153.825 535.2L151.025 536.15L148.875 530.55C147.908 531.117 147.183 531.917 146.7 532.95C146.217 533.983 145.975 535.083 145.975 536.25C145.975 538.125 146.625 539.719 147.925 541.031C149.225 542.344 150.808 543 152.675 543Z" fill="#C078E4"/>
</g>
<path d="M138.711 392L138.711 502" stroke="white" stroke-width="2"/>
<path d="M111.086 210L111.086 320" stroke="white" stroke-width="2"/>
<g clip-path="url(#clip2_6910_6126)">
<path d="M96.45 170C93.75 170 91.4583 169.05 89.575 167.15C87.6917 165.25 86.75 162.95 86.75 160.25C86.75 157.55 87.7006 155.258 89.6019 153.375C91.5031 151.492 93.8025 150.55 96.5 150.55C98.8667 150.55 100.942 151.308 102.725 152.825C104.508 154.342 105.583 156.267 105.95 158.6H108.5L104.4 147H100.75V144H110.15V147H107.55L108.85 150.55H119.95L116.4 141H111.15V138H116.1C116.9 138 117.575 138.183 118.125 138.55C118.675 138.917 119.083 139.467 119.35 140.2L123.15 150.55H125.05C127.734 150.55 130.021 151.487 131.913 153.362C133.804 155.236 134.75 157.503 134.75 160.163C134.75 162.854 133.812 165.167 131.937 167.1C130.062 169.033 127.766 170 125.05 170C122.663 170 120.567 169.2 118.76 167.6C116.953 166 115.85 164 115.45 161.6H105.95C105.583 164 104.508 166 102.725 167.6C100.942 169.2 98.85 170 96.45 170ZM96.45 167C98.05 167 99.4417 166.483 100.625 165.45C101.808 164.417 102.6 163.133 103 161.6H97.05V158.6H103C102.6 157.1 101.8 155.883 100.6 154.95C99.4 154.017 98.0333 153.55 96.5 153.55C94.6333 153.55 93.0417 154.2 91.725 155.5C90.4083 156.8 89.75 158.383 89.75 160.25C89.75 162.125 90.4 163.719 91.7 165.031C93 166.344 94.5833 167 96.45 167ZM111.7 158.6H115.5C115.633 157.833 115.892 156.983 116.275 156.05C116.658 155.117 117.183 154.283 117.85 153.55H109.9L111.7 158.6ZM125.05 167C126.917 167 128.5 166.344 129.8 165.031C131.1 163.719 131.75 162.125 131.75 160.25C131.75 158.383 131.1 156.8 129.8 155.5C128.5 154.2 126.917 153.55 125.05 153.55H124.25L126.2 159.2L123.4 160.15L121.25 154.55C120.283 155.117 119.558 155.917 119.075 156.95C118.592 157.983 118.35 159.083 118.35 160.25C118.35 162.125 119 163.719 120.3 165.031C121.6 166.344 123.183 167 125.05 167Z" fill="#C078E4"/>
</g>
<path d="M110.758 0L110.758 110" stroke="white" stroke-width="2"/>
<path d="M83.3203 392L83.3203 502" stroke="white" stroke-width="2"/>
<path d="M71.4431 549L78.1161 519.7L72.306 521.85L72.306 528.5H68.7969L68.7969 519.85L79.8419 515.8C80.3788 515.6 80.9445 515.475 81.539 515.425C82.1334 515.375 82.7182 515.4 83.2935 515.5C83.9455 515.6 84.5111 515.783 84.9905 516.05C85.4699 516.317 85.863 516.65 86.1698 517.05L88.5859 520.35C89.7748 521.95 91.2609 523.208 93.0442 524.125C94.8275 525.042 96.7355 525.5 98.7681 525.5L98.7681 528.5C96.0835 528.433 93.7154 527.925 91.6636 526.975C89.6118 526.025 87.7614 524.567 86.1123 522.6L83.9263 530.2L89.2187 534.35L89.2187 549H85.7671L85.7671 537L79.5543 532.1L75.0097 549H71.4431ZM86.515 513.3C85.3645 513.3 84.3769 512.942 83.5524 512.225C82.7278 511.508 82.3156 510.65 82.3156 509.65C82.3156 508.65 82.7278 507.792 83.5524 507.075C84.3769 506.358 85.3645 506 86.515 506C87.6655 506 88.653 506.358 89.4776 507.075C90.3021 507.792 90.7144 508.65 90.7144 509.65C90.7144 510.65 90.3021 511.508 89.4776 512.225C88.653 512.942 87.6655 513.3 86.515 513.3Z" fill="#C078E4"/>
<path d="M83.3203 551L83.3203 661" stroke="white" stroke-width="2"/>
<rect x="170.484" y="234" width="108.49" height="52" rx="10" fill="#E099E1"/>
<path d="M199.507 255.042H210.921V256.368H199.507V255.042ZM204.33 253.937H205.942V255.705H204.33V253.937ZM200.027 260.294H209.53V261.581H201.548V266.183H200.027V260.294ZM208.945 260.294H210.518V264.532C210.518 265.247 210.375 265.663 209.868 265.897C209.374 266.131 208.685 266.157 207.749 266.157C207.697 265.715 207.476 265.091 207.268 264.688C207.853 264.714 208.516 264.714 208.698 264.701C208.893 264.701 208.945 264.649 208.945 264.493V260.294ZM202.718 262.179H204.07V265.689H202.718V262.179ZM203.394 262.179H207.71V265.091H203.394V264.051H206.332V263.219H203.394V262.179ZM203.121 257.915V258.695H207.216V257.915H203.121ZM201.639 256.875H208.789V259.748H201.639V256.875ZM212.299 255.939H218.149V257.395H212.299V255.939ZM213.807 264.285C214.782 264.09 216.238 263.752 217.681 263.401L217.837 264.61C216.615 264.987 215.328 265.351 214.275 265.637L213.807 264.285ZM216.55 261.75L217.642 261.295C218.019 262.517 218.344 264.064 218.435 265.117L217.265 265.585C217.187 264.558 216.875 262.972 216.55 261.75ZM215.718 258.357L217.083 258.643C216.719 260.684 216.16 263.206 215.653 264.766L214.574 264.48C215.029 262.881 215.51 260.255 215.718 258.357ZM219.033 259.085H224.012V260.385H219.033V259.085ZM219.033 261.62H224.012V262.933H219.033V261.62ZM219.033 264.207H224.272V265.624H219.033V264.207ZM219.345 253.95L220.801 254.327C220.151 256.485 219.085 258.695 217.915 260.099C217.707 259.8 217.161 259.163 216.862 258.877C217.928 257.707 218.825 255.835 219.345 253.95ZM221.984 254.093L223.453 254.496C222.998 255.562 222.465 256.732 222.036 257.473L220.814 257.083C221.23 256.29 221.724 255.016 221.984 254.093ZM219.93 256.459H224.155V257.85H219.93V266.17H218.5V257.759L219.722 256.459H219.93ZM221.152 257.135H222.582V264.987H221.152V257.135ZM213.885 253.963H215.276V255.12C215.276 258.097 215.172 262.244 213.222 265.754C212.91 265.507 212.312 265.195 211.883 265.065C213.768 261.789 213.885 257.941 213.885 255.12V253.963ZM225.624 255.029H236.804V256.446H225.624V255.029ZM225.312 263.024H237.194V264.428H225.312V263.024ZM230.369 253.963H231.981V266.183H230.369V253.963ZM228.107 260.268V261.074H234.256V260.268H228.107ZM228.107 258.318V259.111H234.256V258.318H228.107ZM226.612 257.07H235.829V262.322H226.612V257.07ZM238.416 256.381H243.46V257.837H238.416V256.381ZM240.262 254.145H241.718V257.096H240.262V254.145ZM246.528 256.355H250.311V257.837H246.528V256.355ZM244.357 264.09H249.011V265.546H244.357V264.09ZM245.748 253.95H247.36V260.723H245.748V253.95ZM243.668 260.086H249.856V266.105H248.27V261.542H245.176V266.157H243.668V260.086ZM238.13 263.466C239.482 263.232 241.536 262.816 243.447 262.387L243.603 263.83C241.822 264.259 239.898 264.701 238.442 265.026L238.13 263.466ZM238.754 258.448L239.989 258.214C240.314 259.618 240.522 261.373 240.548 262.582L239.209 262.842C239.235 261.659 239.027 259.839 238.754 258.448ZM241.653 258.084L243.174 258.344C242.966 259.995 242.654 261.906 242.381 263.115L241.081 262.855C241.341 261.594 241.588 259.566 241.653 258.084Z" fill="#121023"/>
<rect x="56.5703" y="320" width="108.49" height="72" rx="10" fill="#E099E1"/>
<path d="M103.676 340.496H110.241V341.796H103.676V340.496ZM103.975 347.282H110.033V348.582H103.975V347.282ZM103.377 350.545H110.436V351.858H103.377V350.545ZM106.133 347.906H107.706V351.559H106.133V347.906ZM104.521 342.017L105.782 342.29C105.456 343.018 105.067 343.785 104.716 344.435C105.21 345.189 105.704 346.047 105.938 346.619L104.729 347.1C104.482 346.398 103.975 345.384 103.39 344.448C103.819 343.655 104.287 342.667 104.521 342.017ZM106.614 342.017L107.875 342.29C107.55 343.018 107.134 343.772 106.77 344.422C107.303 345.15 107.823 345.995 108.083 346.567L106.874 347.061C106.614 346.359 106.055 345.358 105.418 344.435C105.886 343.629 106.367 342.667 106.614 342.017ZM108.824 342.017L110.111 342.303C109.747 343.044 109.292 343.785 108.902 344.435C109.461 345.163 110.02 346.021 110.293 346.606L109.097 347.1C108.811 346.398 108.2 345.384 107.511 344.448C108.018 343.655 108.538 342.667 108.824 342.017ZM98.3585 341.211H103.338V342.55H98.3585V341.211ZM98.1635 348.751H103.481V350.103H98.1635V348.751ZM100.192 339.976H101.466V343.759H100.192V339.976ZM100.348 343.785H101.349V347.399H101.492V352.17H100.205V347.399H100.348V343.785ZM99.6455 346.112V346.892H102.064V346.112H99.6455ZM99.6455 344.331V345.085H102.064V344.331H99.6455ZM98.5665 343.252H103.195V347.971H98.5665V343.252ZM117.209 342.719H121.538V344.084H117.209V342.719ZM118.223 339.989H119.653V344.63C119.653 347.321 119.432 350.181 117.326 352.261C117.053 351.962 116.494 351.507 116.117 351.299C118.028 349.453 118.223 346.996 118.223 344.63V339.989ZM111.398 341.198H117.079V342.537H111.398V341.198ZM111.216 348.738H117.17V350.103H111.216V348.738ZM113.53 339.976H114.986V343.772H113.53V339.976ZM113.673 343.772H114.817V347.386H114.973V352.157H113.53V347.386H113.673V343.772ZM112.867 346.125V346.905H115.675V346.125H112.867ZM112.867 344.344V345.111H115.675V344.344H112.867ZM111.684 343.265H116.923V347.984H111.684V343.265ZM120.485 342.719H121.915V350.259C121.915 350.35 121.928 350.441 121.954 350.48C121.993 350.532 122.045 350.571 122.11 350.571C122.162 350.571 122.227 350.571 122.292 350.571C122.357 350.571 122.422 350.545 122.461 350.48C122.5 350.402 122.539 350.259 122.552 350.103C122.578 349.83 122.591 349.232 122.578 348.504C122.851 348.725 123.293 348.972 123.644 349.089C123.618 349.83 123.566 350.701 123.501 351.052C123.423 351.429 123.293 351.663 123.085 351.832C122.89 352.001 122.604 352.079 122.331 352.079C122.123 352.079 121.837 352.079 121.655 352.079C121.317 352.079 120.979 351.988 120.758 351.728C120.537 351.481 120.485 351.221 120.485 350.337V342.719ZM87.2045 361.172H88.7255V372.157H87.2045V361.172ZM85.2285 363.616H90.4415V365.072H85.2285V363.616ZM87.2955 364.201L88.2055 364.604C87.7115 366.463 86.7885 368.777 85.7875 370.064C85.6445 369.609 85.3065 368.959 85.0595 368.569C85.9695 367.529 86.8795 365.644 87.2955 364.201ZM89.5315 360.08L90.4025 361.354C89.0505 361.848 87.2695 362.173 85.7485 362.355C85.6835 362.004 85.4885 361.484 85.3325 361.146C86.8145 360.925 88.4525 360.522 89.5315 360.08ZM88.6865 365.137C89.0115 365.449 90.1555 366.749 90.4155 367.074L89.5055 368.296C89.2065 367.633 88.4005 366.32 88.0105 365.761L88.6865 365.137ZM94.4065 359.95H95.9405V372.157H94.4065V359.95ZM90.2205 368.335L97.2405 367.126L97.4745 368.595L90.4545 369.83L90.2205 368.335ZM91.0655 361.627L92.0795 360.743C92.7945 361.276 93.6915 362.056 94.0945 362.615L93.0025 363.59C92.6385 363.031 91.7805 362.199 91.0655 361.627ZM90.5845 365.046L91.5725 364.149C92.3265 364.682 93.2885 365.475 93.7305 366.047L92.6645 367.048C92.2485 366.476 91.3385 365.618 90.5845 365.046ZM99.1125 361.315H109.539V362.94H99.1125V361.315ZM98.3845 369.7H110.28V371.273H98.3845V369.7ZM103.364 362.199H105.145V370.324H103.364V362.199ZM118.08 370.259H122.396V371.572H118.08V370.259ZM117.469 363.512H118.873V372.17H117.469V363.512ZM118.08 363.512H122.422V367.035H118.08V365.8H120.992V364.747H118.08V363.512ZM116.728 361.341H123.267V363.772H121.811V362.589H118.119V363.772H116.728V361.341ZM119.159 359.95H120.68V361.965H119.159V359.95ZM118.08 367.854H122.981V372.105H121.538V369.128H118.08V367.854ZM113.699 362.433H114.986V364.058H113.699V362.433ZM111.996 363.512H113.374V370.74H111.996V363.512ZM112.893 365.254H115.714V366.255H112.893V365.254ZM111.203 370.35C112.308 370.142 113.998 369.765 115.61 369.401L115.753 370.623C114.336 371.039 112.815 371.455 111.632 371.78L111.203 370.35ZM114.244 368.686L115.467 368.166C116.104 369.102 116.741 370.35 116.975 371.195L115.649 371.793C115.441 370.961 114.843 369.661 114.244 368.686ZM112.763 363.512H116.338V368.036H112.763V366.918H114.973V364.63H112.763V363.512ZM113.322 359.963H114.167V360.249H114.609V360.678C114.089 361.666 113.257 363.018 111.892 364.162C111.697 363.837 111.255 363.343 110.943 363.135C112.113 362.212 112.893 360.99 113.322 359.963ZM113.699 359.963H114.739C115.519 360.587 116.442 361.484 116.871 362.147L115.883 363.304C115.519 362.654 114.674 361.588 113.946 361.029H113.699V359.963ZM124.502 362.381H129.546V363.837H124.502V362.381ZM126.348 360.145H127.804V363.096H126.348V360.145ZM132.614 362.355H136.397V363.837H132.614V362.355ZM130.443 370.09H135.097V371.546H130.443V370.09ZM131.834 359.95H133.446V366.723H131.834V359.95ZM129.754 366.086H135.942V372.105H134.356V367.542H131.262V372.157H129.754V366.086ZM124.216 369.466C125.568 369.232 127.622 368.816 129.533 368.387L129.689 369.83C127.908 370.259 125.984 370.701 124.528 371.026L124.216 369.466ZM124.84 364.448L126.075 364.214C126.4 365.618 126.608 367.373 126.634 368.582L125.295 368.842C125.321 367.659 125.113 365.839 124.84 364.448ZM127.739 364.084L129.26 364.344C129.052 365.995 128.74 367.906 128.467 369.115L127.167 368.855C127.427 367.594 127.674 365.566 127.739 364.084Z" fill="#121023"/>
<defs>
<clipPath id="clip0_6910_6126">
<rect width="48" height="48" fill="white" transform="translate(228.258 565)"/>
</clipPath>
<clipPath id="clip1_6910_6126">
<rect width="48" height="48" fill="white" transform="translate(114.375 506)"/>
</clipPath>
<clipPath id="clip2_6910_6126">
<rect width="48" height="48" fill="white" transform="translate(86.75 130)"/>
</clipPath>
</defs>
</svg>
