<svg width="40" height="40" viewBox="0 0 40 40" fill="none" xmlns="http://www.w3.org/2000/svg">
<path d="M10.3763 35.4201C10.0152 35.4201 9.69575 35.3159 9.41797 35.1076C9.14019 34.8993 9.0013 34.6284 9.0013 34.2951V30.7951C8.19575 30.3506 7.60547 29.7118 7.23047 28.8784C6.85547 28.0451 6.66797 27.1562 6.66797 26.2118V9.67008C6.66797 7.61453 7.73047 6.11453 9.85547 5.17008C11.9805 4.22564 15.3763 3.75342 20.043 3.75342C24.6541 3.75342 28.0221 4.22564 30.1471 5.17008C32.2721 6.11453 33.3346 7.61453 33.3346 9.67008V26.2118C33.3346 27.1562 33.1471 28.0451 32.7721 28.8784C32.3971 29.7118 31.8069 30.3506 31.0013 30.7951V34.2951C31.0013 34.6284 30.8624 34.8993 30.5846 35.1076C30.3069 35.3159 29.9874 35.4201 29.6263 35.4201H28.8346C28.4457 35.4201 28.1124 35.3159 27.8346 35.1076C27.5569 34.8993 27.418 34.6284 27.418 34.2951V32.0034H12.5846V34.2951C12.5846 34.6284 12.4457 34.8993 12.168 35.1076C11.8902 35.3159 11.5569 35.4201 11.168 35.4201H10.3763ZM20.043 8.58675H30.8346H9.16797H20.043ZM27.418 20.7951H9.16797H30.8346H27.418ZM9.16797 18.2951H30.8346V11.0868H9.16797V18.2951ZM13.5846 27.4201C14.2235 27.4201 14.7652 27.1979 15.2096 26.7534C15.6541 26.309 15.8763 25.7673 15.8763 25.1284C15.8763 24.4895 15.6541 23.9479 15.2096 23.5034C14.7652 23.059 14.2235 22.8368 13.5846 22.8368C12.9457 22.8368 12.4041 23.059 11.9596 23.5034C11.5152 23.9479 11.293 24.4895 11.293 25.1284C11.293 25.7673 11.5152 26.309 11.9596 26.7534C12.4041 27.1979 12.9457 27.4201 13.5846 27.4201ZM26.418 27.4201C27.0569 27.4201 27.5985 27.1979 28.043 26.7534C28.4874 26.309 28.7096 25.7673 28.7096 25.1284C28.7096 24.4895 28.4874 23.9479 28.043 23.5034C27.5985 23.059 27.0569 22.8368 26.418 22.8368C25.7791 22.8368 25.2374 23.059 24.793 23.5034C24.3485 23.9479 24.1263 24.4895 24.1263 25.1284C24.1263 25.7673 24.3485 26.309 24.793 26.7534C25.2374 27.1979 25.7791 27.4201 26.418 27.4201ZM9.16797 8.58675H30.8346C30.168 7.86453 28.8902 7.29508 27.0013 6.87842C25.1124 6.46175 22.793 6.25342 20.043 6.25342C16.7652 6.25342 14.2513 6.44092 12.5013 6.81592C10.7513 7.19092 9.64019 7.7812 9.16797 8.58675ZM12.5846 29.5034H27.418C28.3902 29.5034 29.2027 29.1284 29.8555 28.3784C30.5082 27.6284 30.8346 26.7673 30.8346 25.7951V20.7951H9.16797V25.7951C9.16797 26.7673 9.49436 27.6284 10.1471 28.3784C10.7999 29.1284 11.6124 29.5034 12.5846 29.5034Z" fill="white"/>
</svg>
