<svg width="253" height="147" viewBox="0 0 253 147" fill="none" xmlns="http://www.w3.org/2000/svg">
<rect x="2.66797" y="35.916" width="247.772" height="75" rx="10" fill="#E099E1"/>
<path d="M87.9429 68.6166L87.9429 76.7276L89.8791 76.7276L89.8791 70.5044L99.1599 70.5044L99.1599 76.6476L101.176 76.6476L101.176 68.6166L87.9429 68.6166ZM88.951 73.944L88.951 75.8317L100.28 75.8317L100.28 73.944L88.951 73.944ZM93.4954 65.8329L93.4954 80.8551L95.5276 80.8551L95.5276 65.8329L93.4954 65.8329ZM109.833 66.6328L109.833 68.4246L117.738 68.4246L117.738 66.6328L109.833 66.6328ZM109.417 72.3602L109.417 74.1839L118.058 74.1839L118.058 72.3602L109.417 72.3602ZM114.553 67.4168L114.553 80.8551L116.377 80.8551L116.377 67.4168L114.553 67.4168ZM110.953 67.4488L110.953 72.8721C110.953 75.0478 110.745 78.0235 109.049 79.8633C109.481 80.1032 110.185 80.6472 110.505 80.9671C112.473 78.9034 112.761 75.5278 112.761 72.8881L112.761 67.4488L110.953 67.4488ZM103.24 66.5849L103.24 68.3286L109.081 68.3286L109.081 66.5849L103.24 66.5849ZM105.032 71.5283L105.032 73.2241L107.241 73.2241L107.241 77.2236L105.032 77.2236L105.032 78.9194L108.889 78.9194L108.889 71.5283L105.032 71.5283ZM105.096 67.4328C104.712 69.8645 104.024 72.1842 102.888 73.688C103.16 74.2479 103.496 75.4638 103.576 75.9757C105.224 73.992 106.233 70.8723 106.841 67.8327L105.096 67.4328ZM104.216 71.5283L104.216 80.1032L105.8 80.1032L105.8 71.5283L104.216 71.5283ZM128.17 65.9129L128.17 68.4246L130.043 68.4246L130.043 65.9129L128.17 65.9129ZM124.618 67.5927L124.618 70.7604L126.314 70.7604L126.314 69.2245L132.107 69.2245L132.107 70.7444L133.883 70.7444L133.883 67.5927L124.618 67.5927ZM125.802 70.5204L125.802 72.1682L132.651 72.1682L132.651 70.5204L125.802 70.5204ZM124.842 73.32L124.842 75.0318L133.819 75.0318L133.819 73.32L124.842 73.32ZM126.65 74.1519C126.554 76.9356 126.298 78.4714 123.402 79.3353C123.77 79.6873 124.25 80.3912 124.41 80.8551C127.85 79.7033 128.33 77.5915 128.474 74.1519L126.65 74.1519ZM129.595 73.96L129.595 78.5194C129.595 80.1672 129.915 80.7111 131.323 80.7111C131.579 80.7111 132.107 80.7111 132.395 80.7111C133.515 80.7111 133.963 80.1032 134.123 77.8475C133.643 77.7355 132.875 77.4315 132.523 77.1436C132.491 78.7754 132.443 79.0314 132.187 79.0314C132.075 79.0314 131.739 79.0314 131.643 79.0314C131.435 79.0314 131.403 78.9674 131.403 78.5034L131.403 73.96L129.595 73.96ZM119.69 66.5209L119.69 80.8711L121.37 80.8711L121.37 68.2327L123.466 68.2327L123.466 66.5209L119.69 66.5209ZM122.874 66.5209L122.874 67.0648C122.65 68.0887 122.138 70.2964 121.69 71.7362C122.602 72.8081 122.81 73.8 122.81 74.5519C122.81 74.9998 122.73 75.3198 122.538 75.4638C122.426 75.5598 122.266 75.5918 122.09 75.5918C121.898 75.6078 121.69 75.5918 121.402 75.5758C121.658 76.0397 121.802 76.7596 121.818 77.2236C122.186 77.2236 122.57 77.2076 122.858 77.1756C123.21 77.1276 123.514 77.0156 123.77 76.8396C124.282 76.4877 124.49 75.8157 124.49 74.7759C124.49 73.848 124.298 72.7761 123.306 71.5283C123.77 70.2804 124.298 68.5366 124.714 67.1608L123.466 66.4569L123.194 66.5209L122.874 66.5209ZM136.763 68.8566L136.763 70.2164L140.78 70.2164L140.78 68.8566L136.763 68.8566ZM144.156 68.8566L144.156 70.2164L148.188 70.2164L148.188 68.8566L144.156 68.8566ZM147.436 66.4729L147.436 78.5034C147.436 78.8234 147.324 78.9194 146.988 78.9194C146.652 78.9354 145.452 78.9514 144.444 78.8714C144.716 79.3993 145.036 80.3112 145.132 80.8551C146.684 80.8551 147.74 80.8071 148.444 80.4872C149.148 80.1832 149.372 79.6393 149.372 78.5194L149.372 66.4729L147.436 66.4729ZM136.923 66.4729L136.923 68.0247L140.156 68.0247L140.156 71.1443L136.923 71.1443L136.923 72.6801L141.964 72.6801L141.964 66.4729L136.923 66.4729ZM148.476 66.4729L143.068 66.4729L143.068 72.7121L148.476 72.7121L148.476 71.1763L144.892 71.1763L144.892 68.0247L148.476 68.0247L148.476 66.4729ZM135.819 66.4729L135.819 80.8551L137.723 80.8551L137.723 66.4729L135.819 66.4729ZM152.237 67.4008L152.237 80.5352L154.253 80.5352L154.253 69.3525L162.782 69.3525L162.782 80.5192L164.894 80.5192L164.894 67.4008L152.237 67.4008ZM153.197 77.2556L153.197 79.2393L164.094 79.2393L164.094 77.2556L153.197 77.2556Z" fill="#121023"/>
<path d="M126.516 1.91602L126.552 35.9153" stroke="white" stroke-width="2"/>
<path d="M127.137 110.916L127.685 144.916" stroke="white" stroke-width="2"/>
</svg>
