<svg width="249" height="145" viewBox="0 0 249 145" fill="none" xmlns="http://www.w3.org/2000/svg">
<rect x="0.617188" y="34.3154" width="247.772" height="75" rx="10" fill="#E099E1"/>
<path d="M71.4443 65.7197L73.3164 65.7197L73.3164 79.2381L71.4443 79.2381L71.4443 65.7197ZM69.012 68.7273L75.4286 68.7273L75.4286 70.5191L69.012 70.5191L69.012 68.7273ZM71.5563 69.4472L72.6764 69.9432C72.0683 72.2309 70.9322 75.0786 69.7001 76.6624C69.5241 76.1024 69.1081 75.3025 68.804 74.8226C69.9241 73.5427 71.0442 71.223 71.5563 69.4472ZM74.3085 64.3759L75.3806 65.9437C73.7165 66.5516 71.5243 66.9515 69.6521 67.1755C69.5721 66.7436 69.3321 66.1036 69.1401 65.6877C70.9642 65.4157 72.9804 64.9198 74.3085 64.3759ZM73.2684 70.5991C73.6685 70.9831 75.0766 72.5829 75.3966 72.9828L74.2765 74.4866C73.9085 73.6707 72.9164 72.0549 72.4363 71.367L73.2684 70.5991ZM80.309 64.2159L82.1972 64.2159L82.1972 79.2381L80.309 79.2381L80.309 64.2159ZM75.1566 74.5346L83.7974 73.0468L84.0854 74.8546L75.4446 76.3744L75.1566 74.5346ZM76.1967 66.2796L77.4448 65.1918C78.3249 65.8477 79.429 66.8076 79.925 67.4955L78.5809 68.6953C78.1329 68.0074 77.0768 66.9835 76.1967 66.2796ZM75.6046 70.4871L76.8207 69.3833C77.7488 70.0392 78.9329 71.0151 79.477 71.719L78.1649 72.9508C77.6528 72.2469 76.5327 71.191 75.6046 70.4871ZM86.1016 65.8957L98.9347 65.8957L98.9347 67.8954L86.1016 67.8954L86.1016 65.8957ZM85.2055 76.2144L99.8468 76.2144L99.8468 78.1502L85.2055 78.1502L85.2055 76.2144ZM91.334 66.9835L93.5262 66.9835L93.5262 76.9823L91.334 76.9823L91.334 66.9835ZM109.448 76.9023L114.76 76.9023L114.76 78.5181L109.448 78.5181L109.448 76.9023ZM108.696 68.5993L110.424 68.5993L110.424 79.2541L108.696 79.2541L108.696 68.5993ZM109.448 68.5993L114.792 68.5993L114.792 72.9348L109.448 72.9348L109.448 71.415L113.032 71.415L113.032 70.1192L109.448 70.1192L109.448 68.5993ZM107.783 65.9277L115.832 65.9277L115.832 68.9193L114.04 68.9193L114.04 67.4635L109.496 67.4635L109.496 68.9193L107.783 68.9193L107.783 65.9277ZM110.776 64.2159L112.648 64.2159L112.648 66.6956L110.776 66.6956L110.776 64.2159ZM109.448 73.9427L115.48 73.9427L115.48 79.1741L113.704 79.1741L113.704 75.5105L109.448 75.5105L109.448 73.9427ZM104.055 67.2715L105.639 67.2715L105.639 69.2713L104.055 69.2713L104.055 67.2715ZM101.959 68.5993L103.655 68.5993L103.655 77.4943L101.959 77.4943L101.959 68.5993ZM103.063 70.7431L106.535 70.7431L106.535 71.9749L103.063 71.9749L103.063 70.7431ZM100.983 77.0143C102.343 76.7584 104.423 76.2944 106.407 75.8465L106.583 77.3503C104.839 77.8622 102.967 78.3742 101.511 78.7741L100.983 77.0143ZM104.727 74.9666L106.231 74.3267C107.015 75.4785 107.799 77.0143 108.088 78.0542L106.455 78.7901C106.199 77.7662 105.463 76.1664 104.727 74.9666ZM102.903 68.5993L107.303 68.5993L107.303 74.1667L102.903 74.1667L102.903 72.7908L105.623 72.7908L105.623 69.9752L102.903 69.9752L102.903 68.5993ZM103.591 64.2319L104.631 64.2319L104.631 64.5838L105.175 64.5838L105.175 65.1118C104.535 66.3276 103.511 67.9914 101.831 69.3992C101.591 68.9993 101.047 68.3914 100.663 68.1354C102.103 66.9995 103.063 65.4957 103.591 64.2319ZM104.055 64.2319L105.335 64.2319C106.295 64.9998 107.431 66.1036 107.959 66.9195L106.743 68.3434C106.295 67.5435 105.255 66.2316 104.359 65.5437L104.055 65.5437L104.055 64.2319ZM117.4 65.5597L131.61 65.5597L131.61 67.3515L117.4 67.3515L117.4 65.5597ZM120.905 72.4389L128.073 72.4389L128.073 73.9267L120.905 73.9267L120.905 72.4389ZM120.569 74.9826L128.425 74.9826L128.425 76.5184L120.569 76.5184L120.569 74.9826ZM123.529 73.1588L125.353 73.1588L125.353 78.7901L123.529 78.7901L123.529 73.1588ZM117.992 68.5513L129.577 68.5513L129.577 70.3111L119.929 70.3111L119.929 79.2221L117.992 79.2221L117.992 68.5513ZM129.033 68.5513L131.018 68.5513L131.018 77.3023C131.018 78.2302 130.794 78.6621 130.137 78.9341C129.497 79.2061 128.553 79.2221 127.257 79.2221C127.161 78.7261 126.873 78.0222 126.617 77.5903C127.401 77.6383 128.409 77.6383 128.665 77.6223C128.953 77.6063 129.033 77.5263 129.033 77.2863L129.033 68.5513ZM121.513 70.7431L123.049 70.2951C123.417 70.8071 123.785 71.543 123.961 72.0229L122.361 72.5669C122.217 72.0549 121.849 71.303 121.513 70.7431ZM126.025 70.3271L127.657 70.7751C127.225 71.543 126.793 72.2949 126.425 72.8068L125.065 72.4069C125.401 71.815 125.817 70.9351 126.025 70.3271ZM123.465 64.3279L125.577 64.3279L125.577 69.7832L123.465 69.7832L123.465 64.3279ZM141.45 76.9023L146.763 76.9023L146.763 78.5181L141.45 78.5181L141.45 76.9023ZM140.698 68.5993L142.427 68.5993L142.427 79.2541L140.698 79.2541L140.698 68.5993ZM141.45 68.5993L146.795 68.5993L146.795 72.9348L141.45 72.9348L141.45 71.415L145.035 71.415L145.035 70.1192L141.45 70.1192L141.45 68.5993ZM139.786 65.9277L147.835 65.9277L147.835 68.9193L146.043 68.9193L146.043 67.4635L141.498 67.4635L141.498 68.9193L139.786 68.9193L139.786 65.9277ZM142.779 64.2159L144.651 64.2159L144.651 66.6956L142.779 66.6956L142.779 64.2159ZM141.45 73.9427L147.483 73.9427L147.483 79.1741L145.707 79.1741L145.707 75.5105L141.45 75.5105L141.45 73.9427ZM136.058 67.2715L137.642 67.2715L137.642 69.2713L136.058 69.2713L136.058 67.2715ZM133.962 68.5993L135.658 68.5993L135.658 77.4943L133.962 77.4943L133.962 68.5993ZM135.066 70.7431L138.538 70.7431L138.538 71.9749L135.066 71.9749L135.066 70.7431ZM132.986 77.0143C134.346 76.7584 136.426 76.2944 138.41 75.8465L138.586 77.3503C136.842 77.8622 134.97 78.3742 133.514 78.7741L132.986 77.0143ZM136.73 74.9666L138.234 74.3267C139.018 75.4785 139.802 77.0143 140.09 78.0542L138.458 78.7901C138.202 77.7662 137.466 76.1664 136.73 74.9666ZM134.906 68.5993L139.306 68.5993L139.306 74.1667L134.906 74.1667L134.906 72.7908L137.626 72.7908L137.626 69.9752L134.906 69.9752L134.906 68.5993ZM135.594 64.2319L136.634 64.2319L136.634 64.5838L137.178 64.5838L137.178 65.1118C136.538 66.3276 135.514 67.9914 133.834 69.3992C133.594 68.9993 133.05 68.3914 132.666 68.1354C134.106 66.9995 135.066 65.4957 135.594 64.2319ZM136.058 64.2319L137.338 64.2319C138.298 64.9998 139.434 66.1036 139.962 66.9195L138.746 68.3434C138.298 67.5435 137.258 66.2316 136.362 65.5437L136.058 65.5437L136.058 64.2319ZM150.715 67.2555L154.732 67.2555L154.732 68.6153L150.715 68.6153L150.715 67.2555ZM158.108 67.2555L162.14 67.2555L162.14 68.6153L158.108 68.6153L158.108 67.2555ZM161.388 64.8718L163.324 64.8718L163.324 76.9183C163.324 78.0382 163.1 78.5821 162.396 78.8861C161.692 79.2061 160.636 79.2541 159.084 79.2541C158.988 78.7101 158.668 77.7982 158.396 77.2703C159.404 77.3503 160.604 77.3343 160.94 77.3183C161.276 77.3183 161.388 77.2223 161.388 76.9023L161.388 64.8718ZM150.875 64.8718L155.916 64.8718L155.916 71.079L150.875 71.079L150.875 69.5432L154.108 69.5432L154.108 66.4236L150.875 66.4236L150.875 64.8718ZM162.428 64.8718L162.428 66.4236L158.844 66.4236L158.844 69.5752L162.428 69.5752L162.428 71.111L157.02 71.111L157.02 64.8718L162.428 64.8718ZM149.771 64.8718L151.675 64.8718L151.675 79.2541L149.771 79.2541L149.771 64.8718ZM166.189 65.7997L178.846 65.7997L178.846 78.9181L176.734 78.9181L176.734 67.7514L168.205 67.7514L168.205 78.9341L166.189 78.9341L166.189 65.7997ZM167.149 75.6545L178.046 75.6545L178.046 77.6383L167.149 77.6383L167.149 75.6545Z" fill="#121023"/>
<path d="M124.484 0.31543L124.484 35.3154" stroke="white" stroke-width="2"/>
<path d="M125.359 109.312L125.359 144.312" stroke="white" stroke-width="2"/>
</svg>
