<svg width="168" height="235" viewBox="0 0 168 235" fill="none" xmlns="http://www.w3.org/2000/svg">
<path d="M0.839844 117L45.8667 117" stroke="white" stroke-width="4"/>
<path d="M129 117H168" stroke="white" stroke-width="4"/>
<rect width="90.7468" height="237.304" rx="10" transform="matrix(0.999919 -0.0126935 -0.186315 0.98249 65.875 1.15186)" fill="#E099E1"/>
<path d="M92.8181 58.6394L91.1178 67.6057L93.2957 67.578L94.6002 60.6986L105.039 60.5661L103.752 67.3571L106.019 67.3283L107.703 58.4505L92.8181 58.6394ZM92.8353 64.5141L92.4396 66.6009L105.183 66.4391L105.578 64.3523L92.8353 64.5141ZM99.6472 55.483L96.4981 72.0891L98.7839 72.06L101.933 55.454L99.6472 55.483ZM94.827 82.8897L94.4514 84.8704L103.343 84.7575L103.718 82.7768L94.827 82.8897ZM93.1584 89.2268L92.7761 91.2429L102.495 91.1195L102.878 89.1034L93.1584 89.2268ZM99.9722 83.6888L97.1551 98.5441L99.207 98.518L102.024 83.6628L99.9722 83.6888ZM95.9158 83.7756L94.7789 89.7708C94.3228 92.1759 93.4651 95.4682 91.1716 97.5262C91.6072 97.7853 92.2851 98.3766 92.578 98.7257C95.2245 96.4162 96.2561 92.6806 96.8094 89.7626L97.9497 83.7498L95.9158 83.7756ZM87.4216 82.9308L87.0561 84.8584L93.6255 84.775L93.9911 82.8474L87.4216 82.9308ZM88.4012 88.3698L88.0457 90.2444L90.5295 90.2128L89.6911 94.634L87.2073 94.6656L86.8518 96.5402L91.1894 96.4851L92.7388 88.3147L88.4012 88.3698ZM89.3317 83.8416C88.39 86.5351 87.1298 89.1093 85.5366 90.7878C85.7252 91.4029 85.8483 92.7422 85.831 93.307C88.1007 91.0905 89.8886 87.6276 91.2097 84.2588L89.3317 83.8416ZM87.4833 88.3814L85.6857 97.8605L87.4675 97.8379L89.2651 88.3588L87.4833 88.3814ZM92.5752 108.588L92.0486 111.364L94.1545 111.338L94.681 108.561L92.5752 108.588ZM88.2274 110.495L87.5633 113.997L89.4712 113.973L89.7931 112.275L96.3086 112.192L95.99 113.872L97.9878 113.847L98.6485 110.363L88.2274 110.495ZM88.9455 113.715L88.6001 115.536L96.3035 115.439L96.6489 113.617L88.9455 113.715ZM87.2787 116.823L86.9199 118.716L97.0171 118.587L97.3759 116.695L87.2787 116.823ZM89.1382 117.717C88.4466 120.796 87.8367 122.497 84.3979 123.493C84.7381 123.877 85.1305 124.648 85.2132 125.159C89.3243 123.837 90.307 121.495 91.19 117.691L89.1382 117.717ZM92.4901 117.463L91.5344 122.503C91.1889 124.325 91.4349 124.921 93.0187 124.901C93.3067 124.898 93.9007 124.89 94.2246 124.886C95.4845 124.87 96.1159 124.191 96.7688 121.696C96.2523 121.579 95.4521 121.254 95.1165 120.94C94.7384 122.745 94.6308 123.028 94.3428 123.032C94.2168 123.034 93.8388 123.038 93.7309 123.04C93.4969 123.043 93.4743 122.972 93.5715 122.46L94.524 117.437L92.4901 117.463ZM82.9085 109.381L79.9003 125.244L81.7901 125.22L84.4395 111.249L86.7973 111.219L87.1562 109.327L82.9085 109.381ZM86.4902 109.335L86.3762 109.937C85.9096 111.072 84.8708 113.52 84.065 115.118C84.8662 116.289 84.8923 117.383 84.7347 118.214C84.6408 118.709 84.4837 119.064 84.2375 119.226C84.0914 119.334 83.9047 119.371 83.7068 119.374C83.4874 119.394 83.2568 119.38 82.9362 119.366C83.1269 119.875 83.138 120.669 83.0587 121.182C83.4727 121.176 83.908 121.153 84.2387 121.114C84.6447 121.056 85.0101 120.927 85.335 120.729C85.9848 120.333 86.3596 119.587 86.5776 118.438C86.7721 117.412 86.7808 116.23 85.9265 114.865C86.71 113.479 87.6695 111.543 88.4259 110.017L87.1696 109.256L86.8502 109.331L86.4902 109.335ZM78.5943 138.475L78.3092 139.978L82.8268 139.921L83.1119 138.417L78.5943 138.475ZM86.9096 138.369L86.6245 139.872L91.1602 139.815L91.4452 138.312L86.9096 138.369ZM91.099 135.687L88.577 148.986C88.51 149.34 88.3639 149.448 87.9859 149.453C87.6046 149.475 86.2513 149.51 85.1342 149.436C85.3295 150.016 85.4983 151.019 85.4923 151.619C87.2381 151.597 88.4361 151.529 89.2951 151.165C90.1508 150.819 90.5168 150.214 90.7515 148.976L93.2768 135.66L91.099 135.687ZM79.274 135.837L78.9486 137.553L82.5844 137.507L81.9304 140.955L78.2947 141.001L77.9727 142.699L83.6423 142.627L84.9435 135.765L79.274 135.837ZM92.2689 135.672L86.1854 135.75L84.8775 142.647L90.961 142.57L91.2829 140.872L87.2513 140.923L87.9119 137.439L91.9436 137.388L92.2689 135.672ZM78.0321 135.853L75.0171 151.752L77.1589 151.725L80.1739 135.826L78.0321 135.853ZM73.275 163.4L70.5216 177.919L72.7895 177.891L75.1337 165.529L84.7269 165.407L82.386 177.751L84.7618 177.721L87.5119 163.219L73.275 163.4ZM72.2891 174.28L71.8732 176.473L84.1302 176.318L84.5461 174.125L72.2891 174.28Z" fill="#121023"/>
</svg>
