<svg width="860" height="148" viewBox="0 0 860 148" fill="none" xmlns="http://www.w3.org/2000/svg">
<path d="M29.6348 36.5767V94.4394C35.0924 90.7543 41.4777 86.519 49.0365 81.5688C75.7242 64.078 73.7594 37.6768 73.6503 36.5767L73.623 35.9992C73.5957 33.7991 72.9135 14.2182 53.1297 13.6131C52.7477 13.6131 52.3656 13.5856 52.0109 13.5856C45.2708 13.5856 39.9769 15.4557 36.293 19.1409C29.6348 25.7687 29.6348 36.4667 29.6348 36.5767ZM27.6428 10.313C33.728 4.2627 41.9144 1.18255 51.9836 1.18255C52.5021 1.18255 52.9933 1.18256 53.5117 1.21006C70.3484 1.70509 78.3438 11.358 82.0823 19.3609C85.5752 26.8413 85.9299 34.0191 85.9572 35.7242C86.2301 39.4644 87.5945 71.1183 55.7767 91.9918C44.916 99.1146 36.3476 104.807 29.662 109.455V145.564H17.3552V118.586C13.8623 121.473 11.652 123.756 10.4513 125.708L0 119.191C2.75609 114.68 7.55877 110.143 17.3552 103.02V36.6867C17.3279 36.1367 17.1915 20.736 27.6428 10.313ZM242.645 16.1157L232.275 22.7986C228.155 16.2808 221.142 12.4031 213.556 12.4031C201.303 12.4031 191.343 22.441 191.343 34.7891V111.243C191.343 123.591 201.303 133.629 213.556 133.629C221.66 133.629 229.137 129.146 233.067 121.913L243.845 127.881C237.76 139.074 226.163 146.032 213.556 146.032C194.536 146.032 179.037 130.439 179.037 111.243V34.7891C179.037 15.5932 194.509 0 213.556 0C225.371 0 236.232 6.02277 242.645 16.1157ZM266.003 111.27V34.7891C266.003 22.441 275.963 12.4031 288.216 12.4031C300.468 12.4031 310.428 22.441 310.428 34.7891V111.243C310.428 123.591 300.468 133.629 288.216 133.629C275.963 133.656 266.003 123.618 266.003 111.27ZM288.216 0C269.196 0 253.696 15.5932 253.696 34.7891V111.243C253.696 130.439 269.169 146.032 288.216 146.032C307.263 146.032 322.735 130.439 322.735 111.243V34.7891C322.735 15.6207 307.263 0 288.216 0ZM163.592 6.21528V111.27C163.592 130.466 148.119 146.059 129.072 146.059V133.656C141.325 133.656 151.285 123.618 151.285 111.27V98.5371C145.281 103.652 137.531 106.732 129.072 106.732C110.025 106.732 94.5529 91.1393 94.5529 71.9434V6.21528H106.86V71.9434C106.86 84.2914 116.82 94.3294 129.072 94.3294C141.325 94.3294 151.285 84.2914 151.285 71.9434V6.21528H163.592ZM403.126 34.7891V122.738C403.18 131.951 411.448 132.666 413.959 132.666V145.069C406.946 145.069 401.297 142.924 397.149 138.689C390.846 132.254 390.791 123.618 390.819 122.656V34.7891C390.819 22.441 380.859 12.4031 368.606 12.4031C356.354 12.4031 346.394 22.441 346.394 34.7891V142.622H334.087V34.7891C334.087 15.6207 349.559 0 368.606 0C387.626 0 403.126 15.6207 403.126 34.7891ZM596.761 14.1357C600.609 6.82032 607.84 2.77762 617.063 2.77762V15.1807C610.869 15.1807 608.713 17.9033 607.622 19.9659C606.285 22.4685 606.203 25.1087 606.203 25.1362V118.998C606.203 143.419 591.986 146.059 585.873 146.059C582.408 146.059 576.295 145.207 571.683 139.982C567.072 145.207 560.986 146.059 557.494 146.059C551.381 146.059 537.164 143.419 537.164 118.998V31.6815C537.164 16.8033 521.528 15.3182 519.181 15.1807H502.89V144.354H490.638V15.1807H466.243C457.101 15.3732 456.392 23.5961 456.392 26.0987H444.085C444.085 16.8033 448.096 9.51545 455.355 5.63776C460.567 2.86013 465.67 2.77762 466.243 2.77762H519.645C520.382 2.80512 527.122 3.19015 534.081 6.60031C544.041 11.523 549.498 20.4059 549.498 31.654V118.971C549.498 133.656 555.338 133.656 557.521 133.656C559.731 133.656 565.544 133.656 565.544 118.971V75.271H577.851V118.971C577.851 133.656 583.69 133.656 585.9 133.656C588.111 133.656 593.923 133.656 593.923 118.971V25.1087C593.923 24.5311 594.005 19.3884 596.761 14.1357Z" fill="url(#paint0_linear_19_23)"/>
<path d="M677.873 146.059V142.455L722.999 88.6707C730.062 80.2612 735.565 73.2377 739.509 67.6005C743.453 61.9171 746.228 56.8806 747.833 52.491C749.438 48.0552 750.241 43.4807 750.241 38.7676C750.241 32.576 748.819 27.0543 745.975 22.2026C743.178 17.3509 739.326 13.5388 734.419 10.7664C729.557 7.99404 724.008 6.60784 717.771 6.60784C711.259 6.60784 705.527 8.10956 700.574 11.113C695.621 14.0702 691.746 18.044 688.948 23.0343C686.151 28.0246 684.752 33.5463 684.752 39.5994H680.349C680.349 32.7146 681.931 26.4536 685.096 20.8164C688.306 15.133 692.709 10.6047 698.304 7.23164C703.944 3.85855 710.434 2.17201 717.771 2.17201C724.834 2.17201 731.14 3.76614 736.689 6.9544C742.238 10.0964 746.618 14.4399 749.828 19.9846C753.038 25.4832 754.643 31.7442 754.643 38.7676C754.643 43.989 753.772 48.9793 752.029 53.7386C750.332 58.4978 747.42 63.8116 743.293 69.6798C739.211 75.5481 733.547 82.8025 726.301 91.4431L684.752 141.069V141.624H762.898V146.059H677.873Z" fill="url(#paint1_linear_19_23)"/>
<path d="M820.377 148C814.415 148 808.889 146.637 803.798 143.911C798.708 141.185 794.259 137.095 790.453 131.643C786.692 126.144 783.757 119.236 781.648 110.919C779.584 102.602 778.552 92.8755 778.552 81.7398C778.552 72.175 779.217 62.7026 780.547 53.3227C781.923 43.8966 784.216 35.3252 787.426 27.6087C790.636 19.8922 795.039 13.7237 800.634 9.103C806.229 4.48234 813.268 2.17201 821.752 2.17201C828.723 2.17201 834.8 3.76614 839.982 6.9544C845.164 10.0964 849.269 14.4861 852.295 20.1233C855.322 25.7143 857.065 32.2063 857.524 39.5994H853.121C852.433 29.8498 849.337 21.9253 843.834 15.8261C838.377 9.68058 831.016 6.60784 821.752 6.60784C808.912 6.60784 799.235 13.2385 792.723 26.4998C786.211 39.7149 782.955 58.7751 782.955 83.6804H783.505C785.018 78.9674 787.564 74.7857 791.141 71.1353C794.764 67.4388 799.052 64.5509 804.004 62.4716C808.957 60.3461 814.14 59.2834 819.551 59.2834C826.935 59.2834 833.676 61.224 839.776 65.1054C845.921 68.9867 850.828 74.2774 854.497 80.9774C858.166 87.6773 860 95.2321 860 103.642C860 111.497 858.326 118.797 854.978 125.544C851.676 132.29 847.044 137.719 841.083 141.831C835.167 145.944 828.265 148 820.377 148ZM820.377 143.564C827.164 143.564 833.195 141.762 838.469 138.158C843.788 134.554 847.962 129.725 850.988 123.672C854.061 117.619 855.597 110.942 855.597 103.642C855.597 96.1562 853.969 89.4101 850.713 83.4032C847.503 77.3501 843.146 72.5678 837.643 69.0561C832.186 65.4981 826.063 63.7192 819.276 63.7192C813.91 63.7192 808.934 64.8513 804.348 67.1154C799.762 69.3333 795.841 72.406 792.585 76.3336C789.375 80.2149 787.082 84.6739 785.706 89.7104C784.33 94.7469 784.147 100.038 785.156 105.582C786.715 113.9 789.146 120.877 792.448 126.514C795.795 132.151 799.831 136.402 804.555 139.267C809.324 142.132 814.598 143.564 820.377 143.564Z" fill="url(#paint2_linear_19_23)"/>
<defs>
<linearGradient id="paint0_linear_19_23" x1="430" y1="0" x2="430" y2="148" gradientUnits="userSpaceOnUse">
<stop stop-color="#E5E5E5"/>
<stop offset="1" stop-color="#737373"/>
</linearGradient>
<linearGradient id="paint1_linear_19_23" x1="430" y1="0" x2="430" y2="148" gradientUnits="userSpaceOnUse">
<stop stop-color="#E5E5E5"/>
<stop offset="1" stop-color="#737373"/>
</linearGradient>
<linearGradient id="paint2_linear_19_23" x1="430" y1="0" x2="430" y2="148" gradientUnits="userSpaceOnUse">
<stop stop-color="#E5E5E5"/>
<stop offset="1" stop-color="#737373"/>
</linearGradient>
</defs>
</svg>
