<svg width="1611" height="379" viewBox="0 0 1611 379" fill="none" xmlns="http://www.w3.org/2000/svg">
<path d="M77.3237 94.6967V244.503C91.5638 234.962 108.225 223.997 127.947 211.181C197.581 165.897 192.455 97.5447 192.17 94.6967L192.099 93.2015C192.028 87.5054 190.248 36.8107 138.627 35.2442C137.631 35.2442 136.634 35.1731 135.708 35.1731C118.122 35.1731 104.309 40.0147 94.6967 49.5555C77.3237 66.7149 77.3237 94.4119 77.3237 94.6967ZM72.1262 26.7002C88.0039 11.0361 109.364 3.06161 135.637 3.06161C136.99 3.06161 138.271 3.06164 139.624 3.13284C183.555 4.41445 204.417 29.4058 214.171 50.1252C223.285 69.4917 224.21 88.075 224.282 92.4895C224.994 102.173 228.554 184.125 145.534 238.166C117.196 256.607 94.839 271.345 77.3949 283.378V376.864H45.2835V307.017C36.1698 314.493 30.4027 320.402 27.2698 325.457L0 308.583C7.19125 296.906 19.7225 285.158 45.2835 266.717V94.9815C45.2123 93.5575 44.8564 53.6852 72.1262 26.7002ZM633.115 41.7235L606.059 59.0252C595.307 42.1507 577.009 32.1114 557.215 32.1114C525.246 32.1114 499.258 58.0996 499.258 90.0686V288.006C499.258 319.975 525.246 345.963 557.215 345.963C578.362 345.963 597.871 334.358 608.124 315.632L636.248 331.082C620.37 360.061 590.11 378.075 557.215 378.075C507.588 378.075 467.146 337.704 467.146 288.006V90.0686C467.146 40.3707 507.517 0 557.215 0C588.045 0 616.383 15.5929 633.115 41.7235ZM694.062 288.077V90.0686C694.062 58.0996 720.051 32.1114 752.02 32.1114C783.989 32.1114 809.977 58.0996 809.977 90.0686V288.006C809.977 319.975 783.989 345.963 752.02 345.963C720.051 346.034 694.062 320.046 694.062 288.077ZM752.02 0C702.393 0 661.951 40.3707 661.951 90.0686V288.006C661.951 337.704 702.322 378.075 752.02 378.075C801.718 378.075 842.088 337.704 842.088 288.006V90.0686C842.088 40.4419 801.718 0 752.02 0ZM426.847 16.0913V288.077C426.847 337.775 386.476 378.146 336.778 378.146V346.034C368.747 346.034 394.736 320.046 394.736 288.077V255.111C379.072 268.355 358.851 276.329 336.778 276.329C287.08 276.329 246.71 235.958 246.71 186.261V16.0913H278.821V186.261C278.821 218.23 304.809 244.218 336.778 244.218C368.747 244.218 394.736 218.23 394.736 186.261V16.0913H426.847ZM1051.85 90.0686V317.768C1051.99 341.62 1073.56 343.471 1080.11 343.471V375.583C1061.81 375.583 1047.07 370.029 1036.25 359.064C1019.8 342.403 1019.66 320.046 1019.73 317.554V90.0686C1019.73 58.0996 993.746 32.1114 961.776 32.1114C929.807 32.1114 903.819 58.0996 903.819 90.0686V369.246H871.708V90.0686C871.708 40.4419 912.079 0 961.776 0C1011.4 0 1051.85 40.4419 1051.85 90.0686ZM1557.08 36.5971C1567.12 17.6577 1585.99 7.19123 1610.06 7.19123V39.3027C1593.89 39.3027 1588.27 46.3515 1585.42 51.6916C1581.93 58.1708 1581.72 65.0061 1581.72 65.0773V308.085C1581.72 371.311 1544.62 378.146 1528.67 378.146C1519.63 378.146 1503.68 375.939 1491.65 362.411C1479.62 375.939 1463.74 378.146 1454.63 378.146C1438.68 378.146 1401.58 371.311 1401.58 308.085V82.023C1401.58 43.5035 1360.78 39.6587 1354.66 39.3027H1312.15V373.731H1280.19V39.3027H1216.53C1192.68 39.8011 1190.83 61.0901 1190.83 67.5693H1158.72C1158.72 43.5035 1169.18 24.6354 1188.12 14.5961C1201.72 7.40485 1215.04 7.19123 1216.53 7.19123H1355.87C1357.79 7.26243 1375.38 8.25926 1393.54 17.0881C1419.52 29.833 1433.76 52.8308 1433.76 81.9518V308.013C1433.76 346.034 1449 346.034 1454.7 346.034C1460.46 346.034 1475.63 346.034 1475.63 308.013V194.876H1507.74V308.013C1507.74 346.034 1522.98 346.034 1528.75 346.034C1534.51 346.034 1549.68 346.034 1549.68 308.013V65.0061C1549.68 63.5108 1549.89 50.1964 1557.08 36.5971Z" fill="white"/>
</svg>
