<svg width="1920" height="1080" viewBox="0 0 1920 1080" fill="none" xmlns="http://www.w3.org/2000/svg">
<g clip-path="url(#clip0_83_220)">
<g filter="url(#filter0_f_83_220)">
<path d="M741.576 -69.5014C746.819 -83.3075 737.282 -99.4576 720.275 -105.574C703.269 -111.69 685.233 -105.455 679.991 -91.6491L492.184 402.961C486.942 416.767 496.479 432.917 513.485 439.033C530.491 445.149 548.528 438.915 553.77 425.108L741.576 -69.5014Z" fill="url(#paint0_linear_83_220)"/>
</g>
<g filter="url(#filter1_f_83_220)">
<path d="M1857.5 -54.1144C1861.96 -65.857 1850.87 -80.6647 1832.73 -87.1882C1814.59 -93.7117 1796.27 -89.4807 1791.81 -77.738L1632.07 342.946C1627.61 354.689 1638.71 369.497 1656.84 376.02C1674.98 382.544 1693.3 378.313 1697.76 366.57L1857.5 -54.1144Z" fill="url(#paint1_linear_83_220)"/>
</g>
<g filter="url(#filter2_f_83_220)">
<path d="M1511.45 -304.292C1521.97 -331.993 1516.33 -359.542 1498.86 -365.825C1481.39 -372.108 1458.7 -354.746 1448.18 -327.045L1099.33 591.701C1088.81 619.402 1094.44 646.951 1111.92 653.234C1129.39 659.517 1152.08 642.154 1162.59 614.454L1511.45 -304.292Z" fill="url(#paint2_linear_83_220)"/>
</g>
<g filter="url(#filter3_f_83_220)">
<path d="M1083.15 -393.282C1095.61 -426.112 1092.42 -457.506 1076.02 -463.404C1059.62 -469.302 1036.22 -447.47 1023.76 -414.64L610.316 674.203C597.851 707.033 601.04 738.427 617.44 744.325C633.84 750.223 657.24 728.39 669.705 695.561L1083.15 -393.282Z" fill="url(#paint3_linear_83_220)"/>
</g>
<g filter="url(#filter4_f_83_220)">
<path d="M783.753 -433.906C794.351 -461.817 780.187 -492.627 752.116 -502.722C724.046 -512.816 692.699 -498.374 682.101 -470.462L330.599 455.257C320.001 483.168 334.166 513.978 362.236 524.073C390.307 534.167 421.654 519.725 432.252 491.813L783.753 -433.906Z" fill="url(#paint4_linear_83_220)"/>
</g>
<g filter="url(#filter5_f_83_220)">
<path d="M498.63 -418.103C507.464 -441.367 491.869 -468.41 463.799 -478.505C435.728 -488.6 405.811 -477.924 396.978 -454.66L103.995 316.945C95.1611 340.209 110.756 367.252 138.826 377.347C166.897 387.442 196.814 376.766 205.647 353.501L498.63 -418.103Z" fill="url(#paint5_linear_83_220)"/>
</g>
<g opacity="0.54" filter="url(#filter6_f_83_220)">
<path d="M1361.17 -300.286C1373.63 -333.116 1356.39 -369.564 1322.66 -381.695C1288.93 -393.826 1251.47 -377.047 1239.01 -344.218L825.568 744.625C813.102 777.455 830.343 813.903 864.077 826.034C897.81 838.166 935.262 821.387 947.728 788.557L1361.17 -300.286Z" fill="url(#paint6_linear_83_220)"/>
</g>
<g filter="url(#filter7_f_83_220)">
<path d="M1099.54 -110.431C1109.49 -136.634 1100.11 -164.151 1078.58 -171.891C1057.06 -179.631 1031.55 -164.664 1021.6 -138.461L691.609 730.601C681.66 756.803 691.042 784.32 712.565 792.06C734.088 799.8 759.601 784.833 769.55 758.63L1099.54 -110.431Z" fill="url(#paint7_linear_83_220)"/>
</g>
<g filter="url(#filter8_f_83_220)">
<path d="M1611.1 -251.505C1621.05 -277.708 1616.72 -303.406 1601.44 -308.904C1586.15 -314.402 1565.69 -297.617 1555.74 -271.414L1225.75 597.648C1215.8 623.851 1220.13 649.549 1235.42 655.047C1250.7 660.544 1271.16 643.759 1281.11 617.556L1611.1 -251.505Z" fill="url(#paint8_linear_83_220)"/>
</g>
<g filter="url(#filter9_f_83_220)">
<path d="M527.241 -289.865C535.264 -310.993 529.375 -332.578 514.088 -338.075C498.801 -343.573 479.905 -330.901 471.883 -309.773L205.799 390.989C197.777 412.117 203.665 433.702 218.952 439.199C234.239 444.697 253.135 432.026 261.158 410.897L527.241 -289.865Z" fill="url(#paint9_linear_83_220)"/>
</g>
<g filter="url(#filter10_f_83_220)">
<path d="M1776.3 -256.486C1785.2 -279.938 1780.03 -303.406 1764.74 -308.904C1749.46 -314.402 1729.85 -299.847 1720.94 -276.395L1425.6 501.427C1416.69 524.879 1421.87 548.347 1437.15 553.845C1452.44 559.342 1472.05 544.787 1480.96 521.335L1776.3 -256.486Z" fill="url(#paint10_linear_83_220)"/>
</g>
<g filter="url(#filter11_f_83_220)">
<path d="M890.895 -190.391C900.845 -216.594 896.518 -242.292 881.231 -247.789C865.944 -253.287 845.486 -236.502 835.537 -210.299L505.549 658.763C495.599 684.966 499.926 710.664 515.213 716.161C530.5 721.659 550.958 704.874 560.907 678.671L890.895 -190.391Z" fill="url(#paint11_linear_83_220)"/>
</g>
<g opacity="0.82" filter="url(#filter12_f_83_220)">
<path d="M1412.2 -151.124C1422.77 -178.958 1420.29 -205.495 1406.66 -210.398C1393.02 -215.301 1373.41 -196.711 1362.84 -168.878L1037.52 687.87C1026.96 715.703 1029.44 742.241 1043.07 747.144C1056.7 752.047 1076.32 733.457 1086.89 705.624L1412.2 -151.124Z" fill="url(#paint12_linear_83_220)"/>
</g>
<g opacity="0.47" filter="url(#filter13_f_83_220)">
<path d="M1409.32 -400.776C1421.2 -432.042 1415.19 -463.008 1395.91 -469.942C1376.63 -476.875 1351.38 -457.149 1339.51 -425.883L974.075 536.526C962.203 567.792 968.208 598.759 987.488 605.692C1006.77 612.625 1032.02 592.9 1043.89 561.633L1409.32 -400.776Z" fill="url(#paint13_linear_83_220)"/>
</g>
<g opacity="0.47" filter="url(#filter14_f_83_220)">
<path d="M1826.18 -70.8915C1830.8 -83.0422 1818.91 -98.5128 1799.63 -105.446C1780.35 -112.379 1760.98 -108.15 1756.37 -95.9993L1614.35 278.012C1609.74 290.163 1621.63 305.634 1640.91 312.567C1660.19 319.5 1679.56 315.271 1684.17 303.12L1826.18 -70.8915Z" fill="url(#paint14_linear_83_220)"/>
</g>
<g opacity="0.47" filter="url(#filter15_f_83_220)">
<path d="M286.616 -43.0024C290.253 -52.5819 277.573 -65.9681 258.293 -72.9014C239.014 -79.8348 220.437 -77.6896 216.799 -68.1102L104.836 226.757C101.199 236.337 113.879 249.723 133.158 256.656C152.438 263.59 171.015 261.445 174.653 251.865L286.616 -43.0024Z" fill="url(#paint15_linear_83_220)"/>
</g>
<g opacity="0.39" filter="url(#filter16_f_83_220)">
<path d="M1632.42 -167.022C1635.17 -174.253 1630.4 -182.629 1621.78 -185.73C1613.16 -188.831 1603.94 -185.483 1601.2 -178.252L1352.63 476.384C1349.88 483.615 1354.65 491.991 1363.27 495.092C1371.89 498.193 1381.11 494.845 1383.85 487.614L1632.42 -167.022Z" fill="url(#paint16_linear_83_220)"/>
</g>
<g opacity="0.39" filter="url(#filter17_f_83_220)">
<path d="M545.132 -196.343C547.846 -203.491 543.056 -211.8 534.433 -214.901C525.811 -218.002 516.62 -214.721 513.906 -207.573L268.184 439.564C265.47 446.712 270.26 455.02 278.883 458.121C287.505 461.222 296.696 457.941 299.41 450.793L545.132 -196.343Z" fill="url(#paint17_linear_83_220)"/>
</g>
<g opacity="0.39" filter="url(#filter18_f_83_220)">
<path d="M1740.98 -68.3004C1743 -73.6092 1737.64 -80.4267 1729.02 -83.5277C1720.4 -86.6286 1711.77 -84.8388 1709.76 -79.53L1527.26 401.093C1525.25 406.402 1530.6 413.22 1539.22 416.321C1547.85 419.422 1556.47 417.632 1558.49 412.323L1740.98 -68.3004Z" fill="url(#paint18_linear_83_220)"/>
</g>
<g opacity="0.27" filter="url(#filter19_f_83_220)">
<path d="M983.704 -237.72C987.051 -246.535 983.254 -256.023 975.222 -258.911C967.19 -261.8 957.966 -256.995 954.618 -248.18L651.585 549.893C648.238 558.708 652.036 568.196 660.068 571.084C668.099 573.972 677.324 569.168 680.671 560.353L983.704 -237.72Z" fill="url(#paint19_linear_83_220)"/>
</g>
<g opacity="0.19" filter="url(#filter20_f_83_220)">
<path d="M1102.02 -101.409C1105.64 -110.945 1102.06 -121.018 1094.03 -123.906C1086 -126.794 1076.55 -121.405 1072.93 -111.869L745.112 751.484C741.491 761.021 745.066 771.093 753.098 773.981C761.13 776.87 770.576 771.481 774.197 761.944L1102.02 -101.409Z" fill="url(#paint20_linear_83_220)"/>
</g>
<g opacity="0.1" filter="url(#filter21_f_83_220)">
<path d="M577.62 -33.7884C580.233 -40.6697 575.84 -48.5897 567.808 -51.4782C559.777 -54.3666 551.147 -51.1297 548.535 -44.2483L311.981 578.742C309.368 585.624 313.761 593.544 321.793 596.432C329.825 599.321 338.454 596.084 341.067 589.202L577.62 -33.7884Z" fill="url(#paint21_linear_83_220)"/>
</g>
</g>
<defs>
<filter id="filter0_f_83_220" x="446.346" y="-152.323" width="341.069" height="638.106" filterUnits="userSpaceOnUse" color-interpolation-filters="sRGB">
<feFlood flood-opacity="0" result="BackgroundImageFix"/>
<feBlend mode="normal" in="SourceGraphic" in2="BackgroundImageFix" result="shape"/>
<feGaussianBlur stdDeviation="22.2" result="effect1_foregroundBlur_83_220"/>
</filter>
<filter id="filter1_f_83_220" x="1560.79" y="-160.553" width="367.997" height="609.939" filterUnits="userSpaceOnUse" color-interpolation-filters="sRGB">
<feFlood flood-opacity="0" result="BackgroundImageFix"/>
<feBlend mode="normal" in="SourceGraphic" in2="BackgroundImageFix" result="shape"/>
<feGaussianBlur stdDeviation="35.15" result="effect1_foregroundBlur_83_220"/>
</filter>
<filter id="filter2_f_83_220" x="986.03" y="-475.111" width="638.713" height="1237.63" filterUnits="userSpaceOnUse" color-interpolation-filters="sRGB">
<feFlood flood-opacity="0" result="BackgroundImageFix"/>
<feBlend mode="normal" in="SourceGraphic" in2="BackgroundImageFix" result="shape"/>
<feGaussianBlur stdDeviation="54" result="effect1_foregroundBlur_83_220"/>
</filter>
<filter id="filter3_f_83_220" x="494.71" y="-572.366" width="704.043" height="1425.65" filterUnits="userSpaceOnUse" color-interpolation-filters="sRGB">
<feFlood flood-opacity="0" result="BackgroundImageFix"/>
<feBlend mode="normal" in="SourceGraphic" in2="BackgroundImageFix" result="shape"/>
<feGaussianBlur stdDeviation="54" result="effect1_foregroundBlur_83_220"/>
</filter>
<filter id="filter4_f_83_220" x="219.083" y="-613.94" width="676.187" height="1249.23" filterUnits="userSpaceOnUse" color-interpolation-filters="sRGB">
<feFlood flood-opacity="0" result="BackgroundImageFix"/>
<feBlend mode="normal" in="SourceGraphic" in2="BackgroundImageFix" result="shape"/>
<feGaussianBlur stdDeviation="54" result="effect1_foregroundBlur_83_220"/>
</filter>
<filter id="filter5_f_83_220" x="-6.47681" y="-590.312" width="615.579" height="1079.47" filterUnits="userSpaceOnUse" color-interpolation-filters="sRGB">
<feFlood flood-opacity="0" result="BackgroundImageFix"/>
<feBlend mode="normal" in="SourceGraphic" in2="BackgroundImageFix" result="shape"/>
<feGaussianBlur stdDeviation="54" result="effect1_foregroundBlur_83_220"/>
</filter>
<filter id="filter6_f_83_220" x="723.613" y="-483.541" width="739.51" height="1411.42" filterUnits="userSpaceOnUse" color-interpolation-filters="sRGB">
<feFlood flood-opacity="0" result="BackgroundImageFix"/>
<feBlend mode="normal" in="SourceGraphic" in2="BackgroundImageFix" result="shape"/>
<feGaussianBlur stdDeviation="48.95" result="effect1_foregroundBlur_83_220"/>
</filter>
<filter id="filter7_f_83_220" x="579.636" y="-281.93" width="631.875" height="1184.03" filterUnits="userSpaceOnUse" color-interpolation-filters="sRGB">
<feFlood flood-opacity="0" result="BackgroundImageFix"/>
<feBlend mode="normal" in="SourceGraphic" in2="BackgroundImageFix" result="shape"/>
<feGaussianBlur stdDeviation="54" result="effect1_foregroundBlur_83_220"/>
</filter>
<filter id="filter8_f_83_220" x="1173.8" y="-356.547" width="489.247" height="1059.24" filterUnits="userSpaceOnUse" color-interpolation-filters="sRGB">
<feFlood flood-opacity="0" result="BackgroundImageFix"/>
<feBlend mode="normal" in="SourceGraphic" in2="BackgroundImageFix" result="shape"/>
<feGaussianBlur stdDeviation="23.3" result="effect1_foregroundBlur_83_220"/>
</filter>
<filter id="filter9_f_83_220" x="155.613" y="-385.959" width="421.815" height="873.042" filterUnits="userSpaceOnUse" color-interpolation-filters="sRGB">
<feFlood flood-opacity="0" result="BackgroundImageFix"/>
<feBlend mode="normal" in="SourceGraphic" in2="BackgroundImageFix" result="shape"/>
<feGaussianBlur stdDeviation="23.3" result="effect1_foregroundBlur_83_220"/>
</filter>
<filter id="filter10_f_83_220" x="1374.64" y="-356.665" width="452.62" height="958.27" filterUnits="userSpaceOnUse" color-interpolation-filters="sRGB">
<feFlood flood-opacity="0" result="BackgroundImageFix"/>
<feBlend mode="normal" in="SourceGraphic" in2="BackgroundImageFix" result="shape"/>
<feGaussianBlur stdDeviation="23.3" result="effect1_foregroundBlur_83_220"/>
</filter>
<filter id="filter11_f_83_220" x="453.599" y="-295.432" width="489.247" height="1059.24" filterUnits="userSpaceOnUse" color-interpolation-filters="sRGB">
<feFlood flood-opacity="0" result="BackgroundImageFix"/>
<feBlend mode="normal" in="SourceGraphic" in2="BackgroundImageFix" result="shape"/>
<feGaussianBlur stdDeviation="23.3" result="effect1_foregroundBlur_83_220"/>
</filter>
<filter id="filter12_f_83_220" x="965.374" y="-276.782" width="518.981" height="1090.31" filterUnits="userSpaceOnUse" color-interpolation-filters="sRGB">
<feFlood flood-opacity="0" result="BackgroundImageFix"/>
<feBlend mode="normal" in="SourceGraphic" in2="BackgroundImageFix" result="shape"/>
<feGaussianBlur stdDeviation="32.8" result="effect1_foregroundBlur_83_220"/>
</filter>
<filter id="filter13_f_83_220" x="902.382" y="-536.929" width="578.636" height="1209.61" filterUnits="userSpaceOnUse" color-interpolation-filters="sRGB">
<feFlood flood-opacity="0" result="BackgroundImageFix"/>
<feBlend mode="normal" in="SourceGraphic" in2="BackgroundImageFix" result="shape"/>
<feGaussianBlur stdDeviation="32.8" result="effect1_foregroundBlur_83_220"/>
</filter>
<filter id="filter14_f_83_220" x="1547.76" y="-174.38" width="345.019" height="555.881" filterUnits="userSpaceOnUse" color-interpolation-filters="sRGB">
<feFlood flood-opacity="0" result="BackgroundImageFix"/>
<feBlend mode="normal" in="SourceGraphic" in2="BackgroundImageFix" result="shape"/>
<feGaussianBlur stdDeviation="32.8" result="effect1_foregroundBlur_83_220"/>
</filter>
<filter id="filter15_f_83_220" x="38.6139" y="-142.569" width="314.224" height="468.894" filterUnits="userSpaceOnUse" color-interpolation-filters="sRGB">
<feFlood flood-opacity="0" result="BackgroundImageFix"/>
<feBlend mode="normal" in="SourceGraphic" in2="BackgroundImageFix" result="shape"/>
<feGaussianBlur stdDeviation="32.8" result="effect1_foregroundBlur_83_220"/>
</filter>
<filter id="filter16_f_83_220" x="1311.25" y="-227.486" width="362.549" height="764.335" filterUnits="userSpaceOnUse" color-interpolation-filters="sRGB">
<feFlood flood-opacity="0" result="BackgroundImageFix"/>
<feBlend mode="normal" in="SourceGraphic" in2="BackgroundImageFix" result="shape"/>
<feGaussianBlur stdDeviation="20.3" result="effect1_foregroundBlur_83_220"/>
</filter>
<filter id="filter17_f_83_220" x="226.825" y="-256.67" width="359.667" height="756.56" filterUnits="userSpaceOnUse" color-interpolation-filters="sRGB">
<feFlood flood-opacity="0" result="BackgroundImageFix"/>
<feBlend mode="normal" in="SourceGraphic" in2="BackgroundImageFix" result="shape"/>
<feGaussianBlur stdDeviation="20.3" result="effect1_foregroundBlur_83_220"/>
</filter>
<filter id="filter18_f_83_220" x="1486.24" y="-125.649" width="295.771" height="584.091" filterUnits="userSpaceOnUse" color-interpolation-filters="sRGB">
<feFlood flood-opacity="0" result="BackgroundImageFix"/>
<feBlend mode="normal" in="SourceGraphic" in2="BackgroundImageFix" result="shape"/>
<feGaussianBlur stdDeviation="20.3" result="effect1_foregroundBlur_83_220"/>
</filter>
<filter id="filter19_f_83_220" x="609.769" y="-300.351" width="415.752" height="912.874" filterUnits="userSpaceOnUse" color-interpolation-filters="sRGB">
<feFlood flood-opacity="0" result="BackgroundImageFix"/>
<feBlend mode="normal" in="SourceGraphic" in2="BackgroundImageFix" result="shape"/>
<feGaussianBlur stdDeviation="20.3" result="effect1_foregroundBlur_83_220"/>
</filter>
<filter id="filter20_f_83_220" x="705.098" y="-163.286" width="436.933" height="976.646" filterUnits="userSpaceOnUse" color-interpolation-filters="sRGB">
<feFlood flood-opacity="0" result="BackgroundImageFix"/>
<feBlend mode="normal" in="SourceGraphic" in2="BackgroundImageFix" result="shape"/>
<feGaussianBlur stdDeviation="19.3" result="effect1_foregroundBlur_83_220"/>
</filter>
<filter id="filter21_f_83_220" x="270.627" y="-93.1348" width="348.348" height="731.224" filterUnits="userSpaceOnUse" color-interpolation-filters="sRGB">
<feFlood flood-opacity="0" result="BackgroundImageFix"/>
<feBlend mode="normal" in="SourceGraphic" in2="BackgroundImageFix" result="shape"/>
<feGaussianBlur stdDeviation="20.3" result="effect1_foregroundBlur_83_220"/>
</filter>
<linearGradient id="paint0_linear_83_220" x1="689.483" y1="-116.647" x2="492.376" y2="431.442" gradientUnits="userSpaceOnUse">
<stop stop-color="white" stop-opacity="0.13"/>
<stop offset="0.55" stop-color="white" stop-opacity="0.07"/>
<stop offset="1" stop-color="white" stop-opacity="0"/>
</linearGradient>
<linearGradient id="paint1_linear_83_220" x1="1799.88" y1="-99" x2="1632.24" y2="367.171" gradientUnits="userSpaceOnUse">
<stop stop-color="white" stop-opacity="0.13"/>
<stop offset="0.55" stop-color="white" stop-opacity="0.07"/>
<stop offset="1" stop-color="white" stop-opacity="0"/>
</linearGradient>
<linearGradient id="paint2_linear_83_220" x1="1467.22" y1="-377.202" x2="1098.4" y2="648.374" gradientUnits="userSpaceOnUse">
<stop stop-color="white" stop-opacity="0.24"/>
<stop offset="0.42" stop-color="white" stop-opacity="0.13"/>
<stop offset="1" stop-color="white" stop-opacity="0"/>
</linearGradient>
<linearGradient id="paint3_linear_83_220" x1="1046.33" y1="-474.083" x2="609.22" y2="741.369" gradientUnits="userSpaceOnUse">
<stop stop-color="white" stop-opacity="0.24"/>
<stop offset="0.42" stop-color="white" stop-opacity="0.13"/>
<stop offset="1" stop-color="white" stop-opacity="0"/>
</linearGradient>
<linearGradient id="paint4_linear_83_220" x1="701.29" y1="-521" x2="329.668" y2="512.36" gradientUnits="userSpaceOnUse">
<stop stop-color="white" stop-opacity="0.24"/>
<stop offset="0.42" stop-color="white" stop-opacity="0.13"/>
<stop offset="1" stop-color="white" stop-opacity="0"/>
</linearGradient>
<linearGradient id="paint5_linear_83_220" x1="412.972" y1="-496.784" x2="103.218" y2="364.541" gradientUnits="userSpaceOnUse">
<stop stop-color="white" stop-opacity="0.24"/>
<stop offset="0.42" stop-color="white" stop-opacity="0.13"/>
<stop offset="1" stop-color="white" stop-opacity="0"/>
</linearGradient>
<linearGradient id="paint6_linear_83_220" x1="1261.58" y1="-403.661" x2="824.472" y2="811.791" gradientUnits="userSpaceOnUse">
<stop stop-color="white" stop-opacity="0.5"/>
<stop offset="0.42" stop-color="white" stop-opacity="0.16"/>
<stop offset="1" stop-color="white" stop-opacity="0"/>
</linearGradient>
<linearGradient id="paint7_linear_83_220" x1="1039.61" y1="-185.906" x2="690.735" y2="784.209" gradientUnits="userSpaceOnUse">
<stop stop-color="white" stop-opacity="0.24"/>
<stop offset="0.42" stop-color="white" stop-opacity="0.13"/>
<stop offset="1" stop-color="white" stop-opacity="0"/>
</linearGradient>
<linearGradient id="paint8_linear_83_220" x1="1573.76" y1="-318.858" x2="1224.88" y2="651.256" gradientUnits="userSpaceOnUse">
<stop stop-color="white" stop-opacity="0.24"/>
<stop offset="0.42" stop-color="white" stop-opacity="0.13"/>
<stop offset="1" stop-color="white" stop-opacity="0"/>
</linearGradient>
<linearGradient id="paint9_linear_83_220" x1="486.409" y1="-348.029" x2="205.094" y2="434.216" gradientUnits="userSpaceOnUse">
<stop stop-color="white" stop-opacity="0.24"/>
<stop offset="0.42" stop-color="white" stop-opacity="0.13"/>
<stop offset="1" stop-color="white" stop-opacity="0"/>
</linearGradient>
<linearGradient id="paint10_linear_83_220" x1="1737.07" y1="-318.858" x2="1424.82" y2="549.407" gradientUnits="userSpaceOnUse">
<stop stop-color="white" stop-opacity="0.24"/>
<stop offset="0.42" stop-color="white" stop-opacity="0.13"/>
<stop offset="1" stop-color="white" stop-opacity="0"/>
</linearGradient>
<linearGradient id="paint11_linear_83_220" x1="853.552" y1="-257.743" x2="504.674" y2="712.371" gradientUnits="userSpaceOnUse">
<stop stop-color="white" stop-opacity="0.24"/>
<stop offset="0.42" stop-color="white" stop-opacity="0.13"/>
<stop offset="1" stop-color="white" stop-opacity="0"/>
</linearGradient>
<linearGradient id="paint12_linear_83_220" x1="1381.97" y1="-219.275" x2="1035.41" y2="744.39" gradientUnits="userSpaceOnUse">
<stop stop-color="white" stop-opacity="0.2"/>
<stop offset="0.55" stop-color="white" stop-opacity="0.15"/>
<stop offset="1" stop-color="white" stop-opacity="0"/>
</linearGradient>
<linearGradient id="paint13_linear_83_220" x1="1361" y1="-482.496" x2="971.706" y2="600.016" gradientUnits="userSpaceOnUse">
<stop stop-color="white" stop-opacity="0.2"/>
<stop offset="0.55" stop-color="white" stop-opacity="0.15"/>
<stop offset="1" stop-color="white" stop-opacity="0"/>
</linearGradient>
<linearGradient id="paint14_linear_83_220" x1="1764.72" y1="-118" x2="1613.43" y2="302.686" gradientUnits="userSpaceOnUse">
<stop stop-color="white" stop-opacity="0.2"/>
<stop offset="0.55" stop-color="white" stop-opacity="0.15"/>
<stop offset="1" stop-color="white" stop-opacity="0"/>
</linearGradient>
<linearGradient id="paint15_linear_83_220" x1="223.385" y1="-85.4553" x2="104.11" y2="246.21" gradientUnits="userSpaceOnUse">
<stop stop-color="white" stop-opacity="0.2"/>
<stop offset="0.55" stop-color="white" stop-opacity="0.15"/>
<stop offset="1" stop-color="white" stop-opacity="0"/>
</linearGradient>
<linearGradient id="paint16_linear_83_220" x1="1621.78" y1="-185.73" x2="1375.37" y2="499.446" gradientUnits="userSpaceOnUse">
<stop stop-color="white"/>
<stop offset="1" stop-color="white" stop-opacity="0"/>
</linearGradient>
<linearGradient id="paint17_linear_83_220" x1="534.433" y1="-214.901" x2="290.85" y2="462.425" gradientUnits="userSpaceOnUse">
<stop stop-color="white"/>
<stop offset="1" stop-color="white" stop-opacity="0"/>
</linearGradient>
<linearGradient id="paint18_linear_83_220" x1="1729.02" y1="-83.5277" x2="1548.11" y2="419.517" gradientUnits="userSpaceOnUse">
<stop stop-color="white"/>
<stop offset="1" stop-color="white" stop-opacity="0"/>
</linearGradient>
<linearGradient id="paint19_linear_83_220" x1="975.222" y1="-258.911" x2="674.826" y2="576.392" gradientUnits="userSpaceOnUse">
<stop stop-color="white"/>
<stop offset="1" stop-color="white" stop-opacity="0"/>
</linearGradient>
<linearGradient id="paint20_linear_83_220" x1="1094.03" y1="-123.906" x2="769.064" y2="779.723" gradientUnits="userSpaceOnUse">
<stop stop-color="white"/>
<stop offset="1" stop-color="white" stop-opacity="0"/>
</linearGradient>
<linearGradient id="paint21_linear_83_220" x1="567.808" y1="-51.4782" x2="333.314" y2="600.575" gradientUnits="userSpaceOnUse">
<stop stop-color="white"/>
<stop offset="1" stop-color="#999999" stop-opacity="0"/>
</linearGradient>
<clipPath id="clip0_83_220">
<rect width="1920" height="1080" fill="white"/>
</clipPath>
</defs>
</svg>
