<svg width="64" height="65" viewBox="0 0 64 65" fill="none" xmlns="http://www.w3.org/2000/svg">
<g clip-path="url(#clip0_1845_18433)">
<path d="M32.3737 26.2228H26.569C25.4753 26.2228 24.5499 27.022 24.5499 28.1157C24.5499 29.2093 25.4753 30.0085 26.569 30.0085H32.3737C33.4674 30.0085 34.3928 29.2093 34.3928 28.1157C34.3928 27.022 33.5095 26.2228 32.3737 26.2228Z" fill="#9258BF"/>
<path d="M38.3888 38.0006H26.569C25.4753 38.0006 24.5499 39.0101 24.5499 40.1038C24.5499 41.1974 25.4333 42.2069 26.569 42.2069H38.3888C39.4825 42.2069 40.3658 41.1974 40.3658 40.1038C40.3658 39.0101 39.4825 38.0006 38.3888 38.0006Z" fill="#9258BF"/>
<path d="M45.7079 7.71484H19.25C11.973 7.71484 6 13.6879 6 21.0069V47.4648C6 54.7418 11.973 60.7148 19.25 60.7148H45.7079C53.027 60.7148 59 54.7418 59 47.4228V21.0069C59 13.6879 53.027 7.71484 45.7079 7.71484ZM48.9889 40.272C48.9468 45.9926 44.2357 50.6196 38.473 50.6196H26.4429C20.6802 50.6196 16.0952 46.0347 16.0952 40.314V28.1156C16.0952 22.395 20.6802 17.8101 26.4429 17.8101H33.7619C36.454 17.8101 40.4079 20.376 41.8381 23.4466C42.2167 24.2879 42.469 24.414 42.7635 26.9799C42.9317 28.2839 43.0159 29.2514 43.6048 29.7982C44.446 30.5553 47.5167 30.0506 48.1476 30.5133L48.6103 30.8918L48.9048 31.4807L48.9889 31.9014V40.272Z" fill="#9258BF"/>
</g>
<defs>
<clipPath id="clip0_1845_18433">
<rect width="53" height="53" fill="white" transform="translate(6 7.71484)"/>
</clipPath>
</defs>
</svg>
