<svg width="60" height="61" viewBox="0 0 60 61" fill="none" xmlns="http://www.w3.org/2000/svg">
<path d="M8.95 51.789H44.5975L42.895 46.7359C43.1475 46.9376 57.5 58.2148 57.5 58.2148V8.88672C57.33 5.82047 54.45 3.21484 50.88 3.21484L8.9625 3.22172C5.395 3.22172 2.5 5.83193 2.5 8.89818V46.1148C2.5 49.3484 5.39 51.789 8.95 51.789ZM35.32 16.2384L35.2375 16.2659L35.2675 16.2384H35.32ZM16.2425 19.1465C20.825 16.0894 25.0725 16.2361 25.0725 16.2361L25.415 16.5455C19.8075 17.7715 17.265 20.0678 17.265 20.0678C17.525 20.0173 28.8475 14.0292 42.5675 20.219C42.5675 20.219 40.02 18.0717 34.7575 16.6967L35.2225 16.2773C35.95 16.2796 39.8 16.4034 43.92 19.1648C43.92 19.1648 48.53 26.3836 48.53 35.2523C48.3775 35.0828 45.67 39.0703 38.7025 39.2078C38.7025 39.2078 37.5225 37.984 36.6825 36.9161C40.7575 35.8436 42.2825 33.6986 42.2825 33.6986C34.35 38.2773 27.3975 37.5623 19.08 34.4686C19.0025 34.4686 18.9675 34.4365 18.9275 34.3998V34.3861C18.8875 34.3517 18.8525 34.3173 18.775 34.3173H18.625C18.115 34.0103 17.775 33.859 17.775 33.859C17.775 33.859 19.2975 36.004 23.21 37.0765C22.1825 38.1513 21.165 39.3728 21.165 39.3728C14.2 39.2215 11.66 35.234 11.66 35.234C11.66 26.3515 16.2425 19.1465 16.2425 19.1465Z" fill="#9258BF"/>
<path d="M35.7699 32.482C37.5474 32.482 38.9949 31.107 38.9949 29.4112C38.9949 27.7268 37.5549 26.3518 35.7699 26.3518V26.3587C33.9999 26.3587 32.5499 27.7291 32.5449 29.4249C32.5449 31.107 33.9924 32.482 35.7699 32.482Z" fill="#9258BF"/>
<path d="M24.225 32.482C26.0025 32.482 27.45 31.107 27.45 29.4112C27.45 27.7268 26.0125 26.3518 24.235 26.3518L24.225 26.3587C22.4475 26.3587 21 27.7291 21 29.4249C21 31.107 22.4475 32.482 24.225 32.482Z" fill="#9258BF"/>
</svg>
