<svg width="64" height="65" viewBox="0 0 64 65" fill="none" xmlns="http://www.w3.org/2000/svg">
<path d="M33 21.7398V7.11484H17.85C16.5107 7.11484 15.2262 7.62845 14.2792 8.54269C13.3321 9.45693 12.8 10.6969 12.8 11.9898V54.2398C12.8 55.5328 13.3321 56.7727 14.2792 57.687C15.2262 58.6012 16.5107 59.1148 17.85 59.1148H48.1501C49.4894 59.1148 50.7739 58.6012 51.7209 57.687C52.668 56.7727 53.2001 55.5328 53.2001 54.2398V26.6148H38.05C36.7107 26.6148 35.4262 26.1012 34.4792 25.187C33.5321 24.2727 33 23.0328 33 21.7398ZM21.6052 34.9C21.6052 34.469 21.7825 33.8955 22.0982 33.5908C22.4139 33.286 22.8421 33.1148 23.2885 33.1148H42.8411C43.2875 33.1148 43.7157 33.286 44.0314 33.5908C44.3471 33.8955 44.5244 34.3089 44.5244 34.7398C44.5244 35.1708 44.3471 35.5841 44.0314 35.8889C43.7157 36.1936 43.2875 36.3648 42.8411 36.3648H23.2885C22.8421 36.3648 22.4139 36.1936 22.0982 35.8889C21.7825 35.5841 21.6052 35.331 21.6052 34.9ZM21.7124 41.2398C21.7124 40.8089 21.8898 40.3955 22.2054 40.0908C22.5211 39.786 22.9493 39.6148 23.3957 39.6148H42.8411C43.2875 39.6148 43.7157 39.786 44.0314 40.0908C44.3471 40.3955 44.5244 40.8089 44.5244 41.2398C44.5244 41.6708 44.3471 42.0841 44.0314 42.3889C43.7157 42.6936 43.2875 42.8648 42.8411 42.8648H23.3957C22.9493 42.8648 22.5211 42.6936 22.2054 42.3889C21.8898 42.0841 21.7124 41.6708 21.7124 41.2398ZM21.6301 47.7509C21.6301 47.32 21.8074 46.9066 22.1231 46.6019C22.4388 46.2972 22.867 46.1259 23.3134 46.1259H42.8411C43.2875 46.1259 43.7157 46.2972 44.0314 46.6019C44.3471 46.9066 44.5244 47.32 44.5244 47.7509C44.5244 48.1819 44.3471 48.5952 44.0314 48.9C43.7157 49.2047 43.2875 49.3759 42.8411 49.3759H23.3134C22.867 49.3759 22.4388 49.2047 22.1231 48.9C21.8074 48.5952 21.6301 48.1819 21.6301 47.7509ZM36.3667 21.7398V7.92734L52.3584 23.3648H38.05C37.6036 23.3648 37.1754 23.1936 36.8598 22.8889C36.5441 22.5841 36.3667 22.1708 36.3667 21.7398Z" fill="#9258BF"/>
</svg>
