<svg width="138" height="138" viewBox="0 0 138 138" fill="none" xmlns="http://www.w3.org/2000/svg">
<g clip-path="url(#clip0)">
<path d="M39.021 45.5305C38.886 45.4627 38.7382 45.4206 38.586 45.4067C38.4337 45.3927 38.2801 45.4071 38.1337 45.4491C37.9874 45.4911 37.8513 45.5599 37.7332 45.6514C37.6151 45.743 37.5172 45.8556 37.4453 45.9828L36.715 47.274C36.5697 47.5309 36.5387 47.8316 36.6287 48.11C36.7187 48.3884 36.9225 48.6217 37.1951 48.7586C37.4677 48.8955 37.7869 48.9247 38.0824 48.8399C38.3779 48.7551 38.6255 48.5631 38.7708 48.3063L39.5011 47.015C39.573 46.8879 39.6177 46.7486 39.6325 46.6051C39.6473 46.4617 39.632 46.3169 39.5874 46.1791C39.5428 46.0412 39.4699 45.913 39.3727 45.8017C39.2755 45.6904 39.156 45.5982 39.021 45.5305Z" fill="#7568F6"/>
<path d="M36.6479 49.7269C36.5129 49.6592 36.3651 49.6171 36.2128 49.6031C36.0606 49.5892 35.9069 49.6036 35.7606 49.6456C35.6143 49.6876 35.4782 49.7564 35.36 49.8479C35.2419 49.9395 35.1441 50.0521 35.0722 50.1793L28.9552 60.9934C28.8099 61.2502 28.7789 61.5509 28.8689 61.8293C28.959 62.1077 29.1627 62.341 29.4353 62.4779C29.7079 62.6148 30.0271 62.6441 30.3226 62.5592C30.6181 62.4744 30.8657 62.2825 31.011 62.0256L37.128 51.2113C37.2732 50.9545 37.3042 50.6538 37.2142 50.3755C37.1242 50.0971 36.9205 49.8638 36.6479 49.7269Z" fill="#7568F6"/>
<path d="M105.425 39.3289C105.294 39.03 105.057 38.7984 104.766 38.6844C104.476 38.5703 104.155 38.5831 103.873 38.7199L83.9296 48.3976C83.5812 48.5494 83.2654 48.7753 83.0015 49.0614C82.7376 49.3476 82.5311 49.6881 82.3946 50.0621C82.2581 50.4362 82.1944 50.8359 82.2074 51.2371C82.2205 51.6382 82.31 52.0323 82.4705 52.3953L83.0934 53.8037L82.7528 53.9584C80.7298 54.4076 79.3227 54.3445 77.235 53.7186L72.0305 52.1587C70.5165 51.7035 68.9106 51.7312 67.4112 52.2383L62.3882 53.9327C61.3733 54.2753 60.4321 54.8289 59.619 55.5616C58.189 55.0995 56.686 54.951 55.2007 55.1251L55.705 54.1009C56.0315 53.4351 56.1085 52.6618 55.9204 51.9377C55.7324 51.2136 55.2932 50.5928 54.692 50.201C54.6838 50.1958 54.6754 50.1904 54.6669 50.1853L36.5168 39.0543C36.3795 38.9701 36.2276 38.9163 36.0702 38.8963C35.9129 38.8762 35.7534 38.8903 35.6013 38.9376C35.4492 38.9849 35.3076 39.0645 35.1851 39.1716C35.0625 39.2788 34.9616 39.4112 34.8882 39.561L19.8973 70.1678C19.7556 70.4571 19.7253 70.7939 19.8126 71.1067C19.9 71.4194 20.0983 71.6836 20.3654 71.8429L38.4338 82.6251C38.8473 82.8753 39.3145 83.0071 39.7899 83.0076C40.0572 83.0073 40.3231 82.966 40.5794 82.8849C40.9358 82.7742 41.2674 82.5877 41.5543 82.3367C41.8412 82.0857 42.0776 81.7753 42.249 81.4243L42.4158 81.0857L44.182 82.9817L41.5555 86.8695C40.898 87.843 40.6299 89.0552 40.8104 90.2394C40.9908 91.4236 41.605 92.4829 42.5177 93.1843L42.9348 93.5047C43.6551 94.0592 44.5211 94.357 45.4094 94.3558C45.6721 94.3554 45.9341 94.3292 46.1922 94.2775C46.1968 94.3122 46.1979 94.3469 46.2032 94.382C46.2911 94.9689 46.4872 95.5314 46.7803 96.0369C47.0733 96.5425 47.4575 96.981 47.9106 97.3271L48.3277 97.6475C49.0478 98.2021 49.9137 98.5002 50.8019 98.4993C51.0646 98.4988 51.3266 98.4726 51.5848 98.4209C51.5893 98.4556 51.5904 98.4903 51.5957 98.5254C51.6836 99.1123 51.8797 99.6748 52.1728 100.18C52.4658 100.686 52.85 101.124 53.3031 101.471L53.7202 101.791C54.4403 102.345 55.306 102.644 56.1942 102.643C56.4573 102.642 56.7197 102.616 56.9782 102.564C57.0554 103.17 57.2475 103.753 57.5426 104.277C57.8377 104.801 58.2299 105.256 58.695 105.614L59.1121 105.934C60.0253 106.634 61.1617 106.919 62.2719 106.727C63.3821 106.535 64.3754 105.88 65.0337 104.908L66.2411 103.121L68.1754 104.769C68.8481 105.384 69.6665 105.788 70.5408 105.939C71.4151 106.09 72.3115 105.98 73.1313 105.623C73.9511 105.266 74.6627 104.674 75.1878 103.914C75.7129 103.153 76.0312 102.253 76.1078 101.312C76.7995 101.567 77.5366 101.65 78.263 101.556C78.9894 101.461 79.6861 101.191 80.2999 100.766C80.9138 100.341 81.4286 99.7726 81.8054 99.1036C82.1821 98.4345 82.4108 97.6826 82.474 96.9051C83.1526 97.1551 83.8751 97.24 84.5885 97.1537C85.3019 97.0674 85.9881 96.812 86.597 96.4062C87.2058 96.0005 87.7219 95.4547 88.1073 94.8087C88.4928 94.1628 88.7378 93.433 88.8246 92.673C89.4313 92.9595 90.0874 93.1077 90.7509 93.1082C90.8725 93.1082 90.995 93.1034 91.1175 93.0936C91.7513 93.0441 92.3697 92.8614 92.937 92.5561C93.5043 92.2507 94.0094 91.8286 94.4231 91.3142L94.4835 91.2397C94.9084 90.718 95.2272 90.1078 95.4197 89.448C95.6123 88.7881 95.6743 88.0928 95.6021 87.4061C95.4559 86.1104 94.8554 84.9217 93.9211 84.0789L92.7482 82.9991C93.6009 82.3681 94.372 81.6201 95.0415 80.7744C95.2869 81.2061 95.6324 81.5631 96.0448 81.811C96.4571 82.0589 96.9224 82.1893 97.3957 82.1897C97.7776 82.1893 98.1554 82.1051 98.5055 81.9425L98.5367 81.9276L118.478 71.9734C118.689 71.8681 118.865 71.6988 118.986 71.4868C119.106 71.2749 119.165 71.0296 119.155 70.7819C119.146 70.6069 119.105 70.4355 119.032 70.278L105.425 39.3289ZM40.3084 79.9691C40.2638 80.0595 40.2028 80.1395 40.1288 80.2044C40.0548 80.2692 39.9694 80.3176 39.8776 80.3467C39.7858 80.3757 39.6895 80.3849 39.5943 80.3736C39.4991 80.3623 39.407 80.3308 39.3234 80.2809L22.5111 70.2479L36.4053 41.8805L53.2226 52.194C53.3803 52.2909 53.4968 52.4491 53.5475 52.6356C53.5983 52.822 53.5794 53.0221 53.4948 53.194L40.3084 79.9691ZM46.948 91.0117C46.6546 91.4449 46.2121 91.7363 45.7175 91.822C45.2228 91.9077 44.7165 91.7807 44.3096 91.4688L43.8925 91.1484C43.6911 90.9937 43.5202 90.7982 43.3896 90.5731C43.2591 90.3479 43.1714 90.0976 43.1316 89.8363C43.0918 89.575 43.1006 89.3079 43.1576 89.0503C43.2146 88.7926 43.3187 88.5495 43.4639 88.3348L48.7772 80.4699C49.0705 80.0365 49.513 79.745 50.0077 79.6593C50.5024 79.5736 51.0087 79.7007 51.4156 80.0128L51.8327 80.3332C52.0341 80.4879 52.205 80.6833 52.3356 80.9085C52.4661 81.1336 52.5538 81.3839 52.5936 81.6452C52.6334 81.9065 52.6246 82.1735 52.5676 82.4312C52.5106 82.6888 52.4065 82.9319 52.2614 83.1466L46.948 91.0117ZM52.3421 95.1547C52.0484 95.588 51.6056 95.8794 51.1107 95.9651C50.6158 96.0508 50.1093 95.9237 49.7021 95.6119L49.285 95.2914C48.8783 94.9789 48.6047 94.507 48.5243 93.9794C48.4439 93.4518 48.5634 92.9117 48.8564 92.478L52.7912 86.6536C53.0846 86.2204 53.5271 85.929 54.0217 85.8433C54.5163 85.7576 55.0226 85.8845 55.4296 86.1963L55.8467 86.5167C56.2532 86.8293 56.5267 87.3012 56.6074 87.8286C56.688 88.3561 56.5692 88.8962 56.2769 89.3303L52.3421 95.1547ZM57.7323 99.2977C57.4389 99.731 56.9963 100.022 56.5017 100.108C56.0071 100.194 55.5008 100.067 55.0938 99.7551L54.6767 99.4344C54.2701 99.122 53.9964 98.65 53.916 98.1224C53.8357 97.5948 53.9551 97.0547 54.2481 96.621L57.0551 92.4659C57.3485 92.0328 57.7911 91.7414 58.2857 91.6558C58.7803 91.5701 59.2866 91.6971 59.6935 92.0089L60.1106 92.3294C60.5168 92.6422 60.7901 93.1142 60.8705 93.6417C60.9509 94.1692 60.8317 94.7091 60.5393 95.143L57.7323 99.2977ZM64.8038 100.956L63.1248 103.441C62.8314 103.874 62.3888 104.165 61.8942 104.251C61.3996 104.337 60.8933 104.21 60.4863 103.898L60.0692 103.578C59.663 103.265 59.3898 102.793 59.3094 102.265C59.2291 101.738 59.3482 101.198 59.6406 100.764L61.3198 98.2788C61.6131 97.8455 62.0556 97.554 62.5502 97.4683C63.0448 97.3826 63.5511 97.5096 63.958 97.8214L64.3751 98.1419C64.7814 98.4546 65.0548 98.9265 65.1353 99.454C65.2158 99.9815 65.0969 100.521 64.8045 100.956H64.8038ZM90.855 81.2393L90.9875 81.3793L87.4732 78.1441C87.0419 77.7471 86.6238 77.335 86.2187 76.9077L79.3183 69.6313C79.2138 69.5215 79.0812 69.4471 78.9372 69.4174C78.7932 69.3877 78.6442 69.404 78.5088 69.4643C78.3734 69.5246 78.2578 69.6262 78.1763 69.7563C78.0949 69.8864 78.0513 70.0392 78.051 70.1956C78.1035 71.2245 78.4865 72.2026 79.1357 72.9658L84.597 78.7237C85.0003 79.1492 85.4167 79.5595 85.8461 79.9549L92.4597 86.0468C92.7035 86.27 92.9018 86.5442 93.0422 86.8525C93.1825 87.1607 93.2621 87.4964 93.2759 87.8388C93.295 88.5079 93.073 89.1595 92.6555 89.6595L92.6438 89.6742C92.431 89.9393 92.1712 90.1569 91.8792 90.3145C91.5873 90.472 91.269 90.5664 90.9426 90.5922C90.6193 90.6193 90.2941 90.5774 89.9861 90.4689C89.6781 90.3604 89.3935 90.1874 89.149 89.9601L82.0705 83.4386C81.8375 83.2175 81.5335 83.1009 81.2218 83.1132C80.9102 83.1255 80.6151 83.2658 80.3981 83.5047C80.2916 83.6284 80.2095 83.7737 80.1567 83.9318C80.1038 84.09 80.0813 84.2579 80.0904 84.4256C80.0996 84.5932 80.1402 84.7572 80.2099 84.9078C80.2796 85.0584 80.3769 85.1926 80.4961 85.3023L80.5097 85.3146L85.6646 90.0642C86.159 90.5218 86.4626 91.1701 86.5088 91.8665C86.5549 92.5629 86.3397 93.2503 85.9106 93.7775C85.4815 94.3047 84.8735 94.6285 84.2205 94.6777C83.5675 94.7269 82.9229 94.4974 82.4286 94.0398L77.2683 89.286C77.1519 89.1751 77.016 89.09 76.8684 89.0357C76.7208 88.9813 76.5646 88.9589 76.4088 88.9696C76.2531 88.9804 76.1008 89.0241 75.9611 89.0982C75.8213 89.1723 75.6967 89.2754 75.5947 89.4014C75.4926 89.5273 75.4151 89.6737 75.3667 89.832C75.3183 89.9902 75.2998 90.1572 75.3125 90.3231C75.3252 90.4891 75.3688 90.6506 75.4406 90.7984C75.5125 90.9462 75.6112 91.0773 75.731 91.1839L79.2899 94.4622C79.5374 94.6875 79.7407 94.9628 79.8881 95.2722C80.0355 95.5815 80.1241 95.9189 80.1487 96.2649C80.1734 96.611 80.1337 96.9588 80.0318 97.2884C79.93 97.6179 79.7681 97.9228 79.5553 98.1854C79.3426 98.448 79.0833 98.6631 78.7923 98.8185C78.5013 98.9738 78.1844 99.0662 77.8598 99.0905C77.5352 99.1147 77.2093 99.0703 76.9008 98.9597C76.5924 98.8491 76.3075 98.6746 76.0625 98.4462L72.5411 95.2026C72.3082 94.9815 72.0042 94.8649 71.6926 94.8772C71.3809 94.8895 71.0859 95.0298 70.8689 95.2686C70.7624 95.3924 70.6803 95.5376 70.6275 95.6958C70.5746 95.854 70.5521 96.0219 70.5612 96.1896C70.5704 96.3572 70.611 96.5212 70.6807 96.6718C70.7504 96.8224 70.8477 96.9565 70.9669 97.0662L72.925 98.8701C73.4204 99.3269 73.7252 99.9749 73.7725 100.671C73.8199 101.368 73.6058 102.056 73.1774 102.584C72.749 103.113 72.1414 103.438 71.4882 103.488C70.835 103.539 70.1898 103.31 69.6945 102.853L67.3816 100.881C67.5887 100.003 67.5439 99.0783 67.2532 98.2274C66.9625 97.3764 66.4392 96.6379 65.7509 96.1074L65.3337 95.787C64.6924 95.2949 63.9342 95.0052 63.1457 94.9509C63.3259 94.0869 63.2647 93.1854 62.9698 92.358C62.6748 91.5306 62.1591 90.8135 61.4862 90.2952L61.0691 89.9748C60.4277 89.4826 59.6695 89.1929 58.8811 89.1387C59.0612 88.2746 59 87.3733 58.7051 86.5459C58.4102 85.7185 57.8945 85.0014 57.2217 84.4831L56.8044 84.1627C56.2056 83.7026 55.504 83.4186 54.7698 83.3389C55.0411 82.4306 55.036 81.454 54.7555 80.5489C54.4749 79.6438 53.9331 78.8564 53.2077 78.2994L52.7906 77.979C51.8773 77.279 50.7409 76.9939 49.6308 77.1863C48.5206 77.3786 47.5273 78.0327 46.8689 79.0051L45.5752 80.9193L43.562 78.7582L53.8237 57.9221C55.1579 57.544 56.5513 57.4661 57.9153 57.6932C57.7122 58.0501 57.5335 58.4222 57.3804 58.8064L53.2386 70.8917C53.148 71.1867 53.1632 71.507 53.2813 71.7908C53.3993 72.0745 53.6119 72.3015 53.8778 72.4278L54.2075 72.5845C55.4078 73.1703 56.7281 73.4209 58.0443 73.3129C59.3604 73.2049 60.6292 72.7418 61.7314 71.9671C62.6836 71.2965 63.4832 70.4072 64.0716 69.3645C64.66 68.3217 65.0222 67.1519 65.1319 65.9406V65.9379C65.1505 65.7197 65.1879 65.5038 65.2438 65.293C65.4202 64.6386 65.8502 63.4327 66.7021 63.0356C66.9246 62.9337 67.1733 62.9173 67.4059 62.9892L69.3209 63.5652C70.1424 63.8123 70.8917 64.2776 71.4987 64.9176L74.4217 67.9994C75.1162 68.731 75.7963 68.805 76.2669 68.4118C76.3992 68.3024 76.5081 68.164 76.5862 68.0061C76.6643 67.8481 76.7099 67.6742 76.7199 67.4959C76.7299 67.3177 76.7041 67.1392 76.6442 66.9724C76.5843 66.8057 76.4917 66.6545 76.3726 66.529L73.1536 63.1353C72.2626 62.197 71.1636 61.5143 69.9587 61.1508L67.6045 60.4427C67.4994 60.4093 67.3901 60.3934 67.2805 60.3954C65.7463 60.4021 64.4364 61.3247 63.592 62.9929C63.2653 63.6495 63.0223 64.3496 62.8696 65.0748C62.8421 65.2082 62.8224 65.3434 62.8108 65.4795L62.7912 65.7006C62.7145 66.5412 62.4625 67.3528 62.0536 68.0762C61.6448 68.7995 61.0895 69.4162 60.4283 69.8811C59.7533 70.347 58.9903 70.6489 58.1936 70.7653C57.397 70.8818 56.586 70.8099 55.8183 70.5547L59.5524 59.7719C59.874 58.9582 60.3576 58.2287 60.9698 57.6341C61.582 57.0394 62.308 56.5938 63.0977 56.3281L68.1208 54.6335C69.1833 54.2743 70.3212 54.2546 71.394 54.5771L76.5986 56.1372C79.1112 56.8897 80.8793 56.9562 83.3566 56.3897L84.0974 56.0777L93.8847 78.2083C93.1393 79.4823 92.0954 80.527 90.8558 81.2393H90.855ZM98.2748 79.2881C97.9896 79.4305 97.6631 79.4464 97.3669 79.3324C97.0706 79.2185 96.8288 78.984 96.6944 78.6802L84.9909 52.2164C84.9009 52.0127 84.8574 51.7892 84.8643 51.5641C84.8711 51.3391 84.9279 51.119 85.0301 50.9219C85.1775 50.6479 85.4039 50.4319 85.6756 50.3059L103.786 41.5166L116.412 70.2339L98.2748 79.2881Z" fill="#C7C7C7"/>
</g>
<circle cx="69" cy="69" r="67.5" stroke="#C4C4C4" stroke-width="3"/>
<defs>
<clipPath id="clip0">
<rect width="99.3929" height="93.6429" fill="white" transform="translate(18.8926 21.3572)"/>
</clipPath>
</defs>
</svg>
