<svg width="138" height="138" viewBox="0 0 138 138" fill="none" xmlns="http://www.w3.org/2000/svg">
<g clip-path="url(#clip0)">
<path d="M90.1192 43.0421L74.6183 27.5412C75.1689 26.6068 75.5087 25.5277 75.5087 24.3636C75.5087 23.0612 75.1123 21.8499 74.4327 20.8463C73.9797 20.1762 73.4039 19.6004 72.7338 19.1474C71.7302 18.4678 70.519 18.0714 69.2165 18.0714C67.914 18.0714 66.7027 18.4678 65.6991 19.1474C65.029 19.6004 64.4533 20.1762 64.0002 20.8463C63.3207 21.8499 62.9242 23.0612 62.9242 24.3636C62.9242 25.5277 63.264 26.6068 63.8146 27.5412L48.3106 43.0421H31.6582V105.964H107.165V43.0421H90.1192ZM69.2133 21.2175C70.9468 21.2175 72.3594 22.6301 72.3594 24.3636C72.3594 26.0972 70.9468 27.5098 69.2133 27.5098C67.4798 27.5098 66.0672 26.0972 66.0672 24.3636C66.0672 22.6301 67.4798 21.2175 69.2133 21.2175ZM66.0357 29.7655C66.9701 30.3161 68.0493 30.6559 69.2133 30.6559C70.3774 30.6559 71.4565 30.3192 72.3909 29.7655L85.6675 43.0421H52.7592L66.0357 29.7655ZM104.019 102.818H34.8043V46.1882H104.019V102.818Z" fill="#C7C7C7"/>
<path d="M55.7295 54.7613L54.7699 61.2549L54.6095 62.3623C54.5088 63.1205 54.4113 63.8976 54.3232 64.6842C54.2351 65.4707 54.1533 66.2887 54.0809 67.135C54.0086 66.3327 53.9174 65.4927 53.8072 64.6087C53.6971 63.7246 53.5587 62.7682 53.392 61.7363L52.2751 54.7582H50.5542L49.3618 61.9408C49.2454 62.6077 49.1384 63.3376 49.044 64.1242C48.9465 64.9138 48.8553 65.779 48.7703 66.7166L48.7137 67.2545C48.698 67.1098 48.6885 66.9934 48.6822 66.899C48.6728 66.8046 48.6665 66.7386 48.6571 66.704L48.5406 65.2945C48.4966 64.7848 48.4305 64.2217 48.3456 63.605L48.1631 62.4662L47.0337 54.755H44.8691L47.7415 71.3571H49.5411L50.7524 64.1839C50.7681 64.1336 50.7901 64.0015 50.8184 63.797C50.8467 63.5925 50.8845 63.303 50.9348 62.9381L51.1614 61.3461C51.1677 61.2895 51.1865 61.1291 51.2117 60.8679C51.2369 60.6037 51.2652 60.2356 51.3029 59.7636C51.3092 59.685 51.3187 59.5843 51.3344 59.4616C51.3501 59.3389 51.3627 59.1942 51.3784 59.0306L51.4351 59.7196C51.4697 60.1129 51.5011 60.4401 51.5357 60.698C51.5641 60.956 51.5892 61.1511 51.605 61.2801L51.8283 62.9349C51.8881 63.3219 51.929 63.6208 51.9573 63.8284C51.9856 64.0361 52.0045 64.1556 52.0108 64.1839L53.1843 71.3571H54.9273L57.8689 54.7613H55.7295Z" fill="#C7C7C7"/>
<path d="M67.3223 56.649V54.755H61.373V71.3571H67.3223V69.4663H63.6099V63.8001H66.9039V61.9061H63.6099V56.649H67.3223Z" fill="#C7C7C7"/>
<path d="M71.4509 54.2265L69.9785 60.2765L71.1048 60.6006L73.2347 54.7519L71.4509 54.2265Z" fill="#C7C7C7"/>
<path d="M80.2782 63.281C81.0144 63.1111 81.5839 62.6644 81.9803 61.9439C82.3798 61.2234 82.5749 60.267 82.5749 59.0778C82.5749 57.5299 82.2005 56.3784 81.4486 55.6265C80.854 55.0445 79.9479 54.755 78.7303 54.755H75.7793V71.3571H78.0162V63.2275L81.0616 71.3571H83.3331L80.2782 63.281ZM78.0193 62.1106V56.5955H78.3969C78.7461 56.5955 79.0512 56.6458 79.3061 56.756C79.5609 56.8661 79.7654 57.0328 79.929 57.2625C80.0863 57.4922 80.209 57.791 80.2814 58.156C80.3569 58.5209 80.3946 58.9614 80.3946 59.4774C80.3946 60.4306 80.2153 61.1102 79.8566 61.5097C79.498 61.9093 78.8876 62.1106 78.0193 62.1106Z" fill="#C7C7C7"/>
<path d="M93.2149 56.649V54.755H87.2656V71.3571H93.2149V69.4663H89.5025V63.8001H92.7965V61.9061H89.5025V56.649H93.2149Z" fill="#C7C7C7"/>
<path d="M48.028 78.6655V85.1591H44.7467V78.6655H42.5098V95.2675H44.7467V87.053H48.028V95.2675H50.2649V78.6655H48.028Z" fill="#7568F6"/>
<path d="M56.3795 78.6655H54.1426V95.2675H56.3795V78.6655Z" fill="#7568F6"/>
<path d="M64.7607 87.1915C65.4968 87.0216 66.0663 86.5748 66.4627 85.8544C66.8622 85.1339 67.0573 84.1775 67.0573 82.9883C67.0573 81.4404 66.6829 80.2889 65.931 79.537C65.3364 78.9549 64.4303 78.6655 63.2128 78.6655H60.2617V95.2675H62.4986V87.138L65.544 95.2675H67.8155L64.7607 87.1915ZM62.5017 86.0211V80.506H62.8793C63.2285 80.506 63.5337 80.5563 63.7885 80.6664C64.0433 80.7765 64.2478 80.9433 64.4114 81.1729C64.5687 81.4026 64.6914 81.7015 64.7638 82.0664C64.8393 82.4314 64.8771 82.8718 64.8771 83.3878C64.8771 84.3411 64.6977 85.0206 64.3391 85.4202C63.9804 85.8197 63.3701 86.0211 62.5017 86.0211Z" fill="#7568F6"/>
<path d="M73.0982 78.6655H70.8613V95.2675H73.0982V78.6655Z" fill="#7568F6"/>
<path d="M82.4736 78.6655V84.8602C82.4736 85.7757 82.5176 86.7573 82.6026 87.7955C82.6875 88.8337 82.8196 89.9946 82.999 91.2782C82.5082 89.1546 81.9356 87.16 81.2906 85.2881L79.0663 78.6655H76.9805V95.2707H79.1985L79.0789 88.0346C79.0789 87.827 79.0758 87.6382 79.0726 87.4746C79.0695 87.311 79.0632 87.1726 79.0538 87.0562L78.9279 85.0018L78.8115 83.3123C78.8021 83.2211 78.7926 83.1078 78.7769 82.9757C78.7612 82.8435 78.7423 82.6831 78.7234 82.4975C78.7675 82.6831 78.8021 82.8498 78.8335 82.9914C78.865 83.133 78.887 83.2557 78.9027 83.3563C79.0758 84.1586 79.2645 84.9263 79.4659 85.6562C79.6704 86.386 79.8875 87.1002 80.1171 87.7955L82.6183 95.2675H84.7105V78.6655H82.4736Z" fill="#7568F6"/>
<path d="M92.5891 86.537V88.4373H94.5334V88.7708V89.2238C94.5334 90.7151 94.3856 91.7973 94.093 92.4706C93.8035 93.103 93.3064 93.4176 92.5954 93.4176C91.8215 93.4176 91.2961 92.974 91.0129 92.0836C90.7361 91.1933 90.5945 89.4912 90.5945 86.9743C90.5945 84.4889 90.7298 82.7617 91.0035 81.8021C91.2772 80.8835 91.7837 80.4241 92.5294 80.4241C93.0736 80.4241 93.4826 80.594 93.7563 80.9307C93.8916 81.0974 94.0175 81.3271 94.1339 81.626C94.2503 81.9217 94.3541 82.2898 94.4453 82.7271L96.5312 81.8556C96.1883 80.6412 95.7069 79.7698 95.0903 79.2412C94.4799 78.7158 93.6305 78.4547 92.5419 78.4547C91.1136 78.4547 90.0565 78.9958 89.3675 80.0781C88.6345 81.2295 88.2695 83.5514 88.2695 87.0341C88.2695 90.0796 88.5999 92.2504 89.27 93.5403C89.9433 94.8302 91.0696 95.4751 92.6552 95.4751C94.1874 95.4751 95.235 94.8931 95.795 93.7322C96.3613 92.5996 96.6445 90.4162 96.6445 87.182V86.537H92.5891Z" fill="#7568F6"/>
</g>
<circle cx="69" cy="69" r="67.5" stroke="#C4C4C4" stroke-width="3"/>
<defs>
<clipPath id="clip0">
<rect width="87.8929" height="87.8929" fill="white" transform="translate(25.4648 18.0714)"/>
</clipPath>
</defs>
</svg>
