<svg width="138" height="138" viewBox="0 0 138 138" fill="none" xmlns="http://www.w3.org/2000/svg">
<path d="M93.385 55.4464C89.6001 55.4464 86.1347 56.8249 83.4496 59.0979L73.423 49.0714C75.4663 46.6225 76.6998 43.4754 76.6998 40.0446C76.6998 38.6059 76.4803 37.2184 76.0786 35.9093L90.2996 33.7209C91.2031 35.1982 92.8152 36.1942 94.6685 36.1942C97.4999 36.1942 99.8025 33.8916 99.8025 31.0603C99.8025 28.2289 97.4999 25.9263 94.6685 25.9263C91.8372 25.9263 89.5346 28.2289 89.5346 31.0603C89.5346 31.1219 89.55 31.1783 89.5526 31.24L75.0646 33.4694C72.6953 28.9887 67.9926 25.9263 62.5815 25.9263C54.7972 25.9263 48.4632 32.2603 48.4632 40.0446C48.4632 44.7152 50.7529 48.8506 54.2568 51.4227L43.7631 74.7423C35.6669 75.1864 29.2109 81.8951 29.2109 90.1004C29.2109 98.5932 36.1199 105.502 44.6127 105.502C53.1055 105.502 60.0145 98.5932 60.0145 90.1004C60.0145 89.1173 59.9118 88.1572 59.7347 87.2242L80.2139 78.7917C81.6733 81.2008 83.7641 83.1825 86.2668 84.4929L79.7904 95.287C79.6171 95.269 79.4464 95.2344 79.2667 95.2344C76.4354 95.2344 74.1328 97.5369 74.1328 100.368C74.1328 103.2 76.4354 105.502 79.2667 105.502C82.0981 105.502 84.4007 103.2 84.4007 100.368C84.4007 98.6471 83.542 97.1301 82.2393 96.1983L88.658 85.5004C90.1481 85.983 91.7358 86.25 93.385 86.25C101.878 86.25 108.787 79.341 108.787 70.8482C108.787 62.3554 101.878 55.4464 93.385 55.4464ZM94.6685 28.4933C96.0842 28.4933 97.2355 29.6446 97.2355 31.0603C97.2355 32.4759 96.0842 33.6272 94.6685 33.6272C93.2528 33.6272 92.1016 32.4759 92.1016 31.0603C92.1016 29.6446 93.2528 28.4933 94.6685 28.4933ZM79.2667 102.935C77.8511 102.935 76.6998 101.784 76.6998 100.368C76.6998 98.9526 77.8511 97.8013 79.2667 97.8013C80.6824 97.8013 81.8337 98.9526 81.8337 100.368C81.8337 101.784 80.6824 102.935 79.2667 102.935ZM99.66 74.1352C99.7511 73.052 99.8025 71.9507 99.8025 70.8482C99.8025 69.7457 99.7511 68.6445 99.66 67.5612C103.75 68.3441 106.22 69.7842 106.22 70.8482C106.22 71.9122 103.75 73.3523 99.66 74.1352ZM93.385 83.683C92.321 83.683 90.881 81.2136 90.098 77.1232C91.1813 77.2143 92.2825 77.2656 93.385 77.2656C94.4876 77.2656 95.5888 77.2143 96.672 77.1232C95.8891 81.2136 94.4491 83.683 93.385 83.683ZM93.385 74.6987C92.0836 74.6987 90.863 74.6281 89.722 74.5113C89.6052 73.3703 89.5346 72.1497 89.5346 70.8482C89.5346 69.5468 89.6052 68.3262 89.722 67.1852C90.863 67.0684 92.0836 66.9978 93.385 66.9978C94.6865 66.9978 95.9071 67.0684 97.0481 67.1852C97.1649 68.3262 97.2355 69.5468 97.2355 70.8482C97.2355 72.1497 97.1649 73.3703 97.0481 74.5113C95.9071 74.6281 94.6865 74.6987 93.385 74.6987ZM80.5502 70.8482C80.5502 69.7842 83.0196 68.3441 87.1101 67.5612C87.019 68.6445 86.9676 69.7457 86.9676 70.8482C86.9676 71.9507 87.019 73.052 87.1101 74.1352C83.0196 73.3523 80.5502 71.9122 80.5502 70.8482ZM93.385 58.0134C94.4491 58.0134 95.8891 60.4828 96.672 64.5733C95.5888 64.4821 94.4876 64.4308 93.385 64.4308C92.2825 64.4308 91.1813 64.4821 90.098 64.5733C90.881 60.4828 92.321 58.0134 93.385 58.0134ZM105.543 66.768C103.889 65.9094 101.728 65.2805 99.3365 64.8954C98.9515 62.5043 98.3239 60.3442 97.464 58.6885C101.262 59.9668 104.266 62.9715 105.543 66.768ZM89.3049 58.6898C88.4462 60.3442 87.8173 62.5056 87.4323 64.8967C85.0411 65.2817 82.881 65.9094 81.2253 66.7693C82.5037 62.9715 85.5083 59.9669 89.3049 58.6898ZM59.4151 46.2965C60.4624 46.4017 61.5265 46.4621 62.5815 46.4621C63.6365 46.4621 64.7005 46.4017 65.7478 46.2965C64.9521 49.6387 63.6147 51.596 62.5815 51.596C61.5483 51.596 60.2109 49.6387 59.4151 46.2965ZM51.0301 40.0446C51.0301 39.0114 52.9874 37.674 56.3296 36.8783C56.2244 37.9256 56.1641 38.9896 56.1641 40.0446C56.1641 41.0997 56.2244 42.1637 56.3296 43.211C52.9874 42.4152 51.0301 41.0778 51.0301 40.0446ZM58.731 40.0446C58.731 38.7419 58.8093 37.5265 58.9466 36.4098C60.0633 36.2725 61.2787 36.1942 62.5815 36.1942C63.8842 36.1942 65.0997 36.2725 66.2163 36.4098C66.3536 37.5265 66.4319 38.7419 66.4319 40.0446C66.4319 41.3474 66.3536 42.5628 66.2163 43.6795C65.0997 43.8168 63.8842 43.8951 62.5815 43.8951C61.2787 43.8951 60.0633 43.8168 58.9466 43.6795C58.8093 42.5628 58.731 41.3474 58.731 40.0446ZM62.5815 28.4933C63.6147 28.4933 64.9521 30.4506 65.7478 33.7928C64.7005 33.6876 63.6365 33.6272 62.5815 33.6272C61.5265 33.6272 60.4624 33.6876 59.4151 33.7928C60.2109 30.4506 61.5483 28.4933 62.5815 28.4933ZM74.1328 40.0446C74.1328 41.0778 72.1755 42.4152 68.8333 43.211C68.9386 42.1637 68.9989 41.0997 68.9989 40.0446C68.9989 38.9896 68.9386 37.9256 68.8333 36.8783C72.1755 37.674 74.1328 39.0114 74.1328 40.0446ZM68.4367 45.8999C70.2631 45.5392 71.9445 45.0079 73.3075 44.3097C72.1331 47.2514 69.7882 49.5963 66.8465 50.7707C67.5447 49.4076 68.0761 47.7263 68.4367 45.8999ZM73.3075 35.7796C71.9445 35.0814 70.2644 34.5501 68.4367 34.1894C68.0761 32.363 67.5447 30.6816 66.8465 29.3186C69.7882 30.493 72.1331 32.8379 73.3075 35.7796ZM58.3165 29.3186C57.6182 30.6816 57.0869 32.3617 56.7262 34.1894C54.8998 34.5501 53.2185 35.0814 51.8554 35.7796C53.0298 32.8379 55.3747 30.493 58.3165 29.3186ZM51.8554 44.3097C53.2185 45.0079 54.8985 45.5392 56.7262 45.8999C57.0869 47.7263 57.6182 49.4076 58.3165 50.7707C55.3747 49.5963 53.0298 47.2514 51.8554 44.3097ZM50.8877 93.3874C50.9788 92.3042 51.0301 91.203 51.0301 90.1004C51.0301 88.9979 50.9788 87.8967 50.8877 86.8134C54.9781 87.5964 57.4475 89.0364 57.4475 90.1004C57.4475 91.1645 54.9781 92.6045 50.8877 93.3874ZM44.6127 102.935C43.5487 102.935 42.1086 100.466 41.3257 96.3754C42.409 96.4665 43.5102 96.5179 44.6127 96.5179C45.7152 96.5179 46.8165 96.4665 47.8997 96.3754C47.1168 100.466 45.6767 102.935 44.6127 102.935ZM44.6127 93.9509C43.3113 93.9509 42.0907 93.8803 40.9497 93.7635C40.8329 92.6225 40.7623 91.4019 40.7623 90.1004C40.7623 88.799 40.8329 87.5784 40.9497 86.4374C42.0907 86.3206 43.3113 86.25 44.6127 86.25C45.9142 86.25 47.1348 86.3206 48.2758 86.4374C48.3926 87.5784 48.4632 88.799 48.4632 90.1004C48.4632 91.4019 48.3926 92.6225 48.2758 93.7635C47.1348 93.8803 45.9142 93.9509 44.6127 93.9509ZM31.7779 90.1004C31.7779 89.0364 34.2473 87.5964 38.3378 86.8134C38.2467 87.8967 38.1953 88.9979 38.1953 90.1004C38.1953 91.203 38.2467 92.3042 38.3378 93.3874C34.2473 92.6045 31.7779 91.1645 31.7779 90.1004ZM44.6127 77.2656C45.6767 77.2656 47.1168 79.735 47.8997 83.8255C46.8165 83.7344 45.7152 83.683 44.6127 83.683C43.5102 83.683 42.409 83.7344 41.3257 83.8255C42.1086 79.735 43.5487 77.2656 44.6127 77.2656ZM50.5655 84.1477C50.1805 81.7565 49.5528 79.5964 48.6929 77.9407C52.4907 79.2191 55.4941 82.2224 56.7724 86.0203C55.1167 85.1616 52.9554 84.534 50.5655 84.1477ZM40.5325 77.942C39.6739 79.5964 39.045 81.7578 38.6599 84.1489C36.2688 84.534 34.1087 85.1616 32.453 86.0215C33.7314 82.2237 36.736 79.2191 40.5325 77.942ZM32.4543 94.1806C34.1087 95.0393 36.2701 95.6682 38.6612 96.0532C39.0463 98.4444 39.6739 100.604 40.5338 102.26C36.736 100.982 33.7314 97.9772 32.4543 94.1806ZM48.6929 102.259C49.5516 100.604 50.1805 98.4431 50.5655 96.0519C52.9566 95.6669 55.1167 95.0393 56.7724 94.1794C55.4941 97.9772 52.4895 100.982 48.6929 102.259ZM59.0314 84.7381C57.0625 79.4642 52.2956 75.556 46.5367 74.8321L56.4721 52.7537C58.3242 53.647 60.3919 54.1629 62.5815 54.1629C66.0122 54.1629 69.1593 52.9295 71.6095 50.8875L81.636 60.9141C79.3617 63.5978 77.9833 67.0632 77.9833 70.8482C77.9833 72.8402 78.376 74.7384 79.0678 76.4878L59.0314 84.7381ZM81.2266 74.9284C82.881 75.7871 85.0424 76.416 87.4335 76.801C87.8186 79.1921 88.4462 81.3522 89.3061 83.0079C85.5083 81.7296 82.5037 78.7249 81.2266 74.9284ZM97.4652 83.0066C98.3239 81.3522 98.9528 79.1908 99.3378 76.7997C101.729 76.4147 103.889 75.7871 105.545 74.9271C104.266 78.7249 101.262 81.7296 97.4652 83.0066Z" fill="#C7C7C7"/>
<path d="M82.6063 100.625C82.6063 102.469 81.1113 103.964 79.267 103.964C77.4228 103.964 75.9277 102.469 75.9277 100.625C75.9277 98.7808 77.4228 97.2857 79.267 97.2857C81.1113 97.2857 82.6063 98.7808 82.6063 100.625Z" stroke="#7568F6" stroke-width="4"/>
<path d="M98.2137 30.8036C98.2137 32.6478 96.7187 34.1429 94.8744 34.1429C93.0302 34.1429 91.5352 32.6478 91.5352 30.8036C91.5352 28.9593 93.0302 27.4643 94.8744 27.4643C96.7187 27.4643 98.2137 28.9593 98.2137 30.8036Z" stroke="#7568F6" stroke-width="4"/>
<circle cx="69" cy="69" r="67.5" stroke="#C4C4C4" stroke-width="3"/>
</svg>
