<svg width="638" height="190" viewBox="0 0 638 190" fill="none" xmlns="http://www.w3.org/2000/svg">
<g clip-path="url(#clip0_2536_15695)">
<path d="M244.314 78.6724C243.568 78.6724 242.963 79.2778 242.963 80.0237C242.963 80.7696 243.568 81.375 244.314 81.375C245.06 81.375 245.666 80.7696 245.666 80.0237C245.666 79.2778 245.06 78.6724 244.314 78.6724Z" fill="#7568F6"/>
<path d="M247.642 74.3025L241.219 72.162L238.913 67.5503C240.99 65.436 242.433 62.6385 242.919 59.7205L243.207 57.9969H245.666C247.901 57.9969 249.72 56.1783 249.72 53.9429V45.4295C249.72 34.2526 240.627 25.1594 229.45 25.1594C218.244 25.1594 209.18 34.2265 209.18 45.4295V53.9429C209.18 55.7045 210.31 57.2066 211.883 57.7645V59.3482C211.883 61.5836 213.701 63.4022 215.937 63.4022H217.123C217.709 64.6748 218.467 65.8534 219.39 66.9122C219.581 67.1322 219.781 67.3454 219.985 67.5529L217.681 72.162L211.258 74.3027C203.79 76.7929 198.369 84.6548 198.369 92.9965C198.369 93.7428 198.974 94.3478 199.72 94.3478H259.179C259.925 94.3478 260.531 93.7428 260.531 92.9965C260.531 84.6548 255.11 76.7929 247.642 74.3025ZM247.017 53.9429C247.017 54.688 246.411 55.2942 245.666 55.2942H243.603C243.947 52.6334 244.176 49.802 244.268 47.0132C244.271 46.9346 244.273 46.8581 244.275 46.7808H247.017V53.9429ZM213.234 55.2942C212.489 55.2942 211.883 54.688 211.883 53.9429V46.7808H214.625C214.63 46.9217 214.635 47.0634 214.64 47.2059C214.64 47.2108 214.64 47.2155 214.64 47.2204C214.64 47.2208 214.64 47.2212 214.64 47.2216C214.735 49.934 214.961 52.6919 215.297 55.2941H213.234V55.2942ZM215.937 60.6996C215.191 60.6996 214.585 60.0934 214.585 59.3482V57.9969H215.693L215.981 59.7211C216.035 60.0488 216.103 60.3752 216.181 60.6996H215.937ZM214.587 44.0781H211.934C212.618 35.0213 220.177 27.8621 229.45 27.8621C238.682 27.8621 246.273 35.0204 246.966 44.0781H244.312C244.215 36.6151 238.138 30.5648 230.659 30.5648H228.241C220.762 30.5648 214.685 36.6151 214.587 44.0781ZM228.24 33.2674H230.659C236.715 33.2674 241.615 38.2202 241.612 44.2687C241.612 44.6939 241.609 45.0642 241.601 45.4011C241.601 45.4054 241.601 45.4099 241.601 45.4143L239.911 45.1728C235.319 44.5172 230.984 42.3494 227.703 39.0686C227.449 38.8152 227.106 38.6728 226.747 38.6728C223.118 38.6728 219.644 40.3263 217.348 43.1198C217.914 37.6173 222.565 33.2674 228.24 33.2674ZM218.982 60.6996C218.306 58.4492 217.532 51.8276 217.361 47.5844L219.18 45.1593C220.85 42.9329 223.449 41.5495 226.213 41.3907C229.851 44.8523 234.556 47.1382 239.529 47.8482L241.518 48.1325C241.385 50.9548 241.114 53.7869 240.724 56.3916C240.724 56.3925 240.724 56.3934 240.724 56.3943C240.6 57.2318 240.502 57.7707 240.253 59.2759C239.538 63.5684 236.335 67.4502 232.106 68.5073C230.366 68.9418 228.533 68.9416 226.794 68.5073C224.154 67.8473 221.733 66.0206 220.171 63.4022H222.926C223.483 64.9751 224.985 66.1049 226.747 66.1049H229.45C231.69 66.1049 233.504 64.2909 233.504 62.0509C233.504 59.8155 231.685 57.9969 229.45 57.9969H226.747C224.946 57.9969 223.466 59.1601 222.923 60.6996H218.982ZM226.634 71.2421C227.56 71.4374 228.505 71.5373 229.45 71.5373C230.189 71.5373 230.929 71.4754 231.66 71.3554L229.272 73.8806L226.634 71.2421ZM227.414 75.8452L223.128 80.3779C221.948 78.1192 220.934 75.7686 220.102 73.3621L221.712 70.143L227.414 75.8452ZM236.959 69.6851L238.797 73.362C237.964 75.7725 236.95 78.124 235.771 80.3799L231.184 75.7924L236.959 69.6851ZM225.396 62.0509C225.396 61.3048 226.001 60.6996 226.747 60.6996H229.45C230.195 60.6996 230.801 61.3058 230.801 62.0509C230.801 62.7971 230.196 63.4022 229.45 63.4022H226.747C226.002 63.4022 225.396 62.796 225.396 62.0509ZM201.126 91.6452C201.661 84.9508 206.117 78.866 212.112 76.8665L217.801 74.9709C218.843 77.8526 220.134 80.6535 221.647 83.314C221.65 83.3186 221.652 83.3232 221.655 83.3277C221.655 83.3278 221.655 83.3278 221.655 83.328C222.76 85.2724 224.005 87.1725 225.354 88.9764L227.016 91.6452H201.126ZM229.45 90.4406L227.617 87.4983C227.597 87.4653 227.575 87.4333 227.552 87.4022C226.457 85.9425 225.436 84.4159 224.507 82.8534L229.326 77.7569L234.404 82.835C233.468 84.4089 232.444 85.9418 231.348 87.402C231.282 87.4902 231.376 87.3512 229.45 90.4406ZM231.884 91.6452L233.546 88.9765C234.901 87.1658 236.154 85.2504 237.271 83.2831C237.277 83.2712 237.284 83.259 237.291 83.2471C237.291 83.2457 237.292 83.2443 237.293 83.2428C238.787 80.6077 240.064 77.8311 241.099 74.9709L246.787 76.8665C252.783 78.866 257.238 84.9508 257.774 91.6452H231.884Z" fill="#F0EBF5"/>
<path d="M253.714 86.1768C252.811 84.3691 251.488 82.7632 249.888 81.5327C249.297 81.0774 248.448 81.1881 247.993 81.7797C247.538 82.3713 247.649 83.2197 248.24 83.6748C249.518 84.6576 250.574 85.9405 251.296 87.3846C251.63 88.0534 252.442 88.3226 253.109 87.9896C253.776 87.6561 254.047 86.8445 253.714 86.1768Z" fill="#7568F6"/>
</g>
<circle cx="229" cy="62" r="60.5" stroke="#F0EBF5" stroke-width="3"/>
<path d="M172.62 162V150.192H176.31C177.114 150.192 177.828 150.3 178.452 150.516C179.076 150.72 179.562 151.068 179.91 151.56C180.27 152.04 180.45 152.688 180.45 153.504C180.45 154.416 180.21 155.154 179.73 155.718C179.25 156.27 178.602 156.648 177.786 156.852L180.792 162H179.1L176.256 157.014H174.114V162H172.62ZM174.114 155.79H176.094C177.018 155.79 177.726 155.604 178.218 155.232C178.71 154.848 178.956 154.272 178.956 153.504C178.956 152.724 178.71 152.178 178.218 151.866C177.726 151.554 177.018 151.398 176.094 151.398H174.114V155.79ZM186.094 162.216C185.314 162.216 184.606 162.036 183.97 161.676C183.334 161.304 182.83 160.776 182.458 160.092C182.086 159.408 181.9 158.592 181.9 157.644C181.9 156.684 182.086 155.862 182.458 155.178C182.842 154.494 183.334 153.966 183.934 153.594C184.534 153.222 185.164 153.036 185.824 153.036C186.94 153.036 187.798 153.408 188.398 154.152C189.01 154.896 189.316 155.892 189.316 157.14C189.316 157.296 189.31 157.452 189.298 157.608C189.298 157.752 189.286 157.878 189.262 157.986H183.358C183.418 158.91 183.706 159.648 184.222 160.2C184.75 160.752 185.434 161.028 186.274 161.028C186.694 161.028 187.078 160.968 187.426 160.848C187.786 160.716 188.128 160.548 188.452 160.344L188.974 161.316C188.602 161.556 188.176 161.766 187.696 161.946C187.228 162.126 186.694 162.216 186.094 162.216ZM183.34 156.924H188.02C188.02 156.036 187.828 155.364 187.444 154.908C187.072 154.44 186.544 154.206 185.86 154.206C185.248 154.206 184.696 154.446 184.204 154.926C183.724 155.394 183.436 156.06 183.34 156.924ZM193.456 162L190.306 153.252H191.836L193.492 158.22C193.624 158.652 193.756 159.084 193.888 159.516C194.032 159.948 194.17 160.374 194.302 160.794H194.374C194.506 160.374 194.638 159.948 194.77 159.516C194.914 159.084 195.046 158.652 195.166 158.22L196.822 153.252H198.28L195.184 162H193.456ZM199.968 162V153.252H201.444V162H199.968ZM200.724 151.452C200.436 151.452 200.196 151.368 200.004 151.2C199.824 151.02 199.734 150.78 199.734 150.48C199.734 150.192 199.824 149.958 200.004 149.778C200.196 149.598 200.436 149.508 200.724 149.508C201.012 149.508 201.246 149.598 201.426 149.778C201.618 149.958 201.714 150.192 201.714 150.48C201.714 150.78 201.618 151.02 201.426 151.2C201.246 151.368 201.012 151.452 200.724 151.452ZM207.944 162.216C207.164 162.216 206.456 162.036 205.82 161.676C205.184 161.304 204.68 160.776 204.308 160.092C203.936 159.408 203.75 158.592 203.75 157.644C203.75 156.684 203.936 155.862 204.308 155.178C204.692 154.494 205.184 153.966 205.784 153.594C206.384 153.222 207.014 153.036 207.674 153.036C208.79 153.036 209.648 153.408 210.248 154.152C210.86 154.896 211.166 155.892 211.166 157.14C211.166 157.296 211.16 157.452 211.148 157.608C211.148 157.752 211.136 157.878 211.112 157.986H205.208C205.268 158.91 205.556 159.648 206.072 160.2C206.6 160.752 207.284 161.028 208.124 161.028C208.544 161.028 208.928 160.968 209.276 160.848C209.636 160.716 209.978 160.548 210.302 160.344L210.824 161.316C210.452 161.556 210.026 161.766 209.546 161.946C209.078 162.126 208.544 162.216 207.944 162.216ZM205.19 156.924H209.87C209.87 156.036 209.678 155.364 209.294 154.908C208.922 154.44 208.394 154.206 207.71 154.206C207.098 154.206 206.546 154.446 206.054 154.926C205.574 155.394 205.286 156.06 205.19 156.924ZM214.801 162L212.371 153.252H213.883L215.179 158.31C215.275 158.718 215.365 159.126 215.449 159.534C215.533 159.93 215.617 160.332 215.701 160.74H215.773C215.869 160.332 215.965 159.93 216.061 159.534C216.157 159.126 216.259 158.718 216.367 158.31L217.717 153.252H219.157L220.525 158.31C220.633 158.718 220.735 159.126 220.831 159.534C220.939 159.93 221.041 160.332 221.137 160.74H221.209C221.305 160.332 221.395 159.93 221.479 159.534C221.575 159.126 221.665 158.718 221.749 158.31L223.027 153.252H224.431L222.091 162H220.291L219.031 157.302C218.923 156.882 218.821 156.468 218.725 156.06C218.641 155.652 218.545 155.226 218.437 154.782H218.365C218.269 155.226 218.173 155.658 218.077 156.078C217.981 156.486 217.873 156.9 217.753 157.32L216.529 162H214.801ZM233.395 162.216C232.627 162.216 231.931 162.036 231.307 161.676C230.683 161.316 230.191 160.794 229.831 160.11C229.471 159.426 229.291 158.604 229.291 157.644C229.291 156.66 229.483 155.826 229.867 155.142C230.263 154.458 230.779 153.936 231.415 153.576C232.063 153.216 232.759 153.036 233.503 153.036C234.079 153.036 234.571 153.138 234.979 153.342C235.399 153.546 235.759 153.786 236.059 154.062L235.303 155.034C235.051 154.806 234.781 154.62 234.493 154.476C234.217 154.332 233.905 154.26 233.557 154.26C233.029 154.26 232.555 154.404 232.135 154.692C231.727 154.968 231.403 155.364 231.163 155.88C230.935 156.384 230.821 156.972 230.821 157.644C230.821 158.64 231.067 159.45 231.559 160.074C232.063 160.686 232.717 160.992 233.521 160.992C233.929 160.992 234.307 160.908 234.655 160.74C235.003 160.56 235.309 160.35 235.573 160.11L236.221 161.1C235.825 161.448 235.387 161.724 234.907 161.928C234.427 162.12 233.923 162.216 233.395 162.216ZM241.163 162.216C240.455 162.216 239.789 162.036 239.165 161.676C238.553 161.316 238.055 160.794 237.671 160.11C237.299 159.426 237.113 158.604 237.113 157.644C237.113 156.66 237.299 155.826 237.671 155.142C238.055 154.458 238.553 153.936 239.165 153.576C239.789 153.216 240.455 153.036 241.163 153.036C241.883 153.036 242.549 153.216 243.161 153.576C243.773 153.936 244.265 154.458 244.637 155.142C245.021 155.826 245.213 156.66 245.213 157.644C245.213 158.604 245.021 159.426 244.637 160.11C244.265 160.794 243.773 161.316 243.161 161.676C242.549 162.036 241.883 162.216 241.163 162.216ZM241.163 160.992C241.919 160.992 242.525 160.686 242.981 160.074C243.449 159.45 243.683 158.64 243.683 157.644C243.683 156.636 243.449 155.82 242.981 155.196C242.525 154.572 241.919 154.26 241.163 154.26C240.419 154.26 239.813 154.572 239.345 155.196C238.877 155.82 238.643 156.636 238.643 157.644C238.643 158.64 238.877 159.45 239.345 160.074C239.813 160.686 240.419 160.992 241.163 160.992ZM247.517 162V153.252H248.741L248.867 154.512H248.921C249.341 154.092 249.785 153.744 250.253 153.468C250.721 153.18 251.255 153.036 251.855 153.036C252.779 153.036 253.451 153.33 253.871 153.918C254.303 154.494 254.519 155.34 254.519 156.456V162H253.043V156.654C253.043 155.838 252.911 155.244 252.647 154.872C252.383 154.5 251.963 154.314 251.387 154.314C250.943 154.314 250.541 154.428 250.181 154.656C249.833 154.884 249.437 155.22 248.993 155.664V162H247.517ZM260.115 162.216C259.179 162.216 258.525 161.946 258.153 161.406C257.793 160.866 257.613 160.164 257.613 159.3V154.458H256.317V153.342L257.685 153.252L257.865 150.804H259.107V153.252H261.465V154.458H259.107V159.318C259.107 159.858 259.203 160.278 259.395 160.578C259.599 160.866 259.953 161.01 260.457 161.01C260.613 161.01 260.781 160.986 260.961 160.938C261.141 160.878 261.303 160.824 261.447 160.776L261.735 161.892C261.495 161.976 261.231 162.048 260.943 162.108C260.667 162.18 260.391 162.216 260.115 162.216ZM266.743 162.216C265.963 162.216 265.255 162.036 264.619 161.676C263.983 161.304 263.479 160.776 263.107 160.092C262.735 159.408 262.549 158.592 262.549 157.644C262.549 156.684 262.735 155.862 263.107 155.178C263.491 154.494 263.983 153.966 264.583 153.594C265.183 153.222 265.813 153.036 266.473 153.036C267.589 153.036 268.447 153.408 269.047 154.152C269.659 154.896 269.965 155.892 269.965 157.14C269.965 157.296 269.959 157.452 269.947 157.608C269.947 157.752 269.935 157.878 269.911 157.986H264.007C264.067 158.91 264.355 159.648 264.871 160.2C265.399 160.752 266.083 161.028 266.923 161.028C267.343 161.028 267.727 160.968 268.075 160.848C268.435 160.716 268.777 160.548 269.101 160.344L269.623 161.316C269.251 161.556 268.825 161.766 268.345 161.946C267.877 162.126 267.343 162.216 266.743 162.216ZM263.989 156.924H268.669C268.669 156.036 268.477 155.364 268.093 154.908C267.721 154.44 267.193 154.206 266.509 154.206C265.897 154.206 265.345 154.446 264.853 154.926C264.373 155.394 264.085 156.06 263.989 156.924ZM272.126 162V153.252H273.35L273.476 154.512H273.53C273.95 154.092 274.394 153.744 274.862 153.468C275.33 153.18 275.864 153.036 276.464 153.036C277.388 153.036 278.06 153.33 278.48 153.918C278.912 154.494 279.128 155.34 279.128 156.456V162H277.652V156.654C277.652 155.838 277.52 155.244 277.256 154.872C276.992 154.5 276.572 154.314 275.996 154.314C275.552 154.314 275.15 154.428 274.79 154.656C274.442 154.884 274.046 155.22 273.602 155.664V162H272.126ZM284.724 162.216C283.788 162.216 283.134 161.946 282.762 161.406C282.402 160.866 282.222 160.164 282.222 159.3V154.458H280.926V153.342L282.294 153.252L282.474 150.804H283.716V153.252H286.074V154.458H283.716V159.318C283.716 159.858 283.812 160.278 284.004 160.578C284.208 160.866 284.562 161.01 285.066 161.01C285.222 161.01 285.39 160.986 285.57 160.938C285.75 160.878 285.912 160.824 286.056 160.776L286.344 161.892C286.104 161.976 285.84 162.048 285.552 162.108C285.276 162.18 285 162.216 284.724 162.216Z" fill="#F0EBF5"/>
<line x1="122.598" y1="70" x2="166.598" y2="70" stroke="#F0EBF5" stroke-width="4"/>
<line x1="471" y1="70" x2="517" y2="70" stroke="#F0EBF5" stroke-width="4"/>
<line x1="291" y1="70" x2="349" y2="70" stroke="#F0EBF5" stroke-width="4" stroke-dasharray="10 10"/>
<circle cx="411.5" cy="62" r="60.5" stroke="#F0EBF5" stroke-width="3"/>
<g clip-path="url(#clip1_2536_15695)">
<path d="M445.136 60.1995H435.135V28.308C435.135 27.7615 434.805 27.2687 434.3 27.0595C433.795 26.8502 433.214 26.9661 432.828 27.3523L428.999 31.1804L425.172 27.3525C424.644 26.8248 423.788 26.8248 423.26 27.3525L419.432 31.1805L415.605 27.3525C415.077 26.8248 414.221 26.8248 413.693 27.3525L409.865 31.1805L406.037 27.3525C405.509 26.8248 404.654 26.8248 404.126 27.3525L400.298 31.1805L396.47 27.3525C395.943 26.8248 395.087 26.8248 394.559 27.3525L390.731 31.1805L386.903 27.3525C386.379 26.828 385.53 26.8253 385.001 27.345C384.724 27.6181 384.589 27.982 384.598 28.3435V89.1183C384.598 92.9928 387.75 96.1449 391.625 96.1449H439.459C439.459 96.1449 439.459 96.1449 439.46 96.1449C439.46 96.1449 439.46 96.1449 439.461 96.1449C443.335 96.1449 446.487 92.9928 446.487 89.1183V61.5507C446.487 60.8044 445.882 60.1995 445.136 60.1995ZM391.625 93.4423C389.24 93.4423 387.301 91.5024 387.301 89.1181V31.5721L389.775 34.047C390.303 34.5747 391.159 34.5747 391.687 34.047L395.515 30.2189L399.343 34.047C399.871 34.5747 400.726 34.5747 401.254 34.047L405.082 30.2189L408.91 34.047C409.438 34.5747 410.294 34.5747 410.821 34.047L414.649 30.2189L418.477 34.047C419.005 34.5747 419.861 34.5747 420.389 34.047L424.217 30.2189L428.045 34.047C428.573 34.5747 429.428 34.5747 429.956 34.047L432.433 31.5702V61.5507C432.433 61.563 432.434 61.575 432.435 61.5873V89.1181C432.435 90.7481 432.994 92.2489 433.929 93.4423H391.625ZM443.785 89.1181C443.785 91.5024 441.845 93.4423 439.461 93.4423C437.076 93.4423 435.136 91.5024 435.136 89.1181V62.9021H443.785V89.1181Z" fill="#F0EBF5"/>
<path d="M409.867 48.4232C408.526 48.4232 407.435 47.4888 407.435 46.3406C407.435 45.1923 408.526 44.2579 409.867 44.2579C411.209 44.2579 412.3 45.1923 412.3 46.3406C412.3 47.087 412.905 47.692 413.651 47.692C414.397 47.692 415.002 47.087 415.002 46.3406C415.002 44.1378 413.396 42.2792 411.219 41.7249V40.8095C411.219 40.0631 410.614 39.4581 409.867 39.4581C409.121 39.4581 408.516 40.0631 408.516 40.8095V41.7249C406.338 42.2792 404.732 44.1379 404.732 46.3406C404.732 48.9791 407.036 51.1257 409.867 51.1257C411.209 51.1257 412.3 52.06 412.3 53.2084C412.3 54.3567 411.209 55.2909 409.867 55.2909C408.526 55.2909 407.435 54.3566 407.435 53.2084C407.435 52.462 406.83 51.857 406.084 51.857C405.337 51.857 404.732 52.462 404.732 53.2084C404.732 55.4112 406.338 57.2698 408.516 57.8241V58.9268C408.516 59.6732 409.121 60.2782 409.867 60.2782C410.614 60.2782 411.219 59.6732 411.219 58.9268V57.8241C413.397 57.2698 415.002 55.4112 415.002 53.2084C415.002 50.5699 412.699 48.4232 409.867 48.4232Z" fill="#7568F6"/>
<path d="M423.444 48.4235H420.81C420.064 48.4235 419.459 49.0285 419.459 49.7748C419.459 50.5211 420.064 51.1261 420.81 51.1261H423.444C424.19 51.1261 424.795 50.5211 424.795 49.7748C424.795 49.0285 424.19 48.4235 423.444 48.4235Z" fill="#7568F6"/>
<path d="M398.925 48.4235H396.291C395.544 48.4235 394.939 49.0285 394.939 49.7748C394.939 50.5211 395.544 51.1261 396.291 51.1261H398.925C399.671 51.1261 400.276 50.5211 400.276 49.7748C400.276 49.0285 399.671 48.4235 398.925 48.4235Z" fill="#7568F6"/>
<path d="M424.127 63.4435H402.719C401.972 63.4435 401.367 64.0485 401.367 64.7948C401.367 65.5412 401.972 66.1462 402.719 66.1462H424.127C424.873 66.1462 425.478 65.5412 425.478 64.7948C425.478 64.0485 424.873 63.4435 424.127 63.4435Z" fill="#F0EBF5"/>
<path d="M396.563 63.8394C396.311 63.5881 395.963 63.4435 395.607 63.4435C395.252 63.4435 394.903 63.5881 394.652 63.8394C394.4 64.0908 394.256 64.4394 394.256 64.7948C394.256 65.1502 394.4 65.4989 394.652 65.7502C394.903 66.0016 395.252 66.1462 395.607 66.1462C395.963 66.1462 396.311 66.0016 396.563 65.7502C396.814 65.4989 396.959 65.1502 396.959 64.7948C396.959 64.4394 396.814 64.0908 396.563 63.8394Z" fill="#F0EBF5"/>
<path d="M424.127 72.3623H402.719C401.972 72.3623 401.367 72.9673 401.367 73.7136C401.367 74.46 401.972 75.065 402.719 75.065H424.127C424.873 75.065 425.478 74.46 425.478 73.7136C425.478 72.9673 424.873 72.3623 424.127 72.3623Z" fill="#F0EBF5"/>
<path d="M396.563 72.7582C396.311 72.5069 395.963 72.3623 395.607 72.3623C395.252 72.3623 394.903 72.5069 394.652 72.7582C394.4 73.0096 394.256 73.3582 394.256 73.7136C394.256 74.069 394.4 74.4177 394.652 74.669C394.903 74.9204 395.252 75.065 395.607 75.065C395.963 75.065 396.311 74.9204 396.563 74.669C396.814 74.4177 396.959 74.069 396.959 73.7136C396.959 73.3582 396.814 73.0096 396.563 72.7582Z" fill="#F0EBF5"/>
<path d="M424.127 81.2803H402.719C401.972 81.2803 401.367 81.8853 401.367 82.6316C401.367 83.378 401.972 83.9829 402.719 83.9829H424.127C424.873 83.9829 425.478 83.378 425.478 82.6316C425.478 81.8853 424.873 81.2803 424.127 81.2803Z" fill="#F0EBF5"/>
<path d="M396.563 81.6762C396.311 81.4249 395.963 81.2803 395.607 81.2803C395.252 81.2803 394.903 81.4249 394.652 81.6762C394.4 81.9276 394.256 82.2762 394.256 82.6316C394.256 82.987 394.4 83.3357 394.652 83.587C394.903 83.8384 395.252 83.9829 395.607 83.9829C395.963 83.9829 396.311 83.8384 396.563 83.587C396.814 83.3357 396.959 82.987 396.959 82.6316C396.959 82.2762 396.814 81.9276 396.563 81.6762Z" fill="#F0EBF5"/>
</g>
<path d="M355.264 162.216C354.232 162.216 353.314 161.976 352.51 161.496C351.706 161.004 351.076 160.302 350.62 159.39C350.164 158.478 349.936 157.38 349.936 156.096C349.936 154.824 350.17 153.732 350.638 152.82C351.106 151.908 351.748 151.206 352.564 150.714C353.38 150.222 354.31 149.976 355.354 149.976C356.17 149.976 356.854 150.132 357.406 150.444C357.97 150.744 358.42 151.074 358.756 151.434L357.928 152.406C357.628 152.094 357.28 151.83 356.884 151.614C356.488 151.398 355.99 151.29 355.39 151.29C354.598 151.29 353.908 151.488 353.32 151.884C352.732 152.268 352.276 152.814 351.952 153.522C351.64 154.23 351.484 155.076 351.484 156.06C351.484 157.548 351.82 158.73 352.492 159.606C353.176 160.47 354.148 160.902 355.408 160.902C355.828 160.902 356.23 160.842 356.614 160.722C356.998 160.59 357.304 160.416 357.532 160.2V157.122H355.03V155.88H358.9V160.848C358.528 161.244 358.024 161.574 357.388 161.838C356.764 162.09 356.056 162.216 355.264 162.216ZM365.131 162.216C364.351 162.216 363.643 162.036 363.007 161.676C362.371 161.304 361.867 160.776 361.495 160.092C361.123 159.408 360.937 158.592 360.937 157.644C360.937 156.684 361.123 155.862 361.495 155.178C361.879 154.494 362.371 153.966 362.971 153.594C363.571 153.222 364.201 153.036 364.861 153.036C365.977 153.036 366.835 153.408 367.435 154.152C368.047 154.896 368.353 155.892 368.353 157.14C368.353 157.296 368.347 157.452 368.335 157.608C368.335 157.752 368.323 157.878 368.299 157.986H362.395C362.455 158.91 362.743 159.648 363.259 160.2C363.787 160.752 364.471 161.028 365.311 161.028C365.731 161.028 366.115 160.968 366.463 160.848C366.823 160.716 367.165 160.548 367.489 160.344L368.011 161.316C367.639 161.556 367.213 161.766 366.733 161.946C366.265 162.126 365.731 162.216 365.131 162.216ZM362.377 156.924H367.057C367.057 156.036 366.865 155.364 366.481 154.908C366.109 154.44 365.581 154.206 364.897 154.206C364.285 154.206 363.733 154.446 363.241 154.926C362.761 155.394 362.473 156.06 362.377 156.924ZM373.093 162.216C372.157 162.216 371.503 161.946 371.131 161.406C370.771 160.866 370.591 160.164 370.591 159.3V154.458H369.295V153.342L370.663 153.252L370.843 150.804H372.085V153.252H374.443V154.458H372.085V159.318C372.085 159.858 372.181 160.278 372.373 160.578C372.577 160.866 372.931 161.01 373.435 161.01C373.591 161.01 373.759 160.986 373.939 160.938C374.119 160.878 374.281 160.824 374.425 160.776L374.713 161.892C374.473 161.976 374.209 162.048 373.921 162.108C373.645 162.18 373.369 162.216 373.093 162.216ZM382.779 162.216C381.843 162.216 381.189 161.946 380.817 161.406C380.457 160.866 380.277 160.164 380.277 159.3V154.458H378.981V153.342L380.349 153.252L380.529 150.804H381.771V153.252H384.129V154.458H381.771V159.318C381.771 159.858 381.867 160.278 382.059 160.578C382.263 160.866 382.617 161.01 383.121 161.01C383.277 161.01 383.445 160.986 383.625 160.938C383.805 160.878 383.967 160.824 384.111 160.776L384.399 161.892C384.159 161.976 383.895 162.048 383.607 162.108C383.331 162.18 383.055 162.216 382.779 162.216ZM386.107 162V149.184H387.583V152.676L387.529 154.476C387.949 154.08 388.387 153.744 388.843 153.468C389.311 153.18 389.845 153.036 390.445 153.036C391.369 153.036 392.041 153.33 392.461 153.918C392.893 154.494 393.109 155.34 393.109 156.456V162H391.633V156.654C391.633 155.838 391.501 155.244 391.237 154.872C390.973 154.5 390.553 154.314 389.977 154.314C389.533 154.314 389.131 154.428 388.771 154.656C388.423 154.884 388.027 155.22 387.583 155.664V162H386.107ZM399.444 162.216C398.664 162.216 397.956 162.036 397.32 161.676C396.684 161.304 396.18 160.776 395.808 160.092C395.436 159.408 395.25 158.592 395.25 157.644C395.25 156.684 395.436 155.862 395.808 155.178C396.192 154.494 396.684 153.966 397.284 153.594C397.884 153.222 398.514 153.036 399.174 153.036C400.29 153.036 401.148 153.408 401.748 154.152C402.36 154.896 402.666 155.892 402.666 157.14C402.666 157.296 402.66 157.452 402.648 157.608C402.648 157.752 402.636 157.878 402.612 157.986H396.708C396.768 158.91 397.056 159.648 397.572 160.2C398.1 160.752 398.784 161.028 399.624 161.028C400.044 161.028 400.428 160.968 400.776 160.848C401.136 160.716 401.478 160.548 401.802 160.344L402.324 161.316C401.952 161.556 401.526 161.766 401.046 161.946C400.578 162.126 400.044 162.216 399.444 162.216ZM396.69 156.924H401.37C401.37 156.036 401.178 155.364 400.794 154.908C400.422 154.44 399.894 154.206 399.21 154.206C398.598 154.206 398.046 154.446 397.554 154.926C397.074 155.394 396.786 156.06 396.69 156.924ZM411.419 162.216C410.327 162.216 409.451 161.82 408.791 161.028C408.131 160.224 407.801 159.096 407.801 157.644C407.801 156.696 407.975 155.88 408.323 155.196C408.683 154.5 409.151 153.966 409.727 153.594C410.315 153.222 410.939 153.036 411.599 153.036C412.103 153.036 412.541 153.126 412.913 153.306C413.285 153.486 413.663 153.732 414.047 154.044L413.975 152.55V149.184H415.469V162H414.245L414.119 160.974H414.065C413.729 161.31 413.333 161.604 412.877 161.856C412.421 162.096 411.935 162.216 411.419 162.216ZM411.743 160.974C412.511 160.974 413.255 160.572 413.975 159.768V155.196C413.603 154.86 413.243 154.626 412.895 154.494C412.559 154.35 412.211 154.278 411.851 154.278C411.383 154.278 410.957 154.422 410.573 154.71C410.201 154.986 409.901 155.376 409.673 155.88C409.445 156.372 409.331 156.954 409.331 157.626C409.331 158.67 409.541 159.492 409.961 160.092C410.381 160.68 410.975 160.974 411.743 160.974ZM418.415 162V153.252H419.891V162H418.415ZM419.171 151.452C418.883 151.452 418.643 151.368 418.451 151.2C418.271 151.02 418.181 150.78 418.181 150.48C418.181 150.192 418.271 149.958 418.451 149.778C418.643 149.598 418.883 149.508 419.171 149.508C419.459 149.508 419.693 149.598 419.873 149.778C420.065 149.958 420.161 150.192 420.161 150.48C420.161 150.78 420.065 151.02 419.873 151.2C419.693 151.368 419.459 151.452 419.171 151.452ZM425.131 162.216C424.507 162.216 423.913 162.102 423.349 161.874C422.785 161.634 422.293 161.346 421.873 161.01L422.611 160.02C422.995 160.32 423.391 160.572 423.799 160.776C424.207 160.968 424.669 161.064 425.185 161.064C425.761 161.064 426.193 160.932 426.481 160.668C426.769 160.392 426.913 160.068 426.913 159.696C426.913 159.396 426.811 159.144 426.607 158.94C426.415 158.736 426.163 158.568 425.851 158.436C425.551 158.292 425.239 158.16 424.915 158.04C424.507 157.884 424.105 157.71 423.709 157.518C423.313 157.314 422.989 157.056 422.737 156.744C422.485 156.42 422.359 156.012 422.359 155.52C422.359 154.812 422.623 154.224 423.151 153.756C423.691 153.276 424.435 153.036 425.383 153.036C425.923 153.036 426.427 153.132 426.895 153.324C427.363 153.516 427.765 153.75 428.101 154.026L427.381 154.962C427.081 154.734 426.769 154.548 426.445 154.404C426.121 154.26 425.767 154.188 425.383 154.188C424.831 154.188 424.423 154.314 424.159 154.566C423.907 154.818 423.781 155.112 423.781 155.448C423.781 155.724 423.871 155.952 424.051 156.132C424.231 156.3 424.465 156.45 424.753 156.582C425.041 156.702 425.347 156.828 425.671 156.96C426.091 157.116 426.505 157.296 426.913 157.5C427.321 157.692 427.657 157.956 427.921 158.292C428.197 158.616 428.335 159.054 428.335 159.606C428.335 160.074 428.209 160.506 427.957 160.902C427.717 161.298 427.357 161.616 426.877 161.856C426.409 162.096 425.827 162.216 425.131 162.216ZM433.842 162.216C433.074 162.216 432.378 162.036 431.754 161.676C431.13 161.316 430.638 160.794 430.278 160.11C429.918 159.426 429.738 158.604 429.738 157.644C429.738 156.66 429.93 155.826 430.314 155.142C430.71 154.458 431.226 153.936 431.862 153.576C432.51 153.216 433.206 153.036 433.95 153.036C434.526 153.036 435.018 153.138 435.426 153.342C435.846 153.546 436.206 153.786 436.506 154.062L435.75 155.034C435.498 154.806 435.228 154.62 434.94 154.476C434.664 154.332 434.352 154.26 434.004 154.26C433.476 154.26 433.002 154.404 432.582 154.692C432.174 154.968 431.85 155.364 431.61 155.88C431.382 156.384 431.268 156.972 431.268 157.644C431.268 158.64 431.514 159.45 432.006 160.074C432.51 160.686 433.164 160.992 433.968 160.992C434.376 160.992 434.754 160.908 435.102 160.74C435.45 160.56 435.756 160.35 436.02 160.11L436.668 161.1C436.272 161.448 435.834 161.724 435.354 161.928C434.874 162.12 434.37 162.216 433.842 162.216ZM441.61 162.216C440.902 162.216 440.236 162.036 439.612 161.676C439 161.316 438.502 160.794 438.118 160.11C437.746 159.426 437.56 158.604 437.56 157.644C437.56 156.66 437.746 155.826 438.118 155.142C438.502 154.458 439 153.936 439.612 153.576C440.236 153.216 440.902 153.036 441.61 153.036C442.33 153.036 442.996 153.216 443.608 153.576C444.22 153.936 444.712 154.458 445.084 155.142C445.468 155.826 445.66 156.66 445.66 157.644C445.66 158.604 445.468 159.426 445.084 160.11C444.712 160.794 444.22 161.316 443.608 161.676C442.996 162.036 442.33 162.216 441.61 162.216ZM441.61 160.992C442.366 160.992 442.972 160.686 443.428 160.074C443.896 159.45 444.13 158.64 444.13 157.644C444.13 156.636 443.896 155.82 443.428 155.196C442.972 154.572 442.366 154.26 441.61 154.26C440.866 154.26 440.26 154.572 439.792 155.196C439.324 155.82 439.09 156.636 439.09 157.644C439.09 158.64 439.324 159.45 439.792 160.074C440.26 160.686 440.866 160.992 441.61 160.992ZM450.52 162.216C449.596 162.216 448.918 161.928 448.486 161.352C448.054 160.764 447.838 159.912 447.838 158.796V153.252H449.332V158.598C449.332 159.414 449.458 160.008 449.71 160.38C449.974 160.752 450.394 160.938 450.97 160.938C451.426 160.938 451.828 160.824 452.176 160.596C452.536 160.356 452.92 159.978 453.328 159.462V153.252H454.804V162H453.58L453.454 160.632H453.4C452.992 161.112 452.56 161.496 452.104 161.784C451.648 162.072 451.12 162.216 450.52 162.216ZM457.755 162V153.252H458.979L459.105 154.512H459.159C459.579 154.092 460.023 153.744 460.491 153.468C460.959 153.18 461.493 153.036 462.093 153.036C463.017 153.036 463.689 153.33 464.109 153.918C464.541 154.494 464.757 155.34 464.757 156.456V162H463.281V156.654C463.281 155.838 463.149 155.244 462.885 154.872C462.621 154.5 462.201 154.314 461.625 154.314C461.181 154.314 460.779 154.428 460.419 154.656C460.071 154.884 459.675 155.22 459.231 155.664V162H457.755ZM470.353 162.216C469.417 162.216 468.763 161.946 468.391 161.406C468.031 160.866 467.851 160.164 467.851 159.3V154.458H466.555V153.342L467.923 153.252L468.103 150.804H469.345V153.252H471.703V154.458H469.345V159.318C469.345 159.858 469.441 160.278 469.633 160.578C469.837 160.866 470.191 161.01 470.695 161.01C470.851 161.01 471.019 160.986 471.199 160.938C471.379 160.878 471.541 160.824 471.685 160.776L471.973 161.892C471.733 161.976 471.469 162.048 471.181 162.108C470.905 162.18 470.629 162.216 470.353 162.216ZM353.932 185.216C353.164 185.216 352.468 185.036 351.844 184.676C351.22 184.316 350.728 183.794 350.368 183.11C350.008 182.426 349.828 181.604 349.828 180.644C349.828 179.66 350.02 178.826 350.404 178.142C350.8 177.458 351.316 176.936 351.952 176.576C352.6 176.216 353.296 176.036 354.04 176.036C354.616 176.036 355.108 176.138 355.516 176.342C355.936 176.546 356.296 176.786 356.596 177.062L355.84 178.034C355.588 177.806 355.318 177.62 355.03 177.476C354.754 177.332 354.442 177.26 354.094 177.26C353.566 177.26 353.092 177.404 352.672 177.692C352.264 177.968 351.94 178.364 351.7 178.88C351.472 179.384 351.358 179.972 351.358 180.644C351.358 181.64 351.604 182.45 352.096 183.074C352.6 183.686 353.254 183.992 354.058 183.992C354.466 183.992 354.844 183.908 355.192 183.74C355.54 183.56 355.846 183.35 356.11 183.11L356.758 184.1C356.362 184.448 355.924 184.724 355.444 184.928C354.964 185.12 354.46 185.216 353.932 185.216ZM361.7 185.216C360.992 185.216 360.326 185.036 359.702 184.676C359.09 184.316 358.592 183.794 358.208 183.11C357.836 182.426 357.65 181.604 357.65 180.644C357.65 179.66 357.836 178.826 358.208 178.142C358.592 177.458 359.09 176.936 359.702 176.576C360.326 176.216 360.992 176.036 361.7 176.036C362.42 176.036 363.086 176.216 363.698 176.576C364.31 176.936 364.802 177.458 365.174 178.142C365.558 178.826 365.75 179.66 365.75 180.644C365.75 181.604 365.558 182.426 365.174 183.11C364.802 183.794 364.31 184.316 363.698 184.676C363.086 185.036 362.42 185.216 361.7 185.216ZM361.7 183.992C362.456 183.992 363.062 183.686 363.518 183.074C363.986 182.45 364.22 181.64 364.22 180.644C364.22 179.636 363.986 178.82 363.518 178.196C363.062 177.572 362.456 177.26 361.7 177.26C360.956 177.26 360.35 177.572 359.882 178.196C359.414 178.82 359.18 179.636 359.18 180.644C359.18 181.64 359.414 182.45 359.882 183.074C360.35 183.686 360.956 183.992 361.7 183.992ZM371.042 185.216C369.95 185.216 369.074 184.82 368.414 184.028C367.754 183.224 367.424 182.096 367.424 180.644C367.424 179.696 367.598 178.88 367.946 178.196C368.306 177.5 368.774 176.966 369.35 176.594C369.938 176.222 370.562 176.036 371.222 176.036C371.726 176.036 372.164 176.126 372.536 176.306C372.908 176.486 373.286 176.732 373.67 177.044L373.598 175.55V172.184H375.092V185H373.868L373.742 183.974H373.688C373.352 184.31 372.956 184.604 372.5 184.856C372.044 185.096 371.558 185.216 371.042 185.216ZM371.366 183.974C372.134 183.974 372.878 183.572 373.598 182.768V178.196C373.226 177.86 372.866 177.626 372.518 177.494C372.182 177.35 371.834 177.278 371.474 177.278C371.006 177.278 370.58 177.422 370.196 177.71C369.824 177.986 369.524 178.376 369.296 178.88C369.068 179.372 368.954 179.954 368.954 180.626C368.954 181.67 369.164 182.492 369.584 183.092C370.004 183.68 370.598 183.974 371.366 183.974ZM381.585 185.216C380.805 185.216 380.097 185.036 379.461 184.676C378.825 184.304 378.321 183.776 377.949 183.092C377.577 182.408 377.391 181.592 377.391 180.644C377.391 179.684 377.577 178.862 377.949 178.178C378.333 177.494 378.825 176.966 379.425 176.594C380.025 176.222 380.655 176.036 381.314 176.036C382.431 176.036 383.289 176.408 383.889 177.152C384.501 177.896 384.807 178.892 384.807 180.14C384.807 180.296 384.801 180.452 384.789 180.608C384.789 180.752 384.777 180.878 384.753 180.986H378.849C378.909 181.91 379.197 182.648 379.713 183.2C380.241 183.752 380.925 184.028 381.765 184.028C382.185 184.028 382.569 183.968 382.917 183.848C383.277 183.716 383.619 183.548 383.943 183.344L384.465 184.316C384.093 184.556 383.667 184.766 383.187 184.946C382.719 185.126 382.185 185.216 381.585 185.216ZM378.831 179.924H383.511C383.511 179.036 383.319 178.364 382.935 177.908C382.563 177.44 382.035 177.206 381.351 177.206C380.739 177.206 380.187 177.446 379.695 177.926C379.215 178.394 378.927 179.06 378.831 179.924ZM392.948 188.168C392.204 186.956 391.622 185.69 391.202 184.37C390.782 183.038 390.572 181.58 390.572 179.996C390.572 178.412 390.782 176.954 391.202 175.622C391.622 174.29 392.204 173.024 392.948 171.824L393.866 172.256C393.17 173.396 392.648 174.632 392.3 175.964C391.964 177.284 391.796 178.628 391.796 179.996C391.796 181.364 391.964 182.714 392.3 184.046C392.648 185.366 393.17 186.596 393.866 187.736L392.948 188.168ZM396.165 185V173.192H402.969V174.452H397.659V178.16H402.141V179.438H397.659V183.722H403.149V185H396.165ZM405.513 185V176.252H406.737L406.863 177.512H406.917C407.301 177.092 407.721 176.744 408.177 176.468C408.633 176.18 409.119 176.036 409.635 176.036C410.307 176.036 410.829 176.186 411.201 176.486C411.585 176.774 411.867 177.182 412.047 177.71C412.503 177.218 412.965 176.816 413.433 176.504C413.901 176.192 414.399 176.036 414.927 176.036C415.827 176.036 416.493 176.33 416.925 176.918C417.369 177.494 417.591 178.34 417.591 179.456V185H416.115V179.654C416.115 178.838 415.983 178.244 415.719 177.872C415.455 177.5 415.047 177.314 414.495 177.314C413.847 177.314 413.115 177.764 412.299 178.664V185H410.823V179.654C410.823 178.838 410.691 178.244 410.427 177.872C410.163 177.5 409.749 177.314 409.185 177.314C408.537 177.314 407.805 177.764 406.989 178.664V185H405.513ZM422.453 185.216C421.721 185.216 421.109 185 420.617 184.568C420.137 184.124 419.897 183.512 419.897 182.732C419.897 181.772 420.323 181.04 421.175 180.536C422.039 180.02 423.401 179.66 425.261 179.456C425.261 179.084 425.207 178.73 425.099 178.394C425.003 178.058 424.823 177.788 424.559 177.584C424.307 177.368 423.941 177.26 423.461 177.26C422.957 177.26 422.483 177.356 422.039 177.548C421.595 177.74 421.199 177.956 420.851 178.196L420.275 177.17C420.683 176.906 421.181 176.654 421.769 176.414C422.369 176.162 423.017 176.036 423.713 176.036C424.781 176.036 425.555 176.366 426.035 177.026C426.515 177.674 426.755 178.544 426.755 179.636V185H425.531L425.405 183.956H425.351C424.943 184.292 424.493 184.586 424.001 184.838C423.521 185.09 423.005 185.216 422.453 185.216ZM422.885 184.028C423.305 184.028 423.701 183.926 424.073 183.722C424.445 183.518 424.841 183.23 425.261 182.858V180.428C423.809 180.608 422.789 180.878 422.201 181.238C421.625 181.598 421.337 182.06 421.337 182.624C421.337 183.116 421.487 183.476 421.787 183.704C422.087 183.92 422.453 184.028 422.885 184.028ZM429.507 185V176.252H430.983V185H429.507ZM430.263 174.452C429.975 174.452 429.735 174.368 429.543 174.2C429.363 174.02 429.273 173.78 429.273 173.48C429.273 173.192 429.363 172.958 429.543 172.778C429.735 172.598 429.975 172.508 430.263 172.508C430.551 172.508 430.785 172.598 430.965 172.778C431.157 172.958 431.253 173.192 431.253 173.48C431.253 173.78 431.157 174.02 430.965 174.2C430.785 174.368 430.551 174.452 430.263 174.452ZM435.503 185.216C434.951 185.216 434.549 185.048 434.297 184.712C434.057 184.364 433.937 183.872 433.937 183.236V172.184H435.413V183.344C435.413 183.572 435.455 183.74 435.539 183.848C435.623 183.944 435.719 183.992 435.827 183.992C435.875 183.992 435.917 183.992 435.953 183.992C436.001 183.98 436.067 183.968 436.151 183.956L436.349 185.072C436.253 185.12 436.139 185.156 436.007 185.18C435.875 185.204 435.707 185.216 435.503 185.216ZM438.651 188.168L437.733 187.736C438.429 186.596 438.945 185.366 439.281 184.046C439.629 182.714 439.803 181.364 439.803 179.996C439.803 178.628 439.629 177.284 439.281 175.964C438.945 174.632 438.429 173.396 437.733 172.256L438.651 171.824C439.395 173.024 439.977 174.29 440.397 175.622C440.817 176.954 441.027 178.412 441.027 179.996C441.027 181.58 440.817 183.038 440.397 184.37C439.977 185.69 439.395 186.956 438.651 188.168Z" fill="#F0EBF5"/>
<g clip-path="url(#clip2_2536_15695)">
<path d="M545.7 70.8621C546.829 70.8621 547.747 69.9437 547.747 68.8147C547.747 67.6857 546.829 66.7673 545.7 66.7673C544.571 66.7673 543.652 67.6857 543.652 68.8147C543.652 69.9437 544.571 70.8621 545.7 70.8621Z" fill="#F0EBF5"/>
<path d="M595.099 55.6112C594.459 54.9717 593.422 54.9717 592.783 55.6112L587.804 60.5898C587.164 61.2294 587.164 62.2665 587.804 62.9062C588.124 63.226 588.543 63.386 588.962 63.386C589.381 63.386 589.801 63.226 590.12 62.9062L595.099 57.9277C595.738 57.2881 595.738 56.2509 595.099 55.6112Z" fill="#7568F6"/>
<path d="M592.437 67.5391C592.757 67.8588 593.176 68.0188 593.595 68.0188C594.014 68.0188 594.433 67.8588 594.753 67.5391L604.71 57.5817C605.35 56.9421 605.35 55.905 604.71 55.2652C604.071 54.6258 603.033 54.6258 602.394 55.2652L592.437 65.2226C591.797 65.8622 591.797 66.8993 592.437 67.5391Z" fill="#7568F6"/>
<path d="M615.057 57.1964L598.147 40.2871C597.508 39.6476 596.471 39.6476 595.831 40.2871L589.825 46.2934H569.553C564.883 46.2934 560.436 48.4214 557.493 52.0261H554.299V49.5693C554.299 48.6648 553.565 47.9314 552.661 47.9314H545.29C544.386 47.9314 543.652 48.6648 543.652 49.5693C543.652 50.4737 544.386 51.2072 545.29 51.2072H551.023V74.1379H545.29C544.386 74.1379 543.652 74.8714 543.652 75.7758C543.652 76.6803 544.386 77.4137 545.29 77.4137H552.661C553.565 77.4137 554.299 76.6803 554.299 75.7758V71.681H557.493C560.436 75.2857 564.883 77.4137 569.553 77.4137H571.458L583.149 89.1041C583.469 89.4238 583.888 89.5839 584.307 89.5839C584.726 89.5839 585.145 89.4238 585.465 89.1041L615.057 59.5128C615.364 59.2056 615.536 58.7891 615.536 58.3547C615.536 57.9203 615.364 57.5036 615.057 57.1964ZM559.62 69.0784C559.312 68.6553 558.82 68.4052 558.297 68.4052H554.299V55.3019H558.297C558.82 55.3019 559.312 55.0518 559.62 54.6288C561.929 51.4607 565.643 49.5693 569.553 49.5693H586.549L576.831 59.2868C575.465 58.2869 574.247 57.0702 573.222 55.6618C572.69 54.9303 571.666 54.7688 570.934 55.301C570.203 55.8331 570.041 56.8575 570.573 57.589C573.681 61.861 578.267 64.6669 583.485 65.4897C584.489 65.6481 585.176 66.5934 585.018 67.5971C584.86 68.6006 583.916 69.2874 582.911 69.13C578.377 68.415 574.204 66.426 570.841 63.378C570.171 62.7705 569.135 62.8213 568.527 63.4915C567.92 64.1617 567.971 65.1975 568.641 65.805C568.934 66.071 569.235 66.3275 569.539 66.5793L566.24 69.8784C565.933 70.1855 565.76 70.6021 565.76 71.0365C565.76 71.4709 565.933 71.8874 566.24 72.1947L568.095 74.0498C564.734 73.6437 561.64 71.8494 559.62 69.0784ZM584.307 85.6295L569.714 71.0365L572.221 68.5294C575.289 70.4786 578.741 71.7886 582.401 72.3657C582.67 72.4081 582.937 72.4287 583.201 72.4287C585.674 72.4284 587.857 70.6259 588.254 68.1071C588.693 65.3192 586.783 62.6935 583.995 62.2537C582.512 62.0198 581.091 61.5936 579.758 60.9929L596.989 43.7617L611.582 58.3547L584.307 85.6295Z" fill="#F0EBF5"/>
</g>
<circle cx="576" cy="62" r="60.5" stroke="#F0EBF5" stroke-width="3"/>
<path d="M518.12 162V150.192H521.81C522.614 150.192 523.328 150.3 523.952 150.516C524.576 150.72 525.062 151.068 525.41 151.56C525.77 152.04 525.95 152.688 525.95 153.504C525.95 154.416 525.71 155.154 525.23 155.718C524.75 156.27 524.102 156.648 523.286 156.852L526.292 162H524.6L521.756 157.014H519.614V162H518.12ZM519.614 155.79H521.594C522.518 155.79 523.226 155.604 523.718 155.232C524.21 154.848 524.456 154.272 524.456 153.504C524.456 152.724 524.21 152.178 523.718 151.866C523.226 151.554 522.518 151.398 521.594 151.398H519.614V155.79ZM531.594 162.216C530.814 162.216 530.106 162.036 529.47 161.676C528.834 161.304 528.33 160.776 527.958 160.092C527.586 159.408 527.4 158.592 527.4 157.644C527.4 156.684 527.586 155.862 527.958 155.178C528.342 154.494 528.834 153.966 529.434 153.594C530.034 153.222 530.664 153.036 531.324 153.036C532.44 153.036 533.298 153.408 533.898 154.152C534.51 154.896 534.816 155.892 534.816 157.14C534.816 157.296 534.81 157.452 534.798 157.608C534.798 157.752 534.786 157.878 534.762 157.986H528.858C528.918 158.91 529.206 159.648 529.722 160.2C530.25 160.752 530.934 161.028 531.774 161.028C532.194 161.028 532.578 160.968 532.926 160.848C533.286 160.716 533.628 160.548 533.952 160.344L534.474 161.316C534.102 161.556 533.676 161.766 533.196 161.946C532.728 162.126 532.194 162.216 531.594 162.216ZM528.84 156.924H533.52C533.52 156.036 533.328 155.364 532.944 154.908C532.572 154.44 532.044 154.206 531.36 154.206C530.748 154.206 530.196 154.446 529.704 154.926C529.224 155.394 528.936 156.06 528.84 156.924ZM539.754 166.032C538.686 166.032 537.816 165.828 537.144 165.42C536.472 165.012 536.136 164.43 536.136 163.674C536.136 163.302 536.25 162.942 536.478 162.594C536.706 162.258 537.018 161.958 537.414 161.694V161.622C537.198 161.49 537.012 161.304 536.856 161.064C536.712 160.824 536.64 160.536 536.64 160.2C536.64 159.828 536.742 159.504 536.946 159.228C537.15 158.952 537.366 158.736 537.594 158.58V158.508C537.306 158.268 537.042 157.944 536.802 157.536C536.574 157.128 536.46 156.666 536.46 156.15C536.46 155.514 536.61 154.962 536.91 154.494C537.21 154.026 537.612 153.666 538.116 153.414C538.62 153.162 539.166 153.036 539.754 153.036C539.994 153.036 540.222 153.06 540.438 153.108C540.654 153.144 540.84 153.192 540.996 153.252H544.038V154.386H542.238C542.442 154.578 542.61 154.836 542.742 155.16C542.886 155.472 542.958 155.814 542.958 156.186C542.958 156.81 542.814 157.35 542.526 157.806C542.238 158.262 541.854 158.616 541.374 158.868C540.894 159.108 540.354 159.228 539.754 159.228C539.286 159.228 538.848 159.126 538.44 158.922C538.284 159.054 538.152 159.204 538.044 159.372C537.936 159.528 537.882 159.726 537.882 159.966C537.882 160.242 537.99 160.47 538.206 160.65C538.434 160.83 538.842 160.92 539.43 160.92H541.122C542.142 160.92 542.904 161.088 543.408 161.424C543.924 161.748 544.182 162.276 544.182 163.008C544.182 163.548 544.002 164.046 543.642 164.502C543.282 164.958 542.772 165.324 542.112 165.6C541.452 165.888 540.666 166.032 539.754 166.032ZM539.754 158.238C540.258 158.238 540.69 158.052 541.05 157.68C541.422 157.296 541.608 156.786 541.608 156.15C541.608 155.514 541.428 155.016 541.068 154.656C540.708 154.296 540.27 154.116 539.754 154.116C539.238 154.116 538.8 154.296 538.44 154.656C538.08 155.016 537.9 155.514 537.9 156.15C537.9 156.786 538.08 157.296 538.44 157.68C538.812 158.052 539.25 158.238 539.754 158.238ZM539.97 165.006C540.81 165.006 541.482 164.82 541.986 164.448C542.49 164.088 542.742 163.68 542.742 163.224C542.742 162.816 542.586 162.534 542.274 162.378C541.974 162.222 541.542 162.144 540.978 162.144H539.466C539.298 162.144 539.112 162.132 538.908 162.108C538.716 162.084 538.524 162.048 538.332 162C538.02 162.228 537.792 162.468 537.648 162.72C537.504 162.972 537.432 163.224 537.432 163.476C537.432 163.944 537.654 164.316 538.098 164.592C538.554 164.868 539.178 165.006 539.97 165.006ZM545.872 162V153.252H547.348V162H545.872ZM546.628 151.452C546.34 151.452 546.1 151.368 545.908 151.2C545.728 151.02 545.638 150.78 545.638 150.48C545.638 150.192 545.728 149.958 545.908 149.778C546.1 149.598 546.34 149.508 546.628 149.508C546.916 149.508 547.15 149.598 547.33 149.778C547.522 149.958 547.618 150.192 547.618 150.48C547.618 150.78 547.522 151.02 547.33 151.2C547.15 151.368 546.916 151.452 546.628 151.452ZM552.588 162.216C551.964 162.216 551.37 162.102 550.806 161.874C550.242 161.634 549.75 161.346 549.33 161.01L550.068 160.02C550.452 160.32 550.848 160.572 551.256 160.776C551.664 160.968 552.126 161.064 552.642 161.064C553.218 161.064 553.65 160.932 553.938 160.668C554.226 160.392 554.37 160.068 554.37 159.696C554.37 159.396 554.268 159.144 554.064 158.94C553.872 158.736 553.62 158.568 553.308 158.436C553.008 158.292 552.696 158.16 552.372 158.04C551.964 157.884 551.562 157.71 551.166 157.518C550.77 157.314 550.446 157.056 550.194 156.744C549.942 156.42 549.816 156.012 549.816 155.52C549.816 154.812 550.08 154.224 550.608 153.756C551.148 153.276 551.892 153.036 552.84 153.036C553.38 153.036 553.884 153.132 554.352 153.324C554.82 153.516 555.222 153.75 555.558 154.026L554.838 154.962C554.538 154.734 554.226 154.548 553.902 154.404C553.578 154.26 553.224 154.188 552.84 154.188C552.288 154.188 551.88 154.314 551.616 154.566C551.364 154.818 551.238 155.112 551.238 155.448C551.238 155.724 551.328 155.952 551.508 156.132C551.688 156.3 551.922 156.45 552.21 156.582C552.498 156.702 552.804 156.828 553.128 156.96C553.548 157.116 553.962 157.296 554.37 157.5C554.778 157.692 555.114 157.956 555.378 158.292C555.654 158.616 555.792 159.054 555.792 159.606C555.792 160.074 555.666 160.506 555.414 160.902C555.174 161.298 554.814 161.616 554.334 161.856C553.866 162.096 553.284 162.216 552.588 162.216ZM560.246 162.216C559.31 162.216 558.656 161.946 558.284 161.406C557.924 160.866 557.744 160.164 557.744 159.3V154.458H556.448V153.342L557.816 153.252L557.996 150.804H559.238V153.252H561.596V154.458H559.238V159.318C559.238 159.858 559.334 160.278 559.526 160.578C559.73 160.866 560.084 161.01 560.588 161.01C560.744 161.01 560.912 160.986 561.092 160.938C561.272 160.878 561.434 160.824 561.578 160.776L561.866 161.892C561.626 161.976 561.362 162.048 561.074 162.108C560.798 162.18 560.522 162.216 560.246 162.216ZM566.874 162.216C566.094 162.216 565.386 162.036 564.75 161.676C564.114 161.304 563.61 160.776 563.238 160.092C562.866 159.408 562.68 158.592 562.68 157.644C562.68 156.684 562.866 155.862 563.238 155.178C563.622 154.494 564.114 153.966 564.714 153.594C565.314 153.222 565.944 153.036 566.604 153.036C567.72 153.036 568.578 153.408 569.178 154.152C569.79 154.896 570.096 155.892 570.096 157.14C570.096 157.296 570.09 157.452 570.078 157.608C570.078 157.752 570.066 157.878 570.042 157.986H564.138C564.198 158.91 564.486 159.648 565.002 160.2C565.53 160.752 566.214 161.028 567.054 161.028C567.474 161.028 567.858 160.968 568.206 160.848C568.566 160.716 568.908 160.548 569.232 160.344L569.754 161.316C569.382 161.556 568.956 161.766 568.476 161.946C568.008 162.126 567.474 162.216 566.874 162.216ZM564.12 156.924H568.8C568.8 156.036 568.608 155.364 568.224 154.908C567.852 154.44 567.324 154.206 566.64 154.206C566.028 154.206 565.476 154.446 564.984 154.926C564.504 155.394 564.216 156.06 564.12 156.924ZM572.257 162V153.252H573.481L573.607 154.836H573.661C573.961 154.284 574.327 153.846 574.759 153.522C575.191 153.198 575.653 153.036 576.145 153.036C576.493 153.036 576.805 153.096 577.081 153.216L576.793 154.512C576.649 154.464 576.517 154.428 576.397 154.404C576.277 154.38 576.127 154.368 575.947 154.368C575.575 154.368 575.185 154.518 574.777 154.818C574.381 155.118 574.033 155.64 573.733 156.384V162H572.257ZM583.487 162L581.057 153.252H582.569L583.865 158.31C583.961 158.718 584.051 159.126 584.135 159.534C584.219 159.93 584.303 160.332 584.387 160.74H584.459C584.555 160.332 584.651 159.93 584.747 159.534C584.843 159.126 584.945 158.718 585.053 158.31L586.403 153.252H587.843L589.211 158.31C589.319 158.718 589.421 159.126 589.517 159.534C589.625 159.93 589.727 160.332 589.823 160.74H589.895C589.991 160.332 590.081 159.93 590.165 159.534C590.261 159.126 590.351 158.718 590.435 158.31L591.713 153.252H593.117L590.777 162H588.977L587.717 157.302C587.609 156.882 587.507 156.468 587.411 156.06C587.327 155.652 587.231 155.226 587.123 154.782H587.051C586.955 155.226 586.859 155.658 586.763 156.078C586.667 156.486 586.559 156.9 586.439 157.32L585.215 162H583.487ZM595.021 162V153.252H596.497V162H595.021ZM595.777 151.452C595.489 151.452 595.249 151.368 595.057 151.2C594.877 151.02 594.787 150.78 594.787 150.48C594.787 150.192 594.877 149.958 595.057 149.778C595.249 149.598 595.489 149.508 595.777 149.508C596.065 149.508 596.299 149.598 596.479 149.778C596.671 149.958 596.767 150.192 596.767 150.48C596.767 150.78 596.671 151.02 596.479 151.2C596.299 151.368 596.065 151.452 595.777 151.452ZM602.205 162.216C601.269 162.216 600.615 161.946 600.243 161.406C599.883 160.866 599.703 160.164 599.703 159.3V154.458H598.407V153.342L599.775 153.252L599.955 150.804H601.197V153.252H603.555V154.458H601.197V159.318C601.197 159.858 601.293 160.278 601.485 160.578C601.689 160.866 602.043 161.01 602.547 161.01C602.703 161.01 602.871 160.986 603.051 160.938C603.231 160.878 603.393 160.824 603.537 160.776L603.825 161.892C603.585 161.976 603.321 162.048 603.033 162.108C602.757 162.18 602.481 162.216 602.205 162.216ZM605.533 162V149.184H607.009V152.676L606.955 154.476C607.375 154.08 607.813 153.744 608.269 153.468C608.737 153.18 609.271 153.036 609.871 153.036C610.795 153.036 611.467 153.33 611.887 153.918C612.319 154.494 612.535 155.34 612.535 156.456V162H611.059V156.654C611.059 155.838 610.927 155.244 610.663 154.872C610.399 154.5 609.979 154.314 609.403 154.314C608.959 154.314 608.557 154.428 608.197 154.656C607.849 154.884 607.453 155.22 607.009 155.664V162H605.533ZM517.976 185V176.252H519.2L519.326 177.836H519.38C519.68 177.284 520.046 176.846 520.478 176.522C520.91 176.198 521.372 176.036 521.864 176.036C522.212 176.036 522.524 176.096 522.8 176.216L522.512 177.512C522.368 177.464 522.236 177.428 522.116 177.404C521.996 177.38 521.846 177.368 521.666 177.368C521.294 177.368 520.904 177.518 520.496 177.818C520.1 178.118 519.752 178.64 519.452 179.384V185H517.976ZM527.586 185.216C526.806 185.216 526.098 185.036 525.462 184.676C524.826 184.304 524.322 183.776 523.95 183.092C523.578 182.408 523.392 181.592 523.392 180.644C523.392 179.684 523.578 178.862 523.95 178.178C524.334 177.494 524.826 176.966 525.426 176.594C526.026 176.222 526.656 176.036 527.316 176.036C528.432 176.036 529.29 176.408 529.89 177.152C530.502 177.896 530.808 178.892 530.808 180.14C530.808 180.296 530.802 180.452 530.79 180.608C530.79 180.752 530.778 180.878 530.754 180.986H524.85C524.91 181.91 525.198 182.648 525.714 183.2C526.242 183.752 526.926 184.028 527.766 184.028C528.186 184.028 528.57 183.968 528.918 183.848C529.278 183.716 529.62 183.548 529.944 183.344L530.466 184.316C530.094 184.556 529.668 184.766 529.188 184.946C528.72 185.126 528.186 185.216 527.586 185.216ZM524.832 179.924H529.512C529.512 179.036 529.32 178.364 528.936 177.908C528.564 177.44 528.036 177.206 527.352 177.206C526.74 177.206 526.188 177.446 525.696 177.926C525.216 178.394 524.928 179.06 524.832 179.924ZM535.256 185.216C534.632 185.216 534.038 185.102 533.474 184.874C532.91 184.634 532.418 184.346 531.998 184.01L532.736 183.02C533.12 183.32 533.516 183.572 533.924 183.776C534.332 183.968 534.794 184.064 535.31 184.064C535.886 184.064 536.318 183.932 536.606 183.668C536.894 183.392 537.038 183.068 537.038 182.696C537.038 182.396 536.936 182.144 536.732 181.94C536.54 181.736 536.288 181.568 535.976 181.436C535.676 181.292 535.364 181.16 535.04 181.04C534.632 180.884 534.23 180.71 533.834 180.518C533.438 180.314 533.114 180.056 532.862 179.744C532.61 179.42 532.484 179.012 532.484 178.52C532.484 177.812 532.748 177.224 533.276 176.756C533.816 176.276 534.56 176.036 535.508 176.036C536.048 176.036 536.552 176.132 537.02 176.324C537.488 176.516 537.89 176.75 538.226 177.026L537.506 177.962C537.206 177.734 536.894 177.548 536.57 177.404C536.246 177.26 535.892 177.188 535.508 177.188C534.956 177.188 534.548 177.314 534.284 177.566C534.032 177.818 533.906 178.112 533.906 178.448C533.906 178.724 533.996 178.952 534.176 179.132C534.356 179.3 534.59 179.45 534.878 179.582C535.166 179.702 535.472 179.828 535.796 179.96C536.216 180.116 536.63 180.296 537.038 180.5C537.446 180.692 537.782 180.956 538.046 181.292C538.322 181.616 538.46 182.054 538.46 182.606C538.46 183.074 538.334 183.506 538.082 183.902C537.842 184.298 537.482 184.616 537.002 184.856C536.534 185.096 535.952 185.216 535.256 185.216ZM544.057 185.216C543.277 185.216 542.569 185.036 541.933 184.676C541.297 184.304 540.793 183.776 540.421 183.092C540.049 182.408 539.863 181.592 539.863 180.644C539.863 179.684 540.049 178.862 540.421 178.178C540.805 177.494 541.297 176.966 541.897 176.594C542.497 176.222 543.127 176.036 543.787 176.036C544.903 176.036 545.761 176.408 546.361 177.152C546.973 177.896 547.279 178.892 547.279 180.14C547.279 180.296 547.273 180.452 547.261 180.608C547.261 180.752 547.249 180.878 547.225 180.986H541.321C541.381 181.91 541.669 182.648 542.185 183.2C542.713 183.752 543.397 184.028 544.237 184.028C544.657 184.028 545.041 183.968 545.389 183.848C545.749 183.716 546.091 183.548 546.415 183.344L546.937 184.316C546.565 184.556 546.139 184.766 545.659 184.946C545.191 185.126 544.657 185.216 544.057 185.216ZM541.303 179.924H545.983C545.983 179.036 545.791 178.364 545.407 177.908C545.035 177.44 544.507 177.206 543.823 177.206C543.211 177.206 542.659 177.446 542.167 177.926C541.687 178.394 541.399 179.06 541.303 179.924ZM549.441 185V176.252H550.665L550.791 177.836H550.845C551.145 177.284 551.511 176.846 551.943 176.522C552.375 176.198 552.837 176.036 553.329 176.036C553.677 176.036 553.989 176.096 554.265 176.216L553.977 177.512C553.833 177.464 553.701 177.428 553.581 177.404C553.461 177.38 553.311 177.368 553.131 177.368C552.759 177.368 552.369 177.518 551.961 177.818C551.565 178.118 551.217 178.64 550.917 179.384V185H549.441ZM558.028 185L554.878 176.252H556.408L558.064 181.22C558.196 181.652 558.328 182.084 558.46 182.516C558.604 182.948 558.742 183.374 558.874 183.794H558.946C559.078 183.374 559.21 182.948 559.342 182.516C559.486 182.084 559.618 181.652 559.738 181.22L561.394 176.252H562.852L559.756 185H558.028ZM568.016 185.216C567.236 185.216 566.528 185.036 565.892 184.676C565.256 184.304 564.752 183.776 564.38 183.092C564.008 182.408 563.822 181.592 563.822 180.644C563.822 179.684 564.008 178.862 564.38 178.178C564.764 177.494 565.256 176.966 565.856 176.594C566.456 176.222 567.086 176.036 567.746 176.036C568.862 176.036 569.72 176.408 570.32 177.152C570.932 177.896 571.238 178.892 571.238 180.14C571.238 180.296 571.232 180.452 571.22 180.608C571.22 180.752 571.208 180.878 571.184 180.986H565.28C565.34 181.91 565.628 182.648 566.144 183.2C566.672 183.752 567.356 184.028 568.196 184.028C568.616 184.028 569 183.968 569.348 183.848C569.708 183.716 570.05 183.548 570.374 183.344L570.896 184.316C570.524 184.556 570.098 184.766 569.618 184.946C569.15 185.126 568.616 185.216 568.016 185.216ZM565.262 179.924H569.942C569.942 179.036 569.75 178.364 569.366 177.908C568.994 177.44 568.466 177.206 567.782 177.206C567.17 177.206 566.618 177.446 566.126 177.926C565.646 178.394 565.358 179.06 565.262 179.924ZM576.388 185.216C575.296 185.216 574.42 184.82 573.76 184.028C573.1 183.224 572.77 182.096 572.77 180.644C572.77 179.696 572.944 178.88 573.292 178.196C573.652 177.5 574.12 176.966 574.696 176.594C575.284 176.222 575.908 176.036 576.568 176.036C577.072 176.036 577.51 176.126 577.882 176.306C578.254 176.486 578.632 176.732 579.016 177.044L578.944 175.55V172.184H580.438V185H579.214L579.088 183.974H579.034C578.698 184.31 578.302 184.604 577.846 184.856C577.39 185.096 576.904 185.216 576.388 185.216ZM576.712 183.974C577.48 183.974 578.224 183.572 578.944 182.768V178.196C578.572 177.86 578.212 177.626 577.864 177.494C577.528 177.35 577.18 177.278 576.82 177.278C576.352 177.278 575.926 177.422 575.542 177.71C575.17 177.986 574.87 178.376 574.642 178.88C574.414 179.372 574.3 179.954 574.3 180.626C574.3 181.67 574.51 182.492 574.93 183.092C575.35 183.68 575.944 183.974 576.712 183.974ZM589.742 185.216C588.806 185.216 588.152 184.946 587.78 184.406C587.42 183.866 587.24 183.164 587.24 182.3V177.458H585.944V176.342L587.312 176.252L587.492 173.804H588.734V176.252H591.092V177.458H588.734V182.318C588.734 182.858 588.83 183.278 589.022 183.578C589.226 183.866 589.58 184.01 590.084 184.01C590.24 184.01 590.408 183.986 590.588 183.938C590.768 183.878 590.93 183.824 591.074 183.776L591.362 184.892C591.122 184.976 590.858 185.048 590.57 185.108C590.294 185.18 590.018 185.216 589.742 185.216ZM593.07 185V176.252H594.546V185H593.07ZM593.826 174.452C593.538 174.452 593.298 174.368 593.106 174.2C592.926 174.02 592.836 173.78 592.836 173.48C592.836 173.192 592.926 172.958 593.106 172.778C593.298 172.598 593.538 172.508 593.826 172.508C594.114 172.508 594.348 172.598 594.528 172.778C594.72 172.958 594.816 173.192 594.816 173.48C594.816 173.78 594.72 174.02 594.528 174.2C594.348 174.368 594.114 174.452 593.826 174.452ZM600.955 185.216C600.187 185.216 599.491 185.036 598.867 184.676C598.243 184.316 597.751 183.794 597.391 183.11C597.031 182.426 596.851 181.604 596.851 180.644C596.851 179.66 597.043 178.826 597.427 178.142C597.823 177.458 598.339 176.936 598.975 176.576C599.623 176.216 600.319 176.036 601.063 176.036C601.639 176.036 602.131 176.138 602.539 176.342C602.959 176.546 603.319 176.786 603.619 177.062L602.863 178.034C602.611 177.806 602.341 177.62 602.053 177.476C601.777 177.332 601.465 177.26 601.117 177.26C600.589 177.26 600.115 177.404 599.695 177.692C599.287 177.968 598.963 178.364 598.723 178.88C598.495 179.384 598.381 179.972 598.381 180.644C598.381 181.64 598.627 182.45 599.119 183.074C599.623 183.686 600.277 183.992 601.081 183.992C601.489 183.992 601.867 183.908 602.215 183.74C602.563 183.56 602.869 183.35 603.133 183.11L603.781 184.1C603.385 184.448 602.947 184.724 602.467 184.928C601.987 185.12 601.483 185.216 600.955 185.216ZM605.708 185V172.184H607.166V180.86H607.22L610.946 176.252H612.584L609.65 179.762L612.98 185H611.36L608.804 180.788L607.166 182.696V185H605.708ZM617.85 185.216C617.07 185.216 616.362 185.036 615.726 184.676C615.09 184.304 614.586 183.776 614.214 183.092C613.842 182.408 613.656 181.592 613.656 180.644C613.656 179.684 613.842 178.862 614.214 178.178C614.598 177.494 615.09 176.966 615.69 176.594C616.29 176.222 616.92 176.036 617.58 176.036C618.696 176.036 619.554 176.408 620.154 177.152C620.766 177.896 621.072 178.892 621.072 180.14C621.072 180.296 621.066 180.452 621.054 180.608C621.054 180.752 621.042 180.878 621.018 180.986H615.114C615.174 181.91 615.462 182.648 615.978 183.2C616.506 183.752 617.19 184.028 618.03 184.028C618.45 184.028 618.834 183.968 619.182 183.848C619.542 183.716 619.884 183.548 620.208 183.344L620.73 184.316C620.358 184.556 619.932 184.766 619.452 184.946C618.984 185.126 618.45 185.216 617.85 185.216ZM615.096 179.924H619.776C619.776 179.036 619.584 178.364 619.2 177.908C618.828 177.44 618.3 177.206 617.616 177.206C617.004 177.206 616.452 177.446 615.96 177.926C615.48 178.394 615.192 179.06 615.096 179.924ZM625.812 185.216C624.876 185.216 624.222 184.946 623.85 184.406C623.49 183.866 623.31 183.164 623.31 182.3V177.458H622.014V176.342L623.382 176.252L623.562 173.804H624.804V176.252H627.162V177.458H624.804V182.318C624.804 182.858 624.9 183.278 625.092 183.578C625.296 183.866 625.65 184.01 626.154 184.01C626.31 184.01 626.478 183.986 626.658 183.938C626.838 183.878 627 183.824 627.144 183.776L627.432 184.892C627.192 184.976 626.928 185.048 626.64 185.108C626.364 185.18 626.088 185.216 625.812 185.216ZM631.25 185.216C630.626 185.216 630.032 185.102 629.468 184.874C628.904 184.634 628.412 184.346 627.992 184.01L628.73 183.02C629.114 183.32 629.51 183.572 629.918 183.776C630.326 183.968 630.788 184.064 631.304 184.064C631.88 184.064 632.312 183.932 632.6 183.668C632.888 183.392 633.032 183.068 633.032 182.696C633.032 182.396 632.93 182.144 632.726 181.94C632.534 181.736 632.282 181.568 631.97 181.436C631.67 181.292 631.358 181.16 631.034 181.04C630.626 180.884 630.224 180.71 629.828 180.518C629.432 180.314 629.108 180.056 628.856 179.744C628.604 179.42 628.478 179.012 628.478 178.52C628.478 177.812 628.742 177.224 629.27 176.756C629.81 176.276 630.554 176.036 631.502 176.036C632.042 176.036 632.546 176.132 633.014 176.324C633.482 176.516 633.884 176.75 634.22 177.026L633.5 177.962C633.2 177.734 632.888 177.548 632.564 177.404C632.24 177.26 631.886 177.188 631.502 177.188C630.95 177.188 630.542 177.314 630.278 177.566C630.026 177.818 629.9 178.112 629.9 178.448C629.9 178.724 629.99 178.952 630.17 179.132C630.35 179.3 630.584 179.45 630.872 179.582C631.16 179.702 631.466 179.828 631.79 179.96C632.21 180.116 632.624 180.296 633.032 180.5C633.44 180.692 633.776 180.956 634.04 181.292C634.316 181.616 634.454 182.054 634.454 182.606C634.454 183.074 634.328 183.506 634.076 183.902C633.836 184.298 633.476 184.616 632.996 184.856C632.528 185.096 631.946 185.216 631.25 185.216Z" fill="#F0EBF5"/>
<path d="M297.62 27V15.192H300.986C301.874 15.192 302.648 15.3 303.308 15.516C303.968 15.732 304.484 16.098 304.856 16.614C305.228 17.118 305.414 17.802 305.414 18.666C305.414 19.902 305.012 20.82 304.208 21.42C303.404 22.02 302.354 22.32 301.058 22.32H299.114V27H297.62ZM299.114 21.096H300.878C301.91 21.096 302.672 20.904 303.164 20.52C303.668 20.124 303.92 19.506 303.92 18.666C303.92 17.814 303.656 17.226 303.128 16.902C302.612 16.566 301.838 16.398 300.806 16.398H299.114V21.096ZM308.914 27.216C308.182 27.216 307.57 27 307.078 26.568C306.598 26.124 306.358 25.512 306.358 24.732C306.358 23.772 306.784 23.04 307.636 22.536C308.5 22.02 309.862 21.66 311.722 21.456C311.722 21.084 311.668 20.73 311.56 20.394C311.464 20.058 311.284 19.788 311.02 19.584C310.768 19.368 310.402 19.26 309.922 19.26C309.418 19.26 308.944 19.356 308.5 19.548C308.056 19.74 307.66 19.956 307.312 20.196L306.736 19.17C307.144 18.906 307.642 18.654 308.23 18.414C308.83 18.162 309.478 18.036 310.174 18.036C311.242 18.036 312.016 18.366 312.496 19.026C312.976 19.674 313.216 20.544 313.216 21.636V27H311.992L311.866 25.956H311.812C311.404 26.292 310.954 26.586 310.462 26.838C309.982 27.09 309.466 27.216 308.914 27.216ZM309.346 26.028C309.766 26.028 310.162 25.926 310.534 25.722C310.906 25.518 311.302 25.23 311.722 24.858V22.428C310.27 22.608 309.25 22.878 308.662 23.238C308.086 23.598 307.798 24.06 307.798 24.624C307.798 25.116 307.948 25.476 308.248 25.704C308.548 25.92 308.914 26.028 309.346 26.028ZM318.254 27.216C317.63 27.216 317.036 27.102 316.472 26.874C315.908 26.634 315.416 26.346 314.996 26.01L315.734 25.02C316.118 25.32 316.514 25.572 316.922 25.776C317.33 25.968 317.792 26.064 318.308 26.064C318.884 26.064 319.316 25.932 319.604 25.668C319.892 25.392 320.036 25.068 320.036 24.696C320.036 24.396 319.934 24.144 319.73 23.94C319.538 23.736 319.286 23.568 318.974 23.436C318.674 23.292 318.362 23.16 318.038 23.04C317.63 22.884 317.228 22.71 316.832 22.518C316.436 22.314 316.112 22.056 315.86 21.744C315.608 21.42 315.482 21.012 315.482 20.52C315.482 19.812 315.746 19.224 316.274 18.756C316.814 18.276 317.558 18.036 318.506 18.036C319.046 18.036 319.55 18.132 320.018 18.324C320.486 18.516 320.888 18.75 321.224 19.026L320.504 19.962C320.204 19.734 319.892 19.548 319.568 19.404C319.244 19.26 318.89 19.188 318.506 19.188C317.954 19.188 317.546 19.314 317.282 19.566C317.03 19.818 316.904 20.112 316.904 20.448C316.904 20.724 316.994 20.952 317.174 21.132C317.354 21.3 317.588 21.45 317.876 21.582C318.164 21.702 318.47 21.828 318.794 21.96C319.214 22.116 319.628 22.296 320.036 22.5C320.444 22.692 320.78 22.956 321.044 23.292C321.32 23.616 321.458 24.054 321.458 24.606C321.458 25.074 321.332 25.506 321.08 25.902C320.84 26.298 320.48 26.616 320 26.856C319.532 27.096 318.95 27.216 318.254 27.216ZM325.795 27.216C325.171 27.216 324.577 27.102 324.013 26.874C323.449 26.634 322.957 26.346 322.537 26.01L323.275 25.02C323.659 25.32 324.055 25.572 324.463 25.776C324.871 25.968 325.333 26.064 325.849 26.064C326.425 26.064 326.857 25.932 327.145 25.668C327.433 25.392 327.577 25.068 327.577 24.696C327.577 24.396 327.475 24.144 327.271 23.94C327.079 23.736 326.827 23.568 326.515 23.436C326.215 23.292 325.903 23.16 325.579 23.04C325.171 22.884 324.769 22.71 324.373 22.518C323.977 22.314 323.653 22.056 323.401 21.744C323.149 21.42 323.023 21.012 323.023 20.52C323.023 19.812 323.287 19.224 323.815 18.756C324.355 18.276 325.099 18.036 326.047 18.036C326.587 18.036 327.091 18.132 327.559 18.324C328.027 18.516 328.429 18.75 328.765 19.026L328.045 19.962C327.745 19.734 327.433 19.548 327.109 19.404C326.785 19.26 326.431 19.188 326.047 19.188C325.495 19.188 325.087 19.314 324.823 19.566C324.571 19.818 324.445 20.112 324.445 20.448C324.445 20.724 324.535 20.952 324.715 21.132C324.895 21.3 325.129 21.45 325.417 21.582C325.705 21.702 326.011 21.828 326.335 21.96C326.755 22.116 327.169 22.296 327.577 22.5C327.985 22.692 328.321 22.956 328.585 23.292C328.861 23.616 328.999 24.054 328.999 24.606C328.999 25.074 328.873 25.506 328.621 25.902C328.381 26.298 328.021 26.616 327.541 26.856C327.073 27.096 326.491 27.216 325.795 27.216ZM334.596 27.216C333.816 27.216 333.108 27.036 332.472 26.676C331.836 26.304 331.332 25.776 330.96 25.092C330.588 24.408 330.402 23.592 330.402 22.644C330.402 21.684 330.588 20.862 330.96 20.178C331.344 19.494 331.836 18.966 332.436 18.594C333.036 18.222 333.666 18.036 334.326 18.036C335.442 18.036 336.3 18.408 336.9 19.152C337.512 19.896 337.818 20.892 337.818 22.14C337.818 22.296 337.812 22.452 337.8 22.608C337.8 22.752 337.788 22.878 337.764 22.986H331.86C331.92 23.91 332.208 24.648 332.724 25.2C333.252 25.752 333.936 26.028 334.776 26.028C335.196 26.028 335.58 25.968 335.928 25.848C336.288 25.716 336.63 25.548 336.954 25.344L337.476 26.316C337.104 26.556 336.678 26.766 336.198 26.946C335.73 27.126 335.196 27.216 334.596 27.216ZM331.842 21.924H336.522C336.522 21.036 336.33 20.364 335.946 19.908C335.574 19.44 335.046 19.206 334.362 19.206C333.75 19.206 333.198 19.446 332.706 19.926C332.226 20.394 331.938 21.06 331.842 21.924ZM342.968 27.216C341.876 27.216 341 26.82 340.34 26.028C339.68 25.224 339.35 24.096 339.35 22.644C339.35 21.696 339.524 20.88 339.872 20.196C340.232 19.5 340.7 18.966 341.276 18.594C341.864 18.222 342.488 18.036 343.148 18.036C343.652 18.036 344.09 18.126 344.462 18.306C344.834 18.486 345.212 18.732 345.596 19.044L345.524 17.55V14.184H347.018V27H345.794L345.668 25.974H345.614C345.278 26.31 344.882 26.604 344.426 26.856C343.97 27.096 343.484 27.216 342.968 27.216ZM343.292 25.974C344.06 25.974 344.804 25.572 345.524 24.768V20.196C345.152 19.86 344.792 19.626 344.444 19.494C344.108 19.35 343.76 19.278 343.4 19.278C342.932 19.278 342.506 19.422 342.122 19.71C341.75 19.986 341.45 20.376 341.222 20.88C340.994 21.372 340.88 21.954 340.88 22.626C340.88 23.67 341.09 24.492 341.51 25.092C341.93 25.68 342.524 25.974 343.292 25.974Z" fill="#F0EBF5"/>
<g clip-path="url(#clip3_2536_15695)">
<path d="M96.2633 46.922C96.1002 46.3123 95.709 45.8024 95.1622 45.4867L93.1737 44.3386C92.6268 44.023 91.9897 43.939 91.3795 44.1027C90.7698 44.2658 90.2599 44.6569 89.9442 45.2038L88.7576 47.2588C88.254 47.0223 87.6886 46.9701 87.1444 47.1157C86.5347 47.2794 86.0248 47.6705 85.7091 48.2174L85.6342 48.3467V39.5915C85.6342 36.797 83.3612 34.524 80.5667 34.524H73.175C73.0098 33.3801 72.0258 32.497 70.8371 32.497H67.3912V29.9971C67.3912 28.3205 66.0272 26.9565 64.3507 26.9565H56.9183C55.2418 26.9565 53.8778 28.3205 53.8778 29.9971V32.497H50.4319C49.2431 32.497 48.2587 33.3801 48.094 34.524H40.7023C37.9078 34.524 35.6348 36.797 35.6348 39.5915V91.0775C35.6348 93.872 37.9078 96.145 40.7023 96.145H72.3299C72.8894 96.145 73.3434 95.6916 73.3434 95.1315C73.3434 94.5714 72.8894 94.118 72.3299 94.118H40.7023C39.0258 94.118 37.6618 92.754 37.6618 91.0775V39.5915C37.6618 37.915 39.0258 36.551 40.7023 36.551H48.0671V41.4834C48.0671 42.7872 49.1281 43.8483 50.4319 43.8483H70.8371C72.1409 43.8483 73.2019 42.7872 73.2019 41.4834V40.5375H79.6207V58.7626L69.3078 76.625C68.9352 77.2701 68.7662 78.0038 68.8196 78.7471L69.2714 85.0783C69.311 85.632 69.6203 86.1308 70.0986 86.4127C70.3625 86.5679 70.6586 86.6466 70.9564 86.6466C71.1981 86.6466 71.4404 86.5943 71.6663 86.4898L77.4929 83.7876C78.1908 83.4641 78.763 82.9409 79.1473 82.2753L79.6207 81.4555V90.1315H41.6482V40.5375H44.3509C44.9104 40.5375 45.3644 40.084 45.3644 39.524C45.3644 38.9639 44.9104 38.5105 44.3509 38.5105H41.3104C40.3787 38.5105 39.6212 39.268 39.6212 40.1996V90.4694C39.6212 91.4011 40.3787 92.1585 41.3104 92.1585H79.9586C80.8897 92.1585 81.6478 91.4011 81.6478 90.4694V77.9442L83.6072 74.5505V91.0775C83.6072 92.754 82.2432 94.118 80.5667 94.118H77.059C76.4995 94.118 76.0455 94.5714 76.0455 95.1315C76.0455 95.691 76.4995 96.145 77.059 96.145H80.5667C83.3607 96.145 85.6342 93.8715 85.6342 91.0775V71.0397L94.1846 56.2299L95.5354 53.8904C95.851 53.3435 95.935 52.7064 95.7713 52.0967C95.6256 51.5525 95.2978 51.0895 94.8407 50.7712L96.0273 48.7162C96.343 48.1694 96.4269 47.5322 96.2633 46.922ZM91.6994 46.2173C91.7923 46.0563 91.9987 46.0009 92.1602 46.0938L94.1487 47.2419C94.2537 47.3026 94.2922 47.3966 94.306 47.4467C94.3192 47.4974 94.3329 47.5972 94.2722 47.7027L93.0903 49.7493L90.518 48.2644L91.6994 46.2173ZM87.4643 49.2309C87.525 49.1259 87.619 49.0873 87.6691 49.0741C87.7198 49.0599 87.8196 49.0467 87.9246 49.1074L93.6562 52.4166C93.7617 52.4773 93.8003 52.5707 93.8135 52.6214C93.8272 52.6715 93.8404 52.7718 93.7797 52.8769L92.9356 54.3385L86.6208 50.6926L87.4643 49.2309ZM55.9048 29.9971C55.9048 29.438 56.3593 28.9835 56.9183 28.9835H64.3507C64.9097 28.9835 65.3642 29.438 65.3642 29.9971V32.497H55.9048V29.9971ZM71.1749 41.4834C71.1749 41.6698 71.0234 41.8212 70.8371 41.8212H50.4319C50.2456 41.8212 50.0941 41.6698 50.0941 41.4834V34.8619C50.0941 34.6755 50.2456 34.524 50.4319 34.524H70.8371C71.0234 34.524 71.1749 34.6755 71.1749 34.8619V41.4834ZM79.9586 38.5105H73.2019V36.551H80.5667C82.2432 36.551 83.6072 37.915 83.6072 39.5915V51.8581L81.6478 55.2517V40.1996C81.6478 39.268 80.8903 38.5105 79.9586 38.5105ZM85.6073 52.4482L91.9221 56.0942L79.4972 77.6153L73.1818 73.9693L85.6073 52.4482ZM77.3921 81.2618C77.2174 81.5643 76.9571 81.8018 76.6404 81.9486V81.9491L71.2583 84.4448L70.8413 78.6029C70.817 78.2651 70.8941 77.932 71.0635 77.6391L72.1683 75.7245L78.4837 79.3705L77.3921 81.2618Z" fill="#F0EBF5"/>
<path d="M46.1042 83.5017C46.2969 83.6733 46.5376 83.7572 46.7767 83.7572C47.0565 83.7572 47.3347 83.6421 47.5347 83.4167L49.5443 81.1543L51.0999 83.0098C51.4119 83.3824 51.8696 83.602 52.3552 83.6136C52.8414 83.6221 53.308 83.4268 53.6368 83.0694L55.5076 81.0382L57.5811 83.3851C57.9521 83.8047 58.5924 83.8443 59.0116 83.4737C59.4312 83.1032 59.4708 82.4629 59.1003 82.0432L56.7787 79.4155C56.4625 79.0576 56.0075 78.8496 55.5303 78.8449C55.5245 78.8444 55.5187 78.8444 55.5129 78.8444C55.0415 78.8444 54.5896 79.0423 54.2703 79.3891L52.4064 81.413L50.846 79.5522C50.5304 79.1759 50.0674 78.9557 49.5754 78.9483C49.0835 78.9373 48.6153 79.1484 48.289 79.5158L46.0197 82.0707C45.6476 82.4893 45.6856 83.1301 46.1042 83.5017Z" fill="#F0EBF5"/>
<path d="M76.0058 49.3211C76.0058 48.7611 75.5518 48.3076 74.9923 48.3076H46.2088C45.6493 48.3076 45.1953 48.7611 45.1953 49.3211C45.1953 49.8812 45.6493 50.3346 46.2088 50.3346H74.9923C75.5518 50.3346 76.0058 49.8812 76.0058 49.3211Z" fill="#F0EBF5"/>
<path d="M46.3436 55.74H58.3705C58.93 55.74 59.384 55.2866 59.384 54.7265C59.384 54.1664 58.93 53.713 58.3705 53.713H46.3436C45.784 53.713 45.3301 54.1664 45.3301 54.7265C45.3301 55.2866 45.784 55.74 46.3436 55.74Z" fill="#F0EBF5"/>
<path d="M68.8446 54.7265C68.8446 54.1664 68.3906 53.713 67.8311 53.713H63.1014C62.5419 53.713 62.0879 54.1664 62.0879 54.7265C62.0879 55.2866 62.5419 55.74 63.1014 55.74H67.8311C68.3906 55.74 68.8446 55.2866 68.8446 54.7265Z" fill="#F0EBF5"/>
<path d="M46.3436 61.1454H56.0732C56.6327 61.1454 57.0867 60.692 57.0867 60.1319C57.0867 59.5718 56.6327 59.1184 56.0732 59.1184H46.3436C45.784 59.1184 45.3301 59.5718 45.3301 60.1319C45.3301 60.692 45.784 61.1454 46.3436 61.1454Z" fill="#F0EBF5"/>
<path d="M64.9928 59.1184H60.3983C59.8387 59.1184 59.3848 59.5718 59.3848 60.1319C59.3848 60.692 59.8387 61.1454 60.3983 61.1454H64.9928C65.5524 61.1454 66.0063 60.692 66.0063 60.1319C66.0063 59.5718 65.5524 59.1184 64.9928 59.1184Z" fill="#F0EBF5"/>
<path d="M46.3436 66.5507H53.3705C53.9301 66.5507 54.384 66.0972 54.384 65.5372C54.384 64.9771 53.9301 64.5237 53.3705 64.5237H46.3436C45.784 64.5237 45.3301 64.9771 45.3301 65.5372C45.3301 66.0972 45.784 66.5507 46.3436 66.5507Z" fill="#7568F6"/>
<path d="M66.0059 65.5372C66.0059 64.9771 65.5519 64.5237 64.9924 64.5237H57.6951C57.1356 64.5237 56.6816 64.9771 56.6816 65.5372C56.6816 66.0972 57.1356 66.5507 57.6951 66.5507H64.9924C65.5519 66.5507 66.0059 66.0972 66.0059 65.5372Z" fill="#7568F6"/>
<path d="M46.3436 71.9561H53.3705C53.9301 71.9561 54.384 71.5026 54.384 70.9426C54.384 70.3825 53.9301 69.9291 53.3705 69.9291H46.3436C45.784 69.9291 45.3301 70.3825 45.3301 70.9426C45.3301 71.5026 45.784 71.9561 46.3436 71.9561Z" fill="#7568F6"/>
</g>
<circle cx="62" cy="62" r="60.5" stroke="#F0EBF5" stroke-width="3"/>
<path d="M1.62 162V150.192H8.424V151.452H3.114V155.448H7.614V156.708H3.114V162H1.62ZM10.3705 162V153.252H11.8465V162H10.3705ZM11.1265 151.452C10.8385 151.452 10.5985 151.368 10.4065 151.2C10.2265 151.02 10.1365 150.78 10.1365 150.48C10.1365 150.192 10.2265 149.958 10.4065 149.778C10.5985 149.598 10.8385 149.508 11.1265 149.508C11.4145 149.508 11.6485 149.598 11.8285 149.778C12.0205 149.958 12.1165 150.192 12.1165 150.48C12.1165 150.78 12.0205 151.02 11.8285 151.2C11.6485 151.368 11.4145 151.452 11.1265 151.452ZM16.3662 162.216C15.8142 162.216 15.4122 162.048 15.1602 161.712C14.9202 161.364 14.8002 160.872 14.8002 160.236V149.184H16.2762V160.344C16.2762 160.572 16.3182 160.74 16.4022 160.848C16.4862 160.944 16.5822 160.992 16.6902 160.992C16.7382 160.992 16.7802 160.992 16.8162 160.992C16.8642 160.98 16.9302 160.968 17.0142 160.956L17.2122 162.072C17.1162 162.12 17.0022 162.156 16.8702 162.18C16.7382 162.204 16.5702 162.216 16.3662 162.216ZM20.9541 162.216C20.4021 162.216 20.0001 162.048 19.7481 161.712C19.5081 161.364 19.3881 160.872 19.3881 160.236V149.184H20.8641V160.344C20.8641 160.572 20.9061 160.74 20.9901 160.848C21.0741 160.944 21.1701 160.992 21.2781 160.992C21.3261 160.992 21.3681 160.992 21.4041 160.992C21.4521 160.98 21.5181 160.968 21.6021 160.956L21.8001 162.072C21.7041 162.12 21.5901 162.156 21.4581 162.18C21.3261 162.204 21.1581 162.216 20.9541 162.216ZM30.9815 162.216C30.2735 162.216 29.6075 162.036 28.9835 161.676C28.3715 161.316 27.8735 160.794 27.4895 160.11C27.1175 159.426 26.9315 158.604 26.9315 157.644C26.9315 156.66 27.1175 155.826 27.4895 155.142C27.8735 154.458 28.3715 153.936 28.9835 153.576C29.6075 153.216 30.2735 153.036 30.9815 153.036C31.7015 153.036 32.3675 153.216 32.9795 153.576C33.5915 153.936 34.0835 154.458 34.4555 155.142C34.8395 155.826 35.0315 156.66 35.0315 157.644C35.0315 158.604 34.8395 159.426 34.4555 160.11C34.0835 160.794 33.5915 161.316 32.9795 161.676C32.3675 162.036 31.7015 162.216 30.9815 162.216ZM30.9815 160.992C31.7375 160.992 32.3435 160.686 32.7995 160.074C33.2675 159.45 33.5015 158.64 33.5015 157.644C33.5015 156.636 33.2675 155.82 32.7995 155.196C32.3435 154.572 31.7375 154.26 30.9815 154.26C30.2375 154.26 29.6315 154.572 29.1635 155.196C28.6955 155.82 28.4615 156.636 28.4615 157.644C28.4615 158.64 28.6955 159.45 29.1635 160.074C29.6315 160.686 30.2375 160.992 30.9815 160.992ZM39.8914 162.216C38.9674 162.216 38.2894 161.928 37.8574 161.352C37.4254 160.764 37.2094 159.912 37.2094 158.796V153.252H38.7034V158.598C38.7034 159.414 38.8294 160.008 39.0814 160.38C39.3454 160.752 39.7654 160.938 40.3414 160.938C40.7974 160.938 41.1994 160.824 41.5474 160.596C41.9074 160.356 42.2914 159.978 42.6994 159.462V153.252H44.1754V162H42.9514L42.8254 160.632H42.7714C42.3634 161.112 41.9314 161.496 41.4754 161.784C41.0194 162.072 40.4914 162.216 39.8914 162.216ZM49.8804 162.216C48.9444 162.216 48.2904 161.946 47.9184 161.406C47.5584 160.866 47.3784 160.164 47.3784 159.3V154.458H46.0824V153.342L47.4504 153.252L47.6304 150.804H48.8724V153.252H51.2304V154.458H48.8724V159.318C48.8724 159.858 48.9684 160.278 49.1604 160.578C49.3644 160.866 49.7184 161.01 50.2224 161.01C50.3784 161.01 50.5464 160.986 50.7264 160.938C50.9064 160.878 51.0684 160.824 51.2124 160.776L51.5004 161.892C51.2604 161.976 50.9964 162.048 50.7084 162.108C50.4324 162.18 50.1564 162.216 49.8804 162.216ZM59.5659 162.216C58.6299 162.216 57.9759 161.946 57.6039 161.406C57.2439 160.866 57.0639 160.164 57.0639 159.3V154.458H55.7679V153.342L57.1359 153.252L57.3159 150.804H58.5579V153.252H60.9159V154.458H58.5579V159.318C58.5579 159.858 58.6539 160.278 58.8459 160.578C59.0499 160.866 59.4039 161.01 59.9079 161.01C60.0639 161.01 60.2319 160.986 60.4119 160.938C60.5919 160.878 60.7539 160.824 60.8979 160.776L61.1859 161.892C60.9459 161.976 60.6819 162.048 60.3939 162.108C60.1179 162.18 59.8419 162.216 59.5659 162.216ZM62.894 162V149.184H64.37V152.676L64.316 154.476C64.736 154.08 65.174 153.744 65.63 153.468C66.098 153.18 66.632 153.036 67.232 153.036C68.156 153.036 68.828 153.33 69.248 153.918C69.68 154.494 69.896 155.34 69.896 156.456V162H68.42V156.654C68.42 155.838 68.288 155.244 68.024 154.872C67.76 154.5 67.34 154.314 66.764 154.314C66.32 154.314 65.918 154.428 65.558 154.656C65.21 154.884 64.814 155.22 64.37 155.664V162H62.894ZM76.231 162.216C75.451 162.216 74.743 162.036 74.107 161.676C73.471 161.304 72.967 160.776 72.595 160.092C72.223 159.408 72.037 158.592 72.037 157.644C72.037 156.684 72.223 155.862 72.595 155.178C72.979 154.494 73.471 153.966 74.071 153.594C74.671 153.222 75.301 153.036 75.961 153.036C77.077 153.036 77.935 153.408 78.535 154.152C79.147 154.896 79.453 155.892 79.453 157.14C79.453 157.296 79.447 157.452 79.435 157.608C79.435 157.752 79.423 157.878 79.399 157.986H73.495C73.555 158.91 73.843 159.648 74.359 160.2C74.887 160.752 75.571 161.028 76.411 161.028C76.831 161.028 77.215 160.968 77.563 160.848C77.923 160.716 78.265 160.548 78.589 160.344L79.111 161.316C78.739 161.556 78.313 161.766 77.833 161.946C77.365 162.126 76.831 162.216 76.231 162.216ZM73.477 156.924H78.157C78.157 156.036 77.965 155.364 77.581 154.908C77.209 154.44 76.681 154.206 75.997 154.206C75.385 154.206 74.833 154.446 74.341 154.926C73.861 155.394 73.573 156.06 73.477 156.924ZM85.4702 162V154.458H84.2822V153.342L85.4702 153.252V151.866C85.4702 150.978 85.6742 150.276 86.0822 149.76C86.5022 149.232 87.1502 148.968 88.0262 148.968C88.3022 148.968 88.5662 148.998 88.8182 149.058C89.0702 149.106 89.2922 149.172 89.4842 149.256L89.1602 150.39C88.8362 150.246 88.5062 150.174 88.1702 150.174C87.3542 150.174 86.9462 150.738 86.9462 151.866V153.252H88.8002V154.458H86.9462V162H85.4702ZM93.7003 162.216C92.9923 162.216 92.3263 162.036 91.7023 161.676C91.0903 161.316 90.5923 160.794 90.2083 160.11C89.8363 159.426 89.6503 158.604 89.6503 157.644C89.6503 156.66 89.8363 155.826 90.2083 155.142C90.5923 154.458 91.0903 153.936 91.7023 153.576C92.3263 153.216 92.9923 153.036 93.7003 153.036C94.4203 153.036 95.0863 153.216 95.6983 153.576C96.3103 153.936 96.8023 154.458 97.1743 155.142C97.5583 155.826 97.7503 156.66 97.7503 157.644C97.7503 158.604 97.5583 159.426 97.1743 160.11C96.8023 160.794 96.3103 161.316 95.6983 161.676C95.0863 162.036 94.4203 162.216 93.7003 162.216ZM93.7003 160.992C94.4563 160.992 95.0623 160.686 95.5183 160.074C95.9863 159.45 96.2203 158.64 96.2203 157.644C96.2203 156.636 95.9863 155.82 95.5183 155.196C95.0623 154.572 94.4563 154.26 93.7003 154.26C92.9563 154.26 92.3503 154.572 91.8823 155.196C91.4143 155.82 91.1803 156.636 91.1803 157.644C91.1803 158.64 91.4143 159.45 91.8823 160.074C92.3503 160.686 92.9563 160.992 93.7003 160.992ZM100.054 162V153.252H101.278L101.404 154.836H101.458C101.758 154.284 102.124 153.846 102.556 153.522C102.988 153.198 103.45 153.036 103.942 153.036C104.29 153.036 104.602 153.096 104.878 153.216L104.59 154.512C104.446 154.464 104.314 154.428 104.194 154.404C104.074 154.38 103.924 154.368 103.744 154.368C103.372 154.368 102.982 154.518 102.574 154.818C102.178 155.118 101.83 155.64 101.53 156.384V162H100.054ZM106.294 162V153.252H107.518L107.644 154.512H107.698C108.082 154.092 108.502 153.744 108.958 153.468C109.414 153.18 109.9 153.036 110.416 153.036C111.088 153.036 111.61 153.186 111.982 153.486C112.366 153.774 112.648 154.182 112.828 154.71C113.284 154.218 113.746 153.816 114.214 153.504C114.682 153.192 115.18 153.036 115.708 153.036C116.608 153.036 117.274 153.33 117.706 153.918C118.15 154.494 118.372 155.34 118.372 156.456V162H116.896V156.654C116.896 155.838 116.764 155.244 116.5 154.872C116.236 154.5 115.828 154.314 115.276 154.314C114.628 154.314 113.896 154.764 113.08 155.664V162H111.604V156.654C111.604 155.838 111.472 155.244 111.208 154.872C110.944 154.5 110.53 154.314 109.966 154.314C109.318 154.314 108.586 154.764 107.77 155.664V162H106.294Z" fill="#F0EBF5"/>
<defs>
<clipPath id="clip0_2536_15695">
<rect width="69.1884" height="69.1884" fill="white" transform="translate(194.855 25.1594)"/>
</clipPath>
<clipPath id="clip1_2536_15695">
<rect width="69.1884" height="69.1884" fill="white" transform="translate(380.949 26.9565)"/>
</clipPath>
<clipPath id="clip2_2536_15695">
<rect width="71.8841" height="71.8841" fill="white" transform="translate(543.652 28.7537)"/>
</clipPath>
<clipPath id="clip3_2536_15695">
<rect width="69.1884" height="69.1884" fill="white" transform="translate(31.4453 26.9565)"/>
</clipPath>
</defs>
</svg>
