<svg width="850" height="187" viewBox="0 0 850 187" fill="none" xmlns="http://www.w3.org/2000/svg">
<path d="M286.043 87.5547C285.213 87.5547 284.539 88.2284 284.539 89.0586C284.539 89.8888 285.213 90.5625 286.043 90.5625C286.873 90.5625 287.547 89.8888 287.547 89.0586C287.547 88.2284 286.873 87.5547 286.043 87.5547Z" fill="#7568F6"/>
<path d="M289.746 82.6915L282.598 80.3093L280.032 75.1769C282.344 72.8239 283.949 69.7105 284.49 66.4632L284.81 64.5449H287.547C290.035 64.5449 292.059 62.521 292.059 60.0332V50.5586C292.059 38.1198 281.939 28 269.5 28C257.029 28 246.941 38.0908 246.941 50.5586V60.0332C246.941 61.9937 248.199 63.6654 249.949 64.2863V66.0488C249.949 68.5366 251.973 70.5605 254.461 70.5605H255.782C256.434 71.9768 257.277 73.2885 258.304 74.4668C258.517 74.7116 258.739 74.9489 258.967 75.1798L256.402 80.3093L249.254 82.6917C240.943 85.4631 234.91 94.2126 234.91 103.496C234.91 104.327 235.583 105 236.414 105H302.586C303.416 105 304.09 104.327 304.09 103.496C304.09 94.2126 298.058 85.4631 289.746 82.6915ZM289.051 60.0332C289.051 60.8625 288.376 61.5371 287.547 61.5371H285.252C285.634 58.5759 285.889 55.4248 285.991 52.3212C285.994 52.2336 285.997 52.1485 285.999 52.0625H289.051V60.0332ZM251.453 61.5371C250.624 61.5371 249.949 60.8625 249.949 60.0332V52.0625H253.002C253.007 52.2194 253.012 52.377 253.018 52.5356C253.018 52.541 253.018 52.5463 253.019 52.5517C253.019 52.5522 253.019 52.5526 253.019 52.5531C253.124 55.5717 253.375 58.641 253.749 61.537H251.453V61.5371ZM254.461 67.5527C253.632 67.5527 252.957 66.8781 252.957 66.0488V64.5449H254.19L254.51 66.4638C254.571 66.8285 254.646 67.1918 254.733 67.5527H254.461ZM252.96 49.0547H250.006C250.768 38.9754 259.18 31.0078 269.5 31.0078C279.774 31.0078 288.223 38.9743 288.993 49.0547H286.041C285.932 40.7491 279.169 34.0156 270.846 34.0156H268.154C259.832 34.0156 253.068 40.7491 252.96 49.0547ZM268.154 37.0234H270.846C277.585 37.0234 283.039 42.5354 283.035 49.2667C283.035 49.74 283.031 50.1521 283.023 50.527C283.023 50.5318 283.023 50.5368 283.023 50.5417L281.142 50.273C276.032 49.5433 271.207 47.1307 267.556 43.4796C267.273 43.1976 266.891 43.0391 266.492 43.0391C262.453 43.0391 258.587 44.8792 256.031 47.9881C256.661 41.8644 261.838 37.0234 268.154 37.0234ZM257.851 67.5527C257.098 65.0483 256.236 57.6791 256.046 52.9569L258.07 50.258C259.929 47.7801 262.821 46.2406 265.898 46.0639C269.946 49.9163 275.183 52.4603 280.717 53.2504L282.931 53.5669C282.783 56.7078 282.481 59.8597 282.047 62.7584C282.047 62.7593 282.047 62.7604 282.047 62.7614C281.909 63.6934 281.8 64.2932 281.523 65.9684C280.727 70.7455 277.162 75.0655 272.457 76.242C270.52 76.7255 268.48 76.7254 266.544 76.242C263.606 75.5075 260.912 73.4745 259.173 70.5605H262.239C262.86 72.3109 264.532 73.5684 266.492 73.5684H269.5C271.993 73.5684 274.012 71.5495 274.012 69.0566C274.012 66.5689 271.988 64.5449 269.5 64.5449H266.492C264.488 64.5449 262.841 65.8395 262.237 67.5527H257.851ZM266.366 79.2856C267.397 79.5029 268.449 79.6141 269.5 79.6141C270.323 79.6141 271.146 79.5452 271.959 79.4116L269.302 82.222L266.366 79.2856ZM267.234 84.4084L262.464 89.4528C261.151 86.9391 260.023 84.3231 259.097 81.6449L260.888 78.0623L267.234 84.4084ZM277.857 77.5528L279.903 81.6448C278.976 84.3275 277.847 86.9444 276.535 89.455L271.43 84.3496L277.857 77.5528ZM264.988 69.0566C264.988 68.2263 265.662 67.5527 266.492 67.5527H269.5C270.329 67.5527 271.004 68.2274 271.004 69.0566C271.004 69.8871 270.33 70.5605 269.5 70.5605H266.492C265.663 70.5605 264.988 69.8859 264.988 69.0566ZM237.978 101.992C238.574 94.542 243.532 87.7702 250.205 85.545L256.536 83.4353C257.696 86.6424 259.132 89.7596 260.816 92.7205C260.819 92.7256 260.822 92.7307 260.825 92.7356C260.825 92.7358 260.825 92.7358 260.825 92.7359C262.055 94.8999 263.44 97.0146 264.941 99.0221L266.791 101.992H237.978ZM269.5 100.652L267.46 97.3772C267.438 97.3405 267.413 97.3048 267.387 97.2702C266.169 95.6457 265.033 93.9467 263.999 92.2078L269.362 86.5359L275.013 92.1873C273.972 93.9389 272.832 95.645 271.613 97.2699C271.539 97.3681 271.644 97.2134 269.5 100.652ZM272.209 101.992L274.058 99.0223C275.566 97.007 276.961 94.8754 278.204 92.686C278.211 92.6728 278.218 92.6592 278.226 92.646C278.227 92.6444 278.228 92.6429 278.229 92.6412C279.891 89.7086 281.313 86.6185 282.464 83.4353L288.795 85.545C295.468 87.7702 300.426 94.542 301.022 101.992H272.209Z" fill="#C7C7C7"/>
<path d="M296.503 95.9064C295.498 93.8946 294.025 92.1074 292.245 90.7379C291.587 90.2313 290.643 90.3544 290.136 91.0128C289.63 91.6712 289.753 92.6154 290.411 93.1219C291.833 94.2157 293.009 95.6434 293.812 97.2506C294.184 97.9949 295.087 98.2944 295.829 97.9239C296.572 97.5527 296.874 96.6495 296.503 95.9064Z" fill="#7568F6"/>
<circle cx="269" cy="69" r="67.5" stroke="#C4C4C4" stroke-width="3"/>
<path d="M214.078 161.398H216.058C217.894 161.398 218.902 161.956 218.902 163.504C218.902 165.034 217.894 165.79 216.058 165.79H214.078V161.398ZM220.756 172L217.75 166.852C219.352 166.438 220.396 165.34 220.396 163.504C220.396 161.056 218.668 160.192 216.274 160.192H212.566V172H214.078V167.014H216.202L219.046 172H220.756ZM222.023 167.644C222.023 170.506 223.877 172.216 226.217 172.216C227.405 172.216 228.341 171.802 229.097 171.316L228.575 170.344C227.927 170.758 227.225 171.028 226.397 171.028C224.723 171.028 223.589 169.84 223.481 167.95H229.385C229.421 167.734 229.439 167.446 229.439 167.14C229.439 164.638 228.179 163.036 225.947 163.036C223.949 163.036 222.023 164.782 222.023 167.644ZM223.463 166.978C223.643 165.214 224.759 164.206 225.983 164.206C227.351 164.206 228.143 165.196 228.143 166.978H223.463ZM233.579 172H235.307L238.403 163.252H236.945L235.289 168.22C235.037 169.084 234.749 169.966 234.497 170.794H234.425C234.155 169.966 233.867 169.084 233.615 168.22L231.959 163.252H230.429L233.579 172ZM240.847 161.452C241.423 161.452 241.873 161.056 241.873 160.498C241.873 159.922 241.423 159.544 240.847 159.544C240.271 159.544 239.821 159.922 239.821 160.498C239.821 161.056 240.271 161.452 240.847 161.452ZM240.091 172H241.567V163.252H240.091V172ZM243.873 167.644C243.873 170.506 245.727 172.216 248.067 172.216C249.255 172.216 250.191 171.802 250.947 171.316L250.425 170.344C249.777 170.758 249.075 171.028 248.247 171.028C246.573 171.028 245.439 169.84 245.331 167.95H251.235C251.271 167.734 251.289 167.446 251.289 167.14C251.289 164.638 250.029 163.036 247.797 163.036C245.799 163.036 243.873 164.782 243.873 167.644ZM245.313 166.978C245.493 165.214 246.609 164.206 247.833 164.206C249.201 164.206 249.993 165.196 249.993 166.978H245.313ZM254.925 172H256.653L257.877 167.32C258.111 166.492 258.291 165.664 258.489 164.782H258.561C258.777 165.664 258.939 166.474 259.155 167.302L260.415 172H262.215L264.555 163.252H263.151L261.873 168.31C261.693 169.138 261.531 169.93 261.333 170.74H261.261C261.062 169.93 260.865 169.138 260.649 168.31L259.281 163.252H257.841L256.491 168.31C256.275 169.12 256.095 169.93 255.897 170.74H255.825C255.663 169.93 255.501 169.138 255.303 168.31L254.007 163.252H252.495L254.925 172ZM269.449 167.644C269.449 170.542 271.231 172.216 273.553 172.216C274.597 172.216 275.605 171.784 276.397 171.082L275.731 170.11C275.209 170.578 274.507 170.992 273.679 170.992C272.077 170.992 270.979 169.642 270.979 167.644C270.979 165.628 272.131 164.26 273.715 164.26C274.417 164.26 274.957 164.584 275.479 165.034L276.217 164.08C275.623 163.522 274.813 163.036 273.661 163.036C271.411 163.036 269.449 164.71 269.449 167.644ZM277.271 167.644C277.271 170.542 279.179 172.216 281.321 172.216C283.463 172.216 285.371 170.542 285.371 167.644C285.371 164.71 283.463 163.036 281.321 163.036C279.179 163.036 277.271 164.71 277.271 167.644ZM278.801 167.644C278.801 165.628 279.827 164.26 281.321 164.26C282.833 164.26 283.841 165.628 283.841 167.644C283.841 169.642 282.833 170.992 281.321 170.992C279.827 170.992 278.801 169.642 278.801 167.644ZM287.675 172H289.151V165.664C290.033 164.782 290.645 164.314 291.545 164.314C292.697 164.314 293.201 165.016 293.201 166.654V172H294.677V166.456C294.677 164.224 293.849 163.036 292.013 163.036C290.807 163.036 289.907 163.684 289.079 164.512H289.025L288.899 163.252H287.675V172ZM297.771 169.3C297.771 171.028 298.401 172.216 300.273 172.216C300.813 172.216 301.407 172.054 301.893 171.892L301.605 170.776C301.317 170.884 300.921 171.01 300.615 171.01C299.607 171.01 299.265 170.398 299.265 169.318V164.458H301.623V163.252H299.265V160.804H298.023L297.843 163.252L296.475 163.342V164.458H297.771V169.3ZM302.777 167.644C302.777 170.506 304.631 172.216 306.971 172.216C308.159 172.216 309.095 171.802 309.851 171.316L309.329 170.344C308.681 170.758 307.979 171.028 307.151 171.028C305.477 171.028 304.343 169.84 304.235 167.95H310.139C310.175 167.734 310.193 167.446 310.193 167.14C310.193 164.638 308.933 163.036 306.701 163.036C304.703 163.036 302.777 164.782 302.777 167.644ZM304.217 166.978C304.397 165.214 305.513 164.206 306.737 164.206C308.105 164.206 308.897 165.196 308.897 166.978H304.217ZM312.355 172H313.831V165.664C314.713 164.782 315.325 164.314 316.225 164.314C317.377 164.314 317.881 165.016 317.881 166.654V172H319.357V166.456C319.357 164.224 318.529 163.036 316.693 163.036C315.487 163.036 314.587 163.684 313.759 164.512H313.705L313.579 163.252H312.355V172ZM322.451 169.3C322.451 171.028 323.081 172.216 324.953 172.216C325.493 172.216 326.087 172.054 326.573 171.892L326.285 170.776C325.997 170.884 325.601 171.01 325.295 171.01C324.287 171.01 323.945 170.398 323.945 169.318V164.458H326.303V163.252H323.945V160.804H322.703L322.523 163.252L321.155 163.342V164.458H322.451V169.3Z" fill="#C7C7C7"/>
<line x1="138" y1="70" x2="200" y2="70" stroke="#C7C7C7" stroke-width="4"/>
<line x1="645" y1="70" x2="707" y2="70" stroke="#C7C7C7" stroke-width="4"/>
<line x1="338" y1="70" x2="507" y2="70" stroke="#C7C7C7" stroke-width="4" stroke-dasharray="10 10"/>
<circle cx="576" cy="69" r="67.5" stroke="#C4C4C4" stroke-width="3"/>
<path d="M613.434 66.9962H602.303V31.504C602.303 30.8958 601.937 30.3474 601.375 30.1146C600.813 29.8816 600.166 30.0106 599.736 30.4405L595.475 34.7007L591.215 30.4406C590.628 29.8533 589.676 29.8533 589.088 30.4406L584.828 34.7009L580.568 30.4406C579.981 29.8533 579.029 29.8533 578.441 30.4406L574.181 34.7009L569.921 30.4406C569.333 29.8533 568.381 29.8533 567.794 30.4406L563.534 34.7009L559.274 30.4406C558.686 29.8533 557.734 29.8533 557.147 30.4406L552.886 34.7009L548.626 30.4406C548.043 29.8569 547.099 29.8539 546.51 30.4323C546.201 30.7363 546.051 31.1413 546.061 31.5436V99.18C546.061 103.492 549.569 107 553.881 107H607.116C607.116 107 607.116 107 607.116 107C607.117 107 607.117 107 607.118 107C611.43 107 614.938 103.492 614.938 99.18V68.5C614.938 67.6694 614.265 66.9962 613.434 66.9962ZM553.881 103.992C551.227 103.992 549.069 101.833 549.069 99.1798V35.1367L551.823 37.891C552.41 38.4782 553.363 38.4782 553.95 37.891L558.21 33.6307L562.47 37.891C563.058 38.4782 564.01 38.4782 564.597 37.891L568.858 33.6307L573.118 37.891C573.705 38.4782 574.658 38.4782 575.245 37.891L579.505 33.6307L583.765 37.891C584.353 38.4782 585.305 38.4782 585.892 37.891L590.153 33.6307L594.413 37.891C595 38.4782 595.953 38.4782 596.54 37.891L599.296 35.1346V68.5C599.296 68.5137 599.298 68.527 599.298 68.5407V99.1798C599.298 100.994 599.921 102.664 600.961 103.992H553.881ZM611.93 99.1798C611.93 101.833 609.771 103.992 607.118 103.992C604.464 103.992 602.305 101.833 602.305 99.1798V70.0039H611.93V99.1798Z" fill="#C7C7C7"/>
<path d="M574.183 53.8903C572.691 53.8903 571.477 52.8505 571.477 51.5726C571.477 50.2946 572.691 49.2548 574.183 49.2548C575.676 49.2548 576.89 50.2946 576.89 51.5726C576.89 52.4032 577.564 53.0765 578.394 53.0765C579.225 53.0765 579.898 52.4032 579.898 51.5726C579.898 49.1211 578.111 47.0526 575.687 46.4357V45.417C575.687 44.5864 575.014 43.9131 574.183 43.9131C573.353 43.9131 572.68 44.5864 572.68 45.417V46.4357C570.256 47.0526 568.469 49.1213 568.469 51.5726C568.469 54.509 571.032 56.898 574.183 56.898C575.676 56.898 576.89 57.9378 576.89 59.2158C576.89 60.4938 575.676 61.5335 574.183 61.5335C572.691 61.5335 571.477 60.4937 571.477 59.2158C571.477 58.3852 570.803 57.7119 569.973 57.7119C569.142 57.7119 568.469 58.3852 568.469 59.2158C568.469 61.6673 570.256 63.7358 572.68 64.3527V65.5799C572.68 66.4105 573.353 67.0838 574.183 67.0838C575.014 67.0838 575.687 66.4105 575.687 65.5799V64.3527C578.111 63.7358 579.898 61.6673 579.898 59.2158C579.898 56.2794 577.334 53.8903 574.183 53.8903Z" fill="#7568F6"/>
<path d="M589.292 53.8906H586.361C585.531 53.8906 584.857 54.5639 584.857 55.3945C584.857 56.2251 585.531 56.8984 586.361 56.8984H589.292C590.123 56.8984 590.796 56.2251 590.796 55.3945C590.796 54.5639 590.123 53.8906 589.292 53.8906Z" fill="#7568F6"/>
<path d="M562.005 53.8906H559.074C558.244 53.8906 557.57 54.5639 557.57 55.3945C557.57 56.2251 558.244 56.8984 559.074 56.8984H562.005C562.836 56.8984 563.509 56.2251 563.509 55.3945C563.509 54.5639 562.836 53.8906 562.005 53.8906Z" fill="#7568F6"/>
<path d="M590.052 70.6064H566.227C565.396 70.6064 564.723 71.2797 564.723 72.1104C564.723 72.941 565.396 73.6143 566.227 73.6143H590.052C590.882 73.6143 591.556 72.941 591.556 72.1104C591.556 71.2797 590.882 70.6064 590.052 70.6064Z" fill="#C7C7C7"/>
<path d="M559.376 71.0471C559.096 70.7674 558.708 70.6064 558.312 70.6064C557.917 70.6064 557.529 70.7674 557.249 71.0471C556.97 71.3268 556.809 71.7148 556.809 72.1104C556.809 72.5059 556.97 72.8939 557.249 73.1736C557.529 73.4533 557.917 73.6143 558.312 73.6143C558.708 73.6143 559.096 73.4533 559.376 73.1736C559.655 72.8939 559.816 72.5059 559.816 72.1104C559.816 71.7148 559.655 71.3268 559.376 71.0471Z" fill="#C7C7C7"/>
<path d="M590.052 80.5322H566.227C565.396 80.5322 564.723 81.2055 564.723 82.0361C564.723 82.8667 565.396 83.54 566.227 83.54H590.052C590.882 83.54 591.556 82.8667 591.556 82.0361C591.556 81.2055 590.882 80.5322 590.052 80.5322Z" fill="#C7C7C7"/>
<path d="M559.376 80.9729C559.096 80.6931 558.708 80.5322 558.312 80.5322C557.917 80.5322 557.529 80.6931 557.249 80.9729C556.97 81.2526 556.809 81.6406 556.809 82.0361C556.809 82.4317 556.97 82.8197 557.249 83.0994C557.529 83.3791 557.917 83.54 558.312 83.54C558.708 83.54 559.096 83.3791 559.376 83.0994C559.655 82.8197 559.816 82.4317 559.816 82.0361C559.816 81.6406 559.655 81.2526 559.376 80.9729Z" fill="#C7C7C7"/>
<path d="M590.052 90.457H566.227C565.396 90.457 564.723 91.1303 564.723 91.9609C564.723 92.7915 565.396 93.4648 566.227 93.4648H590.052C590.882 93.4648 591.556 92.7915 591.556 91.9609C591.556 91.1303 590.882 90.457 590.052 90.457Z" fill="#C7C7C7"/>
<path d="M559.376 90.8977C559.096 90.618 558.708 90.457 558.312 90.457C557.917 90.457 557.529 90.618 557.249 90.8977C556.97 91.1774 556.809 91.5654 556.809 91.9609C556.809 92.3565 556.97 92.7445 557.249 93.0242C557.529 93.3039 557.917 93.4648 558.312 93.4648C558.708 93.4648 559.096 93.3039 559.376 93.0242C559.655 92.7445 559.816 92.3565 559.816 91.9609C559.816 91.5654 559.655 91.1774 559.376 90.8977Z" fill="#C7C7C7"/>
<path d="M518.12 172V160.192H519.614V166.114H519.668L524.582 160.192H526.274L522.584 164.692L526.85 172H525.176L521.648 165.862L519.614 168.256V172H518.12ZM531.823 172.216C531.235 172.216 530.683 172.114 530.167 171.91C529.663 171.694 529.219 171.394 528.835 171.01C528.463 170.614 528.169 170.134 527.953 169.57C527.737 169.006 527.629 168.364 527.629 167.644C527.629 166.924 527.737 166.282 527.953 165.718C528.181 165.142 528.475 164.656 528.835 164.26C529.207 163.864 529.627 163.564 530.095 163.36C530.563 163.144 531.049 163.036 531.553 163.036C532.105 163.036 532.597 163.132 533.029 163.324C533.473 163.516 533.839 163.792 534.127 164.152C534.427 164.512 534.655 164.944 534.811 165.448C534.967 165.952 535.045 166.516 535.045 167.14C535.045 167.296 535.039 167.452 535.027 167.608C535.027 167.752 535.015 167.878 534.991 167.986H529.087C529.147 168.922 529.435 169.666 529.951 170.218C530.479 170.758 531.163 171.028 532.003 171.028C532.423 171.028 532.807 170.968 533.155 170.848C533.515 170.716 533.857 170.548 534.181 170.344L534.703 171.316C534.319 171.556 533.893 171.766 533.425 171.946C532.957 172.126 532.423 172.216 531.823 172.216ZM529.069 166.924H533.749C533.749 166.036 533.557 165.364 533.173 164.908C532.801 164.44 532.273 164.206 531.589 164.206C531.277 164.206 530.977 164.266 530.689 164.386C530.413 164.506 530.161 164.686 529.933 164.926C529.705 165.154 529.513 165.436 529.357 165.772C529.213 166.108 529.117 166.492 529.069 166.924ZM540.752 172.216C540.164 172.216 539.612 172.114 539.096 171.91C538.592 171.694 538.148 171.394 537.764 171.01C537.392 170.614 537.098 170.134 536.882 169.57C536.666 169.006 536.558 168.364 536.558 167.644C536.558 166.924 536.666 166.282 536.882 165.718C537.11 165.142 537.404 164.656 537.764 164.26C538.136 163.864 538.556 163.564 539.024 163.36C539.492 163.144 539.978 163.036 540.482 163.036C541.034 163.036 541.526 163.132 541.958 163.324C542.402 163.516 542.768 163.792 543.056 164.152C543.356 164.512 543.584 164.944 543.74 165.448C543.896 165.952 543.974 166.516 543.974 167.14C543.974 167.296 543.968 167.452 543.956 167.608C543.956 167.752 543.944 167.878 543.92 167.986H538.016C538.076 168.922 538.364 169.666 538.88 170.218C539.408 170.758 540.092 171.028 540.932 171.028C541.352 171.028 541.736 170.968 542.084 170.848C542.444 170.716 542.786 170.548 543.11 170.344L543.632 171.316C543.248 171.556 542.822 171.766 542.354 171.946C541.886 172.126 541.352 172.216 540.752 172.216ZM537.998 166.924H542.678C542.678 166.036 542.486 165.364 542.102 164.908C541.73 164.44 541.202 164.206 540.518 164.206C540.206 164.206 539.906 164.266 539.618 164.386C539.342 164.506 539.09 164.686 538.862 164.926C538.634 165.154 538.442 165.436 538.286 165.772C538.142 166.108 538.046 166.492 537.998 166.924ZM546.136 175.69V163.252H547.36L547.486 164.26H547.54C547.936 163.924 548.368 163.636 548.836 163.396C549.316 163.156 549.814 163.036 550.33 163.036C550.894 163.036 551.392 163.144 551.824 163.36C552.256 163.564 552.616 163.864 552.904 164.26C553.192 164.644 553.408 165.112 553.552 165.664C553.708 166.204 553.786 166.816 553.786 167.5C553.786 168.244 553.684 168.91 553.48 169.498C553.276 170.074 553 170.566 552.652 170.974C552.304 171.382 551.902 171.694 551.446 171.91C550.99 172.114 550.51 172.216 550.006 172.216C549.598 172.216 549.19 172.126 548.782 171.946C548.386 171.766 547.984 171.52 547.576 171.208L547.612 172.738V175.69H546.136ZM549.754 170.974C550.114 170.974 550.444 170.896 550.744 170.74C551.056 170.572 551.32 170.344 551.536 170.056C551.764 169.756 551.938 169.39 552.058 168.958C552.19 168.526 552.256 168.04 552.256 167.5C552.256 167.02 552.214 166.582 552.13 166.186C552.046 165.79 551.908 165.454 551.716 165.178C551.536 164.89 551.296 164.668 550.996 164.512C550.708 164.356 550.36 164.278 549.952 164.278C549.58 164.278 549.202 164.38 548.818 164.584C548.446 164.788 548.044 165.082 547.612 165.466V170.056C548.008 170.392 548.392 170.632 548.764 170.776C549.136 170.908 549.466 170.974 549.754 170.974ZM562.478 172.216C562.01 172.216 561.614 172.144 561.29 172C560.978 171.856 560.72 171.658 560.516 171.406C560.324 171.154 560.186 170.848 560.102 170.488C560.018 170.128 559.976 169.732 559.976 169.3V164.458H558.68V163.342L560.048 163.252L560.228 160.804H561.47V163.252H563.828V164.458H561.47V169.318C561.47 169.858 561.566 170.278 561.758 170.578C561.962 170.866 562.316 171.01 562.82 171.01C562.976 171.01 563.144 170.986 563.324 170.938C563.504 170.89 563.666 170.836 563.81 170.776L564.098 171.892C563.858 171.976 563.594 172.048 563.306 172.108C563.03 172.18 562.754 172.216 562.478 172.216ZM565.806 172V159.184H567.282V162.676L567.228 164.476C567.648 164.08 568.086 163.744 568.542 163.468C568.998 163.18 569.532 163.036 570.144 163.036C571.068 163.036 571.74 163.324 572.16 163.9C572.592 164.476 572.808 165.328 572.808 166.456V172H571.332V166.654C571.332 165.826 571.2 165.232 570.936 164.872C570.672 164.5 570.252 164.314 569.676 164.314C569.22 164.314 568.818 164.428 568.47 164.656C568.122 164.884 567.726 165.22 567.282 165.664V172H565.806ZM579.143 172.216C578.555 172.216 578.003 172.114 577.487 171.91C576.983 171.694 576.539 171.394 576.155 171.01C575.783 170.614 575.489 170.134 575.273 169.57C575.057 169.006 574.949 168.364 574.949 167.644C574.949 166.924 575.057 166.282 575.273 165.718C575.501 165.142 575.795 164.656 576.155 164.26C576.527 163.864 576.947 163.564 577.415 163.36C577.883 163.144 578.369 163.036 578.873 163.036C579.425 163.036 579.917 163.132 580.349 163.324C580.793 163.516 581.159 163.792 581.447 164.152C581.747 164.512 581.975 164.944 582.131 165.448C582.287 165.952 582.365 166.516 582.365 167.14C582.365 167.296 582.359 167.452 582.347 167.608C582.347 167.752 582.335 167.878 582.311 167.986H576.407C576.467 168.922 576.755 169.666 577.271 170.218C577.799 170.758 578.483 171.028 579.323 171.028C579.743 171.028 580.127 170.968 580.475 170.848C580.835 170.716 581.177 170.548 581.501 170.344L582.023 171.316C581.639 171.556 581.213 171.766 580.745 171.946C580.277 172.126 579.743 172.216 579.143 172.216ZM576.389 166.924H581.069C581.069 166.036 580.877 165.364 580.493 164.908C580.121 164.44 579.593 164.206 578.909 164.206C578.597 164.206 578.297 164.266 578.009 164.386C577.733 164.506 577.481 164.686 577.253 164.926C577.025 165.154 576.833 165.436 576.677 165.772C576.533 166.108 576.437 166.492 576.389 166.924ZM588.13 172V163.252H589.354L589.48 164.836H589.534C589.834 164.284 590.194 163.846 590.614 163.522C591.046 163.198 591.514 163.036 592.018 163.036C592.366 163.036 592.678 163.096 592.954 163.216L592.666 164.512C592.522 164.464 592.39 164.428 592.27 164.404C592.15 164.38 592 164.368 591.82 164.368C591.448 164.368 591.058 164.518 590.65 164.818C590.254 165.118 589.906 165.64 589.606 166.384V172H588.13ZM597.741 172.216C597.153 172.216 596.601 172.114 596.085 171.91C595.581 171.694 595.137 171.394 594.753 171.01C594.381 170.614 594.087 170.134 593.871 169.57C593.655 169.006 593.547 168.364 593.547 167.644C593.547 166.924 593.655 166.282 593.871 165.718C594.099 165.142 594.393 164.656 594.753 164.26C595.125 163.864 595.545 163.564 596.013 163.36C596.481 163.144 596.967 163.036 597.471 163.036C598.023 163.036 598.515 163.132 598.947 163.324C599.391 163.516 599.757 163.792 600.045 164.152C600.345 164.512 600.573 164.944 600.729 165.448C600.885 165.952 600.963 166.516 600.963 167.14C600.963 167.296 600.957 167.452 600.945 167.608C600.945 167.752 600.933 167.878 600.909 167.986H595.005C595.065 168.922 595.353 169.666 595.869 170.218C596.397 170.758 597.081 171.028 597.921 171.028C598.341 171.028 598.725 170.968 599.073 170.848C599.433 170.716 599.775 170.548 600.099 170.344L600.621 171.316C600.237 171.556 599.811 171.766 599.343 171.946C598.875 172.126 598.341 172.216 597.741 172.216ZM594.987 166.924H599.667C599.667 166.036 599.475 165.364 599.091 164.908C598.719 164.44 598.191 164.206 597.507 164.206C597.195 164.206 596.895 164.266 596.607 164.386C596.331 164.506 596.079 164.686 595.851 164.926C595.623 165.154 595.431 165.436 595.275 165.772C595.131 166.108 595.035 166.492 594.987 166.924ZM606.58 172.216C606.004 172.216 605.464 172.114 604.96 171.91C604.456 171.706 604.018 171.412 603.646 171.028C603.286 170.632 602.998 170.152 602.782 169.588C602.578 169.012 602.476 168.364 602.476 167.644C602.476 166.912 602.59 166.264 602.818 165.7C603.046 165.124 603.352 164.638 603.736 164.242C604.12 163.846 604.564 163.546 605.068 163.342C605.584 163.138 606.124 163.036 606.688 163.036C607.264 163.036 607.756 163.138 608.164 163.342C608.572 163.546 608.932 163.786 609.244 164.062L608.488 165.034C608.236 164.806 607.966 164.62 607.678 164.476C607.402 164.332 607.09 164.26 606.742 164.26C606.346 164.26 605.98 164.344 605.644 164.512C605.308 164.668 605.02 164.896 604.78 165.196C604.54 165.496 604.348 165.856 604.204 166.276C604.072 166.684 604.006 167.14 604.006 167.644C604.006 168.148 604.072 168.604 604.204 169.012C604.336 169.42 604.516 169.774 604.744 170.074C604.984 170.362 605.272 170.59 605.608 170.758C605.944 170.914 606.31 170.992 606.706 170.992C607.114 170.992 607.486 170.908 607.822 170.74C608.17 170.56 608.482 170.35 608.758 170.11L609.406 171.1C609.01 171.448 608.572 171.724 608.092 171.928C607.612 172.12 607.108 172.216 606.58 172.216ZM614.493 172.216C613.905 172.216 613.353 172.114 612.837 171.91C612.333 171.694 611.889 171.394 611.505 171.01C611.133 170.614 610.839 170.134 610.623 169.57C610.407 169.006 610.299 168.364 610.299 167.644C610.299 166.924 610.407 166.282 610.623 165.718C610.851 165.142 611.145 164.656 611.505 164.26C611.877 163.864 612.297 163.564 612.765 163.36C613.233 163.144 613.719 163.036 614.223 163.036C614.775 163.036 615.267 163.132 615.699 163.324C616.143 163.516 616.509 163.792 616.797 164.152C617.097 164.512 617.325 164.944 617.481 165.448C617.637 165.952 617.715 166.516 617.715 167.14C617.715 167.296 617.709 167.452 617.697 167.608C617.697 167.752 617.685 167.878 617.661 167.986H611.757C611.817 168.922 612.105 169.666 612.621 170.218C613.149 170.758 613.833 171.028 614.673 171.028C615.093 171.028 615.477 170.968 615.825 170.848C616.185 170.716 616.527 170.548 616.851 170.344L617.373 171.316C616.989 171.556 616.563 171.766 616.095 171.946C615.627 172.126 615.093 172.216 614.493 172.216ZM611.739 166.924H616.419C616.419 166.036 616.227 165.364 615.843 164.908C615.471 164.44 614.943 164.206 614.259 164.206C613.947 164.206 613.647 164.266 613.359 164.386C613.083 164.506 612.831 164.686 612.603 164.926C612.375 165.154 612.183 165.436 612.027 165.772C611.883 166.108 611.787 166.492 611.739 166.924ZM619.876 172V163.252H621.352V172H619.876ZM620.632 161.452C620.344 161.452 620.098 161.362 619.894 161.182C619.702 161.002 619.606 160.774 619.606 160.498C619.606 160.21 619.702 159.982 619.894 159.814C620.098 159.634 620.344 159.544 620.632 159.544C620.92 159.544 621.16 159.634 621.352 159.814C621.556 159.982 621.658 160.21 621.658 160.498C621.658 160.774 621.556 161.002 621.352 161.182C621.16 161.362 620.92 161.452 620.632 161.452ZM624.306 175.69V163.252H625.53L625.656 164.26H625.71C626.106 163.924 626.538 163.636 627.006 163.396C627.486 163.156 627.984 163.036 628.5 163.036C629.064 163.036 629.562 163.144 629.994 163.36C630.426 163.564 630.786 163.864 631.074 164.26C631.362 164.644 631.578 165.112 631.722 165.664C631.878 166.204 631.956 166.816 631.956 167.5C631.956 168.244 631.854 168.91 631.65 169.498C631.446 170.074 631.17 170.566 630.822 170.974C630.474 171.382 630.072 171.694 629.616 171.91C629.16 172.114 628.68 172.216 628.176 172.216C627.768 172.216 627.36 172.126 626.952 171.946C626.556 171.766 626.154 171.52 625.746 171.208L625.782 172.738V175.69H624.306ZM627.924 170.974C628.284 170.974 628.614 170.896 628.914 170.74C629.226 170.572 629.49 170.344 629.706 170.056C629.934 169.756 630.108 169.39 630.228 168.958C630.36 168.526 630.426 168.04 630.426 167.5C630.426 167.02 630.384 166.582 630.3 166.186C630.216 165.79 630.078 165.454 629.886 165.178C629.706 164.89 629.466 164.668 629.166 164.512C628.878 164.356 628.53 164.278 628.122 164.278C627.75 164.278 627.372 164.38 626.988 164.584C626.616 164.788 626.214 165.082 625.782 165.466V170.056C626.178 170.392 626.562 170.632 626.934 170.776C627.306 170.908 627.636 170.974 627.924 170.974ZM636.746 172.216C636.278 172.216 635.882 172.144 635.558 172C635.246 171.856 634.988 171.658 634.784 171.406C634.592 171.154 634.454 170.848 634.37 170.488C634.286 170.128 634.244 169.732 634.244 169.3V164.458H632.948V163.342L634.316 163.252L634.496 160.804H635.738V163.252H638.096V164.458H635.738V169.318C635.738 169.858 635.834 170.278 636.026 170.578C636.23 170.866 636.584 171.01 637.088 171.01C637.244 171.01 637.412 170.986 637.592 170.938C637.772 170.89 637.934 170.836 638.078 170.776L638.366 171.892C638.126 171.976 637.862 172.048 637.574 172.108C637.298 172.18 637.022 172.216 636.746 172.216Z" fill="#C7C7C7"/>
<path d="M742.279 78.8628C743.535 78.8628 744.557 77.8407 744.557 76.5842C744.557 75.3277 743.535 74.3057 742.279 74.3057C741.022 74.3057 740 75.3277 740 76.5842C740 77.8407 741.022 78.8628 742.279 78.8628Z" fill="#C7C7C7"/>
<path d="M797.256 61.8902C796.544 61.1785 795.39 61.1785 794.678 61.8902L789.137 67.4309C788.426 68.1427 788.426 69.2969 789.137 70.0089C789.493 70.3647 789.96 70.5428 790.426 70.5428C790.893 70.5428 791.359 70.3647 791.715 70.0089L797.256 64.4682C797.968 63.7564 797.968 62.6022 797.256 61.8902Z" fill="#7568F6"/>
<path d="M794.294 75.164C794.65 75.5198 795.116 75.6979 795.583 75.6979C796.049 75.6979 796.516 75.5198 796.871 75.164L807.953 64.0825C808.665 63.3706 808.665 62.2164 807.953 61.5044C807.241 60.7928 806.087 60.7928 805.375 61.5044L794.294 72.586C793.582 73.2978 793.582 74.452 794.294 75.164Z" fill="#7568F6"/>
<path d="M819.466 63.6539L800.648 44.8355C799.936 44.1238 798.782 44.1238 798.07 44.8355L791.385 51.52H768.825C763.627 51.52 758.679 53.8882 755.403 57.8999H751.848V55.1657C751.848 54.1591 751.032 53.3428 750.026 53.3428H741.823C740.816 53.3428 740 54.1591 740 55.1657C740 56.1722 740.816 56.9885 741.823 56.9885H748.203V82.5082H741.823C740.816 82.5082 740 83.3244 740 84.331C740 85.3376 740.816 86.1538 741.823 86.1538H750.026C751.032 86.1538 751.848 85.3376 751.848 84.331V79.7739H755.403C758.679 83.7856 763.628 86.1538 768.825 86.1538H770.946L783.956 99.1641C784.312 99.52 784.778 99.6981 785.245 99.6981C785.711 99.6981 786.178 99.52 786.534 99.1641L819.466 66.2319C819.808 65.8899 820 65.4264 820 64.943C820 64.4596 819.808 63.9958 819.466 63.6539ZM757.771 76.8774C757.428 76.4066 756.88 76.1283 756.298 76.1283H751.848V61.5456H756.298C756.88 61.5456 757.428 61.2672 757.771 60.7964C760.341 57.2707 764.473 55.1657 768.825 55.1657H787.74L776.925 65.9804C775.404 64.8675 774.049 63.5135 772.908 61.9461C772.316 61.132 771.176 60.9523 770.362 61.5445C769.548 62.1367 769.368 63.2767 769.96 64.0908C773.419 68.8451 778.522 71.9678 784.33 72.8836C785.447 73.0599 786.212 74.1118 786.036 75.2289C785.86 76.3457 784.809 77.11 783.691 76.9349C778.646 76.1392 774.001 73.9255 770.258 70.5334C769.512 69.8573 768.36 69.9139 767.684 70.6598C767.007 71.4057 767.064 72.5584 767.81 73.2345C768.137 73.5305 768.471 73.816 768.809 74.0962L765.138 77.7677C764.796 78.1095 764.604 78.5732 764.604 79.0566C764.604 79.5401 764.796 80.0036 765.138 80.3456L767.202 82.4101C763.462 81.9582 760.019 79.9613 757.771 76.8774ZM785.245 95.2972L769.004 79.0566L771.794 76.2664C775.208 78.4358 779.051 79.8937 783.123 80.5359C783.422 80.5831 783.72 80.606 784.014 80.606C786.766 80.6057 789.195 78.5997 789.637 75.7965C790.126 72.6939 788 69.7717 784.898 69.2822C783.247 69.0219 781.665 68.5476 780.182 67.879L799.359 48.7024L815.599 64.943L785.245 95.2972Z" fill="#C7C7C7"/>
<circle cx="776" cy="69" r="67.5" stroke="#C4C4C4" stroke-width="3"/>
<path d="M714.12 172V160.192H717.072C718.896 160.192 720.282 160.696 721.23 161.704C722.178 162.712 722.652 164.158 722.652 166.042C722.652 166.978 722.532 167.818 722.292 168.562C722.052 169.294 721.698 169.918 721.23 170.434C720.762 170.938 720.186 171.328 719.502 171.604C718.818 171.868 718.032 172 717.144 172H714.12ZM715.614 170.776H716.964C718.344 170.776 719.376 170.362 720.06 169.534C720.756 168.706 721.104 167.542 721.104 166.042C721.104 164.542 720.756 163.396 720.06 162.604C719.376 161.812 718.344 161.416 716.964 161.416H715.614V170.776ZM728.596 172.216C728.008 172.216 727.456 172.114 726.94 171.91C726.436 171.694 725.992 171.394 725.608 171.01C725.236 170.614 724.942 170.134 724.726 169.57C724.51 169.006 724.402 168.364 724.402 167.644C724.402 166.924 724.51 166.282 724.726 165.718C724.954 165.142 725.248 164.656 725.608 164.26C725.98 163.864 726.4 163.564 726.868 163.36C727.336 163.144 727.822 163.036 728.326 163.036C728.878 163.036 729.37 163.132 729.802 163.324C730.246 163.516 730.612 163.792 730.9 164.152C731.2 164.512 731.428 164.944 731.584 165.448C731.74 165.952 731.818 166.516 731.818 167.14C731.818 167.296 731.812 167.452 731.8 167.608C731.8 167.752 731.788 167.878 731.764 167.986H725.86C725.92 168.922 726.208 169.666 726.724 170.218C727.252 170.758 727.936 171.028 728.776 171.028C729.196 171.028 729.58 170.968 729.928 170.848C730.288 170.716 730.63 170.548 730.954 170.344L731.476 171.316C731.092 171.556 730.666 171.766 730.198 171.946C729.73 172.126 729.196 172.216 728.596 172.216ZM725.842 166.924H730.522C730.522 166.036 730.33 165.364 729.946 164.908C729.574 164.44 729.046 164.206 728.362 164.206C728.05 164.206 727.75 164.266 727.462 164.386C727.186 164.506 726.934 164.686 726.706 164.926C726.478 165.154 726.286 165.436 726.13 165.772C725.986 166.108 725.89 166.492 725.842 166.924ZM735.546 172.216C734.982 172.216 734.58 172.048 734.34 171.712C734.1 171.376 733.98 170.884 733.98 170.236V159.184H735.456V170.344C735.456 170.584 735.498 170.752 735.582 170.848C735.666 170.944 735.762 170.992 735.87 170.992C735.918 170.992 735.96 170.992 735.996 170.992C736.044 170.992 736.11 170.98 736.194 170.956L736.392 172.072C736.296 172.12 736.182 172.156 736.05 172.18C735.918 172.204 735.75 172.216 735.546 172.216ZM738.568 172V163.252H740.044V172H738.568ZM739.324 161.452C739.036 161.452 738.79 161.362 738.586 161.182C738.394 161.002 738.298 160.774 738.298 160.498C738.298 160.21 738.394 159.982 738.586 159.814C738.79 159.634 739.036 159.544 739.324 159.544C739.612 159.544 739.852 159.634 740.044 159.814C740.248 159.982 740.35 160.21 740.35 160.498C740.35 160.774 740.248 161.002 740.044 161.182C739.852 161.362 739.612 161.452 739.324 161.452ZM744.887 172L741.737 163.252H743.267L744.923 168.22C745.055 168.652 745.187 169.084 745.319 169.516C745.463 169.948 745.601 170.374 745.733 170.794H745.805C745.937 170.374 746.069 169.948 746.201 169.516C746.333 169.084 746.465 168.652 746.597 168.22L748.253 163.252H749.711L746.615 172H744.887ZM754.876 172.216C754.288 172.216 753.736 172.114 753.22 171.91C752.716 171.694 752.272 171.394 751.888 171.01C751.516 170.614 751.222 170.134 751.006 169.57C750.79 169.006 750.682 168.364 750.682 167.644C750.682 166.924 750.79 166.282 751.006 165.718C751.234 165.142 751.528 164.656 751.888 164.26C752.26 163.864 752.68 163.564 753.148 163.36C753.616 163.144 754.102 163.036 754.606 163.036C755.158 163.036 755.65 163.132 756.082 163.324C756.526 163.516 756.892 163.792 757.18 164.152C757.48 164.512 757.708 164.944 757.864 165.448C758.02 165.952 758.098 166.516 758.098 167.14C758.098 167.296 758.092 167.452 758.08 167.608C758.08 167.752 758.068 167.878 758.044 167.986H752.14C752.2 168.922 752.488 169.666 753.004 170.218C753.532 170.758 754.216 171.028 755.056 171.028C755.476 171.028 755.86 170.968 756.208 170.848C756.568 170.716 756.91 170.548 757.234 170.344L757.756 171.316C757.372 171.556 756.946 171.766 756.478 171.946C756.01 172.126 755.476 172.216 754.876 172.216ZM752.122 166.924H756.802C756.802 166.036 756.61 165.364 756.226 164.908C755.854 164.44 755.326 164.206 754.642 164.206C754.33 164.206 754.03 164.266 753.742 164.386C753.466 164.506 753.214 164.686 752.986 164.926C752.758 165.154 752.566 165.436 752.41 165.772C752.266 166.108 752.17 166.492 752.122 166.924ZM760.259 172V163.252H761.483L761.609 164.836H761.663C761.963 164.284 762.323 163.846 762.743 163.522C763.175 163.198 763.643 163.036 764.147 163.036C764.495 163.036 764.807 163.096 765.083 163.216L764.795 164.512C764.651 164.464 764.519 164.428 764.399 164.404C764.279 164.38 764.129 164.368 763.949 164.368C763.577 164.368 763.187 164.518 762.779 164.818C762.383 165.118 762.035 165.64 761.735 166.384V172H760.259ZM769.87 172.216C769.282 172.216 768.73 172.114 768.214 171.91C767.71 171.694 767.266 171.394 766.882 171.01C766.51 170.614 766.216 170.134 766 169.57C765.784 169.006 765.676 168.364 765.676 167.644C765.676 166.924 765.784 166.282 766 165.718C766.228 165.142 766.522 164.656 766.882 164.26C767.254 163.864 767.674 163.564 768.142 163.36C768.61 163.144 769.096 163.036 769.6 163.036C770.152 163.036 770.644 163.132 771.076 163.324C771.52 163.516 771.886 163.792 772.174 164.152C772.474 164.512 772.702 164.944 772.858 165.448C773.014 165.952 773.092 166.516 773.092 167.14C773.092 167.296 773.086 167.452 773.074 167.608C773.074 167.752 773.062 167.878 773.038 167.986H767.134C767.194 168.922 767.482 169.666 767.998 170.218C768.526 170.758 769.21 171.028 770.05 171.028C770.47 171.028 770.854 170.968 771.202 170.848C771.562 170.716 771.904 170.548 772.228 170.344L772.75 171.316C772.366 171.556 771.94 171.766 771.472 171.946C771.004 172.126 770.47 172.216 769.87 172.216ZM767.116 166.924H771.796C771.796 166.036 771.604 165.364 771.22 164.908C770.848 164.44 770.32 164.206 769.636 164.206C769.324 164.206 769.024 164.266 768.736 164.386C768.46 164.506 768.208 164.686 767.98 164.926C767.752 165.154 767.56 165.436 767.404 165.772C767.26 166.108 767.164 166.492 767.116 166.924ZM778.241 172.216C777.137 172.216 776.255 171.82 775.595 171.028C774.947 170.236 774.623 169.108 774.623 167.644C774.623 166.936 774.725 166.3 774.929 165.736C775.145 165.16 775.427 164.674 775.775 164.278C776.123 163.882 776.525 163.576 776.981 163.36C777.437 163.144 777.917 163.036 778.421 163.036C778.925 163.036 779.363 163.126 779.735 163.306C780.107 163.486 780.485 163.732 780.869 164.044L780.797 162.55V159.184H782.291V172H781.067L780.941 170.974H780.887C780.539 171.31 780.137 171.604 779.681 171.856C779.237 172.096 778.757 172.216 778.241 172.216ZM778.565 170.974C778.973 170.974 779.357 170.878 779.717 170.686C780.077 170.482 780.437 170.176 780.797 169.768V165.196C780.425 164.86 780.065 164.626 779.717 164.494C779.381 164.35 779.033 164.278 778.673 164.278C778.325 164.278 777.995 164.362 777.683 164.53C777.383 164.686 777.119 164.914 776.891 165.214C776.663 165.502 776.483 165.85 776.351 166.258C776.219 166.666 776.153 167.122 776.153 167.626C776.153 168.682 776.363 169.504 776.783 170.092C777.203 170.68 777.797 170.974 778.565 170.974ZM791.595 172.216C791.127 172.216 790.731 172.144 790.407 172C790.095 171.856 789.837 171.658 789.633 171.406C789.441 171.154 789.303 170.848 789.219 170.488C789.135 170.128 789.093 169.732 789.093 169.3V164.458H787.797V163.342L789.165 163.252L789.345 160.804H790.587V163.252H792.945V164.458H790.587V169.318C790.587 169.858 790.683 170.278 790.875 170.578C791.079 170.866 791.433 171.01 791.937 171.01C792.093 171.01 792.261 170.986 792.441 170.938C792.621 170.89 792.783 170.836 792.927 170.776L793.215 171.892C792.975 171.976 792.711 172.048 792.423 172.108C792.147 172.18 791.871 172.216 791.595 172.216ZM798.079 172.216C797.539 172.216 797.023 172.114 796.531 171.91C796.051 171.706 795.625 171.412 795.253 171.028C794.881 170.632 794.581 170.152 794.353 169.588C794.137 169.012 794.029 168.364 794.029 167.644C794.029 166.912 794.137 166.264 794.353 165.7C794.581 165.124 794.881 164.638 795.253 164.242C795.625 163.846 796.051 163.546 796.531 163.342C797.023 163.138 797.539 163.036 798.079 163.036C798.619 163.036 799.129 163.138 799.609 163.342C800.101 163.546 800.533 163.846 800.905 164.242C801.277 164.638 801.571 165.124 801.787 165.7C802.015 166.264 802.129 166.912 802.129 167.644C802.129 168.364 802.015 169.012 801.787 169.588C801.571 170.152 801.277 170.632 800.905 171.028C800.533 171.412 800.101 171.706 799.609 171.91C799.129 172.114 798.619 172.216 798.079 172.216ZM798.079 170.992C798.451 170.992 798.793 170.914 799.105 170.758C799.417 170.59 799.681 170.362 799.897 170.074C800.125 169.774 800.299 169.42 800.419 169.012C800.539 168.604 800.599 168.148 800.599 167.644C800.599 167.14 800.539 166.684 800.419 166.276C800.299 165.856 800.125 165.496 799.897 165.196C799.681 164.896 799.417 164.668 799.105 164.512C798.793 164.344 798.451 164.26 798.079 164.26C797.707 164.26 797.365 164.344 797.053 164.512C796.741 164.668 796.471 164.896 796.243 165.196C796.027 165.496 795.859 165.856 795.739 166.276C795.619 166.684 795.559 167.14 795.559 167.644C795.559 168.148 795.619 168.604 795.739 169.012C795.859 169.42 796.027 169.774 796.243 170.074C796.471 170.362 796.741 170.59 797.053 170.758C797.365 170.914 797.707 170.992 798.079 170.992ZM810.323 172.216C809.699 172.216 809.105 172.102 808.541 171.874C807.977 171.646 807.485 171.358 807.065 171.01L807.803 170.02C808.187 170.332 808.577 170.584 808.973 170.776C809.381 170.968 809.849 171.064 810.377 171.064C810.953 171.064 811.385 170.932 811.673 170.668C811.961 170.404 812.105 170.08 812.105 169.696C812.105 169.468 812.045 169.27 811.925 169.102C811.805 168.934 811.649 168.79 811.457 168.67C811.277 168.538 811.067 168.424 810.827 168.328C810.587 168.232 810.347 168.136 810.107 168.04C809.795 167.932 809.483 167.812 809.171 167.68C808.859 167.536 808.577 167.368 808.325 167.176C808.085 166.972 807.887 166.738 807.731 166.474C807.575 166.21 807.497 165.892 807.497 165.52C807.497 165.172 807.563 164.848 807.695 164.548C807.839 164.236 808.037 163.972 808.289 163.756C808.553 163.528 808.871 163.354 809.243 163.234C809.615 163.102 810.035 163.036 810.503 163.036C811.055 163.036 811.559 163.132 812.015 163.324C812.483 163.516 812.885 163.75 813.221 164.026L812.519 164.962C812.219 164.734 811.907 164.548 811.583 164.404C811.259 164.26 810.905 164.188 810.521 164.188C809.969 164.188 809.561 164.314 809.297 164.566C809.045 164.818 808.919 165.112 808.919 165.448C808.919 165.652 808.973 165.832 809.081 165.988C809.189 166.132 809.333 166.264 809.513 166.384C809.693 166.492 809.897 166.594 810.125 166.69C810.365 166.774 810.611 166.864 810.863 166.96C811.175 167.08 811.487 167.206 811.799 167.338C812.123 167.47 812.411 167.638 812.663 167.842C812.915 168.034 813.119 168.274 813.275 168.562C813.443 168.85 813.527 169.198 813.527 169.606C813.527 169.966 813.455 170.302 813.311 170.614C813.179 170.926 812.975 171.202 812.699 171.442C812.435 171.682 812.099 171.868 811.691 172C811.295 172.144 810.839 172.216 810.323 172.216ZM817.98 172.216C817.512 172.216 817.116 172.144 816.792 172C816.48 171.856 816.222 171.658 816.018 171.406C815.826 171.154 815.688 170.848 815.604 170.488C815.52 170.128 815.478 169.732 815.478 169.3V164.458H814.182V163.342L815.55 163.252L815.73 160.804H816.972V163.252H819.33V164.458H816.972V169.318C816.972 169.858 817.068 170.278 817.26 170.578C817.464 170.866 817.818 171.01 818.322 171.01C818.478 171.01 818.646 170.986 818.826 170.938C819.006 170.89 819.168 170.836 819.312 170.776L819.6 171.892C819.36 171.976 819.096 172.048 818.808 172.108C818.532 172.18 818.256 172.216 817.98 172.216ZM822.937 172.216C822.205 172.216 821.593 172 821.101 171.568C820.621 171.136 820.381 170.524 820.381 169.732C820.381 168.772 820.807 168.04 821.659 167.536C822.511 167.02 823.873 166.66 825.745 166.456C825.745 166.18 825.715 165.91 825.655 165.646C825.607 165.382 825.517 165.148 825.385 164.944C825.253 164.74 825.067 164.578 824.827 164.458C824.599 164.326 824.305 164.26 823.945 164.26C823.441 164.26 822.967 164.356 822.523 164.548C822.079 164.74 821.683 164.956 821.335 165.196L820.759 164.17C821.167 163.906 821.665 163.654 822.253 163.414C822.841 163.162 823.489 163.036 824.197 163.036C825.265 163.036 826.039 163.366 826.519 164.026C826.999 164.674 827.239 165.544 827.239 166.636V172H826.015L825.889 170.956H825.835C825.415 171.304 824.965 171.604 824.485 171.856C824.005 172.096 823.489 172.216 822.937 172.216ZM823.369 171.028C823.789 171.028 824.185 170.932 824.557 170.74C824.929 170.536 825.325 170.242 825.745 169.858V167.428C825.013 167.524 824.395 167.638 823.891 167.77C823.399 167.902 822.997 168.058 822.685 168.238C822.385 168.418 822.163 168.628 822.019 168.868C821.887 169.096 821.821 169.348 821.821 169.624C821.821 170.128 821.971 170.488 822.271 170.704C822.571 170.92 822.937 171.028 823.369 171.028ZM835.374 172V164.458H831.72V172H830.244V164.458H829.056V163.342L830.244 163.252V162.1C830.244 161.188 830.466 160.468 830.91 159.94C831.366 159.412 832.05 159.148 832.962 159.148C833.25 159.148 833.532 159.178 833.808 159.238C834.096 159.298 834.348 159.376 834.564 159.472L834.258 160.588C833.898 160.432 833.508 160.354 833.088 160.354C832.656 160.354 832.32 160.51 832.08 160.822C831.84 161.122 831.72 161.56 831.72 162.136V163.252H835.374V161.866C835.374 160.966 835.578 160.258 835.986 159.742C836.406 159.226 837.054 158.968 837.93 158.968C838.206 158.968 838.464 158.998 838.704 159.058C838.956 159.106 839.184 159.172 839.388 159.256L839.064 160.39C838.74 160.246 838.41 160.174 838.074 160.174C837.258 160.174 836.85 160.738 836.85 161.866V163.252H838.704V164.458H836.85V172H835.374Z" fill="#C7C7C7"/>
<path d="M361.042 45.194L361.618 43.394C362.032 42.08 362.41 40.784 362.788 39.416H362.86C363.238 40.784 363.616 42.08 364.03 43.394L364.588 45.194H361.042ZM366.1 50H367.684L363.688 38.192H361.996L358 50H359.53L360.664 46.4H364.966L366.1 50ZM370.602 49.208C371.412 49.838 372.222 50.216 373.032 50.216C375.03 50.216 376.812 48.47 376.812 45.5C376.812 42.782 375.606 41.036 373.356 41.036C372.33 41.036 371.358 41.594 370.566 42.26H370.512L370.386 41.252H369.162V53.69H370.638V50.738L370.602 49.208ZM370.638 48.056V43.466C371.502 42.692 372.24 42.278 372.978 42.278C374.634 42.278 375.282 43.574 375.282 45.5C375.282 47.66 374.22 48.974 372.78 48.974C372.204 48.974 371.43 48.722 370.638 48.056ZM380.586 49.208C381.396 49.838 382.206 50.216 383.016 50.216C385.014 50.216 386.796 48.47 386.796 45.5C386.796 42.782 385.59 41.036 383.34 41.036C382.314 41.036 381.342 41.594 380.55 42.26H380.496L380.37 41.252H379.146V53.69H380.622V50.738L380.586 49.208ZM380.622 48.056V43.466C381.486 42.692 382.224 42.278 382.962 42.278C384.618 42.278 385.266 43.574 385.266 45.5C385.266 47.66 384.204 48.974 382.764 48.974C382.188 48.974 381.414 48.722 380.622 48.056ZM389.13 48.236C389.13 49.514 389.58 50.216 390.696 50.216C391.092 50.216 391.344 50.162 391.542 50.072L391.344 48.956C391.182 48.992 391.11 48.992 391.02 48.992C390.804 48.992 390.606 48.812 390.606 48.344V37.184H389.13V48.236ZM394.474 39.452C395.05 39.452 395.5 39.056 395.5 38.498C395.5 37.922 395.05 37.544 394.474 37.544C393.898 37.544 393.448 37.922 393.448 38.498C393.448 39.056 393.898 39.452 394.474 39.452ZM393.718 50H395.194V41.252H393.718V50ZM397.5 45.644C397.5 48.542 399.282 50.216 401.604 50.216C402.648 50.216 403.656 49.784 404.448 49.082L403.782 48.11C403.26 48.578 402.558 48.992 401.73 48.992C400.128 48.992 399.03 47.642 399.03 45.644C399.03 43.628 400.182 42.26 401.766 42.26C402.468 42.26 403.008 42.584 403.53 43.034L404.268 42.08C403.674 41.522 402.864 41.036 401.712 41.036C399.462 41.036 397.5 42.71 397.5 45.644ZM405.749 47.732C405.749 49.298 406.847 50.216 408.323 50.216C409.403 50.216 410.375 49.64 411.221 48.956H411.257L411.383 50H412.607V44.636C412.607 42.458 411.707 41.036 409.565 41.036C408.161 41.036 406.937 41.648 406.127 42.17L406.721 43.196C407.405 42.728 408.305 42.26 409.331 42.26C410.753 42.26 411.131 43.34 411.131 44.456C407.405 44.87 405.749 45.824 405.749 47.732ZM407.207 47.624C407.207 46.508 408.197 45.788 411.131 45.428V47.858C410.285 48.614 409.583 49.028 408.737 49.028C407.873 49.028 407.207 48.614 407.207 47.624ZM415.392 50H416.868V43.664C417.75 42.782 418.362 42.314 419.262 42.314C420.414 42.314 420.918 43.016 420.918 44.654V50H422.394V44.456C422.394 42.224 421.566 41.036 419.73 41.036C418.524 41.036 417.624 41.684 416.796 42.512H416.742L416.616 41.252H415.392V50ZM425.488 47.3C425.488 49.028 426.118 50.216 427.99 50.216C428.53 50.216 429.124 50.054 429.61 49.892L429.322 48.776C429.034 48.884 428.638 49.01 428.332 49.01C427.324 49.01 426.982 48.398 426.982 47.318V42.458H429.34V41.252H426.982V38.804H425.74L425.56 41.252L424.192 41.342V42.458H425.488V47.3ZM430.346 49.01C431.174 49.694 432.362 50.216 433.604 50.216C435.674 50.216 436.808 49.028 436.808 47.606C436.808 45.95 435.404 45.428 434.144 44.96C433.154 44.582 432.2 44.258 432.2 43.448C432.2 42.782 432.704 42.188 433.802 42.188C434.576 42.188 435.206 42.512 435.8 42.962L436.502 42.026C435.836 41.486 434.882 41.036 433.784 41.036C431.894 41.036 430.778 42.116 430.778 43.52C430.778 44.996 432.146 45.59 433.388 46.04C434.342 46.4 435.386 46.796 435.386 47.696C435.386 48.452 434.81 49.064 433.658 49.064C432.614 49.064 431.84 48.632 431.084 48.02L430.346 49.01ZM443.937 49.208C444.747 49.838 445.557 50.216 446.367 50.216C448.365 50.216 450.147 48.47 450.147 45.5C450.147 42.782 448.941 41.036 446.691 41.036C445.665 41.036 444.693 41.594 443.901 42.26H443.847L443.721 41.252H442.497V53.69H443.973V50.738L443.937 49.208ZM443.973 48.056V43.466C444.837 42.692 445.575 42.278 446.313 42.278C447.969 42.278 448.617 43.574 448.617 45.5C448.617 47.66 447.555 48.974 446.115 48.974C445.539 48.974 444.765 48.722 443.973 48.056ZM451.804 47.732C451.804 49.298 452.902 50.216 454.378 50.216C455.458 50.216 456.43 49.64 457.276 48.956H457.312L457.438 50H458.662V44.636C458.662 42.458 457.762 41.036 455.62 41.036C454.216 41.036 452.992 41.648 452.182 42.17L452.776 43.196C453.46 42.728 454.36 42.26 455.386 42.26C456.808 42.26 457.186 43.34 457.186 44.456C453.46 44.87 451.804 45.824 451.804 47.732ZM453.262 47.624C453.262 46.508 454.252 45.788 457.186 45.428V47.858C456.34 48.614 455.638 49.028 454.792 49.028C453.928 49.028 453.262 48.614 453.262 47.624ZM460.475 49.01C461.303 49.694 462.491 50.216 463.733 50.216C465.803 50.216 466.937 49.028 466.937 47.606C466.937 45.95 465.533 45.428 464.273 44.96C463.283 44.582 462.329 44.258 462.329 43.448C462.329 42.782 462.833 42.188 463.931 42.188C464.705 42.188 465.335 42.512 465.929 42.962L466.631 42.026C465.965 41.486 465.011 41.036 463.913 41.036C462.023 41.036 460.907 42.116 460.907 43.52C460.907 44.996 462.275 45.59 463.517 46.04C464.471 46.4 465.515 46.796 465.515 47.696C465.515 48.452 464.939 49.064 463.787 49.064C462.743 49.064 461.969 48.632 461.213 48.02L460.475 49.01ZM468.016 49.01C468.844 49.694 470.032 50.216 471.274 50.216C473.344 50.216 474.478 49.028 474.478 47.606C474.478 45.95 473.074 45.428 471.814 44.96C470.824 44.582 469.87 44.258 469.87 43.448C469.87 42.782 470.374 42.188 471.472 42.188C472.246 42.188 472.876 42.512 473.47 42.962L474.172 42.026C473.506 41.486 472.552 41.036 471.454 41.036C469.564 41.036 468.448 42.116 468.448 43.52C468.448 44.996 469.816 45.59 471.058 46.04C472.012 46.4 473.056 46.796 473.056 47.696C473.056 48.452 472.48 49.064 471.328 49.064C470.284 49.064 469.51 48.632 468.754 48.02L468.016 49.01ZM475.881 45.644C475.881 48.506 477.735 50.216 480.075 50.216C481.263 50.216 482.199 49.802 482.955 49.316L482.433 48.344C481.785 48.758 481.083 49.028 480.255 49.028C478.581 49.028 477.447 47.84 477.339 45.95H483.243C483.279 45.734 483.297 45.446 483.297 45.14C483.297 42.638 482.037 41.036 479.805 41.036C477.807 41.036 475.881 42.782 475.881 45.644ZM477.321 44.978C477.501 43.214 478.617 42.206 479.841 42.206C481.209 42.206 482.001 43.196 482.001 44.978H477.321ZM484.828 45.644C484.828 48.56 486.25 50.216 488.446 50.216C489.472 50.216 490.408 49.64 491.092 48.974H491.146L491.272 50H492.496V37.184H491.002V40.55L491.074 42.044C490.3 41.414 489.634 41.036 488.626 41.036C486.628 41.036 484.828 42.8 484.828 45.644ZM486.358 45.626C486.358 43.628 487.474 42.278 488.878 42.278C489.598 42.278 490.264 42.53 491.002 43.196V47.768C490.282 48.578 489.58 48.974 488.77 48.974C487.24 48.974 486.358 47.714 486.358 45.626Z" fill="#C7C7C7"/>
<path d="M107.136 52.2196C106.954 51.5411 106.519 50.9736 105.91 50.6223L103.697 49.3446C103.089 48.9933 102.38 48.8999 101.701 49.082C101.022 49.2635 100.455 49.6988 100.103 50.3074L98.7827 52.5944C98.2222 52.3312 97.593 52.2731 96.9874 52.4352C96.3089 52.6173 95.7414 53.0527 95.3901 53.6613L95.3066 53.8052V44.0615C95.3066 40.9515 92.777 38.4219 89.667 38.4219H81.4407C81.2569 37.1488 80.1618 36.166 78.8389 36.166H75.0039V33.3838C75.0039 31.518 73.4859 30 71.6201 30H63.3486C61.4828 30 59.9648 31.518 59.9648 33.3838V36.166H56.1299C54.8069 36.166 53.7113 37.1488 53.528 38.4219H45.3018C42.1917 38.4219 39.6621 40.9515 39.6621 44.0615V101.36C39.6621 104.47 42.1917 107 45.3018 107H80.5002C81.1229 107 81.6281 106.495 81.6281 105.872C81.6281 105.249 81.1229 104.744 80.5002 104.744H45.3018C43.436 104.744 41.918 103.226 41.918 101.36V44.0615C41.918 42.1957 43.436 40.6777 45.3018 40.6777H53.498V46.167C53.498 47.618 54.6788 48.7988 56.1299 48.7988H78.8389C80.2899 48.7988 81.4707 47.618 81.4707 46.167V45.1143H88.6143V65.397L77.137 85.2762C76.7222 85.9941 76.5342 86.8106 76.5936 87.6378L77.0965 94.6838C77.1405 95.3001 77.4848 95.8552 78.017 96.1689C78.3107 96.3417 78.6403 96.4292 78.9716 96.4292C79.2407 96.4292 79.5103 96.371 79.7618 96.2547L86.2462 93.2475C87.0228 92.8874 87.6596 92.3052 88.0873 91.5644L88.6143 90.6521V100.308H46.3545V45.1143H49.3623C49.985 45.1143 50.4902 44.6096 50.4902 43.9863C50.4902 43.363 49.985 42.8584 49.3623 42.8584H45.9785C44.9416 42.8584 44.0986 43.7014 44.0986 44.7383V100.684C44.0986 101.72 44.9416 102.563 45.9785 102.563H88.9902C90.0265 102.563 90.8701 101.72 90.8701 100.684V86.7443L93.0508 82.9675V101.36C93.0508 103.226 91.5328 104.744 89.667 104.744H85.7633C85.1406 104.744 84.6354 105.249 84.6354 105.872C84.6354 106.495 85.1406 107 85.7633 107H89.667C92.7764 107 95.3066 104.47 95.3066 101.36V79.0602L104.822 62.5784L106.326 59.9747C106.677 59.3661 106.77 58.6571 106.588 57.9785C106.426 57.3729 106.061 56.8577 105.553 56.5034L106.873 54.2164C107.225 53.6078 107.318 52.8987 107.136 52.2196ZM102.057 51.4354C102.16 51.2562 102.39 51.1945 102.569 51.2979L104.782 52.5756C104.899 52.6432 104.942 52.7478 104.957 52.8036C104.972 52.86 104.987 52.971 104.92 53.0885L103.605 55.3661L100.742 53.7135L102.057 51.4354ZM97.3434 54.7892C97.4109 54.6723 97.5155 54.6294 97.5713 54.6147C97.6277 54.5989 97.7387 54.5842 97.8556 54.6517L104.234 58.3345C104.352 58.4021 104.395 58.5061 104.409 58.5625C104.425 58.6183 104.439 58.7299 104.372 58.8468L103.432 60.4735L96.4046 56.4159L97.3434 54.7892ZM62.2207 33.3838C62.2207 32.7617 62.7265 32.2559 63.3486 32.2559H71.6201C72.2422 32.2559 72.748 32.7617 72.748 33.3838V36.166H62.2207V33.3838ZM79.2148 46.167C79.2148 46.3744 79.0462 46.543 78.8389 46.543H56.1299C55.9225 46.543 55.7539 46.3744 55.7539 46.167V38.7979C55.7539 38.5905 55.9225 38.4219 56.1299 38.4219H78.8389C79.0462 38.4219 79.2148 38.5905 79.2148 38.7979V46.167ZM88.9902 42.8584H81.4707V40.6777H89.667C91.5328 40.6777 93.0508 42.1957 93.0508 44.0615V57.713L90.8701 61.4898V44.7383C90.8701 43.7014 90.0271 42.8584 88.9902 42.8584ZM95.2767 58.3698L102.305 62.4274L88.4768 86.3783L81.4484 82.3207L95.2767 58.3698ZM86.134 90.4365C85.9395 90.7731 85.6499 91.0374 85.2974 91.2008V91.2013L79.3077 93.9789L78.8436 87.4774C78.8165 87.1014 78.9023 86.7308 79.0909 86.4047L80.3204 84.274L87.3489 88.3316L86.134 90.4365Z" fill="#C7C7C7"/>
<path d="M51.3126 92.9293C51.527 93.1202 51.7949 93.2136 52.061 93.2136C52.3724 93.2136 52.682 93.0855 52.9046 92.8347L55.1411 90.3168L56.8723 92.3818C57.2195 92.7965 57.7288 93.0409 58.2693 93.0538C58.8104 93.0632 59.3297 92.8459 59.6957 92.4482L61.7776 90.1876L64.0852 92.7995C64.4982 93.2665 65.2108 93.3105 65.6772 92.8981C66.1443 92.4857 66.1883 91.7732 65.7759 91.3061L63.1923 88.3817C62.8404 87.9834 62.334 87.752 61.8029 87.7467C61.7964 87.7461 61.79 87.7461 61.7835 87.7461C61.2589 87.7461 60.756 87.9664 60.4006 88.3524L58.3263 90.6047L56.5898 88.5339C56.2385 88.115 55.7232 87.87 55.1757 87.8618C54.6282 87.8495 54.1071 88.0845 53.7441 88.4933L51.2186 91.3367C50.8044 91.8025 50.8467 92.5157 51.3126 92.9293Z" fill="#C7C7C7"/>
<path d="M84.5918 54.8896C84.5918 54.2663 84.0866 53.7617 83.4639 53.7617H51.4307C50.808 53.7617 50.3027 54.2663 50.3027 54.8896C50.3027 55.5129 50.808 56.0176 51.4307 56.0176H83.4639C84.0866 56.0176 84.5918 55.5129 84.5918 54.8896Z" fill="#C7C7C7"/>
<path d="M51.5811 62.0332H64.9658C65.5885 62.0332 66.0938 61.5286 66.0938 60.9053C66.0938 60.282 65.5885 59.7773 64.9658 59.7773H51.5811C50.9583 59.7773 50.4531 60.282 50.4531 60.9053C50.4531 61.5286 50.9583 62.0332 51.5811 62.0332Z" fill="#C7C7C7"/>
<path d="M76.6211 60.9053C76.6211 60.282 76.1159 59.7773 75.4932 59.7773H70.2295C69.6068 59.7773 69.1016 60.282 69.1016 60.9053C69.1016 61.5286 69.6068 62.0332 70.2295 62.0332H75.4932C76.1159 62.0332 76.6211 61.5286 76.6211 60.9053Z" fill="#C7C7C7"/>
<path d="M51.5811 68.0488H62.4092C63.0319 68.0488 63.5371 67.5442 63.5371 66.9209C63.5371 66.2976 63.0319 65.793 62.4092 65.793H51.5811C50.9583 65.793 50.4531 66.2976 50.4531 66.9209C50.4531 67.5442 50.9583 68.0488 51.5811 68.0488Z" fill="#C7C7C7"/>
<path d="M72.335 65.793H67.2217C66.599 65.793 66.0938 66.2976 66.0938 66.9209C66.0938 67.5442 66.599 68.0488 67.2217 68.0488H72.335C72.9577 68.0488 73.4629 67.5442 73.4629 66.9209C73.4629 66.2976 72.9577 65.793 72.335 65.793Z" fill="#C7C7C7"/>
<path d="M51.5811 74.0645H59.4014C60.0241 74.0645 60.5293 73.5598 60.5293 72.9365C60.5293 72.3132 60.0241 71.8086 59.4014 71.8086H51.5811C50.9583 71.8086 50.4531 72.3132 50.4531 72.9365C50.4531 73.5598 50.9583 74.0645 51.5811 74.0645Z" fill="#7568F6"/>
<path d="M73.4629 72.9365C73.4629 72.3132 72.9577 71.8086 72.335 71.8086H64.2139C63.5912 71.8086 63.0859 72.3132 63.0859 72.9365C63.0859 73.5598 63.5912 74.0645 64.2139 74.0645H72.335C72.9577 74.0645 73.4629 73.5598 73.4629 72.9365Z" fill="#7568F6"/>
<path d="M51.5811 80.0801H59.4014C60.0241 80.0801 60.5293 79.5754 60.5293 78.9521C60.5293 78.3288 60.0241 77.8242 59.4014 77.8242H51.5811C50.9583 77.8242 50.4531 78.3288 50.4531 78.9521C50.4531 79.5754 50.9583 80.0801 51.5811 80.0801Z" fill="#7568F6"/>
<circle cx="69" cy="69" r="67.5" stroke="#C4C4C4" stroke-width="3"/>
<path d="M15.12 172V160.192H21.924V161.452H16.614V165.448H21.114V166.708H16.614V172H15.12ZM23.8705 172V163.252H25.3465V172H23.8705ZM24.6265 161.452C24.3385 161.452 24.0925 161.362 23.8885 161.182C23.6965 161.002 23.6005 160.774 23.6005 160.498C23.6005 160.21 23.6965 159.982 23.8885 159.814C24.0925 159.634 24.3385 159.544 24.6265 159.544C24.9145 159.544 25.1545 159.634 25.3465 159.814C25.5505 159.982 25.6525 160.21 25.6525 160.498C25.6525 160.774 25.5505 161.002 25.3465 161.182C25.1545 161.362 24.9145 161.452 24.6265 161.452ZM29.8662 172.216C29.3022 172.216 28.9002 172.048 28.6602 171.712C28.4202 171.376 28.3002 170.884 28.3002 170.236V159.184H29.7762V170.344C29.7762 170.584 29.8182 170.752 29.9022 170.848C29.9862 170.944 30.0822 170.992 30.1902 170.992C30.2382 170.992 30.2802 170.992 30.3162 170.992C30.3642 170.992 30.4302 170.98 30.5142 170.956L30.7122 172.072C30.6162 172.12 30.5022 172.156 30.3702 172.18C30.2382 172.204 30.0702 172.216 29.8662 172.216ZM34.4541 172.216C33.8901 172.216 33.4881 172.048 33.2481 171.712C33.0081 171.376 32.8881 170.884 32.8881 170.236V159.184H34.3641V170.344C34.3641 170.584 34.4061 170.752 34.4901 170.848C34.5741 170.944 34.6701 170.992 34.7781 170.992C34.8261 170.992 34.8681 170.992 34.9041 170.992C34.9521 170.992 35.0181 170.98 35.1021 170.956L35.3001 172.072C35.2041 172.12 35.0901 172.156 34.9581 172.18C34.8261 172.204 34.6581 172.216 34.4541 172.216ZM44.4815 172.216C43.9415 172.216 43.4255 172.114 42.9335 171.91C42.4535 171.706 42.0275 171.412 41.6555 171.028C41.2835 170.632 40.9835 170.152 40.7555 169.588C40.5395 169.012 40.4315 168.364 40.4315 167.644C40.4315 166.912 40.5395 166.264 40.7555 165.7C40.9835 165.124 41.2835 164.638 41.6555 164.242C42.0275 163.846 42.4535 163.546 42.9335 163.342C43.4255 163.138 43.9415 163.036 44.4815 163.036C45.0215 163.036 45.5315 163.138 46.0115 163.342C46.5035 163.546 46.9355 163.846 47.3075 164.242C47.6795 164.638 47.9735 165.124 48.1895 165.7C48.4175 166.264 48.5315 166.912 48.5315 167.644C48.5315 168.364 48.4175 169.012 48.1895 169.588C47.9735 170.152 47.6795 170.632 47.3075 171.028C46.9355 171.412 46.5035 171.706 46.0115 171.91C45.5315 172.114 45.0215 172.216 44.4815 172.216ZM44.4815 170.992C44.8535 170.992 45.1955 170.914 45.5075 170.758C45.8195 170.59 46.0835 170.362 46.2995 170.074C46.5275 169.774 46.7015 169.42 46.8215 169.012C46.9415 168.604 47.0015 168.148 47.0015 167.644C47.0015 167.14 46.9415 166.684 46.8215 166.276C46.7015 165.856 46.5275 165.496 46.2995 165.196C46.0835 164.896 45.8195 164.668 45.5075 164.512C45.1955 164.344 44.8535 164.26 44.4815 164.26C44.1095 164.26 43.7675 164.344 43.4555 164.512C43.1435 164.668 42.8735 164.896 42.6455 165.196C42.4295 165.496 42.2615 165.856 42.1415 166.276C42.0215 166.684 41.9615 167.14 41.9615 167.644C41.9615 168.148 42.0215 168.604 42.1415 169.012C42.2615 169.42 42.4295 169.774 42.6455 170.074C42.8735 170.362 43.1435 170.59 43.4555 170.758C43.7675 170.914 44.1095 170.992 44.4815 170.992ZM53.3914 172.216C52.4554 172.216 51.7714 171.928 51.3394 171.352C50.9194 170.776 50.7094 169.924 50.7094 168.796V163.252H52.2034V168.598C52.2034 169.426 52.3294 170.026 52.5814 170.398C52.8454 170.758 53.2654 170.938 53.8414 170.938C54.2974 170.938 54.6994 170.824 55.0474 170.596C55.3954 170.356 55.7794 169.978 56.1994 169.462V163.252H57.6754V172H56.4514L56.3254 170.632H56.2714C55.8634 171.112 55.4314 171.496 54.9754 171.784C54.5314 172.072 54.0034 172.216 53.3914 172.216ZM63.3804 172.216C62.9124 172.216 62.5164 172.144 62.1924 172C61.8804 171.856 61.6224 171.658 61.4184 171.406C61.2264 171.154 61.0884 170.848 61.0044 170.488C60.9204 170.128 60.8784 169.732 60.8784 169.3V164.458H59.5824V163.342L60.9504 163.252L61.1304 160.804H62.3724V163.252H64.7304V164.458H62.3724V169.318C62.3724 169.858 62.4684 170.278 62.6604 170.578C62.8644 170.866 63.2184 171.01 63.7224 171.01C63.8784 171.01 64.0464 170.986 64.2264 170.938C64.4064 170.89 64.5684 170.836 64.7124 170.776L65.0004 171.892C64.7604 171.976 64.4964 172.048 64.2084 172.108C63.9324 172.18 63.6564 172.216 63.3804 172.216ZM73.0659 172.216C72.5979 172.216 72.2019 172.144 71.8779 172C71.5659 171.856 71.3079 171.658 71.1039 171.406C70.9119 171.154 70.7739 170.848 70.6899 170.488C70.6059 170.128 70.5639 169.732 70.5639 169.3V164.458H69.2679V163.342L70.6359 163.252L70.8159 160.804H72.0579V163.252H74.4159V164.458H72.0579V169.318C72.0579 169.858 72.1539 170.278 72.3459 170.578C72.5499 170.866 72.9039 171.01 73.4079 171.01C73.5639 171.01 73.7319 170.986 73.9119 170.938C74.0919 170.89 74.2539 170.836 74.3979 170.776L74.6859 171.892C74.4459 171.976 74.1819 172.048 73.8939 172.108C73.6179 172.18 73.3419 172.216 73.0659 172.216ZM76.394 172V159.184H77.87V162.676L77.816 164.476C78.236 164.08 78.674 163.744 79.13 163.468C79.586 163.18 80.12 163.036 80.732 163.036C81.656 163.036 82.328 163.324 82.748 163.9C83.18 164.476 83.396 165.328 83.396 166.456V172H81.92V166.654C81.92 165.826 81.788 165.232 81.524 164.872C81.26 164.5 80.84 164.314 80.264 164.314C79.808 164.314 79.406 164.428 79.058 164.656C78.71 164.884 78.314 165.22 77.87 165.664V172H76.394ZM89.731 172.216C89.143 172.216 88.591 172.114 88.075 171.91C87.571 171.694 87.127 171.394 86.743 171.01C86.371 170.614 86.077 170.134 85.861 169.57C85.645 169.006 85.537 168.364 85.537 167.644C85.537 166.924 85.645 166.282 85.861 165.718C86.089 165.142 86.383 164.656 86.743 164.26C87.115 163.864 87.535 163.564 88.003 163.36C88.471 163.144 88.957 163.036 89.461 163.036C90.013 163.036 90.505 163.132 90.937 163.324C91.381 163.516 91.747 163.792 92.035 164.152C92.335 164.512 92.563 164.944 92.719 165.448C92.875 165.952 92.953 166.516 92.953 167.14C92.953 167.296 92.947 167.452 92.935 167.608C92.935 167.752 92.923 167.878 92.899 167.986H86.995C87.055 168.922 87.343 169.666 87.859 170.218C88.387 170.758 89.071 171.028 89.911 171.028C90.331 171.028 90.715 170.968 91.063 170.848C91.423 170.716 91.765 170.548 92.089 170.344L92.611 171.316C92.227 171.556 91.801 171.766 91.333 171.946C90.865 172.126 90.331 172.216 89.731 172.216ZM86.977 166.924H91.657C91.657 166.036 91.465 165.364 91.081 164.908C90.709 164.44 90.181 164.206 89.497 164.206C89.185 164.206 88.885 164.266 88.597 164.386C88.321 164.506 88.069 164.686 87.841 164.926C87.613 165.154 87.421 165.436 87.265 165.772C87.121 166.108 87.025 166.492 86.977 166.924ZM98.9702 172V164.458H97.7822V163.342L98.9702 163.252V161.866C98.9702 160.966 99.1742 160.258 99.5822 159.742C100.002 159.226 100.65 158.968 101.526 158.968C101.802 158.968 102.06 158.998 102.3 159.058C102.552 159.106 102.78 159.172 102.984 159.256L102.66 160.39C102.336 160.246 102.006 160.174 101.67 160.174C100.854 160.174 100.446 160.738 100.446 161.866V163.252H102.3V164.458H100.446V172H98.9702ZM107.2 172.216C106.66 172.216 106.144 172.114 105.652 171.91C105.172 171.706 104.746 171.412 104.374 171.028C104.002 170.632 103.702 170.152 103.474 169.588C103.258 169.012 103.15 168.364 103.15 167.644C103.15 166.912 103.258 166.264 103.474 165.7C103.702 165.124 104.002 164.638 104.374 164.242C104.746 163.846 105.172 163.546 105.652 163.342C106.144 163.138 106.66 163.036 107.2 163.036C107.74 163.036 108.25 163.138 108.73 163.342C109.222 163.546 109.654 163.846 110.026 164.242C110.398 164.638 110.692 165.124 110.908 165.7C111.136 166.264 111.25 166.912 111.25 167.644C111.25 168.364 111.136 169.012 110.908 169.588C110.692 170.152 110.398 170.632 110.026 171.028C109.654 171.412 109.222 171.706 108.73 171.91C108.25 172.114 107.74 172.216 107.2 172.216ZM107.2 170.992C107.572 170.992 107.914 170.914 108.226 170.758C108.538 170.59 108.802 170.362 109.018 170.074C109.246 169.774 109.42 169.42 109.54 169.012C109.66 168.604 109.72 168.148 109.72 167.644C109.72 167.14 109.66 166.684 109.54 166.276C109.42 165.856 109.246 165.496 109.018 165.196C108.802 164.896 108.538 164.668 108.226 164.512C107.914 164.344 107.572 164.26 107.2 164.26C106.828 164.26 106.486 164.344 106.174 164.512C105.862 164.668 105.592 164.896 105.364 165.196C105.148 165.496 104.98 165.856 104.86 166.276C104.74 166.684 104.68 167.14 104.68 167.644C104.68 168.148 104.74 168.604 104.86 169.012C104.98 169.42 105.148 169.774 105.364 170.074C105.592 170.362 105.862 170.59 106.174 170.758C106.486 170.914 106.828 170.992 107.2 170.992ZM113.554 172V163.252H114.778L114.904 164.836H114.958C115.258 164.284 115.618 163.846 116.038 163.522C116.47 163.198 116.938 163.036 117.442 163.036C117.79 163.036 118.102 163.096 118.378 163.216L118.09 164.512C117.946 164.464 117.814 164.428 117.694 164.404C117.574 164.38 117.424 164.368 117.244 164.368C116.872 164.368 116.482 164.518 116.074 164.818C115.678 165.118 115.33 165.64 115.03 166.384V172H113.554ZM119.794 172V163.252H121.018L121.144 164.512H121.198C121.582 164.092 121.996 163.744 122.44 163.468C122.896 163.18 123.388 163.036 123.916 163.036C124.588 163.036 125.11 163.186 125.482 163.486C125.866 163.774 126.148 164.182 126.328 164.71C126.784 164.206 127.24 163.804 127.696 163.504C128.164 163.192 128.668 163.036 129.208 163.036C130.108 163.036 130.774 163.324 131.206 163.9C131.65 164.476 131.872 165.328 131.872 166.456V172H130.396V166.654C130.396 165.826 130.264 165.232 130 164.872C129.736 164.5 129.328 164.314 128.776 164.314C128.116 164.314 127.384 164.764 126.58 165.664V172H125.104V166.654C125.104 165.826 124.972 165.232 124.708 164.872C124.444 164.5 124.03 164.314 123.466 164.314C122.806 164.314 122.074 164.764 121.27 165.664V172H119.794Z" fill="#C7C7C7"/>
</svg>
