<svg width="247" height="169" viewBox="0 0 247 169" fill="none" xmlns="http://www.w3.org/2000/svg">
<rect y="35" width="247" height="99" rx="10" fill="#E099E1"/>
<path d="M42.2373 64.0025L42.2373 52.2319L44.3795 52.2319L48.0518 58.8551L49.2579 61.3568L49.3299 61.3568C49.2819 60.7569 49.2219 60.1029 49.1499 59.395C49.0899 58.6871 49.0599 58.0032 49.0599 57.3433L49.0599 52.2319L51.0581 52.2319L51.0581 64.0025L48.9159 64.0025L45.2436 57.3793L44.0375 54.8776L43.9655 54.8776C44.0135 55.5015 44.0675 56.1554 44.1275 56.8393C44.1995 57.5232 44.2355 58.1952 44.2355 58.8551L44.2355 64.0025L42.2373 64.0025ZM56.013 64.2184C55.245 64.2184 54.6149 63.9785 54.1229 63.4985C53.6428 63.0186 53.4028 62.3947 53.4028 61.6268C53.4028 60.6789 53.8168 59.947 54.6449 59.431C55.473 58.9031 56.7931 58.5431 58.6053 58.3511C58.5933 57.8832 58.4673 57.4813 58.2272 57.1453C57.9992 56.7973 57.5852 56.6234 56.9851 56.6234C56.5531 56.6234 56.127 56.7073 55.707 56.8753C55.299 57.0433 54.8969 57.2473 54.5009 57.4873L53.7448 56.1014C54.2369 55.7895 54.7889 55.5195 55.401 55.2915C56.025 55.0635 56.6851 54.9496 57.3812 54.9496C58.4853 54.9496 59.3073 55.2795 59.8474 55.9394C60.3994 56.5874 60.6755 57.5292 60.6755 58.7651L60.6755 64.0025L58.9653 64.0025L58.8213 63.0306L58.7493 63.0306C58.3532 63.3665 57.9272 63.6485 57.4712 63.8765C57.0271 64.1045 56.5411 64.2184 56.013 64.2184ZM56.6791 62.5986C57.0391 62.5986 57.3632 62.5146 57.6512 62.3467C57.9512 62.1667 58.2692 61.9267 58.6053 61.6268L58.6053 59.647C57.4052 59.803 56.5711 60.0369 56.103 60.3489C55.635 60.6489 55.401 61.0208 55.401 61.4648C55.401 61.8607 55.521 62.1487 55.761 62.3287C56.001 62.5086 56.3071 62.5986 56.6791 62.5986ZM65.9859 64.2184C64.9658 64.2184 64.2398 63.9245 63.8077 63.3365C63.3877 62.7366 63.1777 61.9627 63.1777 61.0148L63.1777 56.8033L61.9176 56.8033L61.9176 55.2555L63.2857 55.1655L63.5377 52.7538L65.2659 52.7538L65.2659 55.1655L67.5161 55.1655L67.5161 56.8033L65.2659 56.8033L65.2659 61.0148C65.2659 62.0467 65.6799 62.5626 66.508 62.5626C66.664 62.5626 66.826 62.5446 66.994 62.5086C67.162 62.4607 67.306 62.4127 67.426 62.3647L67.7861 63.8945C67.5461 63.9785 67.27 64.0505 66.958 64.1105C66.658 64.1824 66.334 64.2184 65.9859 64.2184ZM69.3761 64.0025L69.3761 55.1655L71.4463 55.1655L71.4463 64.0025L69.3761 64.0025ZM70.4202 53.6177C70.0482 53.6177 69.7482 53.5097 69.5201 53.2938C69.2921 53.0778 69.1781 52.7898 69.1781 52.4299C69.1781 52.0819 69.2921 51.7999 69.5201 51.584C69.7482 51.368 70.0482 51.26 70.4202 51.26C70.7923 51.26 71.0923 51.368 71.3203 51.584C71.5483 51.7999 71.6623 52.0819 71.6623 52.4299C71.6623 52.7898 71.5483 53.0778 71.3203 53.2938C71.0923 53.5097 70.7923 53.6177 70.4202 53.6177ZM77.7058 64.2184C76.9737 64.2184 76.2897 64.0385 75.6536 63.6785C75.0176 63.3066 74.5015 62.7786 74.1055 62.0947C73.7094 61.3988 73.5114 60.5649 73.5114 59.593C73.5114 58.6091 73.7094 57.7752 74.1055 57.0913C74.5015 56.3954 75.0176 55.8674 75.6536 55.5075C76.2897 55.1355 76.9737 54.9496 77.7058 54.9496C78.4499 54.9496 79.1399 55.1355 79.776 55.5075C80.412 55.8674 80.9281 56.3954 81.3241 57.0913C81.7202 57.7752 81.9182 58.6091 81.9182 59.593C81.9182 60.5649 81.7202 61.3988 81.3241 62.0947C80.9281 62.7786 80.412 63.3066 79.776 63.6785C79.1399 64.0385 78.4499 64.2184 77.7058 64.2184ZM77.7058 62.5266C78.3539 62.5266 78.8639 62.2567 79.2359 61.7167C79.608 61.1768 79.794 60.4689 79.794 59.593C79.794 58.7051 79.608 57.9912 79.2359 57.4513C78.8639 56.9113 78.3539 56.6414 77.7058 56.6414C77.0577 56.6414 76.5477 56.9113 76.1757 57.4513C75.8156 57.9912 75.6356 58.7051 75.6356 59.593C75.6356 60.4689 75.8156 61.1768 76.1757 61.7167C76.5477 62.2567 77.0577 62.5266 77.7058 62.5266ZM83.9673 64.0025L83.9673 55.1655L85.6774 55.1655L85.8214 56.3534L85.8934 56.3534C86.2895 55.9694 86.7215 55.6395 87.1895 55.3635C87.6576 55.0875 88.1916 54.9496 88.7917 54.9496C89.7398 54.9496 90.4298 55.2555 90.8619 55.8674C91.2939 56.4794 91.5099 57.3433 91.5099 58.4591L91.5099 64.0025L89.4397 64.0025L89.4397 58.7291C89.4397 57.9972 89.3317 57.4813 89.1157 57.1813C88.8997 56.8813 88.5457 56.7313 88.0536 56.7313C87.6696 56.7313 87.3276 56.8273 87.0275 57.0193C86.7395 57.1993 86.4095 57.4693 86.0374 57.8292L86.0374 64.0025L83.9673 64.0025ZM96.1826 64.2184C95.4145 64.2184 94.7845 63.9785 94.2924 63.4985C93.8124 63.0186 93.5724 62.3947 93.5724 61.6268C93.5724 60.6789 93.9864 59.947 94.8145 59.431C95.6426 58.9031 96.9627 58.5431 98.7748 58.3511C98.7628 57.8832 98.6368 57.4813 98.3968 57.1453C98.1688 56.7973 97.7548 56.6234 97.1547 56.6234C96.7227 56.6234 96.2966 56.7073 95.8766 56.8753C95.4685 57.0433 95.0665 57.2473 94.6705 57.4873L93.9144 56.1014C94.4065 55.7895 94.9585 55.5195 95.5706 55.2915C96.1946 55.0635 96.8547 54.9496 97.5507 54.9496C98.6548 54.9496 99.4769 55.2795 100.017 55.9394C100.569 56.5874 100.845 57.5292 100.845 58.7651L100.845 64.0025L99.1349 64.0025L98.9909 63.0306L98.9189 63.0306C98.5228 63.3665 98.0968 63.6485 97.6407 63.8765C97.1967 64.1045 96.7107 64.2184 96.1826 64.2184ZM96.8487 62.5986C97.2087 62.5986 97.5327 62.5146 97.8208 62.3467C98.1208 62.1667 98.4388 61.9267 98.7748 61.6268L98.7748 59.647C97.5747 59.803 96.7407 60.0369 96.2726 60.3489C95.8046 60.6489 95.5706 61.0208 95.5706 61.4648C95.5706 61.8607 95.6906 62.1487 95.9306 62.3287C96.1706 62.5086 96.4766 62.5986 96.8487 62.5986ZM105.339 64.2184C104.607 64.2184 104.085 63.9965 103.773 63.5525C103.473 63.1086 103.322 62.5026 103.322 61.7347L103.322 51.296L105.393 51.296L105.393 61.8427C105.393 62.0947 105.441 62.2747 105.537 62.3827C105.633 62.4787 105.735 62.5266 105.843 62.5266C105.891 62.5266 105.933 62.5266 105.969 62.5266C106.017 62.5146 106.083 62.5026 106.167 62.4906L106.437 64.0385C106.317 64.0865 106.161 64.1285 105.969 64.1644C105.789 64.2004 105.579 64.2184 105.339 64.2184ZM115.432 64.2184C114.64 64.2184 113.872 64.0685 113.128 63.7685C112.396 63.4685 111.747 63.0426 111.183 62.4906L112.408 61.0688C112.828 61.4648 113.308 61.7887 113.848 62.0407C114.388 62.2807 114.928 62.4007 115.468 62.4007C116.14 62.4007 116.65 62.2627 116.998 61.9867C117.346 61.7107 117.52 61.3448 117.52 60.8888C117.52 60.3969 117.346 60.0429 116.998 59.827C116.662 59.611 116.23 59.389 115.702 59.1611L114.082 58.4591C113.698 58.2912 113.32 58.0752 112.948 57.8112C112.588 57.5472 112.288 57.2113 112.048 56.8033C111.819 56.3954 111.705 55.9034 111.705 55.3275C111.705 54.7036 111.873 54.1457 112.21 53.6537C112.558 53.1498 113.026 52.7538 113.614 52.4659C114.214 52.1659 114.898 52.0159 115.666 52.0159C116.35 52.0159 117.01 52.1539 117.646 52.4299C118.282 52.6938 118.828 53.0538 119.284 53.5097L118.222 54.8416C117.85 54.5296 117.454 54.2836 117.034 54.1037C116.626 53.9237 116.17 53.8337 115.666 53.8337C115.114 53.8337 114.664 53.9597 114.316 54.2116C113.98 54.4516 113.812 54.7876 113.812 55.2195C113.812 55.5195 113.896 55.7715 114.064 55.9754C114.244 56.1674 114.478 56.3354 114.766 56.4794C115.054 56.6114 115.36 56.7433 115.684 56.8753L117.286 57.5412C117.982 57.8412 118.552 58.2372 118.996 58.7291C119.44 59.209 119.662 59.875 119.662 60.7269C119.662 61.3628 119.494 61.9447 119.158 62.4727C118.822 63.0006 118.336 63.4265 117.7 63.7505C117.076 64.0625 116.32 64.2184 115.432 64.2184ZM125.313 64.2184C124.509 64.2184 123.783 64.0385 123.135 63.6785C122.499 63.3066 121.989 62.7786 121.605 62.0947C121.233 61.3988 121.047 60.5649 121.047 59.593C121.047 58.6091 121.251 57.7752 121.659 57.0913C122.067 56.3954 122.607 55.8674 123.279 55.5075C123.963 55.1355 124.695 54.9496 125.475 54.9496C126.039 54.9496 126.531 55.0455 126.951 55.2375C127.371 55.4295 127.743 55.6635 128.068 55.9394L127.059 57.2893C126.831 57.0853 126.597 56.9293 126.357 56.8213C126.117 56.7013 125.859 56.6414 125.583 56.6414C124.875 56.6414 124.293 56.9113 123.837 57.4513C123.393 57.9912 123.171 58.7051 123.171 59.593C123.171 60.4689 123.387 61.1768 123.819 61.7167C124.263 62.2567 124.833 62.5266 125.529 62.5266C125.877 62.5266 126.201 62.4547 126.501 62.3107C126.813 62.1547 127.095 61.9747 127.347 61.7707L128.194 63.1386C127.785 63.4985 127.329 63.7685 126.825 63.9485C126.321 64.1285 125.817 64.2184 125.313 64.2184ZM129.938 64.0025L129.938 55.1655L132.008 55.1655L132.008 64.0025L129.938 64.0025ZM130.982 53.6177C130.61 53.6177 130.31 53.5097 130.082 53.2938C129.854 53.0778 129.74 52.7898 129.74 52.4299C129.74 52.0819 129.854 51.7999 130.082 51.584C130.31 51.368 130.61 51.26 130.982 51.26C131.354 51.26 131.654 51.368 131.882 51.584C132.11 51.7999 132.224 52.0819 132.224 52.4299C132.224 52.7898 132.11 53.0778 131.882 53.2938C131.654 53.5097 131.354 53.6177 130.982 53.6177ZM138.43 64.2184C137.614 64.2184 136.876 64.0385 136.216 63.6785C135.556 63.3066 135.034 62.7786 134.649 62.0947C134.265 61.3988 134.073 60.5649 134.073 59.593C134.073 58.6331 134.265 57.8052 134.649 57.1093C135.046 56.4134 135.556 55.8794 136.18 55.5075C136.804 55.1355 137.458 54.9496 138.142 54.9496C138.946 54.9496 139.618 55.1295 140.158 55.4895C140.698 55.8375 141.106 56.3294 141.382 56.9653C141.658 57.5892 141.796 58.3152 141.796 59.1431C141.796 59.575 141.766 59.911 141.706 60.1509L136.09 60.1509C136.186 60.9308 136.468 61.5368 136.936 61.9687C137.404 62.4007 137.992 62.6166 138.7 62.6166C139.084 62.6166 139.438 62.5626 139.762 62.4547C140.098 62.3347 140.428 62.1727 140.752 61.9687L141.454 63.2646C141.034 63.5405 140.566 63.7685 140.05 63.9485C139.534 64.1285 138.994 64.2184 138.43 64.2184ZM136.072 58.7471L139.996 58.7471C139.996 58.0632 139.846 57.5292 139.546 57.1453C139.246 56.7493 138.796 56.5514 138.196 56.5514C137.68 56.5514 137.218 56.7433 136.81 57.1273C136.414 57.4993 136.168 58.0392 136.072 58.7471ZM143.773 64.0025L143.773 55.1655L145.483 55.1655L145.628 56.3534L145.7 56.3534C146.096 55.9694 146.528 55.6395 146.996 55.3635C147.464 55.0875 147.998 54.9496 148.598 54.9496C149.546 54.9496 150.236 55.2555 150.668 55.8674C151.1 56.4794 151.316 57.3433 151.316 58.4591L151.316 64.0025L149.246 64.0025L149.246 58.7291C149.246 57.9972 149.138 57.4813 148.922 57.1813C148.706 56.8813 148.352 56.7313 147.86 56.7313C147.476 56.7313 147.134 56.8273 146.834 57.0193C146.546 57.1993 146.216 57.4693 145.844 57.8292L145.844 64.0025L143.773 64.0025ZM157.537 64.2184C156.733 64.2184 156.007 64.0385 155.359 63.6785C154.723 63.3066 154.213 62.7786 153.828 62.0947C153.456 61.3988 153.27 60.5649 153.27 59.593C153.27 58.6091 153.474 57.7752 153.883 57.0913C154.291 56.3954 154.831 55.8674 155.503 55.5075C156.187 55.1355 156.919 54.9496 157.699 54.9496C158.263 54.9496 158.755 55.0455 159.175 55.2375C159.595 55.4295 159.967 55.6635 160.291 55.9394L159.283 57.2893C159.055 57.0853 158.821 56.9293 158.581 56.8213C158.341 56.7013 158.083 56.6414 157.807 56.6414C157.099 56.6414 156.517 56.9113 156.061 57.4513C155.617 57.9912 155.395 58.7051 155.395 59.593C155.395 60.4689 155.611 61.1768 156.043 61.7167C156.487 62.2567 157.057 62.5266 157.753 62.5266C158.101 62.5266 158.425 62.4547 158.725 62.3107C159.037 62.1547 159.319 61.9747 159.571 61.7707L160.417 63.1386C160.009 63.4985 159.553 63.7685 159.049 63.9485C158.545 64.1285 158.041 64.2184 157.537 64.2184ZM165.503 64.2184C164.686 64.2184 163.948 64.0385 163.288 63.6785C162.628 63.3066 162.106 62.7786 161.722 62.0947C161.338 61.3988 161.146 60.5649 161.146 59.593C161.146 58.6331 161.338 57.8052 161.722 57.1093C162.118 56.4134 162.628 55.8794 163.252 55.5075C163.876 55.1355 164.53 54.9496 165.215 54.9496C166.019 54.9496 166.691 55.1295 167.231 55.4895C167.771 55.8375 168.179 56.3294 168.455 56.9653C168.731 57.5892 168.869 58.3152 168.869 59.1431C168.869 59.575 168.839 59.911 168.779 60.1509L163.162 60.1509C163.258 60.9308 163.54 61.5368 164.008 61.9687C164.476 62.4007 165.064 62.6166 165.773 62.6166C166.157 62.6166 166.511 62.5626 166.835 62.4547C167.171 62.3347 167.501 62.1727 167.825 61.9687L168.527 63.2646C168.107 63.5405 167.639 63.7685 167.123 63.9485C166.607 64.1285 166.067 64.2184 165.503 64.2184ZM163.144 58.7471L167.069 58.7471C167.069 58.0632 166.919 57.5292 166.619 57.1453C166.319 56.7493 165.869 56.5514 165.269 56.5514C164.752 56.5514 164.29 56.7433 163.882 57.1273C163.486 57.4993 163.24 58.0392 163.144 58.7471ZM176.592 64.2184C175.824 64.2184 175.194 63.9785 174.702 63.4985C174.222 63.0186 173.982 62.3947 173.982 61.6268C173.982 60.6789 174.396 59.947 175.224 59.431C176.052 58.9031 177.372 58.5431 179.184 58.3511C179.172 57.8832 179.046 57.4813 178.806 57.1453C178.578 56.7973 178.164 56.6234 177.564 56.6234C177.132 56.6234 176.706 56.7073 176.286 56.8753C175.878 57.0433 175.476 57.2473 175.08 57.4873L174.324 56.1014C174.816 55.7895 175.368 55.5195 175.98 55.2915C176.604 55.0635 177.264 54.9496 177.96 54.9496C179.064 54.9496 179.886 55.2795 180.426 55.9394C180.978 56.5874 181.254 57.5292 181.254 58.7651L181.254 64.0025L179.544 64.0025L179.4 63.0306L179.328 63.0306C178.932 63.3665 178.506 63.6485 178.05 63.8765C177.606 64.1045 177.12 64.2184 176.592 64.2184ZM177.258 62.5986C177.618 62.5986 177.942 62.5146 178.23 62.3467C178.53 62.1667 178.848 61.9267 179.184 61.6268L179.184 59.647C177.984 59.803 177.15 60.0369 176.682 60.3489C176.214 60.6489 175.98 61.0208 175.98 61.4648C175.98 61.8607 176.1 62.1487 176.34 62.3287C176.58 62.5086 176.886 62.5986 177.258 62.5986ZM183.732 64.0025L183.732 55.1655L185.442 55.1655L185.586 56.3534L185.658 56.3534C186.054 55.9694 186.486 55.6395 186.954 55.3635C187.422 55.0875 187.956 54.9496 188.556 54.9496C189.504 54.9496 190.195 55.2555 190.627 55.8674C191.059 56.4794 191.275 57.3433 191.275 58.4591L191.275 64.0025L189.204 64.0025L189.204 58.7291C189.204 57.9972 189.096 57.4813 188.88 57.1813C188.664 56.8813 188.31 56.7313 187.818 56.7313C187.434 56.7313 187.092 56.8273 186.792 57.0193C186.504 57.1993 186.174 57.4693 185.802 57.8292L185.802 64.0025L183.732 64.0025ZM196.901 64.2184C195.797 64.2184 194.915 63.8105 194.255 62.9946C193.595 62.1787 193.265 61.0448 193.265 59.593C193.265 58.6331 193.439 57.8052 193.787 57.1093C194.147 56.4134 194.615 55.8794 195.191 55.5075C195.767 55.1355 196.373 54.9496 197.009 54.9496C197.513 54.9496 197.939 55.0395 198.288 55.2195C198.648 55.3875 198.996 55.6215 199.332 55.9214L199.26 54.4996L199.26 51.296L201.33 51.296L201.33 64.0025L199.62 64.0025L199.476 63.0486L199.404 63.0486C199.08 63.3725 198.702 63.6485 198.27 63.8765C197.837 64.1045 197.381 64.2184 196.901 64.2184ZM197.405 62.5086C198.065 62.5086 198.684 62.1787 199.26 61.5188L199.26 57.3973C198.96 57.1213 198.66 56.9293 198.36 56.8213C198.059 56.7133 197.759 56.6594 197.459 56.6594C196.895 56.6594 196.409 56.9173 196.001 57.4333C195.605 57.9372 195.407 58.6511 195.407 59.575C195.407 60.5229 195.581 61.2488 195.929 61.7527C196.277 62.2567 196.769 62.5086 197.405 62.5086ZM48.2437 90.9992L48.2437 80.9924L44.8414 80.9924L44.8414 79.2286L53.7342 79.2286L53.7342 80.9924L50.3319 80.9924L50.3319 90.9992L48.2437 90.9992ZM58.0116 91.2152C57.1955 91.2152 56.4574 91.0352 55.7974 90.6752C55.1373 90.3033 54.6153 89.7754 54.2312 89.0914C53.8472 88.3955 53.6552 87.5616 53.6552 86.5897C53.6552 85.6299 53.8472 84.802 54.2312 84.106C54.6273 83.4101 55.1373 82.8762 55.7614 82.5042C56.3854 82.1323 57.0395 81.9463 57.7235 81.9463C58.5276 81.9463 59.1997 82.1263 59.7397 82.4862C60.2798 82.8342 60.6878 83.3261 60.9638 83.9621C61.2399 84.586 61.3779 85.3119 61.3779 86.1398C61.3779 86.5717 61.3479 86.9077 61.2879 87.1477L55.6714 87.1477C55.7674 87.9276 56.0494 88.5335 56.5174 88.9655C56.9855 89.3974 57.5735 89.6134 58.2816 89.6134C58.6656 89.6134 59.0197 89.5594 59.3437 89.4514C59.6797 89.3314 60.0097 89.1694 60.3338 88.9655L61.0358 90.2613C60.6158 90.5373 60.1478 90.7652 59.6317 90.9452C59.1157 91.1252 58.5756 91.2152 58.0116 91.2152ZM55.6534 85.7438L59.5777 85.7438C59.5777 85.0599 59.4277 84.526 59.1277 84.142C58.8276 83.7461 58.3776 83.5481 57.7775 83.5481C57.2615 83.5481 56.7995 83.7401 56.3914 84.124C55.9954 84.496 55.7494 85.0359 55.6534 85.7438ZM67.0454 91.2152C66.2413 91.2152 65.5153 91.0352 64.8672 90.6752C64.2312 90.3033 63.7211 89.7754 63.3371 89.0914C62.9651 88.3955 62.779 87.5616 62.779 86.5897C62.779 85.6059 62.9831 84.772 63.3911 84.088C63.7991 83.3921 64.3392 82.8642 65.0112 82.5042C65.6953 82.1323 66.4274 81.9463 67.2074 81.9463C67.7715 81.9463 68.2635 82.0423 68.6836 82.2343C69.1036 82.4262 69.4756 82.6602 69.7997 82.9362L68.7916 84.286C68.5635 84.082 68.3295 83.9261 68.0895 83.8181C67.8495 83.6981 67.5915 83.6381 67.3154 83.6381C66.6074 83.6381 66.0253 83.9081 65.5693 84.448C65.1252 84.9879 64.9032 85.7018 64.9032 86.5897C64.9032 87.4656 65.1192 88.1735 65.5513 88.7135C65.9953 89.2534 66.5654 89.5234 67.2614 89.5234C67.6095 89.5234 67.9335 89.4514 68.2335 89.3074C68.5455 89.1514 68.8276 88.9714 69.0796 88.7675L69.9257 90.1353C69.5176 90.4953 69.0616 90.7652 68.5575 90.9452C68.0535 91.1252 67.5495 91.2152 67.0454 91.2152ZM71.6703 90.9992L71.6703 78.2927L73.7405 78.2927L73.7405 81.5683L73.6685 83.2781C74.0405 82.9302 74.4545 82.6242 74.9106 82.3602C75.3666 82.0843 75.8947 81.9463 76.4947 81.9463C77.4428 81.9463 78.1328 82.2523 78.5649 82.8642C78.9969 83.4761 79.2129 84.34 79.2129 85.4559L79.2129 90.9992L77.1428 90.9992L77.1428 85.7258C77.1428 84.9939 77.0348 84.478 76.8187 84.178C76.6027 83.8781 76.2487 83.7281 75.7566 83.7281C75.3726 83.7281 75.0306 83.8241 74.7305 84.016C74.4425 84.196 74.1125 84.466 73.7405 84.8259L73.7405 90.9992L71.6703 90.9992ZM81.7083 90.9992L81.7083 82.1623L83.4184 82.1623L83.5624 83.3501L83.6344 83.3501C84.0305 82.9662 84.4625 82.6362 84.9306 82.3602C85.3986 82.0843 85.9326 81.9463 86.5327 81.9463C87.4808 81.9463 88.1708 82.2523 88.6029 82.8642C89.0349 83.4761 89.2509 84.34 89.2509 85.4559L89.2509 90.9992L87.1808 90.9992L87.1808 85.7258C87.1808 84.9939 87.0728 84.478 86.8567 84.178C86.6407 83.8781 86.2867 83.7281 85.7946 83.7281C85.4106 83.7281 85.0686 83.8241 84.7685 84.016C84.4805 84.196 84.1505 84.466 83.7785 84.8259L83.7785 90.9992L81.7083 90.9992ZM95.3998 91.2152C94.6677 91.2152 93.9836 91.0352 93.3476 90.6752C92.7115 90.3033 92.1955 89.7754 91.7994 89.0914C91.4034 88.3955 91.2054 87.5616 91.2054 86.5897C91.2054 85.6059 91.4034 84.772 91.7994 84.088C92.1955 83.3921 92.7115 82.8642 93.3476 82.5042C93.9836 82.1323 94.6677 81.9463 95.3998 81.9463C96.1438 81.9463 96.8339 82.1323 97.4699 82.5042C98.106 82.8642 98.622 83.3921 99.0181 84.088C99.4141 84.772 99.6121 85.6059 99.6121 86.5897C99.6121 87.5616 99.4141 88.3955 99.0181 89.0914C98.622 89.7754 98.106 90.3033 97.4699 90.6752C96.8339 91.0352 96.1438 91.2152 95.3998 91.2152ZM95.3998 89.5234C96.0478 89.5234 96.5579 89.2534 96.9299 88.7135C97.3019 88.1735 97.4879 87.4656 97.4879 86.5897C97.4879 85.7018 97.3019 84.9879 96.9299 84.448C96.5579 83.9081 96.0478 83.6381 95.3998 83.6381C94.7517 83.6381 94.2417 83.9081 93.8696 84.448C93.5096 84.9879 93.3296 85.7018 93.3296 86.5897C93.3296 87.4656 93.5096 88.1735 93.8696 88.7135C94.2417 89.2534 94.7517 89.5234 95.3998 89.5234ZM103.677 91.2152C102.945 91.2152 102.423 90.9932 102.111 90.5493C101.811 90.1053 101.661 89.4994 101.661 88.7315L101.661 78.2927L103.731 78.2927L103.731 88.8395C103.731 89.0914 103.779 89.2714 103.875 89.3794C103.971 89.4754 104.073 89.5234 104.181 89.5234C104.229 89.5234 104.271 89.5234 104.307 89.5234C104.355 89.5114 104.421 89.4994 104.505 89.4874L104.775 91.0352C104.655 91.0832 104.499 91.1252 104.307 91.1612C104.127 91.1972 103.917 91.2152 103.677 91.2152ZM110.167 91.2152C109.435 91.2152 108.751 91.0352 108.115 90.6752C107.478 90.3033 106.962 89.7754 106.566 89.0914C106.17 88.3955 105.972 87.5616 105.972 86.5897C105.972 85.6059 106.17 84.772 106.566 84.088C106.962 83.3921 107.478 82.8642 108.115 82.5042C108.751 82.1323 109.435 81.9463 110.167 81.9463C110.911 81.9463 111.601 82.1323 112.237 82.5042C112.873 82.8642 113.389 83.3921 113.785 84.088C114.181 84.772 114.379 85.6059 114.379 86.5897C114.379 87.5616 114.181 88.3955 113.785 89.0914C113.389 89.7754 112.873 90.3033 112.237 90.6752C111.601 91.0352 110.911 91.2152 110.167 91.2152ZM110.167 89.5234C110.815 89.5234 111.325 89.2534 111.697 88.7135C112.069 88.1735 112.255 87.4656 112.255 86.5897C112.255 85.7018 112.069 84.9879 111.697 84.448C111.325 83.9081 110.815 83.6381 110.167 83.6381C109.519 83.6381 109.009 83.9081 108.637 84.448C108.277 84.9879 108.097 85.7018 108.097 86.5897C108.097 87.4656 108.277 88.1735 108.637 88.7135C109.009 89.2534 109.519 89.5234 110.167 89.5234ZM119.506 94.9047C118.81 94.9047 118.18 94.8207 117.616 94.6528C117.064 94.4848 116.626 94.2268 116.302 93.8789C115.99 93.5429 115.834 93.1169 115.834 92.601C115.834 91.8691 116.254 91.2392 117.094 90.7112L117.094 90.6392C116.866 90.4953 116.674 90.3033 116.518 90.0633C116.374 89.8233 116.302 89.5234 116.302 89.1634C116.302 88.8155 116.398 88.5035 116.59 88.2275C116.794 87.9396 117.022 87.7056 117.274 87.5256L117.274 87.4536C116.974 87.2257 116.704 86.9077 116.464 86.4997C116.236 86.0918 116.122 85.6299 116.122 85.1139C116.122 84.43 116.284 83.8541 116.608 83.3861C116.932 82.9182 117.358 82.5642 117.886 82.3243C118.426 82.0723 119.002 81.9463 119.614 81.9463C119.854 81.9463 120.082 81.9703 120.298 82.0183C120.527 82.0543 120.731 82.1023 120.911 82.1623L124.079 82.1623L124.079 83.6921L122.459 83.6921C122.603 83.8601 122.723 84.076 122.819 84.34C122.915 84.592 122.963 84.8739 122.963 85.1859C122.963 85.8338 122.813 86.3858 122.513 86.8417C122.213 87.2857 121.811 87.6216 121.307 87.8496C120.803 88.0776 120.238 88.1915 119.614 88.1915C119.422 88.1915 119.224 88.1735 119.02 88.1376C118.816 88.1016 118.612 88.0416 118.408 87.9576C118.276 88.0776 118.168 88.1975 118.084 88.3175C118.012 88.4375 117.976 88.5995 117.976 88.8035C117.976 89.0554 118.078 89.2534 118.282 89.3974C118.498 89.5414 118.876 89.6134 119.416 89.6134L120.983 89.6134C122.051 89.6134 122.855 89.7874 123.395 90.1353C123.947 90.4713 124.223 91.0232 124.223 91.7911C124.223 92.367 124.031 92.889 123.647 93.3569C123.263 93.8369 122.717 94.2148 122.009 94.4908C121.301 94.7667 120.467 94.9047 119.506 94.9047ZM119.614 86.8957C120.034 86.8957 120.394 86.7397 120.695 86.4278C120.995 86.1158 121.145 85.6778 121.145 85.1139C121.145 84.562 120.995 84.136 120.695 83.8361C120.406 83.5241 120.046 83.3681 119.614 83.3681C119.182 83.3681 118.816 83.5181 118.516 83.8181C118.216 84.118 118.066 84.55 118.066 85.1139C118.066 85.6778 118.216 86.1158 118.516 86.4278C118.816 86.7397 119.182 86.8957 119.614 86.8957ZM119.83 93.5549C120.539 93.5549 121.115 93.4109 121.559 93.1229C122.003 92.835 122.225 92.505 122.225 92.1331C122.225 91.7851 122.087 91.5511 121.811 91.4312C121.547 91.3112 121.163 91.2512 120.659 91.2512L119.452 91.2512C118.972 91.2512 118.57 91.2092 118.246 91.1252C117.79 91.4731 117.562 91.8631 117.562 92.295C117.562 92.691 117.766 92.997 118.174 93.2129C118.582 93.4409 119.134 93.5549 119.83 93.5549ZM126.55 94.6348C126.31 94.6348 126.1 94.6168 125.92 94.5808C125.74 94.5448 125.566 94.5028 125.398 94.4548L125.776 92.835C125.86 92.859 125.956 92.883 126.064 92.907C126.184 92.943 126.298 92.961 126.406 92.961C126.874 92.961 127.246 92.817 127.522 92.529C127.81 92.2531 128.027 91.8931 128.171 91.4492L128.333 90.8912L124.858 82.1623L126.964 82.1623L128.495 86.4997C128.627 86.8837 128.753 87.2917 128.873 87.7236C129.005 88.1435 129.137 88.5635 129.269 88.9834L129.341 88.9834C129.449 88.5755 129.557 88.1615 129.665 87.7416C129.785 87.3097 129.899 86.8957 130.007 86.4997L131.339 82.1623L133.337 82.1623L130.133 91.3952C129.761 92.391 129.311 93.1769 128.783 93.7529C128.255 94.3408 127.51 94.6348 126.55 94.6348ZM138.653 90.9992L138.653 79.2286L141.011 79.2286L143.099 84.9879C143.231 85.3599 143.358 85.7438 143.478 86.1398C143.61 86.5237 143.736 86.9077 143.856 87.2917L143.928 87.2917C144.06 86.9077 144.186 86.5237 144.306 86.1398C144.426 85.7438 144.546 85.3599 144.666 84.9879L146.7 79.2286L149.076 79.2286L149.076 90.9992L147.15 90.9992L147.15 85.6179C147.15 85.2459 147.162 84.8439 147.186 84.412C147.222 83.9681 147.258 83.5241 147.294 83.0802C147.342 82.6362 147.384 82.2343 147.42 81.8743L147.348 81.8743L146.394 84.61L144.468 89.9013L143.225 89.9013L141.281 84.61L140.345 81.8743L140.273 81.8743C140.309 82.2343 140.345 82.6362 140.381 83.0802C140.429 83.5241 140.465 83.9681 140.489 84.412C140.525 84.8439 140.543 85.2459 140.543 85.6179L140.543 90.9992L138.653 90.9992ZM154.515 91.2152C153.567 91.2152 152.876 90.9092 152.444 90.2973C152.012 89.6854 151.796 88.8215 151.796 87.7056L151.796 82.1623L153.867 82.1623L153.867 87.4356C153.867 88.1675 153.975 88.6835 154.191 88.9834C154.407 89.2834 154.755 89.4334 155.235 89.4334C155.619 89.4334 155.955 89.3374 156.243 89.1454C156.543 88.9535 156.861 88.6415 157.197 88.2095L157.197 82.1623L159.267 82.1623L159.267 90.9992L157.575 90.9992L157.413 89.7034L157.359 89.7034C156.975 90.1593 156.555 90.5253 156.099 90.8012C155.643 91.0772 155.115 91.2152 154.515 91.2152ZM164.355 91.2152C163.755 91.2152 163.155 91.1012 162.555 90.8732C161.955 90.6332 161.439 90.3393 161.007 89.9913L161.979 88.6595C162.375 88.9595 162.771 89.1994 163.167 89.3794C163.563 89.5594 163.983 89.6494 164.427 89.6494C164.907 89.6494 165.262 89.5474 165.49 89.3434C165.718 89.1394 165.832 88.8875 165.832 88.5875C165.832 88.3355 165.736 88.1316 165.544 87.9756C165.364 87.8076 165.129 87.6636 164.841 87.5436C164.553 87.4116 164.253 87.2857 163.941 87.1657C163.557 87.0217 163.173 86.8477 162.789 86.6437C162.417 86.4278 162.111 86.1578 161.871 85.8338C161.631 85.4979 161.511 85.0839 161.511 84.592C161.511 83.8121 161.799 83.1761 162.375 82.6842C162.951 82.1923 163.731 81.9463 164.715 81.9463C165.34 81.9463 165.898 82.0543 166.39 82.2703C166.882 82.4862 167.308 82.7322 167.668 83.0082L166.714 84.268C166.402 84.04 166.084 83.8601 165.76 83.7281C165.448 83.5841 165.117 83.5121 164.769 83.5121C164.325 83.5121 163.995 83.6081 163.779 83.8001C163.563 83.9801 163.455 84.208 163.455 84.484C163.455 84.8319 163.635 85.0959 163.995 85.2759C164.355 85.4559 164.775 85.6299 165.256 85.7978C165.664 85.9418 166.06 86.1218 166.444 86.3378C166.828 86.5417 167.146 86.8117 167.398 87.1477C167.662 87.4836 167.794 87.9276 167.794 88.4795C167.794 89.2354 167.5 89.8833 166.912 90.4233C166.324 90.9512 165.472 91.2152 164.355 91.2152ZM173.422 91.2152C172.606 91.2152 171.868 91.0352 171.208 90.6752C170.548 90.3033 170.026 89.7754 169.642 89.0914C169.258 88.3955 169.066 87.5616 169.066 86.5897C169.066 85.6299 169.258 84.802 169.642 84.106C170.038 83.4101 170.548 82.8762 171.172 82.5042C171.796 82.1323 172.45 81.9463 173.134 81.9463C173.938 81.9463 174.61 82.1263 175.15 82.4862C175.69 82.8342 176.098 83.3261 176.374 83.9621C176.65 84.586 176.788 85.3119 176.788 86.1398C176.788 86.5717 176.758 86.9077 176.698 87.1477L171.082 87.1477C171.178 87.9276 171.46 88.5335 171.928 88.9655C172.396 89.3974 172.984 89.6134 173.692 89.6134C174.076 89.6134 174.43 89.5594 174.754 89.4514C175.09 89.3314 175.42 89.1694 175.744 88.9655L176.446 90.2613C176.026 90.5373 175.558 90.7652 175.042 90.9452C174.526 91.1252 173.986 91.2152 173.422 91.2152ZM171.064 85.7438L174.988 85.7438C174.988 85.0599 174.838 84.526 174.538 84.142C174.238 83.7461 173.788 83.5481 173.188 83.5481C172.672 83.5481 172.21 83.7401 171.802 84.124C171.406 84.496 171.16 85.0359 171.064 85.7438ZM181.394 91.2152C180.446 91.2152 179.756 90.9092 179.324 90.2973C178.892 89.6854 178.676 88.8215 178.676 87.7056L178.676 82.1623L180.746 82.1623L180.746 87.4356C180.746 88.1675 180.854 88.6835 181.07 88.9834C181.286 89.2834 181.634 89.4334 182.114 89.4334C182.498 89.4334 182.834 89.3374 183.122 89.1454C183.422 88.9535 183.74 88.6415 184.076 88.2095L184.076 82.1623L186.146 82.1623L186.146 90.9992L184.454 90.9992L184.292 89.7034L184.238 89.7034C183.854 90.1593 183.434 90.5253 182.978 90.8012C182.522 91.0772 181.994 91.2152 181.394 91.2152ZM188.769 90.9992L188.769 82.1623L190.479 82.1623L190.623 83.3681L190.695 83.3681C191.067 82.9722 191.469 82.6362 191.901 82.3602C192.345 82.0843 192.843 81.9463 193.395 81.9463C194.043 81.9463 194.559 82.0903 194.943 82.3782C195.339 82.6542 195.639 83.0382 195.843 83.5301C196.263 83.0742 196.701 82.6962 197.157 82.3962C197.625 82.0963 198.135 81.9463 198.687 81.9463C199.623 81.9463 200.314 82.2523 200.758 82.8642C201.202 83.4761 201.424 84.34 201.424 85.4559L201.424 90.9992L199.335 90.9992L199.335 85.7258C199.335 84.9939 199.221 84.478 198.993 84.178C198.777 83.8781 198.441 83.7281 197.985 83.7281C197.433 83.7281 196.815 84.094 196.131 84.826L196.131 90.9992L194.061 90.9992L194.061 85.7258C194.061 84.9939 193.947 84.478 193.719 84.178C193.503 83.8781 193.161 83.7281 192.693 83.7281C192.141 83.7281 191.523 84.094 190.839 84.826L190.839 90.9992L188.769 90.9992ZM58.4883 111.157C58.4883 107.323 60.0905 104.444 62.0346 102.518L63.7448 103.292C61.9266 105.217 60.5225 107.719 60.5225 111.157C60.5225 114.612 61.9266 117.114 63.7448 119.04L62.0346 119.814C60.0905 117.888 58.4883 115.008 58.4883 111.157ZM69.4873 118.212C68.6952 118.212 67.9272 118.062 67.1831 117.762C66.451 117.462 65.803 117.036 65.2389 116.484L66.463 115.062C66.8831 115.458 67.3631 115.782 67.9032 116.034C68.4432 116.274 68.9833 116.394 69.5233 116.394C70.1954 116.394 70.7054 116.256 71.0534 115.98C71.4015 115.704 71.5755 115.338 71.5755 114.882C71.5755 114.39 71.4015 114.036 71.0534 113.82C70.7174 113.604 70.2854 113.382 69.7573 113.155L68.1372 112.453C67.7531 112.285 67.3751 112.069 67.0031 111.805C66.6431 111.541 66.343 111.205 66.103 110.797C65.875 110.389 65.761 109.897 65.761 109.321C65.761 108.697 65.929 108.139 66.265 107.647C66.613 107.143 67.0811 106.747 67.6691 106.459C68.2692 106.159 68.9533 106.009 69.7213 106.009C70.4054 106.009 71.0654 106.147 71.7015 106.423C72.3376 106.687 72.8836 107.047 73.3396 107.503L72.2775 108.835C71.9055 108.523 71.5095 108.277 71.0894 108.097C70.6814 107.917 70.2254 107.827 69.7213 107.827C69.1693 107.827 68.7192 107.953 68.3712 108.205C68.0352 108.445 67.8672 108.781 67.8672 109.213C67.8672 109.513 67.9512 109.765 68.1192 109.969C68.2992 110.161 68.5332 110.329 68.8212 110.473C69.1093 110.605 69.4153 110.737 69.7393 110.869L71.3415 111.535C72.0375 111.835 72.6076 112.231 73.0516 112.723C73.4957 113.203 73.7177 113.868 73.7177 114.72C73.7177 115.356 73.5497 115.938 73.2136 116.466C72.8776 116.994 72.3916 117.42 71.7555 117.744C71.1314 118.056 70.3754 118.212 69.4873 118.212ZM79.2968 118.212C78.5647 118.212 77.8806 118.032 77.2446 117.672C76.6085 117.3 76.0925 116.772 75.6964 116.088C75.3004 115.392 75.1024 114.558 75.1024 113.586C75.1024 112.603 75.3004 111.769 75.6964 111.085C76.0925 110.389 76.6085 109.861 77.2446 109.501C77.8806 109.129 78.5647 108.943 79.2968 108.943C80.0408 108.943 80.7309 109.129 81.3669 109.501C82.003 109.861 82.5191 110.389 82.9151 111.085C83.3111 111.769 83.5091 112.603 83.5091 113.586C83.5091 114.558 83.3111 115.392 82.9151 116.088C82.5191 116.772 82.003 117.3 81.3669 117.672C80.7309 118.032 80.0408 118.212 79.2968 118.212ZM79.2968 116.52C79.9448 116.52 80.4549 116.25 80.8269 115.71C81.1989 115.17 81.3849 114.462 81.3849 113.586C81.3849 112.699 81.1989 111.985 80.8269 111.445C80.4549 110.905 79.9448 110.635 79.2968 110.635C78.6487 110.635 78.1387 110.905 77.7666 111.445C77.4066 111.985 77.2266 112.699 77.2266 113.586C77.2266 114.462 77.4066 115.17 77.7666 115.71C78.1387 116.25 78.6487 116.52 79.2968 116.52ZM88.1865 118.212C87.2384 118.212 86.5483 117.906 86.1163 117.294C85.6842 116.682 85.4682 115.818 85.4682 114.702L85.4682 109.159L87.5384 109.159L87.5384 114.432C87.5384 115.164 87.6464 115.68 87.8624 115.98C88.0784 116.28 88.4265 116.43 88.9065 116.43C89.2906 116.43 89.6266 116.334 89.9146 116.142C90.2146 115.95 90.5327 115.638 90.8687 115.206L90.8687 109.159L92.9389 109.159L92.9389 117.996L91.2467 117.996L91.0847 116.7L91.0307 116.7C90.6467 117.156 90.2266 117.522 89.7706 117.798C89.3146 118.074 88.7865 118.212 88.1865 118.212ZM98.6753 118.212C97.6553 118.212 96.9292 117.918 96.4971 117.33C96.0771 116.73 95.8671 115.956 95.8671 115.008L95.8671 110.797L94.607 110.797L94.607 109.249L95.9751 109.159L96.2271 106.747L97.9553 106.747L97.9553 109.159L100.205 109.159L100.205 110.797L97.9553 110.797L97.9553 115.008C97.9553 116.04 98.3693 116.556 99.1974 116.556C99.3534 116.556 99.5154 116.538 99.6834 116.502C99.8514 116.454 99.9955 116.406 100.115 116.358L100.476 117.888C100.235 117.972 99.9595 118.044 99.6474 118.104C99.3474 118.176 99.0234 118.212 98.6753 118.212ZM102.066 117.996L102.066 105.289L104.136 105.289L104.136 108.565L104.064 110.275C104.436 109.927 104.85 109.621 105.306 109.357C105.762 109.081 106.29 108.943 106.89 108.943C107.838 108.943 108.528 109.249 108.96 109.861C109.392 110.473 109.608 111.337 109.608 112.453L109.608 117.996L107.538 117.996L107.538 112.723C107.538 111.991 107.43 111.475 107.214 111.175C106.998 110.875 106.644 110.725 106.152 110.725C105.768 110.725 105.426 110.821 105.126 111.013C104.838 111.193 104.508 111.463 104.136 111.823L104.136 117.996L102.066 117.996ZM120.586 118.212C119.602 118.212 118.708 117.978 117.904 117.51C117.1 117.042 116.457 116.358 115.977 115.458C115.509 114.546 115.275 113.442 115.275 112.147C115.275 110.863 115.515 109.765 115.995 108.853C116.487 107.929 117.142 107.227 117.958 106.747C118.774 106.255 119.674 106.009 120.658 106.009C121.402 106.009 122.062 106.159 122.638 106.459C123.214 106.759 123.688 107.107 124.06 107.503L122.944 108.853C122.644 108.541 122.308 108.295 121.936 108.115C121.576 107.923 121.168 107.827 120.712 107.827C120.076 107.827 119.506 108.001 119.002 108.349C118.51 108.685 118.12 109.171 117.832 109.807C117.556 110.443 117.418 111.205 117.418 112.093C117.418 113.436 117.712 114.492 118.3 115.26C118.888 116.016 119.674 116.394 120.658 116.394C121.186 116.394 121.654 116.286 122.062 116.07C122.47 115.842 122.842 115.548 123.178 115.188L124.294 116.502C123.814 117.054 123.262 117.48 122.638 117.78C122.026 118.068 121.342 118.212 120.586 118.212ZM129.698 118.212C128.966 118.212 128.282 118.032 127.646 117.672C127.009 117.3 126.493 116.772 126.097 116.088C125.701 115.392 125.503 114.558 125.503 113.586C125.503 112.603 125.701 111.769 126.097 111.085C126.493 110.389 127.009 109.861 127.646 109.501C128.282 109.129 128.966 108.943 129.698 108.943C130.442 108.943 131.132 109.129 131.768 109.501C132.404 109.861 132.92 110.389 133.316 111.085C133.712 111.769 133.91 112.603 133.91 113.586C133.91 114.558 133.712 115.392 133.316 116.088C132.92 116.772 132.404 117.3 131.768 117.672C131.132 118.032 130.442 118.212 129.698 118.212ZM129.698 116.52C130.346 116.52 130.856 116.25 131.228 115.71C131.6 115.17 131.786 114.462 131.786 113.586C131.786 112.699 131.6 111.985 131.228 111.445C130.856 110.905 130.346 110.635 129.698 110.635C129.05 110.635 128.54 110.905 128.168 111.445C127.808 111.985 127.628 112.699 127.628 113.586C127.628 114.462 127.808 115.17 128.168 115.71C128.54 116.25 129.05 116.52 129.698 116.52ZM135.959 117.996L135.959 109.159L137.669 109.159L137.813 110.365L137.885 110.365C138.257 109.969 138.659 109.633 139.091 109.357C139.535 109.081 140.034 108.943 140.586 108.943C141.234 108.943 141.75 109.087 142.134 109.375C142.53 109.651 142.83 110.035 143.034 110.527C143.454 110.071 143.892 109.693 144.348 109.393C144.816 109.093 145.326 108.943 145.878 108.943C146.814 108.943 147.504 109.249 147.948 109.861C148.392 110.473 148.614 111.337 148.614 112.453L148.614 117.996L146.526 117.996L146.526 112.723C146.526 111.991 146.412 111.475 146.184 111.175C145.968 110.875 145.632 110.725 145.176 110.725C144.624 110.725 144.006 111.091 143.322 111.823L143.322 117.996L141.252 117.996L141.252 112.723C141.252 111.991 141.138 111.475 140.91 111.175C140.694 110.875 140.352 110.725 139.884 110.725C139.331 110.725 138.713 111.091 138.029 111.823L138.029 117.996L135.959 117.996ZM151.13 121.488L151.13 109.159L152.841 109.159L152.985 110.095L153.057 110.095C153.429 109.783 153.843 109.513 154.299 109.285C154.767 109.057 155.241 108.943 155.721 108.943C156.825 108.943 157.677 109.351 158.277 110.167C158.889 110.983 159.195 112.075 159.195 113.442C159.195 114.45 159.015 115.314 158.655 116.034C158.295 116.742 157.827 117.282 157.251 117.654C156.687 118.026 156.075 118.212 155.415 118.212C155.031 118.212 154.647 118.128 154.263 117.96C153.879 117.78 153.507 117.54 153.147 117.24L153.201 118.716L153.201 121.488L151.13 121.488ZM154.983 116.502C155.571 116.502 156.063 116.244 156.459 115.728C156.855 115.212 157.053 114.456 157.053 113.46C157.053 112.573 156.903 111.883 156.603 111.391C156.303 110.899 155.817 110.653 155.145 110.653C154.521 110.653 153.873 110.983 153.201 111.643L153.201 115.764C153.525 116.028 153.837 116.22 154.137 116.34C154.437 116.448 154.719 116.502 154.983 116.502ZM163.308 118.212C162.576 118.212 162.054 117.99 161.742 117.546C161.442 117.102 161.291 116.496 161.291 115.728L161.291 105.289L163.362 105.289L163.362 115.836C163.362 116.088 163.41 116.268 163.506 116.376C163.602 116.472 163.704 116.52 163.812 116.52C163.86 116.52 163.902 116.52 163.938 116.52C163.986 116.508 164.052 116.496 164.136 116.484L164.406 118.032C164.286 118.08 164.13 118.122 163.938 118.158C163.758 118.194 163.548 118.212 163.308 118.212ZM169.959 118.212C169.143 118.212 168.405 118.032 167.745 117.672C167.085 117.3 166.563 116.772 166.179 116.088C165.795 115.392 165.603 114.558 165.603 113.586C165.603 112.627 165.795 111.799 166.179 111.103C166.575 110.407 167.085 109.873 167.709 109.501C168.333 109.129 168.987 108.943 169.671 108.943C170.475 108.943 171.147 109.123 171.687 109.483C172.227 109.831 172.635 110.323 172.911 110.959C173.187 111.583 173.325 112.309 173.325 113.137C173.325 113.568 173.295 113.904 173.235 114.144L167.619 114.144C167.715 114.924 167.997 115.53 168.465 115.962C168.933 116.394 169.521 116.61 170.229 116.61C170.613 116.61 170.967 116.556 171.291 116.448C171.627 116.328 171.957 116.166 172.281 115.962L172.983 117.258C172.563 117.534 172.095 117.762 171.579 117.942C171.063 118.122 170.523 118.212 169.959 118.212ZM167.601 112.741L171.525 112.741C171.525 112.057 171.375 111.523 171.075 111.139C170.775 110.743 170.325 110.545 169.725 110.545C169.209 110.545 168.747 110.737 168.339 111.121C167.943 111.493 167.697 112.033 167.601 112.741ZM174.029 117.996L176.838 113.388L174.209 109.159L176.442 109.159L177.432 110.833C177.564 111.073 177.696 111.325 177.828 111.589C177.972 111.841 178.11 112.087 178.242 112.327L178.314 112.327C178.422 112.087 178.536 111.841 178.656 111.589C178.776 111.325 178.89 111.073 178.998 110.833L179.844 109.159L181.986 109.159L179.376 113.622L182.184 117.996L179.952 117.996L178.872 116.25C178.728 115.986 178.578 115.722 178.422 115.458C178.278 115.194 178.128 114.936 177.972 114.684L177.9 114.684C177.78 114.936 177.654 115.194 177.522 115.458C177.39 115.71 177.258 115.974 177.126 116.25L176.19 117.996L174.029 117.996ZM188.493 111.157C188.493 115.008 186.891 117.888 184.946 119.814L183.236 119.04C185.054 117.114 186.459 114.612 186.459 111.157C186.459 107.719 185.054 105.217 183.236 103.292L184.946 102.518C186.891 104.444 188.493 107.323 188.493 111.157Z" fill="#121023"/>
<path d="M123.484 0.314453L123.484 35.3145" stroke="white" stroke-width="2"/>
<path d="M124.359 133.312L124.359 168.312" stroke="white" stroke-width="2"/>
</svg>
