<svg width="254" height="236" viewBox="0 0 254 236" fill="none" xmlns="http://www.w3.org/2000/svg">
<path d="M0.820312 117.261L150.82 117.261" stroke="white" stroke-width="4"/>
<path d="M158.984 117.261L253.984 117.261" stroke="white" stroke-width="4"/>
<rect width="154.972" height="237.304" rx="10" transform="matrix(0.999919 -0.0126935 -0.186315 0.98249 75.7031 1.9668)" fill="#E099E1"/>
<path d="M108.662 51.1941L111.099 38.3431L113.479 38.3129L116.188 45.4922L117.009 48.2065L117.089 48.2055C117.16 47.5512 117.229 46.8381 117.296 46.0662C117.376 45.2942 117.484 44.5479 117.62 43.8274L118.679 38.2469L120.899 38.2187L118.462 51.0697L116.082 51.0999L113.373 43.9206L112.551 41.2062L112.471 41.2073C112.396 41.8878 112.32 42.601 112.245 43.3468C112.184 44.0925 112.085 44.8256 111.948 45.5461L110.882 51.1659L108.662 51.1941ZM123.921 51.2356C123.068 51.2464 122.418 50.9933 121.971 50.4763C121.537 49.959 121.399 49.2812 121.558 48.4428C121.754 47.408 122.366 46.603 123.393 46.028C124.422 45.44 125.963 45.0284 128.016 44.7932C128.099 44.2825 128.043 43.8454 127.846 43.482C127.664 43.1053 127.24 42.9212 126.574 42.9297C126.094 42.9358 125.603 43.0335 125.102 43.2228C124.614 43.4119 124.125 43.6403 123.635 43.9079L123.082 42.4055C123.693 42.058 124.363 41.7555 125.09 41.4979C125.83 41.2402 126.587 41.1065 127.36 41.0967C128.587 41.0811 129.432 41.4297 129.895 42.1426C130.374 42.8422 130.486 43.8667 130.23 45.216L129.146 50.9341L127.246 50.9582L127.287 49.8991L127.207 49.9001C126.698 50.2725 126.166 50.5864 125.612 50.8417C125.072 51.0969 124.508 51.2282 123.921 51.2356ZM124.997 49.4577C125.397 49.4526 125.774 49.3564 126.129 49.1689C126.499 48.9682 126.902 48.7017 127.338 48.3695L127.748 46.208C126.382 46.3952 125.407 46.6624 124.823 47.0096C124.24 47.3437 123.903 47.7531 123.812 48.2378C123.73 48.6701 123.803 48.9828 124.033 49.1759C124.262 49.369 124.583 49.463 124.997 49.4577ZM135 51.095C133.867 51.1093 133.122 50.7986 132.763 50.1628C132.421 49.5138 132.348 48.6718 132.544 47.6369L133.416 43.0388L132.016 43.0566L132.337 41.3667L133.875 41.2492L134.654 38.6126L136.574 38.5882L136.075 41.2213L138.575 41.1895L138.236 42.9777L135.736 43.0094L134.864 47.6074C134.65 48.734 135.003 49.2915 135.923 49.2798C136.097 49.2776 136.28 49.2557 136.474 49.214C136.671 49.1592 136.841 49.1048 136.984 49.0507L137.067 50.7159C136.783 50.811 136.462 50.8934 136.103 50.9633C135.755 51.0462 135.387 51.09 135 51.095ZM138.811 50.8113L140.641 41.1633L142.941 41.1341L141.111 50.7822L138.811 50.8113ZM142.121 39.4587C141.708 39.4639 141.397 39.3503 141.189 39.1177C140.98 38.8851 140.913 38.5723 140.987 38.1793C141.06 37.7994 141.245 37.49 141.543 37.251C141.841 37.0119 142.196 36.8898 142.61 36.8846C143.023 36.8793 143.334 36.993 143.542 37.2256C143.751 37.4581 143.819 37.7644 143.747 38.1443C143.673 38.5373 143.486 38.8533 143.188 39.0923C142.89 39.3313 142.535 39.4534 142.121 39.4587ZM148.02 50.9297C147.207 50.94 146.484 50.7531 145.852 50.3691C145.223 49.972 144.759 49.4029 144.46 48.6618C144.165 47.9076 144.117 46.9999 144.318 45.9388C144.522 44.8646 144.915 43.9514 145.496 43.1991C146.08 42.4338 146.763 41.8501 147.544 41.4481C148.328 41.033 149.126 40.8204 149.939 40.81C150.766 40.7995 151.494 40.9929 152.124 41.39C152.756 41.774 153.22 42.3431 153.516 43.0973C153.814 43.8384 153.861 44.7461 153.658 45.8203C153.456 46.8814 153.064 47.7946 152.48 48.56C151.898 49.3122 151.216 49.8959 150.432 50.311C149.651 50.713 148.847 50.9192 148.02 50.9297ZM148.371 49.0826C149.091 49.0735 149.713 48.7715 150.238 48.1768C150.763 47.582 151.117 46.8065 151.298 45.8502C151.482 44.8808 151.423 44.104 151.121 43.5198C150.82 42.9355 150.309 42.648 149.589 42.6571C148.869 42.6662 148.247 42.9682 147.722 43.5629C147.21 44.1575 146.862 44.9395 146.678 45.9089C146.497 46.8652 146.55 47.6355 146.838 48.2199C147.14 48.8042 147.651 49.0917 148.371 49.0826ZM155.021 50.6056L156.851 40.9575L158.751 40.9334L158.665 42.2283L158.745 42.2272C159.264 41.8025 159.812 41.4361 160.389 41.1282C160.967 40.8203 161.588 40.6622 162.255 40.6537C163.308 40.6403 164.012 40.9646 164.365 41.6266C164.718 42.2886 164.779 43.2288 164.548 44.4471L163.4 50.4992L161.101 50.5284L162.192 44.771C162.344 43.9719 162.331 43.4101 162.153 43.0857C161.975 42.7612 161.613 42.6025 161.066 42.6094C160.64 42.6148 160.24 42.7245 159.867 42.9383C159.509 43.1389 159.087 43.4383 158.599 43.8365L157.321 50.5764L155.021 50.6056ZM168.547 50.6691C167.693 50.6799 167.043 50.4268 166.596 49.9098C166.162 49.3925 166.025 48.7147 166.184 47.8763C166.38 46.8415 166.991 46.0365 168.018 45.4616C169.047 44.8735 170.588 44.4619 172.641 44.2267C172.725 43.716 172.668 43.2789 172.471 42.9155C172.29 42.5388 171.866 42.3547 171.199 42.3632C170.719 42.3693 170.228 42.467 169.727 42.6563C169.239 42.8455 168.75 43.0738 168.26 43.3414L167.707 41.839C168.319 41.4915 168.988 41.189 169.715 40.9314C170.455 40.6737 171.212 40.54 171.986 40.5302C173.212 40.5146 174.057 40.8632 174.52 41.5761C175 42.2757 175.111 43.3002 174.855 44.6495L173.771 50.3676L171.871 50.3917L171.912 49.3326L171.832 49.3336C171.323 49.706 170.791 50.0199 170.237 50.2752C169.697 50.5304 169.133 50.6617 168.547 50.6691ZM169.622 48.8912C170.022 48.8862 170.399 48.7899 170.754 48.6024C171.125 48.4017 171.528 48.1352 171.963 47.803L172.373 45.6415C171.007 45.8287 170.032 46.0959 169.448 46.4431C168.866 46.7772 168.529 47.1866 168.437 47.6713C168.355 48.1036 168.429 48.4163 168.658 48.6094C168.887 48.8025 169.209 48.8965 169.622 48.8912ZM178.718 50.54C177.905 50.5503 177.371 50.3153 177.116 49.835C176.875 49.3546 176.834 48.6951 176.993 47.8567L179.154 36.4599L181.454 36.4307L179.27 47.9454C179.218 48.2205 179.234 48.4164 179.318 48.5329C179.405 48.6364 179.509 48.6873 179.629 48.6858C179.682 48.6851 179.729 48.6845 179.769 48.684C179.824 48.6702 179.9 48.6562 179.996 48.6419L179.976 50.328C179.832 50.3821 179.65 50.4301 179.43 50.4721C179.222 50.514 178.985 50.5366 178.718 50.54ZM92.4057 81.0394C91.5257 81.0506 90.7035 80.8977 89.939 80.5807C89.1879 80.2635 88.5561 79.8076 88.0438 79.213L89.6981 77.6434C90.0827 78.0697 90.5489 78.4167 91.0967 78.6841C91.647 78.9385 92.2221 79.0619 92.822 79.0543C93.5686 79.0448 94.1638 78.887 94.6076 78.5808C95.0514 78.2746 95.3205 77.8726 95.4149 77.3748C95.5167 76.8377 95.3967 76.4537 95.0548 76.2228C94.7262 75.9917 94.2922 75.7555 93.7527 75.514L92.0982 74.7705C91.7064 74.5925 91.3311 74.3621 90.9725 74.0791C90.6271 73.796 90.3634 73.4334 90.1812 72.9914C90.0124 72.5493 89.9876 72.0138 90.1068 71.385C90.236 70.7038 90.5381 70.0923 91.0133 69.5504C91.5043 68.9953 92.1062 68.5564 92.8191 68.2337C93.5478 67.8978 94.3388 67.7244 95.1921 67.7136C95.952 67.7039 96.6567 67.8452 97.3062 68.1376C97.9582 68.4168 98.4903 68.8021 98.9025 69.2935L97.4468 70.7625C97.0981 70.4272 96.7091 70.1642 96.2797 69.9736C95.8637 69.7829 95.3757 69.6911 94.8157 69.6982C94.2024 69.706 93.6764 69.8499 93.2376 70.1299C92.8146 70.3966 92.5584 70.7658 92.469 71.2374C92.4069 71.5649 92.448 71.8388 92.5924 72.0591C92.7527 72.2662 92.9779 72.4463 93.268 72.5994C93.5607 72.7394 93.8733 72.8792 94.206 73.0187L95.848 73.7232C96.5591 74.0409 97.1104 74.4651 97.5019 74.996C97.8958 75.5137 98.0046 76.2376 97.8282 77.1677C97.6965 77.862 97.3894 78.4997 96.9068 79.0808C96.4242 79.662 95.796 80.1339 95.0224 80.4965C94.2645 80.8459 93.3923 81.0269 92.4057 81.0394ZM103.383 80.9001C102.49 80.9114 101.721 80.7251 101.075 80.3413C100.446 79.9442 99.9883 79.375 99.7033 78.6337C99.434 77.8791 99.4001 76.9713 99.6013 75.9102C99.805 74.836 100.204 73.9227 100.799 73.1703C101.397 72.4047 102.106 71.8207 102.927 71.4183C103.764 71.0025 104.616 70.7891 105.482 70.7781C106.109 70.7702 106.636 70.868 107.063 71.0717C107.489 71.2754 107.854 71.5256 108.157 71.8223L106.758 73.3103C106.547 73.0908 106.319 72.9238 106.075 72.8093C105.833 72.6817 105.559 72.6198 105.252 72.6237C104.465 72.6337 103.763 72.9366 103.144 73.5326C102.539 74.1283 102.145 74.9109 101.961 75.8803C101.78 76.8366 101.873 77.6064 102.241 78.1898C102.623 78.773 103.2 79.0598 103.973 79.0499C104.36 79.045 104.735 78.9619 105.098 78.8004C105.477 78.6257 105.828 78.4253 106.15 78.199L106.807 79.6805C106.279 80.0792 105.716 80.3804 105.119 80.584C104.522 80.7876 103.943 80.893 103.383 80.9001ZM108.566 80.599L110.395 70.951L112.695 70.9218L110.866 80.5699L108.566 80.599ZM111.876 69.2464C111.462 69.2516 111.152 69.138 110.943 68.9054C110.734 68.6728 110.667 68.36 110.742 67.967C110.814 67.5871 110.999 67.2777 111.297 67.0387C111.595 66.7996 111.951 66.6775 112.364 66.6723C112.777 66.667 113.088 66.7807 113.297 67.0133C113.505 67.2458 113.574 67.5521 113.502 67.932C113.427 68.325 113.241 68.641 112.943 68.88C112.645 69.119 112.289 69.2411 111.876 69.2464ZM117.955 80.7151C117.048 80.7266 116.265 80.5405 115.607 80.1568C114.95 79.76 114.48 79.191 114.195 78.4497C113.912 77.6954 113.872 76.7876 114.073 75.7265C114.271 74.6785 114.656 73.7719 115.227 73.0067C115.811 72.2414 116.488 71.6512 117.258 71.2363C118.029 70.8214 118.794 70.6092 119.554 70.5995C120.447 70.5882 121.156 70.7752 121.682 71.1606C122.21 71.5328 122.561 72.0642 122.736 72.7546C122.914 73.4319 122.917 74.2225 122.745 75.1264C122.656 75.598 122.553 75.9652 122.437 76.228L116.197 76.3072C116.142 77.1574 116.33 77.8149 116.761 78.2799C117.191 78.7449 117.8 78.9724 118.586 78.9625C119.013 78.957 119.417 78.8931 119.8 78.7706C120.198 78.6349 120.598 78.4534 121 78.2261L121.512 79.631C120.988 79.9382 120.421 80.1937 119.81 80.3975C119.2 80.6013 118.581 80.7071 117.955 80.7151ZM116.468 74.7748L120.827 74.7195C120.969 73.9728 120.913 73.3919 120.659 72.977C120.408 72.5489 119.949 72.3391 119.282 72.3476C118.709 72.3549 118.156 72.571 117.623 72.9959C117.106 73.4076 116.721 74.0006 116.468 74.7748ZM123.936 80.4039L125.765 70.7559L127.665 70.7318L127.579 72.0266L127.659 72.0256C128.179 71.6008 128.727 71.2345 129.304 70.9266C129.881 70.6187 130.503 70.4605 131.17 70.452C132.223 70.4387 132.926 70.763 133.279 71.425C133.633 72.087 133.694 73.0271 133.463 74.2454L132.315 80.2976L130.015 80.3268L131.107 74.5694C131.259 73.7703 131.245 73.2085 131.067 72.8841C130.89 72.5596 130.527 72.4008 129.981 72.4078C129.554 72.4132 129.154 72.5228 128.781 72.7367C128.424 72.9372 128.001 73.2366 127.514 73.6349L126.235 80.3747L123.936 80.4039ZM139.181 80.4456C138.288 80.457 137.519 80.2707 136.873 79.8869C136.244 79.4897 135.786 78.9205 135.501 78.1793C135.232 77.4247 135.198 76.5169 135.399 75.4558C135.603 74.3816 136.002 73.4683 136.597 72.7158C137.194 71.9503 137.904 71.3663 138.725 70.9638C139.562 70.5481 140.414 70.3347 141.28 70.3237C141.907 70.3157 142.434 70.4136 142.86 70.6173C143.287 70.821 143.652 71.0712 143.955 71.3679L142.556 72.8558C142.345 72.6364 142.117 72.4694 141.873 72.3548C141.631 72.2272 141.357 72.1654 141.05 72.1693C140.263 72.1792 139.561 72.4822 138.942 73.0781C138.337 73.6739 137.943 74.4565 137.759 75.4258C137.578 76.3821 137.671 77.152 138.039 77.7354C138.421 78.3186 138.998 78.6053 139.771 78.5955C140.158 78.5906 140.533 78.5074 140.896 78.346C141.275 78.1713 141.626 77.9708 141.948 77.7446L142.604 79.226C142.077 79.6248 141.514 79.926 140.917 80.1296C140.32 80.3332 139.741 80.4385 139.181 80.4456ZM148.03 80.3333C147.124 80.3448 146.341 80.1587 145.682 79.775C145.026 79.3782 144.555 78.8092 144.27 78.0679C143.988 77.3136 143.947 76.4058 144.148 75.3447C144.347 74.2967 144.732 73.3901 145.303 72.6249C145.887 71.8596 146.564 71.2694 147.334 70.8545C148.104 70.4396 148.87 70.2274 149.629 70.2177C150.523 70.2064 151.232 70.3934 151.758 70.7788C152.285 71.1511 152.637 71.6824 152.812 72.3728C152.989 73.0501 152.992 73.8407 152.821 74.7446C152.731 75.2162 152.629 75.5834 152.512 75.8462L146.273 75.9254C146.218 76.7756 146.406 77.4331 146.836 77.8981C147.267 78.3631 147.875 78.5906 148.662 78.5807C149.089 78.5752 149.493 78.5113 149.875 78.3888C150.274 78.2531 150.674 78.0716 151.076 77.8443L151.588 79.2492C151.064 79.5564 150.497 79.8119 149.886 80.0157C149.276 80.2195 148.657 80.3253 148.03 80.3333ZM146.543 74.393L150.903 74.3377C151.045 73.591 150.989 73.0101 150.735 72.5952C150.483 72.1671 150.024 71.9573 149.358 71.9658C148.785 71.9731 148.232 72.1892 147.699 72.6141C147.182 73.0258 146.797 73.6188 146.543 74.393ZM160.35 80.1769C159.497 80.1877 158.847 79.9346 158.399 79.4176C157.965 78.9003 157.828 78.2225 157.987 77.3841C158.183 76.3493 158.795 75.5443 159.821 74.9694C160.851 74.3813 162.392 73.9697 164.445 73.7345C164.528 73.2238 164.471 72.7867 164.274 72.4233C164.093 72.0466 163.669 71.8625 163.002 71.871C162.522 71.8771 162.032 71.9748 161.53 72.1641C161.042 72.3533 160.553 72.5816 160.064 72.8492L159.511 71.3468C160.122 70.9993 160.791 70.6968 161.518 70.4392C162.259 70.1815 163.016 70.0478 163.789 70.038C165.016 70.0224 165.86 70.371 166.324 71.0839C166.803 71.7835 166.915 72.808 166.659 74.1573L165.574 79.8754L163.674 79.8995L163.716 78.8404L163.636 78.8414C163.126 79.2138 162.595 79.5277 162.041 79.783C161.5 80.0382 160.937 80.1695 160.35 80.1769ZM161.425 78.399C161.825 78.394 162.203 78.2977 162.557 78.1102C162.928 77.9095 163.331 77.643 163.766 77.3108L164.176 75.1493C162.811 75.3365 161.836 75.6037 161.251 75.9509C160.669 76.285 160.332 76.6944 160.24 77.1791C160.158 77.6114 160.232 77.9241 160.461 78.1172C160.691 78.3103 161.012 78.4043 161.425 78.399ZM168.327 79.8404L170.156 70.1924L172.056 70.1682L171.97 71.4631L172.05 71.4621C172.57 71.0373 173.118 70.671 173.695 70.3631C174.272 70.0552 174.894 69.897 175.561 69.8885C176.614 69.8752 177.317 70.1995 177.67 70.8615C178.024 71.5235 178.085 72.4636 177.854 73.6819L176.706 79.734L174.406 79.7632L175.498 74.0058C175.649 73.2068 175.636 72.645 175.458 72.3205C175.281 71.9961 174.918 71.8373 174.372 71.8443C173.945 71.8497 173.545 71.9593 173.172 72.1731C172.815 72.3737 172.392 72.6731 171.905 73.0713L170.626 79.8112L168.327 79.8404ZM182.912 79.8905C181.686 79.9061 180.79 79.4731 180.226 78.5916C179.661 77.7101 179.53 76.4769 179.83 74.8918C180.029 73.8438 180.394 72.9374 180.924 72.1727C181.468 71.4079 182.099 70.8183 182.816 70.4041C183.533 69.9899 184.245 69.7783 184.951 69.7693C185.511 69.7622 185.966 69.8545 186.315 70.046C186.68 70.2244 187.019 70.4749 187.33 70.7977L187.544 69.2463L188.207 65.7487L190.507 65.7195L187.876 79.5922L185.977 79.6164L186.014 78.577L185.934 78.578C185.507 78.9362 185.03 79.2429 184.503 79.4979C183.976 79.7528 183.445 79.8837 182.912 79.8905ZM183.826 78.0167C184.559 78.0073 185.314 77.6384 186.091 76.9098L186.944 72.41C186.668 72.1129 186.374 71.9075 186.064 71.7939C185.753 71.6802 185.43 71.6255 185.097 71.6297C184.471 71.6377 183.877 71.9262 183.317 72.4952C182.773 73.051 182.405 73.8332 182.214 74.8419C182.017 75.8768 182.06 76.6669 182.343 77.2122C182.625 77.7575 183.119 78.0256 183.826 78.0167ZM87.3313 110.272L89.4031 99.3471L85.6234 99.395L85.9886 97.4694L95.8678 97.344L95.5026 99.2696L91.7229 99.3176L89.6511 110.243L87.3313 110.272ZM98.1379 110.37C97.2313 110.382 96.4486 110.196 95.7899 109.812C95.1336 109.415 94.663 108.846 94.3779 108.105C94.0954 107.351 94.0547 106.443 94.2559 105.382C94.4547 104.334 94.8394 103.427 95.4101 102.662C95.9942 101.897 96.6713 101.307 97.4416 100.892C98.2119 100.477 98.977 100.264 99.737 100.255C100.63 100.243 101.34 100.43 101.865 100.816C102.393 101.188 102.744 101.719 102.919 102.41C103.097 103.087 103.1 103.878 102.928 104.782C102.839 105.253 102.736 105.62 102.62 105.883L96.3803 105.963C96.3254 106.813 96.5133 107.47 96.9438 107.935C97.3743 108.4 97.9829 108.628 98.7695 108.618C99.1961 108.612 99.6006 108.548 99.983 108.426C100.381 108.29 100.781 108.109 101.183 107.881L101.695 109.286C101.171 109.594 100.604 109.849 99.9937 110.053C99.3831 110.257 98.7645 110.362 98.1379 110.37ZM96.6509 104.43L101.011 104.375C101.152 103.628 101.096 103.047 100.842 102.632C100.591 102.204 100.132 101.994 99.4653 102.003C98.892 102.01 98.339 102.226 97.8062 102.651C97.2892 103.063 96.9041 103.656 96.6509 104.43ZM108.174 110.243C107.281 110.254 106.511 110.068 105.866 109.684C105.236 109.287 104.779 108.718 104.494 107.977C104.225 107.222 104.191 106.314 104.392 105.253C104.596 104.179 104.995 103.266 105.59 102.513C106.187 101.748 106.896 101.164 107.718 100.761C108.554 100.345 109.406 100.132 110.273 100.121C110.899 100.113 111.426 100.211 111.853 100.415C112.28 100.618 112.645 100.869 112.948 101.165L111.548 102.653C111.337 102.434 111.11 102.267 110.865 102.152C110.623 102.025 110.349 101.963 110.043 101.967C109.256 101.977 108.553 102.28 107.935 102.875C107.33 103.471 106.935 104.254 106.752 105.223C106.57 106.18 106.664 106.949 107.032 107.533C107.413 108.116 107.991 108.403 108.764 108.393C109.151 108.388 109.526 108.305 109.889 108.143C110.268 107.969 110.618 107.768 110.94 107.542L111.597 109.023C111.069 109.422 110.507 109.723 109.91 109.927C109.312 110.131 108.734 110.236 108.174 110.243ZM113.356 109.942L115.987 96.0692L118.287 96.04L117.609 99.6163L117.175 101.484C117.66 101.099 118.183 100.759 118.745 100.464C119.308 100.157 119.924 99.9986 120.59 99.9901C121.644 99.9767 122.347 100.301 122.7 100.963C123.053 101.625 123.114 102.565 122.883 103.783L121.736 109.836L119.436 109.865L120.528 104.107C120.679 103.308 120.666 102.747 120.488 102.422C120.31 102.098 119.948 101.939 119.401 101.946C118.975 101.951 118.575 102.061 118.202 102.275C117.845 102.475 117.422 102.775 116.934 103.173L115.656 109.913L113.356 109.942ZM124.508 109.8L126.337 100.152L128.237 100.128L128.151 101.423L128.231 101.422C128.751 100.997 129.299 100.631 129.876 100.323C130.453 100.015 131.075 99.857 131.742 99.8485C132.795 99.8352 133.498 100.159 133.852 100.821C134.205 101.483 134.266 102.424 134.035 103.642L132.887 109.694L130.587 109.723L131.679 103.966C131.831 103.167 131.818 102.605 131.64 102.281C131.462 101.956 131.1 101.797 130.553 101.804C130.126 101.81 129.726 101.919 129.353 102.133C128.996 102.334 128.574 102.633 128.086 103.031L126.808 109.771L124.508 109.8ZM139.673 109.843C138.86 109.853 138.137 109.667 137.505 109.283C136.876 108.885 136.412 108.316 136.113 107.575C135.817 106.821 135.77 105.913 135.971 104.852C136.175 103.778 136.568 102.865 137.149 102.113C137.733 101.347 138.416 100.764 139.197 100.362C139.981 99.9465 140.779 99.7338 141.592 99.7235C142.419 99.713 143.147 99.9063 143.777 100.303C144.409 100.687 144.873 101.257 145.169 102.011C145.467 102.752 145.514 103.66 145.311 104.734C145.109 105.795 144.717 106.708 144.133 107.473C143.551 108.226 142.869 108.809 142.085 109.224C141.304 109.626 140.5 109.833 139.673 109.843ZM140.024 107.996C140.744 107.987 141.366 107.685 141.891 107.09C142.416 106.495 142.769 105.72 142.951 104.764C143.135 103.794 143.076 103.017 142.774 102.433C142.473 101.849 141.962 101.561 141.242 101.571C140.522 101.58 139.9 101.882 139.375 102.476C138.863 103.071 138.515 103.853 138.331 104.822C138.15 105.779 138.203 106.549 138.491 107.133C138.793 107.718 139.304 108.005 140.024 107.996ZM148.869 109.726C148.056 109.737 147.522 109.502 147.267 109.021C147.026 108.541 146.985 107.882 147.144 107.043L149.305 95.6463L151.605 95.6171L149.421 107.132C149.369 107.407 149.385 107.603 149.469 107.719C149.556 107.823 149.659 107.874 149.779 107.872C149.833 107.872 149.879 107.871 149.919 107.87C149.975 107.857 150.051 107.843 150.147 107.828L150.126 109.514C149.983 109.569 149.801 109.617 149.58 109.659C149.373 109.7 149.136 109.723 148.869 109.726ZM156.078 109.635C155.265 109.645 154.542 109.458 153.91 109.074C153.281 108.677 152.817 108.108 152.518 107.367C152.222 106.613 152.175 105.705 152.376 104.644C152.58 103.57 152.973 102.657 153.554 101.904C154.138 101.139 154.821 100.555 155.602 100.153C156.386 99.7383 157.184 99.5256 157.997 99.5152C158.824 99.5047 159.552 99.6981 160.182 100.095C160.814 100.479 161.278 101.048 161.574 101.803C161.872 102.544 161.919 103.451 161.716 104.525C161.514 105.587 161.122 106.5 160.538 107.265C159.956 108.017 159.273 108.601 158.49 109.016C157.709 109.418 156.905 109.624 156.078 109.635ZM156.429 107.788C157.148 107.779 157.771 107.477 158.296 106.882C158.821 106.287 159.174 105.512 159.356 104.555C159.54 103.586 159.481 102.809 159.179 102.225C158.878 101.641 158.367 101.353 157.647 101.362C156.927 101.371 156.305 101.673 155.779 102.268C155.268 102.863 154.92 103.645 154.736 104.614C154.555 105.57 154.608 106.341 154.896 106.925C155.198 107.509 155.709 107.797 156.429 107.788ZM165.69 113.531C164.917 113.541 164.234 113.458 163.642 113.283C163.064 113.107 162.631 112.832 162.343 112.457C162.066 112.094 161.981 111.631 162.087 111.068C162.239 110.269 162.836 109.575 163.879 108.987L163.893 108.908C163.67 108.754 163.496 108.548 163.373 108.288C163.262 108.028 163.245 107.701 163.319 107.308C163.391 106.928 163.562 106.586 163.833 106.282C164.119 105.965 164.421 105.706 164.738 105.506L164.753 105.428C164.467 105.183 164.233 104.84 164.051 104.398C163.882 103.956 163.851 103.453 163.957 102.89C164.099 102.143 164.398 101.512 164.855 100.996C165.312 100.481 165.859 100.088 166.495 99.819C167.147 99.5363 167.813 99.3906 168.493 99.382C168.76 99.3786 169.008 99.4016 169.238 99.4509C169.484 99.487 169.701 99.5366 169.888 99.5995L173.408 99.5548L173.091 101.225L171.291 101.248C171.416 101.429 171.505 101.663 171.557 101.95C171.612 102.224 171.607 102.531 171.542 102.872C171.408 103.579 171.127 104.184 170.699 104.686C170.274 105.175 169.758 105.547 169.151 105.803C168.543 106.059 167.893 106.192 167.2 106.2C166.987 106.203 166.77 106.186 166.551 106.15C166.332 106.113 166.118 106.051 165.909 105.962C165.737 106.095 165.592 106.227 165.474 106.36C165.369 106.492 165.296 106.669 165.253 106.892C165.201 107.167 165.274 107.381 165.47 107.536C165.681 107.69 166.086 107.763 166.686 107.756L168.425 107.734C169.612 107.718 170.469 107.897 170.997 108.269C171.541 108.628 171.733 109.227 171.574 110.065C171.455 110.694 171.134 111.267 170.61 111.783C170.084 112.313 169.399 112.733 168.556 113.044C167.712 113.355 166.757 113.518 165.69 113.531ZM167.468 104.786C167.935 104.78 168.367 104.604 168.765 104.26C169.163 103.915 169.42 103.434 169.537 102.819C169.651 102.216 169.573 101.753 169.302 101.43C169.046 101.093 168.679 100.928 168.199 100.934C167.719 100.94 167.281 101.109 166.886 101.441C166.49 101.773 166.234 102.246 166.117 102.862C166.001 103.478 166.077 103.954 166.345 104.29C166.614 104.627 166.988 104.792 167.468 104.786ZM166.33 112.053C167.116 112.043 167.786 111.878 168.339 111.557C168.892 111.236 169.207 110.873 169.284 110.467C169.356 110.087 169.251 109.834 168.969 109.706C168.701 109.579 168.286 109.519 167.726 109.526L166.387 109.543C165.853 109.55 165.415 109.51 165.073 109.423C164.494 109.809 164.16 110.238 164.071 110.71C163.989 111.142 164.152 111.473 164.56 111.703C164.967 111.946 165.556 112.063 166.33 112.053ZM173.571 113.137C173.305 113.141 173.075 113.124 172.883 113.087C172.69 113.05 172.505 113.007 172.329 112.957L173.084 111.183C173.172 111.208 173.274 111.233 173.389 111.258C173.515 111.295 173.638 111.313 173.758 111.312C174.278 111.305 174.721 111.143 175.087 110.825C175.464 110.519 175.779 110.123 176.031 109.636L176.326 109.025L174.274 99.5438L176.614 99.5141L177.415 104.228C177.483 104.645 177.538 105.089 177.582 105.559C177.642 106.016 177.701 106.472 177.761 106.929L177.841 106.928C178.046 106.481 178.251 106.028 178.458 105.567C178.681 105.094 178.893 104.641 179.095 104.207L181.473 99.4524L183.693 99.4243L178.222 109.55C177.602 110.642 176.94 111.507 176.234 112.143C175.525 112.792 174.638 113.124 173.571 113.137ZM92.2748 139.613L94.7118 126.762L97.3316 126.729L98.459 132.988C98.5287 133.392 98.5892 133.809 98.6405 134.24C98.7077 134.657 98.7682 135.075 98.822 135.492L98.902 135.491C99.1281 135.07 99.3476 134.649 99.5604 134.228C99.7757 133.794 99.9886 133.373 100.199 132.966L103.651 126.649L106.291 126.615L103.854 139.466L101.714 139.494L102.828 133.618C102.905 133.212 103.002 132.773 103.118 132.301C103.25 131.816 103.382 131.331 103.514 130.846C103.659 130.36 103.789 129.921 103.903 129.527L103.823 129.528L102.197 132.529L98.9616 138.333L97.5817 138.35L96.5174 132.601L96.0439 129.627L95.9639 129.628C95.9294 130.021 95.8862 130.459 95.8343 130.943C95.7957 131.427 95.7437 131.911 95.6785 132.396C95.6291 132.867 95.5658 133.305 95.4888 133.711L94.3747 139.587L92.2748 139.613ZM109.851 139.625C108.798 139.639 108.095 139.315 107.741 138.653C107.388 137.991 107.327 137.05 107.558 135.832L108.706 129.78L111.005 129.751L109.914 135.508C109.762 136.307 109.775 136.869 109.953 137.193C110.131 137.518 110.487 137.677 111.02 137.67C111.447 137.665 111.84 137.555 112.199 137.341C112.572 137.128 112.99 136.782 113.453 136.306L114.705 129.704L117.005 129.675L115.175 139.323L113.295 139.347L113.384 137.934L113.324 137.935C112.803 138.438 112.26 138.843 111.697 139.151C111.133 139.459 110.518 139.617 109.851 139.625ZM120.783 139.487C120.117 139.495 119.474 139.379 118.854 139.139C118.237 138.885 117.725 138.572 117.317 138.198L118.673 136.73C119.051 137.052 119.441 137.308 119.844 137.499C120.246 137.69 120.694 137.782 121.188 137.776C121.721 137.769 122.135 137.653 122.431 137.427C122.726 137.201 122.905 136.924 122.967 136.597C123.02 136.322 122.955 136.101 122.774 135.933C122.609 135.752 122.379 135.598 122.084 135.471C121.791 135.331 121.484 135.198 121.162 135.071C120.765 134.92 120.374 134.735 119.99 134.518C119.621 134.287 119.337 133.997 119.138 133.646C118.941 133.283 118.893 132.833 118.995 132.296C119.156 131.444 119.608 130.746 120.35 130.201C121.092 129.655 122.009 129.376 123.102 129.362C123.796 129.353 124.393 129.463 124.895 129.692C125.397 129.921 125.82 130.183 126.162 130.48L124.842 131.869C124.542 131.624 124.226 131.432 123.893 131.293C123.577 131.14 123.225 131.066 122.838 131.071C122.345 131.077 121.958 131.186 121.679 131.399C121.401 131.599 121.234 131.849 121.177 132.15C121.105 132.53 121.25 132.816 121.613 133.007C121.976 133.199 122.406 133.383 122.905 133.559C123.328 133.711 123.731 133.902 124.113 134.132C124.497 134.349 124.795 134.64 125.005 135.003C125.229 135.366 125.284 135.849 125.17 136.451C125.013 137.277 124.552 137.988 123.787 138.586C123.025 139.171 122.023 139.471 120.783 139.487ZM130.856 139.359C129.949 139.37 129.167 139.184 128.508 138.801C127.852 138.404 127.381 137.835 127.096 137.093C126.813 136.339 126.773 135.431 126.974 134.37C127.173 133.322 127.557 132.416 128.128 131.65C128.712 130.885 129.389 130.295 130.16 129.88C130.93 129.465 131.695 129.253 132.455 129.243C133.348 129.232 134.058 129.419 134.583 129.804C135.111 130.177 135.462 130.708 135.637 131.398C135.815 132.076 135.818 132.866 135.646 133.77C135.557 134.242 135.454 134.609 135.338 134.872L129.098 134.951C129.043 135.801 129.231 136.459 129.662 136.924C130.092 137.389 130.701 137.616 131.488 137.606C131.914 137.601 132.319 137.537 132.701 137.414C133.099 137.279 133.499 137.097 133.901 136.87L134.413 138.275C133.889 138.582 133.322 138.837 132.712 139.041C132.101 139.245 131.483 139.351 130.856 139.359ZM129.369 133.419L133.729 133.363C133.87 132.616 133.814 132.036 133.56 131.621C133.309 131.193 132.85 130.983 132.183 130.991C131.61 130.999 131.057 131.215 130.524 131.64C130.007 132.051 129.622 132.644 129.369 133.419ZM139.712 139.246C138.659 139.26 137.955 138.935 137.602 138.273C137.249 137.611 137.188 136.671 137.419 135.453L138.566 129.401L140.866 129.372L139.775 135.129C139.623 135.928 139.636 136.49 139.814 136.814C139.992 137.139 140.347 137.298 140.881 137.291C141.307 137.285 141.701 137.176 142.06 136.962C142.433 136.748 142.851 136.403 143.314 135.927L144.566 129.325L146.866 129.296L145.036 138.944L143.156 138.967L143.245 137.555L143.185 137.556C142.664 138.059 142.121 138.464 141.557 138.772C140.994 139.08 140.379 139.238 139.712 139.246ZM147.949 138.907L149.779 129.259L151.679 129.234L151.589 130.549L151.669 130.548C152.164 130.11 152.681 129.738 153.218 129.431C153.768 129.123 154.35 128.965 154.963 128.957C155.683 128.948 156.227 129.098 156.594 129.407C156.976 129.703 157.23 130.118 157.355 130.652C157.916 130.148 158.481 129.73 159.05 129.396C159.632 129.062 160.229 128.891 160.843 128.883C161.883 128.87 162.586 129.194 162.952 129.856C163.319 130.518 163.387 131.458 163.156 132.676L162.008 138.728L159.688 138.758L160.78 133C160.932 132.201 160.912 131.639 160.721 131.315C160.543 130.991 160.2 130.832 159.694 130.838C159.081 130.846 158.318 131.254 157.407 132.063L156.129 138.803L153.829 138.832L154.921 133.075C155.072 132.275 155.052 131.714 154.861 131.39C154.683 131.065 154.334 130.906 153.814 130.913C153.201 130.921 152.439 131.329 151.527 132.138L150.249 138.877L147.949 138.907ZM100.384 161.465C101.178 157.28 103.554 154.113 106.112 151.983L107.852 152.804C105.433 154.932 103.356 157.683 102.644 161.437C101.928 165.209 102.97 167.921 104.591 169.998L102.531 170.867C100.77 168.792 99.5866 165.67 100.384 161.465ZM111.142 169.013C110.262 169.024 109.44 168.871 108.676 168.554C107.924 168.237 107.293 167.781 106.78 167.186L108.435 165.617C108.819 166.043 109.286 166.39 109.833 166.658C110.384 166.912 110.959 167.035 111.559 167.028C112.305 167.018 112.9 166.86 113.344 166.554C113.788 166.248 114.057 165.846 114.151 165.348C114.253 164.811 114.133 164.427 113.791 164.196C113.463 163.965 113.029 163.729 112.489 163.487L110.835 162.744C110.443 162.566 110.068 162.335 109.709 162.053C109.364 161.769 109.1 161.407 108.918 160.965C108.749 160.523 108.724 159.987 108.843 159.358C108.973 158.677 109.275 158.066 109.75 157.524C110.241 156.969 110.843 156.53 111.556 156.207C112.284 155.871 113.075 155.698 113.929 155.687C114.689 155.677 115.393 155.819 116.043 156.111C116.695 156.39 117.227 156.775 117.639 157.267L116.183 158.736C115.835 158.401 115.446 158.138 115.016 157.947C114.6 157.756 114.112 157.664 113.552 157.672C112.939 157.679 112.413 157.823 111.974 158.103C111.551 158.37 111.295 158.739 111.206 159.211C111.143 159.538 111.185 159.812 111.329 160.032C111.489 160.24 111.715 160.42 112.005 160.573C112.297 160.713 112.61 160.853 112.943 160.992L114.585 161.697C115.296 162.014 115.847 162.439 116.239 162.969C116.632 163.487 116.741 164.211 116.565 165.141C116.433 165.835 116.126 166.473 115.643 167.054C115.161 167.635 114.533 168.107 113.759 168.47C113.001 168.819 112.129 169 111.142 169.013ZM122.04 168.874C121.227 168.885 120.504 168.698 119.872 168.314C119.242 167.917 118.778 167.348 118.48 166.607C118.184 165.852 118.137 164.945 118.338 163.884C118.542 162.809 118.934 161.896 119.516 161.144C120.1 160.379 120.782 159.795 121.564 159.393C122.347 158.978 123.146 158.765 123.959 158.755C124.786 158.744 125.514 158.938 126.143 159.335C126.775 159.719 127.239 160.288 127.535 161.042C127.834 161.783 127.881 162.691 127.677 163.765C127.476 164.826 127.083 165.739 126.499 166.505C125.918 167.257 125.235 167.841 124.451 168.256C123.67 168.658 122.866 168.864 122.04 168.874ZM122.39 167.027C123.11 167.018 123.733 166.716 124.258 166.122C124.783 165.527 125.136 164.751 125.317 163.795C125.501 162.826 125.442 162.049 125.141 161.465C124.839 160.88 124.329 160.593 123.609 160.602C122.889 160.611 122.266 160.913 121.741 161.508C121.229 162.102 120.882 162.884 120.698 163.854C120.516 164.81 120.57 165.58 120.858 166.165C121.159 166.749 121.67 167.037 122.39 167.027ZM131.916 168.749C130.862 168.762 130.159 168.438 129.806 167.776C129.453 167.114 129.391 166.174 129.622 164.956L130.77 158.904L133.07 158.874L131.978 164.632C131.827 165.431 131.84 165.993 132.018 166.317C132.196 166.642 132.551 166.8 133.084 166.794C133.511 166.788 133.904 166.679 134.264 166.465C134.637 166.251 135.055 165.906 135.518 165.43L136.77 158.827L139.07 158.798L137.24 168.446L135.36 168.47L135.448 167.058L135.388 167.058C134.867 167.562 134.325 167.967 133.761 168.275C133.197 168.583 132.582 168.741 131.916 168.749ZM143.568 168.601C142.435 168.616 141.689 168.305 141.331 167.669C140.988 167.02 140.915 166.178 141.111 165.143L141.983 160.545L140.584 160.563L140.904 158.873L142.443 158.755L143.222 156.119L145.142 156.094L144.642 158.727L147.142 158.696L146.803 160.484L144.303 160.516L143.431 165.114C143.218 166.24 143.571 166.798 144.491 166.786C144.664 166.784 144.848 166.762 145.042 166.72C145.238 166.665 145.408 166.611 145.552 166.557L145.635 168.222C145.351 168.317 145.029 168.4 144.67 168.47C144.322 168.552 143.955 168.596 143.568 168.601ZM147.379 168.318L150.01 154.445L152.31 154.416L151.631 157.992L151.197 159.86C151.683 159.474 152.206 159.135 152.767 158.84C153.331 158.532 153.946 158.374 154.613 158.366C155.666 158.352 156.369 158.677 156.723 159.339C157.076 160.001 157.137 160.941 156.906 162.159L155.758 168.211L153.458 168.24L154.55 162.483C154.702 161.684 154.689 161.122 154.511 160.798C154.333 160.473 153.971 160.314 153.424 160.321C152.997 160.327 152.598 160.436 152.224 160.65C151.867 160.851 151.445 161.15 150.957 161.548L149.679 168.288L147.379 168.318ZM74.8362 198.877C73.7429 198.891 72.7981 198.648 72.0018 198.149C71.2054 197.649 70.6337 196.912 70.2867 195.936C69.9556 194.947 69.9241 193.745 70.1924 192.33C70.4582 190.929 70.9522 189.727 71.6743 188.724C72.4122 187.709 73.2841 186.933 74.2901 186.398C75.2985 185.849 76.3494 185.568 77.4426 185.554C78.2692 185.543 78.9714 185.698 79.5493 186.017C80.1271 186.337 80.5817 186.71 80.913 187.137L79.3937 188.626C79.1249 188.29 78.8026 188.026 78.4265 187.835C78.0663 187.63 77.6329 187.531 77.1263 187.538C76.4196 187.547 75.7503 187.745 75.1183 188.132C74.5022 188.505 73.9683 189.041 73.5166 189.74C73.0783 190.438 72.7672 191.272 72.5834 192.241C72.3052 193.708 72.4132 194.857 72.9075 195.687C73.4043 196.504 74.1993 196.906 75.2925 196.892C75.8792 196.884 76.4215 196.76 76.9195 196.518C77.42 196.264 77.8941 195.937 78.342 195.54L79.3099 196.958C78.6623 197.568 77.9608 198.041 77.2054 198.377C76.4659 198.7 75.6761 198.867 74.8362 198.877ZM84.9588 198.749C84.1455 198.759 83.4229 198.572 82.7908 198.188C82.1612 197.791 81.6972 197.222 81.3988 196.481C81.103 195.727 81.0556 194.819 81.2568 193.758C81.4605 192.684 81.8532 191.771 82.4347 191.018C83.0188 190.253 83.7014 189.669 84.4825 189.267C85.2661 188.852 86.0646 188.64 86.8779 188.629C87.7045 188.619 88.4326 188.812 89.0622 189.209C89.6942 189.593 90.1582 190.162 90.4541 190.917C90.7525 191.658 90.7998 192.565 90.5961 193.64C90.3949 194.701 90.0022 195.614 89.4182 196.379C88.8366 197.132 88.154 197.715 87.3704 198.13C86.5893 198.532 85.7854 198.738 84.9588 198.749ZM85.3091 196.902C86.029 196.893 86.6515 196.591 87.1766 195.996C87.7017 195.401 88.0549 194.626 88.2363 193.669C88.4201 192.7 88.3613 191.923 88.0598 191.339C87.7583 190.755 87.2475 190.467 86.5276 190.476C85.8076 190.486 85.1851 190.787 84.66 191.382C84.1483 191.977 83.8005 192.759 83.6167 193.728C83.4353 194.684 83.4887 195.455 83.7769 196.039C84.0784 196.623 84.5891 196.911 85.3091 196.902ZM91.9595 198.425L93.7891 188.777L95.689 188.753L95.5993 190.067L95.6793 190.066C96.1746 189.629 96.6908 189.256 97.2279 188.949C97.7783 188.641 98.3602 188.484 98.9734 188.476C99.6934 188.467 100.237 188.617 100.604 188.926C100.987 189.221 101.241 189.636 101.365 190.17C101.926 189.667 102.491 189.248 103.06 188.914C103.642 188.58 104.24 188.409 104.853 188.401C105.893 188.388 106.596 188.712 106.963 189.374C107.329 190.036 107.397 190.976 107.166 192.194L106.018 198.246L103.699 198.276L104.79 192.518C104.942 191.719 104.922 191.158 104.731 190.833C104.553 190.509 104.211 190.35 103.704 190.356C103.091 190.364 102.328 190.772 101.417 191.581L100.139 198.321L97.8391 198.35L98.9309 192.593C99.0824 191.794 99.0626 191.232 98.8714 190.908C98.6935 190.583 98.3446 190.424 97.8246 190.431C97.2113 190.439 96.4489 190.847 95.5375 191.656L94.2593 198.396L91.9595 198.425ZM108.091 202.023L110.643 188.563L112.543 188.539L112.509 189.558L112.589 189.557C113.067 189.212 113.583 188.911 114.137 188.656C114.704 188.4 115.254 188.269 115.788 188.262C117.014 188.247 117.876 188.68 118.374 189.562C118.885 190.445 118.999 191.632 118.716 193.126C118.507 194.226 118.128 195.172 117.579 195.963C117.033 196.741 116.401 197.337 115.684 197.751C114.98 198.165 114.262 198.377 113.529 198.386C113.102 198.392 112.693 198.305 112.301 198.127C111.911 197.936 111.548 197.68 111.21 197.357L110.964 198.968L110.391 201.994L108.091 202.023ZM113.403 196.526C114.056 196.517 114.656 196.229 115.203 195.66C115.749 195.091 116.126 194.263 116.332 193.176C116.516 192.206 116.492 191.455 116.261 190.922C116.029 190.389 115.54 190.128 114.794 190.137C114.1 190.146 113.312 190.515 112.429 191.245L111.576 195.745C111.881 196.029 112.188 196.234 112.496 196.361C112.807 196.474 113.109 196.529 113.403 196.526ZM122.297 198.275C121.484 198.285 120.95 198.05 120.695 197.57C120.454 197.09 120.412 196.43 120.571 195.592L122.733 184.195L125.032 184.166L122.849 195.68C122.797 195.956 122.813 196.151 122.897 196.268C122.984 196.371 123.087 196.422 123.207 196.421C123.26 196.42 123.307 196.419 123.347 196.419C123.403 196.405 123.479 196.391 123.575 196.377L123.554 198.063C123.411 198.117 123.229 198.165 123.008 198.207C122.801 198.249 122.564 198.272 122.297 198.275ZM129.686 198.181C128.779 198.193 127.997 198.007 127.338 197.623C126.682 197.226 126.211 196.657 125.926 195.916C125.643 195.161 125.603 194.254 125.804 193.193C126.003 192.145 126.387 191.238 126.958 190.473C127.542 189.707 128.219 189.117 128.99 188.702C129.76 188.287 130.525 188.075 131.285 188.066C132.178 188.054 132.888 188.241 133.413 188.627C133.941 188.999 134.292 189.53 134.467 190.221C134.645 190.898 134.648 191.689 134.477 192.592C134.387 193.064 134.284 193.431 134.168 193.694L127.928 193.773C127.874 194.623 128.061 195.281 128.492 195.746C128.922 196.211 129.531 196.439 130.318 196.429C130.744 196.423 131.149 196.359 131.531 196.237C131.929 196.101 132.329 195.919 132.732 195.692L133.243 197.097C132.719 197.404 132.152 197.66 131.542 197.864C130.931 198.067 130.313 198.173 129.686 198.181ZM128.199 192.241L132.559 192.186C132.7 191.439 132.644 190.858 132.39 190.443C132.139 190.015 131.68 189.805 131.013 189.814C130.44 189.821 129.887 190.037 129.354 190.462C128.837 190.874 128.452 191.467 128.199 192.241ZM134.253 197.888L138.326 192.818L136.282 188.237L138.762 188.206L139.515 190.019C139.612 190.279 139.707 190.553 139.799 190.839C139.907 191.112 140.009 191.379 140.106 191.639L140.186 191.638C140.356 191.374 140.533 191.104 140.719 190.827C140.907 190.537 141.086 190.261 141.255 189.997L142.542 188.158L144.922 188.128L141.098 193.038L143.312 197.773L140.832 197.804L139.994 195.914C139.888 195.627 139.776 195.341 139.658 195.055C139.552 194.769 139.439 194.49 139.318 194.217L139.238 194.218C139.052 194.495 138.859 194.778 138.658 195.068C138.459 195.345 138.258 195.635 138.054 195.938L136.652 197.857L134.253 197.888ZM151.736 190.217C150.939 194.422 148.563 197.589 146.004 199.719L144.265 198.898C146.683 196.77 148.761 194.019 149.476 190.246C150.188 186.493 149.146 183.781 147.525 181.704L149.585 180.835C151.346 182.91 152.53 186.032 151.736 190.217Z" fill="#121023"/>
</svg>
