<svg xmlns="http://www.w3.org/2000/svg" width="95" height="58" fill="none" viewBox="0 0 95 58">
  <path fill="#A8B4CA" fill-rule="evenodd" d="M73.553 5.592 73.19 1.44l1.992-.175.363 4.151-1.992.175Zm1.453 16.603-.727-8.302 1.993-.174.726 8.301-1.992.175Zm1.452 16.603-.726-8.302 1.992-.174.727 8.302-1.993.174Zm1.09 12.453-.364-4.151 1.993-.175.363 4.151-1.992.175ZM.436 12.825A5 5 0 0 1 4.98 7.408L84.677.436a5 5 0 0 1 5.416 4.545l.885 10.107a8.489 8.489 0 0 0-.1.008c-4.951.433-8.583 5.155-8.112 10.547.472 5.392 4.869 9.411 9.82 8.978l.1-.009.884 10.108a5 5 0 0 1-4.545 5.417L9.329 57.109a5 5 0 0 1-5.417-4.545l-.884-10.108c4.869-.521 8.416-5.199 7.95-10.532-.467-5.332-4.773-9.323-9.658-8.99l-.884-10.11Z" clip-rule="evenodd"/>
  <g filter="url(#a)">
    <path fill="#F0EBF5" d="m17.529 28.436-.758.066.43 4.916.758-.066-.146-1.668 2.644-.231.094 1.072c.02.228.004.437-.047.626a1.442 1.442 0 0 1-.223.479 1.45 1.45 0 0 1-.374.354 2.51 2.51 0 0 1-.477.254c-.159.064-.345.12-.558.168a7.07 7.07 0 0 1-.582.108 11.789 11.789 0 0 1-1.138.1 6.083 6.083 0 0 1-.583-.002 3.96 3.96 0 0 1-.588-.068 2.92 2.92 0 0 1-.535-.165 1.566 1.566 0 0 1-.461-.282 1.464 1.464 0 0 1-.32-.435 1.68 1.68 0 0 1-.165-.612l-.328-3.747c-.02-.225-.003-.43.048-.617.054-.19.13-.352.227-.483.1-.133.23-.252.388-.357.158-.107.318-.194.48-.258.165-.064.354-.12.568-.168.213-.051.407-.089.58-.113.178-.024.373-.046.586-.064.228-.02.43-.034.606-.04.175-.01.374-.01.595 0 .225.01.42.033.584.069.168.032.337.086.508.163.175.075.318.17.431.284.116.113.214.259.294.437.083.178.135.383.155.613l.095 1.086-2.644.231-.144-1.65Zm6.974 5.543c-.234.02-.439.034-.614.04-.176.01-.376.01-.6 0a3.27 3.27 0 0 1-.58-.064 2.769 2.769 0 0 1-.503-.163 1.45 1.45 0 0 1-.431-.284 1.47 1.47 0 0 1-.29-.438 1.925 1.925 0 0 1-.151-.618l-.328-3.747a1.72 1.72 0 0 1 .048-.617c.05-.19.125-.351.222-.483s.224-.25.38-.355c.158-.105.318-.19.48-.254.162-.067.348-.124.558-.172.214-.049.408-.085.582-.109a12.17 12.17 0 0 1 1.134-.099c.167-.008.36-.008.578.003.218.01.414.032.588.067s.35.09.53.166a1.418 1.418 0 0 1 .786.716c.09.177.144.38.164.608l.328 3.747c.02.23.003.44-.05.63-.052.19-.126.352-.223.483a1.456 1.456 0 0 1-.388.356 2.967 2.967 0 0 1-.481.25 3.33 3.33 0 0 1-.568.164 7.552 7.552 0 0 1-1.171.173Zm-.469-1.167.758-.067-.432-4.933-.757.066.431 4.934Zm6.73-3.439.758-.066-.182-2.088-.758.066.183 2.088Zm1.8.235.006.026c.59.016 1.023.149 1.3.398.281.246.44.575.475.986l.168 1.914-2.653.232-.249-2.841-.757.066.248 2.84-2.644.232-.61-6.982 3.996-.35c.33-.029.614-.024.853.014.241.034.455.111.642.23.19.119.337.291.442.517.108.223.176.502.206.838.018.207.02.39.008.55-.012.158-.048.31-.105.46a1.07 1.07 0 0 1-.244.387 1.521 1.521 0 0 1-.434.285c-.18.084-.397.15-.649.198Zm5.162.272.757-.066-.28-3.213-.758.066.281 3.213Zm-3.01-4.002 3.305-.29c.222-.019.42-.032.592-.038.173-.006.36-.003.561.008.2.01.376.032.527.069.15.037.299.093.447.168.15.072.274.164.372.276.101.11.187.247.257.415.07.167.115.359.134.575l.158 1.799c.015.175.012.337-.01.486-.02.146-.054.277-.103.393a1.075 1.075 0 0 1-.198.313 1.71 1.71 0 0 1-.261.239 1.671 1.671 0 0 1-.333.183 3 3 0 0 1-.376.134 4.227 4.227 0 0 1-.42.095c-.16.025-.304.047-.435.064-.128.014-.278.029-.45.044l-.666.058.154 1.76-2.644.231-.611-6.982Zm10.462 6.292c-.233.02-.438.034-.614.041a5.98 5.98 0 0 1-.6 0 3.27 3.27 0 0 1-.579-.064 2.769 2.769 0 0 1-.504-.164 1.448 1.448 0 0 1-.43-.284 1.47 1.47 0 0 1-.29-.438 1.927 1.927 0 0 1-.151-.617l-.328-3.748c-.02-.225-.004-.43.047-.617.052-.19.126-.35.223-.483.097-.132.224-.25.379-.355.158-.105.319-.19.48-.254.163-.067.349-.125.56-.172a7.07 7.07 0 0 1 .58-.108 12.164 12.164 0 0 1 1.135-.1c.166-.008.36-.008.578.003.218.01.414.033.588.067.173.035.35.09.53.166a1.418 1.418 0 0 1 .786.716c.09.177.144.38.164.608l.328 3.747c.02.23.003.441-.05.631-.052.19-.126.35-.223.483a1.49 1.49 0 0 1-.388.356 2.968 2.968 0 0 1-.481.249 3.39 3.39 0 0 1-.568.164 7.552 7.552 0 0 1-1.172.173Zm-.468-1.167.758-.067-.432-4.933-.758.066.432 4.934Zm6.73-3.439.758-.066-.183-2.088-.757.066.183 2.088Zm1.8.235.006.026c.59.016 1.023.149 1.3.398.28.246.44.575.475.987l.167 1.913-2.653.232-.248-2.841-.757.066.248 2.841-2.644.231-.61-6.982 3.996-.35c.33-.029.614-.024.853.014.24.035.455.111.642.23.19.119.337.291.442.517.108.223.176.503.206.838.018.207.02.391.008.55a1.67 1.67 0 0 1-.105.46 1.067 1.067 0 0 1-.244.388 1.52 1.52 0 0 1-.434.285 2.832 2.832 0 0 1-.649.197Zm5.292-2.629-.083.008-.067 3.124.78-.068-.63-3.064Zm-.148 4.059-.1 1.623-2.566.224.667-7.094 3.971-.348 1.911 6.87-2.57.224-.376-1.581-.937.082Zm8.937-6.204.103 1.178-1.558.136.507 5.805-2.644.232-.508-5.806-1.545.136-.103-1.178 5.748-.503Zm4.737-.414.095 1.09-1.493.13.148 1.686 1.392-.122.096 1.095-1.393.121.177 2.014 1.492-.13.096 1.098-4.137.362-.61-6.982 4.137-.362Z"/>
  </g>
  <defs>
    <filter id="a" width="66.668" height="20.414" x="10.016" y="22.431" color-interpolation-filters="sRGB" filterUnits="userSpaceOnUse">
      <feFlood flood-opacity="0" result="BackgroundImageFix"/>
      <feColorMatrix in="SourceAlpha" result="hardAlpha" values="0 0 0 0 0 0 0 0 0 0 0 0 0 0 0 0 0 0 127 0"/>
      <feOffset dy="4"/>
      <feGaussianBlur stdDeviation="2"/>
      <feComposite in2="hardAlpha" operator="out"/>
      <feColorMatrix values="0 0 0 0 0 0 0 0 0 0 0 0 0 0 0 0 0 0 0.25 0"/>
      <feBlend in2="BackgroundImageFix" result="effect1_dropShadow_3156_17737"/>
      <feBlend in="SourceGraphic" in2="effect1_dropShadow_3156_17737" result="shape"/>
    </filter>
  </defs>
</svg>
