<svg width="95" height="58" viewBox="0 0 95 58" fill="none" xmlns="http://www.w3.org/2000/svg">
<path fill-rule="evenodd" clip-rule="evenodd" d="M73.553 5.76468L73.1898 1.61387L75.1822 1.43956L75.5453 5.59037L73.553 5.76468ZM75.0056 22.3679L74.2793 14.0663L76.2716 13.892L76.9979 22.1936L75.0056 22.3679ZM76.4582 38.9712L75.7319 30.6695L77.7242 30.4952L78.4505 38.7969L76.4582 38.9712ZM77.5476 51.4236L77.1844 47.2728L79.1768 47.0985L79.54 51.2493L77.5476 51.4236ZM0.435779 12.9981C0.195105 10.2472 2.23006 7.82205 4.98097 7.58137L84.6765 0.608913C87.4275 0.368239 89.8526 2.40319 90.0933 5.15411L90.9775 15.2609C90.9444 15.2634 90.9113 15.2661 90.8781 15.269C85.9265 15.7022 82.2948 20.4243 82.7665 25.8161C83.2382 31.2079 87.6347 35.2276 92.5864 34.7944C92.6195 34.7915 92.6526 34.7884 92.6857 34.7851L93.57 44.8932C93.8107 47.6441 91.7757 50.0693 89.0248 50.31L9.32926 57.2824C6.57834 57.5231 4.15318 55.4882 3.9125 52.7372L3.02814 42.629C7.89654 42.1079 11.4439 37.4303 10.9774 32.0976C10.5108 26.765 6.20508 22.7744 1.32016 23.1067L0.435779 12.9981Z" fill="#F0EBF5"/>
<path fill-rule="evenodd" clip-rule="evenodd" d="M73.553 5.76468L73.1898 1.61387L75.1822 1.43956L75.5453 5.59037L73.553 5.76468ZM75.0056 22.3679L74.2793 14.0663L76.2716 13.892L76.9979 22.1936L75.0056 22.3679ZM76.4582 38.9712L75.7319 30.6695L77.7242 30.4952L78.4505 38.7969L76.4582 38.9712ZM77.5476 51.4236L77.1844 47.2728L79.1768 47.0985L79.54 51.2493L77.5476 51.4236ZM0.435779 12.9981C0.195105 10.2472 2.23006 7.82205 4.98097 7.58137L84.6765 0.608913C87.4275 0.368239 89.8526 2.40319 90.0933 5.15411L90.9775 15.2609C90.9444 15.2634 90.9113 15.2661 90.8781 15.269C85.9265 15.7022 82.2948 20.4243 82.7665 25.8161C83.2382 31.2079 87.6347 35.2276 92.5864 34.7944C92.6195 34.7915 92.6526 34.7884 92.6857 34.7851L93.57 44.8932C93.8107 47.6441 91.7757 50.0693 89.0248 50.31L9.32926 57.2824C6.57834 57.5231 4.15318 55.4882 3.9125 52.7372L3.02814 42.629C7.89654 42.1079 11.4439 37.4303 10.9774 32.0976C10.5108 26.765 6.20508 22.7744 1.32016 23.1067L0.435779 12.9981Z" fill="url(#paint0_linear_2061_5572)"/>
<g filter="url(#filter0_d_2061_5572)">
<path d="M19.6262 27.371L19.7216 28.461L18.2287 28.5916L18.3762 30.2771L19.7683 30.1553L19.8641 31.2497L18.4719 31.3715L18.6481 33.3853L20.141 33.2547L20.2371 34.3536L16.1001 34.7155L15.4892 27.7329L19.6262 27.371ZM23.6068 28.399L23.5236 28.4063L23.4573 31.5309L24.2365 31.4627L23.6068 28.399ZM23.4589 32.4571L23.3583 34.0805L20.7929 34.3049L21.4603 27.2105L25.431 26.8631L27.3421 33.732L24.7723 33.9568L24.3958 32.3752L23.4589 32.4571ZM30.3491 29.5825L31.1065 29.5162L30.9238 27.428L30.1665 27.4943L30.3491 29.5825ZM32.1475 29.8178L32.1542 29.8437C32.7437 29.8597 33.1774 29.9923 33.455 30.2416C33.7354 30.4876 33.8935 30.8164 33.9295 31.2279L34.0969 33.141L31.4439 33.3731L31.1954 30.5319L30.438 30.5982L30.6866 33.4393L28.0424 33.6707L27.4315 26.6881L31.4284 26.3384C31.7582 26.3095 32.0424 26.3141 32.281 26.352C32.5223 26.3868 32.7363 26.4637 32.9232 26.5826C33.1129 26.7013 33.2604 26.8736 33.3654 27.0997C33.4732 27.3226 33.5417 27.6019 33.5711 27.9375C33.5892 28.1447 33.592 28.3283 33.5795 28.4882C33.5668 28.6452 33.5317 28.7982 33.4741 28.9474C33.4195 29.0963 33.3382 29.2254 33.2301 29.3349C33.1218 29.4414 32.9772 29.5364 32.7963 29.6198C32.6154 29.7033 32.3991 29.7693 32.1475 29.8178ZM34.911 33.0698L34.3001 26.0872L36.9443 25.8558L37.4629 31.7834L38.9557 31.6528L39.048 32.7078L34.911 33.0698ZM41.5714 28.2742L41.6108 28.2708L42.18 25.3978L44.614 25.1848L43.0873 30.0208L43.2899 32.3367L40.6414 32.5684L40.4349 30.2088L38.0823 25.7563L40.5339 25.5418L41.5714 28.2742ZM49.9167 27.5618L50.6741 27.4955L50.5182 25.7137L49.7608 25.78L49.9167 27.5618ZM50.1909 30.6963L50.9483 30.63L50.7434 28.2879L49.986 28.3542L50.1909 30.6963ZM51.7065 27.7493L51.7114 27.8062C52.0416 27.8155 52.324 27.8658 52.5584 27.9571C52.7955 28.0451 52.9797 28.1672 53.111 28.3234C53.242 28.4766 53.3388 28.6416 53.4013 28.8185C53.4665 28.9922 53.5088 29.1899 53.5282 29.4118C53.5637 29.8174 53.5505 30.1539 53.4886 30.421C53.4264 30.6852 53.3013 30.9021 53.1132 31.0714C52.928 31.2406 52.695 31.3668 52.414 31.4502C52.1331 31.5336 51.7709 31.5947 51.3272 31.6335L47.6368 31.9564L47.0259 24.9738L50.7339 24.6494C50.9119 24.6338 51.0729 24.6256 51.217 24.6248C51.3607 24.621 51.5112 24.627 51.6685 24.6426C51.8257 24.6583 51.9649 24.6858 52.0859 24.7252C52.2097 24.7614 52.3293 24.8171 52.4446 24.8923C52.5627 24.9643 52.6617 25.0542 52.7417 25.1619C52.8217 25.2696 52.8893 25.4034 52.9445 25.5632C53.0023 25.7199 53.0401 25.9004 53.058 26.1047C53.0986 26.5688 53.0202 26.9329 52.8228 27.1972C52.628 27.4584 52.2559 27.6424 51.7065 27.7493ZM56.4774 24.1469L57.0883 31.1295L54.4441 31.3608L53.8332 24.3782L56.4774 24.1469ZM60.3799 26.9552L61.1372 26.8889L60.9545 24.8007L60.1972 24.8669L60.3799 26.9552ZM62.1782 27.1904L62.1849 27.2163C62.7745 27.2324 63.2081 27.365 63.4857 27.6142C63.7661 27.8602 63.9242 28.189 63.9602 28.6005L64.1276 30.5136L61.4747 30.7457L61.2261 27.9045L60.4687 27.9708L60.7173 30.812L58.0731 31.0433L57.4622 24.0607L61.4591 23.711C61.7889 23.6822 62.0731 23.6867 62.3117 23.7247C62.553 23.7595 62.767 23.8363 62.9539 23.9552C63.1437 24.0739 63.2911 24.2463 63.3961 24.4724C63.5039 24.6953 63.5724 24.9745 63.6018 25.3102C63.6199 25.5174 63.6227 25.7009 63.6103 25.8608C63.5975 26.0178 63.5624 26.1709 63.5049 26.32C63.4502 26.4689 63.3689 26.5981 63.2608 26.7075C63.1525 26.814 63.0079 26.909 62.827 26.9925C62.6461 27.076 62.4298 27.1419 62.1782 27.1904ZM70.5307 24.6422L70.8413 28.1926C70.8584 28.3882 70.8536 28.568 70.8268 28.7321C70.8029 28.8959 70.7552 29.0398 70.6837 29.1637C70.6148 29.2844 70.5346 29.3929 70.443 29.4891C70.3541 29.5822 70.2421 29.6625 70.1068 29.7303C69.9716 29.798 69.8385 29.8567 69.7076 29.9063C69.5793 29.9529 69.4254 29.9928 69.246 30.0261C69.0693 30.0563 68.9082 30.0807 68.7628 30.0993C68.6174 30.1179 68.4469 30.1358 68.2513 30.1529L64.9417 30.4424L64.3308 23.4598L67.6404 23.1703C67.8622 23.1508 68.0596 23.138 68.2326 23.1317C68.4055 23.1254 68.5925 23.1281 68.7935 23.14C68.9943 23.1489 69.1698 23.1717 69.3201 23.2086C69.4704 23.2454 69.6194 23.3015 69.7671 23.3768C69.9175 23.4489 70.0417 23.541 70.1398 23.653C70.2405 23.7618 70.3261 23.8999 70.3966 24.0672C70.4671 24.2346 70.5118 24.4262 70.5307 24.6422ZM67.5003 29.1819L68.2576 29.1156L67.8275 24.1994L67.0702 24.2656L67.5003 29.1819Z" fill="#F0EBF5"/>
</g>
<defs>
<filter id="filter0_d_2061_5572" x="11.4883" y="22.9305" width="63.5039" height="19.785" filterUnits="userSpaceOnUse" color-interpolation-filters="sRGB">
<feFlood flood-opacity="0" result="BackgroundImageFix"/>
<feColorMatrix in="SourceAlpha" type="matrix" values="0 0 0 0 0 0 0 0 0 0 0 0 0 0 0 0 0 0 127 0" result="hardAlpha"/>
<feOffset dy="4"/>
<feGaussianBlur stdDeviation="2"/>
<feComposite in2="hardAlpha" operator="out"/>
<feColorMatrix type="matrix" values="0 0 0 0 0 0 0 0 0 0 0 0 0 0 0 0 0 0 0.25 0"/>
<feBlend mode="normal" in2="BackgroundImageFix" result="effect1_dropShadow_2061_5572"/>
<feBlend mode="normal" in="SourceGraphic" in2="effect1_dropShadow_2061_5572" result="shape"/>
</filter>
<linearGradient id="paint0_linear_2061_5572" x1="93.7628" y1="50.005" x2="3.3424" y2="40.5384" gradientUnits="userSpaceOnUse">
<stop stop-color="#8BE1C2"/>
<stop offset="0.567708" stop-color="#5B69E2"/>
<stop offset="1" stop-color="#A764C9"/>
</linearGradient>
</defs>
</svg>
