<svg xmlns="http://www.w3.org/2000/svg" width="95" height="58" fill="none" viewBox="0 0 95 58">
  <path fill="#A8B4CA" fill-rule="evenodd" d="M73.553 5.592 73.19 1.44l1.992-.175.363 4.151-1.992.175Zm1.453 16.603-.727-8.302 1.993-.174.726 8.301-1.992.175Zm1.452 16.603-.726-8.302 1.992-.174.727 8.302-1.993.174Zm1.09 12.453-.364-4.151 1.993-.175.363 4.151-1.992.175ZM.436 12.825A5 5 0 0 1 4.98 7.408L84.677.436a5 5 0 0 1 5.416 4.545l.885 10.107a8.489 8.489 0 0 0-.1.008c-4.951.433-8.583 5.155-8.112 10.547.472 5.392 4.869 9.411 9.82 8.978l.1-.009.884 10.108a5 5 0 0 1-4.545 5.417L9.329 57.109a5 5 0 0 1-5.417-4.545l-.884-10.108c4.869-.521 8.416-5.199 7.95-10.532-.467-5.332-4.773-9.323-9.658-8.99l-.884-10.11Z" clip-rule="evenodd"/>
  <g filter="url(#a)">
    <path fill="#F0EBF5" d="m19.716 27.19.095 1.09-1.493.13.148 1.686 1.392-.122.096 1.095-1.392.122.176 2.014 1.493-.131.096 1.099-4.137.362-.611-6.983 4.137-.362Zm3.98 1.028-.083.007-.066 3.125.78-.068-.63-3.064Zm-.147 4.058-.101 1.624-2.565.224.667-7.094 3.97-.348 1.912 6.87-2.57.224-.377-1.582-.936.082Zm6.89-2.874.757-.067-.183-2.088-.757.066.183 2.089Zm1.798.235.007.026c.59.016 1.023.148 1.3.398.281.246.44.575.475.986l.168 1.913-2.653.232-.249-2.841-.757.066.248 2.841-2.644.232-.61-6.983 3.996-.35c.33-.028.614-.024.853.014.24.035.455.112.642.23.19.12.337.292.442.518.108.223.176.502.206.838.018.207.02.39.008.55-.012.157-.048.31-.105.46a1.068 1.068 0 0 1-.244.387 1.523 1.523 0 0 1-.434.285 2.83 2.83 0 0 1-.649.198Zm2.764 3.252-.611-6.983 2.644-.231.519 5.927 1.492-.13.093 1.055-4.137.362Zm6.66-4.796.04-.003.569-2.873 2.434-.213-1.527 4.836.203 2.316-2.649.232-.206-2.36-2.353-4.453 2.452-.214 1.037 2.732Zm8.345-.712.758-.066-.156-1.782-.758.066.156 1.782Zm.275 3.134.757-.066-.205-2.342-.757.066.205 2.342Zm1.515-2.947.005.057c.33.01.613.06.847.151.237.088.421.21.553.366.13.154.227.319.29.496.065.173.108.371.127.593.035.406.022.742-.04 1.01a1.23 1.23 0 0 1-.375.65 1.752 1.752 0 0 1-.7.378c-.28.084-.642.145-1.086.184l-3.69.323-.611-6.983 3.708-.325c.178-.015.339-.023.483-.024a3.61 3.61 0 0 1 .451.018c.157.015.296.043.418.082.123.037.243.092.358.167.118.073.217.162.297.27.08.108.148.241.203.401.058.157.096.337.114.542.04.464-.038.828-.236 1.092-.194.262-.566.446-1.116.552Zm4.771-3.602.61 6.983-2.643.231-.611-6.983 2.644-.231Zm3.902 2.808.758-.066-.183-2.088-.757.066.182 2.088Zm1.799.235.007.026c.59.017 1.023.15 1.3.398.28.246.439.575.475.987l.167 1.913-2.653.232-.248-2.841-.758.066.249 2.841-2.644.232-.611-6.983 3.997-.35c.33-.029.614-.024.852.014a1.6 1.6 0 0 1 .642.23c.19.119.338.291.443.517.108.223.176.503.205.838.019.207.021.391.009.551-.013.157-.048.31-.106.46a1.066 1.066 0 0 1-.244.387 1.52 1.52 0 0 1-.433.285 2.83 2.83 0 0 1-.65.197Zm8.352-2.548.311 3.55c.017.196.012.376-.015.54a1.203 1.203 0 0 1-.143.432c-.069.12-.149.229-.24.325a1.205 1.205 0 0 1-.337.241 4.322 4.322 0 0 1-.399.177 2.959 2.959 0 0 1-.461.12 11.903 11.903 0 0 1-.995.126l-3.31.29-.61-6.983 3.31-.29a11.7 11.7 0 0 1 .591-.038c.173-.006.36-.004.561.008.201.009.377.032.527.069.15.037.299.093.447.168.15.072.274.164.372.276.101.109.187.247.257.414a1.9 1.9 0 0 1 .134.575Zm-3.03 4.54.757-.066-.43-4.916-.757.066.43 4.916Z"/>
  </g>
  <defs>
    <filter id="a" width="63.504" height="19.785" x="11.578" y="22.75" color-interpolation-filters="sRGB" filterUnits="userSpaceOnUse">
      <feFlood flood-opacity="0" result="BackgroundImageFix"/>
      <feColorMatrix in="SourceAlpha" result="hardAlpha" values="0 0 0 0 0 0 0 0 0 0 0 0 0 0 0 0 0 0 127 0"/>
      <feOffset dy="4"/>
      <feGaussianBlur stdDeviation="2"/>
      <feComposite in2="hardAlpha" operator="out"/>
      <feColorMatrix values="0 0 0 0 0 0 0 0 0 0 0 0 0 0 0 0 0 0 0.25 0"/>
      <feBlend in2="BackgroundImageFix" result="effect1_dropShadow_3156_17737"/>
      <feBlend in="SourceGraphic" in2="effect1_dropShadow_3156_17737" result="shape"/>
    </filter>
  </defs>
</svg>
