<svg width="95" height="59" viewBox="0 0 95 59" fill="none" xmlns="http://www.w3.org/2000/svg">
<path fill-rule="evenodd" clip-rule="evenodd" d="M74.053 6.2453L73.6898 2.09449L75.6822 1.92017L76.0454 6.07099L74.053 6.2453ZM75.5056 22.8485L74.7793 14.5469L76.7716 14.3726L77.4979 22.6742L75.5056 22.8485ZM76.9582 39.4518L76.2319 31.1502L78.2242 30.9758L78.9505 39.2775L76.9582 39.4518ZM78.0476 51.9042L77.6844 47.7534L79.6768 47.5791L80.04 51.7299L78.0476 51.9042ZM0.935779 13.4787C0.695105 10.7278 2.73006 8.30266 5.48097 8.06199L85.1765 1.08953C87.9275 0.848853 90.3526 2.88381 90.5933 5.63472L91.4775 15.7415C91.4444 15.744 91.4113 15.7467 91.3781 15.7496C86.4265 16.1828 82.7948 20.9049 83.2665 26.2967C83.7382 31.6885 88.1347 35.7082 93.0864 35.275C93.1195 35.2721 93.1526 35.269 93.1857 35.2657L94.07 45.3738C94.3107 48.1248 92.2757 50.5499 89.5248 50.7906L9.82926 57.7631C7.07834 58.0037 4.65318 55.9688 4.4125 53.2179L3.52814 43.1096C8.39654 42.5885 11.9439 37.9109 11.4774 32.5783C11.0108 27.2456 6.70508 23.255 1.82016 23.5873L0.935779 13.4787Z" fill="#A8B4CA"/>
<g filter="url(#filter0_d_2061_5636)">
<path d="M19.5606 27.9011L19.656 28.9911L18.1631 29.1217L18.3106 30.8072L19.7027 30.6854L19.7985 31.7799L18.4063 31.9016L18.5825 33.9154L20.0754 33.7848L20.1715 34.8837L16.0345 35.2456L15.4236 28.263L19.5606 27.9011ZM24.5668 34.4991L22.5215 31.5416L22.7938 34.6542L20.8325 34.8258L20.2216 27.8432L22.485 27.6452L24.6633 30.8116L24.3718 27.4801L26.3155 27.3101L26.9264 34.2927L24.5668 34.4991ZM32.4795 26.7708L32.5825 27.9484L31.024 28.0848L31.5319 33.8898L28.8877 34.1211L28.3798 28.3161L26.8345 28.4513L26.7314 27.2737L32.4795 26.7708ZM37.0368 26.3721L37.1322 27.4622L35.6393 27.5928L35.7868 29.2782L37.1789 29.1564L37.2747 30.2509L35.8825 30.3727L36.0587 32.3865L37.5516 32.2559L37.6477 33.3547L33.5107 33.7166L32.8998 26.734L37.0368 26.3721ZM40.6155 29.2087L41.3729 29.1424L41.1902 27.0542L40.4328 27.1205L40.6155 29.2087ZM42.4139 29.4439L42.4205 29.4698C43.0101 29.4859 43.4437 29.6185 43.7214 29.8677C44.0017 30.1138 44.1599 30.4425 44.1959 30.8541L44.3633 32.7672L41.7103 32.9993L41.4617 30.1581L40.7044 30.2243L40.9529 33.0655L38.3087 33.2969L37.6979 26.3143L41.6948 25.9646C42.0246 25.9357 42.3088 25.9403 42.5474 25.9782C42.7886 26.013 43.0027 26.0898 43.1895 26.2088C43.3793 26.3274 43.5267 26.4998 43.6318 26.7259C43.7395 26.9488 43.8081 27.2281 43.8374 27.5637C43.8556 27.7709 43.8584 27.9545 43.8459 28.1144C43.8332 28.2713 43.798 28.4244 43.7405 28.5735C43.6859 28.7224 43.6046 28.8516 43.4965 28.961C43.3882 29.0676 43.2436 29.1626 43.0627 29.246C42.8817 29.3295 42.6655 29.3955 42.4139 29.4439ZM47.3973 29.7314L48.1547 29.6651L47.8736 26.4518L47.1162 26.5181L47.3973 29.7314ZM44.3871 25.729L47.6924 25.4398C47.9142 25.4204 48.1116 25.4076 48.2845 25.4013C48.4575 25.395 48.6445 25.3977 48.8455 25.4095C49.0463 25.4184 49.2218 25.4413 49.372 25.4782C49.5223 25.515 49.6713 25.5711 49.8191 25.6464C49.9695 25.7185 50.0937 25.8106 50.1917 25.9226C50.2924 26.0314 50.378 26.1695 50.4485 26.3368C50.5191 26.5042 50.5638 26.6958 50.5827 26.9118L50.7401 28.7111C50.7554 28.8862 50.7519 29.0483 50.7297 29.1972C50.7101 29.3431 50.6759 29.474 50.6273 29.59C50.5813 29.7028 50.5154 29.8071 50.4297 29.9028C50.3466 29.9954 50.2595 30.0751 50.1683 30.1419C50.0771 30.2087 49.9662 30.2698 49.8358 30.3253C49.7054 30.3809 49.5799 30.4257 49.4594 30.4597C49.3418 30.4935 49.2019 30.5249 49.0397 30.5538C48.8802 30.5795 48.7351 30.601 48.6042 30.6184C48.4761 30.6325 48.3259 30.6471 48.1537 30.6622L47.4883 30.7204L47.6422 32.4803L44.998 32.7116L44.3871 25.729ZM54.0029 28.0374L54.7602 27.9712L54.5775 25.883L53.8202 25.9492L54.0029 28.0374ZM55.8012 28.2727L55.8079 28.2986C56.3975 28.3146 56.8311 28.4473 57.1087 28.6965C57.3891 28.9425 57.5472 29.2713 57.5832 29.6828L57.7506 31.5959L55.0976 31.828L54.8491 28.9868L54.0917 29.0531L54.3403 31.8943L51.6961 32.1256L51.0852 25.143L55.0821 24.7933C55.4119 24.7645 55.6961 24.769 55.9347 24.807C56.176 24.8417 56.39 24.9186 56.5769 25.0375C56.7666 25.1562 56.9141 25.3286 57.0191 25.5547C57.1269 25.7776 57.1954 26.0568 57.2248 26.3925C57.2429 26.5997 57.2457 26.7832 57.2332 26.9431C57.2205 27.1001 57.1854 27.2532 57.1278 27.4023C57.0732 27.5512 56.9919 27.6803 56.8838 27.7898C56.7755 27.8963 56.6309 27.9913 56.45 28.0748C56.2691 28.1583 56.0528 28.2242 55.8012 28.2727ZM60.4187 24.3264L61.0296 31.309L58.3854 31.5404L57.7745 24.5578L60.4187 24.3264ZM63.7682 26.1067L63.7821 26.1143C63.7837 26.1318 63.7881 26.1491 63.7955 26.1661C63.8058 26.1828 63.8188 26.1979 63.8347 26.2112C63.8532 26.2213 63.8703 26.2316 63.8859 26.242C63.9042 26.2492 63.927 26.2575 63.9543 26.2669C63.9842 26.2731 64.0082 26.2783 64.0262 26.2826C64.0472 26.2867 64.0741 26.2917 64.107 26.2976C64.1425 26.3004 64.1691 26.3025 64.1869 26.3039C64.2047 26.3053 64.2313 26.3073 64.2669 26.3101C64.3024 26.3129 64.3261 26.3152 64.338 26.3171C65.0049 26.3764 65.4857 26.4432 65.7804 26.5174C66.4448 26.6828 66.903 26.9956 67.155 27.4558C67.2945 27.7054 67.3797 28.0067 67.4106 28.3598C67.4548 28.8648 67.4357 29.2855 67.3534 29.6221C67.274 29.9584 67.1172 30.2339 66.8831 30.4484C66.6519 30.6628 66.3601 30.8236 66.0077 30.9309C65.6583 31.0379 65.2107 31.1153 64.665 31.163C64.4665 31.1804 64.2881 31.1916 64.1297 31.1966C63.9716 31.2046 63.7893 31.2044 63.5827 31.196C63.379 31.1873 63.1978 31.1664 63.039 31.1332C62.8802 31.1001 62.7154 31.0483 62.5446 30.978C62.3767 30.9074 62.2323 30.82 62.1114 30.7159C61.9932 30.6086 61.8872 30.4723 61.7933 30.307C61.6994 30.1417 61.6328 29.952 61.5935 29.7378C61.5586 29.5409 61.5316 29.333 61.5125 29.1141L64.021 28.8946L64.1179 30.0022L64.8752 29.9359L64.7795 28.8415C64.7746 28.786 64.7558 28.7392 64.7231 28.7008C64.69 28.6596 64.64 28.6258 64.573 28.5993C64.5057 28.5699 64.4525 28.5495 64.4133 28.5383C64.3741 28.527 64.3124 28.5118 64.2284 28.4927C64.1293 28.469 64.0005 28.442 63.842 28.4118C63.6832 28.3786 63.5484 28.3507 63.4376 28.3281C63.3297 28.3052 63.2007 28.2753 63.0504 28.2384C62.9031 28.2013 62.7764 28.1653 62.6704 28.1305C62.5642 28.0927 62.4468 28.0457 62.3184 27.9893C62.1926 27.9297 62.0842 27.8671 61.9932 27.8016C61.9048 27.7328 61.814 27.6525 61.7207 27.5607C61.6271 27.466 61.5505 27.3639 61.4909 27.2544C61.4311 27.142 61.3786 27.0128 61.3335 26.8667C61.2913 26.7204 61.2627 26.5612 61.2476 26.389C61.2241 26.1205 61.2276 25.8746 61.2581 25.6514C61.2885 25.4282 61.3406 25.2339 61.4144 25.0687C61.4882 24.9034 61.5871 24.7565 61.7111 24.628C61.8378 24.4964 61.9739 24.3874 62.1192 24.3012C62.2675 24.2147 62.439 24.1409 62.6336 24.0797C62.8309 24.0154 63.028 23.9658 63.225 23.9309C63.4248 23.8958 63.6473 23.8675 63.8925 23.8461C64.1493 23.8236 64.3776 23.811 64.5773 23.8082C64.7797 23.8023 64.9818 23.8096 65.1836 23.8302C65.388 23.8476 65.566 23.882 65.7176 23.9334C65.8689 23.982 66.0131 24.0502 66.1502 24.1382C66.2873 24.2262 66.4013 24.3368 66.4924 24.47C66.5832 24.6003 66.6604 24.7597 66.7239 24.9482C66.7875 25.1368 66.8298 25.3521 66.851 25.5944L64.5045 25.7997L64.4363 25.0204L63.679 25.0867L63.7682 26.1067ZM71.7178 23.3379L71.8132 24.428L70.3203 24.5586L70.4678 26.244L71.8599 26.1222L71.9557 27.2167L70.5635 27.3385L70.7397 29.3523L72.2326 29.2217L72.3287 30.3205L68.1917 30.6824L67.5808 23.6998L71.7178 23.3379Z" fill="#F0EBF5"/>
</g>
<defs>
<filter id="filter0_d_2061_5636" x="11.4082" y="23.1628" width="64.9355" height="20.2536" filterUnits="userSpaceOnUse" color-interpolation-filters="sRGB">
<feFlood flood-opacity="0" result="BackgroundImageFix"/>
<feColorMatrix in="SourceAlpha" type="matrix" values="0 0 0 0 0 0 0 0 0 0 0 0 0 0 0 0 0 0 127 0" result="hardAlpha"/>
<feOffset dy="4"/>
<feGaussianBlur stdDeviation="2"/>
<feComposite in2="hardAlpha" operator="out"/>
<feColorMatrix type="matrix" values="0 0 0 0 0 0 0 0 0 0 0 0 0 0 0 0 0 0 0.25 0"/>
<feBlend mode="normal" in2="BackgroundImageFix" result="effect1_dropShadow_2061_5636"/>
<feBlend mode="normal" in="SourceGraphic" in2="effect1_dropShadow_2061_5636" result="shape"/>
</filter>
</defs>
</svg>
