<svg xmlns="http://www.w3.org/2000/svg" width="95" height="58" fill="none" viewBox="0 0 95 58">
  <path fill="#A8B4CA" fill-rule="evenodd" d="M73.553 5.592 73.19 1.44l1.992-.175.363 4.151-1.992.175Zm1.453 16.603-.727-8.302 1.993-.174.726 8.301-1.992.175Zm1.452 16.603-.726-8.302 1.992-.174.727 8.302-1.993.174Zm1.09 12.453-.364-4.151 1.993-.175.363 4.151-1.992.175ZM.436 12.825A5 5 0 0 1 4.98 7.408L84.677.436a5 5 0 0 1 5.416 4.545l.885 10.107a8.489 8.489 0 0 0-.1.008c-4.951.433-8.583 5.155-8.112 10.547.472 5.392 4.869 9.411 9.82 8.978l.1-.009.884 10.108a5 5 0 0 1-4.545 5.417L9.329 57.109a5 5 0 0 1-5.417-4.545l-.884-10.108c4.869-.521 8.416-5.199 7.95-10.532-.467-5.332-4.773-9.323-9.658-8.99l-.884-10.11Z" clip-rule="evenodd"/>
  <g filter="url(#a)">
    <path fill="#F0EBF5" d="m19.847 34.215-.61-6.983 2.644-.231.518 5.927 1.493-.13.092 1.055-4.137.362Zm7.402-6.308-.083.008-.067 3.124.78-.068-.63-3.064Zm-.148 4.058-.1 1.624-2.566.224.668-7.094 3.97-.348 1.911 6.87-2.57.224-.376-1.582-.937.082Zm8.937-6.203.103 1.178-1.558.136.508 5.805-2.645.231-.508-5.805-1.545.136-.103-1.178 5.748-.503Zm4.737-.414.095 1.09-1.493.13.148 1.686 1.392-.122.096 1.095-1.393.121.177 2.014 1.492-.13.097 1.098-4.137.362-.611-6.982 4.137-.362Zm5.574 2.353.757-.066-.156-1.782-.757.066.156 1.782Zm.274 3.134.757-.066-.205-2.342-.757.066.205 2.342Zm1.516-2.947.005.057c.33.01.612.06.846.151.238.088.422.21.553.366.131.154.228.319.29.496.066.173.108.371.127.593.036.406.023.742-.04 1.01a1.23 1.23 0 0 1-.375.65 1.755 1.755 0 0 1-.699.378 5.65 5.65 0 0 1-1.087.184l-3.69.323-.611-6.983 3.708-.325c.178-.015.339-.023.483-.024.144-.004.294.002.452.018.157.015.296.043.417.082.124.037.243.092.359.167.118.073.217.162.297.27.08.108.147.242.203.401.057.157.095.337.113.542.04.464-.038.828-.235 1.092-.195.262-.567.446-1.116.552Zm4.77-3.602.611 6.983-2.644.231-.61-6.983 2.644-.231Zm3.903 2.808.757-.066-.182-2.088-.758.066.183 2.088Zm1.798.235.007.026c.59.017 1.023.15 1.3.398.281.246.44.575.475.987l.168 1.913-2.653.232-.249-2.841-.757.066.248 2.841-2.644.232-.61-6.983 3.996-.35c.33-.029.614-.024.853.014.241.035.455.111.642.23.19.119.337.291.442.517.108.223.176.503.206.838.018.207.02.391.008.551-.012.157-.047.31-.105.46a1.066 1.066 0 0 1-.244.387 1.522 1.522 0 0 1-.434.285c-.18.083-.397.15-.649.197Zm8.353-2.548.31 3.55a2.17 2.17 0 0 1-.014.54 1.203 1.203 0 0 1-.143.432c-.07.12-.15.229-.24.325a1.205 1.205 0 0 1-.337.241 4.298 4.298 0 0 1-.4.177 2.945 2.945 0 0 1-.46.12 11.712 11.712 0 0 1-.996.126l-3.31.29-.61-6.983 3.31-.29c.221-.019.419-.032.592-.038.173-.006.36-.004.56.008.201.009.377.032.527.069.15.037.3.093.447.168.15.072.275.164.373.276.1.109.186.247.257.414.07.168.115.36.134.575Zm-3.03 4.54.757-.066-.43-4.916-.758.066.43 4.916Z"/>
  </g>
  <defs>
    <filter id="a" width="56.188" height="19.145" x="15.236" y="23.07" color-interpolation-filters="sRGB" filterUnits="userSpaceOnUse">
      <feFlood flood-opacity="0" result="BackgroundImageFix"/>
      <feColorMatrix in="SourceAlpha" result="hardAlpha" values="0 0 0 0 0 0 0 0 0 0 0 0 0 0 0 0 0 0 127 0"/>
      <feOffset dy="4"/>
      <feGaussianBlur stdDeviation="2"/>
      <feComposite in2="hardAlpha" operator="out"/>
      <feColorMatrix values="0 0 0 0 0 0 0 0 0 0 0 0 0 0 0 0 0 0 0.25 0"/>
      <feBlend in2="BackgroundImageFix" result="effect1_dropShadow_3156_17737"/>
      <feBlend in="SourceGraphic" in2="effect1_dropShadow_3156_17737" result="shape"/>
    </filter>
  </defs>
</svg>
