<svg xmlns="http://www.w3.org/2000/svg" width="102" height="66" fill="none" viewBox="0 0 102 66">
  <g filter="url(#a)">
    <path fill="#F0EBF5" fill-rule="evenodd" d="M77.553 5.592 77.19 1.44l1.992-.175.363 4.151-1.992.175Zm1.453 16.603-.727-8.302 1.993-.174.726 8.301-1.992.175Zm1.452 16.603-.726-8.302 1.992-.174.727 8.302-1.993.174Zm1.09 12.453-.364-4.151 1.993-.175.363 4.151-1.992.175ZM4.436 12.825A5 5 0 0 1 8.98 7.408L88.677.436a5 5 0 0 1 5.416 4.545l.885 10.107a8.489 8.489 0 0 0-.1.008c-4.951.433-8.583 5.155-8.112 10.547.472 5.392 4.869 9.411 9.82 8.978l.1-.009.884 10.108a5 5 0 0 1-4.545 5.417l-79.696 6.972a5 5 0 0 1-5.417-4.545l-.884-10.108c4.869-.521 8.416-5.199 7.95-10.532-.467-5.332-4.773-9.323-9.658-8.99l-.884-10.109Z" clip-rule="evenodd"/>
    <path fill="url(#b)" fill-rule="evenodd" d="M77.553 5.592 77.19 1.44l1.992-.175.363 4.151-1.992.175Zm1.453 16.603-.727-8.302 1.993-.174.726 8.301-1.992.175Zm1.452 16.603-.726-8.302 1.992-.174.727 8.302-1.993.174Zm1.09 12.453-.364-4.151 1.993-.175.363 4.151-1.992.175ZM4.436 12.825A5 5 0 0 1 8.98 7.408L88.677.436a5 5 0 0 1 5.416 4.545l.885 10.107a8.489 8.489 0 0 0-.1.008c-4.951.433-8.583 5.155-8.112 10.547.472 5.392 4.869 9.411 9.82 8.978l.1-.009.884 10.108a5 5 0 0 1-4.545 5.417l-79.696 6.972a5 5 0 0 1-5.417-4.545l-.884-10.108c4.869-.521 8.416-5.199 7.95-10.532-.467-5.332-4.773-9.323-9.658-8.99l-.884-10.109Z" clip-rule="evenodd"/>
    <g filter="url(#c)">
      <path fill="#F0EBF5" d="m28.185 29.949.758-.067-.183-2.088-.758.066.183 2.089Zm1.799.235.006.026c.59.016 1.023.149 1.301.398.28.246.439.575.475.986l.167 1.913-2.653.232-.249-2.84-.757.065.249 2.842-2.645.23-.61-6.982 3.997-.35a3.54 3.54 0 0 1 .852.014c.241.035.455.112.642.23.19.12.337.292.442.518.108.223.177.502.206.838.018.207.021.39.009.55-.013.157-.048.31-.106.46a1.068 1.068 0 0 1-.244.387 1.524 1.524 0 0 1-.434.285c-.18.084-.397.15-.649.198Zm6.29-4.093.094 1.09-1.492.131.147 1.686 1.392-.122.096 1.094-1.392.122.176 2.014 1.493-.13.096 1.098-4.137.362-.61-6.983 4.136-.361Zm4.945 6.057c-.25.501-.742.784-1.475.848a2.902 2.902 0 0 1-.806-.035 2.146 2.146 0 0 1-.679-.254 1.407 1.407 0 0 1-.495-.508 1.803 1.803 0 0 1-.23-.765l-.332-3.805a1.758 1.758 0 0 1 .047-.622c.05-.19.125-.35.222-.482.1-.133.23-.25.388-.352.159-.105.32-.19.481-.254.162-.064.35-.12.563-.168.217-.048.41-.084.582-.108a11.7 11.7 0 0 1 .59-.065 7.81 7.81 0 0 1 1.11-.018c.212.011.407.035.584.073.177.034.355.09.535.169.18.075.334.17.462.282.127.11.235.251.324.426.089.174.143.372.162.594l.095 1.086-2.648.232-.146-1.66-.757.067.43 4.916.757-.066-.116-1.327-.372.033-.088-1.011 3.02-.265.295 3.367-2.132.186-.371-.514Zm5.95-1.006.758-.066-.521-5.954 2.648-.232.47 5.359c.02.227.002.436-.052.626a1.44 1.44 0 0 1-.223.478 1.457 1.457 0 0 1-.388.356c-.158.105-.318.19-.48.254-.162.064-.351.12-.568.169a7.074 7.074 0 0 1-.581.108 11.867 11.867 0 0 1-1.139.1c-.166.008-.36.008-.578-.003a3.96 3.96 0 0 1-.588-.067 2.853 2.853 0 0 1-.526-.166 1.612 1.612 0 0 1-.453-.282 1.508 1.508 0 0 1-.316-.436 1.765 1.765 0 0 1-.16-.613l-.468-5.358 2.644-.231.521 5.958Zm4.45.643-.61-6.983 2.644-.231.518 5.927 1.493-.13.092 1.055-4.137.362Zm7.402-6.307-.083.007-.067 3.125.78-.069-.63-3.063Zm-.148 4.058-.1 1.623-2.566.225.667-7.095 3.971-.347 1.911 6.869-2.57.224-.376-1.581-.937.082Zm6.89-2.875.758-.066-.183-2.088-.757.066.182 2.088Zm1.799.235.006.026c.59.016 1.023.149 1.301.398.28.246.439.575.475.986l.167 1.914-2.653.232-.249-2.842-.757.067.249 2.84-2.645.232-.61-6.982 3.997-.35c.33-.029.614-.024.852.014.241.034.455.111.642.23.19.119.337.291.442.517.108.223.177.502.206.838.018.207.021.39.009.55-.013.158-.048.31-.106.46a1.067 1.067 0 0 1-.244.387 1.52 1.52 0 0 1-.434.285c-.18.084-.397.15-.648.198Z"/>
    </g>
  </g>
  <defs>
    <filter id="a" width="102.016" height="65.654" x="0" y="0" color-interpolation-filters="sRGB" filterUnits="userSpaceOnUse">
      <feFlood flood-opacity="0" result="BackgroundImageFix"/>
      <feColorMatrix in="SourceAlpha" result="hardAlpha" values="0 0 0 0 0 0 0 0 0 0 0 0 0 0 0 0 0 0 127 0"/>
      <feOffset dy="4"/>
      <feGaussianBlur stdDeviation="2"/>
      <feComposite in2="hardAlpha" operator="out"/>
      <feColorMatrix values="0 0 0 0 0 0 0 0 0 0 0 0 0 0 0 0 0 0 0.25 0"/>
      <feBlend in2="BackgroundImageFix" result="effect1_dropShadow_3154_17726"/>
      <feBlend in="SourceGraphic" in2="effect1_dropShadow_3154_17726" result="shape"/>
    </filter>
    <filter id="c" width="52.273" height="19.15" x="21.252" y="23.057" color-interpolation-filters="sRGB" filterUnits="userSpaceOnUse">
      <feFlood flood-opacity="0" result="BackgroundImageFix"/>
      <feColorMatrix in="SourceAlpha" result="hardAlpha" values="0 0 0 0 0 0 0 0 0 0 0 0 0 0 0 0 0 0 127 0"/>
      <feOffset dy="4"/>
      <feGaussianBlur stdDeviation="2"/>
      <feComposite in2="hardAlpha" operator="out"/>
      <feColorMatrix values="0 0 0 0 0 0 0 0 0 0 0 0 0 0 0 0 0 0 0.25 0"/>
      <feBlend in2="BackgroundImageFix" result="effect1_dropShadow_3154_17726"/>
      <feBlend in="SourceGraphic" in2="effect1_dropShadow_3154_17726" result="shape"/>
    </filter>
    <linearGradient id="b" x1="97.763" x2="7.342" y1="49.832" y2="40.365" gradientUnits="userSpaceOnUse">
      <stop stop-color="#8BE1C2"/>
      <stop offset=".568" stop-color="#5B69E2"/>
      <stop offset="1" stop-color="#A764C9"/>
    </linearGradient>
  </defs>
</svg>
