<svg width="638" height="167" viewBox="0 0 638 167" fill="none" xmlns="http://www.w3.org/2000/svg">
<g clip-path="url(#clip0_2545_16600)">
<path d="M240.912 78.6724C240.166 78.6724 239.561 79.2778 239.561 80.0237C239.561 80.7696 240.166 81.375 240.912 81.375C241.658 81.375 242.263 80.7696 242.263 80.0237C242.263 79.2778 241.658 78.6724 240.912 78.6724Z" fill="#7568F6"/>
<path d="M244.239 74.3025L237.817 72.162L235.511 67.5503C237.588 65.436 239.03 62.6385 239.517 59.7205L239.804 57.9969H242.264C244.499 57.9969 246.318 56.1783 246.318 53.9429V45.4295C246.318 34.2526 237.224 25.1594 226.048 25.1594C214.842 25.1594 205.777 34.2265 205.777 45.4295V53.9429C205.777 55.7045 206.907 57.2066 208.48 57.7645V59.3482C208.48 61.5836 210.299 63.4022 212.534 63.4022H213.721C214.307 64.6748 215.065 65.8534 215.988 66.9122C216.179 67.1322 216.379 67.3454 216.583 67.5529L214.278 72.162L207.855 74.3027C200.387 76.7929 194.967 84.6548 194.967 92.9965C194.967 93.7428 195.572 94.3478 196.318 94.3478H255.777C256.523 94.3478 257.128 93.7428 257.128 92.9965C257.128 84.6548 251.708 76.7929 244.239 74.3025ZM243.615 53.9429C243.615 54.688 243.009 55.2942 242.264 55.2942H240.201C240.545 52.6334 240.774 49.802 240.866 47.0132C240.868 46.9346 240.87 46.8581 240.873 46.7808H243.615V53.9429ZM209.831 55.2942C209.086 55.2942 208.48 54.688 208.48 53.9429V46.7808H211.223C211.228 46.9217 211.232 47.0634 211.238 47.2059C211.238 47.2108 211.238 47.2155 211.238 47.2204C211.238 47.2208 211.238 47.2212 211.238 47.2216C211.333 49.934 211.559 52.6919 211.894 55.2941H209.831V55.2942ZM212.534 60.6996C211.789 60.6996 211.183 60.0934 211.183 59.3482V57.9969H212.291L212.578 59.7211C212.633 60.0488 212.701 60.3752 212.778 60.6996H212.534ZM211.185 44.0781H208.532C209.216 35.0213 216.774 27.8621 226.048 27.8621C235.28 27.8621 242.871 35.0204 243.563 44.0781H240.91C240.813 36.6151 234.735 30.5648 227.257 30.5648H224.838C217.36 30.5648 211.282 36.6151 211.185 44.0781ZM224.838 33.2674H227.257C233.312 33.2674 238.213 38.2202 238.21 44.2687C238.21 44.6939 238.206 45.0642 238.199 45.4011C238.199 45.4054 238.199 45.4099 238.199 45.4143L236.509 45.1728C231.917 44.5172 227.581 42.3494 224.3 39.0686C224.047 38.8152 223.703 38.6728 223.345 38.6728C219.716 38.6728 216.242 40.3263 213.945 43.1198C214.511 37.6173 219.163 33.2674 224.838 33.2674ZM215.58 60.6996C214.904 58.4492 214.13 51.8276 213.958 47.5844L215.777 45.1593C217.448 42.9329 220.046 41.5495 222.811 41.3907C226.448 44.8523 231.154 47.1382 236.126 47.8482L238.116 48.1325C237.983 50.9548 237.711 53.7869 237.322 56.3916C237.322 56.3925 237.322 56.3934 237.321 56.3943C237.198 57.2318 237.1 57.7707 236.851 59.2759C236.135 63.5684 232.932 67.4502 228.704 68.5073C226.964 68.9418 225.131 68.9416 223.392 68.5073C220.752 67.8473 218.331 66.0206 216.768 63.4022H219.523C220.081 64.9751 221.583 66.1049 223.345 66.1049H226.048C228.287 66.1049 230.102 64.2909 230.102 62.0509C230.102 59.8155 228.283 57.9969 226.048 57.9969H223.345C221.544 57.9969 220.064 59.1601 219.521 60.6996H215.58ZM223.231 71.2421C224.158 71.4374 225.103 71.5373 226.048 71.5373C226.787 71.5373 227.526 71.4754 228.257 71.3554L225.87 73.8806L223.231 71.2421ZM224.012 75.8452L219.726 80.3779C218.546 78.1192 217.532 75.7686 216.7 73.3621L218.31 70.143L224.012 75.8452ZM233.556 69.6851L235.395 73.362C234.562 75.7725 233.548 78.124 232.369 80.3799L227.781 75.7924L233.556 69.6851ZM221.994 62.0509C221.994 61.3048 222.599 60.6996 223.345 60.6996H226.048C226.793 60.6996 227.399 61.3058 227.399 62.0509C227.399 62.7971 226.794 63.4022 226.048 63.4022H223.345C222.6 63.4022 221.994 62.796 221.994 62.0509ZM197.724 91.6452C198.259 84.9508 202.714 78.866 208.71 76.8665L214.398 74.9709C215.441 77.8526 216.732 80.6535 218.245 83.314C218.247 83.3186 218.25 83.3232 218.252 83.3277C218.252 83.3278 218.252 83.3278 218.252 83.328C219.358 85.2724 220.602 87.1725 221.951 88.9764L223.614 91.6452H197.724ZM226.048 90.4406L224.215 87.4983C224.194 87.4653 224.172 87.4333 224.149 87.4022C223.055 85.9425 222.034 84.4159 221.104 82.8534L225.924 77.7569L231.002 82.835C230.066 84.4089 229.041 85.9418 227.946 87.402C227.88 87.4902 227.974 87.3512 226.048 90.4406ZM228.481 91.6452L230.144 88.9765C231.499 87.1658 232.752 85.2504 233.868 83.2831C233.875 83.2712 233.881 83.259 233.888 83.2471C233.889 83.2457 233.89 83.2443 233.891 83.2428C235.385 80.6077 236.662 77.8311 237.697 74.9709L243.385 76.8665C249.381 78.866 253.836 84.9508 254.372 91.6452H228.481Z" fill="#F0EBF5"/>
<path d="M250.311 86.1768C249.408 84.3691 248.085 82.7632 246.486 81.5327C245.894 81.0774 245.046 81.1881 244.591 81.7797C244.136 82.3713 244.246 83.2197 244.838 83.6748C246.116 84.6576 247.172 85.9405 247.893 87.3846C248.228 88.0534 249.04 88.3226 249.706 87.9896C250.374 87.6561 250.645 86.8445 250.311 86.1768Z" fill="#7568F6"/>
</g>
<circle cx="225.598" cy="62" r="60.5" stroke="#F0EBF5" stroke-width="3"/>
<path d="M154.426 158.31V159.426H170.77V158.31H154.426ZM154.948 148.284V149.364H170.032V148.284H154.948ZM165.154 157.14V161.964C165.154 162.198 165.064 162.27 164.776 162.288C164.47 162.306 163.462 162.306 162.382 162.27C162.562 162.612 162.742 163.098 162.796 163.44C164.254 163.44 165.172 163.44 165.748 163.26C166.306 163.062 166.45 162.702 166.45 162V157.14H165.154ZM161.896 146.916V156.564H163.228V146.916H161.896ZM157.306 160.182C158.386 160.848 159.646 161.838 160.258 162.558L161.248 161.658C160.618 160.956 159.286 160.002 158.224 159.39L157.306 160.182ZM157.612 153.27H167.62V154.386H157.612V153.27ZM157.612 151.29H167.62V152.388H157.612V151.29ZM156.334 150.39V155.304H168.934V150.39H156.334ZM165.262 155.682C166.684 156.168 168.394 157.104 169.276 157.824L170.086 157.05C169.186 156.384 167.476 155.484 166.036 154.998L165.262 155.682ZM155.146 156.348L155.2 157.41C158.602 157.356 163.714 157.248 168.52 157.122L168.592 156.204C163.66 156.294 158.422 156.348 155.146 156.348ZM179.662 147.438C179.536 149.832 179.536 158.49 172.192 162.234C172.606 162.54 173.056 162.954 173.29 163.296C180.742 159.246 181.012 150.264 181.156 147.438H179.662ZM181.102 147.798L179.806 147.924C179.932 149.58 180.436 159.642 188.068 163.296C188.284 162.918 188.698 162.468 189.094 162.162C181.678 158.76 181.156 149.202 181.102 147.798ZM201.37 148.014V149.22H204.7V148.014H201.37ZM197.212 148.896V150.048H201.01V148.896H197.212ZM201.55 151.344V152.478H204.664V151.344H201.55ZM201.514 154.71V155.844H204.574V154.71H201.514ZM192.64 151.344V152.478H195.7V151.344H192.64ZM192.712 154.692V155.844H195.718V154.692H192.712ZM191.92 148.14L192.28 158.598H193.504L193.18 148.842C193.396 148.806 193.486 148.734 193.522 148.626L191.92 148.14ZM203.962 148.014C203.98 151.326 203.836 155.916 203.638 158.562H204.916C205.096 155.97 205.204 151.398 205.222 148.014H203.962ZM195.232 147.06C194.512 147.546 193.306 148.194 192.262 148.68C192.406 148.95 192.622 149.382 192.694 149.616C193.846 149.184 195.196 148.608 196.294 148.032L195.232 147.06ZM196.618 153.81V158.49H197.734V153.81H196.618ZM196.636 147.042V153.018H200.146V151.92H197.806V147.042H196.636ZM199.48 151.92V158.472H200.65V151.92H199.48ZM190.39 158.022V159.282H206.824V158.022H190.39ZM200.272 160.434C202.198 161.388 204.25 162.612 205.456 163.494L206.716 162.576C205.402 161.676 203.224 160.47 201.226 159.534L200.272 160.434ZM195.556 159.57C194.44 160.56 192.28 161.802 190.534 162.522C190.858 162.774 191.326 163.206 191.56 163.476C193.27 162.72 195.394 161.496 196.816 160.38L195.556 159.57ZM216.022 146.898C215.41 148.626 214.348 150.264 213.124 151.326C213.43 151.524 213.934 151.956 214.132 152.19C215.392 150.966 216.562 149.13 217.264 147.204L216.022 146.898ZM215.95 151.434C215.464 152.694 214.654 153.954 213.718 154.818C214.024 154.98 214.564 155.322 214.816 155.52C215.716 154.584 216.652 153.18 217.21 151.758L215.95 151.434ZM215.842 148.662L215.374 149.85H223.654V148.662H215.842ZM218.488 149.472V155.736C218.488 155.934 218.434 155.988 218.2 156.006C217.966 156.024 217.21 156.024 216.364 155.988C216.562 156.33 216.742 156.834 216.814 157.194C217.948 157.194 218.686 157.176 219.154 156.978C219.658 156.78 219.784 156.42 219.784 155.736V149.472H218.488ZM220.774 151.83C221.62 153 222.502 154.638 222.862 155.7L224.032 155.142C223.654 154.098 222.772 152.514 221.89 151.344L220.774 151.83ZM223.276 148.662V148.86C222.934 149.868 222.448 151.11 222.034 151.866L223.204 152.1C223.636 151.308 224.194 149.994 224.644 148.86L223.708 148.626L223.492 148.662H223.276ZM212.98 158.076V161.334C212.98 162.756 213.466 163.134 215.338 163.134C215.734 163.134 218.416 163.134 218.83 163.134C220.378 163.134 220.792 162.594 220.954 160.416C220.576 160.326 220.036 160.128 219.748 159.894C219.658 161.676 219.532 161.91 218.74 161.91C218.146 161.91 215.896 161.91 215.446 161.91C214.492 161.91 214.312 161.82 214.312 161.334V158.076H212.98ZM214.528 157.536C215.698 158.112 217.03 159.084 217.642 159.804L218.614 158.922C217.966 158.202 216.58 157.284 215.428 156.726L214.528 157.536ZM220.45 158.634C221.8 159.786 223.132 161.478 223.654 162.666L224.86 161.982C224.302 160.758 222.898 159.138 221.566 158.004L220.45 158.634ZM210.784 158.292C210.406 159.804 209.632 161.244 208.3 162.09L209.416 162.864C210.838 161.91 211.54 160.308 211.99 158.688L210.784 158.292ZM212.512 146.88C211.486 148.86 209.794 150.84 208.102 152.118C208.372 152.352 208.822 152.892 208.984 153.162C210.73 151.74 212.548 149.526 213.718 147.294L212.512 146.88ZM210.856 150.264V157.176H212.152V149.004L212.134 148.986L210.856 150.264ZM232.618 149.616V150.858H242.824V149.616H232.618ZM237.118 146.934V150.246H238.45V146.934H237.118ZM238.216 159.75C239.53 160.884 241.132 162.522 241.906 163.494L243.004 162.666C242.194 161.676 240.52 160.128 239.242 159.03L238.216 159.75ZM232.888 153.774C234.166 154.71 235.786 156.078 236.56 156.942L237.388 155.898C236.596 155.052 234.94 153.756 233.68 152.892L232.888 153.774ZM236.83 150.246C236.218 151.398 235.084 153.036 234.238 154.008L235.192 154.548C236.092 153.63 237.244 152.154 238.144 150.912L236.83 150.246ZM241.474 155.484C239.62 158.616 236.146 161.064 232.024 162.342C232.33 162.648 232.672 163.098 232.834 163.422C237.118 161.982 240.646 159.408 242.68 156.006L241.474 155.484ZM239.98 152.19C238.414 154.854 235.57 157.266 232.51 158.598C232.816 158.85 233.176 159.282 233.374 159.588C236.542 158.058 239.44 155.556 241.15 152.676L239.98 152.19ZM226.516 150.75V152.028H232.564V150.75H226.516ZM229.18 146.88V163.422H230.44V146.88H229.18ZM229.126 151.542C228.604 154.134 227.398 157.248 226.174 158.868C226.408 159.174 226.732 159.696 226.876 160.056C228.172 158.238 229.414 154.71 229.972 151.83L229.126 151.542ZM230.35 153.288L229.702 153.864C230.224 154.62 231.574 156.816 232.024 157.752L232.798 156.708C232.438 156.15 230.8 153.792 230.35 153.288ZM253.408 151.74V153H260.878V151.74H253.408ZM244.354 150.714V151.866H253.606V150.714H244.354ZM245.002 154.656V155.79H252.94V154.656H245.002ZM245.488 157.626V158.76H252.58V157.626H245.488ZM257.656 147.006V161.784C257.656 162.09 257.53 162.198 257.224 162.198C256.936 162.216 255.946 162.216 254.866 162.18C255.046 162.54 255.28 163.116 255.352 163.458C256.81 163.476 257.692 163.44 258.232 163.206C258.736 162.99 258.952 162.612 258.952 161.784V147.006H257.656ZM253.984 154.818C254.704 156.15 255.388 157.878 255.568 158.958L256.774 158.526C256.594 157.428 255.892 155.736 255.118 154.422L253.984 154.818ZM244.534 147.834C245.092 148.698 245.614 149.85 245.794 150.606L246.838 150.12C246.64 149.382 246.1 148.266 245.506 147.42L244.534 147.834ZM245.848 152.262C246.28 153.018 246.676 154.062 246.784 154.71L247.918 154.296C247.792 153.648 247.378 152.658 246.928 151.902L245.848 152.262ZM247.18 146.97V151.272H248.278V146.97H247.18ZM248.332 155.016V161.514H249.61V155.016H248.332ZM249.664 146.97V151.272H250.78V146.97H249.664ZM244.408 161.388L244.606 162.666C246.91 162.342 250.294 161.892 253.462 161.424L253.426 160.236C250.132 160.686 246.658 161.118 244.408 161.388ZM252.49 147.312C252.184 148.176 251.554 149.454 251.068 150.21L252.004 150.624C252.508 149.886 253.156 148.752 253.696 147.78L252.49 147.312ZM250.96 151.866C250.744 152.604 250.294 153.702 249.934 154.368L251.014 154.674C251.374 154.044 251.824 153.09 252.202 152.208L250.96 151.866ZM263.326 148.212C264.586 148.608 266.26 149.256 267.106 149.724L267.7 148.68C266.836 148.23 265.162 147.618 263.92 147.294L263.326 148.212ZM262.426 152.01L262.948 153.198C264.316 152.784 266.008 152.226 267.646 151.704L267.502 150.642C265.63 151.164 263.722 151.704 262.426 152.01ZM270.148 148.212L269.356 149.238H277.384V148.212H270.148ZM277.024 148.212V148.41C276.664 149.166 276.052 150.066 275.476 150.624L276.556 151.002C277.204 150.372 277.87 149.364 278.374 148.428L277.474 148.158L277.24 148.212H277.024ZM272.38 148.572C272.074 150.624 271.102 151.74 267.772 152.298C268.006 152.532 268.294 152.982 268.42 153.27C272.092 152.532 273.244 151.128 273.622 148.572H272.38ZM273.568 148.896L272.47 149.004C272.938 150.894 273.838 152.838 278.104 153.576C278.248 153.234 278.554 152.748 278.806 152.478C274.81 151.902 273.928 150.426 273.568 148.896ZM270.436 146.88C269.968 147.96 269.05 149.202 267.7 150.12C268.024 150.264 268.492 150.552 268.726 150.804C270.13 149.724 271.048 148.392 271.66 147.078L270.436 146.88ZM266.152 156.294H275.224V157.518H266.152V156.294ZM266.152 158.4H275.224V159.66H266.152V158.4ZM266.152 154.188H275.224V155.412H266.152V154.188ZM264.838 153.288V160.56H276.574V153.288H264.838ZM272.092 161.478C274.054 162.126 276.016 162.9 277.15 163.494L278.644 162.81C277.348 162.198 275.17 161.406 273.19 160.794L272.092 161.478ZM267.862 160.758C266.566 161.46 264.406 162.09 262.552 162.486C262.858 162.72 263.326 163.242 263.542 163.512C265.342 163.008 267.628 162.18 269.086 161.316L267.862 160.758ZM283.342 146.952V163.422H284.602V146.952H283.342ZM280.444 152.928V154.206H287.554V152.928H280.444ZM283.144 153.594C282.568 155.7 281.308 158.436 280.156 159.822C280.372 160.182 280.696 160.758 280.84 161.154C282.046 159.516 283.324 156.402 283.954 153.954L283.144 153.594ZM284.566 154.44L283.9 154.998C284.494 155.772 285.97 158.13 286.42 159.102L287.32 158.022C286.906 157.428 285.07 154.98 284.566 154.44ZM280.57 148.284C281.038 149.544 281.452 151.218 281.542 152.298L282.604 152.01C282.478 150.93 282.064 149.292 281.56 148.032L280.57 148.284ZM286.384 147.96C286.132 149.184 285.592 150.984 285.196 152.064L286.06 152.334C286.546 151.326 287.104 149.634 287.572 148.266L286.384 147.96ZM293.368 146.898V163.44H294.646V146.898H293.368ZM287.518 158.346L287.734 159.606L296.986 157.932L296.77 156.69L287.518 158.346ZM288.868 149.094C289.912 149.742 291.154 150.714 291.73 151.416L292.45 150.372C291.856 149.706 290.614 148.788 289.57 148.176L288.868 149.094ZM287.95 153.63C289.03 154.224 290.326 155.142 290.956 155.79L291.64 154.728C290.992 154.08 289.66 153.234 288.58 152.676L287.95 153.63Z" fill="#F0EBF5"/>
<line x1="122.598" y1="70" x2="166.598" y2="70" stroke="#F0EBF5" stroke-width="4"/>
<line x1="476" y1="70" x2="515" y2="70" stroke="#F0EBF5" stroke-width="4"/>
<line x1="286" y1="70" x2="356" y2="70" stroke="#F0EBF5" stroke-width="4" stroke-dasharray="10 10"/>
<circle cx="417" cy="62" r="60.5" stroke="#F0EBF5" stroke-width="3"/>
<g clip-path="url(#clip1_2545_16600)">
<path d="M450.636 60.1995H440.635V28.308C440.635 27.7615 440.305 27.2687 439.8 27.0595C439.295 26.8502 438.714 26.9661 438.328 27.3523L434.499 31.1804L430.672 27.3525C430.144 26.8248 429.288 26.8248 428.76 27.3525L424.932 31.1805L421.105 27.3525C420.577 26.8248 419.721 26.8248 419.193 27.3525L415.365 31.1805L411.537 27.3525C411.009 26.8248 410.154 26.8248 409.626 27.3525L405.798 31.1805L401.97 27.3525C401.443 26.8248 400.587 26.8248 400.059 27.3525L396.231 31.1805L392.403 27.3525C391.879 26.828 391.03 26.8253 390.501 27.345C390.224 27.6181 390.089 27.982 390.098 28.3435V89.1183C390.098 92.9928 393.25 96.1449 397.125 96.1449H444.959C444.959 96.1449 444.959 96.1449 444.96 96.1449C444.96 96.1449 444.96 96.1449 444.961 96.1449C448.835 96.1449 451.987 92.9928 451.987 89.1183V61.5507C451.987 60.8044 451.382 60.1995 450.636 60.1995ZM397.125 93.4423C394.74 93.4423 392.801 91.5024 392.801 89.1181V31.5721L395.275 34.047C395.803 34.5747 396.659 34.5747 397.187 34.047L401.015 30.2189L404.843 34.047C405.371 34.5747 406.226 34.5747 406.754 34.047L410.582 30.2189L414.41 34.047C414.938 34.5747 415.794 34.5747 416.321 34.047L420.149 30.2189L423.977 34.047C424.505 34.5747 425.361 34.5747 425.889 34.047L429.717 30.2189L433.545 34.047C434.073 34.5747 434.928 34.5747 435.456 34.047L437.933 31.5702V61.5507C437.933 61.563 437.934 61.575 437.935 61.5873V89.1181C437.935 90.7481 438.494 92.2489 439.429 93.4423H397.125ZM449.285 89.1181C449.285 91.5024 447.345 93.4423 444.961 93.4423C442.576 93.4423 440.636 91.5024 440.636 89.1181V62.9021H449.285V89.1181Z" fill="#F0EBF5"/>
<path d="M415.367 48.4232C414.026 48.4232 412.935 47.4888 412.935 46.3406C412.935 45.1923 414.026 44.2579 415.367 44.2579C416.709 44.2579 417.8 45.1923 417.8 46.3406C417.8 47.087 418.405 47.692 419.151 47.692C419.897 47.692 420.502 47.087 420.502 46.3406C420.502 44.1378 418.896 42.2792 416.719 41.7249V40.8095C416.719 40.0631 416.114 39.4581 415.367 39.4581C414.621 39.4581 414.016 40.0631 414.016 40.8095V41.7249C411.838 42.2792 410.232 44.1379 410.232 46.3406C410.232 48.9791 412.536 51.1257 415.367 51.1257C416.709 51.1257 417.8 52.06 417.8 53.2084C417.8 54.3567 416.709 55.2909 415.367 55.2909C414.026 55.2909 412.935 54.3566 412.935 53.2084C412.935 52.462 412.33 51.857 411.584 51.857C410.837 51.857 410.232 52.462 410.232 53.2084C410.232 55.4112 411.838 57.2698 414.016 57.8241V58.9268C414.016 59.6732 414.621 60.2782 415.367 60.2782C416.114 60.2782 416.719 59.6732 416.719 58.9268V57.8241C418.897 57.2698 420.502 55.4112 420.502 53.2084C420.502 50.5699 418.199 48.4232 415.367 48.4232Z" fill="#7568F6"/>
<path d="M428.944 48.4235H426.31C425.564 48.4235 424.959 49.0285 424.959 49.7748C424.959 50.5211 425.564 51.1261 426.31 51.1261H428.944C429.69 51.1261 430.295 50.5211 430.295 49.7748C430.295 49.0285 429.69 48.4235 428.944 48.4235Z" fill="#7568F6"/>
<path d="M404.425 48.4235H401.791C401.044 48.4235 400.439 49.0285 400.439 49.7748C400.439 50.5211 401.044 51.1261 401.791 51.1261H404.425C405.171 51.1261 405.776 50.5211 405.776 49.7748C405.776 49.0285 405.171 48.4235 404.425 48.4235Z" fill="#7568F6"/>
<path d="M429.627 63.4435H408.219C407.472 63.4435 406.867 64.0485 406.867 64.7948C406.867 65.5412 407.472 66.1462 408.219 66.1462H429.627C430.373 66.1462 430.978 65.5412 430.978 64.7948C430.978 64.0485 430.373 63.4435 429.627 63.4435Z" fill="#F0EBF5"/>
<path d="M402.063 63.8394C401.811 63.5881 401.463 63.4435 401.107 63.4435C400.752 63.4435 400.403 63.5881 400.152 63.8394C399.9 64.0908 399.756 64.4394 399.756 64.7948C399.756 65.1502 399.9 65.4989 400.152 65.7502C400.403 66.0016 400.752 66.1462 401.107 66.1462C401.463 66.1462 401.811 66.0016 402.063 65.7502C402.314 65.4989 402.459 65.1502 402.459 64.7948C402.459 64.4394 402.314 64.0908 402.063 63.8394Z" fill="#F0EBF5"/>
<path d="M429.627 72.3623H408.219C407.472 72.3623 406.867 72.9673 406.867 73.7136C406.867 74.46 407.472 75.065 408.219 75.065H429.627C430.373 75.065 430.978 74.46 430.978 73.7136C430.978 72.9673 430.373 72.3623 429.627 72.3623Z" fill="#F0EBF5"/>
<path d="M402.063 72.7582C401.811 72.5069 401.463 72.3623 401.107 72.3623C400.752 72.3623 400.403 72.5069 400.152 72.7582C399.9 73.0096 399.756 73.3582 399.756 73.7136C399.756 74.069 399.9 74.4177 400.152 74.669C400.403 74.9204 400.752 75.065 401.107 75.065C401.463 75.065 401.811 74.9204 402.063 74.669C402.314 74.4177 402.459 74.069 402.459 73.7136C402.459 73.3582 402.314 73.0096 402.063 72.7582Z" fill="#F0EBF5"/>
<path d="M429.627 81.2803H408.219C407.472 81.2803 406.867 81.8853 406.867 82.6316C406.867 83.378 407.472 83.9829 408.219 83.9829H429.627C430.373 83.9829 430.978 83.378 430.978 82.6316C430.978 81.8853 430.373 81.2803 429.627 81.2803Z" fill="#F0EBF5"/>
<path d="M402.063 81.6762C401.811 81.4249 401.463 81.2803 401.107 81.2803C400.752 81.2803 400.403 81.4249 400.152 81.6762C399.9 81.9276 399.756 82.2762 399.756 82.6316C399.756 82.987 399.9 83.3357 400.152 83.587C400.403 83.8384 400.752 83.9829 401.107 83.9829C401.463 83.9829 401.811 83.8384 402.063 83.587C402.314 83.3357 402.459 82.987 402.459 82.6316C402.459 82.2762 402.314 81.9276 402.063 81.6762Z" fill="#F0EBF5"/>
</g>
<path d="M355.116 152.064V153.432H370.938V152.064H355.116ZM363.882 152.604L362.532 152.928C363.882 157.77 366.33 161.568 370.218 163.404C370.452 163.026 370.902 162.45 371.244 162.144C367.5 160.596 365.052 156.96 363.882 152.604ZM362.298 146.898C362.262 151.218 362.406 158.976 354.756 162.306C355.134 162.576 355.566 163.062 355.782 163.422C363.648 159.822 363.684 151.614 363.756 146.898H362.298ZM376.086 153.036H385.968V155.754H376.086V153.036ZM374.934 152.118V156.672H387.192V152.118H374.934ZM377.886 150.174V151.128H384.168V150.174H377.886ZM380.352 152.406V156.168H381.504V152.406H380.352ZM380.91 147.978C382.746 149.742 385.986 151.524 388.632 152.442C388.83 152.1 389.136 151.614 389.424 151.326C386.634 150.498 383.502 148.842 381.468 146.88H380.19C378.696 148.626 375.654 150.462 372.594 151.506C372.846 151.794 373.152 152.262 373.314 152.568C376.302 151.452 379.308 149.616 380.91 147.978ZM377.184 153.576C377.634 154.224 378.048 155.106 378.192 155.682L379.236 155.304C379.056 154.728 378.624 153.882 378.156 153.252L377.184 153.576ZM383.664 153.18C383.448 153.792 382.98 154.746 382.638 155.358L383.592 155.682C383.952 155.142 384.402 154.314 384.816 153.54L383.664 153.18ZM375.996 157.536V163.44H377.328V158.49H384.798V163.422H386.166V157.536H375.996ZM376.788 159.696V160.686H385.392V159.696H376.788ZM376.788 161.91V162.882H385.392V161.91H376.788ZM399.666 152.298V153.36H403.41V152.298H399.666ZM398.514 157.518V158.49H404.58V157.518H398.514ZM392.484 147.654V148.752H397.524V147.654H392.484ZM397.146 147.654V147.87C396.048 150.318 393.186 152.244 390.486 153.054C390.738 153.288 391.062 153.756 391.224 154.062C394.14 153.054 397.11 151.038 398.46 148.014L397.614 147.6L397.38 147.654H397.146ZM399.99 146.88L398.892 147.222C400.35 150.372 403.104 152.748 406.542 153.81C406.74 153.486 407.082 153.018 407.37 152.748C404.022 151.866 401.286 149.67 399.99 146.88ZM403.662 147.006C403.014 147.744 401.826 148.752 400.998 149.364L401.79 149.994C402.654 149.4 403.788 148.536 404.67 147.708L403.662 147.006ZM405.822 148.824C405.156 149.526 403.932 150.534 403.068 151.128L403.896 151.758C404.778 151.2 405.948 150.336 406.812 149.508L405.822 148.824ZM393.042 152.37V153.432H396.246V156.69H397.452V152.37H393.042ZM392.574 155.322C392.376 156.636 392.016 158.328 391.71 159.408L392.844 159.606C393.132 158.49 393.492 156.726 393.744 155.322H392.574ZM396.246 158.058V158.238C396.03 160.812 395.832 161.838 395.508 162.144C395.364 162.288 395.166 162.306 394.824 162.306C394.482 162.306 393.51 162.288 392.502 162.198C392.718 162.522 392.862 163.008 392.898 163.368C393.888 163.404 394.842 163.422 395.31 163.404C395.868 163.35 396.192 163.26 396.516 162.954C396.984 162.486 397.218 161.334 397.452 158.598C397.47 158.436 397.488 158.058 397.488 158.058H396.246ZM399.18 152.298V153.702C399.18 154.566 398.946 155.556 397.506 156.33C397.758 156.492 398.19 156.924 398.37 157.176C399.972 156.24 400.35 154.89 400.35 153.72V152.298H399.18ZM404.274 157.518V157.698C403.284 160.416 400.584 161.892 397.488 162.468C397.704 162.72 397.974 163.17 398.082 163.458C401.484 162.702 404.31 161.1 405.498 157.752L404.724 157.464L404.508 157.518H404.274ZM400.224 158.418L399.162 158.706C400.35 161.226 402.762 162.828 406.056 163.44C406.236 163.116 406.578 162.594 406.866 162.324C403.68 161.874 401.268 160.506 400.224 158.418ZM393.168 155.322L392.988 156.384H396.696V155.322H393.168ZM392.628 158.058L392.43 159.102H396.588V158.058H392.628ZM402.78 152.298V154.998C402.78 155.862 402.87 156.132 403.122 156.366C403.356 156.564 403.752 156.636 404.112 156.636C404.292 156.636 404.796 156.636 404.994 156.636C405.246 156.636 405.606 156.618 405.786 156.546C406.02 156.474 406.236 156.33 406.326 156.132C406.452 155.916 406.506 155.394 406.542 154.926C406.218 154.836 405.786 154.62 405.552 154.422C405.534 154.872 405.516 155.214 405.48 155.376C405.426 155.502 405.336 155.592 405.264 155.628C405.21 155.646 405.03 155.646 404.868 155.646C404.706 155.646 404.472 155.646 404.346 155.646C404.202 155.646 404.112 155.646 404.04 155.592C403.968 155.538 403.968 155.358 403.968 155.106V152.298H402.78ZM391.998 149.796C392.844 150.318 393.834 151.092 394.302 151.65L395.13 150.822C394.644 150.3 393.618 149.544 392.79 149.058L391.998 149.796ZM413.724 154.026V155.268H425.082V154.026H413.724ZM414.3 150.318V151.524H424.542V150.318H414.3ZM418.548 150.876V153.558C418.548 155.412 418.224 158.058 413.85 159.822C414.156 160.056 414.57 160.524 414.75 160.812C419.286 158.778 419.898 155.826 419.898 153.576V150.876H418.548ZM420.276 154.818L419.106 155.07C419.898 158.004 421.536 159.948 424.254 160.902C424.434 160.542 424.812 160.02 425.118 159.75C422.544 159.012 420.96 157.338 420.276 154.818ZM412.698 153.99H408.864V155.25H411.384V160.362H412.698V153.99ZM412.698 159.768H411.474C410.556 160.542 409.494 161.334 408.63 161.91L409.35 163.296C410.322 162.504 411.24 161.73 412.104 160.956C413.256 162.378 414.876 163.008 417.216 163.098C419.214 163.17 422.94 163.134 424.92 163.062C424.974 162.648 425.208 162 425.352 161.676C423.228 161.82 419.178 161.874 417.216 161.802C415.146 161.712 413.544 161.1 412.698 159.768ZM409.062 148.14C410.232 148.932 411.582 150.156 412.158 151.02L413.22 150.138C412.608 149.256 411.24 148.086 410.052 147.33L409.062 148.14ZM422.184 146.88C421.806 147.798 421.068 149.094 420.51 149.904L421.608 150.318C422.202 149.562 422.94 148.374 423.552 147.348L422.184 146.88ZM415.002 147.42C415.704 148.32 416.37 149.562 416.604 150.372L417.828 149.832C417.576 149.004 416.874 147.816 416.154 146.952L415.002 147.42ZM430.14 155.268H426.756V156.492H428.862V160.506H430.14V155.268ZM430.14 159.93H428.988C428.214 160.686 427.332 161.478 426.594 162.036L427.296 163.314C428.106 162.522 428.862 161.784 429.582 161.028C430.77 162.414 432.444 163.026 434.838 163.116C436.926 163.188 440.922 163.152 442.992 163.062C443.046 162.684 443.244 162.072 443.406 161.784C441.192 161.928 436.872 161.982 434.82 161.892C432.696 161.82 431.022 161.226 430.14 159.93ZM427.458 147.906C428.466 148.482 429.6 149.4 430.122 150.102L431.076 149.22C430.518 148.536 429.348 147.672 428.358 147.114L427.458 147.906ZM426.846 151.65C427.908 152.19 429.15 153.072 429.744 153.756L430.662 152.838C430.05 152.172 428.772 151.344 427.71 150.804L426.846 151.65ZM432.642 151.344H435.648V152.442H432.642V151.344ZM432.642 149.382H435.648V150.444H432.642V149.382ZM431.544 148.464V153.36H436.8V148.464H431.544ZM433.776 146.88C433.668 147.474 433.434 148.374 433.236 148.968L434.244 149.202C434.496 148.644 434.856 147.834 435.144 147.06L433.776 146.88ZM430.806 154.53V155.52H437.592V154.53H430.806ZM438.474 149.724V150.912H443.154V149.724H438.474ZM433.218 156.51V157.5H436.134V156.51H433.218ZM433.56 153.216V154.944H434.73V153.216H433.56ZM435.702 156.51V156.69C435.594 158.904 435.504 159.714 435.342 159.912C435.252 160.056 435.144 160.074 434.946 160.056C434.766 160.056 434.37 160.056 433.884 160.002C434.028 160.272 434.136 160.668 434.154 160.956C434.658 160.992 435.18 160.992 435.45 160.974C435.81 160.938 436.08 160.83 436.296 160.596C436.584 160.236 436.71 159.336 436.8 156.96C436.818 156.816 436.818 156.51 436.818 156.51H435.702ZM432.858 154.926C432.732 157.23 432.372 159.156 430.77 160.218C431.04 160.398 431.382 160.776 431.508 161.028C433.38 159.786 433.848 157.626 434.01 154.926H432.858ZM438.69 146.97C438.276 149.562 437.556 152.118 436.44 153.756C436.728 153.918 437.25 154.296 437.466 154.476C438.6 152.676 439.41 149.976 439.896 147.15L438.69 146.97ZM441.228 150.444C440.706 154.944 439.482 158.292 436.638 160.254C436.89 160.47 437.322 160.92 437.484 161.154C440.418 158.904 441.768 155.43 442.398 150.552L441.228 150.444ZM438.942 150.696L437.988 150.894C438.708 155.268 440.094 159.21 442.452 161.172C442.668 160.866 443.028 160.452 443.316 160.236C441.048 158.526 439.626 154.746 438.942 150.696ZM445.53 152.334V153.414H450.804V152.334H445.53ZM445.584 147.528V148.608H450.732V147.528H445.584ZM445.53 154.746V155.826H450.804V154.746H445.53ZM444.684 149.886V151.002H451.398V149.886H444.684ZM446.124 157.176V158.292H449.616V161.298H446.124V162.432H450.804V157.176H446.124ZM445.512 157.176V163.26H446.682V157.176H445.512ZM451.794 148.104V149.148H460.848V148.104H451.794ZM452.262 150.228V151.218H460.578V150.228H452.262ZM451.344 152.388V153.432H461.244V152.388H451.344ZM455.628 146.88V153.27H456.906V146.88H455.628ZM452.694 154.494V163.422H453.972V155.52H459.624V154.494H452.694ZM458.868 154.494V162C458.868 162.216 458.814 162.27 458.58 162.288C458.346 162.288 457.608 162.306 456.798 162.27C456.96 162.594 457.14 163.062 457.194 163.386C458.31 163.386 459.066 163.386 459.552 163.206C460.002 163.008 460.146 162.684 460.146 162.018V154.494H458.868ZM453.27 156.816V157.788H459.516V156.816H453.27ZM453.27 159.084V160.056H459.516V159.084H453.27ZM462.864 147.744V148.986H469.47V147.744H462.864ZM464.718 153.36V154.548H467.598V159.948H464.718V161.136H468.804V153.36H464.718ZM465.042 148.338C464.61 151.722 463.854 154.944 462.432 156.996C462.684 157.284 463.098 157.932 463.224 158.22C464.862 155.862 465.78 152.316 466.338 148.536L465.042 148.338ZM464.124 153.36V162.63H465.312V153.36H464.124ZM470.91 150.48V151.578H478.2V150.48H470.91ZM470.91 153.252V154.368H478.2V153.252H470.91ZM470.244 156.078V157.266H478.146V156.078H470.244ZM473.97 148.266V156.582H475.194V148.266H473.97ZM471.738 158.706C471.936 159.768 472.044 161.136 472.008 162.036L472.998 161.874C473.016 160.992 472.89 159.642 472.674 158.562L471.738 158.706ZM473.646 158.562C474.006 159.444 474.348 160.614 474.456 161.352L475.392 161.082C475.248 160.344 474.906 159.192 474.528 158.328L473.646 158.562ZM475.464 158.166C475.932 158.85 476.436 159.75 476.652 160.344L477.462 159.966C477.228 159.408 476.706 158.508 476.184 157.86L475.464 158.166ZM469.992 158.148C469.83 159.624 469.47 161.19 468.678 162.09L469.632 162.63C470.496 161.64 470.838 159.966 471.018 158.4L469.992 158.148ZM470.244 147.654V156.672H471.486V148.842H478.65V147.654H470.244ZM477.75 156.078V156.294C477.588 160.308 477.372 161.784 477.048 162.144C476.904 162.306 476.76 162.342 476.472 162.342C476.202 162.342 475.482 162.324 474.708 162.252C474.906 162.594 475.032 163.08 475.05 163.44C475.842 163.476 476.616 163.476 477.03 163.44C477.516 163.404 477.822 163.278 478.11 162.936C478.578 162.414 478.776 160.866 478.974 156.636C478.992 156.456 478.992 156.078 478.992 156.078H477.75Z" fill="#F0EBF5"/>
<g clip-path="url(#clip2_2545_16600)">
<path d="M544.7 70.8621C545.829 70.8621 546.747 69.9437 546.747 68.8147C546.747 67.6857 545.829 66.7673 544.7 66.7673C543.571 66.7673 542.652 67.6857 542.652 68.8147C542.652 69.9437 543.571 70.8621 544.7 70.8621Z" fill="#F0EBF5"/>
<path d="M594.099 55.6112C593.459 54.9717 592.422 54.9717 591.783 55.6112L586.804 60.5898C586.164 61.2294 586.164 62.2665 586.804 62.9062C587.124 63.226 587.543 63.386 587.962 63.386C588.381 63.386 588.801 63.226 589.12 62.9062L594.099 57.9277C594.738 57.2881 594.738 56.2509 594.099 55.6112Z" fill="#7568F6"/>
<path d="M591.437 67.5391C591.757 67.8588 592.176 68.0188 592.595 68.0188C593.014 68.0188 593.433 67.8588 593.753 67.5391L603.71 57.5817C604.35 56.9421 604.35 55.905 603.71 55.2652C603.071 54.6258 602.033 54.6258 601.394 55.2652L591.437 65.2226C590.797 65.8622 590.797 66.8993 591.437 67.5391Z" fill="#7568F6"/>
<path d="M614.057 57.1964L597.147 40.2871C596.508 39.6476 595.471 39.6476 594.831 40.2871L588.825 46.2934H568.553C563.883 46.2934 559.436 48.4214 556.493 52.0261H553.299V49.5693C553.299 48.6648 552.565 47.9314 551.661 47.9314H544.29C543.386 47.9314 542.652 48.6648 542.652 49.5693C542.652 50.4737 543.386 51.2072 544.29 51.2072H550.023V74.1379H544.29C543.386 74.1379 542.652 74.8714 542.652 75.7758C542.652 76.6803 543.386 77.4137 544.29 77.4137H551.661C552.565 77.4137 553.299 76.6803 553.299 75.7758V71.681H556.493C559.436 75.2857 563.883 77.4137 568.553 77.4137H570.458L582.149 89.1041C582.469 89.4238 582.888 89.5839 583.307 89.5839C583.726 89.5839 584.145 89.4238 584.465 89.1041L614.057 59.5128C614.364 59.2056 614.536 58.7891 614.536 58.3547C614.536 57.9203 614.364 57.5036 614.057 57.1964ZM558.62 69.0784C558.312 68.6553 557.82 68.4052 557.297 68.4052H553.299V55.3019H557.297C557.82 55.3019 558.312 55.0518 558.62 54.6288C560.929 51.4607 564.643 49.5693 568.553 49.5693H585.549L575.831 59.2868C574.465 58.2869 573.247 57.0702 572.222 55.6618C571.69 54.9303 570.666 54.7688 569.934 55.301C569.203 55.8331 569.041 56.8575 569.573 57.589C572.681 61.861 577.267 64.6669 582.485 65.4897C583.489 65.6481 584.176 66.5934 584.018 67.5971C583.86 68.6006 582.916 69.2874 581.911 69.13C577.377 68.415 573.204 66.426 569.841 63.378C569.171 62.7705 568.135 62.8213 567.527 63.4915C566.92 64.1617 566.971 65.1975 567.641 65.805C567.934 66.071 568.235 66.3275 568.539 66.5793L565.24 69.8784C564.933 70.1855 564.76 70.6021 564.76 71.0365C564.76 71.4709 564.933 71.8874 565.24 72.1947L567.095 74.0498C563.734 73.6437 560.64 71.8494 558.62 69.0784ZM583.307 85.6295L568.714 71.0365L571.221 68.5294C574.289 70.4786 577.741 71.7886 581.401 72.3657C581.67 72.4081 581.937 72.4287 582.201 72.4287C584.674 72.4284 586.857 70.6259 587.254 68.1071C587.693 65.3192 585.783 62.6935 582.995 62.2537C581.512 62.0198 580.091 61.5936 578.758 60.9929L595.989 43.7617L610.582 58.3547L583.307 85.6295Z" fill="#F0EBF5"/>
</g>
<circle cx="575" cy="62" r="60.5" stroke="#F0EBF5" stroke-width="3"/>
<path d="M517.436 159.102V161.55C517.436 162.882 517.904 163.242 519.83 163.242C520.244 163.242 523.052 163.242 523.484 163.242C524.996 163.242 525.41 162.774 525.572 160.758C525.194 160.686 524.654 160.488 524.366 160.29C524.294 161.856 524.15 162.054 523.358 162.054C522.746 162.054 520.388 162.054 519.938 162.054C518.93 162.054 518.768 161.982 518.768 161.532V159.102H517.436ZM519.272 158.67C520.352 159.228 521.54 160.128 522.098 160.83L523.052 160.074C522.458 159.372 521.234 158.508 520.172 157.968L519.272 158.67ZM525.248 159.57C526.436 160.578 527.678 162.018 528.182 163.008L529.352 162.324C528.794 161.298 527.498 159.912 526.328 158.94L525.248 159.57ZM513.188 148.338C514.304 148.842 515.69 149.688 516.356 150.318L517.202 149.256C516.5 148.644 515.114 147.87 513.998 147.384L513.188 148.338ZM524.348 155.25C524.798 155.718 525.284 156.402 525.482 156.852L526.31 156.456C526.076 156.006 525.59 155.358 525.122 154.908L524.348 155.25ZM522.206 155.484C522.602 156.114 522.962 156.96 523.106 157.518L524.06 157.212C523.934 156.672 523.52 155.826 523.124 155.232L522.206 155.484ZM515.204 158.886C514.772 160.164 513.962 161.532 512.792 162.342L513.872 163.098C515.096 162.18 515.834 160.686 516.338 159.318L515.204 158.886ZM518.732 147.672V154.116H520.028V148.68H528.236V147.672H518.732ZM519.614 149.706V150.606H527.588V149.706H519.614ZM519.614 151.632V152.532H527.588V151.632H519.614ZM518.732 153.576V154.602H527.93V153.576H518.732ZM522.854 148.14V154.062H524.096V148.14H522.854ZM513.026 156.69L514.07 157.662C515.15 156.312 516.41 154.62 517.4 153.126L516.59 152.262C515.456 153.864 514.016 155.646 513.026 156.69ZM518.192 154.926C517.922 155.934 517.436 157.05 516.698 157.698L517.652 158.292C518.444 157.554 518.912 156.366 519.2 155.304L518.192 154.926ZM527.462 153.576V153.756C527.264 156.186 527.102 157.122 526.832 157.392C526.706 157.518 526.58 157.536 526.346 157.536C526.13 157.536 525.572 157.536 524.942 157.482C525.104 157.752 525.212 158.184 525.23 158.508C525.914 158.544 526.562 158.544 526.904 158.526C527.3 158.49 527.57 158.382 527.84 158.112C528.218 157.716 528.434 156.672 528.65 154.08C528.668 153.918 528.686 153.576 528.686 153.576H527.462ZM519.938 155.52C520.208 156.258 520.424 157.212 520.478 157.86L521.522 157.626C521.45 157.014 521.198 156.06 520.91 155.322L519.938 155.52ZM534.14 155.268H530.756V156.492H532.862V160.506H534.14V155.268ZM534.14 159.93H532.988C532.214 160.686 531.332 161.478 530.594 162.036L531.296 163.314C532.106 162.522 532.862 161.784 533.582 161.028C534.77 162.414 536.444 163.026 538.838 163.116C540.926 163.188 544.922 163.152 546.992 163.062C547.046 162.684 547.244 162.072 547.406 161.784C545.192 161.928 540.872 161.982 538.82 161.892C536.696 161.82 535.022 161.226 534.14 159.93ZM531.458 147.906C532.466 148.482 533.6 149.4 534.122 150.102L535.076 149.22C534.518 148.536 533.348 147.672 532.358 147.114L531.458 147.906ZM530.846 151.65C531.908 152.19 533.15 153.072 533.744 153.756L534.662 152.838C534.05 152.172 532.772 151.344 531.71 150.804L530.846 151.65ZM536.642 151.344H539.648V152.442H536.642V151.344ZM536.642 149.382H539.648V150.444H536.642V149.382ZM535.544 148.464V153.36H540.8V148.464H535.544ZM537.776 146.88C537.668 147.474 537.434 148.374 537.236 148.968L538.244 149.202C538.496 148.644 538.856 147.834 539.144 147.06L537.776 146.88ZM534.806 154.53V155.52H541.592V154.53H534.806ZM542.474 149.724V150.912H547.154V149.724H542.474ZM537.218 156.51V157.5H540.134V156.51H537.218ZM537.56 153.216V154.944H538.73V153.216H537.56ZM539.702 156.51V156.69C539.594 158.904 539.504 159.714 539.342 159.912C539.252 160.056 539.144 160.074 538.946 160.056C538.766 160.056 538.37 160.056 537.884 160.002C538.028 160.272 538.136 160.668 538.154 160.956C538.658 160.992 539.18 160.992 539.45 160.974C539.81 160.938 540.08 160.83 540.296 160.596C540.584 160.236 540.71 159.336 540.8 156.96C540.818 156.816 540.818 156.51 540.818 156.51H539.702ZM536.858 154.926C536.732 157.23 536.372 159.156 534.77 160.218C535.04 160.398 535.382 160.776 535.508 161.028C537.38 159.786 537.848 157.626 538.01 154.926H536.858ZM542.69 146.97C542.276 149.562 541.556 152.118 540.44 153.756C540.728 153.918 541.25 154.296 541.466 154.476C542.6 152.676 543.41 149.976 543.896 147.15L542.69 146.97ZM545.228 150.444C544.706 154.944 543.482 158.292 540.638 160.254C540.89 160.47 541.322 160.92 541.484 161.154C544.418 158.904 545.768 155.43 546.398 150.552L545.228 150.444ZM542.942 150.696L541.988 150.894C542.708 155.268 544.094 159.21 546.452 161.172C546.668 160.866 547.028 160.452 547.316 160.236C545.048 158.526 543.626 154.746 542.942 150.696ZM549.53 152.334V153.414H554.804V152.334H549.53ZM549.584 147.528V148.608H554.732V147.528H549.584ZM549.53 154.746V155.826H554.804V154.746H549.53ZM548.684 149.886V151.002H555.398V149.886H548.684ZM550.124 157.176V158.292H553.616V161.298H550.124V162.432H554.804V157.176H550.124ZM549.512 157.176V163.26H550.682V157.176H549.512ZM555.794 148.104V149.148H564.848V148.104H555.794ZM556.262 150.228V151.218H564.578V150.228H556.262ZM555.344 152.388V153.432H565.244V152.388H555.344ZM559.628 146.88V153.27H560.906V146.88H559.628ZM556.694 154.494V163.422H557.972V155.52H563.624V154.494H556.694ZM562.868 154.494V162C562.868 162.216 562.814 162.27 562.58 162.288C562.346 162.288 561.608 162.306 560.798 162.27C560.96 162.594 561.14 163.062 561.194 163.386C562.31 163.386 563.066 163.386 563.552 163.206C564.002 163.008 564.146 162.684 564.146 162.018V154.494H562.868ZM557.27 156.816V157.788H563.516V156.816H557.27ZM557.27 159.084V160.056H563.516V159.084H557.27ZM566.864 147.744V148.986H573.47V147.744H566.864ZM568.718 153.36V154.548H571.598V159.948H568.718V161.136H572.804V153.36H568.718ZM569.042 148.338C568.61 151.722 567.854 154.944 566.432 156.996C566.684 157.284 567.098 157.932 567.224 158.22C568.862 155.862 569.78 152.316 570.338 148.536L569.042 148.338ZM568.124 153.36V162.63H569.312V153.36H568.124ZM574.91 150.48V151.578H582.2V150.48H574.91ZM574.91 153.252V154.368H582.2V153.252H574.91ZM574.244 156.078V157.266H582.146V156.078H574.244ZM577.97 148.266V156.582H579.194V148.266H577.97ZM575.738 158.706C575.936 159.768 576.044 161.136 576.008 162.036L576.998 161.874C577.016 160.992 576.89 159.642 576.674 158.562L575.738 158.706ZM577.646 158.562C578.006 159.444 578.348 160.614 578.456 161.352L579.392 161.082C579.248 160.344 578.906 159.192 578.528 158.328L577.646 158.562ZM579.464 158.166C579.932 158.85 580.436 159.75 580.652 160.344L581.462 159.966C581.228 159.408 580.706 158.508 580.184 157.86L579.464 158.166ZM573.992 158.148C573.83 159.624 573.47 161.19 572.678 162.09L573.632 162.63C574.496 161.64 574.838 159.966 575.018 158.4L573.992 158.148ZM574.244 147.654V156.672H575.486V148.842H582.65V147.654H574.244ZM581.75 156.078V156.294C581.588 160.308 581.372 161.784 581.048 162.144C580.904 162.306 580.76 162.342 580.472 162.342C580.202 162.342 579.482 162.324 578.708 162.252C578.906 162.594 579.032 163.08 579.05 163.44C579.842 163.476 580.616 163.476 581.03 163.44C581.516 163.404 581.822 163.278 582.11 162.936C582.578 162.414 582.776 160.866 582.974 156.636C582.992 156.456 582.992 156.078 582.992 156.078H581.75ZM595.628 148.788H598.724V150.66H595.628V148.788ZM591.434 148.788H594.458V150.66H591.434V148.788ZM587.348 148.788H590.282V150.66H587.348V148.788ZM586.088 147.726V151.74H600.038V147.726H586.088ZM588.5 155.97H597.608V157.302H588.5V155.97ZM588.5 158.22H597.608V159.588H588.5V158.22ZM588.5 153.72H597.608V155.07H588.5V153.72ZM587.15 152.766V160.542H599.012V152.766H587.15ZM594.494 161.46C596.546 162.108 598.58 162.9 599.768 163.476L601.19 162.756C599.822 162.144 597.59 161.334 595.556 160.74L594.494 161.46ZM590.264 160.704C588.95 161.424 586.772 162.09 584.882 162.486C585.188 162.72 585.674 163.224 585.89 163.494C587.708 163.008 590.012 162.162 591.488 161.262L590.264 160.704ZM604.286 150.462V151.488H609.29V150.462H604.286ZM612.566 150.462V151.488H617.66V150.462H612.566ZM617.084 147.744V161.604C617.084 161.946 616.976 162.036 616.616 162.054C616.256 162.072 615.014 162.09 613.772 162.018C613.97 162.414 614.204 163.044 614.276 163.422C615.914 163.422 616.976 163.404 617.606 163.17C618.218 162.954 618.434 162.522 618.434 161.604V147.744H617.084ZM604.394 147.744V148.878H608.804V153.216H604.394V154.35H610.082V147.744H604.394ZM617.786 147.744H611.774V154.368H617.786V153.234H613.07V148.878H617.786V147.744ZM603.638 147.744V163.44H604.97V147.744H603.638ZM631.61 160.092C633.122 160.938 635.012 162.198 635.912 163.008L636.956 162.216C635.966 161.37 634.058 160.182 632.582 159.39L631.61 160.092ZM623.15 155.448V156.528H634.886V155.448H623.15ZM620.954 157.77V158.886H637.064V157.77H620.954ZM621.152 147.618V148.716H636.722V147.618H621.152ZM628.316 157.986V161.982C628.316 162.18 628.262 162.252 628.01 162.27C627.722 162.288 626.894 162.288 625.886 162.252C626.048 162.594 626.246 163.098 626.318 163.458C627.614 163.458 628.46 163.458 629 163.242C629.558 163.062 629.684 162.72 629.684 162.018V157.986H628.316ZM624.878 159.336C623.924 160.488 622.322 161.568 620.792 162.27C621.098 162.468 621.602 162.936 621.836 163.17C623.33 162.36 625.04 161.1 626.12 159.768L624.878 159.336ZM623.492 151.146H634.508V153.216H623.492V151.146ZM622.232 150.102V154.278H635.84V150.102H622.232ZM626.228 148.032V153.792H627.488V148.032H626.228ZM630.35 148.032V153.792H631.61V148.032H630.35Z" fill="#F0EBF5"/>
<path d="M300.644 17.99H296.738V19.25H299.366V24.362H300.644V17.99ZM300.644 23.822H299.474C298.52 24.596 297.404 25.406 296.504 25.964L297.17 27.296C298.196 26.522 299.168 25.73 300.086 24.956C301.202 26.378 302.84 27.008 305.198 27.098C307.214 27.188 311.066 27.152 313.064 27.062C313.136 26.666 313.334 26.036 313.496 25.73C311.336 25.874 307.178 25.928 305.198 25.838C303.074 25.766 301.526 25.154 300.644 23.822ZM297.044 12.14C298.178 12.986 299.492 14.264 300.05 15.146L301.076 14.21C300.482 13.328 299.132 12.104 297.98 11.294L297.044 12.14ZM304.244 13.904C305.99 14.57 308.222 15.596 309.356 16.298L310.274 15.452C309.068 14.732 306.8 13.742 305.108 13.148L304.244 13.904ZM302.534 15.416V24.74H303.812V16.46H311.84V15.416H302.534ZM311.192 15.416V23.372C311.192 23.606 311.138 23.678 310.904 23.678C310.67 23.678 309.914 23.696 309.068 23.66C309.23 23.966 309.392 24.434 309.446 24.776C310.652 24.776 311.408 24.776 311.876 24.56C312.362 24.362 312.488 24.056 312.488 23.39V15.416H311.192ZM302.534 11.636V12.716H311.516V11.636H302.534ZM303.236 18.044V19.052H311.714V18.044H303.236ZM303.236 20.69V21.734H311.714V20.69H303.236ZM306.836 15.848V24.668H308.06V15.848H306.836ZM311.066 11.636V11.888C310.256 12.734 308.582 13.778 307.106 14.354C307.304 14.552 307.646 14.912 307.826 15.146C309.464 14.462 311.282 13.346 312.488 12.212L311.66 11.564L311.372 11.636H311.066ZM318.41 17.99H314.828V19.25H317.114V24.362H318.41V17.99ZM318.41 23.822H317.24C316.394 24.596 315.422 25.406 314.63 25.982L315.332 27.296C316.232 26.504 317.06 25.73 317.852 24.956C318.968 26.378 320.606 27.008 322.982 27.098C324.998 27.188 328.85 27.152 330.884 27.062C330.938 26.666 331.154 26.036 331.316 25.73C329.138 25.874 324.98 25.928 322.982 25.838C320.84 25.766 319.256 25.154 318.41 23.822ZM314.99 12.086C316.088 12.968 317.33 14.228 317.834 15.128L318.95 14.282C318.392 13.4 317.132 12.158 316.016 11.348L314.99 12.086ZM320.156 17.09V24.902H321.362V18.17H329.894V17.09H320.156ZM324.512 14.048V17.54H325.538V15.002H328.292V14.048H324.512ZM321.56 11.51V17.45H322.766V12.572H327.752V17.45H328.976V11.51H321.56ZM323.486 19.322V20.294H326.51V22.202H323.486V23.138H327.554V19.322H323.486ZM329.138 17.09V23.57C329.138 23.75 329.066 23.804 328.868 23.822C328.67 23.822 327.986 23.822 327.23 23.804C327.392 24.11 327.554 24.578 327.608 24.902C328.67 24.902 329.372 24.902 329.804 24.704C330.272 24.524 330.38 24.182 330.38 23.57V17.09H329.138ZM322.874 19.322V23.858H323.918V19.322H322.874ZM332.972 16.676V17.882H349.01V16.676H332.972ZM334.556 13.148V14.354H344.978V13.148H334.556ZM337.472 22.706V23.786H345.95V22.706H337.472ZM337.472 25.694V26.864H345.95V25.694H337.472ZM339.182 10.88V17.324H340.496V10.88H339.182ZM347.066 11.51C343.736 15.974 338.372 19.466 332.558 21.482C332.828 21.752 333.26 22.31 333.422 22.616C339.182 20.402 344.6 16.856 348.218 12.122L347.066 11.51ZM336.734 19.79V27.458H338.084V20.924H345.41V27.386H346.814V19.79H336.734Z" fill="#F0EBF5"/>
<g clip-path="url(#clip3_2545_16600)">
<path d="M96.2633 46.922C96.1002 46.3123 95.709 45.8024 95.1622 45.4867L93.1737 44.3386C92.6268 44.023 91.9897 43.939 91.3795 44.1027C90.7698 44.2658 90.2599 44.6569 89.9442 45.2038L88.7576 47.2588C88.254 47.0223 87.6886 46.9701 87.1444 47.1157C86.5347 47.2794 86.0248 47.6705 85.7091 48.2174L85.6342 48.3467V39.5915C85.6342 36.797 83.3612 34.524 80.5667 34.524H73.175C73.0098 33.3801 72.0258 32.497 70.8371 32.497H67.3912V29.9971C67.3912 28.3205 66.0272 26.9565 64.3507 26.9565H56.9183C55.2418 26.9565 53.8778 28.3205 53.8778 29.9971V32.497H50.4319C49.2431 32.497 48.2587 33.3801 48.094 34.524H40.7023C37.9078 34.524 35.6348 36.797 35.6348 39.5915V91.0775C35.6348 93.872 37.9078 96.145 40.7023 96.145H72.3299C72.8894 96.145 73.3434 95.6916 73.3434 95.1315C73.3434 94.5714 72.8894 94.118 72.3299 94.118H40.7023C39.0258 94.118 37.6618 92.754 37.6618 91.0775V39.5915C37.6618 37.915 39.0258 36.551 40.7023 36.551H48.0671V41.4834C48.0671 42.7872 49.1281 43.8483 50.4319 43.8483H70.8371C72.1409 43.8483 73.2019 42.7872 73.2019 41.4834V40.5375H79.6207V58.7626L69.3078 76.625C68.9352 77.2701 68.7662 78.0038 68.8196 78.7471L69.2714 85.0783C69.311 85.632 69.6203 86.1308 70.0986 86.4127C70.3625 86.5679 70.6586 86.6466 70.9564 86.6466C71.1981 86.6466 71.4404 86.5943 71.6663 86.4898L77.4929 83.7876C78.1908 83.4641 78.763 82.9409 79.1473 82.2753L79.6207 81.4555V90.1315H41.6482V40.5375H44.3509C44.9104 40.5375 45.3644 40.084 45.3644 39.524C45.3644 38.9639 44.9104 38.5105 44.3509 38.5105H41.3104C40.3787 38.5105 39.6212 39.268 39.6212 40.1996V90.4694C39.6212 91.4011 40.3787 92.1585 41.3104 92.1585H79.9586C80.8897 92.1585 81.6478 91.4011 81.6478 90.4694V77.9442L83.6072 74.5505V91.0775C83.6072 92.754 82.2432 94.118 80.5667 94.118H77.059C76.4995 94.118 76.0455 94.5714 76.0455 95.1315C76.0455 95.691 76.4995 96.145 77.059 96.145H80.5667C83.3607 96.145 85.6342 93.8715 85.6342 91.0775V71.0397L94.1846 56.2299L95.5354 53.8904C95.851 53.3435 95.935 52.7064 95.7713 52.0967C95.6256 51.5525 95.2978 51.0895 94.8407 50.7712L96.0273 48.7162C96.343 48.1694 96.4269 47.5322 96.2633 46.922ZM91.6994 46.2173C91.7923 46.0563 91.9987 46.0009 92.1602 46.0938L94.1487 47.2419C94.2537 47.3026 94.2922 47.3966 94.306 47.4467C94.3192 47.4974 94.3329 47.5972 94.2722 47.7027L93.0903 49.7493L90.518 48.2644L91.6994 46.2173ZM87.4643 49.2309C87.525 49.1259 87.619 49.0873 87.6691 49.0741C87.7198 49.0599 87.8196 49.0467 87.9246 49.1074L93.6562 52.4166C93.7617 52.4773 93.8003 52.5707 93.8135 52.6214C93.8272 52.6715 93.8404 52.7718 93.7797 52.8769L92.9356 54.3385L86.6208 50.6926L87.4643 49.2309ZM55.9048 29.9971C55.9048 29.438 56.3593 28.9835 56.9183 28.9835H64.3507C64.9097 28.9835 65.3642 29.438 65.3642 29.9971V32.497H55.9048V29.9971ZM71.1749 41.4834C71.1749 41.6698 71.0234 41.8212 70.8371 41.8212H50.4319C50.2456 41.8212 50.0941 41.6698 50.0941 41.4834V34.8619C50.0941 34.6755 50.2456 34.524 50.4319 34.524H70.8371C71.0234 34.524 71.1749 34.6755 71.1749 34.8619V41.4834ZM79.9586 38.5105H73.2019V36.551H80.5667C82.2432 36.551 83.6072 37.915 83.6072 39.5915V51.8581L81.6478 55.2517V40.1996C81.6478 39.268 80.8903 38.5105 79.9586 38.5105ZM85.6073 52.4482L91.9221 56.0942L79.4972 77.6153L73.1818 73.9693L85.6073 52.4482ZM77.3921 81.2618C77.2174 81.5643 76.9571 81.8018 76.6404 81.9486V81.9491L71.2583 84.4448L70.8413 78.6029C70.817 78.2651 70.8941 77.932 71.0635 77.6391L72.1683 75.7245L78.4837 79.3705L77.3921 81.2618Z" fill="#F0EBF5"/>
<path d="M46.1042 83.5017C46.2969 83.6733 46.5376 83.7572 46.7767 83.7572C47.0565 83.7572 47.3347 83.6421 47.5347 83.4167L49.5443 81.1543L51.0999 83.0098C51.4119 83.3824 51.8696 83.602 52.3552 83.6136C52.8414 83.6221 53.308 83.4268 53.6368 83.0694L55.5076 81.0382L57.5811 83.3851C57.9521 83.8047 58.5924 83.8443 59.0116 83.4737C59.4312 83.1032 59.4708 82.4629 59.1003 82.0432L56.7787 79.4155C56.4625 79.0576 56.0075 78.8496 55.5303 78.8449C55.5245 78.8444 55.5187 78.8444 55.5129 78.8444C55.0415 78.8444 54.5896 79.0423 54.2703 79.3891L52.4064 81.413L50.846 79.5522C50.5304 79.1759 50.0674 78.9557 49.5754 78.9483C49.0835 78.9373 48.6153 79.1484 48.289 79.5158L46.0197 82.0707C45.6476 82.4893 45.6856 83.1301 46.1042 83.5017Z" fill="#F0EBF5"/>
<path d="M76.0058 49.3211C76.0058 48.7611 75.5518 48.3076 74.9923 48.3076H46.2088C45.6493 48.3076 45.1953 48.7611 45.1953 49.3211C45.1953 49.8812 45.6493 50.3346 46.2088 50.3346H74.9923C75.5518 50.3346 76.0058 49.8812 76.0058 49.3211Z" fill="#F0EBF5"/>
<path d="M46.3436 55.74H58.3705C58.93 55.74 59.384 55.2866 59.384 54.7265C59.384 54.1664 58.93 53.713 58.3705 53.713H46.3436C45.784 53.713 45.3301 54.1664 45.3301 54.7265C45.3301 55.2866 45.784 55.74 46.3436 55.74Z" fill="#F0EBF5"/>
<path d="M68.8446 54.7265C68.8446 54.1664 68.3906 53.713 67.8311 53.713H63.1014C62.5419 53.713 62.0879 54.1664 62.0879 54.7265C62.0879 55.2866 62.5419 55.74 63.1014 55.74H67.8311C68.3906 55.74 68.8446 55.2866 68.8446 54.7265Z" fill="#F0EBF5"/>
<path d="M46.3436 61.1454H56.0732C56.6327 61.1454 57.0867 60.692 57.0867 60.1319C57.0867 59.5718 56.6327 59.1184 56.0732 59.1184H46.3436C45.784 59.1184 45.3301 59.5718 45.3301 60.1319C45.3301 60.692 45.784 61.1454 46.3436 61.1454Z" fill="#F0EBF5"/>
<path d="M64.9928 59.1184H60.3983C59.8387 59.1184 59.3848 59.5718 59.3848 60.1319C59.3848 60.692 59.8387 61.1454 60.3983 61.1454H64.9928C65.5524 61.1454 66.0063 60.692 66.0063 60.1319C66.0063 59.5718 65.5524 59.1184 64.9928 59.1184Z" fill="#F0EBF5"/>
<path d="M46.3436 66.5507H53.3705C53.9301 66.5507 54.384 66.0972 54.384 65.5372C54.384 64.9771 53.9301 64.5237 53.3705 64.5237H46.3436C45.784 64.5237 45.3301 64.9771 45.3301 65.5372C45.3301 66.0972 45.784 66.5507 46.3436 66.5507Z" fill="#7568F6"/>
<path d="M66.0059 65.5372C66.0059 64.9771 65.5519 64.5237 64.9924 64.5237H57.6951C57.1356 64.5237 56.6816 64.9771 56.6816 65.5372C56.6816 66.0972 57.1356 66.5507 57.6951 66.5507H64.9924C65.5519 66.5507 66.0059 66.0972 66.0059 65.5372Z" fill="#7568F6"/>
<path d="M46.3436 71.9561H53.3705C53.9301 71.9561 54.384 71.5026 54.384 70.9426C54.384 70.3825 53.9301 69.9291 53.3705 69.9291H46.3436C45.784 69.9291 45.3301 70.3825 45.3301 70.9426C45.3301 71.5026 45.784 71.9561 46.3436 71.9561Z" fill="#7568F6"/>
</g>
<circle cx="62" cy="62" r="60.5" stroke="#F0EBF5" stroke-width="3"/>
<path d="M12.692 148.392V149.526H23.564V148.392H12.692ZM12.188 158.904V160.056H23.798V158.904H12.188ZM17.426 146.88V151.362H18.74V146.88H17.426ZM15.356 153.738H20.882V154.89H15.356V153.738ZM15.356 155.79H20.882V156.942H15.356V155.79ZM15.356 151.74H20.882V152.856H15.356V151.74ZM14.114 150.804V157.878H22.178V150.804H14.114ZM19.064 160.974C20.414 161.748 21.854 162.738 22.682 163.458L23.924 162.774C22.988 162.036 21.422 161.064 20 160.29L19.064 160.974ZM15.752 160.344C14.78 161.19 13.16 162 11.666 162.522C11.954 162.738 12.458 163.224 12.674 163.476C14.15 162.846 15.896 161.838 17.012 160.776L15.752 160.344ZM7.436 151.29V152.568H12.746V151.29H7.436ZM9.542 147.114V158.85H10.82V147.114H9.542ZM7.094 159.228L7.616 160.578C9.2 159.894 11.27 158.994 13.178 158.112L12.872 156.852C10.748 157.752 8.552 158.688 7.094 159.228ZM32.798 146.898V149.112H34.148V146.898H32.798ZM25.85 148.338V151.542H27.092V149.526H39.872V151.542H41.15V148.338H25.85ZM32.186 150.102C31.322 150.516 29.81 150.966 28.532 151.29C28.658 151.524 28.82 151.902 28.874 152.136C30.242 151.884 31.862 151.47 33.05 150.984L32.186 150.102ZM28.046 151.02V156.042H29.27V151.29L28.046 151.02ZM28.046 155.412V156.42H39.026V151.02H34.022V152.01H37.784V155.412H28.046ZM28.478 153.216V154.188H32.726V153.216H28.478ZM34.292 153.216V154.188H38.414V153.216H34.292ZM30.53 155.88C29.45 157.536 27.362 158.904 25.274 159.714C25.526 159.966 25.922 160.524 26.084 160.794C28.262 159.804 30.494 158.202 31.736 156.24L30.53 155.88ZM29.756 157.59L28.64 158.688H39.746V157.59H29.756ZM39.314 157.59V157.77C39.134 160.686 38.954 161.802 38.648 162.126C38.504 162.27 38.342 162.288 38.018 162.27C37.73 162.288 36.902 162.27 36.02 162.198C36.236 162.522 36.38 163.026 36.398 163.386C37.298 163.422 38.162 163.44 38.612 163.404C39.116 163.368 39.44 163.26 39.764 162.936C40.196 162.468 40.412 161.244 40.61 158.13C40.628 157.95 40.646 157.59 40.646 157.59H39.314ZM28.28 159.408C28.01 160.596 27.488 161.892 26.606 162.612L27.596 163.224C28.586 162.414 29.09 161.028 29.36 159.75L28.28 159.408ZM30.422 159.714C30.8 160.74 31.052 162.054 31.034 162.882L32.15 162.72C32.15 161.892 31.862 160.596 31.484 159.588L30.422 159.714ZM32.96 159.624C33.5 160.506 33.986 161.658 34.13 162.414L35.156 162.09C35.012 161.352 34.508 160.2 33.95 159.354L32.96 159.624ZM35.462 159.534C36.074 160.11 36.74 160.974 36.992 161.55L37.946 161.082C37.658 160.488 36.992 159.678 36.362 159.102L35.462 159.534ZM58.574 155.898C57.854 156.708 56.594 157.878 55.694 158.562L56.522 159.21C57.458 158.58 58.682 157.572 59.654 156.69L58.574 155.898ZM54.11 146.862C53.894 147.582 53.462 148.59 53.12 149.256L54.254 149.544C54.668 148.95 55.172 148.014 55.604 147.15L54.11 146.862ZM51.662 152.442H57.728V154.008H51.662V152.442ZM51.662 149.832H57.728V151.398H51.662V149.832ZM50.42 148.752V155.106H59.024V148.752H50.42ZM54.056 154.512V162C54.056 162.198 54.002 162.252 53.768 162.252C53.552 162.27 52.832 162.27 52.022 162.252C52.184 162.594 52.346 163.098 52.382 163.44C53.516 163.44 54.236 163.422 54.704 163.224C55.154 163.026 55.28 162.684 55.28 162V154.512H54.056ZM49.736 156.672V157.806H52.742V156.672H49.736ZM52.436 156.672V156.888C51.914 159.246 50.618 160.902 48.926 161.784C49.196 161.982 49.61 162.432 49.772 162.72C51.572 161.694 52.994 159.804 53.642 156.942L52.904 156.636L52.67 156.672H52.436ZM55.118 154.602L54.38 155.52C54.866 157.86 56.162 161.118 59.24 162.702C59.42 162.36 59.816 161.856 60.068 161.604C56.918 160.236 55.622 157.14 55.118 154.602ZM46.028 146.898C45.56 148.086 44.714 149.85 44.066 150.894L44.984 151.29C45.686 150.3 46.532 148.68 47.216 147.348L46.028 146.898ZM48.044 148.95C47.054 150.84 45.362 153.522 44.012 155.124L44.84 155.592C46.19 154.026 47.936 151.47 49.178 149.472L48.044 148.95ZM43.148 150.642C44.102 151.56 45.182 152.838 45.632 153.702L46.406 152.694C45.938 151.866 44.84 150.66 43.868 149.778L43.148 150.642ZM47.342 153.072C48.062 154.26 48.764 155.862 48.998 156.87L50.06 156.384C49.808 155.394 49.07 153.846 48.314 152.658L47.342 153.072ZM43.004 154.854L43.148 156.06C44.786 155.952 46.946 155.826 49.088 155.682V154.548C46.82 154.674 44.57 154.782 43.004 154.854ZM47.81 157.428C48.242 158.454 48.62 159.804 48.71 160.668L49.754 160.344C49.646 159.48 49.268 158.148 48.8 157.122L47.81 157.428ZM44.084 157.176C43.886 158.742 43.544 160.362 42.968 161.46C43.238 161.586 43.778 161.82 43.994 161.964C44.57 160.812 44.984 159.084 45.218 157.374L44.084 157.176ZM45.992 155.376V163.44H47.18V155.376H45.992ZM68.96 152.712V154.062H76.358V152.712H68.96ZM61.418 161.244V162.594H77.582V161.244H61.418ZM68.186 147.15V161.964H69.608V147.15H68.186ZM80.282 148.392V149.562H94.736V148.392H80.282ZM81.11 151.038V152.172H94.034V151.038H81.11ZM79.616 153.792V154.98H95.348V153.792H79.616ZM86.762 146.88V154.71H88.13V146.88H86.762ZM86.708 154.188C85.034 155.97 81.776 157.698 79.004 158.49C79.292 158.76 79.67 159.264 79.886 159.606C82.676 158.688 86.006 156.798 87.878 154.746L86.708 154.188ZM88.67 154.368L87.446 154.62C88.688 158.976 91.046 162.018 95.024 163.386C95.222 163.026 95.6 162.468 95.906 162.198C92.09 161.064 89.75 158.22 88.67 154.368ZM93.8 155.574C92.774 156.528 91.028 157.77 89.768 158.526L90.596 159.264C91.892 158.544 93.602 157.446 94.88 156.42L93.8 155.574ZM81.002 162.198L81.434 163.44C83.594 162.9 86.672 162.126 89.516 161.388L89.39 160.182C86.312 160.938 83.072 161.748 81.002 162.198ZM83.54 157.536V162.108H84.89V156.672L84.512 156.564L83.54 157.536ZM104.744 152.64V163.44H106.13V152.64H104.744ZM100.658 155.682H110.45V157.248H100.658V155.682ZM100.658 153.108H110.45V154.638H100.658V153.108ZM99.344 152.01V158.328H111.818V152.01H99.344ZM97.526 159.714V160.902H113.492V159.714H97.526ZM100.082 148.5H103.538V150.21H100.082V148.5ZM98.858 147.6V151.11H104.798V147.6H98.858ZM107.48 148.5H110.972V150.21H107.48V148.5ZM106.256 147.6V151.11H112.25V147.6H106.256Z" fill="#F0EBF5"/>
<defs>
<clipPath id="clip0_2545_16600">
<rect width="69.1884" height="69.1884" fill="white" transform="translate(191.453 25.1594)"/>
</clipPath>
<clipPath id="clip1_2545_16600">
<rect width="69.1884" height="69.1884" fill="white" transform="translate(386.449 26.9565)"/>
</clipPath>
<clipPath id="clip2_2545_16600">
<rect width="71.8841" height="71.8841" fill="white" transform="translate(542.652 28.7537)"/>
</clipPath>
<clipPath id="clip3_2545_16600">
<rect width="69.1884" height="69.1884" fill="white" transform="translate(31.4453 26.9565)"/>
</clipPath>
</defs>
</svg>
