<svg width="807" height="187" viewBox="0 0 807 187" fill="none" xmlns="http://www.w3.org/2000/svg">
<path d="M286.043 87.5547C285.213 87.5547 284.539 88.2284 284.539 89.0586C284.539 89.8888 285.213 90.5625 286.043 90.5625C286.873 90.5625 287.547 89.8888 287.547 89.0586C287.547 88.2284 286.873 87.5547 286.043 87.5547Z" fill="#7568F6"/>
<path d="M289.746 82.6915L282.598 80.3093L280.032 75.1769C282.344 72.8239 283.949 69.7105 284.49 66.4632L284.81 64.5449H287.547C290.035 64.5449 292.059 62.521 292.059 60.0332V50.5586C292.059 38.1198 281.939 28 269.5 28C257.029 28 246.941 38.0908 246.941 50.5586V60.0332C246.941 61.9937 248.199 63.6654 249.949 64.2863V66.0488C249.949 68.5366 251.973 70.5605 254.461 70.5605H255.782C256.434 71.9768 257.277 73.2885 258.304 74.4668C258.517 74.7116 258.739 74.9489 258.967 75.1798L256.402 80.3093L249.254 82.6917C240.943 85.4631 234.91 94.2126 234.91 103.496C234.91 104.327 235.583 105 236.414 105H302.586C303.416 105 304.09 104.327 304.09 103.496C304.09 94.2126 298.058 85.4631 289.746 82.6915ZM289.051 60.0332C289.051 60.8625 288.376 61.5371 287.547 61.5371H285.252C285.634 58.5759 285.889 55.4248 285.991 52.3212C285.994 52.2336 285.997 52.1485 285.999 52.0625H289.051V60.0332ZM251.453 61.5371C250.624 61.5371 249.949 60.8625 249.949 60.0332V52.0625H253.002C253.007 52.2194 253.012 52.377 253.018 52.5356C253.018 52.541 253.018 52.5463 253.019 52.5517C253.019 52.5522 253.019 52.5526 253.019 52.5531C253.124 55.5717 253.375 58.641 253.749 61.537H251.453V61.5371ZM254.461 67.5527C253.632 67.5527 252.957 66.8781 252.957 66.0488V64.5449H254.19L254.51 66.4638C254.571 66.8285 254.646 67.1918 254.733 67.5527H254.461ZM252.96 49.0547H250.006C250.768 38.9754 259.18 31.0078 269.5 31.0078C279.774 31.0078 288.223 38.9743 288.993 49.0547H286.041C285.932 40.7491 279.169 34.0156 270.846 34.0156H268.154C259.832 34.0156 253.068 40.7491 252.96 49.0547ZM268.154 37.0234H270.846C277.585 37.0234 283.039 42.5354 283.035 49.2667C283.035 49.74 283.031 50.1521 283.023 50.527C283.023 50.5318 283.023 50.5368 283.023 50.5417L281.142 50.273C276.032 49.5433 271.207 47.1307 267.556 43.4796C267.273 43.1976 266.891 43.0391 266.492 43.0391C262.453 43.0391 258.587 44.8792 256.031 47.9881C256.661 41.8644 261.838 37.0234 268.154 37.0234ZM257.851 67.5527C257.098 65.0483 256.236 57.6791 256.046 52.9569L258.07 50.258C259.929 47.7801 262.821 46.2406 265.898 46.0639C269.946 49.9163 275.183 52.4603 280.717 53.2504L282.931 53.5669C282.783 56.7078 282.481 59.8597 282.047 62.7584C282.047 62.7593 282.047 62.7604 282.047 62.7614C281.909 63.6934 281.8 64.2932 281.523 65.9684C280.727 70.7455 277.162 75.0655 272.457 76.242C270.52 76.7255 268.48 76.7254 266.544 76.242C263.606 75.5075 260.912 73.4745 259.173 70.5605H262.239C262.86 72.3109 264.532 73.5684 266.492 73.5684H269.5C271.993 73.5684 274.012 71.5495 274.012 69.0566C274.012 66.5689 271.988 64.5449 269.5 64.5449H266.492C264.488 64.5449 262.841 65.8395 262.237 67.5527H257.851ZM266.366 79.2856C267.397 79.5029 268.449 79.6141 269.5 79.6141C270.323 79.6141 271.146 79.5452 271.959 79.4116L269.302 82.222L266.366 79.2856ZM267.234 84.4084L262.464 89.4528C261.151 86.9391 260.023 84.3231 259.097 81.6449L260.888 78.0623L267.234 84.4084ZM277.857 77.5528L279.903 81.6448C278.976 84.3275 277.847 86.9444 276.535 89.455L271.43 84.3496L277.857 77.5528ZM264.988 69.0566C264.988 68.2263 265.662 67.5527 266.492 67.5527H269.5C270.329 67.5527 271.004 68.2274 271.004 69.0566C271.004 69.8871 270.33 70.5605 269.5 70.5605H266.492C265.663 70.5605 264.988 69.8859 264.988 69.0566ZM237.978 101.992C238.574 94.542 243.532 87.7702 250.205 85.545L256.536 83.4353C257.696 86.6424 259.132 89.7596 260.816 92.7205C260.819 92.7256 260.822 92.7307 260.825 92.7356C260.825 92.7358 260.825 92.7358 260.825 92.7359C262.055 94.8999 263.44 97.0146 264.941 99.0221L266.791 101.992H237.978ZM269.5 100.652L267.46 97.3772C267.438 97.3405 267.413 97.3048 267.387 97.2702C266.169 95.6457 265.033 93.9467 263.999 92.2078L269.362 86.5359L275.013 92.1873C273.972 93.9389 272.832 95.645 271.613 97.2699C271.539 97.3681 271.644 97.2134 269.5 100.652ZM272.209 101.992L274.058 99.0223C275.566 97.007 276.961 94.8754 278.204 92.686C278.211 92.6728 278.218 92.6592 278.226 92.646C278.227 92.6444 278.228 92.6429 278.229 92.6412C279.891 89.7086 281.313 86.6185 282.464 83.4353L288.795 85.545C295.468 87.7702 300.426 94.542 301.022 101.992H272.209Z" fill="#C7C7C7"/>
<path d="M296.503 95.9064C295.498 93.8946 294.025 92.1074 292.245 90.7379C291.587 90.2313 290.643 90.3544 290.136 91.0128C289.63 91.6712 289.753 92.6154 290.411 93.1219C291.833 94.2157 293.009 95.6434 293.812 97.2506C294.184 97.9949 295.087 98.2944 295.829 97.9239C296.572 97.5527 296.874 96.6495 296.503 95.9064Z" fill="#7568F6"/>
<circle cx="269" cy="69" r="67.5" stroke="#C4C4C4" stroke-width="3"/>
<path d="M206.612 165.286H209.078L208.646 165.664C209.078 165.808 209.546 166.006 210.014 166.222L206.612 166.276V165.286ZM201.068 164.386V163.27H205.316V164.386H201.068ZM201.068 161.326H205.316V162.406H201.068V161.326ZM210.986 161.326V162.406H206.612V161.326H210.986ZM210.986 164.386H206.612V163.27H210.986V164.386ZM214.118 168.274H209.834V167.122L211.616 167.068C212.012 167.32 212.372 167.572 212.642 167.788L213.434 167.032C212.714 166.474 211.436 165.772 210.212 165.286H212.3V160.408H206.612V159.4H213.398V158.32H206.612V156.97H205.316V158.32H198.422V159.4H205.316V160.408H199.808V165.286H205.316V166.276C202.742 166.312 200.384 166.33 198.602 166.33L198.656 167.374C201.248 167.338 204.848 167.266 208.538 167.158V168.274H197.9V169.372H201.626L200.744 170.128C201.824 170.794 203.084 171.766 203.714 172.468L204.668 171.586C204.038 170.92 202.778 169.984 201.716 169.372H208.538V171.91C208.538 172.144 208.448 172.216 208.178 172.234C207.89 172.252 206.882 172.252 205.784 172.216C205.964 172.54 206.162 173.026 206.216 173.368C207.656 173.368 208.556 173.368 209.114 173.17C209.69 172.99 209.834 172.63 209.834 171.946V169.372H214.118V168.274ZM223.082 157.492C222.956 159.868 222.956 168.454 215.666 172.18C216.08 172.45 216.512 172.882 216.746 173.206C221.3 170.74 223.154 166.402 223.946 162.802C224.81 166.402 226.79 171.01 231.434 173.206C231.632 172.846 232.046 172.396 232.424 172.108C225.656 169.012 224.684 160.696 224.522 158.32C224.54 158.014 224.54 157.726 224.558 157.492H223.082ZM238.994 169.534C237.896 170.524 235.736 171.748 234.008 172.45C234.332 172.702 234.782 173.152 235.016 173.404C236.708 172.648 238.85 171.424 240.236 170.344L238.994 169.534ZM243.656 170.38C245.582 171.334 247.634 172.54 248.822 173.422L250.064 172.504C248.732 171.622 246.59 170.434 244.628 169.498L243.656 170.38ZM248.318 167.986C248.462 165.358 248.57 161.2 248.588 158.086H244.754V159.238H247.346C247.346 159.922 247.328 160.642 247.31 161.362H244.934V162.496H247.292C247.274 163.234 247.238 163.972 247.22 164.692H244.898V165.826H247.166C247.13 166.618 247.094 167.338 247.04 167.986H244.052V161.938H241.226V160.066H244.394V158.932H241.226V157.096H240.056V163.018H242.882V167.986H241.154V163.81H240.038V167.986H236.942L236.87 165.826H239.156V164.692H236.816L236.744 162.496H239.138V161.362H236.708L236.636 159.454C237.662 159.04 238.778 158.554 239.714 158.068L238.67 157.114C238.094 157.51 237.176 158.032 236.276 158.464L235.376 158.194L235.718 167.986H233.864V169.246H250.172V167.986H248.318ZM261.89 159.886V165.736C261.89 165.934 261.836 165.988 261.584 166.006C261.368 166.006 260.612 166.006 259.784 165.988C259.964 166.312 260.162 166.816 260.216 167.158C261.332 167.158 262.07 167.14 262.556 166.96C263.042 166.762 263.168 166.402 263.168 165.736V159.886H266.282C266.048 160.552 265.76 161.2 265.508 161.704L265.256 161.362L264.158 161.83C264.986 163.018 265.85 164.638 266.228 165.682L267.398 165.142C267.056 164.26 266.39 163 265.652 161.938L266.57 162.118C266.984 161.326 267.524 160.03 267.992 158.914L267.056 158.68L266.84 158.716H260.036C260.27 158.248 260.486 157.744 260.666 157.258L259.442 156.952C258.83 158.662 257.786 160.282 256.562 161.362C256.868 161.542 257.354 161.956 257.57 162.19C258.2 161.578 258.83 160.768 259.388 159.886H261.89ZM262.016 168.886C261.35 168.166 260 167.248 258.848 166.708L257.948 167.5C259.118 168.076 260.432 169.03 261.062 169.768L262.016 168.886ZM259.37 161.452C258.884 162.694 258.074 163.954 257.138 164.8C257.462 164.98 257.984 165.304 258.236 165.502C259.136 164.584 260.054 163.18 260.612 161.758L259.37 161.452ZM252.872 172.792C254.276 171.856 254.996 170.254 255.428 168.652L254.258 168.256C253.88 169.75 253.088 171.208 251.774 172.036L252.872 172.792ZM255.968 156.934C254.942 158.914 253.286 160.858 251.594 162.118C251.846 162.37 252.296 162.91 252.458 163.162C253.07 162.658 253.7 162.064 254.294 161.398V167.158H255.59V159.796C256.166 159.004 256.706 158.176 257.138 157.33L255.968 156.934ZM258.848 171.856C257.894 171.856 257.75 171.766 257.75 171.298V168.04H256.418V171.298C256.418 172.684 256.904 173.062 258.758 173.062H262.232C263.762 173.062 264.158 172.522 264.338 170.362C263.96 170.272 263.42 170.074 263.132 169.858C263.06 171.604 262.934 171.856 262.142 171.856H258.848ZM263.834 168.598C265.166 169.732 266.516 171.424 267.02 172.594L268.208 171.91C267.632 170.704 266.264 169.102 264.914 167.95L263.834 168.598ZM276.308 163.774C277.37 164.53 278.648 165.61 279.494 166.438C278.396 167.284 277.172 168.022 275.93 168.562C276.236 168.796 276.614 169.228 276.776 169.534C279.944 168.022 282.806 165.52 284.516 162.676L283.346 162.208C282.644 163.414 281.654 164.584 280.502 165.61C280.07 165.196 279.494 164.71 278.9 164.224C279.728 163.288 280.718 162.01 281.51 160.912L281.438 160.876H286.172V159.652H281.834V156.988H280.52V159.652H276.038V160.876H279.89C279.368 161.758 278.648 162.766 278.018 163.558C277.712 163.324 277.388 163.09 277.1 162.892L276.308 163.774ZM276.218 166.69C275.876 166.168 274.418 164.062 273.878 163.396V162.028H275.984V160.786H273.878V156.934H272.618V160.786H269.99V162.028H272.492C271.934 164.494 270.782 167.302 269.648 168.814C269.882 169.12 270.206 169.642 270.35 170.002C271.196 168.832 272.006 166.942 272.618 164.98V173.35H273.878V164.98C274.454 165.916 275.156 167.104 275.462 167.716L276.218 166.69ZM284.822 165.466C283.004 168.58 279.548 171.01 275.462 172.288C275.768 172.576 276.092 173.026 276.272 173.35C278.486 172.594 280.502 171.55 282.194 170.236C283.364 171.298 284.624 172.594 285.272 173.422L286.352 172.594C285.632 171.748 284.3 170.47 283.148 169.444C284.3 168.436 285.272 167.284 286.028 166.006L284.822 165.466ZM295.91 157.366C295.586 158.212 294.956 159.472 294.506 160.246L295.424 160.66C295.928 159.94 296.54 158.806 297.098 157.834L295.91 157.366ZM290.276 160.138C290.096 159.418 289.538 158.302 288.98 157.456L288.008 157.888C288.548 158.734 289.088 159.886 289.268 160.624L290.276 160.138ZM294.308 164.638H290.402L291.356 164.296C291.23 163.648 290.834 162.64 290.366 161.902L289.322 162.262C289.736 163.018 290.132 163.99 290.24 164.638H288.494V165.772H291.788V167.608H288.944V168.724H291.788V170.848C290.312 171.046 288.962 171.208 287.882 171.334L288.08 172.594C290.366 172.288 293.732 171.82 296.864 171.37L296.828 170.182L293.03 170.686V168.724H295.982V167.608H293.03V165.772H296.36V164.638H294.452C294.794 164.008 295.226 163.072 295.604 162.226L294.398 161.866C294.164 162.604 293.732 163.684 293.372 164.368L294.308 164.638ZM304.226 161.74H302.318V157.06H301.022V161.74H297.008V160.75H294.2V157.024H293.084V160.75H291.716V157.024H290.618V160.75H287.828V161.866H296.81V163H301.022V171.73C301.022 172.036 300.914 172.144 300.608 172.144C300.32 172.162 299.33 172.162 298.25 172.126C298.448 172.468 298.664 173.044 298.736 173.386C300.194 173.386 301.058 173.35 301.598 173.152C302.102 172.918 302.318 172.54 302.318 171.73V163H304.226V161.74ZM300.158 168.49C299.96 167.392 299.258 165.718 298.502 164.422L297.386 164.818C298.124 166.132 298.79 167.842 298.97 168.922L300.158 168.49ZM315.656 159.256C315.224 160.894 314.144 161.794 311.21 162.316C311.426 162.55 311.732 162.982 311.84 163.27C314.396 162.766 315.728 161.92 316.43 160.588C317.096 161.884 318.41 163.036 321.47 163.576C321.596 163.252 321.902 162.748 322.154 162.496C318.464 161.956 317.456 160.642 317.06 159.256H319.94C319.616 159.778 319.22 160.282 318.842 160.642L319.904 161.02C320.552 160.39 321.218 159.382 321.722 158.464L320.822 158.194L320.606 158.248H314.45C314.684 157.87 314.882 157.51 315.062 157.132L313.856 156.934C313.388 158.014 312.488 159.22 311.138 160.156C311.462 160.282 311.894 160.57 312.146 160.822C312.776 160.336 313.298 159.814 313.748 159.256H315.656ZM309.59 168.364H318.608V169.624H309.59V168.364ZM309.59 166.258H318.608V167.5H309.59V166.258ZM309.59 164.188H318.608V165.394H309.59V164.188ZM308.294 170.506H319.94V163.288H308.294V170.506ZM311.138 158.716C310.274 158.266 308.618 157.672 307.376 157.33L306.782 158.248C308.06 158.644 309.716 159.274 310.544 159.76L311.138 158.716ZM310.922 160.678C309.086 161.182 307.196 161.722 305.9 162.028L306.422 163.198C307.772 162.766 309.464 162.244 311.084 161.722L310.922 160.678ZM311.3 170.686C310.022 171.406 307.862 172.036 306.026 172.414C306.332 172.648 306.782 173.17 307.016 173.422C308.798 172.936 311.048 172.108 312.506 171.262L311.3 170.686ZM315.494 171.424C317.456 172.072 319.4 172.828 320.516 173.404L321.992 172.738C320.678 172.144 318.536 171.37 316.592 170.74L315.494 171.424ZM335.798 160.408C335.222 159.742 333.98 158.824 332.972 158.212L332.288 159.112C333.314 159.778 334.538 160.75 335.114 161.434L335.798 160.408ZM335.024 164.71C334.394 164.062 333.062 163.252 332 162.694L331.37 163.63C332.45 164.206 333.728 165.124 334.358 165.79L335.024 164.71ZM329.822 158.014C329.552 159.22 329.048 161.002 328.634 162.064L329.498 162.352C329.984 161.344 330.542 159.652 330.974 158.302L329.822 158.014ZM326.078 162.028C325.952 160.948 325.538 159.328 325.016 158.086L324.044 158.32C324.512 159.58 324.926 161.236 325.016 162.316L326.078 162.028ZM328.04 164.206H330.974V162.946H328.04V157.006H326.798V162.946H323.918V164.206H326.438C325.808 166.222 324.674 168.544 323.63 169.804C323.846 170.128 324.17 170.722 324.314 171.1C325.214 169.894 326.132 167.896 326.798 165.97V173.368H328.04V165.988C328.688 166.996 329.534 168.382 329.858 169.048L330.74 168.004C330.344 167.392 328.544 165.016 328.04 164.458V164.206ZM340.316 167.896L340.118 166.672L337.994 167.05V156.952H336.734V167.284L330.938 168.31L331.154 169.552L336.734 168.544V173.368H337.994V168.31L340.316 167.896Z" fill="#C7C7C7"/>
<line x1="138" y1="70" x2="200" y2="70" stroke="#C7C7C7" stroke-width="4"/>
<line x1="607" y1="70" x2="669" y2="70" stroke="#C7C7C7" stroke-width="4"/>
<line x1="338" y1="70" x2="469" y2="70" stroke="#C7C7C7" stroke-width="4" stroke-dasharray="10 10"/>
<circle cx="538" cy="69" r="67.5" stroke="#C4C4C4" stroke-width="3"/>
<path d="M575.434 66.9962H564.303V31.504C564.303 30.8958 563.937 30.3474 563.375 30.1146C562.813 29.8816 562.166 30.0106 561.736 30.4405L557.475 34.7007L553.215 30.4406C552.628 29.8533 551.676 29.8533 551.088 30.4406L546.828 34.7009L542.568 30.4406C541.981 29.8533 541.029 29.8533 540.441 30.4406L536.181 34.7009L531.921 30.4406C531.333 29.8533 530.381 29.8533 529.794 30.4406L525.534 34.7009L521.274 30.4406C520.686 29.8533 519.734 29.8533 519.147 30.4406L514.886 34.7009L510.626 30.4406C510.043 29.8569 509.099 29.8539 508.51 30.4323C508.201 30.7363 508.051 31.1413 508.061 31.5436V99.18C508.061 103.492 511.569 107 515.881 107H569.116C569.116 107 569.116 107 569.116 107C569.117 107 569.117 107 569.118 107C573.43 107 576.938 103.492 576.938 99.18V68.5C576.938 67.6694 576.265 66.9962 575.434 66.9962ZM515.881 103.992C513.227 103.992 511.069 101.833 511.069 99.1798V35.1367L513.823 37.891C514.41 38.4782 515.363 38.4782 515.95 37.891L520.21 33.6307L524.47 37.891C525.058 38.4782 526.01 38.4782 526.597 37.891L530.858 33.6307L535.118 37.891C535.705 38.4782 536.658 38.4782 537.245 37.891L541.505 33.6307L545.765 37.891C546.353 38.4782 547.305 38.4782 547.892 37.891L552.153 33.6307L556.413 37.891C557 38.4782 557.953 38.4782 558.54 37.891L561.296 35.1346V68.5C561.296 68.5137 561.298 68.527 561.298 68.5407V99.1798C561.298 100.994 561.921 102.664 562.961 103.992H515.881ZM573.93 99.1798C573.93 101.833 571.771 103.992 569.118 103.992C566.464 103.992 564.305 101.833 564.305 99.1798V70.0039H573.93V99.1798Z" fill="#C7C7C7"/>
<path d="M536.183 53.8903C534.691 53.8903 533.477 52.8505 533.477 51.5726C533.477 50.2946 534.691 49.2548 536.183 49.2548C537.676 49.2548 538.89 50.2946 538.89 51.5726C538.89 52.4032 539.564 53.0765 540.394 53.0765C541.225 53.0765 541.898 52.4032 541.898 51.5726C541.898 49.1211 540.111 47.0526 537.687 46.4357V45.417C537.687 44.5864 537.014 43.9131 536.183 43.9131C535.353 43.9131 534.68 44.5864 534.68 45.417V46.4357C532.256 47.0526 530.469 49.1213 530.469 51.5726C530.469 54.509 533.032 56.898 536.183 56.898C537.676 56.898 538.89 57.9378 538.89 59.2158C538.89 60.4938 537.676 61.5335 536.183 61.5335C534.691 61.5335 533.477 60.4937 533.477 59.2158C533.477 58.3852 532.803 57.7119 531.973 57.7119C531.142 57.7119 530.469 58.3852 530.469 59.2158C530.469 61.6673 532.256 63.7358 534.68 64.3527V65.5799C534.68 66.4105 535.353 67.0838 536.183 67.0838C537.014 67.0838 537.687 66.4105 537.687 65.5799V64.3527C540.111 63.7358 541.898 61.6673 541.898 59.2158C541.898 56.2794 539.334 53.8903 536.183 53.8903Z" fill="#7568F6"/>
<path d="M551.292 53.8906H548.361C547.531 53.8906 546.857 54.5639 546.857 55.3945C546.857 56.2251 547.531 56.8984 548.361 56.8984H551.292C552.123 56.8984 552.796 56.2251 552.796 55.3945C552.796 54.5639 552.123 53.8906 551.292 53.8906Z" fill="#7568F6"/>
<path d="M524.005 53.8906H521.074C520.244 53.8906 519.57 54.5639 519.57 55.3945C519.57 56.2251 520.244 56.8984 521.074 56.8984H524.005C524.836 56.8984 525.509 56.2251 525.509 55.3945C525.509 54.5639 524.836 53.8906 524.005 53.8906Z" fill="#7568F6"/>
<path d="M552.052 70.6064H528.227C527.396 70.6064 526.723 71.2797 526.723 72.1104C526.723 72.941 527.396 73.6143 528.227 73.6143H552.052C552.882 73.6143 553.556 72.941 553.556 72.1104C553.556 71.2797 552.882 70.6064 552.052 70.6064Z" fill="#C7C7C7"/>
<path d="M521.376 71.0471C521.096 70.7674 520.708 70.6064 520.312 70.6064C519.917 70.6064 519.529 70.7674 519.249 71.0471C518.97 71.3268 518.809 71.7148 518.809 72.1104C518.809 72.5059 518.97 72.8939 519.249 73.1736C519.529 73.4533 519.917 73.6143 520.312 73.6143C520.708 73.6143 521.096 73.4533 521.376 73.1736C521.655 72.8939 521.816 72.5059 521.816 72.1104C521.816 71.7148 521.655 71.3268 521.376 71.0471Z" fill="#C7C7C7"/>
<path d="M552.052 80.5322H528.227C527.396 80.5322 526.723 81.2055 526.723 82.0361C526.723 82.8667 527.396 83.54 528.227 83.54H552.052C552.882 83.54 553.556 82.8667 553.556 82.0361C553.556 81.2055 552.882 80.5322 552.052 80.5322Z" fill="#C7C7C7"/>
<path d="M521.376 80.9729C521.096 80.6931 520.708 80.5322 520.312 80.5322C519.917 80.5322 519.529 80.6931 519.249 80.9729C518.97 81.2526 518.809 81.6406 518.809 82.0361C518.809 82.4317 518.97 82.8197 519.249 83.0994C519.529 83.3791 519.917 83.54 520.312 83.54C520.708 83.54 521.096 83.3791 521.376 83.0994C521.655 82.8197 521.816 82.4317 521.816 82.0361C521.816 81.6406 521.655 81.2526 521.376 80.9729Z" fill="#C7C7C7"/>
<path d="M552.052 90.457H528.227C527.396 90.457 526.723 91.1303 526.723 91.9609C526.723 92.7915 527.396 93.4648 528.227 93.4648H552.052C552.882 93.4648 553.556 92.7915 553.556 91.9609C553.556 91.1303 552.882 90.457 552.052 90.457Z" fill="#C7C7C7"/>
<path d="M521.376 90.8977C521.096 90.618 520.708 90.457 520.312 90.457C519.917 90.457 519.529 90.618 519.249 90.8977C518.97 91.1774 518.809 91.5654 518.809 91.9609C518.809 92.3565 518.97 92.7445 519.249 93.0242C519.529 93.3039 519.917 93.4648 520.312 93.4648C520.708 93.4648 521.096 93.3039 521.376 93.0242C521.655 92.7445 521.816 92.3565 521.816 91.9609C521.816 91.5654 521.655 91.1774 521.376 90.8977Z" fill="#C7C7C7"/>
<path d="M489.004 156.988C487.978 159.706 486.25 162.37 484.468 164.08C484.702 164.386 485.08 165.088 485.224 165.376C485.872 164.71 486.538 163.936 487.15 163.072V173.332H488.428V161.11C489.13 159.94 489.742 158.662 490.264 157.366L489.004 156.988ZM492.118 158.986H498.796V162.28H492.118V158.986ZM501.118 166.924V165.7H496.078V163.468H500.128V157.78H490.858V163.468H494.746V165.7H489.526V166.924H493.972C492.766 168.832 490.858 170.614 489.004 171.532C489.31 171.784 489.706 172.27 489.94 172.594C491.686 171.586 493.486 169.786 494.746 167.806V173.386H496.078V167.752C497.302 169.714 499.03 171.586 500.632 172.63C500.866 172.288 501.298 171.802 501.586 171.568C499.858 170.632 498.04 168.814 496.852 166.924H501.118ZM510.874 163.774C510.478 162.748 509.434 161.308 508.408 160.264L507.346 160.822C507.796 161.308 508.264 161.866 508.66 162.46C507.634 162.712 506.626 162.964 505.69 163.198L505.528 159.382C507.202 159.04 509.038 158.536 510.388 157.978L509.47 157.006C508.48 157.492 506.842 157.996 505.348 158.374L504.196 158.05L504.376 163.504C503.8 163.648 503.26 163.774 502.792 163.882L503.152 165.16C504.844 164.71 507.112 164.098 509.29 163.504C509.47 163.828 509.614 164.116 509.704 164.386L510.874 163.774ZM510.334 166.978V168.742H506.428V166.978H510.334ZM515.662 168.742H511.594V166.978H515.662V168.742ZM511.594 171.604V169.768H515.662V171.604H511.594ZM506.428 171.604V169.768H510.334V171.604H506.428ZM505.168 173.368H506.428V172.72H515.662V173.296H516.976V165.88H505.168V173.368ZM511.018 157.942V159.076H513.124C512.872 161.488 512.206 163.378 509.848 164.404C510.136 164.62 510.496 165.07 510.622 165.358C513.286 164.134 514.078 161.938 514.384 159.076H517.12C516.976 162.082 516.814 163.234 516.562 163.522C516.418 163.702 516.256 163.72 515.986 163.702C515.716 163.702 514.978 163.702 514.204 163.63C514.402 163.972 514.528 164.44 514.564 164.818C515.356 164.854 516.148 164.872 516.58 164.836C517.048 164.782 517.372 164.656 517.642 164.332C518.092 163.828 518.254 162.406 518.434 158.5C518.452 158.302 518.452 157.942 518.452 157.942H511.018ZM534.454 160.228H530.98V158.536H534.454V160.228ZM535.696 157.636H529.756V161.128H535.696V157.636ZM527.056 160.228H523.618V158.536H527.056V160.228ZM528.316 157.636H522.412V161.128H528.316V157.636ZM524.194 167.212V165.664H528.262V167.212H524.194ZM524.194 163.108H528.262V164.638H524.194V163.108ZM533.914 164.638H529.63V163.108H533.914V164.638ZM533.914 167.212H529.63V165.664H533.914V167.212ZM536.938 169.66H529.63V168.292H535.282V162.028H522.898V168.292H528.262V169.66H521.098V170.83H528.262V173.368H529.63V170.83H536.938V169.66ZM543.994 164.494C543.4 164.692 542.788 164.89 542.212 165.07V161.776H543.868V160.552H542.212V156.952H541.006V160.552H538.81V161.776H541.006V165.448C540.088 165.736 539.242 165.988 538.558 166.168L538.9 167.464C539.53 167.266 540.25 167.032 541.006 166.78V171.856C541.006 172.108 540.916 172.18 540.7 172.18C540.484 172.18 539.782 172.18 539.008 172.162C539.188 172.504 539.35 173.062 539.404 173.368C540.52 173.386 541.204 173.332 541.618 173.152C542.068 172.918 542.212 172.558 542.212 171.856V166.384C542.86 166.168 543.526 165.952 544.174 165.736L543.994 164.494ZM545.686 161.038H553.624C553.48 161.56 553.3 162.082 553.138 162.46L554.164 162.676C554.47 162.064 554.794 161.056 555.028 160.192L554.218 159.994L554.002 160.03H549.862V159.058H554.092V158.068H549.862V156.97H548.584V160.03H544.534V165.124C544.534 167.446 544.354 170.506 542.752 172.666C543.022 172.792 543.526 173.17 543.742 173.35C545.452 171.064 545.686 167.644 545.686 165.124V161.038ZM552.958 164.602C553.966 164.602 554.308 164.332 554.398 163.234C554.11 163.162 553.678 163.036 553.444 162.892C553.408 163.648 553.3 163.756 552.814 163.756H550.366C549.7 163.756 549.592 163.702 549.592 163.342V162.91L552.616 162.622L552.508 161.794L549.592 162.064V161.092H548.44V162.172L546.118 162.388L546.208 163.234L548.44 163.018V163.342C548.44 164.368 548.818 164.602 550.276 164.602H552.958ZM554.092 166.816C553.66 167.23 552.976 167.788 552.346 168.256C552.058 167.626 551.824 166.942 551.644 166.24H554.992V165.304H546.208V166.24H549.592C548.656 166.906 547.234 167.5 546.01 167.86C546.136 168.022 546.37 168.364 546.46 168.562C547.162 168.346 547.9 168.058 548.602 167.698C548.8 167.842 548.98 168.004 549.142 168.166C548.35 168.832 546.964 169.498 545.848 169.822C546.046 170.002 546.28 170.362 546.388 170.56C547.468 170.146 548.764 169.408 549.646 168.724C549.808 168.94 549.934 169.156 550.042 169.372C548.998 170.416 547 171.55 545.416 172.072C545.632 172.27 545.866 172.63 545.992 172.864C547.432 172.27 549.196 171.208 550.348 170.182C550.582 171.1 550.438 171.892 550.078 172.216C549.88 172.414 549.646 172.45 549.376 172.45C549.106 172.45 548.728 172.432 548.314 172.378C548.494 172.666 548.584 173.098 548.602 173.368C548.962 173.404 549.286 173.404 549.574 173.404C550.078 173.386 550.456 173.296 550.852 172.936C551.86 172.072 551.842 169.084 549.43 167.266C549.916 166.978 550.366 166.672 550.744 166.348C551.374 169.12 552.652 171.46 554.686 172.558C554.848 172.252 555.208 171.838 555.442 171.604C554.308 171.1 553.408 170.164 552.724 169.012C553.426 168.58 554.236 168.004 554.884 167.428L554.092 166.816ZM562.282 157.564H557.62V158.644H562.282V157.564ZM562.858 159.922H556.756V161.02H562.858V159.922ZM562.354 163.414V162.352H557.512V163.414H562.354ZM561.22 168.238V171.244H558.628V168.238H561.22ZM562.354 167.14H557.494V173.17H558.628V172.324H562.354V167.14ZM557.512 165.808H562.354V164.728H557.512V165.808ZM562.876 172.828H573.082V171.658H562.876V172.828ZM570.364 167.284H565.342V165.34H570.364V167.284ZM571.642 164.278H564.118V168.364H571.642V164.278ZM569.806 171.586C570.148 170.866 570.562 169.786 570.94 168.796L569.68 168.49C569.482 169.318 569.05 170.542 568.726 171.298L569.806 171.586ZM567.034 171.262C566.89 170.506 566.494 169.354 566.08 168.49L564.946 168.796C565.36 169.678 565.72 170.848 565.828 171.604L567.034 171.262ZM572.38 159.31C571.984 159.724 571.318 160.282 570.76 160.714C570.526 160.354 570.292 159.958 570.094 159.562C570.706 159.184 571.408 158.68 572.038 158.194L571.264 157.456C570.886 157.834 570.274 158.374 569.752 158.788C569.5 158.212 569.302 157.6 569.14 156.988L568.042 157.24C568.51 159.058 569.212 160.732 570.184 162.046H565.666C566.494 160.894 567.178 159.49 567.556 157.87L566.8 157.582L566.584 157.636H563.362V158.716H566.098C565.882 159.346 565.612 159.958 565.27 160.516C564.874 160.084 564.334 159.634 563.848 159.292L563.092 160.03C563.614 160.426 564.208 160.984 564.622 161.47C563.938 162.334 563.128 163.036 562.282 163.486C562.552 163.72 562.876 164.188 563.038 164.476C563.866 163.99 564.658 163.288 565.36 162.442V163.126H570.382V162.298C570.994 163.09 571.714 163.738 572.524 164.206C572.722 163.882 573.1 163.414 573.388 163.18C572.596 162.766 571.894 162.172 571.3 161.434C571.894 161.056 572.56 160.57 573.154 160.084L572.38 159.31ZM580.12 159.256V162.658H576.754V159.256H580.12ZM576.754 167.464V163.882H580.12V167.464H576.754ZM581.362 168.706V158.05H575.494V170.362H576.754V168.706H581.362ZM584.206 166.42C584.296 165.61 584.314 164.818 584.314 164.08V163.27H589.336V166.42H584.206ZM589.336 158.968V162.046H584.314V158.968H589.336ZM590.632 157.708H583.018V164.08C583.018 166.87 582.712 170.254 579.688 172.576C579.958 172.756 580.462 173.206 580.678 173.494C582.712 171.928 583.63 169.786 584.026 167.644H589.336V171.604C589.336 171.928 589.21 172.036 588.868 172.054C588.58 172.054 587.446 172.072 586.276 172.036C586.492 172.378 586.708 172.972 586.78 173.332C588.31 173.332 589.3 173.296 589.876 173.098C590.452 172.864 590.632 172.45 590.632 171.604V157.708Z" fill="#C7C7C7"/>
<path d="M704.279 78.8628C705.535 78.8628 706.557 77.8407 706.557 76.5842C706.557 75.3277 705.535 74.3057 704.279 74.3057C703.022 74.3057 702 75.3277 702 76.5842C702 77.8407 703.022 78.8628 704.279 78.8628Z" fill="#C7C7C7"/>
<path d="M759.256 61.8902C758.544 61.1785 757.39 61.1785 756.678 61.8902L751.137 67.4309C750.426 68.1427 750.426 69.2969 751.137 70.0089C751.493 70.3647 751.96 70.5428 752.426 70.5428C752.893 70.5428 753.359 70.3647 753.715 70.0089L759.256 64.4682C759.968 63.7564 759.968 62.6022 759.256 61.8902Z" fill="#7568F6"/>
<path d="M756.294 75.164C756.65 75.5198 757.116 75.6979 757.583 75.6979C758.049 75.6979 758.516 75.5198 758.871 75.164L769.953 64.0825C770.665 63.3706 770.665 62.2164 769.953 61.5044C769.241 60.7928 768.087 60.7928 767.375 61.5044L756.294 72.586C755.582 73.2978 755.582 74.452 756.294 75.164Z" fill="#7568F6"/>
<path d="M781.466 63.6539L762.648 44.8355C761.936 44.1238 760.782 44.1238 760.07 44.8355L753.385 51.52H730.825C725.627 51.52 720.679 53.8882 717.403 57.8999H713.848V55.1657C713.848 54.1591 713.032 53.3428 712.026 53.3428H703.823C702.816 53.3428 702 54.1591 702 55.1657C702 56.1722 702.816 56.9885 703.823 56.9885H710.203V82.5082H703.823C702.816 82.5082 702 83.3244 702 84.331C702 85.3376 702.816 86.1538 703.823 86.1538H712.026C713.032 86.1538 713.848 85.3376 713.848 84.331V79.7739H717.403C720.679 83.7856 725.628 86.1538 730.825 86.1538H732.946L745.956 99.1641C746.312 99.52 746.778 99.6981 747.245 99.6981C747.711 99.6981 748.178 99.52 748.534 99.1641L781.466 66.2319C781.808 65.8899 782 65.4264 782 64.943C782 64.4596 781.808 63.9958 781.466 63.6539ZM719.771 76.8774C719.428 76.4066 718.88 76.1283 718.298 76.1283H713.848V61.5456H718.298C718.88 61.5456 719.428 61.2672 719.771 60.7964C722.341 57.2707 726.473 55.1657 730.825 55.1657H749.74L738.925 65.9804C737.404 64.8675 736.049 63.5135 734.908 61.9461C734.316 61.132 733.176 60.9523 732.362 61.5445C731.548 62.1367 731.368 63.2767 731.96 64.0908C735.419 68.8451 740.522 71.9678 746.33 72.8836C747.447 73.0599 748.212 74.1118 748.036 75.2289C747.86 76.3457 746.809 77.11 745.691 76.9349C740.646 76.1392 736.001 73.9255 732.258 70.5334C731.512 69.8573 730.36 69.9139 729.684 70.6598C729.007 71.4057 729.064 72.5584 729.81 73.2345C730.137 73.5305 730.471 73.816 730.809 74.0962L727.138 77.7677C726.796 78.1095 726.604 78.5732 726.604 79.0566C726.604 79.5401 726.796 80.0036 727.138 80.3456L729.202 82.4101C725.462 81.9582 722.019 79.9613 719.771 76.8774ZM747.245 95.2972L731.004 79.0566L733.794 76.2664C737.208 78.4358 741.051 79.8937 745.123 80.5359C745.422 80.5831 745.72 80.606 746.014 80.606C748.766 80.6057 751.195 78.5997 751.637 75.7965C752.126 72.6939 750 69.7717 746.898 69.2822C745.247 69.0219 743.665 68.5476 742.182 67.879L761.359 48.7024L777.599 64.943L747.245 95.2972Z" fill="#C7C7C7"/>
<circle cx="738" cy="69" r="67.5" stroke="#C4C4C4" stroke-width="3"/>
<path d="M700.848 159.274H693.63V156.916H692.298V159.274H685.17V160.57H700.848V159.274ZM695.124 161.866C696.834 163.054 698.886 164.782 699.84 165.952L701.01 165.034C699.984 163.846 697.878 162.19 696.186 161.056L695.124 161.866ZM689.76 161.128C688.662 162.64 686.79 164.134 685.026 165.07C685.368 165.304 685.872 165.844 686.124 166.132C687.852 165.052 689.868 163.36 691.11 161.65L689.76 161.128ZM695.592 164.206C694.998 165.826 694.134 167.158 693.036 168.256C691.938 167.14 691.074 165.826 690.48 164.296L689.202 164.692C689.904 166.438 690.84 167.914 692.01 169.156C690.138 170.614 687.69 171.568 684.774 172.18C685.062 172.486 685.494 173.116 685.62 173.44C688.536 172.702 691.02 171.658 693 170.092C694.908 171.694 697.374 172.792 700.416 173.368C700.596 173.008 700.992 172.396 701.298 172.108C698.328 171.622 695.898 170.632 694.044 169.156C695.286 167.932 696.276 166.438 696.978 164.602L695.592 164.206ZM707.328 157.06C706.302 159.85 704.592 162.586 702.756 164.332C703.008 164.638 703.422 165.34 703.584 165.646C704.196 165.016 704.826 164.278 705.402 163.468V173.332H706.734V161.398C707.472 160.156 708.102 158.824 708.642 157.474L707.328 157.06ZM719.118 160.93H716.832V157.15H715.482V160.93H708.228V162.262H715.482V171.55C715.482 171.964 715.32 172.072 714.924 172.108C714.492 172.126 713.016 172.126 711.504 172.072C711.702 172.432 711.954 173.044 712.026 173.386C713.97 173.404 715.176 173.386 715.878 173.17C716.544 172.972 716.832 172.558 716.832 171.55V162.262H719.118V160.93ZM713.214 168.508C712.638 167.41 711.45 165.538 710.514 164.152L709.362 164.692C710.28 166.132 711.432 168.058 711.972 169.174L713.214 168.508ZM729.684 170.668V160.336H736.146V158.968H721.926V160.336H728.226V170.668H720.99V172H737.046V170.668H729.684ZM743.166 157.006C742.158 159.742 740.502 162.424 738.72 164.152C738.972 164.44 739.368 165.178 739.494 165.484C740.106 164.854 740.718 164.134 741.276 163.342V173.35H742.608V161.272C743.31 160.03 743.958 158.716 744.444 157.42L743.166 157.006ZM755.244 161.218V159.94H747.756C748.116 159.148 748.458 158.338 748.746 157.51L747.468 157.168C746.586 159.796 745.128 162.388 743.508 164.062C743.814 164.278 744.336 164.728 744.552 164.962C745.452 163.954 746.334 162.658 747.108 161.218H748.35V173.368H749.7V169.012H755.082V167.752H749.7V165.034H754.83V163.792H749.7V161.218H755.244ZM764.082 157.492C763.956 159.868 763.956 168.454 756.666 172.18C757.08 172.45 757.512 172.882 757.746 173.206C762.3 170.74 764.154 166.402 764.946 162.802C765.81 166.402 767.79 171.01 772.434 173.206C772.632 172.846 773.046 172.396 773.424 172.108C766.656 169.012 765.684 160.696 765.522 158.32C765.54 158.014 765.54 157.726 765.558 157.492H764.082ZM787.302 160.588H778.788V158.716H787.302V160.588ZM788.688 157.636H777.456V161.668H788.688V157.636ZM778.032 168.112H788.022V169.408H778.032V168.112ZM778.032 165.898H788.022V167.158H778.032V165.898ZM778.032 163.684H788.022V164.944H778.032V163.684ZM789.39 170.398V162.694H776.7V170.398H780.066C778.95 171.136 776.628 171.964 774.756 172.396C775.08 172.666 775.512 173.116 775.746 173.386C777.582 172.918 779.904 172.054 781.344 171.172L780.138 170.398H789.39ZM784.458 171.298C786.348 171.856 788.76 172.774 790.11 173.404L791.262 172.432C789.858 171.856 787.464 170.974 785.61 170.434L784.458 171.298Z" fill="#C7C7C7"/>
<path d="M368.836 40.46V42.044H365.812V40.46H368.836ZM373.174 42.044H370.042V40.46H373.174V42.044ZM370.042 44.672V43.034H373.174V44.672H370.042ZM365.812 44.672V43.034H368.836V44.672H365.812ZM365.812 45.698H368.836V48.614H370.042V45.698H373.174V47.336C373.174 47.57 373.102 47.642 372.868 47.642C372.652 47.642 371.878 47.66 371.032 47.624C371.194 47.93 371.356 48.398 371.41 48.722C372.616 48.722 373.372 48.704 373.84 48.524C374.308 48.326 374.452 48.002 374.452 47.354V39.434H372.184C371.788 39.218 371.32 38.966 370.798 38.714C372.13 38.048 373.48 37.148 374.434 36.248L373.606 35.618L373.354 35.69H364.57V36.752H372.076C371.356 37.274 370.474 37.796 369.61 38.174C368.764 37.814 367.882 37.454 367.108 37.184L366.262 37.94C367.342 38.336 368.62 38.912 369.682 39.434H364.552V48.686H365.812V45.698ZM363.094 38.246C362.518 37.364 361.186 36.158 360.052 35.348L359.116 36.176C360.25 37.022 361.546 38.282 362.104 39.164L363.094 38.246ZM362.698 41.99H358.81V43.25H361.402V47.876C360.484 48.614 359.458 49.37 358.594 49.91L359.242 51.206C360.268 50.45 361.222 49.676 362.14 48.884C363.238 50.306 364.858 50.936 367.216 51.026C369.196 51.116 373.012 51.08 375.01 50.99C375.082 50.594 375.28 49.982 375.424 49.676C373.282 49.82 369.178 49.874 367.216 49.784C365.11 49.712 363.562 49.118 362.698 47.768V41.99ZM384.748 36.608H389.734V38.066H386.512V41.09H384.748V36.608ZM387.52 41.09V39.002H389.734V41.09H387.52ZM383.362 42.152H391.102V47.534C391.102 47.696 391.03 47.768 390.814 47.786C390.634 47.786 389.968 47.786 389.212 47.768C389.356 48.074 389.518 48.542 389.572 48.848C390.652 48.848 391.336 48.848 391.768 48.65C392.218 48.47 392.326 48.146 392.326 47.534V41.09H390.94V35.564H383.578V41.09H382.174V48.848H383.362V42.152ZM388.492 46.166H385.918V44.258H388.492V46.166ZM389.536 43.304H384.874V47.804H385.918V47.102H389.536V43.304ZM380.986 38.318C380.428 37.436 379.186 36.212 378.088 35.384L377.062 36.14C378.16 37.004 379.366 38.246 379.906 39.146L380.986 38.318ZM380.446 41.99H376.9V43.25H379.186V47.858C378.376 48.614 377.458 49.37 376.702 49.928L377.404 51.206C378.286 50.432 379.114 49.676 379.906 48.902C381.022 50.306 382.642 50.936 385 51.026C387.016 51.116 390.814 51.08 392.83 50.99C392.884 50.594 393.1 49.982 393.262 49.676C391.102 49.82 386.962 49.874 384.982 49.784C382.876 49.712 381.292 49.1 380.446 47.768V41.99ZM403.63 45.158V42.44H408.67V45.158H403.63ZM397.384 45.158V42.44H402.262V45.158H397.384ZM402.262 38.588V41.198H397.384V38.588H402.262ZM408.67 38.588V41.198H403.63V38.588H408.67ZM403.63 37.31V34.934H402.262V37.31H396.07V47.48H397.384V46.454H402.262V51.35H403.63V46.454H408.67V47.39H410.02V37.31H403.63ZM418.768 35.564H413.656V36.644H418.768V35.564ZM419.416 37.922H412.756V39.02H419.416V37.922ZM418.804 40.352H413.584V41.414H418.804V40.352ZM413.584 43.808H418.804V42.728H413.584V43.808ZM417.67 46.238V49.262H414.736V46.238H417.67ZM418.822 45.14H413.566V51.17H414.736V50.342H418.822V45.14ZM421.954 47.048V45.752H426.832V47.048H421.954ZM426.832 43.52V44.798H421.954V43.52H426.832ZM428.092 42.494H420.712V51.332H421.954V48.002H426.832V49.946C426.832 50.162 426.778 50.216 426.562 50.234C426.328 50.234 425.59 50.252 424.78 50.216C424.96 50.522 425.122 50.99 425.158 51.314C426.274 51.314 427.03 51.314 427.498 51.134C427.966 50.936 428.092 50.612 428.092 49.964V42.494ZM424.888 40.424V39.236H428.524V38.246H424.888V37.166H428.794V36.158H424.888V34.934H423.61V36.158H419.812V37.166H423.61V38.246H420.28V39.236H423.61V40.424H419.362V41.45H429.19V40.424H424.888ZM438.514 40.694V38.39H442.51C441.664 39.2 440.746 39.974 439.774 40.694H438.514ZM443.392 46.688H436.102V44.906H443.392V46.688ZM436.102 49.622V47.75H443.392V49.622H436.102ZM446.956 41.9V40.694H441.772C443.41 39.344 444.886 37.832 446.146 36.176L445.012 35.564C444.4 36.392 443.716 37.184 442.96 37.94V37.202H438.514V34.952H437.2V37.202H432.61V38.39H437.2V40.694H431.044V41.9H438.046C435.778 43.358 433.258 44.546 430.648 45.464C430.9 45.734 431.332 46.274 431.494 46.562C432.592 46.148 433.708 45.662 434.788 45.14V51.368H436.102V50.792H443.392V51.296H444.76V43.772H437.326C438.316 43.196 439.288 42.566 440.224 41.9H446.956Z" fill="#C7C7C7"/>
<path d="M107.136 52.2196C106.954 51.5411 106.519 50.9736 105.91 50.6223L103.697 49.3446C103.089 48.9933 102.38 48.8999 101.701 49.082C101.022 49.2635 100.455 49.6988 100.103 50.3074L98.7827 52.5944C98.2222 52.3312 97.593 52.2731 96.9874 52.4352C96.3089 52.6173 95.7414 53.0527 95.3901 53.6613L95.3066 53.8052V44.0615C95.3066 40.9515 92.777 38.4219 89.667 38.4219H81.4407C81.2569 37.1488 80.1618 36.166 78.8389 36.166H75.0039V33.3838C75.0039 31.518 73.4859 30 71.6201 30H63.3486C61.4828 30 59.9648 31.518 59.9648 33.3838V36.166H56.1299C54.8069 36.166 53.7113 37.1488 53.528 38.4219H45.3018C42.1917 38.4219 39.6621 40.9515 39.6621 44.0615V101.36C39.6621 104.47 42.1917 107 45.3018 107H80.5002C81.1229 107 81.6281 106.495 81.6281 105.872C81.6281 105.249 81.1229 104.744 80.5002 104.744H45.3018C43.436 104.744 41.918 103.226 41.918 101.36V44.0615C41.918 42.1957 43.436 40.6777 45.3018 40.6777H53.498V46.167C53.498 47.618 54.6788 48.7988 56.1299 48.7988H78.8389C80.2899 48.7988 81.4707 47.618 81.4707 46.167V45.1143H88.6143V65.397L77.137 85.2762C76.7222 85.9941 76.5342 86.8106 76.5936 87.6378L77.0965 94.6838C77.1405 95.3001 77.4848 95.8552 78.017 96.1689C78.3107 96.3417 78.6403 96.4292 78.9716 96.4292C79.2407 96.4292 79.5103 96.371 79.7618 96.2547L86.2462 93.2475C87.0228 92.8874 87.6596 92.3052 88.0873 91.5644L88.6143 90.6521V100.308H46.3545V45.1143H49.3623C49.985 45.1143 50.4902 44.6096 50.4902 43.9863C50.4902 43.363 49.985 42.8584 49.3623 42.8584H45.9785C44.9416 42.8584 44.0986 43.7014 44.0986 44.7383V100.684C44.0986 101.72 44.9416 102.563 45.9785 102.563H88.9902C90.0265 102.563 90.8701 101.72 90.8701 100.684V86.7443L93.0508 82.9675V101.36C93.0508 103.226 91.5328 104.744 89.667 104.744H85.7633C85.1406 104.744 84.6354 105.249 84.6354 105.872C84.6354 106.495 85.1406 107 85.7633 107H89.667C92.7764 107 95.3066 104.47 95.3066 101.36V79.0602L104.822 62.5784L106.326 59.9747C106.677 59.3661 106.77 58.6571 106.588 57.9785C106.426 57.3729 106.061 56.8577 105.553 56.5034L106.873 54.2164C107.225 53.6078 107.318 52.8987 107.136 52.2196ZM102.057 51.4354C102.16 51.2562 102.39 51.1945 102.569 51.2979L104.782 52.5756C104.899 52.6432 104.942 52.7478 104.957 52.8036C104.972 52.86 104.987 52.971 104.92 53.0885L103.605 55.3661L100.742 53.7135L102.057 51.4354ZM97.3434 54.7892C97.4109 54.6723 97.5155 54.6294 97.5713 54.6147C97.6277 54.5989 97.7387 54.5842 97.8556 54.6517L104.234 58.3345C104.352 58.4021 104.395 58.5061 104.409 58.5625C104.425 58.6183 104.439 58.7299 104.372 58.8468L103.432 60.4735L96.4046 56.4159L97.3434 54.7892ZM62.2207 33.3838C62.2207 32.7617 62.7265 32.2559 63.3486 32.2559H71.6201C72.2422 32.2559 72.748 32.7617 72.748 33.3838V36.166H62.2207V33.3838ZM79.2148 46.167C79.2148 46.3744 79.0462 46.543 78.8389 46.543H56.1299C55.9225 46.543 55.7539 46.3744 55.7539 46.167V38.7979C55.7539 38.5905 55.9225 38.4219 56.1299 38.4219H78.8389C79.0462 38.4219 79.2148 38.5905 79.2148 38.7979V46.167ZM88.9902 42.8584H81.4707V40.6777H89.667C91.5328 40.6777 93.0508 42.1957 93.0508 44.0615V57.713L90.8701 61.4898V44.7383C90.8701 43.7014 90.0271 42.8584 88.9902 42.8584ZM95.2767 58.3698L102.305 62.4274L88.4768 86.3783L81.4484 82.3207L95.2767 58.3698ZM86.134 90.4365C85.9395 90.7731 85.6499 91.0374 85.2974 91.2008V91.2013L79.3077 93.9789L78.8436 87.4774C78.8165 87.1014 78.9023 86.7308 79.0909 86.4047L80.3204 84.274L87.3489 88.3316L86.134 90.4365Z" fill="#C7C7C7"/>
<path d="M51.3126 92.9293C51.527 93.1202 51.7949 93.2136 52.061 93.2136C52.3724 93.2136 52.682 93.0855 52.9046 92.8347L55.1411 90.3168L56.8723 92.3818C57.2195 92.7965 57.7288 93.0409 58.2693 93.0538C58.8104 93.0632 59.3297 92.8459 59.6957 92.4482L61.7776 90.1876L64.0852 92.7995C64.4982 93.2665 65.2108 93.3105 65.6772 92.8981C66.1443 92.4857 66.1883 91.7732 65.7759 91.3061L63.1923 88.3817C62.8404 87.9834 62.334 87.752 61.8029 87.7467C61.7964 87.7461 61.79 87.7461 61.7835 87.7461C61.2589 87.7461 60.756 87.9664 60.4006 88.3524L58.3263 90.6047L56.5898 88.5339C56.2385 88.115 55.7232 87.87 55.1757 87.8618C54.6282 87.8495 54.1071 88.0845 53.7441 88.4933L51.2186 91.3367C50.8044 91.8025 50.8467 92.5157 51.3126 92.9293Z" fill="#C7C7C7"/>
<path d="M84.5918 54.8896C84.5918 54.2663 84.0866 53.7617 83.4639 53.7617H51.4307C50.808 53.7617 50.3027 54.2663 50.3027 54.8896C50.3027 55.5129 50.808 56.0176 51.4307 56.0176H83.4639C84.0866 56.0176 84.5918 55.5129 84.5918 54.8896Z" fill="#C7C7C7"/>
<path d="M51.5811 62.0332H64.9658C65.5885 62.0332 66.0938 61.5286 66.0938 60.9053C66.0938 60.282 65.5885 59.7773 64.9658 59.7773H51.5811C50.9583 59.7773 50.4531 60.282 50.4531 60.9053C50.4531 61.5286 50.9583 62.0332 51.5811 62.0332Z" fill="#C7C7C7"/>
<path d="M76.6211 60.9053C76.6211 60.282 76.1159 59.7773 75.4932 59.7773H70.2295C69.6068 59.7773 69.1016 60.282 69.1016 60.9053C69.1016 61.5286 69.6068 62.0332 70.2295 62.0332H75.4932C76.1159 62.0332 76.6211 61.5286 76.6211 60.9053Z" fill="#C7C7C7"/>
<path d="M51.5811 68.0488H62.4092C63.0319 68.0488 63.5371 67.5442 63.5371 66.9209C63.5371 66.2976 63.0319 65.793 62.4092 65.793H51.5811C50.9583 65.793 50.4531 66.2976 50.4531 66.9209C50.4531 67.5442 50.9583 68.0488 51.5811 68.0488Z" fill="#C7C7C7"/>
<path d="M72.335 65.793H67.2217C66.599 65.793 66.0938 66.2976 66.0938 66.9209C66.0938 67.5442 66.599 68.0488 67.2217 68.0488H72.335C72.9577 68.0488 73.4629 67.5442 73.4629 66.9209C73.4629 66.2976 72.9577 65.793 72.335 65.793Z" fill="#C7C7C7"/>
<path d="M51.5811 74.0645H59.4014C60.0241 74.0645 60.5293 73.5598 60.5293 72.9365C60.5293 72.3132 60.0241 71.8086 59.4014 71.8086H51.5811C50.9583 71.8086 50.4531 72.3132 50.4531 72.9365C50.4531 73.5598 50.9583 74.0645 51.5811 74.0645Z" fill="#7568F6"/>
<path d="M73.4629 72.9365C73.4629 72.3132 72.9577 71.8086 72.335 71.8086H64.2139C63.5912 71.8086 63.0859 72.3132 63.0859 72.9365C63.0859 73.5598 63.5912 74.0645 64.2139 74.0645H72.335C72.9577 74.0645 73.4629 73.5598 73.4629 72.9365Z" fill="#7568F6"/>
<path d="M51.5811 80.0801H59.4014C60.0241 80.0801 60.5293 79.5754 60.5293 78.9521C60.5293 78.3288 60.0241 77.8242 59.4014 77.8242H51.5811C50.9583 77.8242 50.4531 78.3288 50.4531 78.9521C50.4531 79.5754 50.9583 80.0801 51.5811 80.0801Z" fill="#7568F6"/>
<circle cx="69" cy="69" r="67.5" stroke="#C4C4C4" stroke-width="3"/>
<path d="M27.864 162.874H22.356V161.74H27.864V162.874ZM27.864 164.89H22.356V163.738H27.864V164.89ZM27.864 166.942H22.356V165.772H27.864V166.942ZM24.426 160.84H21.132V167.86H29.124V160.84H25.704V159.562H30.51V158.428H25.704V156.934H24.426V158.428H19.728V159.562H24.426V160.84ZM19.224 170.02H30.744V168.85H19.224V170.02ZM19.908 166.852L17.856 167.698V162.568H19.764V161.308H17.856V157.168H16.614V161.308H14.508V162.568H16.614V168.22C15.696 168.598 14.85 168.94 14.166 169.192L14.688 170.524C16.254 169.84 18.306 168.94 20.214 168.076L19.908 166.852ZM22.77 170.29C21.798 171.136 20.196 171.946 18.702 172.45C18.99 172.666 19.476 173.152 19.692 173.386C21.168 172.774 22.914 171.766 23.994 170.722L22.77 170.29ZM26.046 170.92C27.378 171.676 28.818 172.666 29.646 173.368L30.87 172.702C29.934 171.982 28.368 170.992 26.982 170.236L26.046 170.92ZM37.458 169.66C37.818 170.668 38.088 172 38.07 172.81L39.168 172.648C39.168 171.838 38.898 170.542 38.502 169.552L37.458 169.66ZM39.996 169.588C40.518 170.452 40.986 171.586 41.13 172.342L42.156 172.036C42.012 171.28 41.508 170.146 40.932 169.3L39.996 169.588ZM44.928 171.01C44.64 170.452 43.974 169.624 43.362 169.048L42.462 169.48C43.074 170.074 43.722 170.92 43.992 171.496L44.928 171.01ZM37.71 167.554C38.052 167.176 38.376 166.798 38.646 166.384H45.99V161.038H41.022V162.028H44.766V163.234H41.292V164.188H44.766V165.412H36.306V164.188H39.744V163.234H36.306V162.082C37.566 161.812 38.988 161.452 40.05 161.002L39.204 160.138C38.412 160.516 37.098 160.912 35.91 161.218L35.1 161.038V166.384H37.17C36.054 167.806 34.2 168.94 32.346 169.66C32.598 169.912 32.994 170.47 33.138 170.722C33.858 170.398 34.596 170.002 35.28 169.552C35.01 170.686 34.488 171.856 33.66 172.54L34.668 173.152C35.64 172.342 36.108 170.974 36.414 169.678L35.496 169.408C35.856 169.174 36.198 168.922 36.522 168.652H46.206C46.062 170.866 45.882 171.784 45.612 172.072C45.468 172.216 45.324 172.234 45.018 172.216C44.694 172.234 43.884 172.216 43.02 172.144C43.236 172.45 43.362 172.954 43.398 173.296C44.28 173.35 45.144 173.368 45.576 173.314C46.08 173.296 46.404 173.188 46.71 172.864C47.142 172.396 47.358 171.172 47.556 168.094C47.574 167.914 47.592 167.554 47.592 167.554H37.71ZM41.13 158.392V156.952H39.816V158.392H32.922V161.56H34.146V159.562H46.836V161.56H48.096V158.392H41.13ZM51.156 167.14C50.958 168.706 50.616 170.326 50.058 171.424C50.31 171.514 50.85 171.748 51.048 171.91C51.624 170.758 52.038 169.03 52.29 167.338L51.156 167.14ZM55.656 165.7C55.836 166.114 55.962 166.51 56.034 166.852L57.096 166.366C56.826 165.376 56.106 163.828 55.35 162.676L54.378 163.072C54.666 163.54 54.936 164.062 55.188 164.584L52.596 164.71C53.82 163.18 55.17 161.146 56.196 159.508L55.08 158.986C54.576 159.958 53.892 161.128 53.154 162.244C52.884 161.884 52.56 161.488 52.182 161.092C52.866 160.084 53.64 158.626 54.252 157.384L53.082 156.952C52.704 157.942 52.074 159.31 51.48 160.336C51.3 160.156 51.12 159.994 50.94 159.832L50.22 160.678C51.03 161.452 51.93 162.478 52.452 163.288C52.074 163.828 51.696 164.332 51.336 164.782L50.094 164.836L50.22 166.042L53.046 165.862V173.368H54.234V165.79L55.656 165.7ZM54.846 167.392C55.296 168.418 55.656 169.75 55.746 170.614L56.79 170.29C56.664 169.426 56.286 168.112 55.836 167.104L54.846 167.392ZM59.886 166.618L59.688 166.636H56.754V167.788H59.184C58.572 169.624 57.402 170.974 55.962 171.73C56.214 171.91 56.628 172.36 56.808 172.648C58.572 171.622 59.994 169.75 60.624 166.906L59.886 166.618ZM58.644 162.442H64.692V164.008H58.644V162.442ZM58.644 159.868H64.692V161.416H58.644V159.868ZM65.52 165.88C64.962 166.51 64.08 167.374 63.288 168.022C62.82 167.158 62.478 166.222 62.262 165.34V165.106H65.97V158.788H61.74C62.01 158.302 62.316 157.744 62.568 157.204L61.092 156.916C60.93 157.456 60.66 158.176 60.372 158.788H57.42V165.106H61.038V171.946C61.038 172.144 60.984 172.198 60.75 172.198C60.552 172.216 59.814 172.216 59.022 172.198C59.184 172.522 59.346 173.026 59.382 173.35C60.516 173.35 61.218 173.332 61.668 173.152C62.136 172.954 62.262 172.612 62.262 171.946V168.274C63.018 169.966 64.26 171.64 66.186 172.63C66.366 172.288 66.762 171.802 66.996 171.55C65.61 170.956 64.584 170.002 63.828 168.922C64.71 168.31 65.754 167.446 66.6 166.672L65.52 165.88ZM76.608 171.19V164.062H83.304V162.73H76.608V157.222H75.204V171.19H68.49V172.522H84.528V171.19H76.608ZM100.764 165.556C99.9 166.366 98.514 167.374 97.362 168.112C96.714 167.176 96.228 166.114 95.85 164.962H102.294V163.792H95.13V162.172H100.998V161.074H95.13V159.598H101.682V158.428H95.13V156.934H93.798V158.428H87.354V159.598H93.798V161.074H88.164V162.172H93.798V163.792H86.688V164.962H92.916C91.152 166.456 88.434 167.788 86.094 168.454C86.364 168.742 86.742 169.21 86.958 169.552C88.11 169.174 89.37 168.616 90.576 167.968V171.55C89.64 171.784 88.776 171.982 88.056 172.144L88.488 173.368C90.63 172.828 93.69 172.072 96.516 171.316L96.372 170.128C94.878 170.506 93.348 170.884 91.926 171.226V167.158C92.934 166.51 93.852 165.79 94.59 165.052C95.85 169.12 98.154 172.018 101.988 173.314C102.168 172.954 102.546 172.396 102.852 172.144C100.836 171.532 99.216 170.452 98.01 168.976C99.216 168.274 100.692 167.302 101.826 166.384L100.764 165.556ZM117.954 160.228H114.48V158.536H117.954V160.228ZM119.196 157.636H113.256V161.128H119.196V157.636ZM110.556 160.228H107.118V158.536H110.556V160.228ZM111.816 157.636H105.912V161.128H111.816V157.636ZM107.694 167.212V165.664H111.762V167.212H107.694ZM107.694 163.108H111.762V164.638H107.694V163.108ZM117.414 164.638H113.13V163.108H117.414V164.638ZM117.414 167.212H113.13V165.664H117.414V167.212ZM120.438 169.66H113.13V168.292H118.782V162.028H106.398V168.292H111.762V169.66H104.598V170.83H111.762V173.368H113.13V170.83H120.438V169.66Z" fill="#C7C7C7"/>
</svg>
