<svg width="31" height="30" viewBox="0 0 31 30" fill="none" xmlns="http://www.w3.org/2000/svg">
<g clip-path="url(#clip0_6440_27258)">
<path d="M20.5 1.25C19.0764 1.24981 17.6743 1.59696 16.4153 2.26133C15.1562 2.9257 14.0783 3.88723 13.275 5.0625L13.3 5.025C12.8 5 12.275 5 11.75 5C6.225 5 1.75 5.625 1.75 10V22.5C1.75 23.6 2.2375 24.5875 3 25.275V27.5C3 27.8315 3.1317 28.1495 3.36612 28.3839C3.60054 28.6183 3.91848 28.75 4.25 28.75H5.5C5.83152 28.75 6.14946 28.6183 6.38388 28.3839C6.6183 28.1495 6.75 27.8315 6.75 27.5V26.25H16.75V27.5C16.75 27.8315 16.8817 28.1495 17.1161 28.3839C17.3505 28.6183 17.6685 28.75 18 28.75H19.25C19.5815 28.75 19.8995 28.6183 20.1339 28.3839C20.3683 28.1495 20.5 27.8315 20.5 27.5V25.275C21.2625 24.5875 21.75 23.6 21.75 22.5V18.65C23.9254 18.3187 25.8961 17.1799 27.2694 15.4606C28.6427 13.7412 29.3178 11.5676 29.1601 9.37276C29.0024 7.17794 28.0236 5.12311 26.4186 3.61772C24.8137 2.11234 22.7004 1.26695 20.5 1.25ZM6.125 23.75C5.62772 23.75 5.15081 23.5525 4.79917 23.2008C4.44754 22.8492 4.25 22.3723 4.25 21.875C4.25 21.3777 4.44754 20.9008 4.79917 20.5492C5.15081 20.1975 5.62772 20 6.125 20C6.62228 20 7.09919 20.1975 7.45083 20.5492C7.80246 20.9008 8 21.3777 8 21.875C8 22.3723 7.80246 22.8492 7.45083 23.2008C7.09919 23.5525 6.62228 23.75 6.125 23.75ZM4.25 16.25V10H11.75C11.75 12.45 12.7625 14.6625 14.3875 16.25H4.25ZM17.375 23.75C16.8777 23.75 16.4008 23.5525 16.0492 23.2008C15.6975 22.8492 15.5 22.3723 15.5 21.875C15.5 21.3777 15.6975 20.9008 16.0492 20.5492C16.4008 20.1975 16.8777 20 17.375 20C17.8723 20 18.3492 20.1975 18.7008 20.5492C19.0525 20.9008 19.25 21.3777 19.25 21.875C19.25 22.3723 19.0525 22.8492 18.7008 23.2008C18.3492 23.5525 17.8723 23.75 17.375 23.75ZM20.5 16.25C18.8424 16.25 17.2527 15.5915 16.0806 14.4194C14.9085 13.2473 14.25 11.6576 14.25 10C14.25 8.3424 14.9085 6.75269 16.0806 5.58058C17.2527 4.40848 18.8424 3.75 20.5 3.75C22.1576 3.75 23.7473 4.40848 24.9194 5.58058C26.0915 6.75269 26.75 8.3424 26.75 10C26.75 11.6576 26.0915 13.2473 24.9194 14.4194C23.7473 15.5915 22.1576 16.25 20.5 16.25ZM19.25 5H21V9.43518H23.749V11.25H21.75H19.25V5Z" fill="#9387FF"/>
</g>
<defs>
<clipPath id="clip0_6440_27258">
<rect width="30" height="30" fill="white" transform="translate(0.5)"/>
</clipPath>
</defs>
</svg>
