<svg width="728" height="614" viewBox="0 0 728 614" fill="none" xmlns="http://www.w3.org/2000/svg">
<path d="M539.68 43.22C539.62 41.18 539.62 39.1 539.62 36.82V36.16C539.62 34.04 539.62 31.96 539.68 29.94H541.04C544.1 29.94 545.9 32.28 545.9 36.58C545.9 40.76 544.1 43.22 540.9 43.22H539.68ZM534.9 29.16V29.88L536.8 30.06C536.84 32.08 536.84 34.1 536.84 36.16V36.82C536.84 39.08 536.84 41.14 536.8 43.12L534.9 43.3V44H540.98C545.78 44 548.84 41.22 548.84 36.56C548.84 31.92 546 29.16 541.34 29.16H534.9ZM553.261 30.76C554.141 30.76 554.821 30.14 554.821 29.28C554.821 28.38 554.141 27.78 553.261 27.78C552.401 27.78 551.701 28.38 551.701 29.28C551.701 30.14 552.401 30.76 553.261 30.76ZM550.341 34.14V34.68L551.941 34.84C551.981 35.8 552.021 36.66 552.021 37.94V41.96C552.021 44.74 552.061 46.88 551.681 47.88C551.581 48.16 551.441 48.36 551.281 48.52L550.841 47.9C550.381 47.2 549.801 46.92 549.101 46.92C548.401 46.92 547.721 47.38 547.621 48.18C547.841 48.8 548.541 49.42 550.121 49.42C551.301 49.42 552.281 49.08 553.261 48.02C554.321 46.86 554.601 45.54 554.601 42.22V36.3L554.681 33.18L554.401 33L550.341 34.14ZM563.404 41.96C562.484 42.72 561.984 43.02 561.324 43.02C560.364 43.02 559.724 42.46 559.724 41.28C559.724 40.04 560.324 39.12 561.904 38.5C562.244 38.36 562.804 38.2 563.404 38.02V41.96ZM567.584 42.62C567.224 43.1 566.984 43.28 566.684 43.28C566.244 43.28 565.964 42.98 565.964 42.08V36.92C565.964 34.12 564.864 32.98 562.244 32.98C559.464 32.98 557.804 34.1 557.544 35.9C557.664 36.5 558.084 36.82 558.744 36.82C559.424 36.82 559.964 36.38 560.044 35.28L560.324 33.84C560.684 33.76 561.024 33.72 561.364 33.72C562.864 33.72 563.404 34.3 563.404 36.42V37.44C562.624 37.62 561.824 37.84 561.224 38.04C558.144 39 557.224 39.98 557.224 41.64C557.224 43.32 558.444 44.32 560.124 44.32C561.604 44.32 562.384 43.7 563.484 42.54C563.744 43.62 564.444 44.3 565.664 44.3C566.724 44.3 567.424 43.92 567.944 42.92L567.584 42.62ZM579.724 43.22C579.704 42.08 579.684 40.44 579.684 39.3V36.86C579.684 34.18 578.504 32.98 576.624 32.98C575.324 32.98 574.084 33.54 572.824 35L572.684 33.18L572.404 33L568.564 34.22V34.72L570.144 34.88C570.204 35.84 570.224 36.56 570.224 37.86V39.3C570.224 40.4 570.204 42.06 570.184 43.2L568.724 43.38V44H574.204V43.38L572.904 43.22C572.884 42.08 572.864 40.4 572.864 39.3V35.7C573.844 34.8 574.744 34.4 575.484 34.4C576.564 34.4 577.064 35 577.064 36.74V39.3C577.064 40.44 577.044 42.08 577.004 43.2L575.604 43.38V44H581.084V43.38L579.724 43.22ZM587.017 39.66C585.777 39.66 585.097 38.5 585.097 36.66C585.097 34.8 585.837 33.64 587.077 33.64C588.297 33.64 589.037 34.78 589.037 36.6C589.037 38.48 588.297 39.66 587.017 39.66ZM588.877 44.54C590.317 44.54 590.797 45.3 590.797 46.22C590.797 47.44 589.497 48.36 586.917 48.36C585.097 48.36 583.957 47.58 583.957 46.1C583.957 45.4 584.177 44.92 584.637 44.38C585.137 44.5 585.637 44.54 586.557 44.54H588.877ZM593.077 33.2L592.737 32.98L590.197 33.92C589.477 33.32 588.417 32.98 587.077 32.98C584.257 32.98 582.717 34.46 582.717 36.62C582.717 38 583.317 39.1 584.437 39.74C583.277 40.76 582.817 41.48 582.817 42.4C582.817 43.32 583.357 43.86 584.257 44.2C582.857 44.8 582.217 45.58 582.217 46.5C582.217 48 583.497 49.2 586.917 49.2C590.857 49.2 592.917 47.36 592.917 45.26C592.917 43.46 591.757 42.32 588.897 42.32H585.957C584.837 42.32 584.437 41.94 584.437 41.22C584.437 40.76 584.577 40.38 584.877 39.96C585.477 40.2 586.197 40.34 587.037 40.34C589.837 40.34 591.397 38.8 591.397 36.62C591.397 35.8 591.177 35.06 590.737 34.48L593.077 34.66V33.2ZM599.439 44.32C602.499 44.32 604.839 42.22 604.839 38.62C604.839 35.02 602.339 32.98 599.439 32.98C596.519 32.98 594.039 35.04 594.039 38.62C594.039 42.2 596.339 44.32 599.439 44.32ZM599.439 43.58C597.779 43.58 596.859 41.96 596.859 38.64C596.859 35.34 597.779 33.72 599.439 33.72C601.059 33.72 602.019 35.34 602.019 38.64C602.019 41.96 601.059 43.58 599.439 43.58ZM625.52 36.8H619.24V37.5L621.44 37.72C621.48 39.16 621.5 40.56 621.5 42.02V43.32C620.92 43.48 620.34 43.56 619.68 43.56C616.72 43.56 614.6 40.94 614.6 36.58C614.6 31.98 616.8 29.62 619.8 29.62C620.52 29.62 621.14 29.74 621.74 30.04L622.58 33.36H623.76L623.8 29.9C622.56 29.18 621.2 28.8 619.44 28.8C614.8 28.8 611.62 31.86 611.62 36.56C611.62 41.34 614.72 44.38 619.32 44.38C621.18 44.38 622.62 43.94 624.16 43.06V42.08C624.16 40.5 624.18 39.06 624.2 37.66L625.52 37.5V36.8ZM629.317 30.76C630.177 30.76 630.897 30.14 630.897 29.28C630.897 28.38 630.177 27.78 629.317 27.78C628.457 27.78 627.737 28.38 627.737 29.28C627.737 30.14 628.457 30.76 629.317 30.76ZM630.737 43.22C630.717 42.08 630.697 40.4 630.697 39.3V36.3L630.737 33.18L630.457 33L626.397 34.14V34.68L628.017 34.84C628.057 35.84 628.077 36.6 628.077 37.88V39.3C628.077 40.4 628.057 42.06 628.037 43.2L626.577 43.38V44H632.077V43.38L630.737 43.22ZM637.411 33.18L637.131 33L633.291 34.22V34.72L634.871 34.88C634.931 35.84 634.951 36.56 634.951 37.86V39.3C634.951 40.4 634.931 42.06 634.911 43.2L633.451 43.38V44H639.471V43.38L637.631 43.14C637.611 42 637.591 40.38 637.591 39.3V37.52C638.011 36.12 638.551 35.24 639.391 34.58L639.611 34.82C640.111 35.4 640.531 35.78 641.191 35.78C642.131 35.78 642.511 35.16 642.571 34.26C642.331 33.32 641.611 32.98 640.771 32.98C639.571 32.98 638.231 34.04 637.591 35.96L637.411 33.18ZM647.123 43.22C647.083 41.94 647.063 40.56 647.063 39.3V30.98L647.143 27.8L646.863 27.62L642.843 28.48V29.04L644.463 29.16V39.3C644.463 40.56 644.443 41.94 644.403 43.2L642.863 43.38V44H648.663V43.38L647.123 43.22ZM654.434 37.26C652.894 36.76 652.454 36.22 652.454 35.38C652.454 34.4 653.214 33.76 654.534 33.76C655.114 33.76 655.574 33.88 656.054 34.12L656.674 36.28H657.694L657.834 33.88C656.734 33.3 655.754 32.98 654.474 32.98C651.734 32.98 650.234 34.46 650.234 36.38C650.234 38 651.294 38.96 653.014 39.5L654.114 39.86C655.674 40.38 656.134 40.94 656.134 41.82C656.134 42.92 655.294 43.54 653.694 43.54C653.034 43.54 652.474 43.44 651.954 43.22L651.394 40.8H650.234L650.154 43.4C651.294 44 652.414 44.32 653.854 44.32C656.794 44.32 658.434 42.92 658.434 40.88C658.434 39.34 657.574 38.28 655.474 37.58L654.434 37.26ZM675.655 30L676.475 33.3H677.595L677.475 29.16H664.775L664.635 33.3H665.755L666.595 30H669.695C669.715 32.02 669.715 34.08 669.715 36.1V37.08C669.715 39.12 669.715 41.14 669.695 43.12L667.555 43.3V44H674.695V43.3L672.555 43.12C672.515 41.1 672.515 39.08 672.515 37.08V36.1C672.515 34.04 672.515 32 672.555 30H675.655ZM683.951 41.96C683.031 42.72 682.531 43.02 681.871 43.02C680.911 43.02 680.271 42.46 680.271 41.28C680.271 40.04 680.871 39.12 682.451 38.5C682.791 38.36 683.351 38.2 683.951 38.02V41.96ZM688.131 42.62C687.771 43.1 687.531 43.28 687.231 43.28C686.791 43.28 686.511 42.98 686.511 42.08V36.92C686.511 34.12 685.411 32.98 682.791 32.98C680.011 32.98 678.351 34.1 678.091 35.9C678.211 36.5 678.631 36.82 679.291 36.82C679.971 36.82 680.511 36.38 680.591 35.28L680.871 33.84C681.231 33.76 681.571 33.72 681.911 33.72C683.411 33.72 683.951 34.3 683.951 36.42V37.44C683.171 37.62 682.371 37.84 681.771 38.04C678.691 39 677.771 39.98 677.771 41.64C677.771 43.32 678.991 44.32 680.671 44.32C682.151 44.32 682.931 43.7 684.031 42.54C684.291 43.62 684.991 44.3 686.211 44.3C687.271 44.3 687.971 43.92 688.491 42.92L688.131 42.62ZM692.051 30.76C692.911 30.76 693.631 30.14 693.631 29.28C693.631 28.38 692.911 27.78 692.051 27.78C691.191 27.78 690.471 28.38 690.471 29.28C690.471 30.14 691.191 30.76 692.051 30.76ZM693.471 43.22C693.451 42.08 693.431 40.4 693.431 39.3V36.3L693.471 33.18L693.191 33L689.131 34.14V34.68L690.751 34.84C690.791 35.84 690.811 36.6 690.811 37.88V39.3C690.811 40.4 690.791 42.06 690.771 43.2L689.311 43.38V44H694.811V43.38L693.471 43.22ZM700.229 35.14C701.069 34.38 701.729 34.22 702.369 34.22C704.029 34.22 705.049 35.48 705.049 38.64C705.049 41.9 703.869 43.04 702.229 43.04C701.469 43.04 700.849 42.86 700.229 42.3V35.14ZM700.009 33.2L699.729 33L695.929 34.22V34.72L697.549 34.88C697.589 35.84 697.609 36.58 697.609 37.88V44.32C697.609 45.54 697.589 46.98 697.569 48.42L696.049 48.6V49.2H701.949V48.6L700.229 48.4C700.209 46.96 700.189 45.52 700.189 44.32V42.94C701.069 43.96 702.089 44.32 703.129 44.32C705.769 44.32 707.869 42.12 707.869 38.58C707.869 35.04 705.969 32.98 703.549 32.98C702.309 32.98 701.109 33.44 700.149 34.52L700.009 33.2ZM712.346 37.86C712.466 34.94 713.566 33.72 714.826 33.72C716.046 33.72 716.906 34.76 716.906 36.38C716.906 37.4 716.686 37.86 715.766 37.86H712.346ZM719.266 38.6C719.366 38.26 719.406 37.88 719.406 37.36C719.406 34.84 717.746 32.98 715.006 32.98C712.206 32.98 709.566 35.04 709.566 38.64C709.566 42.28 711.846 44.32 714.986 44.32C716.966 44.32 718.486 43.38 719.286 41.74L718.886 41.46C718.186 42.4 717.326 43 715.886 43C713.946 43 712.426 41.66 712.346 38.6H719.266ZM723.731 30.76C724.591 30.76 725.311 30.14 725.311 29.28C725.311 28.38 724.591 27.78 723.731 27.78C722.871 27.78 722.151 28.38 722.151 29.28C722.151 30.14 722.871 30.76 723.731 30.76ZM725.151 43.22C725.131 42.08 725.111 40.4 725.111 39.3V36.3L725.151 33.18L724.871 33L720.811 34.14V34.68L722.431 34.84C722.471 35.84 722.491 36.6 722.491 37.88V39.3C722.491 40.4 722.471 42.06 722.451 43.2L720.991 43.38V44H726.491V43.38L725.151 43.22Z" fill="#c386ae"/>
<path d="M290.817 22.36V17.12H298.457V22.36H290.817ZM298.217 16.54H290.957L288.337 15.52V24.74H288.697C289.717 24.74 290.817 24.18 290.817 23.94V22.92H298.457V24.6H298.857C299.677 24.6 300.917 24.16 300.937 24.04V17.6C301.417 17.5 301.717 17.3 301.857 17.12L299.397 15.22L298.217 16.54ZM296.837 9.14C297.817 9.98 298.857 11.1 299.717 12.28C295.357 12.44 291.177 12.56 288.497 12.6C291.057 11.26 293.957 9.22 295.497 7.6C295.957 7.64 296.217 7.48 296.297 7.26L293.037 5.96C292.097 7.88 289.117 11.24 287.057 12.34C286.817 12.48 286.257 12.58 286.257 12.58L287.057 15.28C287.277 15.22 287.477 15.08 287.657 14.86C292.857 14.12 297.137 13.4 300.077 12.8C300.557 13.52 300.957 14.26 301.197 14.94C303.757 16.5 305.137 11.08 297.017 9L296.837 9.14ZM313.157 20.54V7.3C313.697 7.22 313.837 7.02 313.877 6.74L310.837 6.44V12.52H306.097L306.277 13.08H310.837V20.92C308.537 21.28 306.597 21.56 305.597 21.66L306.757 24.66C306.997 24.6 307.217 24.4 307.337 24.14C310.897 22.58 313.297 21.36 314.857 20.46L314.817 20.26L313.157 20.54ZM323.137 18.64H322.937C322.577 19.9 322.237 21.12 321.997 21.5C321.837 21.7 321.697 21.74 321.477 21.76C321.217 21.78 320.757 21.78 320.197 21.78H318.757C318.137 21.78 317.957 21.64 317.957 21.16V13.1H322.957C323.237 13.1 323.417 13 323.477 12.78C322.877 11.98 321.697 10.7 321.697 10.7L320.657 12.54H317.957V7.36C318.457 7.28 318.637 7.06 318.657 6.8L315.617 6.46V21.84C315.617 23.58 316.217 24.06 318.217 24.06H319.997C323.137 24.06 324.057 23.62 324.057 22.6C324.057 22.18 323.877 21.9 323.237 21.62L323.137 18.64ZM330.497 18.04H336.037V16.68H330.497V18.04ZM353.4 9L354.22 12.3H355.34L355.22 8.16H342.52L342.38 12.3H343.5L344.34 9H347.44C347.46 11.02 347.46 13.08 347.46 15.1V16.08C347.46 18.12 347.46 20.14 347.44 22.12L345.3 22.3V23H352.44V22.3L350.3 22.12C350.26 20.1 350.26 18.08 350.26 16.08V15.1C350.26 13.04 350.26 11 350.3 9H353.4ZM361.696 20.96C360.776 21.72 360.276 22.02 359.616 22.02C358.656 22.02 358.016 21.46 358.016 20.28C358.016 19.04 358.616 18.12 360.196 17.5C360.536 17.36 361.096 17.2 361.696 17.02V20.96ZM365.876 21.62C365.516 22.1 365.276 22.28 364.976 22.28C364.536 22.28 364.256 21.98 364.256 21.08V15.92C364.256 13.12 363.156 11.98 360.536 11.98C357.756 11.98 356.096 13.1 355.836 14.9C355.956 15.5 356.376 15.82 357.036 15.82C357.716 15.82 358.256 15.38 358.336 14.28L358.616 12.84C358.976 12.76 359.316 12.72 359.656 12.72C361.156 12.72 361.696 13.3 361.696 15.42V16.44C360.916 16.62 360.116 16.84 359.516 17.04C356.436 18 355.516 18.98 355.516 20.64C355.516 22.32 356.736 23.32 358.416 23.32C359.896 23.32 360.676 22.7 361.776 21.54C362.036 22.62 362.736 23.3 363.956 23.3C365.016 23.3 365.716 22.92 366.236 21.92L365.876 21.62ZM369.796 9.76C370.656 9.76 371.376 9.14 371.376 8.28C371.376 7.38 370.656 6.78 369.796 6.78C368.936 6.78 368.216 7.38 368.216 8.28C368.216 9.14 368.936 9.76 369.796 9.76ZM371.216 22.22C371.196 21.08 371.176 19.4 371.176 18.3V15.3L371.216 12.18L370.936 12L366.876 13.14V13.68L368.496 13.84C368.536 14.84 368.556 15.6 368.556 16.88V18.3C368.556 19.4 368.536 21.06 368.516 22.2L367.056 22.38V23H372.556V22.38L371.216 22.22ZM377.974 14.14C378.814 13.38 379.474 13.22 380.114 13.22C381.774 13.22 382.794 14.48 382.794 17.64C382.794 20.9 381.614 22.04 379.974 22.04C379.214 22.04 378.594 21.86 377.974 21.3V14.14ZM377.754 12.2L377.474 12L373.674 13.22V13.72L375.294 13.88C375.334 14.84 375.354 15.58 375.354 16.88V23.32C375.354 24.54 375.334 25.98 375.314 27.42L373.794 27.6V28.2H379.694V27.6L377.974 27.4C377.954 25.96 377.934 24.52 377.934 23.32V21.94C378.814 22.96 379.834 23.32 380.874 23.32C383.514 23.32 385.614 21.12 385.614 17.58C385.614 14.04 383.714 11.98 381.294 11.98C380.054 11.98 378.854 12.44 377.894 13.52L377.754 12.2ZM390.091 16.86C390.211 13.94 391.311 12.72 392.571 12.72C393.791 12.72 394.651 13.76 394.651 15.38C394.651 16.4 394.431 16.86 393.511 16.86H390.091ZM397.011 17.6C397.111 17.26 397.151 16.88 397.151 16.36C397.151 13.84 395.491 11.98 392.751 11.98C389.951 11.98 387.311 14.04 387.311 17.64C387.311 21.28 389.591 23.32 392.731 23.32C394.711 23.32 396.231 22.38 397.031 20.74L396.631 20.46C395.931 21.4 395.071 22 393.631 22C391.691 22 390.171 20.66 390.091 17.6H397.011ZM401.476 9.76C402.336 9.76 403.056 9.14 403.056 8.28C403.056 7.38 402.336 6.78 401.476 6.78C400.616 6.78 399.896 7.38 399.896 8.28C399.896 9.14 400.616 9.76 401.476 9.76ZM402.896 22.22C402.876 21.08 402.856 19.4 402.856 18.3V15.3L402.896 12.18L402.616 12L398.556 13.14V13.68L400.176 13.84C400.216 14.84 400.236 15.6 400.236 16.88V18.3C400.236 19.4 400.216 21.06 400.196 22.2L398.736 22.38V23H404.236V22.38L402.896 22.22ZM408.23 23.32C409.15 23.32 409.87 22.56 409.87 21.68C409.87 20.76 409.15 20 408.23 20C407.29 20 406.57 20.76 406.57 21.68C406.57 22.56 407.29 23.32 408.23 23.32ZM415.825 14.14C416.665 13.38 417.325 13.22 417.965 13.22C419.625 13.22 420.645 14.48 420.645 17.64C420.645 20.9 419.465 22.04 417.825 22.04C417.065 22.04 416.445 21.86 415.825 21.3V14.14ZM415.605 12.2L415.325 12L411.525 13.22V13.72L413.145 13.88C413.185 14.84 413.205 15.58 413.205 16.88V23.32C413.205 24.54 413.185 25.98 413.165 27.42L411.645 27.6V28.2H417.545V27.6L415.825 27.4C415.805 25.96 415.785 24.52 415.785 23.32V21.94C416.665 22.96 417.685 23.32 418.725 23.32C421.365 23.32 423.465 21.12 423.465 17.58C423.465 14.04 421.565 11.98 419.145 11.98C417.905 11.98 416.705 12.44 415.745 13.52L415.605 12.2ZM435.71 12.3H431.55V12.92L433.43 13.12L430.83 20.8L428.01 13.1L429.65 12.92V12.3H423.97V12.92L425.15 13.04L429.63 23.92C429.03 25.4 428.43 26.46 427.57 27.16L427.29 26.84C426.77 26.24 426.27 25.86 425.53 25.86C424.83 25.86 424.11 26.22 423.99 26.98C424.01 27.82 425.01 28.42 426.07 28.42C427.43 28.42 429.05 27.32 430.31 23.98L434.41 13.1L435.71 12.92V12.3Z" fill="#c386ae"/>
<path d="M8.44 490.969V488.609H11.58V490.969H8.44ZM13.74 488.929C14.12 488.849 14.36 488.689 14.48 488.529L12.38 486.989L11.38 488.029H8.52L6.3 487.149V492.809H6.6C7.46 492.809 8.44 492.349 8.44 492.169V491.529H11.58V492.509H11.94C12.68 492.509 13.72 492.069 13.74 491.929V488.929ZM15.74 485.889H4.44L1.94 484.909V494.829H2.28C3.24 494.829 4.26 494.309 4.26 494.069V486.449H15.94V492.069C15.94 492.309 15.86 492.449 15.56 492.449C15.1 492.449 13.34 492.329 13.34 492.329V492.589C14.28 492.749 14.66 493.009 14.94 493.329C15.22 493.649 15.3 494.169 15.36 494.849C17.96 494.649 18.3 493.789 18.3 492.289V486.849C18.72 486.769 19 486.589 19.12 486.429L16.8 484.709L15.74 485.889ZM7.32 483.669V481.329H12.84V483.669H7.32ZM13.24 485.129C13.98 485.129 15.18 484.769 15.2 484.649V481.709C15.6 481.629 15.86 481.449 15.98 481.289L13.7 479.569L12.64 480.749H7.44L5 479.789V485.349H5.32C6.28 485.349 7.32 484.849 7.32 484.669V484.229H12.84V485.129H13.24ZM15.38 478.609H11C11.9 477.849 11.58 475.829 7.76 476.029L7.62 476.149C8.32 476.709 9.08 477.689 9.3 478.609H0.8L0.98 479.169H18.76C19.04 479.169 19.26 479.069 19.32 478.849C18.36 478.029 16.76 476.869 16.76 476.869L15.38 478.609ZM29.5 480.689C29.78 480.689 29.98 480.589 30.04 480.369C29.28 479.649 28 478.609 28 478.609L26.92 480.129H25.5C25.64 478.969 25.74 477.869 25.82 476.869C26.42 476.789 26.56 476.569 26.6 476.309L23.38 476.089C23.38 477.329 23.36 478.689 23.28 480.129H20.66L20.82 480.689H23.24C22.96 484.989 22.2 489.809 20.52 493.429L20.78 493.569C23.68 489.989 24.86 485.009 25.44 480.689H29.5ZM26.52 487.429C26.84 488.329 27.2 489.369 27.44 490.449C26.32 490.669 25.2 490.869 24.32 490.949C25.66 488.889 27.12 485.749 27.9 483.429C28.34 483.409 28.56 483.189 28.62 482.949L25.8 482.369C25.54 484.769 24.44 489.109 23.58 490.809C23.44 490.949 22.92 491.089 22.92 491.089L24 493.689C24.28 493.569 24.5 493.309 24.68 492.909C25.82 492.249 26.82 491.569 27.56 491.029C27.68 491.689 27.76 492.349 27.74 492.969C29.58 494.829 31.52 490.729 26.76 487.329L26.52 487.429ZM32.36 488.909H33.88V492.629H32.36V488.909ZM33.88 480.789V484.229H32.36V480.789H33.88ZM33.88 488.329H32.36V484.809H33.88V488.329ZM36.42 492.629H35.94V488.909H38.62C38.9 488.909 39.1 488.809 39.14 488.589C38.5 487.909 37.4 486.969 37.4 486.969L36.4 488.329H35.94V484.809H38.58C38.86 484.809 39.06 484.709 39.1 484.489C38.44 483.809 37.34 482.849 37.34 482.849L36.36 484.229H35.94V480.789H38.82C39.1 480.789 39.3 480.689 39.36 480.469C38.6 479.749 37.38 478.729 37.38 478.729L36.26 480.209H32.62L32.24 480.069C32.68 479.109 33.04 478.169 33.32 477.329C33.68 477.309 33.86 477.229 33.96 477.069C34.24 477.789 34.44 478.609 34.38 479.369C36.18 481.109 38.52 477.449 33.66 475.949L33.46 476.069C33.6 476.309 33.74 476.569 33.88 476.869L30.94 476.089C30.62 478.729 29.68 482.849 28.18 485.629L28.42 485.809C29.06 485.189 29.66 484.469 30.18 483.709V494.809H30.56C31.68 494.809 32.36 494.329 32.36 494.169V493.189H39.08C39.36 493.189 39.58 493.089 39.62 492.869C38.86 492.149 37.58 491.069 37.58 491.069L36.42 492.629ZM45.9195 488.089H51.4595V486.729H45.9195V488.089ZM71.2233 492.209L66.3833 483.409L69.8633 479.209L71.9433 478.929V478.209H66.8033V478.929L68.7233 479.209L62.8833 486.569V485.149C62.8833 483.129 62.8833 481.109 62.9233 479.129L64.8433 478.929V478.209H58.2633V478.929L60.1633 479.109C60.2033 481.129 60.2033 483.149 60.2033 485.149V486.129C60.2033 488.169 60.2033 490.189 60.1633 492.169L58.2633 492.349V493.049H64.6833V492.349L62.9233 492.169C62.8833 490.569 62.8833 489.029 62.8833 487.669L64.6433 485.529L68.2033 492.189L66.6033 492.349V493.049H72.7233V492.349L71.2233 492.209ZM79.5405 491.009C78.6205 491.769 78.1205 492.069 77.4605 492.069C76.5005 492.069 75.8605 491.509 75.8605 490.329C75.8605 489.089 76.4605 488.169 78.0405 487.549C78.3805 487.409 78.9405 487.249 79.5405 487.069V491.009ZM83.7205 491.669C83.3605 492.149 83.1205 492.329 82.8205 492.329C82.3805 492.329 82.1005 492.029 82.1005 491.129V485.969C82.1005 483.169 81.0005 482.029 78.3805 482.029C75.6005 482.029 73.9405 483.149 73.6805 484.949C73.8005 485.549 74.2205 485.869 74.8805 485.869C75.5605 485.869 76.1005 485.429 76.1805 484.329L76.4605 482.889C76.8205 482.809 77.1605 482.769 77.5005 482.769C79.0005 482.769 79.5405 483.349 79.5405 485.469V486.489C78.7605 486.669 77.9605 486.889 77.3605 487.089C74.2805 488.049 73.3605 489.029 73.3605 490.689C73.3605 492.369 74.5805 493.369 76.2605 493.369C77.7405 493.369 78.5205 492.749 79.6205 491.589C79.8805 492.669 80.5805 493.349 81.8005 493.349C82.8605 493.349 83.5605 492.969 84.0805 491.969L83.7205 491.669ZM90.3411 493.369C93.4011 493.369 95.7411 491.269 95.7411 487.669C95.7411 484.069 93.2411 482.029 90.3411 482.029C87.4211 482.029 84.9411 484.089 84.9411 487.669C84.9411 491.249 87.2411 493.369 90.3411 493.369ZM90.3411 492.629C88.6811 492.629 87.7611 491.009 87.7611 487.689C87.7611 484.389 88.6811 482.769 90.3411 482.769C91.9611 482.769 92.9211 484.389 92.9211 487.689C92.9211 491.009 91.9611 492.629 90.3411 492.629ZM108.224 492.269C108.204 491.129 108.184 489.489 108.184 488.349V485.949C108.184 483.169 107.024 482.029 105.124 482.029C103.664 482.029 102.484 482.709 101.284 484.089V480.029L101.364 476.849L101.064 476.669L97.1044 477.529V478.089L98.7244 478.209V488.349C98.7244 489.449 98.7044 491.109 98.6844 492.249L97.2244 492.429V493.049H102.664V492.429L101.384 492.269C101.344 491.129 101.324 489.449 101.324 488.349V484.749C102.304 483.849 103.164 483.449 103.964 483.449C105.004 483.449 105.584 484.049 105.584 485.789V488.349C105.584 489.489 105.564 491.129 105.544 492.249L104.104 492.429V493.049H109.584V492.429L108.224 492.269ZM115.356 486.309C113.816 485.809 113.376 485.269 113.376 484.429C113.376 483.449 114.136 482.809 115.456 482.809C116.036 482.809 116.496 482.929 116.976 483.169L117.596 485.329H118.616L118.756 482.929C117.656 482.349 116.676 482.029 115.396 482.029C112.656 482.029 111.156 483.509 111.156 485.429C111.156 487.049 112.216 488.009 113.936 488.549L115.036 488.909C116.596 489.429 117.056 489.989 117.056 490.869C117.056 491.969 116.216 492.589 114.616 492.589C113.956 492.589 113.396 492.489 112.876 492.269L112.316 489.849H111.156L111.076 492.449C112.216 493.049 113.336 493.369 114.776 493.369C117.716 493.369 119.356 491.969 119.356 489.929C119.356 488.389 118.496 487.329 116.396 486.629L115.356 486.309ZM123.618 479.809C124.478 479.809 125.198 479.189 125.198 478.329C125.198 477.429 124.478 476.829 123.618 476.829C122.758 476.829 122.038 477.429 122.038 478.329C122.038 479.189 122.758 479.809 123.618 479.809ZM125.038 492.269C125.018 491.129 124.998 489.449 124.998 488.349V485.349L125.038 482.229L124.758 482.049L120.698 483.189V483.729L122.318 483.889C122.358 484.889 122.378 485.649 122.378 486.929V488.349C122.378 489.449 122.358 491.109 122.338 492.249L120.878 492.429V493.049H126.378V492.429L125.038 492.269ZM138.452 492.309V485.569L138.512 482.369L138.292 482.149L134.432 482.709V483.229L135.852 483.489L135.812 490.609C135.072 491.349 134.232 491.789 133.332 491.789C132.232 491.789 131.612 491.209 131.612 489.449V485.569L131.732 482.369L131.512 482.149L127.552 482.669V483.229L129.052 483.509L128.972 489.309C128.932 492.309 130.132 493.369 132.052 493.369C133.532 493.369 134.872 492.489 135.832 491.269L135.972 493.269L139.812 493.049V492.449L138.452 492.309ZM152.189 492.269C152.169 491.129 152.149 489.489 152.149 488.349V485.909C152.149 483.229 150.969 482.029 149.089 482.029C147.789 482.029 146.549 482.589 145.289 484.049L145.149 482.229L144.869 482.049L141.029 483.269V483.769L142.609 483.929C142.669 484.889 142.689 485.609 142.689 486.909V488.349C142.689 489.449 142.669 491.109 142.649 492.249L141.189 492.429V493.049H146.669V492.429L145.369 492.269C145.349 491.129 145.329 489.449 145.329 488.349V484.749C146.309 483.849 147.209 483.449 147.949 483.449C149.029 483.449 149.529 484.049 149.529 485.789V488.349C149.529 489.489 149.509 491.129 149.469 492.249L148.069 492.429V493.049H153.549V492.429L152.189 492.269ZM159.482 488.709C158.242 488.709 157.562 487.549 157.562 485.709C157.562 483.849 158.302 482.689 159.542 482.689C160.762 482.689 161.502 483.829 161.502 485.649C161.502 487.529 160.762 488.709 159.482 488.709ZM161.342 493.589C162.782 493.589 163.262 494.349 163.262 495.269C163.262 496.489 161.962 497.409 159.382 497.409C157.562 497.409 156.422 496.629 156.422 495.149C156.422 494.449 156.642 493.969 157.102 493.429C157.602 493.549 158.102 493.589 159.022 493.589H161.342ZM165.542 482.249L165.202 482.029L162.662 482.969C161.942 482.369 160.882 482.029 159.542 482.029C156.722 482.029 155.182 483.509 155.182 485.669C155.182 487.049 155.782 488.149 156.902 488.789C155.742 489.809 155.282 490.529 155.282 491.449C155.282 492.369 155.822 492.909 156.722 493.249C155.322 493.849 154.682 494.629 154.682 495.549C154.682 497.049 155.962 498.249 159.382 498.249C163.322 498.249 165.382 496.409 165.382 494.309C165.382 492.509 164.222 491.369 161.362 491.369H158.422C157.302 491.369 156.902 490.989 156.902 490.269C156.902 489.809 157.042 489.429 157.342 489.009C157.942 489.249 158.662 489.389 159.502 489.389C162.302 489.389 163.862 487.849 163.862 485.669C163.862 484.849 163.642 484.109 163.202 483.529L165.542 483.709V482.249ZM169.298 493.369C170.218 493.369 170.938 492.609 170.938 491.729C170.938 490.809 170.218 490.049 169.298 490.049C168.358 490.049 167.638 490.809 167.638 491.729C167.638 492.609 168.358 493.369 169.298 493.369ZM176.893 484.189C177.733 483.429 178.393 483.269 179.033 483.269C180.693 483.269 181.713 484.529 181.713 487.689C181.713 490.949 180.533 492.089 178.893 492.089C178.133 492.089 177.513 491.909 176.893 491.349V484.189ZM176.673 482.249L176.393 482.049L172.593 483.269V483.769L174.213 483.929C174.253 484.889 174.273 485.629 174.273 486.929V493.369C174.273 494.589 174.253 496.029 174.233 497.469L172.713 497.649V498.249H178.613V497.649L176.893 497.449C176.873 496.009 176.853 494.569 176.853 493.369V491.989C177.733 493.009 178.753 493.369 179.793 493.369C182.433 493.369 184.533 491.169 184.533 487.629C184.533 484.089 182.633 482.029 180.213 482.029C178.973 482.029 177.773 482.489 176.813 483.569L176.673 482.249ZM196.777 482.349H192.617V482.969L194.497 483.169L191.897 490.849L189.077 483.149L190.717 482.969V482.349H185.037V482.969L186.217 483.089L190.697 493.969C190.097 495.449 189.497 496.509 188.637 497.209L188.357 496.889C187.837 496.289 187.337 495.909 186.597 495.909C185.897 495.909 185.177 496.269 185.057 497.029C185.077 497.869 186.077 498.469 187.137 498.469C188.497 498.469 190.117 497.369 191.377 494.029L195.477 483.149L196.777 482.969V482.349Z" fill="#c386ae"/>
<path d="M230.377 74.4928C230.937 75.4728 231.457 76.9128 231.437 78.1728C233.057 79.7328 235.037 76.2728 230.577 74.3928L230.377 74.4928ZM239.717 69.7328H236.797V65.6928C238.597 65.4528 240.457 65.0528 241.677 64.6528C242.277 64.8328 242.677 64.7928 242.897 64.5928L240.437 62.6328C239.657 63.3328 238.237 64.2928 236.877 65.0128L234.537 64.2728V70.1528C233.797 69.4528 232.677 68.5128 232.677 68.5128L231.577 69.9928H230.197C231.097 69.1328 231.957 68.1128 232.537 67.3328C232.957 67.3728 233.197 67.2128 233.277 66.9728L230.877 66.2328H233.417C233.697 66.2328 233.897 66.1328 233.957 65.9128C233.237 65.2128 232.037 64.2328 232.037 64.2328L231.017 65.6528H229.737C230.837 65.1728 231.017 63.1128 227.397 62.5928L227.237 62.6928C227.717 63.3728 228.237 64.4328 228.297 65.3728C228.457 65.4928 228.617 65.5928 228.777 65.6528H224.577L224.737 66.2328H226.097L225.977 66.2728C226.377 67.1728 226.817 68.4528 226.797 69.5528C228.297 71.0928 230.377 68.0528 226.297 66.2328H230.537C230.357 67.3528 229.997 68.8528 229.637 69.9928H224.277L224.437 70.5728H228.057V72.9528H224.657L224.817 73.5128H228.057V74.9728L226.137 74.1328C225.897 75.7328 225.297 78.1728 224.357 79.7728L224.557 79.9928C226.097 78.7928 227.257 76.9928 227.997 75.5728H228.057V81.3728H228.457C229.617 81.3728 230.297 80.9928 230.297 80.8728V73.5128H233.597C233.877 73.5128 234.057 73.4128 234.117 73.1928C233.437 72.5128 232.277 71.5328 232.277 71.5328L231.237 72.9528H230.297V70.5728H234.097C234.277 70.5728 234.437 70.5328 234.537 70.4328V70.9928C234.537 74.6328 234.257 78.2928 231.777 81.1728L231.997 81.3928C236.457 78.7728 236.797 74.6128 236.797 71.0328V70.3128H238.717V81.3928H239.117C240.317 81.3928 241.017 80.9128 241.017 80.7728V70.3128H242.737C243.017 70.3128 243.237 70.2128 243.277 69.9928C242.437 69.1728 240.997 67.9928 240.997 67.9928L239.717 69.7328ZM253.357 68.0728C253.637 68.0728 253.857 67.9728 253.917 67.7528C253.117 67.0128 251.757 65.9128 251.757 65.9128L250.597 67.5128H248.357C248.937 66.4328 249.457 65.2328 249.897 63.9328C250.357 63.9328 250.597 63.7728 250.677 63.4928L247.437 62.6328C246.857 66.2528 245.577 69.8728 244.177 72.2328L244.417 72.3928C245.817 71.2728 247.037 69.8328 248.037 68.0728H248.377V81.3728H248.817C250.037 81.3728 250.777 80.8928 250.797 80.7528V68.0728H253.357ZM259.817 67.5128H256.277C256.917 66.4528 257.477 65.2928 257.977 64.0128C258.457 64.0128 258.697 63.8328 258.777 63.5928L255.437 62.5928C254.797 66.1328 253.397 69.6528 251.897 71.9128L252.137 72.0728C253.577 71.0328 254.857 69.7128 255.937 68.0728H257.517V78.3528C257.517 78.5928 257.417 78.7328 257.097 78.7328C256.637 78.7328 254.537 78.5928 254.537 78.5928V78.8528C255.597 79.0328 256.057 79.3128 256.357 79.6728C256.657 80.0328 256.777 80.6328 256.797 81.3928C259.517 81.1928 259.917 80.0528 259.917 78.4328V68.0728H262.657C262.937 68.0728 263.157 67.9728 263.217 67.7528C262.397 66.9928 261.037 65.8728 261.037 65.8728L259.817 67.5128ZM269.616 74.6728H275.156V73.3128H269.616V74.6728ZM287.8 65.5728C290.14 65.5728 291.26 66.8328 291.26 69.1928C291.26 71.3928 290.18 72.9128 287.66 72.9128H286.68V71.7328C286.68 69.6528 286.68 67.5928 286.74 65.5728H287.8ZM287.62 73.6928C292.24 73.6928 293.92 71.6728 293.92 69.1928C293.92 66.4728 292.14 64.7928 287.92 64.7928H281.96V65.5128L283.86 65.6928C283.9 67.7128 283.9 69.7328 283.9 71.7328V72.7128C283.9 74.7528 283.9 76.7728 283.86 78.7528L281.96 78.9328V79.6328H288.88V78.9328L286.74 78.7328C286.68 76.9728 286.68 75.2528 286.68 73.6928H287.62ZM306.431 68.9328H302.271V69.5528L304.151 69.7528L301.551 77.4328L298.731 69.7328L300.371 69.5528V68.9328H294.691V69.5528L295.871 69.6728L300.351 80.5528C299.751 82.0328 299.151 83.0928 298.291 83.7928L298.011 83.4728C297.491 82.8728 296.991 82.4928 296.251 82.4928C295.551 82.4928 294.831 82.8528 294.711 83.6128C294.731 84.4528 295.731 85.0528 296.791 85.0528C298.151 85.0528 299.771 83.9528 301.031 80.6128L305.131 69.7328L306.431 69.5528V68.9328ZM322.129 65.5128V64.7928H315.549V65.5128L317.369 65.6928C317.409 67.6728 317.409 69.6728 317.409 71.6528H311.289C311.289 69.6528 311.289 67.6528 311.349 65.6928L313.169 65.5128V64.7928H306.589V65.5128L308.489 65.7128C308.509 67.7128 308.509 69.7328 308.509 71.7328V72.7128C308.509 74.7528 308.509 76.7728 308.489 78.7528L306.589 78.9328V79.6328H313.169V78.9328L311.349 78.7728C311.289 76.7728 311.289 74.7328 311.289 72.4328H317.409C317.409 74.7528 317.409 76.7928 317.369 78.7728L315.549 78.9328V79.6328H322.129V78.9328L320.229 78.7528C320.209 76.7528 320.209 74.7128 320.209 72.7128V71.7328C320.209 69.6928 320.209 67.6928 320.229 65.6928L322.129 65.5128ZM333.789 78.8928V72.1528L333.849 68.9528L333.629 68.7328L329.769 69.2928V69.8128L331.189 70.0728L331.149 77.1928C330.409 77.9328 329.569 78.3728 328.669 78.3728C327.569 78.3728 326.949 77.7928 326.949 76.0328V72.1528L327.069 68.9528L326.849 68.7328L322.889 69.2528V69.8128L324.389 70.0928L324.309 75.8928C324.269 78.8928 325.469 79.9528 327.389 79.9528C328.869 79.9528 330.209 79.0728 331.169 77.8528L331.309 79.8528L335.149 79.6328V79.0328L333.789 78.8928ZM341.187 75.2928C339.947 75.2928 339.267 74.1328 339.267 72.2928C339.267 70.4328 340.007 69.2728 341.247 69.2728C342.467 69.2728 343.207 70.4128 343.207 72.2328C343.207 74.1128 342.467 75.2928 341.187 75.2928ZM343.047 80.1728C344.487 80.1728 344.967 80.9328 344.967 81.8528C344.967 83.0728 343.667 83.9928 341.087 83.9928C339.267 83.9928 338.127 83.2128 338.127 81.7328C338.127 81.0328 338.347 80.5528 338.807 80.0128C339.307 80.1328 339.807 80.1728 340.727 80.1728H343.047ZM347.247 68.8328L346.907 68.6128L344.367 69.5528C343.647 68.9528 342.587 68.6128 341.247 68.6128C338.427 68.6128 336.887 70.0928 336.887 72.2528C336.887 73.6328 337.487 74.7328 338.607 75.3728C337.447 76.3928 336.987 77.1128 336.987 78.0328C336.987 78.9528 337.527 79.4928 338.427 79.8328C337.027 80.4328 336.387 81.2128 336.387 82.1328C336.387 83.6328 337.667 84.8328 341.087 84.8328C345.027 84.8328 347.087 82.9928 347.087 80.8928C347.087 79.0928 345.927 77.9528 343.067 77.9528H340.127C339.007 77.9528 338.607 77.5728 338.607 76.8528C338.607 76.3928 338.747 76.0128 339.047 75.5928C339.647 75.8328 340.367 75.9728 341.207 75.9728C344.007 75.9728 345.567 74.4328 345.567 72.2528C345.567 71.4328 345.347 70.6928 344.907 70.1128L347.247 70.2928V68.8328Z" fill="#c386ae"/>
<path d="M534.638 234.461C535.798 233.941 536.978 233.301 538.098 232.461V239.961H538.518C539.398 239.961 540.358 239.541 540.378 239.381V231.381C540.758 231.321 540.938 231.181 540.998 231.001L540.118 230.661C540.738 230.021 541.338 229.321 541.898 228.521C542.338 228.581 542.618 228.421 542.718 228.181L539.658 226.861C538.418 229.861 536.318 232.661 534.458 234.261L534.638 234.461ZM540.698 223.921H539.998L539.778 222.061C540.178 221.961 540.338 221.741 540.358 221.501L537.418 221.301L537.718 223.921H534.258L534.418 224.501H537.778L538.058 226.861C539.098 226.881 539.958 226.701 540.298 226.261L540.078 224.501H543.318C543.598 224.501 543.798 224.401 543.858 224.181C543.118 223.421 541.818 222.341 541.818 222.341L540.698 223.921ZM551.958 234.181H551.738C551.378 235.441 551.038 236.501 550.798 236.861C550.658 237.061 550.498 237.121 550.278 237.141C549.978 237.181 549.418 237.181 548.758 237.181H546.978C546.298 237.181 546.138 237.041 546.138 236.661V232.221H551.718C552.018 232.221 552.238 232.121 552.298 231.901C551.478 231.101 550.098 229.941 550.098 229.941L548.878 231.641H546.138V227.981C546.618 227.921 546.798 227.721 546.818 227.461L543.838 227.181V237.281C543.838 238.941 544.378 239.381 546.458 239.381H548.518C551.918 239.381 552.858 238.961 552.858 237.941C552.858 237.501 552.678 237.241 552.038 236.981L551.958 234.181ZM550.138 223.921H548.718L548.958 222.341C549.498 222.301 549.678 222.101 549.738 221.861L546.858 221.301L546.458 223.921H544.338L544.498 224.501H546.378L546.038 226.681C547.018 226.881 547.918 226.741 548.338 226.421L548.638 224.501H552.778C553.058 224.501 553.258 224.401 553.298 224.181C552.558 223.421 551.238 222.341 551.238 222.341L550.138 223.921ZM564.438 223.601H566.698L566.458 225.141C567.418 225.341 568.318 225.201 568.758 224.861L568.978 223.601H572.678C572.938 223.601 573.138 223.501 573.178 223.281C572.518 222.581 571.318 221.621 571.318 221.621L570.278 223.041H569.058L569.218 222.181C569.738 222.141 569.918 221.921 569.958 221.661L567.078 221.201L566.778 223.041H564.278L564.438 223.601ZM554.758 223.601H557.998L558.278 225.241C559.318 225.221 560.158 225.041 560.478 224.581L560.278 223.601H563.478C563.738 223.601 563.958 223.501 563.998 223.281C563.318 222.581 562.138 221.621 562.138 221.621L561.098 223.041H560.178L559.958 221.881C560.338 221.761 560.478 221.521 560.478 221.281L557.578 221.201L557.898 223.041H554.598L554.758 223.601ZM555.878 224.961C556.438 225.501 557.038 226.501 557.138 227.361C559.118 228.681 560.938 224.961 556.038 224.841L555.878 224.961ZM564.778 229.021V230.561H563.178V229.021H564.778ZM568.258 229.021V230.561H566.778V229.021H568.258ZM566.778 234.681V233.321H568.258V234.001H568.598C568.918 234.001 569.298 233.901 569.638 233.781L568.878 234.681H566.778ZM568.258 232.741H566.778V231.141H568.258V232.741ZM563.178 232.741V231.141H564.778V232.741H563.178ZM561.198 234.321H561.498C562.318 234.321 563.178 233.881 563.178 233.701V233.321H564.778V234.681H559.998L560.158 235.261H564.778V237.361H565.158C565.898 237.361 566.778 236.941 566.778 236.741V235.261H571.538C571.818 235.261 572.038 235.161 572.078 234.941C571.498 234.421 570.618 233.761 570.218 233.461C570.238 233.441 570.238 233.421 570.238 233.421V229.301C570.598 229.221 570.858 229.061 570.978 228.921L568.998 227.441L568.058 228.441H566.778V227.181H571.118C571.398 227.181 571.618 227.081 571.658 226.861C570.858 226.181 569.558 225.241 569.558 225.241L568.438 226.621H566.778V225.801C567.198 225.741 567.318 225.581 567.338 225.361L564.778 225.101V226.621H560.018L560.178 227.181H564.778V228.441H563.278L561.198 227.601V232.461L559.558 231.141L558.518 232.161H557.678C558.198 231.381 558.858 230.341 559.298 229.621C559.798 229.601 560.238 229.501 560.438 229.281L558.518 227.541L557.558 228.521H554.698L554.878 229.081H557.518C557.078 229.881 556.418 230.961 555.918 231.721C555.618 231.821 555.298 231.941 555.098 232.081L556.738 233.341L557.438 232.721H558.638C558.398 233.901 557.918 235.261 557.338 236.281C556.738 236.481 555.458 237.101 554.498 237.461L556.038 239.741C556.198 239.641 556.258 239.521 556.218 239.361C556.638 238.481 557.118 237.681 557.418 237.201C557.598 236.861 557.838 236.821 558.158 237.181C559.778 238.841 561.438 239.521 565.778 239.521H571.598C571.718 238.621 572.258 237.721 573.198 237.561V237.321C570.878 237.461 568.958 237.461 566.598 237.461C562.318 237.481 559.778 237.261 558.358 236.421C558.258 236.381 558.178 236.341 558.078 236.321C559.218 235.321 560.118 234.041 560.558 232.821C560.878 232.801 561.058 232.781 561.198 232.701V234.321ZM579.678 233.241H585.218V231.881H579.678V233.241ZM607.562 224.081V223.361H600.982V224.081L602.802 224.261C602.842 226.241 602.842 228.241 602.842 230.221H596.722C596.722 228.221 596.722 226.221 596.782 224.261L598.602 224.081V223.361H592.022V224.081L593.922 224.281C593.942 226.281 593.942 228.301 593.942 230.301V231.281C593.942 233.321 593.942 235.341 593.922 237.321L592.022 237.501V238.201H598.602V237.501L596.782 237.341C596.722 235.341 596.722 233.301 596.722 231.001H602.842C602.842 233.321 602.842 235.361 602.802 237.341L600.982 237.501V238.201H607.562V237.501L605.662 237.321C605.642 235.321 605.642 233.281 605.642 231.281V230.301C605.642 228.261 605.642 226.261 605.662 224.261L607.562 224.081ZM619.222 237.461V230.721L619.282 227.521L619.062 227.301L615.202 227.861V228.381L616.622 228.641L616.582 235.761C615.842 236.501 615.002 236.941 614.102 236.941C613.002 236.941 612.382 236.361 612.382 234.601V230.721L612.502 227.521L612.282 227.301L608.322 227.821V228.381L609.822 228.661L609.742 234.461C609.702 237.461 610.902 238.521 612.822 238.521C614.302 238.521 615.642 237.641 616.602 236.421L616.742 238.421L620.582 238.201V237.601L619.222 237.461ZM628.279 236.161C627.359 236.921 626.859 237.221 626.199 237.221C625.239 237.221 624.599 236.661 624.599 235.481C624.599 234.241 625.199 233.321 626.779 232.701C627.119 232.561 627.679 232.401 628.279 232.221V236.161ZM632.459 236.821C632.099 237.301 631.859 237.481 631.559 237.481C631.119 237.481 630.839 237.181 630.839 236.281V231.121C630.839 228.321 629.739 227.181 627.119 227.181C624.339 227.181 622.679 228.301 622.419 230.101C622.539 230.701 622.959 231.021 623.619 231.021C624.299 231.021 624.839 230.581 624.919 229.481L625.199 228.041C625.559 227.961 625.899 227.921 626.239 227.921C627.739 227.921 628.279 228.501 628.279 230.621V231.641C627.499 231.821 626.699 232.041 626.099 232.241C623.019 233.201 622.099 234.181 622.099 235.841C622.099 237.521 623.319 238.521 624.999 238.521C626.479 238.521 627.259 237.901 628.359 236.741C628.619 237.821 629.319 238.501 630.539 238.501C631.599 238.501 632.299 238.121 632.819 237.121L632.459 236.821ZM637.76 237.421C637.72 236.141 637.7 234.761 637.7 233.501V225.181L637.78 222.001L637.5 221.821L633.48 222.681V223.241L635.1 223.361V233.501C635.1 234.761 635.08 236.141 635.04 237.401L633.5 237.581V238.201H639.3V237.581L637.76 237.421ZM643.392 224.961C644.252 224.961 644.972 224.341 644.972 223.481C644.972 222.581 644.252 221.981 643.392 221.981C642.532 221.981 641.812 222.581 641.812 223.481C641.812 224.341 642.532 224.961 643.392 224.961ZM644.812 237.421C644.792 236.281 644.772 234.601 644.772 233.501V230.501L644.812 227.381L644.532 227.201L640.472 228.341V228.881L642.092 229.041C642.132 230.041 642.152 230.801 642.152 232.081V233.501C642.152 234.601 642.132 236.261 642.112 237.401L640.652 237.581V238.201H646.152V237.581L644.812 237.421ZM650.386 232.061C650.506 229.141 651.606 227.921 652.866 227.921C654.086 227.921 654.946 228.961 654.946 230.581C654.946 231.601 654.726 232.061 653.806 232.061H650.386ZM657.306 232.801C657.406 232.461 657.446 232.081 657.446 231.561C657.446 229.041 655.786 227.181 653.046 227.181C650.246 227.181 647.606 229.241 647.606 232.841C647.606 236.481 649.886 238.521 653.026 238.521C655.006 238.521 656.526 237.581 657.326 235.941L656.926 235.661C656.226 236.601 655.366 237.201 653.926 237.201C651.986 237.201 650.466 235.861 650.386 232.801H657.306ZM669.99 237.421C669.97 236.281 669.95 234.641 669.95 233.501V231.061C669.95 228.381 668.77 227.181 666.89 227.181C665.59 227.181 664.35 227.741 663.09 229.201L662.95 227.381L662.67 227.201L658.83 228.421V228.921L660.41 229.081C660.47 230.041 660.49 230.761 660.49 232.061V233.501C660.49 234.601 660.47 236.261 660.45 237.401L658.99 237.581V238.201H664.47V237.581L663.17 237.421C663.15 236.281 663.13 234.601 663.13 233.501V229.901C664.11 229.001 665.01 228.601 665.75 228.601C666.83 228.601 667.33 229.201 667.33 230.941V233.501C667.33 234.641 667.31 236.281 667.27 237.401L665.87 237.581V238.201H671.35V237.581L669.99 237.421ZM675.243 238.521C676.163 238.521 676.883 237.761 676.883 236.881C676.883 235.961 676.163 235.201 675.243 235.201C674.303 235.201 673.583 235.961 673.583 236.881C673.583 237.761 674.303 238.521 675.243 238.521ZM682.838 229.341C683.678 228.581 684.338 228.421 684.978 228.421C686.638 228.421 687.658 229.681 687.658 232.841C687.658 236.101 686.478 237.241 684.838 237.241C684.078 237.241 683.458 237.061 682.838 236.501V229.341ZM682.618 227.401L682.338 227.201L678.538 228.421V228.921L680.158 229.081C680.198 230.041 680.218 230.781 680.218 232.081V238.521C680.218 239.741 680.198 241.181 680.178 242.621L678.658 242.801V243.401H684.558V242.801L682.838 242.601C682.818 241.161 682.798 239.721 682.798 238.521V237.141C683.678 238.161 684.698 238.521 685.738 238.521C688.378 238.521 690.478 236.321 690.478 232.781C690.478 229.241 688.578 227.181 686.158 227.181C684.918 227.181 683.718 227.641 682.758 228.721L682.618 227.401ZM702.723 227.501H698.563V228.121L700.443 228.321L697.843 236.001L695.023 228.301L696.663 228.121V227.501H690.983V228.121L692.163 228.241L696.643 239.121C696.043 240.601 695.443 241.661 694.583 242.361L694.303 242.041C693.783 241.441 693.283 241.061 692.543 241.061C691.843 241.061 691.123 241.421 691.003 242.181C691.023 243.021 692.023 243.621 693.083 243.621C694.443 243.621 696.063 242.521 697.323 239.181L701.423 228.301L702.723 228.121V227.501Z" fill="#c386ae"/>
<path d="M115.257 145.534V140.294H122.897V145.534H115.257ZM122.657 139.714H115.397L112.777 138.694V147.914H113.137C114.157 147.914 115.257 147.354 115.257 147.114V146.094H122.897V147.774H123.297C124.117 147.774 125.357 147.334 125.377 147.214V140.774C125.857 140.674 126.157 140.474 126.297 140.294L123.837 138.394L122.657 139.714ZM121.277 132.314C122.257 133.154 123.297 134.274 124.157 135.454C119.797 135.614 115.617 135.734 112.937 135.774C115.497 134.434 118.397 132.394 119.937 130.774C120.397 130.814 120.657 130.654 120.737 130.434L117.477 129.134C116.537 131.054 113.557 134.414 111.497 135.514C111.257 135.654 110.697 135.754 110.697 135.754L111.497 138.454C111.717 138.394 111.917 138.254 112.097 138.034C117.297 137.294 121.577 136.574 124.517 135.974C124.997 136.694 125.397 137.434 125.637 138.114C128.197 139.674 129.577 134.254 121.457 132.174L121.277 132.314ZM140.237 139.514V134.174H144.737V139.514H140.237ZM133.277 139.514V134.174H137.737V139.514H133.277ZM145.677 132.354L144.557 133.594H140.237V130.094C140.777 130.014 140.937 129.794 140.977 129.514L137.737 129.214V133.594H133.457L130.797 132.554V142.074H131.157C132.177 142.074 133.277 141.514 133.277 141.274V140.094H137.737V147.954H138.197C139.157 147.954 140.237 147.354 140.237 147.094V140.094H144.737V141.774H145.157C145.977 141.774 147.217 141.334 147.237 141.174V134.594C147.657 134.514 147.917 134.314 148.057 134.154L145.677 132.354ZM154.937 141.214H160.477V139.854H154.937V141.214ZM177.84 132.174L178.66 135.474H179.78L179.66 131.334H166.96L166.82 135.474H167.94L168.78 132.174H171.88C171.9 134.194 171.9 136.254 171.9 138.274V139.254C171.9 141.294 171.9 143.314 171.88 145.294L169.74 145.474V146.174H176.88V145.474L174.74 145.294C174.7 143.274 174.7 141.254 174.7 139.254V138.274C174.7 136.214 174.7 134.174 174.74 132.174H177.84ZM186.136 144.134C185.216 144.894 184.716 145.194 184.056 145.194C183.096 145.194 182.456 144.634 182.456 143.454C182.456 142.214 183.056 141.294 184.636 140.674C184.976 140.534 185.536 140.374 186.136 140.194V144.134ZM190.316 144.794C189.956 145.274 189.716 145.454 189.416 145.454C188.976 145.454 188.696 145.154 188.696 144.254V139.094C188.696 136.294 187.596 135.154 184.976 135.154C182.196 135.154 180.536 136.274 180.276 138.074C180.396 138.674 180.816 138.994 181.476 138.994C182.156 138.994 182.696 138.554 182.776 137.454L183.056 136.014C183.416 135.934 183.756 135.894 184.096 135.894C185.596 135.894 186.136 136.474 186.136 138.594V139.614C185.356 139.794 184.556 140.014 183.956 140.214C180.876 141.174 179.956 142.154 179.956 143.814C179.956 145.494 181.176 146.494 182.856 146.494C184.336 146.494 185.116 145.874 186.216 144.714C186.476 145.794 187.176 146.474 188.396 146.474C189.456 146.474 190.156 146.094 190.676 145.094L190.316 144.794ZM194.236 132.934C195.096 132.934 195.816 132.314 195.816 131.454C195.816 130.554 195.096 129.954 194.236 129.954C193.376 129.954 192.656 130.554 192.656 131.454C192.656 132.314 193.376 132.934 194.236 132.934ZM195.656 145.394C195.636 144.254 195.616 142.574 195.616 141.474V138.474L195.656 135.354L195.376 135.174L191.316 136.314V136.854L192.936 137.014C192.976 138.014 192.996 138.774 192.996 140.054V141.474C192.996 142.574 192.976 144.234 192.956 145.374L191.496 145.554V146.174H196.996V145.554L195.656 145.394ZM205.51 137.554C205.63 138.674 206.19 139.094 206.95 139.094C207.55 139.094 207.93 138.794 208.11 138.154C207.81 136.434 206.23 135.154 204.11 135.154C201.03 135.154 198.43 137.234 198.43 140.854C198.43 144.414 200.73 146.494 203.75 146.494C205.85 146.494 207.29 145.554 208.11 143.894L207.69 143.674C206.97 144.634 206.01 145.174 204.81 145.174C202.65 145.174 201.19 143.494 201.19 140.594C201.19 137.614 202.53 135.894 204.43 135.894C204.69 135.894 204.95 135.914 205.21 135.994L205.51 137.554ZM220.171 145.394C220.151 144.254 220.131 142.614 220.131 141.474V139.074C220.131 136.294 218.971 135.154 217.071 135.154C215.611 135.154 214.431 135.834 213.231 137.214V133.154L213.311 129.974L213.011 129.794L209.051 130.654V131.214L210.671 131.334V141.474C210.671 142.574 210.651 144.234 210.631 145.374L209.171 145.554V146.174H214.611V145.554L213.331 145.394C213.291 144.254 213.271 142.574 213.271 141.474V137.874C214.251 136.974 215.111 136.574 215.911 136.574C216.951 136.574 217.531 137.174 217.531 138.914V141.474C217.531 142.614 217.511 144.254 217.491 145.374L216.051 145.554V146.174H221.531V145.554L220.171 145.394ZM233.465 145.434V138.694L233.525 135.494L233.305 135.274L229.445 135.834V136.354L230.865 136.614L230.825 143.734C230.085 144.474 229.245 144.914 228.345 144.914C227.245 144.914 226.625 144.334 226.625 142.574V138.694L226.745 135.494L226.525 135.274L222.565 135.794V136.354L224.065 136.634L223.985 142.434C223.945 145.434 225.145 146.494 227.065 146.494C228.545 146.494 229.885 145.614 230.845 144.394L230.985 146.394L234.825 146.174V145.574L233.465 145.434ZM247.202 145.394C247.182 144.254 247.162 142.614 247.162 141.474V139.034C247.162 136.354 245.982 135.154 244.102 135.154C242.802 135.154 241.562 135.714 240.302 137.174L240.162 135.354L239.882 135.174L236.042 136.394V136.894L237.622 137.054C237.682 138.014 237.702 138.734 237.702 140.034V141.474C237.702 142.574 237.682 144.234 237.662 145.374L236.202 145.554V146.174H241.682V145.554L240.382 145.394C240.362 144.254 240.342 142.574 240.342 141.474V137.874C241.322 136.974 242.222 136.574 242.962 136.574C244.042 136.574 244.542 137.174 244.542 138.914V141.474C244.542 142.614 244.522 144.254 244.482 145.374L243.082 145.554V146.174H248.562V145.554L247.202 145.394ZM254.495 141.834C253.255 141.834 252.575 140.674 252.575 138.834C252.575 136.974 253.315 135.814 254.555 135.814C255.775 135.814 256.515 136.954 256.515 138.774C256.515 140.654 255.775 141.834 254.495 141.834ZM256.355 146.714C257.795 146.714 258.275 147.474 258.275 148.394C258.275 149.614 256.975 150.534 254.395 150.534C252.575 150.534 251.435 149.754 251.435 148.274C251.435 147.574 251.655 147.094 252.115 146.554C252.615 146.674 253.115 146.714 254.035 146.714H256.355ZM260.555 135.374L260.215 135.154L257.675 136.094C256.955 135.494 255.895 135.154 254.555 135.154C251.735 135.154 250.195 136.634 250.195 138.794C250.195 140.174 250.795 141.274 251.915 141.914C250.755 142.934 250.295 143.654 250.295 144.574C250.295 145.494 250.835 146.034 251.735 146.374C250.335 146.974 249.695 147.754 249.695 148.674C249.695 150.174 250.975 151.374 254.395 151.374C258.335 151.374 260.395 149.534 260.395 147.434C260.395 145.634 259.235 144.494 256.375 144.494H253.435C252.315 144.494 251.915 144.114 251.915 143.394C251.915 142.934 252.055 142.554 252.355 142.134C252.955 142.374 253.675 142.514 254.515 142.514C257.315 142.514 258.875 140.974 258.875 138.794C258.875 137.974 258.655 137.234 258.215 136.654L260.555 136.834V135.374ZM264.311 146.494C265.231 146.494 265.951 145.734 265.951 144.854C265.951 143.934 265.231 143.174 264.311 143.174C263.371 143.174 262.651 143.934 262.651 144.854C262.651 145.734 263.371 146.494 264.311 146.494ZM271.906 137.314C272.746 136.554 273.406 136.394 274.046 136.394C275.706 136.394 276.726 137.654 276.726 140.814C276.726 144.074 275.546 145.214 273.906 145.214C273.146 145.214 272.526 145.034 271.906 144.474V137.314ZM271.686 135.374L271.406 135.174L267.606 136.394V136.894L269.226 137.054C269.266 138.014 269.286 138.754 269.286 140.054V146.494C269.286 147.714 269.266 149.154 269.246 150.594L267.726 150.774V151.374H273.626V150.774L271.906 150.574C271.886 149.134 271.866 147.694 271.866 146.494V145.114C272.746 146.134 273.766 146.494 274.806 146.494C277.446 146.494 279.546 144.294 279.546 140.754C279.546 137.214 277.646 135.154 275.226 135.154C273.986 135.154 272.786 135.614 271.826 136.694L271.686 135.374ZM291.79 135.474H287.63V136.094L289.51 136.294L286.91 143.974L284.09 136.274L285.73 136.094V135.474H280.05V136.094L281.23 136.214L285.71 147.094C285.11 148.574 284.51 149.634 283.65 150.334L283.37 150.014C282.85 149.414 282.35 149.034 281.61 149.034C280.91 149.034 280.19 149.394 280.07 150.154C280.09 150.994 281.09 151.594 282.15 151.594C283.51 151.594 285.13 150.494 286.39 147.154L290.49 136.274L291.79 136.094V135.474Z" fill="#c386ae"/>
<path d="M62.6777 242.221C62.9577 242.221 63.1577 242.121 63.2177 241.901C62.4577 241.241 61.2377 240.321 61.2377 240.321L60.1577 241.661H59.2377V239.241H62.5377C62.8177 239.241 63.0177 239.141 63.0577 238.921C62.3577 238.301 61.2777 237.501 61.2777 237.501L60.2977 238.661H59.1577C59.9777 237.901 60.8177 236.981 61.3777 236.321C61.7977 236.341 62.0377 236.181 62.1177 235.941L59.4777 235.181C59.2777 236.201 58.9177 237.621 58.5777 238.661H53.8177L53.9777 239.241H56.9577V241.661H53.3777L53.5377 242.221H56.9577V246.441H57.3577C58.5377 246.441 59.2177 246.061 59.2377 245.961V242.221H62.6777ZM54.4377 235.421C54.9377 236.121 55.3977 237.201 55.4177 238.181C57.1377 239.661 59.1977 236.321 54.6577 235.301L54.4377 235.421ZM63.4777 231.201H59.3377V229.081C59.8777 229.001 60.0377 228.801 60.0777 228.521L56.9577 228.261V231.201H48.9177L49.0977 231.761H56.9577V234.401H53.1177L50.5577 233.361V247.081H50.9377C51.9377 247.081 52.9577 246.521 52.9577 246.261V234.961H63.5977V244.181C63.5977 244.441 63.5177 244.601 63.1777 244.601C62.6377 244.601 60.5577 244.441 60.5577 244.441V244.721C61.5977 244.881 62.0377 245.161 62.3777 245.501C62.6977 245.861 62.8177 246.381 62.8777 247.121C65.6177 246.861 66.0177 245.961 66.0177 244.421V235.361C66.4177 235.281 66.6977 235.101 66.8177 234.941L64.4977 233.161L63.3977 234.401H59.3377V231.761H66.8377C67.1377 231.761 67.3577 231.661 67.4177 231.441C66.4377 230.621 64.8777 229.441 64.8777 229.441L63.4777 231.201ZM75.4577 237.441C79.2577 235.881 79.6777 233.081 79.6777 231.341V230.301H82.4777V234.361C82.4777 235.661 82.6377 236.081 84.1177 236.081H85.0377C86.8777 236.081 87.5777 235.661 87.5777 234.841C87.5777 234.441 87.4177 234.241 86.9377 234.001L86.8377 233.981H86.6377C86.5177 234.001 86.3377 234.041 86.2177 234.061C86.1177 234.081 85.8977 234.081 85.7977 234.081H85.3377H84.8377C84.5977 234.081 84.5577 234.001 84.5577 233.801V230.501C84.9177 230.441 85.1577 230.341 85.2777 230.201L83.3377 228.601L82.2777 229.741H80.0177L77.5577 228.841V231.341C77.5577 233.181 77.3177 235.441 75.2977 237.241L75.4577 237.441ZM75.9177 235.581C75.1377 235.921 74.3377 236.261 73.5577 236.581V233.601H76.1377C76.4177 233.601 76.6377 233.501 76.6777 233.281C75.9977 232.521 74.8177 231.461 74.8177 231.461L73.7577 233.021H73.5577V229.161C74.0577 229.081 74.2577 228.881 74.2977 228.581L71.2777 228.301V233.021H68.7177L68.8577 233.601H71.2777V237.481C70.1177 237.961 69.1577 238.321 68.6177 238.501L69.8177 241.081C70.0377 240.981 70.1977 240.721 70.2577 240.461C70.6177 240.201 70.9577 239.941 71.2777 239.701V243.901C71.2777 244.141 71.1777 244.261 70.8577 244.261C70.4577 244.261 68.6577 244.141 68.6577 244.141V244.421C69.5177 244.581 69.9577 244.841 70.2377 245.261C70.4977 245.661 70.6177 246.241 70.6577 247.061C73.2377 246.801 73.5577 245.821 73.5577 244.141V237.901C74.5777 237.061 75.4177 236.321 76.0177 235.761L75.9177 235.581ZM83.1177 238.101C82.5977 239.561 81.8577 240.901 80.8777 242.061C79.6177 241.081 78.6177 239.781 77.9977 238.101H83.1177ZM84.3377 236.301L83.0577 237.521H75.8977L76.0777 238.101H77.6177C78.1177 240.221 78.8577 241.841 79.8777 243.141C78.2777 244.681 76.2177 245.901 73.7377 246.781L73.8777 247.041C76.7377 246.481 79.0377 245.541 80.8777 244.261C82.1577 245.501 83.7977 246.361 85.7377 247.041C86.0577 245.961 86.7177 245.261 87.6577 245.061L87.6977 244.821C85.7577 244.441 83.9377 243.901 82.3777 243.041C83.7577 241.761 84.7977 240.241 85.5577 238.501C86.0577 238.461 86.2577 238.381 86.4177 238.181L84.3377 236.301ZM94.0572 240.321H99.5972V238.961H94.0572V240.321ZM121.081 230.441H115.681V231.161L118.261 231.441L118.321 241.321L110.481 230.441H106.261V231.161L107.781 231.341L108.101 231.761L108.001 244.341L106.141 244.581V245.281H111.541V244.581L108.981 244.321L108.921 232.921L117.761 245.361H119.141L119.241 231.421L121.081 231.161V230.441ZM128.206 243.241C127.286 244.001 126.786 244.301 126.126 244.301C125.166 244.301 124.526 243.741 124.526 242.561C124.526 241.321 125.126 240.401 126.706 239.781C127.046 239.641 127.606 239.481 128.206 239.301V243.241ZM132.386 243.901C132.026 244.381 131.786 244.561 131.486 244.561C131.046 244.561 130.766 244.261 130.766 243.361V238.201C130.766 235.401 129.666 234.261 127.046 234.261C124.266 234.261 122.606 235.381 122.346 237.181C122.466 237.781 122.886 238.101 123.546 238.101C124.226 238.101 124.766 237.661 124.846 236.561L125.126 235.121C125.486 235.041 125.826 235.001 126.166 235.001C127.666 235.001 128.206 235.581 128.206 237.701V238.721C127.426 238.901 126.626 239.121 126.026 239.321C122.946 240.281 122.026 241.261 122.026 242.921C122.026 244.601 123.246 245.601 124.926 245.601C126.406 245.601 127.186 244.981 128.286 243.821C128.546 244.901 129.246 245.581 130.466 245.581C131.526 245.581 132.226 245.201 132.746 244.201L132.386 243.901ZM144.526 244.501C144.506 243.361 144.486 241.721 144.486 240.581V238.141C144.486 235.461 143.306 234.261 141.426 234.261C140.126 234.261 138.886 234.821 137.626 236.281L137.486 234.461L137.206 234.281L133.366 235.501V236.001L134.946 236.161C135.006 237.121 135.026 237.841 135.026 239.141V240.581C135.026 241.681 135.006 243.341 134.986 244.481L133.526 244.661V245.281H139.006V244.661L137.706 244.501C137.686 243.361 137.666 241.681 137.666 240.581V236.981C138.646 236.081 139.546 235.681 140.286 235.681C141.366 235.681 141.866 236.281 141.866 238.021V240.581C141.866 241.721 141.846 243.361 141.806 244.481L140.406 244.661V245.281H145.886V244.661L144.526 244.501ZM153.681 243.801C153.141 244.201 152.781 244.401 152.261 244.401C151.461 244.401 150.961 243.941 150.961 242.821V235.421H153.621V234.581H150.981L151.041 231.421H149.321L148.461 234.561L146.601 234.761V235.421H148.321V240.661C148.321 241.461 148.301 242.021 148.301 242.661C148.301 244.701 149.321 245.601 151.161 245.601C152.521 245.601 153.461 245.081 154.041 244.181L153.681 243.801ZM160.276 245.601C163.336 245.601 165.676 243.501 165.676 239.901C165.676 236.301 163.176 234.261 160.276 234.261C157.356 234.261 154.876 236.321 154.876 239.901C154.876 243.481 157.176 245.601 160.276 245.601ZM160.276 244.861C158.616 244.861 157.696 243.241 157.696 239.921C157.696 236.621 158.616 235.001 160.276 235.001C161.896 235.001 162.856 236.621 162.856 239.921C162.856 243.241 161.896 244.861 160.276 244.861ZM177.859 244.541V237.801L177.919 234.601L177.699 234.381L173.839 234.941V235.461L175.259 235.721L175.219 242.841C174.479 243.581 173.639 244.021 172.739 244.021C171.639 244.021 171.019 243.441 171.019 241.681V237.801L171.139 234.601L170.919 234.381L166.959 234.901V235.461L168.459 235.741L168.379 241.541C168.339 244.541 169.539 245.601 171.459 245.601C172.939 245.601 174.279 244.721 175.239 243.501L175.379 245.501L179.219 245.281V244.681L177.859 244.541ZM183.216 245.601C184.136 245.601 184.856 244.841 184.856 243.961C184.856 243.041 184.136 242.281 183.216 242.281C182.276 242.281 181.556 243.041 181.556 243.961C181.556 244.841 182.276 245.601 183.216 245.601ZM190.812 236.421C191.652 235.661 192.312 235.501 192.952 235.501C194.612 235.501 195.632 236.761 195.632 239.921C195.632 243.181 194.452 244.321 192.812 244.321C192.052 244.321 191.432 244.141 190.812 243.581V236.421ZM190.592 234.481L190.312 234.281L186.512 235.501V236.001L188.132 236.161C188.172 237.121 188.192 237.861 188.192 239.161V245.601C188.192 246.821 188.172 248.261 188.152 249.701L186.632 249.881V250.481H192.532V249.881L190.812 249.681C190.792 248.241 190.772 246.801 190.772 245.601V244.221C191.652 245.241 192.672 245.601 193.712 245.601C196.352 245.601 198.452 243.401 198.452 239.861C198.452 236.321 196.552 234.261 194.132 234.261C192.892 234.261 191.692 234.721 190.732 235.801L190.592 234.481ZM210.696 234.581H206.536V235.201L208.416 235.401L205.816 243.081L202.996 235.381L204.636 235.201V234.581H198.956V235.201L200.136 235.321L204.616 246.201C204.016 247.681 203.416 248.741 202.556 249.441L202.276 249.121C201.756 248.521 201.256 248.141 200.516 248.141C199.816 248.141 199.096 248.501 198.976 249.261C198.996 250.101 199.996 250.701 201.056 250.701C202.416 250.701 204.036 249.601 205.296 246.261L209.396 235.381L210.696 235.201V234.581Z" fill="#c386ae"/>
<path d="M26.0613 398.965V393.725H33.7013V398.965H26.0613ZM33.4613 393.145H26.2013L23.5813 392.125V401.345H23.9413C24.9613 401.345 26.0613 400.785 26.0613 400.545V399.525H33.7013V401.205H34.1013C34.9213 401.205 36.1613 400.765 36.1813 400.645V394.205C36.6613 394.105 36.9613 393.905 37.1013 393.725L34.6413 391.825L33.4613 393.145ZM32.0813 385.745C33.0613 386.585 34.1013 387.705 34.9613 388.885C30.6013 389.045 26.4213 389.165 23.7413 389.205C26.3013 387.865 29.2013 385.825 30.7413 384.205C31.2013 384.245 31.4613 384.085 31.5413 383.865L28.2813 382.565C27.3413 384.485 24.3613 387.845 22.3013 388.945C22.0613 389.085 21.5013 389.185 21.5013 389.185L22.3013 391.885C22.5213 391.825 22.7213 391.685 22.9013 391.465C28.1013 390.725 32.3813 390.005 35.3213 389.405C35.8013 390.125 36.2013 390.865 36.4413 391.545C39.0013 393.105 40.3813 387.685 32.2613 385.605L32.0813 385.745ZM54.3613 396.545C54.6413 396.545 54.8413 396.445 54.9013 396.225C54.1413 395.565 52.9213 394.645 52.9213 394.645L51.8413 395.985H50.9213V393.565H54.2213C54.5013 393.565 54.7013 393.465 54.7413 393.245C54.0413 392.625 52.9613 391.825 52.9613 391.825L51.9813 392.985H50.8413C51.6613 392.225 52.5013 391.305 53.0613 390.645C53.4813 390.665 53.7213 390.505 53.8013 390.265L51.1613 389.505C50.9613 390.525 50.6013 391.945 50.2613 392.985H45.5013L45.6613 393.565H48.6413V395.985H45.0613L45.2213 396.545H48.6413V400.765H49.0413C50.2213 400.765 50.9013 400.385 50.9213 400.285V396.545H54.3613ZM46.1213 389.745C46.6213 390.445 47.0813 391.525 47.1013 392.505C48.8213 393.985 50.8813 390.645 46.3413 389.625L46.1213 389.745ZM55.1613 385.525H51.0213V383.405C51.5613 383.325 51.7213 383.125 51.7613 382.845L48.6413 382.585V385.525H40.6013L40.7813 386.085H48.6413V388.725H44.8013L42.2413 387.685V401.405H42.6213C43.6213 401.405 44.6413 400.845 44.6413 400.585V389.285H55.2813V398.505C55.2813 398.765 55.2013 398.925 54.8613 398.925C54.3213 398.925 52.2413 398.765 52.2413 398.765V399.045C53.2813 399.205 53.7213 399.485 54.0613 399.825C54.3813 400.185 54.5013 400.705 54.5613 401.445C57.3013 401.185 57.7013 400.285 57.7013 398.745V389.685C58.1013 389.605 58.3813 389.425 58.5013 389.265L56.1813 387.485L55.0813 388.725H51.0213V386.085H58.5213C58.8213 386.085 59.0413 385.985 59.1013 385.765C58.1213 384.945 56.5613 383.765 56.5613 383.765L55.1613 385.525ZM65.7408 394.645H71.2808V393.285H65.7408V394.645ZM88.6446 385.605L89.4646 388.905H90.5846L90.4646 384.765H77.7646L77.6246 388.905H78.7446L79.5846 385.605H82.6846C82.7046 387.625 82.7046 389.685 82.7046 391.705V392.685C82.7046 394.725 82.7046 396.745 82.6846 398.725L80.5446 398.905V399.605H87.6846V398.905L85.5446 398.725C85.5046 396.705 85.5046 394.685 85.5046 392.685V391.705C85.5046 389.645 85.5046 387.605 85.5446 385.605H88.6446ZM96.9399 397.565C96.0199 398.325 95.5199 398.625 94.8599 398.625C93.8999 398.625 93.2599 398.065 93.2599 396.885C93.2599 395.645 93.8599 394.725 95.4399 394.105C95.7799 393.965 96.3399 393.805 96.9399 393.625V397.565ZM101.12 398.225C100.76 398.705 100.52 398.885 100.22 398.885C99.7799 398.885 99.4999 398.585 99.4999 397.685V392.525C99.4999 389.725 98.3999 388.585 95.7799 388.585C92.9999 388.585 91.3399 389.705 91.0799 391.505C91.1999 392.105 91.6199 392.425 92.2799 392.425C92.9599 392.425 93.4999 391.985 93.5799 390.885L93.8599 389.445C94.2199 389.365 94.5599 389.325 94.8999 389.325C96.3999 389.325 96.9399 389.905 96.9399 392.025V393.045C96.1599 393.225 95.3599 393.445 94.7599 393.645C91.6799 394.605 90.7599 395.585 90.7599 397.245C90.7599 398.925 91.9799 399.925 93.6599 399.925C95.1399 399.925 95.9199 399.305 97.0199 398.145C97.2799 399.225 97.9799 399.905 99.1999 399.905C100.26 399.905 100.96 399.525 101.48 398.525L101.12 398.225ZM105.041 386.365C105.901 386.365 106.621 385.745 106.621 384.885C106.621 383.985 105.901 383.385 105.041 383.385C104.181 383.385 103.461 383.985 103.461 384.885C103.461 385.745 104.181 386.365 105.041 386.365ZM106.461 398.825C106.441 397.685 106.421 396.005 106.421 394.905V391.905L106.461 388.785L106.181 388.605L102.121 389.745V390.285L103.741 390.445C103.781 391.445 103.801 392.205 103.801 393.485V394.905C103.801 396.005 103.781 397.665 103.761 398.805L102.301 398.985V399.605H107.801V398.985L106.461 398.825ZM120.175 398.825C120.155 397.685 120.135 396.045 120.135 394.905V392.465C120.135 389.785 118.955 388.585 117.075 388.585C115.775 388.585 114.535 389.145 113.275 390.605L113.135 388.785L112.855 388.605L109.015 389.825V390.325L110.595 390.485C110.655 391.445 110.675 392.165 110.675 393.465V394.905C110.675 396.005 110.655 397.665 110.635 398.805L109.175 398.985V399.605H114.655V398.985L113.355 398.825C113.335 397.685 113.315 396.005 113.315 394.905V391.305C114.295 390.405 115.195 390.005 115.935 390.005C117.015 390.005 117.515 390.605 117.515 392.345V394.905C117.515 396.045 117.495 397.685 117.455 398.805L116.055 398.985V399.605H121.535V398.985L120.175 398.825ZM129.049 397.565C128.129 398.325 127.629 398.625 126.969 398.625C126.009 398.625 125.369 398.065 125.369 396.885C125.369 395.645 125.969 394.725 127.549 394.105C127.889 393.965 128.449 393.805 129.049 393.625V397.565ZM133.229 398.225C132.869 398.705 132.629 398.885 132.329 398.885C131.889 398.885 131.609 398.585 131.609 397.685V392.525C131.609 389.725 130.509 388.585 127.889 388.585C125.109 388.585 123.449 389.705 123.189 391.505C123.309 392.105 123.729 392.425 124.389 392.425C125.069 392.425 125.609 391.985 125.689 390.885L125.969 389.445C126.329 389.365 126.669 389.325 127.009 389.325C128.509 389.325 129.049 389.905 129.049 392.025V393.045C128.269 393.225 127.469 393.445 126.869 393.645C123.789 394.605 122.869 395.585 122.869 397.245C122.869 398.925 124.089 399.925 125.769 399.925C127.249 399.925 128.029 399.305 129.129 398.145C129.389 399.225 130.089 399.905 131.309 399.905C132.369 399.905 133.069 399.525 133.589 398.525L133.229 398.225ZM145.37 398.825C145.35 397.685 145.33 396.045 145.33 394.905V392.465C145.33 389.785 144.15 388.585 142.27 388.585C140.97 388.585 139.73 389.145 138.47 390.605L138.33 388.785L138.05 388.605L134.21 389.825V390.325L135.79 390.485C135.85 391.445 135.87 392.165 135.87 393.465V394.905C135.87 396.005 135.85 397.665 135.83 398.805L134.37 398.985V399.605H139.85V398.985L138.55 398.825C138.53 397.685 138.51 396.005 138.51 394.905V391.305C139.49 390.405 140.39 390.005 141.13 390.005C142.21 390.005 142.71 390.605 142.71 392.345V394.905C142.71 396.045 142.69 397.685 142.65 398.805L141.25 398.985V399.605H146.73V398.985L145.37 398.825ZM150.623 399.925C151.543 399.925 152.263 399.165 152.263 398.285C152.263 397.365 151.543 396.605 150.623 396.605C149.683 396.605 148.963 397.365 148.963 398.285C148.963 399.165 149.683 399.925 150.623 399.925ZM158.218 390.745C159.058 389.985 159.718 389.825 160.358 389.825C162.018 389.825 163.038 391.085 163.038 394.245C163.038 397.505 161.858 398.645 160.218 398.645C159.458 398.645 158.838 398.465 158.218 397.905V390.745ZM157.998 388.805L157.718 388.605L153.918 389.825V390.325L155.538 390.485C155.578 391.445 155.598 392.185 155.598 393.485V399.925C155.598 401.145 155.578 402.585 155.558 404.025L154.038 404.205V404.805H159.938V404.205L158.218 404.005C158.198 402.565 158.178 401.125 158.178 399.925V398.545C159.058 399.565 160.078 399.925 161.118 399.925C163.758 399.925 165.858 397.725 165.858 394.185C165.858 390.645 163.958 388.585 161.538 388.585C160.298 388.585 159.098 389.045 158.138 390.125L157.998 388.805ZM178.102 388.905H173.942V389.525L175.822 389.725L173.222 397.405L170.402 389.705L172.042 389.525V388.905H166.362V389.525L167.542 389.645L172.022 400.525C171.422 402.005 170.822 403.065 169.962 403.765L169.682 403.445C169.162 402.845 168.662 402.465 167.922 402.465C167.222 402.465 166.502 402.825 166.382 403.585C166.402 404.425 167.402 405.025 168.462 405.025C169.822 405.025 171.442 403.925 172.702 400.585L176.802 389.705L178.102 389.525V388.905Z" fill="#c386ae"/>
<path d="M471.442 329.971C478.546 298.507 476.092 255.96 495.854 238.109C539.615 198.456 498.05 134.416 545.065 100.601C545.375 100.317 541.888 93.9364 539.485 90.914C521.919 69.0078 490.196 69.4469 469.969 41.0566C450.414 82.415 399.549 70.2736 380.484 102.952C360.671 137.103 332.022 163.788 311.356 196.596C286.53 235.836 253.593 272.803 240.522 315.737C225.41 365.155 212.984 419.146 245.947 472.052C260.594 495.534 269.119 521.056 296.553 532.965C317.168 541.955 324.324 560.529 327.114 580.472C329.18 595.326 322.515 616.56 347.16 613.745C365.243 611.755 365.036 592.949 363.822 578.328C361.213 546.476 368.291 513.487 389.138 493.674C437.032 447.794 457.595 391.35 471.442 329.971Z" fill="#c386ae"/>
</svg>
