<svg width="29" height="28" viewBox="0 0 29 28" fill="none" xmlns="http://www.w3.org/2000/svg">
    <g clip-path="url(#clip0)">
        <path
            d="M19.076 16.0345L15.154 13.2111V7.45978C15.154 6.8815 14.667 6.41406 14.0646 6.41406C13.4621 6.41406 12.9751 6.8815 12.9751 7.45978V13.734C12.9751 14.0634 13.1363 14.374 13.4109 14.5706L17.7686 17.7077C17.9647 17.8489 18.1935 17.9169 18.4212 17.9169C18.7535 17.9169 19.0803 17.7736 19.2939 17.4975C19.6556 17.0363 19.5576 16.3806 19.076 16.0345Z"
            fill="#C2A53A" />
        <path
            d="M14.0646 0.150391C6.30893 0.150391 0 6.20604 0 13.6504C0 21.0947 6.30893 27.1504 14.0646 27.1504C21.8204 27.1504 28.1293 21.0947 28.1293 13.6504C28.1293 6.20604 21.8204 0.150391 14.0646 0.150391ZM14.0646 25.059C7.51167 25.059 2.17887 19.9403 2.17887 13.6504C2.17887 7.3605 7.51167 2.24178 14.0646 2.24178C20.6187 2.24178 25.9504 7.3605 25.9504 13.6504C25.9504 19.9403 20.6176 25.059 14.0646 25.059Z"
            fill="#C2A53A" />
    </g>
    <defs>
        <clipPath id="clip0">
            <rect width="28.1293" height="27" fill="white" transform="translate(0 0.150391)" />
        </clipPath>
    </defs>
</svg>