<svg width="93" height="93" viewBox="0 0 93 93" fill="none" xmlns="http://www.w3.org/2000/svg">
<g clip-path="url(#clip0)">
<path d="M7.75331 77.5013C9.95846 77.4992 12.0593 76.5605 13.5322 74.9194C13.7799 74.6398 14.0097 74.3454 14.2531 74.0609C15.6189 75.4295 17.0741 76.7059 18.6095 77.8816C15.6934 79.9115 13.9544 83.2391 13.953 86.7923V88.3447C13.9537 90.9131 16.034 92.9962 18.6024 93.0005H63.5511C66.1181 92.9976 68.1977 90.9181 68.2005 88.3511V80.0229C68.3864 79.9023 68.5702 79.7781 68.7561 79.6553C68.9178 79.8299 69.0555 80.02 69.2364 80.1818C72.427 83.0291 77.3198 82.7573 80.1756 79.5745C88.3058 70.4708 92.8623 58.7284 92.9999 46.5228C92.8694 34.0667 88.01 22.1256 79.4065 13.117C70.82 4.41562 59.2281 0.00390625 44.9514 0.00390625C21.0623 0.0393816 1.67921 19.3493 1.55434 43.2385C1.25564 44.5539 1.3124 45.9247 1.71895 47.211C1.72037 47.228 1.71185 47.2429 1.71327 47.2599C2.12195 51.8327 3.25361 56.3118 5.0664 60.5299C4.13553 61.9538 3.10249 63.3083 1.97579 64.5826C-0.0633358 66.8608 -0.572762 70.1245 0.675261 72.9157C1.92329 75.7062 4.69533 77.5027 7.75331 77.5013ZM17.0528 88.3447V86.7923C17.0528 82.509 20.5195 79.0345 24.8021 79.0246H26.3523C29.223 79.0267 31.856 80.6196 33.1892 83.1617C33.1551 83.2618 33.1076 83.3696 33.0785 83.4661C32.728 84.5375 32.5506 85.6585 32.552 86.7859V88.3511C32.557 88.8804 32.6542 89.4047 32.8379 89.9014H18.6024C17.7453 89.8992 17.0514 89.2025 17.0528 88.3447ZM63.5511 89.9006H37.2021C36.3465 89.8999 35.6526 89.2067 35.6519 88.3511V86.7852C35.6519 85.9721 35.7817 85.164 36.0364 84.3913C36.1102 84.1472 36.1975 83.9067 36.2968 83.6719C37.532 80.8487 40.3197 79.0232 43.4018 79.0203H44.9514C48.3712 79.0296 51.4561 81.0772 52.7921 84.2253C52.8042 84.2586 52.8304 84.2799 52.8439 84.3111C52.8404 84.3835 52.8425 84.4559 52.8496 84.5275C53.0107 85.2314 53.6364 85.7316 54.3587 85.7316C54.4751 85.7323 54.5914 85.7188 54.7057 85.6926C58.3235 84.8568 61.8178 83.5548 65.1007 81.8201V88.3511C65.1 89.2067 64.4068 89.8999 63.5511 89.9006ZM44.9514 3.10374C58.3682 3.10374 69.2179 7.20541 77.1992 15.2938C85.1677 23.7469 89.6965 34.8677 89.9001 46.4823C89.7724 57.938 85.4976 68.9588 77.8668 77.5041C76.1172 79.3446 73.2373 79.5028 71.2961 77.866C69.3918 76.1475 69.2307 73.2144 70.9357 71.2981C76.6217 64.938 79.9514 56.8177 80.3657 48.2965C80.4062 47.4416 79.7463 46.7158 78.8914 46.6746C78.0449 46.6583 77.3326 47.3054 77.2687 48.1497C76.8898 55.9606 73.8368 63.4048 68.6234 69.2327C66.7446 71.3584 66.1777 74.3397 67.1455 77.0061C66.7113 77.2955 66.2799 77.5964 65.8457 77.8667C62.567 79.849 59.0195 81.3482 55.3137 82.3188C53.3285 78.4158 49.3304 75.9468 44.9514 75.9205H43.4018C40.0707 75.9283 36.9283 77.4679 34.8813 80.0952C32.8316 77.4672 29.6856 75.929 26.3523 75.9248H24.8021C23.7846 75.9269 22.7722 76.0731 21.7952 76.359C13.7025 70.7035 7.98106 62.2604 5.72766 52.6479C9.70658 55.1284 14.9236 54.1436 17.724 50.3825C20.1697 47.1173 20.2016 37.7036 20.1498 34.8095C21.9087 33.3884 24.0911 32.5944 26.3523 32.5533C28.815 32.62 31.1742 33.5586 33.0089 35.2026C33.6156 35.8071 34.5968 35.8057 35.2013 35.199C35.8058 34.5931 35.8044 33.6119 35.1978 33.0074C32.7847 30.7781 29.6367 29.5137 26.3523 29.4534C23.2284 29.5038 20.2222 30.6497 17.8574 32.6916C15.9921 33.1883 8.86794 35.204 5.04725 37.8441C7.84696 17.9459 24.8574 3.13709 44.9514 3.10374ZM17.0635 36.132C17.0571 40.6182 16.6044 46.708 15.2436 48.5236C13.2655 51.1644 9.52069 51.7015 6.8799 49.7226C4.23912 47.7438 3.70202 43.9991 5.68084 41.3583H5.68226C7.04309 39.5419 12.7596 37.3971 17.0635 36.132ZM4.29162 66.6444C5.11962 65.7142 5.88305 64.7443 6.60745 63.7553C8.13644 66.6302 9.98613 69.3228 12.121 71.7805C11.8202 72.1395 11.5286 72.5064 11.2193 72.8547C9.46961 74.6945 6.58972 74.8534 4.64921 73.2166C2.74419 71.496 2.58384 68.5608 4.29162 66.6444Z" fill="#e099e1"/>
<path d="M21.4272 22.5934C23.2024 23.134 25.0855 23.2149 26.9004 22.8289C28.7515 22.4621 30.4586 21.571 31.8173 20.2619C32.4856 19.6496 33.0731 18.955 33.5669 18.1951C34.0224 17.4424 34.4119 16.652 34.7319 15.8332C34.8355 15.5884 34.7582 15.3046 34.5446 15.1464C34.3318 14.9875 34.038 14.9953 33.833 15.1648L33.7528 15.2315C33.1086 15.7637 32.592 16.3625 32.0017 16.8662C31.4327 17.3629 30.831 17.8205 30.1996 18.2349C29.0204 19.0501 27.6872 19.6163 26.2817 19.9001C23.2649 20.3442 20.187 20.1406 17.2546 19.3034L17.2149 19.2949C17.0439 19.2573 16.8687 19.3367 16.7849 19.49C16.7005 19.644 16.7282 19.8348 16.8516 19.9583C18.1373 21.1992 19.7088 22.1045 21.4272 22.5934Z" fill="#e099e1"/>
<path d="M44.0781 18.1945C44.5712 18.9544 45.1593 19.649 45.827 20.2613C47.1864 21.5703 48.8928 22.4615 50.7446 22.8283C54.3617 23.5662 58.1114 22.4955 60.7933 19.9583C60.8884 19.8618 60.9282 19.7242 60.8991 19.5922C60.8501 19.3801 60.6394 19.2467 60.4272 19.2957L60.3903 19.3035C57.4572 20.1407 54.3794 20.3436 51.3619 19.8994C49.9563 19.6156 48.6232 19.0487 47.444 18.2335C46.8125 17.8192 46.2108 17.3622 45.6418 16.8656C45.0515 16.3611 44.535 15.7623 43.8907 15.2302L43.8099 15.1649C43.6055 14.996 43.3125 14.9889 43.0996 15.1472C42.8868 15.3054 42.8095 15.5885 42.9123 15.8333C43.2323 16.652 43.6226 17.4417 44.0781 18.1945Z" fill="#e099e1"/>
<path d="M44.498 35.1986C48.0633 31.8228 53.5932 31.6575 57.3529 34.8155C57.2947 37.8529 57.3493 46.3989 59.6573 49.4789C61.026 51.3151 63.0722 52.5283 65.3405 52.8469C65.752 52.9058 66.1678 52.9356 66.5836 52.9356C69.8487 52.9278 72.8301 51.0781 74.2874 48.1564C75.7447 45.2346 75.4283 41.7403 73.47 39.1272C71.0485 35.8946 62.1484 33.3539 59.6467 32.6919C54.6702 28.2554 47.1182 28.3923 42.3063 33.0069C41.7167 33.615 41.7245 34.5835 42.3234 35.1823C42.9215 35.7811 43.8907 35.7882 44.498 35.1986ZM70.9896 40.9861H70.991C72.8059 43.431 72.3029 46.8828 69.8657 48.7083C67.4293 50.5339 63.9754 50.0479 62.1385 47.6193C60.882 45.9434 60.4548 40.3291 60.4428 36.133C64.4664 37.3229 69.7331 39.3067 70.9896 40.9861Z" fill="#e099e1"/>
<path d="M26.3535 55.8019V57.3841C26.3585 61.6625 29.8251 65.1291 34.1035 65.1341H43.403C47.6806 65.1291 51.1473 61.6625 51.1522 57.3841V55.8019C51.1458 49.8123 46.2921 44.9592 40.3031 44.9521H37.2033C31.2136 44.9592 26.3606 49.8123 26.3535 55.8019ZM43.403 62.0342H40.3031V60.4826C40.3017 57.9113 42.3813 55.8246 44.9525 55.8175H48.0524V57.3841C48.0495 59.9511 45.97 62.0314 43.403 62.0342ZM37.2033 48.052H40.3031C43.3874 48.057 46.175 49.8889 47.4046 52.717H44.9525C40.6707 52.7262 37.204 56.2 37.2033 60.4826V62.0342H34.1035C31.5365 62.0314 29.4562 59.9511 29.4534 57.3841V55.8019C29.4583 51.5236 32.925 48.057 37.2033 48.052Z" fill="#e099e1"/>
</g>
<defs>
<clipPath id="clip0">
<rect width="93" height="93" fill="white"/>
</clipPath>
</defs>
</svg>
