<svg width="124" height="124" viewBox="0 0 124 124" fill="none" xmlns="http://www.w3.org/2000/svg">
<g clip-path="url(#clip0_4498_20924)">
<path d="M61.9976 124C27.8116 124 0 96.1884 0 61.9976C0 27.8069 27.8116 0 61.9976 0C96.1837 0 123.995 27.8116 123.995 61.9976C123.995 96.1837 96.1884 124 61.9976 124ZM61.9976 3.77746C29.8939 3.77746 3.77747 29.8939 3.77747 61.9976C3.77747 94.1014 29.8939 120.218 61.9976 120.218C94.1014 120.218 120.218 94.1014 120.218 61.9976C120.218 29.8939 94.1014 3.77746 61.9976 3.77746Z" fill="#F0EBF5"/>
<path d="M93.1712 39.3467C92.3827 39.9322 92.2221 41.0465 92.8076 41.8351C97.265 47.8129 99.6212 54.924 99.6212 62.3986C99.6212 81.3898 84.1714 96.8397 65.1802 96.8397C64.1981 96.8397 63.4048 97.6377 63.4048 98.6151C63.4048 99.5972 64.2028 100.39 65.1802 100.39C86.131 100.39 103.177 83.3447 103.177 62.3939C103.177 54.1449 100.58 46.2972 95.6596 39.7055C95.0694 38.9217 93.9598 38.7564 93.1712 39.3467Z" fill="#F0EBF5"/>
<path d="M65.1802 27.9579C71.7294 27.9579 78.1038 29.8041 83.6095 33.2983C83.907 33.4871 84.2328 33.5769 84.5586 33.5769C85.1488 33.5769 85.7249 33.2841 86.0601 32.7505C86.5843 31.9195 86.3387 30.824 85.5124 30.2952C79.4401 26.4422 72.4093 24.4023 65.1802 24.4023C64.1981 24.4023 63.4048 25.2003 63.4048 26.1778C63.4048 27.1552 64.1981 27.9579 65.1802 27.9579Z" fill="#F0EBF5"/>
<path d="M74.8409 61.4727C74.8409 66.1567 71.0304 69.9625 66.3511 69.9625C65.369 69.9625 64.5757 70.7605 64.5757 71.7379C64.5757 72.7153 65.3737 73.5133 66.3511 73.5133C72.9947 73.5133 78.3965 68.1116 78.3965 61.4679C78.3965 58.0635 76.9752 54.9896 74.6946 52.7939L72.1826 55.306C73.8163 56.8594 74.8409 59.0504 74.8409 61.4727Z" fill="#7568F6"/>
<path d="M66.3511 49.4277C65.369 49.4277 64.5757 50.2257 64.5757 51.2031C64.5757 52.1853 65.3737 52.9785 66.3511 52.9785C67.2955 52.9785 68.1973 53.1344 69.0473 53.4177L71.7576 50.7074C70.1286 49.8952 68.2918 49.4277 66.3511 49.4277Z" fill="#7568F6"/>
<path d="M105.495 19.2413C104.801 18.5472 103.677 18.5472 102.983 19.2413L79.7375 42.4869C75.6531 39.4932 70.6196 37.7178 65.1801 37.7178C64.1979 37.7178 63.4047 38.5158 63.4047 39.4932C63.4047 40.4754 64.2027 41.2686 65.1801 41.2686C69.6375 41.2686 73.7785 42.6616 77.1924 45.0272L41.4104 80.8092L38.6764 78.08C38.3412 77.7495 37.8926 77.5606 37.4204 77.5606H22.2161V47.2323H37.4204C37.8926 47.2323 38.3412 47.0434 38.6764 46.7129L54.9479 30.4651V59.136C54.9479 60.1182 55.7459 60.9114 56.7233 60.9114C57.7007 60.9114 58.4987 60.1135 58.4987 59.136V26.1777C58.4987 25.4599 58.0643 24.813 57.4032 24.5345C56.7374 24.2606 55.9772 24.4117 55.4673 24.9169L36.6886 43.6815H20.4407C19.4586 43.6815 18.6653 44.4795 18.6653 45.4569V79.336C18.6653 80.3182 19.4633 81.1114 20.4407 81.1114H36.6886L38.8984 83.3213L19.18 103.04C18.4859 103.734 18.4859 104.858 19.18 105.552C19.5247 105.896 19.9827 106.071 20.436 106.071C20.8893 106.071 21.3473 105.896 21.692 105.552L41.4104 85.8333L55.472 99.8713C55.812 100.211 56.2653 100.391 56.728 100.391C56.9547 100.391 57.1907 100.348 57.4079 100.254C58.0737 99.9799 58.5034 99.3283 58.5034 98.6105V76.6115C58.5034 75.6294 57.7054 74.8361 56.728 74.8361C55.7459 74.8361 54.9526 75.6341 54.9526 76.6115V94.3231L43.9271 83.3165L79.9405 47.3031C83.8644 51.142 86.3008 56.4871 86.3008 62.3941C86.3008 74.0429 76.8241 83.5196 65.1754 83.5196C64.1932 83.5196 63.4 84.3176 63.4 85.295C63.4 86.2771 64.1979 87.0704 65.1754 87.0704C78.7837 87.0704 89.8564 75.9977 89.8564 62.3894C89.8564 55.5002 87.0185 49.2674 82.4525 44.7864L105.49 21.7486C106.189 21.0592 106.189 19.9354 105.495 19.2413Z" fill="#F0EBF5"/>
</g>
<defs>
<clipPath id="clip0_4498_20924">
<rect width="124" height="124" fill="white"/>
</clipPath>
</defs>
</svg>
