<svg width="640" height="200" viewBox="0 0 640 200" fill="none" xmlns="http://www.w3.org/2000/svg">
<path d="M43.8659 46.32V76.312C48.8953 76.312 52.3299 75.2387 54.1699 73.092C56.0099 70.884 56.9299 67.0507 56.9299 61.592C56.9299 56.1333 56.0099 52.2387 54.1699 49.908C52.3299 47.516 48.8953 46.32 43.8659 46.32ZM48.4659 94.16V96H25.4659V94.16H30.0659V46.32H25.4659V44.48H43.7739C61.8059 43.6213 70.8219 49.4173 70.8219 61.868C70.8219 67.388 68.5526 71.5893 64.0139 74.472C59.4753 77.3547 52.7593 78.5813 43.8659 78.152V94.16H48.4659ZM96.8098 106.212C95.1538 109.769 93.4058 112.315 91.5658 113.848C89.7258 115.443 87.2724 116.24 84.2058 116.24C81.1391 116.24 78.7471 115.565 77.0298 114.216C75.3124 112.928 74.4538 111.18 74.4538 108.972C74.4538 106.825 75.0671 105.108 76.2938 103.82C77.5818 102.532 79.1151 101.888 80.8938 101.888C82.6724 101.888 84.1751 102.225 85.4018 102.9C86.6284 103.575 87.4871 104.311 87.9778 105.108C89.3271 107.255 90.5844 108.328 91.7498 108.328C92.9764 108.328 94.0498 107.285 94.9698 105.2L98.8338 96.092L77.3058 55.52H73.6258V53.68H98.3738V55.52H93.7738L106.102 79.808L116.682 55.52H109.322V53.68H124.41V55.52H118.89L96.8098 106.212ZM173.586 64.996H171.746C171.746 60.0893 170.182 55.5507 167.054 51.38C163.926 47.2093 159.449 45.124 153.622 45.124C150.371 45.124 147.673 47.0253 145.526 50.828C143.441 54.6307 142.398 61.132 142.398 70.332C142.398 79.532 143.441 86.0333 145.526 89.836C147.673 93.6387 150.985 95.54 155.462 95.54C160.001 95.54 163.803 94.1293 166.87 91.308C169.998 88.4867 171.93 84.5 172.666 79.348H174.506C173.647 85.42 171.501 89.9587 168.066 92.964C164.693 95.908 160.645 97.38 155.922 97.38C146.783 97.38 139.761 95.2027 134.854 90.848C130.009 86.432 127.586 79.5627 127.586 70.24C127.586 60.856 129.947 54.0173 134.67 49.724C139.454 45.4307 145.771 43.284 153.622 43.284C157.854 43.284 161.963 44.4187 165.95 46.688C167.238 47.4853 168.281 47.884 169.078 47.884C169.937 47.884 170.611 47.516 171.102 46.78C171.593 45.9827 171.838 45.216 171.838 44.48H173.586V64.996ZM195.626 90.48C196.976 93.5467 199.306 95.08 202.618 95.08C205.93 95.08 208.292 93.516 209.702 90.388C211.113 87.26 211.818 82.108 211.818 74.932C211.818 67.6947 211.113 62.512 209.702 59.384C208.292 56.1947 205.93 54.6 202.618 54.6C199.306 54.6 196.976 56.1947 195.626 59.384C194.277 62.512 193.602 67.6947 193.602 74.932C193.602 82.1693 194.277 87.352 195.626 90.48ZM202.434 96.92C196.608 96.92 191.333 95.0187 186.61 91.216C181.888 87.4133 179.526 82.016 179.526 75.024C179.526 71.2827 180.201 67.94 181.55 64.996C182.961 62.052 184.801 59.7213 187.07 58.004C189.401 56.2867 191.885 54.9987 194.522 54.14C197.16 53.22 199.858 52.76 202.618 52.76C205.378 52.76 208.077 53.22 210.714 54.14C213.413 54.9987 215.897 56.2867 218.166 58.004C220.497 59.7213 222.368 62.052 223.778 64.996C225.189 67.94 225.894 71.252 225.894 74.932C225.894 78.612 225.189 81.8933 223.778 84.776C222.368 87.6587 220.497 89.9587 218.166 91.676C213.505 95.172 208.261 96.92 202.434 96.92ZM280.676 94.16H285.276V96H262.276V94.16H266.876V68.4C266.876 64.0453 266.232 60.948 264.944 59.108C263.656 57.268 261.724 56.348 259.148 56.348C255.652 56.348 252.861 58.188 250.776 61.868V94.16H255.376V96H232.376V94.16H236.976V55.52H232.376V53.68H250.776V58.464C251.941 56.8693 253.751 55.52 256.204 54.416C258.719 53.2507 261.417 52.668 264.3 52.668C275.217 52.668 280.676 58.5867 280.676 70.424V94.16ZM356.427 60.12C356.427 54.6613 355.507 51.012 353.667 49.172C351.888 47.2707 348.515 46.32 343.547 46.32H340.787V94.16H347.227V96H320.547V94.16H326.987V46.32H324.227C319.32 46.32 315.947 47.2707 314.107 49.172C312.328 51.012 311.439 54.6613 311.439 60.12H309.599V44.48H358.267V60.12H356.427ZM408.438 94.16C407.824 94.7733 406.659 95.3253 404.942 95.816C403.224 96.2453 401.231 96.46 398.962 96.46C393.932 96.46 390.774 94.9573 389.486 91.952C386.419 95.1413 381.727 96.736 375.41 96.736C372.036 96.736 369.246 95.9693 367.038 94.436C364.891 92.8413 363.818 90.5107 363.818 87.444C363.818 83.3347 365.412 80.176 368.602 77.968C371.791 75.6987 377.372 74.104 385.346 73.184L389.026 72.724V68.216C389.026 62.88 388.627 59.292 387.83 57.452C387.032 55.612 385.438 54.692 383.046 54.692C380.715 54.692 379.212 55.0293 378.538 55.704C377.863 56.3173 377.618 57.0533 377.801 57.912C377.986 58.7093 378.292 59.7827 378.722 61.132C379.151 62.4813 379.366 63.5547 379.366 64.352C379.366 66.2533 378.691 67.8787 377.342 69.228C376.054 70.516 374.459 71.16 372.558 71.16C370.718 71.16 369.123 70.516 367.774 69.228C366.424 67.8787 365.75 66.2533 365.75 64.352C365.75 61.224 367.344 58.556 370.534 56.348C373.784 54.0787 378.599 52.944 384.978 52.944C391.418 52.944 395.987 54.2013 398.686 56.716C401.446 59.2307 402.826 63.6773 402.826 70.056V86.616C402.826 89.8667 403.224 91.9213 404.022 92.78C404.819 93.5773 406.291 93.7307 408.438 93.24V94.16ZM376.606 85.604C376.912 87.9347 377.771 89.744 379.182 91.032C380.592 92.2587 382.218 92.872 384.058 92.872C385.959 92.872 387.615 91.952 389.026 90.112V74.472L385.714 74.932C382.892 75.3 380.592 76.3733 378.814 78.152C377.096 79.9307 376.36 82.4147 376.606 85.604ZM432.35 94.16H436.95V96H413.95V94.16H418.55V55.52H414.87V53.68H432.35V94.16ZM433.178 41.536C433.178 43.744 432.381 45.6453 430.786 47.24C429.253 48.7733 427.352 49.54 425.082 49.54C422.874 49.54 420.973 48.7733 419.378 47.24C417.784 45.6453 416.986 43.744 416.986 41.536C416.986 39.2667 417.784 37.3347 419.378 35.74C420.973 34.1453 422.874 33.348 425.082 33.348C427.352 33.348 429.253 34.1453 430.786 35.74C432.381 37.3347 433.178 39.2667 433.178 41.536ZM440.659 55.52V53.68H465.499V55.52H460.623L470.559 77.784L476.539 62.788L473.503 55.52H470.099V53.68H493.099V55.52H489.051L498.987 77.784L507.543 55.52H500.183V53.68H515.179V55.52H509.659L494.111 96H492.179L477.643 65.548L465.591 96H463.659L444.983 55.52H440.659ZM564.406 94.16C563.793 94.7733 562.628 95.3253 560.91 95.816C559.193 96.2453 557.2 96.46 554.93 96.46C549.901 96.46 546.742 94.9573 545.454 91.952C542.388 95.1413 537.696 96.736 531.378 96.736C528.005 96.736 525.214 95.9693 523.006 94.436C520.86 92.8413 519.786 90.5107 519.786 87.444C519.786 83.3347 521.381 80.176 524.57 77.968C527.76 75.6987 533.341 74.104 541.314 73.184L544.994 72.724V68.216C544.994 62.88 544.596 59.292 543.798 57.452C543.001 55.612 541.406 54.692 539.014 54.692C536.684 54.692 535.181 55.0293 534.506 55.704C533.832 56.3173 533.586 57.0533 533.77 57.912C533.954 58.7093 534.261 59.7827 534.69 61.132C535.12 62.4813 535.334 63.5547 535.334 64.352C535.334 66.2533 534.66 67.8787 533.31 69.228C532.022 70.516 530.428 71.16 528.526 71.16C526.686 71.16 525.092 70.516 523.742 69.228C522.393 67.8787 521.718 66.2533 521.718 64.352C521.718 61.224 523.313 58.556 526.502 56.348C529.753 54.0787 534.568 52.944 540.946 52.944C547.386 52.944 551.956 54.2013 554.654 56.716C557.414 59.2307 558.794 63.6773 558.794 70.056V86.616C558.794 89.8667 559.193 91.9213 559.99 92.78C560.788 93.5773 562.26 93.7307 564.406 93.24V94.16ZM532.574 85.604C532.881 87.9347 533.74 89.744 535.15 91.032C536.561 92.2587 538.186 92.872 540.026 92.872C541.928 92.872 543.584 91.952 544.994 90.112V74.472L541.682 74.932C538.861 75.3 536.561 76.3733 534.782 78.152C533.065 79.9307 532.329 82.4147 532.574 85.604ZM618.219 94.16H622.819V96H599.819V94.16H604.419V68.4C604.419 64.0453 603.775 60.948 602.487 59.108C601.199 57.268 599.267 56.348 596.691 56.348C593.195 56.348 590.404 58.188 588.319 61.868V94.16H592.919V96H569.919V94.16H574.519V55.52H569.919V53.68H588.319V58.464C589.484 56.8693 591.294 55.52 593.747 54.416C596.262 53.2507 598.96 52.668 601.843 52.668C612.76 52.668 618.219 58.5867 618.219 70.424V94.16Z" fill="#74448A"/>
<g filter="url(#filter0_d_84_153)">
<path d="M40.8659 42.32V72.312C45.8953 72.312 49.3299 71.2387 51.1699 69.092C53.0099 66.884 53.9299 63.0507 53.9299 57.592C53.9299 52.1333 53.0099 48.2387 51.1699 45.908C49.3299 43.516 45.8953 42.32 40.8659 42.32ZM45.4659 90.16V92H22.4659V90.16H27.0659V42.32H22.4659V40.48H40.7739C58.8059 39.6213 67.8219 45.4173 67.8219 57.868C67.8219 63.388 65.5526 67.5893 61.0139 70.472C56.4753 73.3547 49.7593 74.5813 40.8659 74.152V90.16H45.4659ZM93.8098 102.212C92.1538 105.769 90.4058 108.315 88.5658 109.848C86.7258 111.443 84.2724 112.24 81.2058 112.24C78.1391 112.24 75.7471 111.565 74.0298 110.216C72.3124 108.928 71.4538 107.18 71.4538 104.972C71.4538 102.825 72.0671 101.108 73.2938 99.82C74.5818 98.532 76.1151 97.888 77.8938 97.888C79.6724 97.888 81.1751 98.2253 82.4018 98.9C83.6284 99.5747 84.4871 100.311 84.9778 101.108C86.3271 103.255 87.5844 104.328 88.7498 104.328C89.9764 104.328 91.0498 103.285 91.9698 101.2L95.8338 92.092L74.3058 51.52H70.6258V49.68H95.3738V51.52H90.7738L103.102 75.808L113.682 51.52H106.322V49.68H121.41V51.52H115.89L93.8098 102.212ZM170.586 60.996H168.746C168.746 56.0893 167.182 51.5507 164.054 47.38C160.926 43.2093 156.449 41.124 150.622 41.124C147.371 41.124 144.673 43.0253 142.526 46.828C140.441 50.6307 139.398 57.132 139.398 66.332C139.398 75.532 140.441 82.0333 142.526 85.836C144.673 89.6387 147.985 91.54 152.462 91.54C157.001 91.54 160.803 90.1293 163.87 87.308C166.998 84.4867 168.93 80.5 169.666 75.348H171.506C170.647 81.42 168.501 85.9587 165.066 88.964C161.693 91.908 157.645 93.38 152.922 93.38C143.783 93.38 136.761 91.2027 131.854 86.848C127.009 82.432 124.586 75.5627 124.586 66.24C124.586 56.856 126.947 50.0173 131.67 45.724C136.454 41.4307 142.771 39.284 150.622 39.284C154.854 39.284 158.963 40.4187 162.95 42.688C164.238 43.4853 165.281 43.884 166.078 43.884C166.937 43.884 167.611 43.516 168.102 42.78C168.593 41.9827 168.838 41.216 168.838 40.48H170.586V60.996ZM192.626 86.48C193.976 89.5467 196.306 91.08 199.618 91.08C202.93 91.08 205.292 89.516 206.702 86.388C208.113 83.26 208.818 78.108 208.818 70.932C208.818 63.6947 208.113 58.512 206.702 55.384C205.292 52.1947 202.93 50.6 199.618 50.6C196.306 50.6 193.976 52.1947 192.626 55.384C191.277 58.512 190.602 63.6947 190.602 70.932C190.602 78.1693 191.277 83.352 192.626 86.48ZM199.434 92.92C193.608 92.92 188.333 91.0187 183.61 87.216C178.888 83.4133 176.526 78.016 176.526 71.024C176.526 67.2827 177.201 63.94 178.55 60.996C179.961 58.052 181.801 55.7213 184.07 54.004C186.401 52.2867 188.885 50.9987 191.522 50.14C194.16 49.22 196.858 48.76 199.618 48.76C202.378 48.76 205.077 49.22 207.714 50.14C210.413 50.9987 212.897 52.2867 215.166 54.004C217.497 55.7213 219.368 58.052 220.778 60.996C222.189 63.94 222.894 67.252 222.894 70.932C222.894 74.612 222.189 77.8933 220.778 80.776C219.368 83.6587 217.497 85.9587 215.166 87.676C210.505 91.172 205.261 92.92 199.434 92.92ZM277.676 90.16H282.276V92H259.276V90.16H263.876V64.4C263.876 60.0453 263.232 56.948 261.944 55.108C260.656 53.268 258.724 52.348 256.148 52.348C252.652 52.348 249.861 54.188 247.776 57.868V90.16H252.376V92H229.376V90.16H233.976V51.52H229.376V49.68H247.776V54.464C248.941 52.8693 250.751 51.52 253.204 50.416C255.719 49.2507 258.417 48.668 261.3 48.668C272.217 48.668 277.676 54.5867 277.676 66.424V90.16ZM353.427 56.12C353.427 50.6613 352.507 47.012 350.667 45.172C348.888 43.2707 345.515 42.32 340.547 42.32H337.787V90.16H344.227V92H317.547V90.16H323.987V42.32H321.227C316.32 42.32 312.947 43.2707 311.107 45.172C309.328 47.012 308.439 50.6613 308.439 56.12H306.599V40.48H355.267V56.12H353.427ZM405.438 90.16C404.824 90.7733 403.659 91.3253 401.942 91.816C400.224 92.2453 398.231 92.46 395.962 92.46C390.932 92.46 387.774 90.9573 386.486 87.952C383.419 91.1413 378.727 92.736 372.41 92.736C369.036 92.736 366.246 91.9693 364.038 90.436C361.891 88.8413 360.818 86.5107 360.818 83.444C360.818 79.3347 362.412 76.176 365.602 73.968C368.791 71.6987 374.372 70.104 382.346 69.184L386.026 68.724V64.216C386.026 58.88 385.627 55.292 384.83 53.452C384.032 51.612 382.438 50.692 380.046 50.692C377.715 50.692 376.212 51.0293 375.538 51.704C374.863 52.3173 374.618 53.0533 374.801 53.912C374.986 54.7093 375.292 55.7827 375.722 57.132C376.151 58.4813 376.366 59.5547 376.366 60.352C376.366 62.2533 375.691 63.8787 374.342 65.228C373.054 66.516 371.459 67.16 369.558 67.16C367.718 67.16 366.123 66.516 364.774 65.228C363.424 63.8787 362.75 62.2533 362.75 60.352C362.75 57.224 364.344 54.556 367.534 52.348C370.784 50.0787 375.599 48.944 381.978 48.944C388.418 48.944 392.987 50.2013 395.686 52.716C398.446 55.2307 399.826 59.6773 399.826 66.056V82.616C399.826 85.8667 400.224 87.9213 401.022 88.78C401.819 89.5773 403.291 89.7307 405.438 89.24V90.16ZM373.606 81.604C373.912 83.9347 374.771 85.744 376.182 87.032C377.592 88.2587 379.218 88.872 381.058 88.872C382.959 88.872 384.615 87.952 386.026 86.112V70.472L382.714 70.932C379.892 71.3 377.592 72.3733 375.814 74.152C374.096 75.9307 373.36 78.4147 373.606 81.604ZM429.35 90.16H433.95V92H410.95V90.16H415.55V51.52H411.87V49.68H429.35V90.16ZM430.178 37.536C430.178 39.744 429.381 41.6453 427.786 43.24C426.253 44.7733 424.352 45.54 422.082 45.54C419.874 45.54 417.973 44.7733 416.378 43.24C414.784 41.6453 413.986 39.744 413.986 37.536C413.986 35.2667 414.784 33.3347 416.378 31.74C417.973 30.1453 419.874 29.348 422.082 29.348C424.352 29.348 426.253 30.1453 427.786 31.74C429.381 33.3347 430.178 35.2667 430.178 37.536ZM437.659 51.52V49.68H462.499V51.52H457.623L467.559 73.784L473.539 58.788L470.503 51.52H467.099V49.68H490.099V51.52H486.051L495.987 73.784L504.543 51.52H497.183V49.68H512.179V51.52H506.659L491.111 92H489.179L474.643 61.548L462.591 92H460.659L441.983 51.52H437.659ZM561.406 90.16C560.793 90.7733 559.628 91.3253 557.91 91.816C556.193 92.2453 554.2 92.46 551.93 92.46C546.901 92.46 543.742 90.9573 542.454 87.952C539.388 91.1413 534.696 92.736 528.378 92.736C525.005 92.736 522.214 91.9693 520.006 90.436C517.86 88.8413 516.786 86.5107 516.786 83.444C516.786 79.3347 518.381 76.176 521.57 73.968C524.76 71.6987 530.341 70.104 538.314 69.184L541.994 68.724V64.216C541.994 58.88 541.596 55.292 540.798 53.452C540.001 51.612 538.406 50.692 536.014 50.692C533.684 50.692 532.181 51.0293 531.506 51.704C530.832 52.3173 530.586 53.0533 530.77 53.912C530.954 54.7093 531.261 55.7827 531.69 57.132C532.12 58.4813 532.334 59.5547 532.334 60.352C532.334 62.2533 531.66 63.8787 530.31 65.228C529.022 66.516 527.428 67.16 525.526 67.16C523.686 67.16 522.092 66.516 520.742 65.228C519.393 63.8787 518.718 62.2533 518.718 60.352C518.718 57.224 520.313 54.556 523.502 52.348C526.753 50.0787 531.568 48.944 537.946 48.944C544.386 48.944 548.956 50.2013 551.654 52.716C554.414 55.2307 555.794 59.6773 555.794 66.056V82.616C555.794 85.8667 556.193 87.9213 556.99 88.78C557.788 89.5773 559.26 89.7307 561.406 89.24V90.16ZM529.574 81.604C529.881 83.9347 530.74 85.744 532.15 87.032C533.561 88.2587 535.186 88.872 537.026 88.872C538.928 88.872 540.584 87.952 541.994 86.112V70.472L538.682 70.932C535.861 71.3 533.561 72.3733 531.782 74.152C530.065 75.9307 529.329 78.4147 529.574 81.604ZM615.219 90.16H619.819V92H596.819V90.16H601.419V64.4C601.419 60.0453 600.775 56.948 599.487 55.108C598.199 53.268 596.267 52.348 593.691 52.348C590.195 52.348 587.404 54.188 585.319 57.868V90.16H589.919V92H566.919V90.16H571.519V51.52H566.919V49.68H585.319V54.464C586.484 52.8693 588.294 51.52 590.747 50.416C593.262 49.2507 595.96 48.668 598.843 48.668C609.76 48.668 615.219 54.5867 615.219 66.424V90.16Z" fill="white"/>
</g>
<g filter="url(#filter1_d_84_153)">
<path d="M36.84 142.76C36.84 139.347 36.3733 136.693 35.44 134.8C34.5333 132.88 33.2667 131.92 31.64 131.92C30.04 131.92 28.7733 132.88 27.84 134.8C26.9067 136.72 26.44 139.4 26.44 142.84C26.44 146.28 26.88 148.933 27.76 150.8C28.6667 152.667 29.96 153.6 31.64 153.6C35.1067 153.6 36.84 149.987 36.84 142.76ZM43.28 143C43.28 146.653 42.2 149.467 40.04 151.44C37.88 153.413 35.0667 154.4 31.6 154.4C28.1333 154.4 25.3333 153.427 23.2 151.48C21.0667 149.507 20 146.693 20 143.04C20 139.36 21.0667 136.453 23.2 134.32C25.3333 132.187 28.16 131.12 31.68 131.12C35.2267 131.12 38.04 132.187 40.12 134.32C42.2267 136.427 43.28 139.32 43.28 143ZM45.2828 144.8C45.2828 141.653 46.2028 139.267 48.0428 137.64C49.8828 136.013 52.2161 135.2 55.0428 135.2C57.8961 135.2 60.0161 135.92 61.4028 137.36C62.7895 138.773 63.2828 140.24 62.8828 141.76C62.6695 142.587 62.2161 143.2 61.5228 143.6C60.8561 143.973 60.1228 144.067 59.3228 143.88C57.6428 143.48 56.8028 142.507 56.8028 140.96C56.8028 140.56 56.8428 139.96 56.9228 139.16C57.0295 138.333 57.0695 137.733 57.0428 137.36C57.0161 136.987 56.9361 136.693 56.8028 136.48C56.5361 136.027 55.9095 135.853 54.9228 135.96C52.5228 136.333 51.3228 139.28 51.3228 144.8C51.3228 150.293 53.2828 153.04 57.2028 153.04C58.1095 153.04 59.0295 152.8 59.9628 152.32C60.8961 151.84 61.5895 151.267 62.0428 150.6L62.6028 151C61.9895 152.013 61.0695 152.827 59.8428 153.44C58.6161 154.053 57.2428 154.36 55.7228 154.36C48.7628 154.36 45.2828 151.173 45.2828 144.8ZM73.16 136.4V146.16C73.16 148.453 73.2533 149.853 73.44 150.36C73.6267 150.84 73.8267 151.253 74.04 151.6C74.44 152.293 75.1333 152.64 76.12 152.64C77.1333 152.64 77.84 152.507 78.24 152.24V153.04C76.96 153.947 75.56 154.4 74.04 154.4C71.8 154.4 70.0933 153.867 68.92 152.8C67.7467 151.733 67.16 149.827 67.16 147.08V136.4H64.2V135.6H67.16C68.44 135.387 69.5733 134.773 70.56 133.76C71.5467 132.72 72.2267 131.293 72.6 129.48H73.16V135.6H77.8V136.4H73.16ZM98.3269 153.2H101.127V154H89.1269V153.2H92.3269V133.96L89.0869 135.2L88.8469 134.44L96.8869 130.72H98.3269V153.2ZM113.285 137.04C112.432 137.04 111.178 136.893 109.525 136.6C107.898 136.28 106.738 136.12 106.045 136.12C105.352 136.12 104.765 136.4 104.285 136.96C103.832 137.52 103.578 138.24 103.525 139.12H103.085C102.845 138.213 102.725 137.013 102.725 135.52C102.725 134 103.112 132.76 103.885 131.8C104.658 130.813 105.778 130.32 107.245 130.32C108.738 130.32 110.618 130.707 112.885 131.48C115.178 132.253 116.685 132.64 117.405 132.64C118.152 132.64 118.685 132.427 119.005 132C119.325 131.547 119.565 130.893 119.725 130.04H120.405C120.405 133.08 119.672 135.627 118.205 137.68C117.592 138.533 116.965 139.347 116.325 140.12C114.858 141.933 114.125 144 114.125 146.32C114.125 146.88 114.245 147.627 114.485 148.56C114.725 149.493 114.845 150.333 114.845 151.08C114.845 151.8 114.498 152.547 113.805 153.32C113.138 154.093 112.232 154.48 111.085 154.48C109.965 154.48 109.085 154.08 108.445 153.28C107.805 152.453 107.485 151.36 107.485 150C107.485 148.64 107.765 147.387 108.325 146.24C108.912 145.067 109.658 144.067 110.565 143.24C111.472 142.413 112.405 141.627 113.365 140.88C114.352 140.133 115.338 139.213 116.325 138.12C117.338 137.027 118.125 135.853 118.685 134.6L118.565 134.48C117.552 136.187 115.792 137.04 113.285 137.04ZM131.386 146.08V143.04H138.226V146.08H131.386ZM159.499 153.2H162.299V154H150.299V153.2H153.499V133.96L150.259 135.2L150.019 134.44L158.059 130.72H159.499V153.2ZM183.497 147.88C183.497 149.827 182.59 151.413 180.777 152.64C178.99 153.867 176.79 154.48 174.177 154.48C171.59 154.48 169.364 154.013 167.497 153.08C165.63 152.12 164.697 150.547 164.697 148.36C164.697 147.053 165.164 145.893 166.097 144.88C167.03 143.867 168.284 143.133 169.857 142.68C167.59 140.787 166.457 138.72 166.457 136.48C166.457 134.827 167.11 133.427 168.417 132.28C169.724 131.133 171.617 130.56 174.097 130.56C176.604 130.56 178.63 131.067 180.177 132.08C181.75 133.067 182.537 134.267 182.537 135.68C182.537 137.973 181.057 139.587 178.097 140.52C181.697 142.893 183.497 145.347 183.497 147.88ZM178.017 135.6C178.017 134.373 177.59 133.36 176.737 132.56C175.91 131.76 174.924 131.36 173.777 131.36C172.63 131.36 171.75 131.613 171.137 132.12C170.55 132.6 170.257 133.28 170.257 134.16C170.257 134.933 170.75 135.707 171.737 136.48C172.59 137.147 173.604 137.827 174.777 138.52C175.977 139.213 176.79 139.693 177.217 139.96C177.75 138.973 178.017 137.52 178.017 135.6ZM169.617 148.56C169.617 150.08 170.15 151.32 171.217 152.28C172.31 153.213 173.457 153.68 174.657 153.68C175.884 153.68 176.87 153.347 177.617 152.68C178.39 152.013 178.777 151.12 178.777 150C178.777 149.307 178.417 148.64 177.697 148C177.004 147.36 175.857 146.56 174.257 145.6C172.657 144.64 171.51 143.907 170.817 143.4C170.017 145.32 169.617 147.04 169.617 148.56ZM199.422 153.8L197.782 154.04C197.008 154.04 196.315 153.773 195.702 153.24C195.088 152.707 194.782 151.947 194.782 150.96C194.782 149.947 195.102 149.107 195.742 148.44C196.408 147.773 197.328 147.44 198.502 147.44C199.702 147.44 200.675 147.893 201.422 148.8C202.168 149.707 202.542 150.733 202.542 151.88C202.542 153.533 201.995 155.053 200.902 156.44C199.835 157.853 198.288 159.013 196.262 159.92L195.982 159.2C198.755 157.573 200.142 156 200.142 154.48C200.142 154.027 199.902 153.8 199.422 153.8ZM232.617 148.32C232.617 150 232.217 151.44 231.417 152.64C230.644 153.813 229.497 154.4 227.977 154.4C226.484 154.4 224.737 153.907 222.737 152.92C220.737 151.907 219.297 151.4 218.417 151.4C216.844 151.4 215.87 152.267 215.497 154H214.697C214.857 151.973 215.604 150.067 216.937 148.28C217.844 147.08 219.764 145.04 222.697 142.16C223.47 141.387 224.164 140.467 224.777 139.4C225.39 138.333 225.697 137.187 225.697 135.96C225.697 134.733 225.337 133.68 224.617 132.8C223.897 131.92 222.83 131.48 221.417 131.48C220.51 131.48 219.684 131.653 218.937 132C218.19 132.347 217.817 132.747 217.817 133.2C217.817 133.627 217.99 133.947 218.337 134.16C218.71 134.373 219.097 134.547 219.497 134.68C219.924 134.787 220.31 135.053 220.657 135.48C221.03 135.907 221.217 136.48 221.217 137.2C221.217 137.92 220.95 138.533 220.417 139.04C219.91 139.547 219.204 139.8 218.297 139.8C217.39 139.8 216.644 139.467 216.057 138.8C215.47 138.133 215.177 137.28 215.177 136.24C215.177 134.613 215.87 133.253 217.257 132.16C218.67 131.067 220.63 130.52 223.137 130.52C225.67 130.52 227.817 131.067 229.577 132.16C231.337 133.253 232.217 134.76 232.217 136.68C232.217 138.253 231.844 139.587 231.097 140.68C230.377 141.773 229.444 142.6 228.297 143.16C227.177 143.72 226.017 144.213 224.817 144.64C223.644 145.04 222.484 145.52 221.337 146.08C220.217 146.613 219.417 147.24 218.937 147.96C219.577 147.427 220.404 147.16 221.417 147.16C222.43 147.16 223.577 147.333 224.857 147.68C226.164 148.027 227.19 148.2 227.937 148.2C228.684 148.2 229.297 148.16 229.777 148.08C230.257 148 230.71 147.773 231.137 147.4C231.564 147.027 231.817 146.493 231.897 145.8H232.297C232.51 146.653 232.617 147.493 232.617 148.32ZM255.91 142.56C255.91 146.16 255.016 149.053 253.23 151.24C251.443 153.4 249.03 154.48 245.99 154.48C242.976 154.48 240.59 153.4 238.83 151.24C237.096 149.08 236.23 146.027 236.23 142.08C236.23 138.827 237.096 136.093 238.83 133.88C240.59 131.64 243.016 130.52 246.11 130.52C249.23 130.52 251.643 131.627 253.35 133.84C255.056 136.027 255.91 138.933 255.91 142.56ZM249.95 142.08C249.95 134.907 248.656 131.32 246.07 131.32C243.483 131.32 242.19 134.907 242.19 142.08C242.19 145.92 242.47 148.813 243.03 150.76C243.59 152.707 244.616 153.68 246.11 153.68C247.603 153.68 248.616 152.72 249.15 150.8C249.683 148.88 249.95 145.973 249.95 142.08ZM276.64 148.32C276.64 150 276.24 151.44 275.44 152.64C274.667 153.813 273.52 154.4 272 154.4C270.507 154.4 268.76 153.907 266.76 152.92C264.76 151.907 263.32 151.4 262.44 151.4C260.867 151.4 259.894 152.267 259.52 154H258.72C258.88 151.973 259.627 150.067 260.96 148.28C261.867 147.08 263.787 145.04 266.72 142.16C267.494 141.387 268.187 140.467 268.8 139.4C269.414 138.333 269.72 137.187 269.72 135.96C269.72 134.733 269.36 133.68 268.64 132.8C267.92 131.92 266.854 131.48 265.44 131.48C264.534 131.48 263.707 131.653 262.96 132C262.214 132.347 261.84 132.747 261.84 133.2C261.84 133.627 262.014 133.947 262.36 134.16C262.734 134.373 263.12 134.547 263.52 134.68C263.947 134.787 264.334 135.053 264.68 135.48C265.054 135.907 265.24 136.48 265.24 137.2C265.24 137.92 264.974 138.533 264.44 139.04C263.934 139.547 263.227 139.8 262.32 139.8C261.414 139.8 260.667 139.467 260.08 138.8C259.494 138.133 259.2 137.28 259.2 136.24C259.2 134.613 259.894 133.253 261.28 132.16C262.694 131.067 264.654 130.52 267.16 130.52C269.694 130.52 271.84 131.067 273.6 132.16C275.36 133.253 276.24 134.76 276.24 136.68C276.24 138.253 275.867 139.587 275.12 140.68C274.4 141.773 273.467 142.6 272.32 143.16C271.2 143.72 270.04 144.213 268.84 144.64C267.667 145.04 266.507 145.52 265.36 146.08C264.24 146.613 263.44 147.24 262.96 147.96C263.6 147.427 264.427 147.16 265.44 147.16C266.454 147.16 267.6 147.333 268.88 147.68C270.187 148.027 271.214 148.2 271.96 148.2C272.707 148.2 273.32 148.16 273.8 148.08C274.28 148 274.734 147.773 275.16 147.4C275.587 147.027 275.84 146.493 275.92 145.8H276.32C276.534 146.653 276.64 147.493 276.64 148.32ZM286.213 142.28C287.466 141.213 289.186 140.68 291.373 140.68C293.56 140.68 295.386 141.24 296.853 142.36C298.346 143.453 299.093 145.08 299.093 147.24C299.093 149.4 298.306 151.147 296.733 152.48C295.186 153.813 293 154.48 290.173 154.48C283.293 154.48 279.853 150.533 279.853 142.64C279.853 138.827 280.813 135.853 282.733 133.72C284.68 131.56 287.506 130.48 291.213 130.48C292.573 130.48 293.933 130.827 295.293 131.52C296.68 132.187 297.586 133.187 298.013 134.52C298.386 135.48 298.453 136.4 298.213 137.28C297.973 138.16 297.453 138.773 296.653 139.12C295.853 139.44 295.106 139.493 294.413 139.28C293.72 139.04 293.226 138.6 292.933 137.96C292.56 136.92 292.533 136.173 292.853 135.72C293.2 135.24 293.613 134.747 294.093 134.24C294.6 133.707 294.786 133.24 294.653 132.84C294.546 132.413 294.133 132.08 293.413 131.84C292.693 131.573 292.013 131.44 291.373 131.44C290.733 131.44 290.186 131.507 289.733 131.64C289.306 131.747 288.92 131.88 288.573 132.04C288.253 132.173 287.96 132.427 287.693 132.8C287.453 133.147 287.24 133.453 287.053 133.72C286.893 133.96 286.76 134.373 286.653 134.96C286.546 135.52 286.453 135.973 286.373 136.32C286.32 136.64 286.28 137.187 286.253 137.96C286.226 138.707 286.213 139.253 286.213 139.6V142.28ZM290.213 153.68C292.4 153.68 293.493 151.6 293.493 147.44C293.493 145.76 293.16 144.427 292.493 143.44C291.853 142.453 290.906 141.96 289.653 141.96C288.4 141.96 287.253 142.44 286.213 143.4C286.24 146.973 286.573 149.587 287.213 151.24C287.88 152.867 288.88 153.68 290.213 153.68ZM318.878 153.2H320.878V154H310.878V153.2H312.878V136.4H311.278V135.6H318.878V153.2ZM319.238 130.32C319.238 131.28 318.891 132.107 318.198 132.8C317.531 133.467 316.705 133.8 315.718 133.8C314.758 133.8 313.931 133.467 313.238 132.8C312.545 132.107 312.198 131.28 312.198 130.32C312.198 129.333 312.545 128.493 313.238 127.8C313.931 127.107 314.758 126.76 315.718 126.76C316.705 126.76 317.531 127.107 318.198 127.8C318.891 128.493 319.238 129.333 319.238 130.32ZM344.691 153.2H346.691V154H336.691V153.2H338.691V142C338.691 140.107 338.411 138.76 337.851 137.96C337.291 137.16 336.451 136.76 335.331 136.76C333.811 136.76 332.597 137.56 331.691 139.16V153.2H333.691V154H323.691V153.2H325.691V136.4H323.691V135.6H331.691V137.68C332.197 136.987 332.984 136.4 334.051 135.92C335.144 135.413 336.317 135.16 337.571 135.16C342.317 135.16 344.691 137.733 344.691 142.88V153.2ZM377.626 138.4C377.626 136.027 377.226 134.44 376.426 133.64C375.652 132.813 374.186 132.4 372.026 132.4H370.826V153.2H373.626V154H362.026V153.2H364.826V132.4H363.626C361.492 132.4 360.026 132.813 359.226 133.64C358.452 134.44 358.066 136.027 358.066 138.4H357.266V131.6H378.426V138.4H377.626ZM400.239 153.2C399.972 153.467 399.466 153.707 398.719 153.92C397.972 154.107 397.106 154.2 396.119 154.2C393.932 154.2 392.559 153.547 391.999 152.24C390.666 153.627 388.626 154.32 385.879 154.32C384.412 154.32 383.199 153.987 382.239 153.32C381.306 152.627 380.839 151.613 380.839 150.28C380.839 148.493 381.532 147.12 382.919 146.16C384.306 145.173 386.732 144.48 390.199 144.08L391.799 143.88V141.92C391.799 139.6 391.626 138.04 391.279 137.24C390.932 136.44 390.239 136.04 389.199 136.04C388.186 136.04 387.532 136.187 387.239 136.48C386.946 136.747 386.839 137.067 386.919 137.44C386.999 137.787 387.132 138.253 387.319 138.84C387.506 139.427 387.599 139.893 387.599 140.24C387.599 141.067 387.306 141.773 386.719 142.36C386.159 142.92 385.466 143.2 384.639 143.2C383.839 143.2 383.146 142.92 382.559 142.36C381.972 141.773 381.679 141.067 381.679 140.24C381.679 138.88 382.372 137.72 383.759 136.76C385.172 135.773 387.266 135.28 390.039 135.28C392.839 135.28 394.826 135.827 395.999 136.92C397.199 138.013 397.799 139.947 397.799 142.72V149.92C397.799 151.333 397.972 152.227 398.319 152.6C398.666 152.947 399.306 153.013 400.239 152.8V153.2ZM386.399 149.48C386.532 150.493 386.906 151.28 387.519 151.84C388.132 152.373 388.839 152.64 389.639 152.64C390.466 152.64 391.186 152.24 391.799 151.44V144.64L390.359 144.84C389.132 145 388.132 145.467 387.359 146.24C386.612 147.013 386.292 148.093 386.399 149.48ZM410.636 153.2H412.636V154H402.636V153.2H404.636V136.4H403.036V135.6H410.636V153.2ZM410.996 130.32C410.996 131.28 410.649 132.107 409.956 132.8C409.289 133.467 408.463 133.8 407.476 133.8C406.516 133.8 405.689 133.467 404.996 132.8C404.303 132.107 403.956 131.28 403.956 130.32C403.956 129.333 404.303 128.493 404.996 127.8C405.689 127.107 406.516 126.76 407.476 126.76C408.463 126.76 409.289 127.107 409.956 127.8C410.649 128.493 410.996 129.333 410.996 130.32ZM422.648 144.36V150.96C423.368 152.4 424.302 153.12 425.448 153.12C426.622 153.12 427.622 152.453 428.448 151.12C429.275 149.787 429.688 147.653 429.688 144.72C429.688 141.76 429.368 139.693 428.728 138.52C428.088 137.32 427.115 136.72 425.808 136.72C424.502 136.72 423.648 137.253 423.248 138.32C422.848 139.387 422.648 141.4 422.648 144.36ZM422.648 137.44C423.555 135.893 425.182 135.12 427.528 135.12C429.875 135.12 431.835 135.973 433.408 137.68C434.982 139.387 435.768 141.8 435.768 144.92C435.768 148.04 434.995 150.48 433.448 152.24C431.902 154 430.022 154.88 427.808 154.88C426.715 154.88 425.688 154.653 424.728 154.2C423.768 153.747 423.075 153.067 422.648 152.16V161.6H424.648V162.4H416.648V136.4H414.648V135.6H422.648V137.44ZM456.253 146H444.173C444.44 150.693 446.267 153.04 449.653 153.04C450.56 153.04 451.587 152.827 452.733 152.4C453.907 151.973 454.76 151.373 455.293 150.6L455.853 151C455.267 151.987 454.267 152.8 452.853 153.44C451.44 154.08 450.027 154.4 448.613 154.4C447.227 154.4 445.973 154.267 444.853 154C443.733 153.707 442.64 153.227 441.573 152.56C440.507 151.893 439.667 150.893 439.053 149.56C438.467 148.227 438.173 146.613 438.173 144.72C438.173 141.493 439.067 139.107 440.853 137.56C442.64 135.987 444.8 135.2 447.333 135.2C449.893 135.2 452.013 136.053 453.693 137.76C455.4 139.467 456.253 142.213 456.253 146ZM444.133 145.2H450.653C450.653 142.747 450.387 140.6 449.853 138.76C449.347 136.92 448.52 136 447.373 136C446.227 136 445.4 136.893 444.893 138.68C444.387 140.44 444.133 142.467 444.133 144.76V145.2ZM467.159 153.2H469.159V154H459.159V153.2H461.159V136.4H459.559V135.6H467.159V153.2ZM467.519 130.32C467.519 131.28 467.173 132.107 466.479 132.8C465.813 133.467 464.986 133.8 463.999 133.8C463.039 133.8 462.213 133.467 461.519 132.8C460.826 132.107 460.479 131.28 460.479 130.32C460.479 129.333 460.826 128.493 461.519 127.8C462.213 127.107 463.039 126.76 463.999 126.76C464.986 126.76 465.813 127.107 466.479 127.8C467.173 128.493 467.519 129.333 467.519 130.32Z" fill="white"/>
</g>
<defs>
<filter id="filter0_d_84_153" x="2.46594" y="9.34799" width="637.353" height="122.892" filterUnits="userSpaceOnUse" color-interpolation-filters="sRGB">
<feFlood flood-opacity="0" result="BackgroundImageFix"/>
<feColorMatrix in="SourceAlpha" type="matrix" values="0 0 0 0 0 0 0 0 0 0 0 0 0 0 0 0 0 0 127 0" result="hardAlpha"/>
<feOffset/>
<feGaussianBlur stdDeviation="10"/>
<feComposite in2="hardAlpha" operator="out"/>
<feColorMatrix type="matrix" values="0 0 0 0 0.891667 0 0 0 0 0.891667 0 0 0 0 0.891667 0 0 0 0.45 0"/>
<feBlend mode="normal" in2="BackgroundImageFix" result="effect1_dropShadow_84_153"/>
<feBlend mode="normal" in="SourceGraphic" in2="effect1_dropShadow_84_153" result="shape"/>
</filter>
<filter id="filter1_d_84_153" x="0" y="106.76" width="489.159" height="75.64" filterUnits="userSpaceOnUse" color-interpolation-filters="sRGB">
<feFlood flood-opacity="0" result="BackgroundImageFix"/>
<feColorMatrix in="SourceAlpha" type="matrix" values="0 0 0 0 0 0 0 0 0 0 0 0 0 0 0 0 0 0 127 0" result="hardAlpha"/>
<feOffset/>
<feGaussianBlur stdDeviation="10"/>
<feComposite in2="hardAlpha" operator="out"/>
<feColorMatrix type="matrix" values="0 0 0 0 0.9125 0 0 0 0 0.9125 0 0 0 0 0.9125 0 0 0 0.45 0"/>
<feBlend mode="normal" in2="BackgroundImageFix" result="effect1_dropShadow_84_153"/>
<feBlend mode="normal" in="SourceGraphic" in2="effect1_dropShadow_84_153" result="shape"/>
</filter>
</defs>
</svg>
