<svg width="28" height="28" viewBox="0 0 28 28" fill="none" xmlns="http://www.w3.org/2000/svg">
<path d="M24.5 13.2632H15.75V5.89474H24.5M21.875 22.1053C21.1788 22.1053 20.5111 21.8724 20.0188 21.4578C19.5266 21.0433 19.25 20.481 19.25 19.8947C19.25 19.3085 19.5266 18.7462 20.0188 18.3317C20.5111 17.9171 21.1788 17.6842 21.875 17.6842C22.5712 17.6842 23.2389 17.9171 23.7312 18.3317C24.2234 18.7462 24.5 19.3085 24.5 19.8947C24.5 20.481 24.2234 21.0433 23.7312 21.4578C23.2389 21.8724 22.5712 22.1053 21.875 22.1053ZM12.25 13.2632H3.5V5.89474H12.25M6.125 22.1053C5.42881 22.1053 4.76113 21.8724 4.26884 21.4578C3.77656 21.0433 3.5 20.481 3.5 19.8947C3.5 19.3085 3.77656 18.7462 4.26884 18.3317C4.76113 17.9171 5.42881 17.6842 6.125 17.6842C6.82119 17.6842 7.48887 17.9171 7.98116 18.3317C8.47344 18.7462 8.75 19.3085 8.75 19.8947C8.75 20.481 8.47344 21.0433 7.98116 21.4578C7.48887 21.8724 6.82119 22.1053 6.125 22.1053ZM14 0C6.265 0 0 0.736842 0 5.89474V19.8947C0 21.2627 0.645311 22.5746 1.79397 23.5419C2.94263 24.5092 4.50055 25.0526 6.125 25.0526L3.5 27.2632V28H24.5V27.2632L21.875 25.0526C23.4995 25.0526 25.0574 24.5092 26.206 23.5419C27.3547 22.5746 28 21.2627 28 19.8947V5.89474C28 0.736842 21.735 0 14 0Z" fill="white"/>
</svg>
