<svg width="100" height="70" viewBox="0 0 100 70" fill="none" xmlns="http://www.w3.org/2000/svg">
<path d="M6.92152 25.0891L6.35189 22.6545L0.569305 24.0052L5.57891 27.1975L6.92152 25.0891ZM95.1624 4.47814L97.4773 5.42284L99.3032 0.94325L94.5927 2.0435L95.1624 4.47814ZM70.2999 65.4759L68.9573 67.5842L71.4842 69.1945L72.6149 66.4206L70.2999 65.4759ZM94.7634 8.05654C95.8862 7.25362 96.1452 5.69207 95.3419 4.56873C94.5385 3.44539 92.977 3.18563 91.8542 3.98855L94.7634 8.05654ZM38.2212 42.3404C37.0984 43.1433 36.8394 44.7049 37.6428 45.8282C38.4461 46.9515 40.0076 47.2113 41.1305 46.4084L38.2212 42.3404ZM55.4621 57.6187C56.4315 56.6359 56.4203 55.0529 55.4372 54.083C54.4541 53.1131 52.8713 53.1235 51.9019 54.1063L55.4621 57.6187ZM44.2965 61.8172C43.3271 62.7999 43.3383 64.3829 44.3214 65.3528C45.3045 66.3227 46.8873 66.3123 47.8567 65.3295L44.2965 61.8172ZM40.9241 44.3361L39.9766 42.022L35.3499 43.9149L36.2973 46.229L40.9241 44.3361ZM43.7609 64.4582C44.2842 65.7362 45.7441 66.3485 47.0217 65.8258C48.2994 65.3031 48.9109 63.8433 48.3876 62.5653L43.7609 64.4582ZM7.49115 27.5238L95.732 6.91278L94.5927 2.0435L6.35189 22.6545L7.49115 27.5238ZM92.8474 3.53345L67.9849 64.5312L72.6149 66.4206L97.4773 5.42284L92.8474 3.53345ZM71.6425 63.3676L8.26412 22.9808L5.57891 27.1975L68.9573 67.5842L71.6425 63.3676ZM91.8542 3.98855L38.2212 42.3404L41.1305 46.4084L94.7634 8.05654L91.8542 3.98855ZM51.9019 54.1063L44.2965 61.8172L47.8567 65.3295L55.4621 57.6187L51.9019 54.1063ZM36.2973 46.229L43.7609 64.4582L48.3876 62.5653L40.9241 44.3361L36.2973 46.229Z" fill="url(#paint0_linear_2559_17984)"/>
<defs>
<linearGradient id="paint0_linear_2559_17984" x1="52.8373" y1="-0.510929" x2="45.2942" y2="63.4811" gradientUnits="userSpaceOnUse">
<stop stop-color="#AC56D4"/>
<stop offset="0.473958" stop-color="#5B69E2"/>
<stop offset="1" stop-color="#709CD5"/>
<stop offset="1" stop-color="#709CD5"/>
</linearGradient>
</defs>
</svg>
