<svg width="64" height="65" viewBox="0 0 64 65" fill="none" xmlns="http://www.w3.org/2000/svg">
<path d="M15.0293 55.0188C11.6729 51.6624 9.38711 47.386 8.46109 42.7304C7.53507 38.0749 8.01037 33.2493 9.82688 28.8639C11.6434 24.4785 14.7195 20.7302 18.6663 18.0931C22.6131 15.456 27.2532 14.0484 32 14.0484C36.7467 14.0484 41.3868 15.456 45.3336 18.0931C49.2804 20.7302 52.3565 24.4785 54.173 28.8639C55.9895 33.2493 56.4648 38.0749 55.5388 42.7304C54.6128 47.386 52.3271 51.6624 48.9706 55.0188L52.7413 58.7895C55.4692 56.0687 57.6325 52.8357 59.107 49.2762C60.5815 45.7167 61.3381 41.901 61.3333 38.0482C61.3333 21.8482 48.2 8.71484 32 8.71484C15.8 8.71484 2.66663 21.8482 2.66663 38.0482C2.66663 46.1495 5.94929 53.4828 11.2586 58.7895L15.0293 55.0188Z" fill="#9258BF"/>
<path d="M45.1999 51.2482C47.8103 48.6375 49.588 45.3114 50.3081 41.6905C51.0282 38.0696 50.6584 34.3164 49.2455 30.9057C47.8326 27.4949 45.44 24.5797 42.3704 22.5286C39.3007 20.4776 35.6918 19.3829 31.9999 19.3829C28.3081 19.3829 24.6992 20.4776 21.6295 22.5286C18.5598 24.5797 16.1673 27.4949 14.7544 30.9057C13.3415 34.3164 12.9717 38.0696 13.6918 41.6905C14.4119 45.3114 16.1895 48.6375 18.7999 51.2482L22.5733 47.4775C20.7085 45.6128 19.4386 43.237 18.9241 40.6506C18.4097 38.0642 18.6737 35.3833 19.6828 32.9469C20.692 30.5106 22.401 28.4282 24.5936 26.9631C26.7863 25.498 29.3642 24.716 32.0013 24.716C34.6384 24.716 37.2162 25.498 39.4089 26.9631C41.6016 28.4282 43.3105 30.5106 44.3197 32.9469C45.3288 35.3833 45.5929 38.0642 45.0784 40.6506C44.5639 43.237 43.294 45.6128 41.4293 47.4775L45.1999 51.2482Z" fill="#9258BF"/>
<path d="M37.656 43.7042C38.7747 42.5853 39.5365 41.1598 39.845 39.608C40.1536 38.0562 39.9951 36.4478 39.3896 34.986C38.784 33.5243 37.7586 32.2749 36.4431 31.396C35.1275 30.517 33.5809 30.0478 31.9987 30.0478C30.4165 30.0478 28.8698 30.517 27.5542 31.396C26.2387 32.2749 25.2133 33.5243 24.6078 34.986C24.0022 36.4478 23.8437 38.0562 24.1523 39.608C24.4609 41.1598 25.2226 42.5853 26.3413 43.7042L30.1147 39.9335C29.7416 39.5606 29.4876 39.0855 29.3846 38.5682C29.2817 38.0508 29.3344 37.5146 29.5362 37.0273C29.7381 36.54 30.0798 36.1235 30.5184 35.8304C30.9569 35.5374 31.4725 35.3809 32 35.3809C32.5274 35.3809 33.0431 35.5374 33.4816 35.8304C33.9202 36.1235 34.2619 36.54 34.4638 37.0273C34.6656 37.5146 34.7183 38.0508 34.6154 38.5682C34.5124 39.0855 34.2584 39.5606 33.8853 39.9335L37.656 43.7042Z" fill="#9258BF"/>
</svg>
