<svg width="138" height="138" viewBox="0 0 138 138" fill="none" xmlns="http://www.w3.org/2000/svg">
<circle cx="69" cy="69" r="67.5" stroke="#C4C4C4" stroke-width="3"/>
<path d="M92.2428 61.7262C92.2428 47.6644 77.42 38.4473 62.6214 38.4473C47.7637 38.4473 33 47.7077 33 61.7262C33 67.0298 35.3228 72.216 39.5406 76.3298C39.702 76.4872 39.7638 76.7262 39.7019 76.9533C38.3771 81.8065 35.2393 86.1907 33.9518 87.8504C33.5513 88.3667 33.4855 89.0495 33.7801 89.6326C34.0681 90.2027 34.6375 90.5519 35.2736 90.5519C35.288 90.5519 35.3023 90.5518 35.3168 90.5514C41.6171 90.3943 48.9199 88.6161 53.434 84.1781C53.5918 84.0228 53.8181 83.9615 54.0398 84.0143C56.8133 84.6721 59.7007 85.0055 62.6214 85.0055C77.4747 85.0052 92.2428 75.7485 92.2428 61.7262ZM54.5603 81.819C53.5796 81.5861 52.567 81.8667 51.8525 82.5692C47.3382 87.0076 39.9668 88.0166 36.4773 88.2409C38.0713 86.0405 40.663 81.9993 41.8782 77.5472C42.1559 76.5296 41.8637 75.4444 41.1157 74.7147C37.2822 70.9759 35.2559 66.4844 35.2559 61.7262C35.2559 50.1341 47.5319 40.7031 62.6214 40.7031C77.7108 40.7031 89.9869 50.134 89.9869 61.7262C89.9869 73.3185 77.7108 82.7493 62.6214 82.7493C59.8757 82.7493 57.1637 82.4362 54.5603 81.819Z" fill="#C7C7C7"/>
<path d="M99.4975 80.4676C106.074 77.1441 110 71.4797 110 65.3152C110 56.6029 102.124 49.1585 91.2737 47.6139C90.6578 47.5264 90.0859 47.9548 89.9982 48.5716C89.9104 49.1883 90.3391 49.7594 90.9559 49.8472C100.684 51.232 107.744 57.7371 107.744 65.3152C107.744 70.6107 104.281 75.5226 98.4799 78.4543C97.352 79.0245 96.7476 80.2847 97.0103 81.5194C97.5603 84.1039 98.7311 86.4971 99.6676 88.1192C93.0066 87.0105 90.482 83.8144 89.6837 82.4311C89.1909 81.5772 88.2693 81.0478 87.2748 81.0478C87.2718 81.0478 87.2689 81.0478 87.2661 81.0478L87.1833 81.048C85.9325 81.048 84.6801 80.9612 83.4612 80.7899C82.8459 80.7034 82.274 81.1331 82.1874 81.75C82.1007 82.3669 82.5306 82.9372 83.1475 83.0238C84.47 83.2095 85.8279 83.3037 87.1833 83.3037L87.2751 83.3035H87.2767C87.4655 83.3035 87.6387 83.4011 87.7297 83.5586C90.7846 88.8528 97.8071 90.2045 100.685 90.5399C101.32 90.6139 101.926 90.3235 102.265 89.7804C102.603 89.2385 102.599 88.5678 102.253 88.0299C101.387 86.68 99.8399 83.9783 99.2168 81.0499C99.1671 80.8159 99.2824 80.5763 99.4975 80.4676Z" fill="#C7C7C7"/>
<path d="M45.0697 57.6914C42.9142 57.6914 41.1606 59.4451 41.1606 61.6005C41.1606 63.7559 42.9142 65.5096 45.0697 65.5096C47.2253 65.5096 48.9789 63.7559 48.9789 61.6005C48.9789 59.4451 47.2253 57.6914 45.0697 57.6914ZM45.0697 63.2539C44.1581 63.2539 43.4165 62.5122 43.4165 61.6007C43.4165 60.6891 44.1582 59.9474 45.0697 59.9474C45.9813 59.9474 46.723 60.6891 46.723 61.6007C46.723 62.5122 45.9813 63.2539 45.0697 63.2539Z" fill="#7568F6"/>
<path d="M56.2221 57.6914C54.0665 57.6914 52.313 59.4451 52.313 61.6005C52.313 63.7559 54.0665 65.5096 56.2221 65.5096C58.3776 65.5096 60.1312 63.7559 60.1312 61.6005C60.1312 59.4451 58.3776 57.6914 56.2221 57.6914ZM56.2221 63.2539C55.3104 63.2539 54.5688 62.5122 54.5688 61.6007C54.5688 60.6891 55.3106 59.9474 56.2221 59.9474C57.1336 59.9474 57.8753 60.6891 57.8753 61.6007C57.8753 62.5122 57.1338 63.2539 56.2221 63.2539Z" fill="#7568F6"/>
<path d="M67.3739 57.6914C65.2184 57.6914 63.4648 59.4451 63.4648 61.6005C63.4648 63.7559 65.2184 65.5096 67.3739 65.5096C69.5295 65.5096 71.2831 63.7559 71.2831 61.6005C71.2831 59.4451 69.5295 57.6914 67.3739 57.6914ZM67.3739 63.2539C66.4623 63.2539 65.7207 62.5122 65.7207 61.6007C65.7207 60.6891 66.4624 59.9474 67.3739 59.9474C68.2855 59.9474 69.0272 60.6891 69.0272 61.6007C69.0272 62.5122 68.2856 63.2539 67.3739 63.2539Z" fill="#7568F6"/>
<path d="M78.5258 57.6914C76.3703 57.6914 74.6167 59.4451 74.6167 61.6005C74.6167 63.7559 76.3703 65.5096 78.5258 65.5096C80.6814 65.5096 82.4349 63.7559 82.4349 61.6005C82.4349 59.4451 80.6814 57.6914 78.5258 57.6914ZM78.5258 63.2539C77.6141 63.2539 76.8726 62.5122 76.8726 61.6007C76.8726 60.6891 77.6143 59.9474 78.5258 59.9474C79.4373 59.9474 80.179 60.6891 80.179 61.6007C80.179 62.5122 79.4373 63.2539 78.5258 63.2539Z" fill="#7568F6"/>
</svg>
