<svg width="138" height="138" viewBox="0 0 138 138" fill="none" xmlns="http://www.w3.org/2000/svg">
<path d="M93.4531 49.5312H83.4688V39.5469C83.4688 33.7313 78.7375 29 72.9219 29H63.0781C57.2625 29 52.5312 33.7313 52.5312 39.5469V49.5312H42.5469C36.7313 49.5312 32 54.2625 32 60.0781V69.9219C32 75.7375 36.7313 80.4688 42.5469 80.4688H52.5312V90.4531C52.5312 96.2687 57.2625 101 63.0781 101H72.9219C78.7375 101 83.4688 96.2687 83.4688 90.4531V80.4688H93.4531C99.2687 80.4688 104 75.7375 104 69.9219V60.0781C104 54.2625 99.2687 49.5312 93.4531 49.5312ZM42.5469 76.25C39.0576 76.25 36.2188 73.4111 36.2188 69.9219V60.0781C36.2188 56.5889 39.0576 53.75 42.5469 53.75H68C69.1651 53.75 70.1094 52.8057 70.1094 51.6406C70.1094 50.4755 69.1651 49.5312 68 49.5312H56.75V39.5469C56.75 36.0576 59.5889 33.2188 63.0781 33.2188H72.9219C76.4111 33.2188 79.25 36.0576 79.25 39.5469V62.8906H54.6406C53.4755 62.8906 52.5312 63.8349 52.5312 65V76.25H42.5469ZM99.7812 69.9219C99.7812 73.4111 96.9424 76.25 93.4531 76.25H68C66.8349 76.25 65.8906 77.1943 65.8906 78.3594C65.8906 79.5245 66.8349 80.4688 68 80.4688H79.25V90.4531C79.25 93.9424 76.4111 96.7812 72.9219 96.7812H63.0781C59.5889 96.7812 56.75 93.9424 56.75 90.4531V67.1094H81.3594C82.5245 67.1094 83.4688 66.1651 83.4688 65V53.75H93.4531C96.9424 53.75 99.7812 56.5889 99.7812 60.0781V69.9219Z" fill="#C7C7C7"/>
<path d="M65.1875 41.6562C65.1875 42.8214 64.2432 43.7656 63.0781 43.7656C61.913 43.7656 60.9688 42.8214 60.9688 41.6562C60.9688 40.4911 61.913 39.5469 63.0781 39.5469C64.2432 39.5469 65.1875 40.4911 65.1875 41.6562Z" fill="#7568F6"/>
<path d="M75.0312 88.3438C75.0312 89.5089 74.087 90.4531 72.9219 90.4531C71.7568 90.4531 70.8125 89.5089 70.8125 88.3438C70.8125 87.1786 71.7568 86.2344 72.9219 86.2344C74.087 86.2344 75.0312 87.1786 75.0312 88.3438Z" fill="#7568F6"/>
<circle cx="69" cy="69" r="67.5" stroke="#C4C4C4" stroke-width="3"/>
</svg>
