<svg width="136" height="136" viewBox="0 0 136 136" fill="none" xmlns="http://www.w3.org/2000/svg">
<circle cx="68" cy="68" r="66.5" stroke="#C7C7C7" stroke-width="3"/>
<g clip-path="url(#clip0)">
<path d="M46.6068 69.0961C46.3379 68.8272 45.9663 68.6724 45.5846 68.6724C45.2043 68.6724 44.8311 68.8272 44.5623 69.0961C44.2933 69.365 44.1387 69.738 44.1387 70.1183C44.1387 70.5001 44.2935 70.8717 44.5623 71.142C44.8313 71.4109 45.2043 71.5642 45.5846 71.5642C45.9648 71.5642 46.338 71.4109 46.6068 71.142C46.8758 70.8716 47.0305 70.5001 47.0305 70.1183C47.0305 69.738 46.8758 69.365 46.6068 69.0961Z" fill="#C7C7C7"/>
<path d="M60.2416 69.0961C59.9728 68.8272 59.5997 68.6724 59.2193 68.6724C58.8391 68.6724 58.4659 68.8272 58.1971 69.0961C57.9281 69.365 57.7734 69.738 57.7734 70.1183C57.7734 70.5001 57.9281 70.8717 58.1971 71.142C58.466 71.4109 58.8391 71.5642 59.2193 71.5642C59.5996 71.5642 59.9728 71.4109 60.2416 71.142C60.5106 70.8716 60.6652 70.4985 60.6652 70.1183C60.6652 69.738 60.5106 69.365 60.2416 69.0961Z" fill="#C7C7C7"/>
<path d="M57.5893 77.036C56.8178 76.8293 56.0253 77.2883 55.8191 78.0597C55.4059 79.6065 54.0006 80.687 52.4015 80.687C50.8025 80.687 49.3973 79.6065 48.9839 78.0597C48.7778 77.288 47.9853 76.829 47.2137 77.036C46.4422 77.2422 45.9839 78.0345 46.19 78.8062C46.9407 81.6163 49.495 83.5791 52.4016 83.5791C55.3082 83.5791 57.8625 81.6163 58.6132 78.8062C58.8191 78.0347 58.3607 77.2421 57.5893 77.036Z" fill="#C7C7C7"/>
<path d="M68.0183 32.7808C67.2196 32.7808 66.5723 33.4281 66.5723 34.2268V43.4066C66.5723 44.2052 67.2196 44.8526 68.0183 44.8526C68.817 44.8526 69.4643 44.2052 69.4643 43.4066V34.2268C69.4643 33.4281 68.817 32.7808 68.0183 32.7808Z" fill="#9387FF"/>
<path d="M69.0404 47.4939C68.7713 47.2235 68.3983 47.0703 68.0182 47.0703C67.6364 47.0703 67.2647 47.2237 66.9944 47.4939C66.7255 47.7629 66.5723 48.1359 66.5723 48.5162C66.5723 48.8965 66.7256 49.2696 66.9944 49.5385C67.2649 49.8074 67.6364 49.9621 68.0182 49.9621C68.3984 49.9621 68.7716 49.8074 69.0404 49.5385C69.3093 49.2695 69.464 48.8965 69.464 48.5162C69.464 48.1359 69.3093 47.7629 69.0404 47.4939Z" fill="#9387FF"/>
<path d="M59.2065 45.9269L55.5149 42.2385C54.9501 41.6741 54.0343 41.6744 53.47 42.2394C52.9056 42.8043 52.9058 43.7198 53.4708 44.2843L57.1624 47.9729C57.4447 48.2551 57.8146 48.396 58.1844 48.396C58.5547 48.396 58.9251 48.2545 59.2074 47.9721C59.7718 47.4069 59.7715 46.4915 59.2065 45.9269Z" fill="#9387FF"/>
<path d="M82.5686 42.2425C82.0037 41.6779 81.0881 41.6784 80.5237 42.2432L76.5989 46.1711C76.0344 46.7361 76.0348 47.6517 76.5997 48.2161C76.8819 48.4984 77.2518 48.6393 77.6216 48.6393C77.9919 48.6393 78.3622 48.4979 78.6445 48.2154L82.5692 44.2875C83.1339 43.7225 83.1335 42.8069 82.5686 42.2425Z" fill="#9387FF"/>
<path d="M104.268 68.2688C101.214 56.8701 89.456 50.0816 78.0575 53.1361C74.1453 54.1844 70.6891 56.2687 67.9896 59.1548C63.9505 54.853 58.3606 52.4166 52.401 52.4166C40.6005 52.4166 31 62.0172 31 73.8178C31 85.6183 40.6005 95.2188 52.401 95.2188C58.3663 95.2188 63.9651 92.7749 68.0056 88.4627C72.0065 92.7048 77.6489 95.2114 83.6014 95.2114C85.4296 95.2114 87.2877 94.9748 89.1355 94.4798C100.534 91.4254 107.323 79.6671 104.268 68.2688ZM52.401 92.3267C42.195 92.3267 33.8919 84.0236 33.8919 73.8176C33.8919 63.6117 42.195 55.3085 52.401 55.3085C57.6844 55.3085 62.6325 57.5226 66.1442 61.4196C65.7606 61.9622 65.399 62.5245 65.0625 63.1072C62.2043 68.0578 61.4451 73.8252 62.9246 79.3467C63.6035 81.8808 64.7126 84.1866 66.1523 86.2074C62.6399 90.1095 57.6863 92.3267 52.401 92.3267ZM88.387 91.6863C78.529 94.3271 68.3596 88.4565 65.7181 78.5984C64.4386 73.823 65.0952 68.8349 67.5671 64.5535C68.0233 63.7635 68.5313 63.0154 69.0862 62.3119C69.1101 62.2843 69.1324 62.2557 69.1541 62.2267C71.601 59.1622 74.9472 56.9636 78.8059 55.9296C80.4045 55.5013 82.0106 55.2968 83.5922 55.2968C91.7634 55.2968 99.2615 60.7579 101.475 69.0173C104.116 78.8755 98.245 89.0447 88.387 91.6863Z" fill="#C7C7C7"/>
<path d="M79.3615 70.9736C78.914 69.3031 77.1915 68.3079 75.5202 68.7558C73.8497 69.2035 72.8549 70.9265 73.3025 72.597C73.4757 73.243 74.0599 73.6693 74.6984 73.6693C74.8222 73.6693 74.9483 73.6532 75.0735 73.6195C75.845 73.4127 76.3027 72.6201 76.0959 71.8486C76.0611 71.7185 76.1385 71.5841 76.2686 71.5493C76.3493 71.5279 76.414 71.5507 76.4541 71.5737C76.4939 71.5968 76.5463 71.6413 76.5679 71.722C76.7746 72.4933 77.5672 72.9514 78.3389 72.7444C79.1105 72.5379 79.5681 71.7451 79.3615 70.9736Z" fill="#C7C7C7"/>
<path d="M92.4503 67.4661C92.2334 66.6569 91.7145 65.9806 90.989 65.5616C90.2635 65.1429 89.4182 65.0315 88.6091 65.2484C87.7999 65.4652 87.1235 65.9841 86.7048 66.7096C86.286 67.4352 86.1745 68.2802 86.3915 69.0896C86.5646 69.7357 87.1488 70.1617 87.7873 70.1617C87.9111 70.1616 88.0372 70.1457 88.1625 70.112C88.9339 69.9052 89.3916 69.1124 89.185 68.3409C89.1634 68.2603 89.1863 68.1957 89.2094 68.1556C89.2325 68.1156 89.2769 68.0634 89.3577 68.0419C89.4383 68.0204 89.5032 68.0433 89.5431 68.0663C89.583 68.0893 89.6352 68.1338 89.6569 68.2146C89.8635 68.986 90.6561 69.4439 91.4278 69.237C92.1993 69.0303 92.657 68.2376 92.4503 67.4661Z" fill="#C7C7C7"/>
<path d="M91.1838 76.5395C90.977 75.7681 90.1841 75.3101 89.4127 75.517C88.6412 75.7238 88.1836 76.5164 88.3903 77.2879C88.8823 79.1242 87.7886 81.0185 85.9523 81.5105C85.0626 81.749 84.1335 81.6264 83.3362 81.1661C82.5385 80.7055 81.968 79.9622 81.7298 79.0726C81.523 78.3012 80.7303 77.8429 79.9588 78.0502C79.1874 78.257 78.7297 79.0497 78.9363 79.8211C79.3747 81.4569 80.4237 82.824 81.8903 83.6707C82.867 84.2346 83.9513 84.5228 85.0499 84.5228C85.6007 84.5228 86.155 84.4506 86.7011 84.304C90.0775 83.3992 92.0884 79.9159 91.1838 76.5395Z" fill="#C7C7C7"/>
</g>
<defs>
<clipPath id="clip0">
<rect width="74" height="74" fill="white" transform="translate(31 27)"/>
</clipPath>
</defs>
</svg>
