<svg width="138" height="138" viewBox="0 0 138 138" fill="none" xmlns="http://www.w3.org/2000/svg">
<g clip-path="url(#clip0)">
<path d="M101.472 98.1058L90.4506 79.0168C90.8464 78.5556 91.3844 78.2144 92.0123 78.0664C93.7483 77.6574 95.1879 76.5011 95.9617 74.8941C96.7357 73.2872 96.742 71.4407 95.9795 69.8285C95.3957 68.5945 95.7293 67.133 96.7906 66.2745C98.1773 65.1526 98.9726 63.4863 98.9726 61.7027C98.9726 59.9192 98.1773 58.2527 96.7906 57.131C95.7293 56.2725 95.3957 54.8109 95.9795 53.577C96.7421 51.9646 96.7357 50.1182 95.9617 48.5112C95.1879 46.9043 93.7483 45.7479 92.0121 45.3389C90.6835 45.0259 89.7487 43.8539 89.7392 42.4888C89.7269 40.7052 88.9198 39.0445 87.5254 37.9324C86.1309 36.8204 84.332 36.4031 82.5907 36.788C81.2575 37.0823 79.907 36.432 79.3061 35.2062C78.521 33.6047 77.0735 32.4585 75.3345 32.0617C73.5954 31.6646 71.794 32.0694 70.3917 33.1717C69.3187 34.0154 67.8196 34.0154 66.7464 33.1717C65.3442 32.0694 63.5427 31.6649 61.8037 32.0617C60.0647 32.4585 58.6172 33.6047 57.8321 35.2062C57.2313 36.432 55.8802 37.0827 54.5477 36.788C52.8061 36.4034 51.0073 36.8204 49.613 37.9324C48.2186 39.0445 47.4116 40.7052 47.3992 42.4888C47.3897 43.8538 46.4549 45.0259 45.1261 45.3389C43.3901 45.7479 41.9505 46.9043 41.1767 48.5112C40.4027 50.1182 40.3964 51.9646 41.159 53.5768C41.7427 54.8108 41.4091 56.2724 40.3478 57.1309C38.9611 58.2527 38.1658 59.919 38.1658 61.7026C38.1658 63.4861 38.9611 65.1526 40.3478 66.2743C41.4091 67.1328 41.7427 68.5944 41.159 69.8284C40.3963 71.4407 40.4027 73.2872 41.1767 74.8941C41.9505 76.5011 43.3901 77.6574 45.1263 78.0664C45.7541 78.2143 46.2921 78.5556 46.688 79.0168L35.667 98.1058C35.3703 98.6199 35.4129 99.2622 35.7749 99.7325C36.137 100.203 36.747 100.408 37.3198 100.253L44.9959 98.1704L47.0305 105.859C47.1823 106.433 47.6653 106.859 48.2537 106.937C48.3187 106.946 48.3834 106.95 48.4478 106.95C48.9661 106.95 49.4524 106.674 49.7165 106.217L59.1205 89.9291C59.8653 90.6185 60.7837 91.1109 61.804 91.3438C63.5427 91.7404 65.3444 91.336 66.7468 90.2338C67.8199 89.3901 69.319 89.3901 70.3922 90.2338C71.4415 91.0586 72.7142 91.4929 74.0172 91.4929C74.4554 91.4929 74.8972 91.4438 75.3348 91.3438C76.3551 91.1109 77.2737 90.6185 78.0184 89.9291L87.4224 106.217C87.6865 106.675 88.1727 106.95 88.6911 106.95C88.7553 106.95 88.8202 106.946 88.8851 106.937C89.4735 106.859 89.9566 106.433 90.1084 105.859L92.143 98.1704L99.819 100.253C100.392 100.409 101.002 100.203 101.364 99.7325C101.726 99.2622 101.769 98.6199 101.472 98.1058ZM48.955 101.674L47.4522 95.9951C47.3523 95.6179 47.1062 95.2959 46.7683 95.1008C46.4302 94.9056 46.0285 94.8535 45.6518 94.9556L39.9823 96.4937L47.7868 82.9759C48.1561 83.9438 48.7784 84.8071 49.6133 85.473C51.0078 86.5851 52.8067 87.0023 54.548 86.6175C55.5316 86.4003 56.5239 86.6987 57.2184 87.3618L48.955 101.674ZM74.6825 88.4863C73.8099 88.6852 72.9067 88.4824 72.2036 87.9297C71.1336 87.0885 69.8517 86.668 68.5693 86.668C67.2873 86.668 66.0048 87.0886 64.9351 87.9297C64.232 88.4825 63.3288 88.6855 62.4562 88.4863C61.584 88.2873 60.858 87.7124 60.4642 86.9091C59.2663 84.4652 56.5731 83.1684 53.9157 83.7554C53.0421 83.9485 52.14 83.7392 51.4407 83.1814C50.7413 82.6236 50.3365 81.7908 50.3302 80.8962C50.3113 78.1746 48.4478 75.8378 45.7985 75.2136C44.9277 75.0084 44.2058 74.4285 43.8176 73.6225C43.4295 72.8164 43.4263 71.8905 43.8088 71.0817C44.9724 68.6214 44.3074 65.7074 42.1913 63.9957C41.4957 63.4331 41.097 62.5973 41.097 61.7027C41.097 60.8082 41.4959 59.9724 42.1914 59.4098C44.3074 57.698 44.9726 54.7841 43.8088 52.3236C43.4263 51.515 43.4295 50.5889 43.8177 49.783C44.2058 48.977 44.9279 48.397 45.7985 48.1919C48.4478 47.5677 50.3113 45.2309 50.3302 42.5093C50.3365 41.6147 50.7412 40.7817 51.4407 40.2241C52.14 39.6663 53.0419 39.4569 53.9158 39.65C56.573 40.2367 59.2663 38.9403 60.4642 36.4964C60.858 35.6931 61.584 35.1182 62.4562 34.9191C63.3286 34.7203 64.232 34.923 64.9351 35.4758C67.0749 37.158 70.0638 37.158 72.2036 35.4758C72.9069 34.923 73.8101 34.7203 74.6825 34.9191C75.5547 35.1182 76.2807 35.6931 76.6745 36.4964C77.8724 38.9403 80.5654 40.2367 83.223 39.65C84.0963 39.4567 84.9987 39.6663 85.698 40.2241C86.3974 40.7819 86.8022 41.6147 86.8085 42.5093C86.8274 45.2309 88.6909 47.5677 91.3402 48.1919C92.211 48.397 92.9329 48.977 93.3211 49.783C93.7092 50.589 93.7124 51.515 93.3299 52.3238C92.1663 54.7841 92.8313 57.698 94.9474 59.4098C95.643 59.9724 96.0417 60.8082 96.0417 61.7027C96.0417 62.5973 95.6428 63.4331 94.9473 63.9957C92.8313 65.7074 92.1661 68.6214 93.3299 71.0818C93.7124 71.8905 93.7092 72.8166 93.321 73.6225C92.9329 74.4285 92.2108 75.0084 91.3402 75.2136C88.6909 75.8378 86.8274 78.1746 86.8085 80.8962C86.8022 81.7908 86.3975 82.6238 85.698 83.1814C84.9987 83.7392 84.0966 83.9483 83.2229 83.7554C80.5654 83.1682 77.8724 84.4652 76.6745 86.9091C76.2807 87.7124 75.5547 88.2872 74.6825 88.4863ZM91.4869 94.9556C91.1101 94.8535 90.7084 94.9058 90.3704 95.1008C90.0325 95.2961 89.7863 95.6179 89.6865 95.9951L88.1837 101.674L79.9205 87.3618C80.6151 86.6985 81.6074 86.4 82.5907 86.6175C84.3324 87.0022 86.1309 86.5851 87.5254 85.473C88.3603 84.8073 88.9826 83.9438 89.3519 82.9759L97.1564 96.4937L91.4869 94.9556Z" fill="#C7C7C7"/>
<path d="M75.5422 72.7855C75.8446 72.7855 76.1469 72.6922 76.4037 72.5056C76.916 72.1334 77.1313 71.474 76.9374 70.8713L74.6273 63.689L80.7194 59.2128C81.2298 58.8378 81.4416 58.1771 81.2443 57.5752C81.0469 56.9734 80.4852 56.5664 79.8518 56.5664H72.3131L69.9622 49.4036C69.7647 48.8019 69.2031 48.395 68.5698 48.395C67.9366 48.395 67.3748 48.8019 67.1774 49.4036L64.8266 56.5664H57.2879C56.6545 56.5664 56.0926 56.9734 55.8953 57.5752C55.6979 58.1771 55.9097 58.8378 56.4203 59.2128L62.5123 63.689L60.2022 70.8713C60.0083 71.4742 60.2236 72.1334 60.736 72.5056C61.2485 72.8779 61.942 72.8788 62.4553 72.5081L68.5701 68.0931L74.6849 72.5081C74.9405 72.6931 75.2412 72.7855 75.5422 72.7855ZM69.4274 65.0974C69.1713 64.9124 68.8704 64.82 68.5695 64.82C68.2687 64.82 67.9678 64.9124 67.7116 65.0974L64.3593 67.5178L65.6254 63.5816C65.8184 62.9814 65.6061 62.325 65.098 61.9518L61.7573 59.4971H65.8878C66.521 59.4971 67.0827 59.0903 67.2802 58.4886L68.5695 54.5599L69.8589 58.4886C70.0565 59.0903 70.618 59.4971 71.2513 59.4971H75.3818L72.0411 61.9518C71.533 62.325 71.3206 62.9813 71.5136 63.5816L72.7797 67.5178L69.4274 65.0974Z" fill="#9387FF"/>
<path d="M89.0876 61.703C89.0876 50.3897 79.8835 41.1855 68.5702 41.1855C57.2569 41.1855 48.0527 50.3897 48.0527 61.703C48.0527 70.3096 53.4865 78.063 61.574 80.9962C62.3348 81.2721 63.1754 80.8791 63.4515 80.1182C63.7275 79.3573 63.3344 78.5169 62.5735 78.2407C55.6414 75.7266 50.9839 69.0806 50.9839 61.703C50.9839 52.0059 58.8732 44.1166 68.5703 44.1166C78.2674 44.1166 86.1567 52.0059 86.1567 61.703C86.1567 69.081 81.4988 75.7272 74.5662 78.2412C73.8053 78.5171 73.4121 79.3576 73.6881 80.1185C73.9042 80.7144 74.4666 81.0849 75.0658 81.0849C75.2317 81.0849 75.4004 81.0565 75.5654 80.9967C83.6534 78.0637 89.0876 70.3102 89.0876 61.703Z" fill="#C7C7C7"/>
<path d="M68.5691 79.2886C68.1836 79.2886 67.8055 79.4454 67.5329 79.718C67.2603 79.9906 67.1035 80.3687 67.1035 80.7542C67.1035 81.1396 67.2603 81.5177 67.5329 81.7903C67.8055 82.0629 68.1836 82.2197 68.5691 82.2197C68.9545 82.2197 69.3327 82.0629 69.6053 81.7903C69.8779 81.5177 70.0347 81.1396 70.0347 80.7542C70.0347 80.3687 69.8779 79.9906 69.6053 79.718C69.3327 79.4454 68.9545 79.2886 68.5691 79.2886Z" fill="#C7C7C7"/>
</g>
<circle cx="69" cy="69" r="67.5" stroke="#C4C4C4" stroke-width="3"/>
<defs>
<clipPath id="clip0">
<rect width="75.0375" height="75.0375" fill="white" transform="translate(31.0508 31.9126)"/>
</clipPath>
</defs>
</svg>
