<svg width="138" height="138" viewBox="0 0 138 138" fill="none" xmlns="http://www.w3.org/2000/svg">
<g clip-path="url(#clip0)">
<path d="M28.8631 77.3977C28.9176 77.8835 29.2168 78.309 29.655 78.5246C29.8261 78.6094 30.01 78.6382 30.1942 78.6511L30.1927 78.6698L66.9777 81.2085L64.9177 99.4551V99.458C64.8975 99.6449 64.9248 99.8288 64.9767 100.009C64.9896 100.053 65.0025 100.092 65.0198 100.135C65.0873 100.308 65.175 100.473 65.3087 100.611C65.4454 100.753 65.6076 100.864 65.7859 100.94C65.9628 101.015 66.154 101.055 66.3479 101.055C66.3811 101.055 66.414 101.053 66.4471 101.052L111.251 97.9598L111.249 97.941C111.433 97.9281 111.617 97.8994 111.788 97.8146C112.227 97.599 112.526 97.1734 112.58 96.6877L113.839 85.5309C113.874 85.2218 113.799 84.9229 113.651 84.6627L113.66 84.6569L107.783 74.3613C107.724 74.2592 107.654 74.1645 107.573 74.0794L93.655 59.5431C93.5731 59.4583 93.4825 59.3835 93.3833 59.3202L83.3538 53.0023L83.348 53.0109C83.0963 52.8528 82.8018 52.7651 82.4882 52.7853L73.505 53.4048L71.4896 35.5421L71.4782 35.5436C71.458 35.3597 71.4122 35.1784 71.3201 35.0118C71.0843 34.5835 70.6472 34.3031 70.1585 34.27L58.9572 33.4965C58.6466 33.4763 58.3506 33.564 58.0975 33.7236L58.0917 33.715L48.0622 40.0344C47.963 40.0962 47.8724 40.1722 47.7905 40.2573L33.8725 54.7936C33.7906 54.8784 33.72 54.9734 33.6625 55.0755L27.7863 65.3713L27.7948 65.3771C27.6467 65.6373 27.5705 65.9362 27.6065 66.2454L28.8631 77.3977ZM53.2694 47.0026L59.882 50.4914L44.6226 66.4278L40.8505 59.9733L53.2694 47.0026ZM88.1725 66.2914L100.591 79.2623L96.8192 85.7154L81.5598 69.7789L88.1725 66.2914ZM44.4874 70.3882L65.3674 78.2184L34.9478 76.1182L44.4874 70.3882ZM96.953 89.677L106.494 95.407L76.073 97.5072L96.953 89.677ZM109.973 94.1422L99.0575 87.5856L102.871 81.0606L110.881 86.1063L109.973 94.1422ZM94.5536 87.5064L68.9829 97.0962L79.6738 71.9668L94.5536 87.5064ZM68.8793 89.9905L72.2992 59.6917L77.6094 69.4713L68.8793 89.9905ZM70.123 54.301C70.0309 54.4677 69.9863 54.6489 69.9649 54.8328L69.9534 54.8314L69.0837 62.5322L63.8295 50.1837L69.1397 40.4042L70.6477 53.7617C70.4333 53.8913 70.2479 54.0723 70.123 54.301ZM68.4308 68.3385L67.5697 75.9718L46.8894 68.2164L61.7693 52.6769L68.4308 68.3385ZM38.572 61.7704L42.3857 68.2968L31.4707 74.8519L30.5637 66.8161L38.572 61.7704ZM105.371 75.9402L108.309 81.0879L103.295 77.9297L89.6215 63.6477L86.6833 58.4999L91.6973 61.6581L105.371 75.9402ZM81.7842 55.7154L86.4762 63.9352L79.7902 67.4615L73.7153 56.2719L81.7842 55.7154ZM67.7266 36.9846L61.6516 48.1742L54.9656 44.6479L59.6576 36.4267L67.7266 36.9846ZM36.0708 56.6514L49.7445 42.3694L54.7586 39.2112L51.8204 44.359L38.1466 58.6407L33.1326 61.7989L36.0708 56.6514Z" fill="#C7C7C7"/>
<path d="M82.2207 39.2427H85.0958V42.1178H82.2207V39.2427Z" fill="#9387FF"/>
<path d="M85.0957 36.3677H87.9708V39.2428H85.0957V36.3677Z" fill="#9387FF"/>
<path d="M87.9707 39.2427H90.8458V42.1178H87.9707V39.2427Z" fill="#9387FF"/>
<path d="M85.0957 42.1177H87.9708V44.9928H85.0957V42.1177Z" fill="#9387FF"/>
<path d="M89.4082 47.8677H92.2833V50.7428H89.4082V47.8677Z" fill="#9387FF"/>
<path d="M36.2207 90.9937H39.0958V93.8688H36.2207V90.9937Z" fill="#9387FF"/>
<path d="M39.0957 93.8687H41.9708V96.7438H39.0957V93.8687Z" fill="#9387FF"/>
<path d="M41.9707 90.9937H44.8458V93.8688H41.9707V90.9937Z" fill="#9387FF"/>
<path d="M39.0957 88.1187H41.9708V90.9938H39.0957V88.1187Z" fill="#9387FF"/>
<path d="M43.4082 82.3682H46.2833V85.2433H43.4082V82.3682Z" fill="#9387FF"/>
<path d="M106.658 56.4932H109.533V59.3683H106.658V56.4932Z" fill="#9387FF"/>
</g>
<circle cx="69" cy="69" r="67.5" stroke="#C4C4C4" stroke-width="3"/>
<defs>
<clipPath id="clip0">
<rect width="86.25" height="86.25" fill="white" transform="translate(27.5977 24.1494)"/>
</clipPath>
</defs>
</svg>
