<svg width="30" height="30" viewBox="0 0 30 30" fill="none" xmlns="http://www.w3.org/2000/svg">
<path d="M6.25 23.625V25.3125C6.25 25.5781 6.16016 25.8008 5.98047 25.9805C5.80078 26.1602 5.57812 26.25 5.3125 26.25H4.6875C4.42188 26.25 4.19922 26.1602 4.01953 25.9805C3.83984 25.8008 3.75 25.5781 3.75 25.3125V15.1875L6.40625 7.1875C6.46875 6.89583 6.62917 6.66667 6.8875 6.5C7.14583 6.33333 7.43333 6.25 7.75 6.25H11.7188V3.90625H18.3438V6.25H22.25C22.5667 6.25 22.8542 6.33333 23.1125 6.5C23.3708 6.66667 23.5312 6.89583 23.5938 7.1875L26.25 15.1875V25.3125C26.25 25.5781 26.1602 25.8008 25.9805 25.9805C25.8008 26.1602 25.5781 26.25 25.3125 26.25H24.6562C24.3906 26.25 24.168 26.1602 23.9883 25.9805C23.8086 25.8008 23.7188 25.5781 23.7188 25.3125V23.625H6.25ZM6.34375 13.3125H23.6562L21.9375 8.125H8.0625L6.34375 13.3125ZM8.93016 20.1875C9.41422 20.1875 9.81771 20.0234 10.1406 19.6953C10.4635 19.3672 10.625 18.9688 10.625 18.5C10.625 18.0139 10.4609 17.6007 10.1328 17.2604C9.80469 16.9201 9.40625 16.75 8.9375 16.75C8.4514 16.75 8.0382 16.9194 7.69791 17.2583C7.35764 17.5971 7.1875 18.0086 7.1875 18.4927C7.1875 18.9767 7.35693 19.3802 7.69578 19.7031C8.03461 20.026 8.44607 20.1875 8.93016 20.1875ZM21.0938 20.1875C21.5799 20.1875 21.9931 20.0234 22.3333 19.6953C22.6736 19.3672 22.8438 18.9688 22.8438 18.5C22.8438 18.0139 22.6743 17.6007 22.3355 17.2604C21.9966 16.9201 21.5852 16.75 21.1011 16.75C20.617 16.75 20.2135 16.9194 19.8906 17.2583C19.5677 17.5971 19.4062 18.0086 19.4062 18.4927C19.4062 18.9767 19.5703 19.3802 19.8984 19.7031C20.2266 20.026 20.625 20.1875 21.0938 20.1875ZM5.625 21.75H24.375V15.1875H5.625V21.75Z" fill="white"/>
</svg>
