<svg width="71" height="25" viewBox="0 0 71 25" fill="none" xmlns="http://www.w3.org/2000/svg">
<g clip-path="url(#clip0_6071_26186)">
<path d="M3.25376 6.58074C3.39281 6.74877 3.53186 6.88879 3.67091 7.02881C4.11588 7.47689 4.86676 6.83278 4.42179 6.38471C4.39398 6.3567 4.36617 6.3287 4.33836 6.30069C4.56085 6.21668 4.81114 6.13266 5.00581 6.04865C5.53421 5.82461 6.0348 5.51656 6.47976 5.1525C7.84247 4.64842 8.9827 3.50023 8.4543 1.87595C7.78685 -0.112377 4.4496 0.307693 3.00346 0.783773C1.86323 1.14783 0.583955 1.81995 0.166799 3.02415C-0.278168 4.28436 0.111178 5.68459 1.30703 6.30069C1.89104 6.63675 2.58631 6.66475 3.25376 6.58074ZM5.39516 3.38821C5.42297 3.47222 5.42297 3.55623 5.42297 3.64025C5.39516 3.69626 5.39516 3.75227 5.39516 3.80828C5.33954 4.03231 5.17267 4.25635 5.00581 4.48039C4.83895 4.48039 4.64428 4.48039 4.50522 4.48039C4.28274 4.45238 4.00464 4.42438 3.75434 4.34037C3.78215 4.11633 3.97683 3.86429 4.31055 3.61224C4.58866 3.41621 4.89457 3.27619 5.2561 3.19217C5.28392 3.22018 5.36735 3.30419 5.39516 3.38821ZM5.31173 2.156C5.11705 2.09999 4.89457 2.04398 4.6999 2.04398C4.83895 1.98797 4.95019 1.93196 5.06143 1.90396C5.36735 1.81995 5.81231 1.81995 6.00699 2.128C5.7845 2.128 5.53421 2.128 5.31173 2.156ZM7.61999 2.63208C7.42532 2.49206 7.23065 2.40804 7.00816 2.32403C7.00816 2.09999 6.98035 1.87595 6.86911 1.67992C6.92473 1.70793 7.00816 1.73593 7.06378 1.76394C7.45313 1.95997 7.61999 2.29602 7.61999 2.63208ZM1.27922 3.05215C1.72418 2.35203 2.5585 1.98797 3.365 1.73593C3.03127 2.04398 2.72536 2.38004 2.50287 2.71609C2.3082 2.99614 2.19696 3.3322 2.16915 3.61224C1.97448 4.28436 2.19696 4.98447 2.55849 5.60058C2.28039 5.57257 2.00229 5.51656 1.75199 5.43255C0.862059 5.09649 0.834249 3.75227 1.27922 3.05215Z" fill="white"/>
<path d="M31.8704 5.18033C33.2331 4.67625 34.3733 3.52806 33.8449 1.90379C33.1775 -0.0845447 29.8402 0.335525 28.3941 0.811605C27.2539 1.17567 25.9746 1.84778 25.5574 3.05198C25.1125 4.31219 25.5018 5.71242 26.6977 6.32852C27.2817 6.63658 27.9769 6.66458 28.6444 6.58057C28.7834 6.74859 28.9225 6.88862 29.0615 7.02864C29.5065 7.47672 30.2574 6.83261 29.8124 6.38453C29.7846 6.35653 29.7568 6.32852 29.729 6.30052C29.9515 6.21651 30.2018 6.13249 30.3964 6.04848C30.9248 5.85245 31.4254 5.54439 31.8704 5.18033ZM30.758 3.38803C30.7858 3.47205 30.7858 3.55606 30.7858 3.64008C30.758 3.69609 30.758 3.7521 30.758 3.8081C30.7024 4.03214 30.5355 4.25618 30.3686 4.48022C30.2018 4.48022 30.0071 4.48022 29.868 4.48022C29.6456 4.45221 29.3674 4.42421 29.1172 4.34019C29.145 4.11616 29.3396 3.86411 29.6734 3.61207C29.9515 3.41604 30.2574 3.27602 30.6189 3.192C30.6467 3.22001 30.7302 3.30402 30.758 3.38803ZM30.6745 2.15583C30.4799 2.09982 30.2574 2.04381 30.0627 2.04381C30.2018 1.9878 30.313 1.93179 30.4242 1.90379C30.7302 1.81977 31.1751 1.81977 31.3698 2.12782C31.1473 2.12782 30.897 2.12782 30.6745 2.15583ZM32.9828 2.63191C32.7881 2.49188 32.5935 2.40787 32.371 2.32386C32.371 2.09982 32.3432 1.87578 32.2319 1.67975C32.2875 1.70775 32.371 1.73576 32.4266 1.76376C32.8159 1.9598 32.9828 2.29585 32.9828 2.63191ZM27.1148 5.43237C26.2249 5.06831 26.1971 3.75209 26.642 3.02397C27.087 2.32386 27.9213 1.9598 28.7278 1.70775C28.3663 2.01581 28.0604 2.35186 27.8379 2.68792C27.6432 2.96796 27.532 3.30402 27.5042 3.58407C27.3095 4.25618 27.532 4.9563 27.8935 5.5724C27.6432 5.6004 27.3651 5.54439 27.1148 5.43237Z" fill="white"/>
<path d="M45.5518 11.3135C45.4405 11.1455 45.3015 11.0055 45.1346 10.9214C45.0512 10.8654 44.9677 10.8374 44.8843 10.8094L44.8009 10.7814L44.7453 10.7534C44.6896 10.7254 44.6618 10.7254 44.6062 10.7254C44.2447 10.6414 43.8553 10.6414 43.4104 10.7534C43.2713 10.7814 43.0488 10.9214 42.882 11.0895C42.7151 11.2855 42.6039 11.5095 42.5482 11.6496C42.5482 11.7056 42.3257 13.1058 43.7163 13.6099C43.7163 13.6099 43.7441 13.6379 43.7997 13.6379L43.8831 13.6659C43.9388 13.6939 43.9944 13.6939 44.05 13.7219C44.05 13.7219 44.1612 13.7499 44.189 13.7499H44.2169C44.2725 13.7499 44.3003 13.7499 44.3559 13.7499C44.4393 13.7499 44.5506 13.7499 44.634 13.7219C44.9399 13.6659 45.218 13.4979 45.4127 13.2738C45.5239 13.1618 45.5796 13.0218 45.663 12.8538C45.7186 12.7137 45.7464 12.5457 45.7742 12.3777C45.8021 12.1817 45.7742 11.9856 45.7186 11.8176C45.7186 11.6496 45.663 11.4815 45.5518 11.3135Z" fill="white"/>
<path d="M59.3202 22.3194L58.4859 21.8713C56.2888 20.7511 54.0362 19.5749 52.5901 17.7546C53.5912 16.7184 54.648 15.7103 55.8995 14.6741C56.3445 14.31 56.4001 13.6379 56.0386 13.2179C55.677 12.7698 55.0096 12.7138 54.5924 13.0778C53.035 14.3661 51.7279 15.6543 50.5043 16.9705C50.6711 16.6344 50.8658 16.2984 51.0327 15.9623C51.3108 15.4302 51.5889 14.9261 51.8392 14.4501C51.9226 14.31 51.9504 14.142 51.9504 13.974C51.9504 13.5819 51.7279 13.2179 51.3664 13.0498C50.8658 12.7978 50.2262 12.9938 49.9759 13.5259C49.7534 13.974 49.4753 14.4781 49.1972 14.9822C48.057 17.1385 46.7499 19.5749 46.6386 21.9553C46.6108 22.4034 46.8889 22.8235 47.3339 22.9635C47.751 23.1035 48.2238 22.9635 48.5019 22.6274C49.3919 21.4512 50.254 20.3591 51.1717 19.2949C52.896 21.3392 55.3433 22.5994 57.5403 23.7196L58.3746 24.1397C58.8752 24.3917 59.5149 24.1957 59.7651 23.6916C60.0154 23.2155 59.8208 22.5994 59.3202 22.3194Z" fill="white"/>
<path d="M43.745 14.9263C43.161 14.9263 42.716 15.4023 42.716 15.9624C42.716 17.2227 42.4379 18.3428 42.1598 19.519C41.993 20.2472 41.7983 21.0313 41.687 21.8434C41.6036 22.4035 41.993 22.9356 42.5492 23.0196C43.1054 23.1036 43.6338 22.7116 43.7172 22.1515C43.8284 21.4234 43.9953 20.7232 44.1622 19.9951C44.4681 18.7349 44.774 17.4467 44.774 15.9344C44.774 15.3743 44.3012 14.9263 43.745 14.9263Z" fill="white"/>
<path d="M70.9441 20.8353C70.7494 20.3032 70.1654 19.9952 69.637 20.1912C67.9962 20.7513 64.6589 21.1153 62.6566 20.0512C62.2394 19.8271 61.9057 19.5471 61.6554 19.211C63.7968 18.3989 65.0483 17.3907 65.4654 16.1865C65.5767 15.8505 65.6323 15.5704 65.6323 15.3184C65.6323 14.5903 65.2429 14.1702 65.0205 14.0022C63.8524 13.078 61.8501 14.0022 61.1548 14.4222C59.9868 15.1223 59.2081 16.5226 59.1525 17.8948C58.8744 18.0908 58.6797 18.3989 58.6797 18.763C58.6797 18.847 58.6797 18.959 58.7075 19.043C58.8187 19.4631 59.1525 19.7151 59.5418 19.7991C59.9868 20.6673 60.7098 21.3954 61.6554 21.8995C64.353 23.3277 68.3577 22.7956 70.2488 22.1515C70.8607 21.9555 71.1388 21.3674 70.9441 20.8353ZM62.2116 16.0745L62.2394 16.0465C62.601 15.8225 63.0459 15.6824 63.3796 15.7384C63.185 16.0185 62.74 16.6066 61.4607 17.0547C61.6554 16.7186 61.9057 16.2705 62.2116 16.0745Z" fill="white"/>
<path d="M40.0489 17.1106C39.3258 15.6824 37.4069 15.6264 35.7661 15.8784C36.2389 14.6182 36.7673 13.33 37.4903 11.9018C37.7406 11.3977 37.5459 10.7536 37.0175 10.5015C36.517 10.2495 35.8773 10.4455 35.627 10.9776C34.6259 12.966 33.9584 14.6742 33.3744 16.4105C32.9016 16.6066 32.6513 17.1106 32.7904 17.6427C32.8182 17.7548 32.846 17.8388 32.9016 17.9228C32.5679 19.015 32.262 20.1351 31.9004 21.3954L31.7614 21.9274C31.6501 22.3195 31.7614 22.7116 32.0395 22.9636C32.2342 23.4957 32.8182 23.8038 33.3466 23.6077C34.904 23.0756 36.8785 22.2915 38.4359 21.0873C39.1589 20.5272 40.2714 19.295 40.2714 18.0348C40.2436 17.7267 40.1879 17.4187 40.0489 17.1106ZM37.1566 19.435C37.1288 19.435 37.1288 19.435 37.1566 19.435C36.2667 20.1351 35.1542 20.6952 34.1253 21.1153C34.4312 20.0511 34.7093 19.099 34.9874 18.1468C37.4903 17.5867 38.1022 17.9508 38.1856 18.0348C38.1856 18.2868 37.7406 18.987 37.1566 19.435Z" fill="white"/>
<path d="M27.4486 11.2576C27.4208 11.2576 27.4208 11.2576 27.393 11.2576C26.948 11.2576 26.3362 11.6496 26.2527 12.2657C26.2249 12.3777 26.2527 12.3217 26.2249 12.4337C25.5575 16.8865 22.6374 20.163 18.3824 21.5633C14.628 22.8235 9.98365 22.3754 6.81326 19.883C4.28252 17.8947 3.50382 14.7581 4.00441 11.6776C4.11565 11.0055 3.25353 10.7255 2.75294 10.8375C2.39141 10.9215 2.14111 11.1175 2.00206 11.3976C1.8352 11.6776 1.75177 11.9577 1.69615 12.2657C1.00089 16.6344 3.05886 20.5831 6.9245 22.6274C10.7623 24.6718 15.5179 24.9238 19.6339 23.6356C24.4729 22.1514 28.1717 18.3427 28.6723 13.1339C28.6723 13.0779 28.6723 12.9938 28.6723 12.9658C28.7279 11.8176 28.116 11.2576 27.4486 11.2576Z" fill="white"/>
</g>
<defs>
<clipPath id="clip0_6071_26186">
<rect width="71" height="24" fill="white" transform="translate(0 0.419922)"/>
</clipPath>
</defs>
</svg>
