<svg width="254" height="236" viewBox="0 0 254 236" fill="none" xmlns="http://www.w3.org/2000/svg">
<path d="M0.324219 117.26L150.324 117.26" stroke="white" stroke-width="4"/>
<path d="M158.484 117.26L253.484 117.26" stroke="white" stroke-width="4"/>
<rect width="154.972" height="237.304" rx="10" transform="matrix(0.999919 -0.0126935 -0.186315 0.98249 75.2031 1.96729)" fill="#E099E1"/>
<path d="M92.5247 66.0949L94.9617 53.2439L97.2815 53.2145L96.3015 58.3824L101.601 58.3151L102.581 53.1472L104.901 53.1177L102.464 65.9687L100.144 65.9982L101.225 60.2997L95.9251 60.367L94.8445 66.0654L92.5247 66.0949ZM108.46 66.1278C107.407 66.1412 106.704 65.8169 106.351 65.1549C105.997 64.4929 105.936 63.5527 106.167 62.3344L107.315 56.2823L109.615 56.2531L108.523 62.0105C108.371 62.8096 108.385 63.3714 108.563 63.6958C108.74 64.0203 109.096 64.1791 109.629 64.1723C110.056 64.1669 110.449 64.0574 110.809 63.8437C111.182 63.6299 111.6 63.2848 112.062 62.8085L113.315 56.2061L115.614 56.1769L113.785 65.825L111.905 65.8489L111.993 64.4364L111.933 64.4371C111.412 64.9403 110.87 65.3458 110.306 65.6535C109.742 65.9613 109.127 66.1193 108.46 66.1278ZM116.698 65.788L118.527 56.14L120.427 56.1158L120.338 57.4303L120.418 57.4293C120.913 56.9918 121.429 56.6193 121.966 56.3119C122.517 56.0044 123.098 55.8467 123.712 55.8389C124.432 55.8298 124.975 55.9797 125.342 56.2887C125.725 56.5844 125.979 56.9994 126.104 57.5336C126.665 57.0299 127.229 56.611 127.798 56.2771C128.38 55.943 128.978 55.7721 129.591 55.7643C130.631 55.7511 131.334 56.0754 131.701 56.7372C132.068 57.3991 132.135 58.3391 131.904 59.5574L130.757 65.6095L128.437 65.639L129.529 59.8816C129.68 59.0825 129.66 58.5208 129.469 58.1965C129.291 57.8721 128.949 57.7131 128.442 57.7195C127.829 57.7273 127.067 58.1356 126.155 58.9443L124.877 65.6842L122.577 65.7134L123.669 59.956C123.821 59.1569 123.801 58.5952 123.61 58.2709C123.432 57.9465 123.083 57.7875 122.563 57.7941C121.95 57.8019 121.187 58.2102 120.276 59.0189L118.998 65.7588L116.698 65.788ZM135.887 65.7796C135.034 65.7905 134.383 65.5374 133.936 65.0203C133.502 64.5031 133.365 63.8253 133.524 62.9869C133.72 61.952 134.332 61.1471 135.358 60.5721C136.388 59.984 137.929 59.5724 139.981 59.3373C140.065 58.8265 140.008 58.3895 139.811 58.026C139.63 57.6494 139.206 57.4653 138.539 57.4737C138.059 57.4798 137.569 57.5775 137.067 57.7668C136.579 57.956 136.09 58.1844 135.601 58.4519L135.048 56.9496C135.659 56.602 136.328 56.2995 137.055 56.042C137.796 55.7843 138.553 55.6505 139.326 55.6407C140.552 55.6251 141.397 55.9738 141.861 56.6867C142.34 57.3863 142.451 58.4107 142.196 59.76L141.111 65.4781L139.211 65.5022L139.253 64.4432L139.173 64.4442C138.663 64.8166 138.131 65.1304 137.578 65.3857C137.037 65.6409 136.474 65.7722 135.887 65.7796ZM136.962 64.0018C137.362 63.9967 137.74 63.9004 138.094 63.713C138.465 63.5122 138.868 63.2458 139.303 62.9135L139.713 60.752C138.348 60.9393 137.373 61.2065 136.788 61.5537C136.206 61.8878 135.869 62.2972 135.777 62.7819C135.695 63.2142 135.769 63.5269 135.998 63.72C136.228 63.9131 136.549 64.007 136.962 64.0018ZM143.864 65.4432L145.693 55.7951L147.593 55.771L147.507 57.0658L147.587 57.0648C148.106 56.64 148.655 56.2737 149.232 55.9658C149.809 55.6579 150.431 55.4997 151.097 55.4913C152.151 55.4779 152.854 55.8022 153.207 56.4642C153.56 57.1262 153.622 58.0664 153.391 59.2846L152.243 65.3368L149.943 65.366L151.035 59.6086C151.186 58.8095 151.173 58.2477 150.995 57.9233C150.817 57.5988 150.455 57.4401 149.909 57.447C149.482 57.4524 149.082 57.562 148.709 57.7759C148.352 57.9764 147.929 58.2758 147.441 58.6741L146.163 65.414L143.864 65.4432ZM155.054 65.3011L156.884 55.653L159.183 55.6239L157.354 65.2719L155.054 65.3011ZM158.364 53.9484C157.951 53.9537 157.64 53.84 157.431 53.6074C157.223 53.3749 157.156 53.0621 157.23 52.6691C157.302 52.2892 157.487 51.9797 157.785 51.7407C158.083 51.5017 158.439 51.3796 158.852 51.3743C159.265 51.3691 159.576 51.4827 159.785 51.7153C159.994 51.9479 160.062 52.2541 159.99 52.634C159.915 53.027 159.729 53.343 159.431 53.582C159.133 53.8211 158.777 53.9432 158.364 53.9484ZM163.703 65.4265C162.57 65.4409 161.824 65.1302 161.466 64.4944C161.123 63.8453 161.05 63.0034 161.247 61.9685L162.118 57.3704L160.719 57.3882L161.039 55.6983L162.578 55.5808L163.357 52.9441L165.277 52.9198L164.777 55.5528L167.277 55.5211L166.938 57.3092L164.438 57.341L163.566 61.939C163.353 63.0656 163.706 63.6231 164.626 63.6114C164.799 63.6092 164.983 63.5873 165.177 63.5456C165.373 63.4908 165.543 63.4364 165.687 63.3823L165.77 65.0475C165.486 65.1425 165.164 65.225 164.805 65.2949C164.457 65.3778 164.09 65.4216 163.703 65.4265ZM167.514 65.1429L169.344 55.4949L171.643 55.4657L169.814 65.1137L167.514 65.1429ZM170.824 53.7903C170.411 53.7955 170.1 53.6818 169.891 53.4493C169.683 53.2167 169.615 52.9039 169.69 52.5109C169.762 52.131 169.947 51.8215 170.245 51.5825C170.543 51.3435 170.899 51.2214 171.312 51.2161C171.725 51.2109 172.036 51.3246 172.245 51.5571C172.454 51.7897 172.522 52.096 172.45 52.4759C172.375 52.8689 172.189 53.1849 171.891 53.4239C171.593 53.6629 171.237 53.785 170.824 53.7903ZM176.903 65.259C175.996 65.2705 175.214 65.0844 174.555 64.7007C173.899 64.3039 173.428 63.7349 173.143 62.9936C172.86 62.2392 172.82 61.3315 173.021 60.2704C173.22 59.2224 173.604 58.3158 174.175 57.5506C174.759 56.7852 175.436 56.1951 176.207 55.7802C176.977 55.3653 177.742 55.153 178.502 55.1434C179.395 55.132 180.105 55.3191 180.63 55.7044C181.158 56.0767 181.509 56.6081 181.684 57.2985C181.862 57.9758 181.865 58.7664 181.693 59.6703C181.604 60.1418 181.501 60.5091 181.385 60.7719L175.145 60.8511C175.09 61.7013 175.278 62.3588 175.709 62.8238C176.139 63.2888 176.748 63.5163 177.534 63.5063C177.961 63.5009 178.366 63.437 178.748 63.3145C179.146 63.1788 179.546 62.9973 179.948 62.77L180.46 64.1749C179.936 64.4821 179.369 64.7376 178.759 64.9414C178.148 65.1451 177.529 65.251 176.903 65.259ZM175.416 59.3187L179.776 59.2633C179.917 58.5167 179.861 57.9358 179.607 57.5209C179.356 57.0928 178.897 56.883 178.23 56.8915C177.657 56.8987 177.104 57.1148 176.571 57.5398C176.054 57.9515 175.669 58.5444 175.416 59.3187ZM185.579 65.1488C184.912 65.1573 184.269 65.0413 183.65 64.8009C183.033 64.5473 182.52 64.2337 182.113 63.8599L183.468 62.3921C183.846 62.714 184.236 62.9704 184.639 63.1613C185.042 63.3522 185.49 63.4445 185.983 63.4383C186.516 63.4315 186.931 63.3152 187.226 63.0893C187.522 62.8633 187.701 62.5866 187.763 62.2591C187.815 61.984 187.751 61.7627 187.57 61.5951C187.404 61.4143 187.174 61.2604 186.879 61.1334C186.586 60.9934 186.279 60.8601 185.957 60.7335C185.561 60.5817 185.17 60.3972 184.786 60.1799C184.417 59.9493 184.133 59.6589 183.933 59.3086C183.736 58.9452 183.689 58.4949 183.79 57.9578C183.952 57.1063 184.404 56.408 185.145 55.8628C185.887 55.3175 186.805 55.038 187.898 55.0241C188.591 55.0153 189.189 55.1253 189.691 55.3542C190.193 55.5831 190.615 55.8456 190.958 56.1418L189.637 57.5308C189.338 57.2863 189.022 57.0942 188.689 56.9547C188.372 56.8019 188.02 56.728 187.634 56.7329C187.14 56.7391 186.754 56.8486 186.474 57.0612C186.197 57.2608 186.03 57.5112 185.973 57.8125C185.901 58.1924 186.046 58.4781 186.409 58.6695C186.771 58.8609 187.202 59.0449 187.7 59.2215C188.124 59.373 188.527 59.5639 188.909 59.7943C189.293 60.0116 189.59 60.3018 189.801 60.6651C190.025 61.0281 190.079 61.511 189.965 62.1136C189.808 62.9389 189.348 63.6504 188.583 64.2482C187.82 64.8329 186.819 65.1331 185.579 65.1488ZM94.2164 95.7124C93.3632 95.7232 92.7129 95.4701 92.2657 94.953C91.8317 94.4358 91.6943 93.758 91.8533 92.9196C92.0495 91.8847 92.661 91.0798 93.6878 90.5048C94.717 89.9168 96.2581 89.5051 98.311 89.27C98.3945 88.7593 98.3378 88.3222 98.1407 87.9588C97.9594 87.5821 97.5355 87.398 96.8688 87.4065C96.3889 87.4125 95.8982 87.5103 95.3968 87.6996C94.9087 87.8887 94.4199 88.1171 93.9302 88.3847L93.3772 86.8823C93.9884 86.5348 94.6576 86.2322 95.3847 85.9747C96.1252 85.717 96.8821 85.5833 97.6554 85.5734C98.8819 85.5579 99.7269 85.9065 100.19 86.6194C100.669 87.319 100.781 88.3434 100.525 89.6927L99.4407 95.4108L97.5409 95.4349L97.5821 94.3759L97.5021 94.3769C96.9926 94.7493 96.4609 95.0631 95.9071 95.3185C95.3666 95.5736 94.8031 95.7049 94.2164 95.7124ZM95.2917 93.9345C95.6917 93.9294 96.0691 93.8332 96.4238 93.6457C96.7944 93.445 97.1974 93.1785 97.6328 92.8462L98.0427 90.6848C96.6772 90.872 95.7021 91.1392 95.1176 91.4864C94.5355 91.8205 94.1985 92.2299 94.1066 92.7146C94.0246 93.1469 94.0983 93.4596 94.3277 93.6527C94.5571 93.8458 94.8784 93.9397 95.2917 93.9345ZM102.193 95.3759L104.023 85.7278L105.922 85.7037L105.837 86.9986L105.917 86.9976C106.436 86.5728 106.984 86.2064 107.561 85.8985C108.138 85.5906 108.76 85.4325 109.427 85.424C110.48 85.4106 111.183 85.7349 111.537 86.3969C111.89 87.0589 111.951 87.9991 111.72 89.2174L110.572 95.2695L108.273 95.2987L109.364 89.5413C109.516 88.7422 109.503 88.1805 109.325 87.856C109.147 87.5316 108.785 87.3728 108.238 87.3797C107.811 87.3852 107.412 87.4948 107.039 87.7086C106.681 87.9092 106.259 88.2086 105.771 88.6068L104.493 95.3467L102.193 95.3759ZM116.779 95.426C115.552 95.4415 114.657 95.0086 114.092 94.1271C113.528 93.2456 113.396 92.0123 113.697 90.4272C113.895 89.3793 114.26 88.4729 114.791 87.7082C115.335 86.9433 115.965 86.3538 116.682 85.9396C117.399 85.5254 118.111 85.3138 118.818 85.3048C119.378 85.2977 119.832 85.3899 120.182 85.5815C120.547 85.7598 120.885 86.0104 121.196 86.3331L121.411 84.7818L122.074 81.2841L124.374 81.255L121.743 95.1277L119.843 95.1518L119.881 94.1124L119.801 94.1134C119.373 94.4717 118.896 94.7783 118.369 95.0333C117.842 95.2883 117.312 95.4192 116.779 95.426ZM117.692 93.5521C118.426 93.5428 119.181 93.1739 119.957 92.4452L120.811 87.9454C120.534 87.6484 120.241 87.443 119.93 87.3293C119.619 87.2157 119.297 87.1609 118.964 87.1652C118.337 87.1731 117.744 87.4616 117.183 88.0307C116.639 88.5865 116.271 89.3687 116.08 90.3774C115.884 91.4123 115.927 92.2024 116.209 92.7476C116.491 93.2929 116.986 93.5611 117.692 93.5521ZM132.65 95.2245C131.77 95.2357 130.948 95.0827 130.184 94.7657C129.432 94.4486 128.801 93.9927 128.288 93.398L129.943 91.8284C130.327 92.2548 130.793 92.6017 131.341 92.8692C131.892 93.1236 132.467 93.247 133.067 93.2393C133.813 93.2299 134.408 93.072 134.852 92.7658C135.296 92.4596 135.565 92.0576 135.659 91.5598C135.761 91.0227 135.641 90.6387 135.299 90.4078C134.971 90.1768 134.537 89.9405 133.997 89.6991L132.343 88.9556C131.951 88.7776 131.576 88.5471 131.217 88.2642C130.872 87.9811 130.608 87.6185 130.426 87.1765C130.257 86.7343 130.232 86.1988 130.351 85.57C130.481 84.8888 130.783 84.2773 131.258 83.7355C131.749 83.1804 132.351 82.7415 133.064 82.4188C133.792 82.0828 134.583 81.9094 135.437 81.8986C136.197 81.889 136.901 82.0303 137.551 82.3226C138.203 82.6019 138.735 82.9872 139.147 83.4785L137.691 84.9476C137.343 84.6122 136.954 84.3493 136.524 84.1587C136.108 83.968 135.62 83.8761 135.06 83.8832C134.447 83.891 133.921 84.0349 133.482 84.3149C133.059 84.5817 132.803 84.9508 132.714 85.4224C132.651 85.7499 132.693 86.0238 132.837 86.2442C132.997 86.4512 133.222 86.6313 133.513 86.7845C133.805 86.9245 134.118 87.0643 134.451 87.2038L136.093 87.9083C136.804 88.2259 137.355 88.6502 137.746 89.181C138.14 89.6988 138.249 90.4227 138.073 91.3528C137.941 92.0471 137.634 92.6848 137.151 93.2659C136.669 93.847 136.041 94.3189 135.267 94.6816C134.509 95.031 133.637 95.212 132.65 95.2245ZM143.548 95.0861C142.735 95.0965 142.012 94.9096 141.38 94.5256C140.75 94.1285 140.286 93.5593 139.988 92.8182C139.692 92.064 139.645 91.1564 139.846 90.0953C140.05 89.0211 140.442 88.1079 141.024 87.3556C141.608 86.5902 142.29 86.0065 143.071 85.6046C143.855 85.1895 144.654 84.9768 145.467 84.9665C146.293 84.956 147.022 85.1493 147.651 85.5464C148.283 85.9305 148.747 86.4996 149.043 87.2538C149.341 87.9949 149.389 88.9025 149.185 89.9767C148.984 91.0378 148.591 91.9511 148.007 92.7164C147.426 93.4687 146.743 94.0524 145.959 94.4675C145.178 94.8694 144.374 95.0756 143.548 95.0861ZM143.898 93.2391C144.618 93.2299 145.241 92.928 145.766 92.3332C146.291 91.7385 146.644 90.963 146.825 90.0067C147.009 89.0373 146.95 88.2605 146.649 87.6762C146.347 87.092 145.836 86.8044 145.117 86.8136C144.397 86.8227 143.774 87.1247 143.249 87.7194C142.737 88.314 142.389 89.0959 142.206 90.0653C142.024 91.0216 142.078 91.792 142.366 92.3764C142.667 92.9606 143.178 93.2482 143.898 93.2391ZM154.603 94.9458C153.71 94.9571 152.941 94.7709 152.295 94.387C151.666 93.9899 151.209 93.4207 150.923 92.6794C150.654 91.9249 150.62 91.0171 150.821 89.956C151.025 88.8818 151.424 87.9685 152.019 87.216C152.617 86.4505 153.326 85.8665 154.147 85.464C154.984 85.0482 155.836 84.8349 156.702 84.8239C157.329 84.8159 157.856 84.9138 158.283 85.1174C158.71 85.3211 159.074 85.5713 159.377 85.868L157.978 87.356C157.767 87.1365 157.539 86.9695 157.295 86.855C157.053 86.7274 156.779 86.6655 156.472 86.6694C155.686 86.6794 154.983 86.9824 154.365 87.5783C153.76 88.174 153.365 88.9566 153.181 89.926C153 90.8823 153.093 91.6521 153.462 92.2355C153.843 92.8188 154.42 93.1055 155.194 93.0957C155.58 93.0908 155.955 93.0076 156.318 92.8462C156.697 92.6715 157.048 92.471 157.37 92.2447L158.027 93.7262C157.499 94.1249 156.936 94.4261 156.339 94.6297C155.742 94.8333 155.163 94.9387 154.603 94.9458ZM159.786 94.6448L161.616 84.9967L163.915 84.9675L162.086 94.6156L159.786 94.6448ZM163.096 83.2921C162.683 83.2974 162.372 83.1837 162.163 82.9511C161.955 82.7185 161.888 82.4057 161.962 82.0127C162.034 81.6328 162.219 81.3234 162.517 81.0844C162.815 80.8454 163.171 80.7232 163.584 80.718C163.997 80.7127 164.308 80.8264 164.517 81.059C164.726 81.2916 164.794 81.5978 164.722 81.9777C164.647 82.3707 164.461 82.6867 164.163 82.9257C163.865 83.1647 163.509 83.2869 163.096 83.2921ZM167.355 94.7839C166.502 94.7948 165.852 94.5416 165.404 94.0246C164.97 93.5074 164.833 92.8296 164.992 91.9912C165.188 90.9563 165.8 90.1513 166.826 89.5764C167.856 88.9883 169.397 88.5767 171.45 88.3415C171.533 87.8308 171.476 87.3937 171.279 87.0303C171.098 86.6536 170.674 86.4695 170.007 86.478C169.528 86.4841 169.037 86.5818 168.535 86.7711C168.047 86.9603 167.558 87.1886 167.069 87.4562L166.516 85.9538C167.127 85.6063 167.796 85.3038 168.523 85.0463C169.264 84.7886 170.021 84.6548 170.794 84.645C172.021 84.6294 172.866 84.9781 173.329 85.6909C173.808 86.3905 173.92 87.415 173.664 88.7643L172.579 94.4824L170.68 94.5065L170.721 93.4474L170.641 93.4484C170.131 93.8208 169.6 94.1347 169.046 94.39C168.505 94.6452 167.942 94.7765 167.355 94.7839ZM168.43 93.006C168.83 93.001 169.208 92.9047 169.562 92.7172C169.933 92.5165 170.336 92.25 170.771 91.9178L171.181 89.7563C169.816 89.9435 168.841 90.2107 168.256 90.5579C167.674 90.892 167.337 91.3014 167.245 91.7861C167.163 92.2184 167.237 92.5311 167.466 92.7242C167.696 92.9174 168.017 93.0113 168.43 93.006ZM177.527 94.6548C176.713 94.6651 176.179 94.4301 175.925 93.9498C175.683 93.4694 175.642 92.8099 175.801 91.9716L177.962 80.5747L180.262 80.5455L178.079 92.0603C178.026 92.3354 178.043 92.5312 178.127 92.6477C178.214 92.7512 178.317 92.8021 178.437 92.8006C178.49 92.7999 178.537 92.7993 178.577 92.7988C178.633 92.7851 178.709 92.771 178.804 92.7567L178.784 94.4428C178.641 94.4969 178.459 94.545 178.238 94.587C178.03 94.6288 177.793 94.6514 177.527 94.6548ZM101.916 125.018C101.036 125.03 100.214 124.877 99.4497 124.56C98.6985 124.242 98.0668 123.787 97.5544 123.192L99.2087 121.622C99.5933 122.049 100.06 122.396 100.607 122.663C101.158 122.917 101.733 123.041 102.333 123.033C103.079 123.024 103.674 122.866 104.118 122.56C104.562 122.254 104.831 121.852 104.925 121.354C105.027 120.817 104.907 120.433 104.565 120.202C104.237 119.971 103.803 119.734 103.263 119.493L101.609 118.749C101.217 118.571 100.842 118.341 100.483 118.058C100.138 117.775 99.874 117.412 99.6919 116.97C99.523 116.528 99.4982 115.993 99.6174 115.364C99.7466 114.683 100.049 114.071 100.524 113.529C101.015 112.974 101.617 112.535 102.33 112.213C103.058 111.877 103.849 111.703 104.703 111.693C105.463 111.683 106.167 111.824 106.817 112.117C107.469 112.396 108.001 112.781 108.413 113.272L106.957 114.741C106.609 114.406 106.22 114.143 105.79 113.953C105.374 113.762 104.886 113.67 104.326 113.677C103.713 113.685 103.187 113.829 102.748 114.109C102.325 114.376 102.069 114.745 101.98 115.216C101.918 115.544 101.959 115.818 102.103 116.038C102.263 116.245 102.489 116.425 102.779 116.578C103.071 116.718 103.384 116.858 103.717 116.998L105.359 117.702C106.07 118.02 106.621 118.444 107.013 118.975C107.406 119.493 107.515 120.217 107.339 121.147C107.207 121.841 106.9 122.479 106.417 123.06C105.935 123.641 105.307 124.113 104.533 124.475C103.775 124.825 102.903 125.006 101.916 125.018ZM112.894 124.879C112.001 124.89 111.231 124.704 110.586 124.32C109.956 123.923 109.499 123.354 109.214 122.613C108.945 121.858 108.911 120.95 109.112 119.889C109.316 118.815 109.715 117.902 110.31 117.149C110.907 116.384 111.616 115.8 112.438 115.397C113.275 114.981 114.126 114.768 114.993 114.757C115.62 114.749 116.146 114.847 116.573 115.051C117 115.254 117.365 115.505 117.668 115.801L116.268 117.289C116.057 117.07 115.83 116.903 115.585 116.788C115.343 116.661 115.069 116.599 114.763 116.603C113.976 116.613 113.274 116.916 112.655 117.512C112.05 118.107 111.656 118.89 111.472 119.859C111.29 120.816 111.384 121.585 111.752 122.169C112.133 122.752 112.711 123.039 113.484 123.029C113.871 123.024 114.246 122.941 114.609 122.779C114.988 122.605 115.338 122.404 115.66 122.178L116.317 123.659C115.789 124.058 115.227 124.359 114.63 124.563C114.032 124.767 113.454 124.872 112.894 124.879ZM118.076 124.578L119.906 114.93L122.206 114.901L120.376 124.549L118.076 124.578ZM121.386 113.225C120.973 113.231 120.662 113.117 120.454 112.884C120.245 112.652 120.178 112.339 120.252 111.946C120.325 111.566 120.51 111.257 120.808 111.018C121.106 110.779 121.461 110.656 121.875 110.651C122.288 110.646 122.599 110.76 122.807 110.992C123.016 111.225 123.084 111.531 123.012 111.911C122.938 112.304 122.751 112.62 122.453 112.859C122.155 113.098 121.8 113.22 121.386 113.225ZM127.465 124.694C126.559 124.706 125.776 124.519 125.117 124.136C124.461 123.739 123.99 123.17 123.705 122.429C123.423 121.674 123.382 120.767 123.583 119.705C123.782 118.657 124.167 117.751 124.738 116.986C125.322 116.22 125.999 115.63 126.769 115.215C127.539 114.8 128.304 114.588 129.064 114.578C129.958 114.567 130.667 114.754 131.192 115.14C131.72 115.512 132.072 116.043 132.247 116.734C132.424 117.411 132.427 118.201 132.256 119.105C132.166 119.577 132.064 119.944 131.947 120.207L125.708 120.286C125.653 121.136 125.841 121.794 126.271 122.259C126.702 122.724 127.31 122.951 128.097 122.941C128.524 122.936 128.928 122.872 129.31 122.75C129.709 122.614 130.109 122.432 130.511 122.205L131.023 123.61C130.499 123.917 129.932 124.173 129.321 124.376C128.711 124.58 128.092 124.686 127.465 124.694ZM125.978 118.754L130.338 118.698C130.48 117.952 130.423 117.371 130.17 116.956C129.918 116.528 129.459 116.318 128.793 116.327C128.219 116.334 127.666 116.55 127.134 116.975C126.617 117.387 126.232 117.98 125.978 118.754ZM133.446 124.383L135.276 114.735L137.176 114.711L137.09 116.006L137.17 116.005C137.689 115.58 138.238 115.213 138.815 114.906C139.392 114.598 140.014 114.439 140.68 114.431C141.733 114.418 142.437 114.742 142.79 115.404C143.143 116.066 143.204 117.006 142.973 118.224L141.826 124.277L139.526 124.306L140.618 118.548C140.769 117.749 140.756 117.187 140.578 116.863C140.4 116.539 140.038 116.38 139.491 116.387C139.065 116.392 138.665 116.502 138.292 116.716C137.935 116.916 137.512 117.216 137.024 117.614L135.746 124.354L133.446 124.383ZM148.692 124.425C147.799 124.436 147.029 124.25 146.384 123.866C145.754 123.469 145.297 122.899 145.012 122.158C144.743 121.404 144.709 120.496 144.91 119.435C145.114 118.361 145.513 117.447 146.108 116.695C146.705 115.929 147.414 115.345 148.235 114.943C149.072 114.527 149.924 114.314 150.791 114.303C151.417 114.295 151.944 114.393 152.371 114.596C152.798 114.8 153.163 115.05 153.466 115.347L152.066 116.835C151.855 116.615 151.627 116.448 151.383 116.334C151.141 116.206 150.867 116.144 150.561 116.148C149.774 116.158 149.071 116.461 148.453 117.057C147.848 117.653 147.453 118.435 147.27 119.405C147.088 120.361 147.182 121.131 147.55 121.714C147.931 122.298 148.509 122.584 149.282 122.574C149.669 122.57 150.044 122.486 150.407 122.325C150.786 122.15 151.136 121.95 151.458 121.724L152.115 123.205C151.587 123.604 151.025 123.905 150.428 124.109C149.83 124.312 149.252 124.417 148.692 124.425ZM157.541 124.312C156.634 124.324 155.852 124.138 155.193 123.754C154.537 123.357 154.066 122.788 153.781 122.047C153.499 121.293 153.458 120.385 153.659 119.324C153.858 118.276 154.243 117.369 154.813 116.604C155.397 115.839 156.074 115.248 156.845 114.833C157.615 114.419 158.38 114.206 159.14 114.197C160.033 114.185 160.743 114.372 161.268 114.758C161.796 115.13 162.148 115.661 162.322 116.352C162.5 117.029 162.503 117.82 162.332 118.724C162.242 119.195 162.139 119.562 162.023 119.825L155.783 119.904C155.729 120.755 155.916 121.412 156.347 121.877C156.777 122.342 157.386 122.57 158.173 122.56C158.599 122.554 159.004 122.49 159.386 122.368C159.784 122.232 160.184 122.051 160.587 121.823L161.098 123.228C160.575 123.535 160.007 123.791 159.397 123.995C158.786 124.198 158.168 124.304 157.541 124.312ZM156.054 118.372L160.414 118.317C160.555 117.57 160.499 116.989 160.245 116.574C159.994 116.146 159.535 115.936 158.868 115.945C158.295 115.952 157.742 116.168 157.209 116.593C156.692 117.005 156.307 117.598 156.054 118.372ZM87.4351 154.371L89.8721 141.52L94.0518 141.467C94.9584 141.455 95.7397 141.543 96.3957 141.731C97.065 141.919 97.555 142.246 97.8655 142.712C98.1919 143.165 98.2805 143.785 98.1315 144.571C98.0172 145.174 97.7491 145.745 97.3273 146.287C96.908 146.815 96.393 147.181 95.7825 147.384L95.7676 147.463C96.4577 147.611 96.9876 147.937 97.3574 148.442C97.743 148.934 97.8538 149.612 97.6898 150.477C97.5283 151.328 97.1742 152.039 96.6274 152.607C96.094 153.176 95.4212 153.603 94.6091 153.888C93.7995 154.159 92.9147 154.301 91.9548 154.313L87.4351 154.371ZM91.1858 146.796L92.8457 146.775C93.7523 146.763 94.4433 146.591 94.9187 146.258C95.3941 145.926 95.684 145.484 95.7883 144.934C95.9075 144.305 95.7787 143.862 95.4017 143.606C95.0248 143.349 94.4097 143.226 93.5564 143.237L91.8566 143.259L91.1858 146.796ZM90.0903 152.573L92.0501 152.548C93.0101 152.536 93.7823 152.356 94.3668 152.009C94.9539 151.649 95.3157 151.108 95.4523 150.388C95.5815 149.706 95.4214 149.218 94.9719 148.924C94.5249 148.616 93.8081 148.468 92.8215 148.48L90.8616 148.505L90.0903 152.573ZM102.043 154.421C100.99 154.434 100.286 154.11 99.933 153.448C99.5798 152.786 99.5187 151.845 99.7497 150.627L100.897 144.575L103.197 144.546L102.105 150.303C101.954 151.102 101.967 151.664 102.145 151.989C102.323 152.313 102.678 152.472 103.212 152.465C103.638 152.46 104.031 152.35 104.391 152.136C104.764 151.923 105.182 151.578 105.645 151.101L106.897 144.499L109.197 144.47L107.367 154.118L105.487 154.142L105.576 152.729L105.516 152.73C104.995 153.233 104.452 153.639 103.888 153.946C103.325 154.254 102.709 154.412 102.043 154.421ZM110.28 154.081L112.11 144.433L114.41 144.403L112.58 154.052L110.28 154.081ZM113.59 142.728C113.177 142.733 112.866 142.62 112.657 142.387C112.449 142.154 112.382 141.842 112.456 141.449C112.528 141.069 112.713 140.759 113.011 140.52C113.309 140.281 113.665 140.159 114.078 140.154C114.492 140.149 114.803 140.262 115.011 140.495C115.22 140.728 115.288 141.034 115.216 141.414C115.141 141.807 114.955 142.123 114.657 142.362C114.359 142.601 114.003 142.723 113.59 142.728ZM117.709 154.222C116.896 154.232 116.362 153.997 116.107 153.517C115.866 153.036 115.825 152.377 115.984 151.538L118.145 140.142L120.445 140.112L118.261 151.627C118.209 151.902 118.225 152.098 118.309 152.215C118.396 152.318 118.499 152.369 118.619 152.367C118.673 152.367 118.719 152.366 118.759 152.366C118.815 152.352 118.891 152.338 118.987 152.324L118.966 154.01C118.823 154.064 118.641 154.112 118.42 154.154C118.213 154.196 117.976 154.218 117.709 154.222ZM124.338 154.137C123.112 154.153 122.216 153.72 121.652 152.839C121.088 151.957 120.956 150.724 121.256 149.139C121.455 148.091 121.82 147.184 122.351 146.42C122.895 145.655 123.525 145.065 124.242 144.651C124.959 144.237 125.671 144.025 126.377 144.016C126.937 144.009 127.392 144.101 127.741 144.293C128.107 144.471 128.445 144.722 128.756 145.045L128.97 143.493L129.634 139.996L131.933 139.966L129.303 153.839L127.403 153.863L127.44 152.824L127.36 152.825C126.933 153.183 126.456 153.49 125.929 153.745C125.402 154 124.872 154.131 124.338 154.137ZM125.252 152.264C125.986 152.254 126.741 151.885 127.517 151.157L128.37 146.657C128.094 146.36 127.801 146.155 127.49 146.041C127.179 145.927 126.857 145.872 126.523 145.877C125.897 145.885 125.303 146.173 124.743 146.742C124.199 147.298 123.831 148.08 123.64 149.089C123.444 150.124 123.487 150.914 123.769 151.459C124.051 152.004 124.546 152.273 125.252 152.264ZM132.232 153.802L134.061 144.154L136.361 144.125L134.531 153.773L132.232 153.802ZM135.541 142.449C135.128 142.455 134.817 142.341 134.609 142.108C134.4 141.876 134.333 141.563 134.408 141.17C134.48 140.79 134.665 140.481 134.963 140.242C135.261 140.003 135.616 139.881 136.03 139.875C136.443 139.87 136.754 139.984 136.962 140.216C137.171 140.449 137.239 140.755 137.167 141.135C137.093 141.528 136.907 141.844 136.608 142.083C136.31 142.322 135.955 142.444 135.541 142.449ZM137.465 153.736L139.295 144.088L141.195 144.063L141.109 145.358L141.189 145.357C141.708 144.933 142.257 144.566 142.834 144.258C143.411 143.95 144.033 143.792 144.699 143.784C145.753 143.77 146.456 144.095 146.809 144.757C147.162 145.419 147.224 146.359 146.992 147.577L145.845 153.629L143.545 153.658L144.637 147.901C144.788 147.102 144.775 146.54 144.597 146.216C144.419 145.891 144.057 145.733 143.511 145.739C143.084 145.745 142.684 145.855 142.311 146.068C141.954 146.269 141.531 146.568 141.043 146.967L139.765 153.706L137.465 153.736ZM151.267 157.814C150.494 157.824 149.811 157.741 149.219 157.566C148.641 157.39 148.208 157.115 147.92 156.739C147.643 156.377 147.558 155.914 147.664 155.351C147.816 154.552 148.413 153.858 149.456 153.27L149.47 153.191C149.247 153.037 149.073 152.83 148.95 152.571C148.839 152.311 148.822 151.984 148.896 151.591C148.968 151.211 149.139 150.869 149.41 150.565C149.696 150.248 149.998 149.989 150.315 149.789L150.33 149.711C150.044 149.466 149.81 149.123 149.628 148.681C149.459 148.238 149.428 147.736 149.534 147.172C149.676 146.426 149.975 145.795 150.432 145.279C150.889 144.764 151.436 144.371 152.072 144.102C152.724 143.819 153.39 143.673 154.07 143.665C154.337 143.661 154.585 143.684 154.815 143.734C155.061 143.77 155.278 143.819 155.465 143.882L158.985 143.838L158.668 145.508L156.868 145.531C156.994 145.712 157.082 145.946 157.134 146.233C157.189 146.507 157.184 146.814 157.119 147.155C156.985 147.862 156.704 148.467 156.276 148.969C155.851 149.458 155.335 149.83 154.728 150.086C154.12 150.342 153.47 150.474 152.777 150.483C152.564 150.486 152.347 150.469 152.128 150.433C151.909 150.396 151.695 150.334 151.486 150.245C151.314 150.378 151.169 150.51 151.051 150.642C150.946 150.774 150.873 150.952 150.83 151.174C150.778 151.45 150.851 151.664 151.047 151.819C151.258 151.973 151.663 152.046 152.263 152.038L154.002 152.016C155.189 152.001 156.046 152.18 156.574 152.552C157.118 152.911 157.31 153.51 157.151 154.348C157.032 154.977 156.711 155.55 156.187 156.066C155.661 156.595 154.976 157.016 154.133 157.327C153.289 157.638 152.334 157.801 151.267 157.814ZM153.045 149.068C153.512 149.063 153.944 148.887 154.342 148.542C154.74 148.198 154.997 147.717 155.114 147.102C155.228 146.499 155.15 146.036 154.879 145.713C154.623 145.376 154.256 145.211 153.776 145.217C153.296 145.223 152.858 145.392 152.463 145.724C152.067 146.056 151.811 146.529 151.694 147.145C151.578 147.761 151.654 148.237 151.922 148.573C152.191 148.909 152.565 149.075 153.045 149.068ZM151.907 156.336C152.693 156.326 153.363 156.161 153.916 155.84C154.469 155.519 154.784 155.156 154.861 154.75C154.933 154.37 154.828 154.116 154.546 153.989C154.278 153.862 153.863 153.802 153.303 153.809L151.964 153.826C151.43 153.833 150.992 153.793 150.65 153.705C150.071 154.092 149.737 154.521 149.648 154.992C149.566 155.425 149.729 155.756 150.137 155.986C150.544 156.229 151.133 156.346 151.907 156.336ZM91.7875 187.208C91.2143 185.883 90.8322 184.496 90.6413 183.048C90.4505 181.6 90.519 180.011 90.8469 178.282C91.1748 176.552 91.7099 174.958 92.4523 173.498C93.1947 172.038 94.1059 170.635 95.1859 169.288L96.5065 169.898C95.5214 171.165 94.7135 172.515 94.0827 173.948C93.452 175.38 93 176.817 92.7267 178.258C92.4535 179.699 92.3614 181.131 92.4506 182.554C92.5398 183.978 92.8385 185.313 93.3466 186.561L91.7875 187.208ZM96.4148 183.66L98.8518 170.81L101.172 170.78L100.192 175.948L105.491 175.881L106.471 170.713L108.791 170.683L106.354 183.534L104.034 183.564L105.115 177.865L99.8153 177.933L98.7346 183.631L96.4148 183.66ZM113.45 183.679C112.571 183.691 111.748 183.538 110.984 183.221C110.233 182.904 109.601 182.448 109.089 181.853L110.743 180.283C111.127 180.71 111.594 181.057 112.141 181.324C112.692 181.579 113.267 181.702 113.867 181.694C114.613 181.685 115.209 181.527 115.652 181.221C116.096 180.915 116.365 180.513 116.46 180.015C116.561 179.478 116.441 179.094 116.1 178.863C115.771 178.632 115.337 178.396 114.798 178.154L113.143 177.411C112.751 177.233 112.376 177.002 112.017 176.719C111.672 176.436 111.408 176.073 111.226 175.631C111.057 175.189 111.032 174.654 111.152 174.025C111.281 173.344 111.583 172.732 112.058 172.19C112.549 171.635 113.151 171.196 113.864 170.874C114.593 170.538 115.384 170.364 116.237 170.354C116.997 170.344 117.701 170.485 118.351 170.778C119.003 171.057 119.535 171.442 119.947 171.933L118.492 173.403C118.143 173.067 117.754 172.804 117.324 172.614C116.908 172.423 116.42 172.331 115.86 172.338C115.247 172.346 114.721 172.49 114.282 172.77C113.859 173.037 113.603 173.406 113.514 173.877C113.452 174.205 113.493 174.479 113.637 174.699C113.797 174.906 114.023 175.086 114.313 175.239C114.605 175.379 114.918 175.519 115.251 175.659L116.893 176.363C117.604 176.681 118.155 177.105 118.547 177.636C118.941 178.154 119.049 178.878 118.873 179.808C118.741 180.502 118.434 181.14 117.952 181.721C117.469 182.302 116.841 182.774 116.067 183.137C115.309 183.486 114.437 183.667 113.45 183.679ZM124.036 183.545C123.156 183.556 122.333 183.403 121.569 183.086C120.818 182.769 120.186 182.313 119.674 181.719L121.328 180.149C121.713 180.575 122.179 180.922 122.727 181.19C123.277 181.444 123.852 181.568 124.452 181.56C125.198 181.55 125.794 181.393 126.237 181.086C126.681 180.78 126.95 180.378 127.045 179.88C127.147 179.343 127.027 178.959 126.685 178.728C126.356 178.497 125.922 178.261 125.383 178.02L123.728 177.276C123.336 177.098 122.961 176.868 122.602 176.585C122.257 176.302 121.993 175.939 121.811 175.497C121.642 175.055 121.617 174.519 121.737 173.891C121.866 173.209 122.168 172.598 122.643 172.056C123.134 171.501 123.736 171.062 124.449 170.739C125.178 170.403 125.969 170.23 126.822 170.219C127.582 170.21 128.287 170.351 128.936 170.643C129.588 170.922 130.12 171.308 130.532 171.799L129.077 173.268C128.728 172.933 128.339 172.67 127.91 172.479C127.494 172.289 127.006 172.197 126.446 172.204C125.832 172.212 125.306 172.356 124.867 172.636C124.444 172.902 124.188 173.271 124.099 173.743C124.037 174.071 124.078 174.344 124.222 174.565C124.383 174.772 124.608 174.952 124.898 175.105C125.191 175.245 125.503 175.385 125.836 175.524L127.478 176.229C128.189 176.547 128.74 176.971 129.132 177.502C129.526 178.019 129.634 178.743 129.458 179.673C129.326 180.368 129.019 181.005 128.537 181.586C128.054 182.168 127.426 182.64 126.652 183.002C125.894 183.352 125.022 183.533 124.036 183.545ZM131.158 183.219L133.595 170.368L137.775 170.315C138.681 170.304 139.463 170.392 140.119 170.58C140.788 170.767 141.278 171.094 141.589 171.561C141.915 172.014 142.004 172.634 141.854 173.42C141.74 174.022 141.472 174.594 141.05 175.135C140.631 175.663 140.116 176.029 139.505 176.233L139.491 176.312C140.181 176.46 140.711 176.786 141.08 177.291C141.466 177.783 141.577 178.461 141.413 179.326C141.251 180.177 140.897 180.887 140.35 181.456C139.817 182.025 139.144 182.452 138.332 182.736C137.522 183.008 136.638 183.15 135.678 183.162L131.158 183.219ZM134.909 175.644L136.569 175.623C137.475 175.612 138.166 175.44 138.642 175.107C139.117 174.774 139.407 174.333 139.511 173.783C139.631 173.154 139.502 172.711 139.125 172.455C138.748 172.198 138.133 172.075 137.279 172.086L135.58 172.107L134.909 175.644ZM133.813 181.422L135.773 181.397C136.733 181.384 137.505 181.205 138.09 180.858C138.677 180.497 139.039 179.957 139.175 179.236C139.305 178.555 139.144 178.067 138.695 177.772C138.248 177.464 137.531 177.317 136.544 177.329L134.585 177.354L133.813 181.422ZM143.067 186.557L141.747 185.947C142.732 184.68 143.54 183.33 144.171 181.898C144.801 180.465 145.253 179.029 145.527 177.588C145.8 176.147 145.892 174.714 145.803 173.291C145.713 171.868 145.415 170.532 144.907 169.284L146.466 168.637C147.039 169.963 147.421 171.349 147.612 172.798C147.803 174.246 147.734 175.834 147.406 177.564C147.078 179.293 146.543 180.887 145.801 182.347C145.059 183.807 144.147 185.211 143.067 186.557Z" fill="#121023"/>
</svg>
