<svg width="254" height="235" viewBox="0 0 254 235" fill="none" xmlns="http://www.w3.org/2000/svg">
<path d="M0.84375 117L150.844 117" stroke="white" stroke-width="4"/>
<path d="M159 117L254 117" stroke="white" stroke-width="4"/>
<rect width="90.7468" height="237.304" rx="10" transform="matrix(0.999919 -0.0126935 -0.186315 0.98249 135.602 1.15234)" fill="#E099E1"/>
<path d="M169.59 30.658L171.695 30.6312L168.862 45.5749L166.756 45.6016L169.59 30.658ZM166.223 34.0174L173.441 33.9258L173.065 35.9065L165.848 35.9981L166.223 34.0174ZM168.934 34.7769L170.09 35.3092C168.927 37.8468 167.052 41.0109 165.334 42.7793C165.253 42.1628 164.953 41.2845 164.712 40.7583C166.24 39.3275 167.986 36.7472 168.934 34.7769ZM173.093 29.1315L173.97 30.8493C171.971 31.5451 169.421 32.0185 167.269 32.2929C167.269 31.8165 167.133 31.1126 167.004 30.6555C169.113 30.3288 171.485 29.7518 173.093 29.1315ZM170.619 36.0258C170.988 36.4445 172.237 38.1929 172.513 38.6304L170.937 40.3088C170.695 39.4121 169.917 37.6401 169.522 36.8865L170.619 36.0258ZM179.876 28.869L182 28.842L178.851 45.4481L176.727 45.4751L179.876 28.869ZM171.917 40.3493L181.948 38.5812L181.893 40.5755L171.856 42.3789L171.917 40.3493ZM174.818 31.2091L176.45 29.9887C177.302 30.7012 178.343 31.7465 178.757 32.4999L176.993 33.8454C176.633 33.0914 175.66 31.9746 174.818 31.2091ZM173.27 35.8686L174.869 34.631C175.775 35.3428 176.903 36.4047 177.367 37.1751L175.633 38.5555C175.205 37.7847 174.166 36.6335 173.27 35.8686ZM163.01 57.3989L177.445 57.2157L177.026 59.4263L162.591 59.6095L163.01 57.3989ZM159.839 68.8184L176.308 68.6094L175.902 70.7492L159.433 70.9583L159.839 68.8184ZM168.668 58.5268L171.134 58.4955L169.038 69.5485L166.572 69.5798L168.668 58.5268ZM163.934 95.9884L169.909 95.9126L169.571 97.6987L163.595 97.7746L163.934 95.9884ZM164.828 86.8207L166.772 86.7961L164.539 98.5742L162.595 98.5988L164.828 86.8207ZM165.674 86.81L171.686 86.7337L170.777 91.5263L164.766 91.6026L165.084 89.9225L169.116 89.8714L169.387 88.4389L165.356 88.4901L165.674 86.81ZM164.363 83.8804L173.416 83.7655L172.789 87.0725L170.773 87.0981L171.078 85.4888L165.966 85.5537L165.661 87.163L163.735 87.1875L164.363 83.8804ZM168.087 81.9454L170.193 81.9187L169.673 84.6598L167.567 84.6865L168.087 81.9454ZM164.554 92.7167L171.34 92.6306L170.243 98.4135L168.245 98.4389L169.013 94.3891L164.226 94.4499L164.554 92.7167ZM159.887 85.4192L161.669 85.3965L161.25 87.6071L159.468 87.6298L159.887 85.4192ZM157.251 86.9169L159.159 86.8927L157.294 96.7255L155.386 96.7497L157.251 86.9169ZM158.044 89.2709L161.949 89.2214L161.691 90.5831L157.785 90.6327L158.044 89.2709ZM154.389 96.2331C155.973 95.9307 158.41 95.3882 160.735 94.8646L160.618 96.5245C158.549 97.1153 156.336 97.708 154.614 98.1709L154.389 96.2331ZM159.03 93.916L160.856 93.1871C161.497 94.4492 162.056 96.1358 162.162 97.2812L160.172 98.118C160.099 96.9898 159.606 95.2318 159.03 93.916ZM158.313 86.9035L163.263 86.8406L162.095 92.9949L157.146 93.0578L157.434 91.5369L160.494 91.498L161.084 88.3855L158.025 88.4244L158.313 86.9035ZM160.002 82.0657L161.172 82.0508L161.099 82.4399L161.711 82.4321L161.6 83.0157C160.625 84.3689 159.124 86.2228 156.939 87.803C156.753 87.3643 156.269 86.7001 155.89 86.4226C157.748 85.1464 159.144 83.4703 160.002 82.0657ZM160.524 82.059L161.964 82.0408C162.883 82.8759 163.93 84.08 164.353 84.9743L162.686 86.5657C162.35 85.6878 161.455 84.2525 160.591 83.5049L160.249 83.5092L160.524 82.059ZM152.228 110.092L168.21 109.889L167.835 111.87L151.852 112.073L152.228 110.092ZM154.727 117.646L162.791 117.544L162.479 119.189L154.415 119.291L154.727 117.646ZM153.816 120.463L162.653 120.351L162.332 122.049L153.494 122.161L153.816 120.463ZM157.528 118.405L159.58 118.379L158.4 124.604L156.348 124.63L157.528 118.405ZM152.267 113.391L165.298 113.225L164.929 115.171L154.076 115.308L152.208 125.159L150.03 125.186L152.267 113.391ZM164.686 113.233L166.917 113.205L165.083 122.878C164.888 123.904 164.546 124.385 163.751 124.695C162.974 125.004 161.909 125.036 160.451 125.054C160.447 124.507 160.27 123.733 160.073 123.259C160.945 123.301 162.079 123.287 162.37 123.266C162.697 123.244 162.804 123.154 162.854 122.889L164.686 113.233ZM155.767 115.763L157.589 115.246C157.895 115.807 158.155 116.615 158.252 117.143L156.338 117.767C156.284 117.203 156.027 116.377 155.767 115.763ZM160.93 115.239L162.672 115.711C162.025 116.566 161.381 117.403 160.86 117.974L159.414 117.552C159.916 116.893 160.568 115.914 160.93 115.239ZM159.307 108.644L161.683 108.614L160.54 114.644L158.164 114.674L159.307 108.644ZM153.873 149.043L159.848 148.967L159.51 150.753L153.534 150.829L153.873 149.043ZM154.767 139.875L156.711 139.851L154.478 151.629L152.534 151.653L154.767 139.875ZM155.613 139.864L161.625 139.788L160.716 144.581L154.705 144.657L155.023 142.977L159.055 142.926L159.326 141.493L155.295 141.545L155.613 139.864ZM154.302 136.935L163.355 136.82L162.728 140.127L160.712 140.153L161.017 138.543L155.905 138.608L155.6 140.217L153.674 140.242L154.302 136.935ZM158.026 135L160.132 134.973L159.612 137.714L157.506 137.741L158.026 135ZM154.493 145.771L161.279 145.685L160.182 151.468L158.184 151.493L158.952 147.444L154.165 147.504L154.493 145.771ZM149.826 138.474L151.608 138.451L151.189 140.662L149.407 140.684L149.826 138.474ZM147.19 139.971L149.098 139.947L147.233 149.78L145.325 149.804L147.19 139.971ZM147.983 142.325L151.888 142.276L151.63 143.638L147.724 143.687L147.983 142.325ZM144.328 149.288C145.912 148.985 148.349 148.443 150.674 147.919L150.557 149.579C148.488 150.17 146.275 150.762 144.553 151.225L144.328 149.288ZM148.969 146.97L150.795 146.242C151.436 147.504 151.995 149.19 152.101 150.336L150.111 151.172C150.038 150.044 149.545 148.286 148.969 146.97ZM148.252 139.958L153.202 139.895L152.034 146.049L147.085 146.112L147.373 144.591L150.433 144.553L151.023 141.44L147.964 141.479L148.252 139.958ZM149.941 135.12L151.111 135.105L151.038 135.494L151.65 135.487L151.539 136.07C150.564 137.423 149.063 139.277 146.878 140.857C146.692 140.419 146.208 139.755 145.829 139.477C147.687 138.201 149.083 136.525 149.941 135.12ZM150.463 135.114L151.903 135.095C152.822 135.93 153.869 137.134 154.292 138.029L152.625 139.62C152.289 138.742 151.394 137.307 150.53 136.559L150.188 136.564L150.463 135.114ZM143.287 165.002L147.805 164.945L147.52 166.448L143.002 166.506L143.287 165.002ZM151.603 164.897L156.138 164.839L155.853 166.342L151.317 166.4L151.603 164.897ZM155.792 162.215L157.97 162.187L155.444 175.504C155.21 176.742 154.844 177.346 153.988 177.692C153.129 178.056 151.931 178.124 150.185 178.146C150.191 177.547 150.022 176.543 149.827 175.963C150.944 176.037 152.297 176.003 152.679 175.98C153.057 175.975 153.203 175.868 153.27 175.514L155.792 162.215ZM143.967 162.365L149.636 162.293L148.335 169.155L142.666 169.227L142.988 167.529L146.623 167.483L147.277 164.034L143.642 164.08L143.967 162.365ZM156.962 162.2L156.637 163.916L152.605 163.967L151.944 167.451L155.976 167.399L155.654 169.097L149.57 169.174L150.878 162.277L156.962 162.2ZM142.725 162.381L144.867 162.354L141.852 178.252L139.71 178.279L142.725 162.381ZM137.968 189.928L152.205 189.747L149.455 204.249L147.079 204.279L149.42 191.935L139.827 192.057L137.482 204.418L135.215 204.447L137.968 189.928ZM136.982 200.808L149.239 200.652L148.823 202.845L136.566 203.001L136.982 200.808Z" fill="#121023"/>
</svg>
