<svg width="513" height="434" viewBox="0 0 513 434" fill="none" xmlns="http://www.w3.org/2000/svg">
<path d="M205.992 17.488V13.296H212.104V17.488H205.992ZM211.912 12.832H206.104L204.008 12.016V19.392H204.296C205.112 19.392 205.992 18.944 205.992 18.752V17.936H212.104V19.28H212.424C213.08 19.28 214.072 18.928 214.088 18.832V13.68C214.472 13.6 214.712 13.44 214.824 13.296L212.856 11.776L211.912 12.832ZM210.808 6.912C211.592 7.584 212.424 8.48 213.112 9.424C209.624 9.552 206.28 9.648 204.136 9.68C206.184 8.608 208.504 6.976 209.736 5.68C210.104 5.712 210.312 5.584 210.376 5.408L207.768 4.368C207.016 5.904 204.632 8.592 202.984 9.472C202.792 9.584 202.344 9.664 202.344 9.664L202.984 11.824C203.16 11.776 203.32 11.664 203.464 11.488C207.624 10.896 211.048 10.32 213.4 9.84C213.784 10.416 214.104 11.008 214.296 11.552C216.344 12.8 217.448 8.464 210.952 6.8L210.808 6.912ZM223.864 16.032V5.44C224.296 5.376 224.408 5.216 224.44 4.992L222.008 4.752V9.616H218.216L218.36 10.064H222.008V16.336C220.168 16.624 218.616 16.848 217.816 16.928L218.744 19.328C218.936 19.28 219.112 19.12 219.208 18.912C222.056 17.664 223.976 16.688 225.224 15.968L225.192 15.808L223.864 16.032ZM231.848 14.512H231.688C231.4 15.52 231.128 16.496 230.936 16.8C230.808 16.96 230.696 16.992 230.52 17.008C230.312 17.024 229.944 17.024 229.496 17.024H228.344C227.848 17.024 227.704 16.912 227.704 16.528V10.08H231.704C231.928 10.08 232.072 10 232.12 9.824C231.64 9.184 230.696 8.16 230.696 8.16L229.864 9.632H227.704V5.488C228.104 5.424 228.248 5.248 228.264 5.04L225.832 4.768V17.072C225.832 18.464 226.312 18.848 227.912 18.848H229.336C231.848 18.848 232.584 18.496 232.584 17.68C232.584 17.344 232.44 17.12 231.928 16.896L231.848 14.512ZM237.736 14.032H242.168V12.944H237.736V14.032ZM256.059 6.8L256.715 9.44H257.611L257.515 6.128H247.355L247.243 9.44H248.139L248.811 6.8H251.291C251.307 8.416 251.307 10.064 251.307 11.68V12.464C251.307 14.096 251.307 15.712 251.291 17.296L249.579 17.44V18H255.291V17.44L253.579 17.296C253.547 15.68 253.547 14.064 253.547 12.464V11.68C253.547 10.032 253.547 8.4 253.579 6.8H256.059ZM262.695 16.368C261.959 16.976 261.559 17.216 261.031 17.216C260.263 17.216 259.751 16.768 259.751 15.824C259.751 14.832 260.231 14.096 261.495 13.6C261.767 13.488 262.215 13.36 262.695 13.216V16.368ZM266.039 16.896C265.751 17.28 265.559 17.424 265.319 17.424C264.967 17.424 264.743 17.184 264.743 16.464V12.336C264.743 10.096 263.863 9.184 261.767 9.184C259.543 9.184 258.215 10.08 258.007 11.52C258.103 12 258.439 12.256 258.967 12.256C259.511 12.256 259.943 11.904 260.007 11.024L260.231 9.872C260.519 9.808 260.791 9.776 261.063 9.776C262.263 9.776 262.695 10.24 262.695 11.936V12.752C262.071 12.896 261.431 13.072 260.951 13.232C258.487 14 257.751 14.784 257.751 16.112C257.751 17.456 258.727 18.256 260.071 18.256C261.255 18.256 261.879 17.76 262.759 16.832C262.967 17.696 263.527 18.24 264.503 18.24C265.351 18.24 265.911 17.936 266.327 17.136L266.039 16.896ZM269.175 7.408C269.863 7.408 270.439 6.912 270.439 6.224C270.439 5.504 269.863 5.024 269.175 5.024C268.487 5.024 267.911 5.504 267.911 6.224C267.911 6.912 268.487 7.408 269.175 7.408ZM270.311 17.376C270.295 16.464 270.279 15.12 270.279 14.24V11.84L270.311 9.344L270.087 9.2L266.839 10.112V10.544L268.135 10.672C268.167 11.472 268.183 12.08 268.183 13.104V14.24C268.183 15.12 268.167 16.448 268.151 17.36L266.983 17.504V18H271.383V17.504L270.311 17.376ZM275.717 10.912C276.389 10.304 276.917 10.176 277.429 10.176C278.757 10.176 279.573 11.184 279.573 13.712C279.573 16.32 278.629 17.232 277.317 17.232C276.709 17.232 276.213 17.088 275.717 16.64V10.912ZM275.541 9.36L275.317 9.2L272.277 10.176V10.576L273.573 10.704C273.605 11.472 273.621 12.064 273.621 13.104V18.256C273.621 19.232 273.605 20.384 273.589 21.536L272.373 21.68V22.16H277.093V21.68L275.717 21.52C275.701 20.368 275.685 19.216 275.685 18.256V17.152C276.389 17.968 277.205 18.256 278.037 18.256C280.149 18.256 281.829 16.496 281.829 13.664C281.829 10.832 280.309 9.184 278.373 9.184C277.381 9.184 276.421 9.552 275.653 10.416L275.541 9.36ZM285.411 13.088C285.507 10.752 286.387 9.776 287.395 9.776C288.371 9.776 289.059 10.608 289.059 11.904C289.059 12.72 288.883 13.088 288.147 13.088H285.411ZM290.947 13.68C291.027 13.408 291.059 13.104 291.059 12.688C291.059 10.672 289.731 9.184 287.539 9.184C285.299 9.184 283.187 10.832 283.187 13.712C283.187 16.624 285.011 18.256 287.523 18.256C289.107 18.256 290.323 17.504 290.963 16.192L290.643 15.968C290.083 16.72 289.395 17.2 288.243 17.2C286.691 17.2 285.475 16.128 285.411 13.68H290.947ZM294.519 7.408C295.207 7.408 295.783 6.912 295.783 6.224C295.783 5.504 295.207 5.024 294.519 5.024C293.831 5.024 293.255 5.504 293.255 6.224C293.255 6.912 293.831 7.408 294.519 7.408ZM295.655 17.376C295.639 16.464 295.623 15.12 295.623 14.24V11.84L295.655 9.344L295.431 9.2L292.183 10.112V10.544L293.479 10.672C293.511 11.472 293.527 12.08 293.527 13.104V14.24C293.527 15.12 293.511 16.448 293.495 17.36L292.327 17.504V18H296.727V17.504L295.655 17.376ZM299.922 18.256C300.658 18.256 301.234 17.648 301.234 16.944C301.234 16.208 300.658 15.6 299.922 15.6C299.17 15.6 298.594 16.208 298.594 16.944C298.594 17.648 299.17 18.256 299.922 18.256ZM305.999 10.912C306.671 10.304 307.199 10.176 307.711 10.176C309.039 10.176 309.855 11.184 309.855 13.712C309.855 16.32 308.911 17.232 307.599 17.232C306.991 17.232 306.495 17.088 305.999 16.64V10.912ZM305.823 9.36L305.599 9.2L302.559 10.176V10.576L303.855 10.704C303.887 11.472 303.903 12.064 303.903 13.104V18.256C303.903 19.232 303.887 20.384 303.871 21.536L302.655 21.68V22.16H307.375V21.68L305.999 21.52C305.983 20.368 305.967 19.216 305.967 18.256V17.152C306.671 17.968 307.487 18.256 308.319 18.256C310.431 18.256 312.111 16.496 312.111 13.664C312.111 10.832 310.591 9.184 308.655 9.184C307.663 9.184 306.703 9.552 305.935 10.416L305.823 9.36ZM321.906 9.44H318.578V9.936L320.082 10.096L318.002 16.24L315.746 10.08L317.058 9.936V9.44H312.514V9.936L313.458 10.032L317.042 18.736C316.562 19.92 316.082 20.768 315.394 21.328L315.17 21.072C314.754 20.592 314.354 20.288 313.762 20.288C313.202 20.288 312.626 20.576 312.53 21.184C312.546 21.856 313.346 22.336 314.194 22.336C315.282 22.336 316.578 21.456 317.586 18.784L320.866 10.08L321.906 9.936V9.44Z" fill="#C2A53A"/>
<path d="M6.752 348.336V346.448H9.264V348.336H6.752ZM10.992 346.704C11.296 346.64 11.488 346.512 11.584 346.384L9.904 345.152L9.104 345.984H6.816L5.04 345.28V349.808H5.28C5.968 349.808 6.752 349.44 6.752 349.296V348.784H9.264V349.568H9.552C10.144 349.568 10.976 349.216 10.992 349.104V346.704ZM12.592 344.272H3.552L1.552 343.488V351.424H1.824C2.592 351.424 3.408 351.008 3.408 350.816V344.72H12.752V349.216C12.752 349.408 12.688 349.52 12.448 349.52C12.08 349.52 10.672 349.424 10.672 349.424V349.632C11.424 349.76 11.728 349.968 11.952 350.224C12.176 350.48 12.24 350.896 12.288 351.44C14.368 351.28 14.64 350.592 14.64 349.392V345.04C14.976 344.976 15.2 344.832 15.296 344.704L13.44 343.328L12.592 344.272ZM5.856 342.496V340.624H10.272V342.496H5.856ZM10.592 343.664C11.184 343.664 12.144 343.376 12.16 343.28V340.928C12.48 340.864 12.688 340.72 12.784 340.592L10.96 339.216L10.112 340.16H5.952L4 339.392V343.84H4.256C5.024 343.84 5.856 343.44 5.856 343.296V342.944H10.272V343.664H10.592ZM12.304 338.448H8.8C9.52 337.84 9.264 336.224 6.208 336.384L6.096 336.48C6.656 336.928 7.264 337.712 7.44 338.448H0.64L0.784 338.896H15.008C15.232 338.896 15.408 338.816 15.456 338.64C14.688 337.984 13.408 337.056 13.408 337.056L12.304 338.448ZM23.6 340.112C23.824 340.112 23.984 340.032 24.032 339.856C23.424 339.28 22.4 338.448 22.4 338.448L21.536 339.664H20.4C20.512 338.736 20.592 337.856 20.656 337.056C21.136 336.992 21.248 336.816 21.28 336.608L18.704 336.432C18.704 337.424 18.688 338.512 18.624 339.664H16.528L16.656 340.112H18.592C18.368 343.552 17.76 347.408 16.416 350.304L16.624 350.416C18.944 347.552 19.888 343.568 20.352 340.112H23.6ZM21.216 345.504C21.472 346.224 21.76 347.056 21.952 347.92C21.056 348.096 20.16 348.256 19.456 348.32C20.528 346.672 21.696 344.16 22.32 342.304C22.672 342.288 22.848 342.112 22.896 341.92L20.64 341.456C20.432 343.376 19.552 346.848 18.864 348.208C18.752 348.32 18.336 348.432 18.336 348.432L19.2 350.512C19.424 350.416 19.6 350.208 19.744 349.888C20.656 349.36 21.456 348.816 22.048 348.384C22.144 348.912 22.208 349.44 22.192 349.936C23.664 351.424 25.216 348.144 21.408 345.424L21.216 345.504ZM25.888 346.688H27.104V349.664H25.888V346.688ZM27.104 340.192V342.944H25.888V340.192H27.104ZM27.104 346.224H25.888V343.408H27.104V346.224ZM29.136 349.664H28.752V346.688H30.896C31.12 346.688 31.28 346.608 31.312 346.432C30.8 345.888 29.92 345.136 29.92 345.136L29.12 346.224H28.752V343.408H30.864C31.088 343.408 31.248 343.328 31.28 343.152C30.752 342.608 29.872 341.84 29.872 341.84L29.088 342.944H28.752V340.192H31.056C31.28 340.192 31.44 340.112 31.488 339.936C30.88 339.36 29.904 338.544 29.904 338.544L29.008 339.728H26.096L25.792 339.616C26.144 338.848 26.432 338.096 26.656 337.424C26.944 337.408 27.088 337.344 27.168 337.216C27.392 337.792 27.552 338.448 27.504 339.056C28.944 340.448 30.816 337.52 26.928 336.32L26.768 336.416C26.88 336.608 26.992 336.816 27.104 337.056L24.752 336.432C24.496 338.544 23.744 341.84 22.544 344.064L22.736 344.208C23.248 343.712 23.728 343.136 24.144 342.528V351.408H24.448C25.344 351.408 25.888 351.024 25.888 350.896V350.112H31.264C31.488 350.112 31.664 350.032 31.696 349.856C31.088 349.28 30.064 348.416 30.064 348.416L29.136 349.664ZM36.7356 346.032H41.1676V344.944H36.7356V346.032ZM56.9786 349.328L53.1066 342.288L55.8906 338.928L57.5546 338.704V338.128H53.4426V338.704L54.9786 338.928L50.3066 344.816V343.68C50.3066 342.064 50.3066 340.448 50.3386 338.864L51.8746 338.704V338.128H46.6106V338.704L48.1306 338.848C48.1626 340.464 48.1626 342.08 48.1626 343.68V344.464C48.1626 346.096 48.1626 347.712 48.1306 349.296L46.6106 349.44V350H51.7466V349.44L50.3386 349.296C50.3066 348.016 50.3066 346.784 50.3066 345.696L51.7146 343.984L54.5626 349.312L53.2826 349.44V350H58.1786V349.44L56.9786 349.328ZM63.6324 348.368C62.8964 348.976 62.4964 349.216 61.9684 349.216C61.2004 349.216 60.6884 348.768 60.6884 347.824C60.6884 346.832 61.1684 346.096 62.4324 345.6C62.7044 345.488 63.1524 345.36 63.6324 345.216V348.368ZM66.9764 348.896C66.6884 349.28 66.4964 349.424 66.2564 349.424C65.9044 349.424 65.6804 349.184 65.6804 348.464V344.336C65.6804 342.096 64.8004 341.184 62.7044 341.184C60.4804 341.184 59.1524 342.08 58.9444 343.52C59.0404 344 59.3764 344.256 59.9044 344.256C60.4484 344.256 60.8804 343.904 60.9444 343.024L61.1684 341.872C61.4564 341.808 61.7284 341.776 62.0004 341.776C63.2004 341.776 63.6324 342.24 63.6324 343.936V344.752C63.0084 344.896 62.3684 345.072 61.8884 345.232C59.4244 346 58.6884 346.784 58.6884 348.112C58.6884 349.456 59.6644 350.256 61.0084 350.256C62.1924 350.256 62.8164 349.76 63.6964 348.832C63.9044 349.696 64.4644 350.24 65.4404 350.24C66.2884 350.24 66.8484 349.936 67.2644 349.136L66.9764 348.896ZM72.2729 350.256C74.7209 350.256 76.5929 348.576 76.5929 345.696C76.5929 342.816 74.5929 341.184 72.2729 341.184C69.9369 341.184 67.9529 342.832 67.9529 345.696C67.9529 348.56 69.7929 350.256 72.2729 350.256ZM72.2729 349.664C70.9449 349.664 70.2089 348.368 70.2089 345.712C70.2089 343.072 70.9449 341.776 72.2729 341.776C73.5689 341.776 74.3369 343.072 74.3369 345.712C74.3369 348.368 73.5689 349.664 72.2729 349.664ZM86.5795 349.376C86.5635 348.464 86.5475 347.152 86.5475 346.24V344.32C86.5475 342.096 85.6195 341.184 84.0995 341.184C82.9315 341.184 81.9875 341.728 81.0275 342.832V339.584L81.0915 337.04L80.8515 336.896L77.6835 337.584V338.032L78.9795 338.128V346.24C78.9795 347.12 78.9635 348.448 78.9475 349.36L77.7795 349.504V350H82.1315V349.504L81.1075 349.376C81.0755 348.464 81.0595 347.12 81.0595 346.24V343.36C81.8435 342.64 82.5315 342.32 83.1715 342.32C84.0035 342.32 84.4675 342.8 84.4675 344.192V346.24C84.4675 347.152 84.4515 348.464 84.4355 349.36L83.2835 349.504V350H87.6675V349.504L86.5795 349.376ZM92.285 344.608C91.053 344.208 90.701 343.776 90.701 343.104C90.701 342.32 91.309 341.808 92.365 341.808C92.829 341.808 93.197 341.904 93.581 342.096L94.077 343.824H94.893L95.005 341.904C94.125 341.44 93.341 341.184 92.317 341.184C90.125 341.184 88.925 342.368 88.925 343.904C88.925 345.2 89.773 345.968 91.149 346.4L92.029 346.688C93.277 347.104 93.645 347.552 93.645 348.256C93.645 349.136 92.973 349.632 91.693 349.632C91.165 349.632 90.717 349.552 90.301 349.376L89.853 347.44H88.925L88.861 349.52C89.773 350 90.669 350.256 91.821 350.256C94.173 350.256 95.485 349.136 95.485 347.504C95.485 346.272 94.797 345.424 93.117 344.864L92.285 344.608ZM98.8941 339.408C99.5821 339.408 100.158 338.912 100.158 338.224C100.158 337.504 99.5821 337.024 98.8941 337.024C98.2061 337.024 97.6301 337.504 97.6301 338.224C97.6301 338.912 98.2061 339.408 98.8941 339.408ZM100.03 349.376C100.014 348.464 99.9981 347.12 99.9981 346.24V343.84L100.03 341.344L99.8061 341.2L96.5581 342.112V342.544L97.8541 342.672C97.8861 343.472 97.9021 344.08 97.9021 345.104V346.24C97.9021 347.12 97.8861 348.448 97.8701 349.36L96.7021 349.504V350H101.102V349.504L100.03 349.376ZM110.761 349.408V344.016L110.809 341.456L110.633 341.28L107.545 341.728V342.144L108.681 342.352L108.649 348.048C108.057 348.64 107.385 348.992 106.665 348.992C105.785 348.992 105.289 348.528 105.289 347.12V344.016L105.385 341.456L105.209 341.28L102.041 341.696V342.144L103.241 342.368L103.177 347.008C103.145 349.408 104.105 350.256 105.641 350.256C106.825 350.256 107.897 349.552 108.665 348.576L108.777 350.176L111.849 350V349.52L110.761 349.408ZM121.751 349.376C121.735 348.464 121.719 347.152 121.719 346.24V344.288C121.719 342.144 120.775 341.184 119.271 341.184C118.231 341.184 117.239 341.632 116.231 342.8L116.119 341.344L115.895 341.2L112.823 342.176V342.576L114.087 342.704C114.135 343.472 114.151 344.048 114.151 345.088V346.24C114.151 347.12 114.135 348.448 114.119 349.36L112.951 349.504V350H117.335V349.504L116.295 349.376C116.279 348.464 116.263 347.12 116.263 346.24V343.36C117.047 342.64 117.767 342.32 118.359 342.32C119.223 342.32 119.623 342.8 119.623 344.192V346.24C119.623 347.152 119.607 348.464 119.575 349.36L118.455 349.504V350H122.839V349.504L121.751 349.376ZM127.586 346.528C126.594 346.528 126.05 345.6 126.05 344.128C126.05 342.64 126.642 341.712 127.634 341.712C128.61 341.712 129.202 342.624 129.202 344.08C129.202 345.584 128.61 346.528 127.586 346.528ZM129.074 350.432C130.226 350.432 130.61 351.04 130.61 351.776C130.61 352.752 129.57 353.488 127.506 353.488C126.05 353.488 125.138 352.864 125.138 351.68C125.138 351.12 125.314 350.736 125.682 350.304C126.082 350.4 126.482 350.432 127.218 350.432H129.074ZM132.434 341.36L132.162 341.184L130.13 341.936C129.554 341.456 128.706 341.184 127.634 341.184C125.378 341.184 124.146 342.368 124.146 344.096C124.146 345.2 124.626 346.08 125.522 346.592C124.594 347.408 124.226 347.984 124.226 348.72C124.226 349.456 124.658 349.888 125.378 350.16C124.258 350.64 123.746 351.264 123.746 352C123.746 353.2 124.77 354.16 127.506 354.16C130.658 354.16 132.306 352.688 132.306 351.008C132.306 349.568 131.378 348.656 129.09 348.656H126.738C125.842 348.656 125.522 348.352 125.522 347.776C125.522 347.408 125.634 347.104 125.874 346.768C126.354 346.96 126.93 347.072 127.602 347.072C129.842 347.072 131.09 345.84 131.09 344.096C131.09 343.44 130.914 342.848 130.562 342.384L132.434 342.528V341.36ZM135.438 350.256C136.174 350.256 136.75 349.648 136.75 348.944C136.75 348.208 136.174 347.6 135.438 347.6C134.686 347.6 134.11 348.208 134.11 348.944C134.11 349.648 134.686 350.256 135.438 350.256ZM141.514 342.912C142.186 342.304 142.714 342.176 143.226 342.176C144.554 342.176 145.37 343.184 145.37 345.712C145.37 348.32 144.426 349.232 143.114 349.232C142.506 349.232 142.01 349.088 141.514 348.64V342.912ZM141.338 341.36L141.114 341.2L138.074 342.176V342.576L139.37 342.704C139.402 343.472 139.418 344.064 139.418 345.104V350.256C139.418 351.232 139.402 352.384 139.386 353.536L138.17 353.68V354.16H142.89V353.68L141.514 353.52C141.498 352.368 141.482 351.216 141.482 350.256V349.152C142.186 349.968 143.002 350.256 143.834 350.256C145.946 350.256 147.626 348.496 147.626 345.664C147.626 342.832 146.106 341.184 144.17 341.184C143.178 341.184 142.218 341.552 141.45 342.416L141.338 341.36ZM157.422 341.44H154.094V341.936L155.598 342.096L153.518 348.24L151.262 342.08L152.574 341.936V341.44H148.03V341.936L148.974 342.032L152.558 350.736C152.078 351.92 151.598 352.768 150.91 353.328L150.686 353.072C150.27 352.592 149.87 352.288 149.278 352.288C148.718 352.288 148.142 352.576 148.046 353.184C148.062 353.856 148.862 354.336 149.71 354.336C150.798 354.336 152.094 353.456 153.102 350.784L156.382 342.08L157.422 341.936V341.44Z" fill="#C2A53A"/>
<path d="M163.344 53.888C163.792 54.672 164.208 55.824 164.192 56.832C165.488 58.08 167.072 55.312 163.504 53.808L163.344 53.888ZM170.816 50.08H168.48V46.848C169.92 46.656 171.408 46.336 172.384 46.016C172.864 46.16 173.184 46.128 173.36 45.968L171.392 44.4C170.768 44.96 169.632 45.728 168.544 46.304L166.672 45.712V50.416C166.08 49.856 165.184 49.104 165.184 49.104L164.304 50.288H163.2C163.92 49.6 164.608 48.784 165.072 48.16C165.408 48.192 165.6 48.064 165.664 47.872L163.744 47.28H165.776C166 47.28 166.16 47.2 166.208 47.024C165.632 46.464 164.672 45.68 164.672 45.68L163.856 46.816H162.832C163.712 46.432 163.856 44.784 160.96 44.368L160.832 44.448C161.216 44.992 161.632 45.84 161.68 46.592C161.808 46.688 161.936 46.768 162.064 46.816H158.704L158.832 47.28H159.92L159.824 47.312C160.144 48.032 160.496 49.056 160.48 49.936C161.68 51.168 163.344 48.736 160.08 47.28H163.472C163.328 48.176 163.04 49.376 162.752 50.288H158.464L158.592 50.752H161.488V52.656H158.768L158.896 53.104H161.488V54.272L159.952 53.6C159.76 54.88 159.28 56.832 158.528 58.112L158.688 58.288C159.92 57.328 160.848 55.888 161.44 54.752H161.488V59.392H161.808C162.736 59.392 163.28 59.088 163.28 58.992V53.104H165.92C166.144 53.104 166.288 53.024 166.336 52.848C165.792 52.304 164.864 51.52 164.864 51.52L164.032 52.656H163.28V50.752H166.32C166.464 50.752 166.592 50.72 166.672 50.64V51.088C166.672 54 166.448 56.928 164.464 59.232L164.64 59.408C168.208 57.312 168.48 53.984 168.48 51.12V50.544H170.016V59.408H170.336C171.296 59.408 171.856 59.024 171.856 58.912V50.544H173.232C173.456 50.544 173.632 50.464 173.664 50.288C172.992 49.632 171.84 48.688 171.84 48.688L170.816 50.08ZM181.728 48.752C181.952 48.752 182.128 48.672 182.176 48.496C181.536 47.904 180.448 47.024 180.448 47.024L179.52 48.304H177.728C178.192 47.44 178.608 46.48 178.96 45.44C179.328 45.44 179.52 45.312 179.584 45.088L176.992 44.4C176.528 47.296 175.504 50.192 174.384 52.08L174.576 52.208C175.696 51.312 176.672 50.16 177.472 48.752H177.744V59.392H178.096C179.072 59.392 179.664 59.008 179.68 58.896V48.752H181.728ZM186.896 48.304H184.064C184.576 47.456 185.024 46.528 185.424 45.504C185.808 45.504 186 45.36 186.064 45.168L183.392 44.368C182.88 47.2 181.76 50.016 180.56 51.824L180.752 51.952C181.904 51.12 182.928 50.064 183.792 48.752H185.056V56.976C185.056 57.168 184.976 57.28 184.72 57.28C184.352 57.28 182.672 57.168 182.672 57.168V57.376C183.52 57.52 183.888 57.744 184.128 58.032C184.368 58.32 184.464 58.8 184.48 59.408C186.656 59.248 186.976 58.336 186.976 57.04V48.752H189.168C189.392 48.752 189.568 48.672 189.616 48.496C188.96 47.888 187.872 46.992 187.872 46.992L186.896 48.304ZM194.736 54.032H199.168V52.944H194.736V54.032ZM209.283 46.752C211.155 46.752 212.051 47.76 212.051 49.648C212.051 51.408 211.187 52.624 209.171 52.624H208.387V51.68C208.387 50.016 208.387 48.368 208.435 46.752H209.283ZM209.139 53.248C212.835 53.248 214.179 51.632 214.179 49.648C214.179 47.472 212.755 46.128 209.379 46.128H204.611V46.704L206.131 46.848C206.163 48.464 206.163 50.08 206.163 51.68V52.464C206.163 54.096 206.163 55.712 206.131 57.296L204.611 57.44V58H210.147V57.44L208.435 57.28C208.387 55.872 208.387 54.496 208.387 53.248H209.139ZM224.187 49.44H220.859V49.936L222.363 50.096L220.283 56.24L218.027 50.08L219.339 49.936V49.44H214.795V49.936L215.739 50.032L219.323 58.736C218.843 59.92 218.363 60.768 217.675 61.328L217.451 61.072C217.035 60.592 216.635 60.288 216.043 60.288C215.483 60.288 214.907 60.576 214.811 61.184C214.827 61.856 215.627 62.336 216.475 62.336C217.563 62.336 218.859 61.456 219.867 58.784L223.147 50.08L224.187 49.936V49.44ZM236.746 46.704V46.128H231.482V46.704L232.938 46.848C232.97 48.432 232.97 50.032 232.97 51.616H228.074C228.074 50.016 228.074 48.416 228.122 46.848L229.578 46.704V46.128H224.314V46.704L225.834 46.864C225.85 48.464 225.85 50.08 225.85 51.68V52.464C225.85 54.096 225.85 55.712 225.834 57.296L224.314 57.44V58H229.578V57.44L228.122 57.312C228.074 55.712 228.074 54.08 228.074 52.24H232.97C232.97 54.096 232.97 55.728 232.938 57.312L231.482 57.44V58H236.746V57.44L235.226 57.296C235.21 55.696 235.21 54.064 235.21 52.464V51.68C235.21 50.048 235.21 48.448 235.226 46.848L236.746 46.704ZM246.074 57.408V52.016L246.122 49.456L245.946 49.28L242.858 49.728V50.144L243.994 50.352L243.962 56.048C243.37 56.64 242.698 56.992 241.978 56.992C241.098 56.992 240.602 56.528 240.602 55.12V52.016L240.698 49.456L240.522 49.28L237.354 49.696V50.144L238.554 50.368L238.49 55.008C238.458 57.408 239.418 58.256 240.954 58.256C242.138 58.256 243.21 57.552 243.978 56.576L244.09 58.176L247.162 58V57.52L246.074 57.408ZM251.992 54.528C251 54.528 250.456 53.6 250.456 52.128C250.456 50.64 251.048 49.712 252.04 49.712C253.016 49.712 253.608 50.624 253.608 52.08C253.608 53.584 253.016 54.528 251.992 54.528ZM253.48 58.432C254.632 58.432 255.016 59.04 255.016 59.776C255.016 60.752 253.976 61.488 251.912 61.488C250.456 61.488 249.544 60.864 249.544 59.68C249.544 59.12 249.72 58.736 250.088 58.304C250.488 58.4 250.888 58.432 251.624 58.432H253.48ZM256.84 49.36L256.568 49.184L254.536 49.936C253.96 49.456 253.112 49.184 252.04 49.184C249.784 49.184 248.552 50.368 248.552 52.096C248.552 53.2 249.032 54.08 249.928 54.592C249 55.408 248.632 55.984 248.632 56.72C248.632 57.456 249.064 57.888 249.784 58.16C248.664 58.64 248.152 59.264 248.152 60C248.152 61.2 249.176 62.16 251.912 62.16C255.064 62.16 256.712 60.688 256.712 59.008C256.712 57.568 255.784 56.656 253.496 56.656H251.144C250.248 56.656 249.928 56.352 249.928 55.776C249.928 55.408 250.04 55.104 250.28 54.768C250.76 54.96 251.336 55.072 252.008 55.072C254.248 55.072 255.496 53.84 255.496 52.096C255.496 51.44 255.32 50.848 254.968 50.384L256.84 50.528V49.36Z" fill="#C2A53A"/>
<path d="M377.704 167.008C378.632 166.592 379.576 166.08 380.472 165.408V171.408H380.808C381.512 171.408 382.28 171.072 382.296 170.944V164.544C382.6 164.496 382.744 164.384 382.792 164.24L382.088 163.968C382.584 163.456 383.064 162.896 383.512 162.256C383.864 162.304 384.088 162.176 384.168 161.984L381.72 160.928C380.728 163.328 379.048 165.568 377.56 166.848L377.704 167.008ZM382.552 158.576H381.992L381.816 157.088C382.136 157.008 382.264 156.832 382.28 156.64L379.928 156.48L380.168 158.576H377.4L377.528 159.04H380.216L380.44 160.928C381.272 160.944 381.96 160.8 382.232 160.448L382.056 159.04H384.648C384.872 159.04 385.032 158.96 385.08 158.784C384.488 158.176 383.448 157.312 383.448 157.312L382.552 158.576ZM391.56 166.784H391.384C391.096 167.792 390.824 168.64 390.632 168.928C390.52 169.088 390.392 169.136 390.216 169.152C389.976 169.184 389.528 169.184 389 169.184H387.576C387.032 169.184 386.904 169.072 386.904 168.768V165.216H391.368C391.608 165.216 391.784 165.136 391.832 164.96C391.176 164.32 390.072 163.392 390.072 163.392L389.096 164.752H386.904V161.824C387.288 161.776 387.432 161.616 387.448 161.408L385.064 161.184V169.264C385.064 170.592 385.496 170.944 387.16 170.944H388.808C391.528 170.944 392.28 170.608 392.28 169.792C392.28 169.44 392.136 169.232 391.624 169.024L391.56 166.784ZM390.104 158.576H388.968L389.16 157.312C389.592 157.28 389.736 157.12 389.784 156.928L387.48 156.48L387.16 158.576H385.464L385.592 159.04H387.096L386.824 160.784C387.608 160.944 388.328 160.832 388.664 160.576L388.904 159.04H392.216C392.44 159.04 392.6 158.96 392.632 158.784C392.04 158.176 390.984 157.312 390.984 157.312L390.104 158.576ZM401.544 158.32H403.352L403.16 159.552C403.928 159.712 404.648 159.6 405 159.328L405.176 158.32H408.136C408.344 158.32 408.504 158.24 408.536 158.064C408.008 157.504 407.048 156.736 407.048 156.736L406.216 157.872H405.24L405.368 157.184C405.784 157.152 405.928 156.976 405.96 156.768L403.656 156.4L403.416 157.872H401.416L401.544 158.32ZM393.8 158.32H396.392L396.616 159.632C397.448 159.616 398.12 159.472 398.376 159.104L398.216 158.32H400.776C400.984 158.32 401.16 158.24 401.192 158.064C400.648 157.504 399.704 156.736 399.704 156.736L398.872 157.872H398.136L397.96 156.944C398.264 156.848 398.376 156.656 398.376 156.464L396.056 156.4L396.312 157.872H393.672L393.8 158.32ZM394.696 159.408C395.144 159.84 395.624 160.64 395.704 161.328C397.288 162.384 398.744 159.408 394.824 159.312L394.696 159.408ZM401.816 162.656V163.888H400.536V162.656H401.816ZM404.6 162.656V163.888H403.416V162.656H404.6ZM403.416 167.184V166.096H404.6V166.64H404.872C405.128 166.64 405.432 166.56 405.704 166.464L405.096 167.184H403.416ZM404.6 165.632H403.416V164.352H404.6V165.632ZM400.536 165.632V164.352H401.816V165.632H400.536ZM398.952 166.896H399.192C399.848 166.896 400.536 166.544 400.536 166.4V166.096H401.816V167.184H397.992L398.12 167.648H401.816V169.328H402.12C402.712 169.328 403.416 168.992 403.416 168.832V167.648H407.224C407.448 167.648 407.624 167.568 407.656 167.392C407.192 166.976 406.488 166.448 406.168 166.208C406.184 166.192 406.184 166.176 406.184 166.176V162.88C406.472 162.816 406.68 162.688 406.776 162.576L405.192 161.392L404.44 162.192H403.416V161.184H406.888C407.112 161.184 407.288 161.104 407.32 160.928C406.68 160.384 405.64 159.632 405.64 159.632L404.744 160.736H403.416V160.08C403.752 160.032 403.848 159.904 403.864 159.728L401.816 159.52V160.736H398.008L398.136 161.184H401.816V162.192H400.616L398.952 161.52V165.408L397.64 164.352L396.808 165.168H396.136C396.552 164.544 397.08 163.712 397.432 163.136C397.832 163.12 398.184 163.04 398.344 162.864L396.808 161.472L396.04 162.256H393.752L393.896 162.704H396.008C395.656 163.344 395.128 164.208 394.728 164.816C394.488 164.896 394.232 164.992 394.072 165.104L395.384 166.112L395.944 165.616H396.904C396.712 166.56 396.328 167.648 395.864 168.464C395.384 168.624 394.36 169.12 393.592 169.408L394.824 171.232C394.952 171.152 395 171.056 394.968 170.928C395.304 170.224 395.688 169.584 395.928 169.2C396.072 168.928 396.264 168.896 396.52 169.184C397.816 170.512 399.144 171.056 402.616 171.056H407.272C407.368 170.336 407.8 169.616 408.552 169.488V169.296C406.696 169.408 405.16 169.408 403.272 169.408C399.848 169.424 397.816 169.248 396.68 168.576C396.6 168.544 396.536 168.512 396.456 168.496C397.368 167.696 398.088 166.672 398.44 165.696C398.696 165.68 398.84 165.664 398.952 165.6V166.896ZM413.736 166.032H418.168V164.944H413.736V166.032ZM436.043 158.704V158.128H430.779V158.704L432.235 158.848C432.267 160.432 432.267 162.032 432.267 163.616H427.371C427.371 162.016 427.371 160.416 427.419 158.848L428.875 158.704V158.128H423.611V158.704L425.131 158.864C425.147 160.464 425.147 162.08 425.147 163.68V164.464C425.147 166.096 425.147 167.712 425.131 169.296L423.611 169.44V170H428.875V169.44L427.419 169.312C427.371 167.712 427.371 166.08 427.371 164.24H432.267C432.267 166.096 432.267 167.728 432.235 169.312L430.779 169.44V170H436.043V169.44L434.523 169.296C434.507 167.696 434.507 166.064 434.507 164.464V163.68C434.507 162.048 434.507 160.448 434.523 158.848L436.043 158.704ZM445.371 169.408V164.016L445.419 161.456L445.243 161.28L442.155 161.728V162.144L443.291 162.352L443.259 168.048C442.667 168.64 441.995 168.992 441.275 168.992C440.395 168.992 439.899 168.528 439.899 167.12V164.016L439.995 161.456L439.819 161.28L436.651 161.696V162.144L437.851 162.368L437.787 167.008C437.755 169.408 438.715 170.256 440.251 170.256C441.435 170.256 442.507 169.552 443.275 168.576L443.387 170.176L446.459 170V169.52L445.371 169.408ZM452.617 168.368C451.881 168.976 451.481 169.216 450.953 169.216C450.185 169.216 449.673 168.768 449.673 167.824C449.673 166.832 450.153 166.096 451.417 165.6C451.689 165.488 452.137 165.36 452.617 165.216V168.368ZM455.961 168.896C455.673 169.28 455.481 169.424 455.241 169.424C454.889 169.424 454.665 169.184 454.665 168.464V164.336C454.665 162.096 453.785 161.184 451.689 161.184C449.465 161.184 448.137 162.08 447.929 163.52C448.025 164 448.361 164.256 448.889 164.256C449.433 164.256 449.865 163.904 449.929 163.024L450.153 161.872C450.441 161.808 450.713 161.776 450.985 161.776C452.185 161.776 452.617 162.24 452.617 163.936V164.752C451.993 164.896 451.353 165.072 450.873 165.232C448.409 166 447.673 166.784 447.673 168.112C447.673 169.456 448.649 170.256 449.993 170.256C451.177 170.256 451.801 169.76 452.681 168.832C452.889 169.696 453.449 170.24 454.425 170.24C455.273 170.24 455.833 169.936 456.249 169.136L455.961 168.896ZM460.201 169.376C460.169 168.352 460.153 167.248 460.153 166.24V159.584L460.217 157.04L459.993 156.896L456.777 157.584V158.032L458.073 158.128V166.24C458.073 167.248 458.057 168.352 458.025 169.36L456.793 169.504V170H461.433V169.504L460.201 169.376ZM464.707 159.408C465.395 159.408 465.971 158.912 465.971 158.224C465.971 157.504 465.395 157.024 464.707 157.024C464.019 157.024 463.443 157.504 463.443 158.224C463.443 158.912 464.019 159.408 464.707 159.408ZM465.843 169.376C465.827 168.464 465.811 167.12 465.811 166.24V163.84L465.843 161.344L465.619 161.2L462.371 162.112V162.544L463.667 162.672C463.699 163.472 463.715 164.08 463.715 165.104V166.24C463.715 167.12 463.699 168.448 463.683 169.36L462.515 169.504V170H466.915V169.504L465.843 169.376ZM470.302 165.088C470.398 162.752 471.278 161.776 472.286 161.776C473.262 161.776 473.95 162.608 473.95 163.904C473.95 164.72 473.774 165.088 473.038 165.088H470.302ZM475.838 165.68C475.918 165.408 475.95 165.104 475.95 164.688C475.95 162.672 474.622 161.184 472.43 161.184C470.19 161.184 468.078 162.832 468.078 165.712C468.078 168.624 469.902 170.256 472.414 170.256C473.998 170.256 475.214 169.504 475.854 168.192L475.534 167.968C474.974 168.72 474.286 169.2 473.134 169.2C471.582 169.2 470.366 168.128 470.302 165.68H475.838ZM485.986 169.376C485.97 168.464 485.954 167.152 485.954 166.24V164.288C485.954 162.144 485.01 161.184 483.506 161.184C482.466 161.184 481.474 161.632 480.466 162.8L480.354 161.344L480.13 161.2L477.058 162.176V162.576L478.322 162.704C478.37 163.472 478.386 164.048 478.386 165.088V166.24C478.386 167.12 478.37 168.448 478.354 169.36L477.186 169.504V170H481.57V169.504L480.53 169.376C480.514 168.464 480.498 167.12 480.498 166.24V163.36C481.282 162.64 482.002 162.32 482.594 162.32C483.458 162.32 483.858 162.8 483.858 164.192V166.24C483.858 167.152 483.842 168.464 483.81 169.36L482.69 169.504V170H487.074V169.504L485.986 169.376ZM490.188 170.256C490.924 170.256 491.5 169.648 491.5 168.944C491.5 168.208 490.924 167.6 490.188 167.6C489.436 167.6 488.86 168.208 488.86 168.944C488.86 169.648 489.436 170.256 490.188 170.256ZM496.264 162.912C496.936 162.304 497.464 162.176 497.976 162.176C499.304 162.176 500.12 163.184 500.12 165.712C500.12 168.32 499.176 169.232 497.864 169.232C497.256 169.232 496.76 169.088 496.264 168.64V162.912ZM496.088 161.36L495.864 161.2L492.824 162.176V162.576L494.12 162.704C494.152 163.472 494.168 164.064 494.168 165.104V170.256C494.168 171.232 494.152 172.384 494.136 173.536L492.92 173.68V174.16H497.64V173.68L496.264 173.52C496.248 172.368 496.232 171.216 496.232 170.256V169.152C496.936 169.968 497.752 170.256 498.584 170.256C500.696 170.256 502.376 168.496 502.376 165.664C502.376 162.832 500.856 161.184 498.92 161.184C497.928 161.184 496.968 161.552 496.2 162.416L496.088 161.36ZM512.172 161.44H508.844V161.936L510.348 162.096L508.268 168.24L506.012 162.08L507.324 161.936V161.44H502.78V161.936L503.724 162.032L507.308 170.736C506.828 171.92 506.348 172.768 505.66 173.328L505.436 173.072C505.02 172.592 504.62 172.288 504.028 172.288C503.468 172.288 502.892 172.576 502.796 173.184C502.812 173.856 503.612 174.336 504.46 174.336C505.548 174.336 506.844 173.456 507.852 170.784L511.132 162.08L512.172 161.936V161.44Z" fill="#C2A53A"/>
<path d="M81.992 104.488V100.296H88.104V104.488H81.992ZM87.912 99.832H82.104L80.008 99.016V106.392H80.296C81.112 106.392 81.992 105.944 81.992 105.752V104.936H88.104V106.28H88.424C89.08 106.28 90.072 105.928 90.088 105.832V100.68C90.472 100.6 90.712 100.44 90.824 100.296L88.856 98.776L87.912 99.832ZM86.808 93.912C87.592 94.584 88.424 95.48 89.112 96.424C85.624 96.552 82.28 96.648 80.136 96.68C82.184 95.608 84.504 93.976 85.736 92.68C86.104 92.712 86.312 92.584 86.376 92.408L83.768 91.368C83.016 92.904 80.632 95.592 78.984 96.472C78.792 96.584 78.344 96.664 78.344 96.664L78.984 98.824C79.16 98.776 79.32 98.664 79.464 98.488C83.624 97.896 87.048 97.32 89.4 96.84C89.784 97.416 90.104 98.008 90.296 98.552C92.344 99.8 93.448 95.464 86.952 93.8L86.808 93.912ZM101.976 99.672V95.4H105.576V99.672H101.976ZM96.408 99.672V95.4H99.976V99.672H96.408ZM106.328 93.944L105.432 94.936H101.976V92.136C102.408 92.072 102.536 91.896 102.568 91.672L99.976 91.432V94.936H96.552L94.424 94.104V101.72H94.712C95.528 101.72 96.408 101.272 96.408 101.08V100.136H99.976V106.424H100.344C101.112 106.424 101.976 105.944 101.976 105.736V100.136H105.576V101.48H105.912C106.568 101.48 107.56 101.128 107.576 101V95.736C107.912 95.672 108.12 95.512 108.232 95.384L106.328 93.944ZM113.736 101.032H118.168V99.944H113.736V101.032ZM132.059 93.8L132.715 96.44H133.611L133.515 93.128H123.355L123.243 96.44H124.139L124.811 93.8H127.291C127.307 95.416 127.307 97.064 127.307 98.68V99.464C127.307 101.096 127.307 102.712 127.291 104.296L125.579 104.44V105H131.291V104.44L129.579 104.296C129.547 102.68 129.547 101.064 129.547 99.464V98.68C129.547 97.032 129.547 95.4 129.579 93.8H132.059ZM138.695 103.368C137.959 103.976 137.559 104.216 137.031 104.216C136.263 104.216 135.751 103.768 135.751 102.824C135.751 101.832 136.231 101.096 137.495 100.6C137.767 100.488 138.215 100.36 138.695 100.216V103.368ZM142.039 103.896C141.751 104.28 141.559 104.424 141.319 104.424C140.967 104.424 140.743 104.184 140.743 103.464V99.336C140.743 97.096 139.863 96.184 137.767 96.184C135.543 96.184 134.215 97.08 134.007 98.52C134.103 99 134.439 99.256 134.967 99.256C135.511 99.256 135.943 98.904 136.007 98.024L136.231 96.872C136.519 96.808 136.791 96.776 137.063 96.776C138.263 96.776 138.695 97.24 138.695 98.936V99.752C138.071 99.896 137.431 100.072 136.951 100.232C134.487 101 133.751 101.784 133.751 103.112C133.751 104.456 134.727 105.256 136.071 105.256C137.255 105.256 137.879 104.76 138.759 103.832C138.967 104.696 139.527 105.24 140.503 105.24C141.351 105.24 141.911 104.936 142.327 104.136L142.039 103.896ZM145.175 94.408C145.863 94.408 146.439 93.912 146.439 93.224C146.439 92.504 145.863 92.024 145.175 92.024C144.487 92.024 143.911 92.504 143.911 93.224C143.911 93.912 144.487 94.408 145.175 94.408ZM146.311 104.376C146.295 103.464 146.279 102.12 146.279 101.24V98.84L146.311 96.344L146.087 96.2L142.839 97.112V97.544L144.135 97.672C144.167 98.472 144.183 99.08 144.183 100.104V101.24C144.183 102.12 144.167 103.448 144.151 104.36L142.983 104.504V105H147.383V104.504L146.311 104.376ZM154.195 98.104C154.291 99 154.739 99.336 155.347 99.336C155.827 99.336 156.131 99.096 156.275 98.584C156.035 97.208 154.771 96.184 153.075 96.184C150.611 96.184 148.531 97.848 148.531 100.744C148.531 103.592 150.371 105.256 152.787 105.256C154.467 105.256 155.619 104.504 156.275 103.176L155.939 103C155.363 103.768 154.595 104.2 153.635 104.2C151.907 104.2 150.739 102.856 150.739 100.536C150.739 98.152 151.811 96.776 153.331 96.776C153.539 96.776 153.747 96.792 153.955 96.856L154.195 98.104ZM165.923 104.376C165.907 103.464 165.891 102.152 165.891 101.24V99.32C165.891 97.096 164.963 96.184 163.443 96.184C162.275 96.184 161.331 96.728 160.371 97.832V94.584L160.435 92.04L160.195 91.896L157.027 92.584V93.032L158.323 93.128V101.24C158.323 102.12 158.307 103.448 158.291 104.36L157.123 104.504V105H161.475V104.504L160.451 104.376C160.419 103.464 160.403 102.12 160.403 101.24V98.36C161.187 97.64 161.875 97.32 162.515 97.32C163.347 97.32 163.811 97.8 163.811 99.192V101.24C163.811 102.152 163.795 103.464 163.779 104.36L162.627 104.504V105H167.011V104.504L165.923 104.376ZM176.558 104.408V99.016L176.606 96.456L176.43 96.28L173.342 96.728V97.144L174.478 97.352L174.446 103.048C173.854 103.64 173.182 103.992 172.462 103.992C171.582 103.992 171.086 103.528 171.086 102.12V99.016L171.182 96.456L171.006 96.28L167.838 96.696V97.144L169.038 97.368L168.974 102.008C168.942 104.408 169.902 105.256 171.438 105.256C172.622 105.256 173.694 104.552 174.462 103.576L174.574 105.176L177.646 105V104.52L176.558 104.408ZM187.548 104.376C187.532 103.464 187.516 102.152 187.516 101.24V99.288C187.516 97.144 186.572 96.184 185.068 96.184C184.028 96.184 183.036 96.632 182.028 97.8L181.916 96.344L181.692 96.2L178.62 97.176V97.576L179.884 97.704C179.932 98.472 179.948 99.048 179.948 100.088V101.24C179.948 102.12 179.932 103.448 179.916 104.36L178.748 104.504V105H183.132V104.504L182.092 104.376C182.076 103.464 182.06 102.12 182.06 101.24V98.36C182.844 97.64 183.564 97.32 184.156 97.32C185.02 97.32 185.42 97.8 185.42 99.192V101.24C185.42 102.152 185.404 103.464 185.372 104.36L184.252 104.504V105H188.636V104.504L187.548 104.376ZM193.383 101.528C192.391 101.528 191.847 100.6 191.847 99.128C191.847 97.64 192.439 96.712 193.431 96.712C194.407 96.712 194.999 97.624 194.999 99.08C194.999 100.584 194.407 101.528 193.383 101.528ZM194.871 105.432C196.023 105.432 196.407 106.04 196.407 106.776C196.407 107.752 195.367 108.488 193.303 108.488C191.847 108.488 190.935 107.864 190.935 106.68C190.935 106.12 191.111 105.736 191.479 105.304C191.879 105.4 192.279 105.432 193.015 105.432H194.871ZM198.231 96.36L197.959 96.184L195.927 96.936C195.351 96.456 194.503 96.184 193.431 96.184C191.174 96.184 189.943 97.368 189.943 99.096C189.943 100.2 190.423 101.08 191.319 101.592C190.391 102.408 190.023 102.984 190.023 103.72C190.023 104.456 190.455 104.888 191.174 105.16C190.055 105.64 189.543 106.264 189.543 107C189.543 108.2 190.567 109.16 193.303 109.16C196.455 109.16 198.102 107.688 198.102 106.008C198.102 104.568 197.175 103.656 194.887 103.656H192.535C191.639 103.656 191.319 103.352 191.319 102.776C191.319 102.408 191.431 102.104 191.671 101.768C192.151 101.96 192.727 102.072 193.399 102.072C195.639 102.072 196.887 100.84 196.887 99.096C196.887 98.44 196.711 97.848 196.359 97.384L198.231 97.528V96.36ZM201.235 105.256C201.971 105.256 202.547 104.648 202.547 103.944C202.547 103.208 201.971 102.6 201.235 102.6C200.483 102.6 199.907 103.208 199.907 103.944C199.907 104.648 200.483 105.256 201.235 105.256ZM207.311 97.912C207.983 97.304 208.511 97.176 209.023 97.176C210.351 97.176 211.167 98.184 211.167 100.712C211.167 103.32 210.223 104.232 208.911 104.232C208.303 104.232 207.807 104.088 207.311 103.64V97.912ZM207.135 96.36L206.911 96.2L203.871 97.176V97.576L205.167 97.704C205.199 98.472 205.215 99.064 205.215 100.104V105.256C205.215 106.232 205.199 107.384 205.183 108.536L203.967 108.68V109.16H208.687V108.68L207.311 108.52C207.295 107.368 207.279 106.216 207.279 105.256V104.152C207.983 104.968 208.799 105.256 209.631 105.256C211.743 105.256 213.423 103.496 213.423 100.664C213.423 97.832 211.903 96.184 209.967 96.184C208.975 96.184 208.015 96.552 207.247 97.416L207.135 96.36ZM223.219 96.44H219.891V96.936L221.395 97.096L219.315 103.24L217.059 97.08L218.371 96.936V96.44H213.827V96.936L214.771 97.032L218.355 105.736C217.875 106.92 217.395 107.768 216.707 108.328L216.483 108.072C216.067 107.592 215.667 107.288 215.075 107.288C214.515 107.288 213.939 107.576 213.843 108.184C213.859 108.856 214.659 109.336 215.507 109.336C216.595 109.336 217.891 108.456 218.899 105.784L222.179 97.08L223.219 96.936V96.44Z" fill="#C2A53A"/>
<path d="M45.632 172.552C45.856 172.552 46.016 172.472 46.064 172.296C45.456 171.768 44.48 171.032 44.48 171.032L43.616 172.104H42.88V170.168H45.52C45.744 170.168 45.904 170.088 45.936 169.912C45.376 169.416 44.512 168.776 44.512 168.776L43.728 169.704H42.816C43.472 169.096 44.144 168.36 44.592 167.832C44.928 167.848 45.12 167.72 45.184 167.528L43.072 166.92C42.912 167.736 42.624 168.872 42.352 169.704H38.544L38.672 170.168H41.056V172.104H38.192L38.32 172.552H41.056V175.928H41.376C42.32 175.928 42.864 175.624 42.88 175.544V172.552H45.632ZM39.04 167.112C39.44 167.672 39.808 168.536 39.824 169.32C41.2 170.504 42.848 167.832 39.216 167.016L39.04 167.112ZM46.272 163.736H42.96V162.04C43.392 161.976 43.52 161.816 43.552 161.592L41.056 161.384V163.736H34.624L34.768 164.184H41.056V166.296H37.984L35.936 165.464V176.44H36.24C37.04 176.44 37.856 175.992 37.856 175.784V166.744H46.368V174.12C46.368 174.328 46.304 174.456 46.032 174.456C45.6 174.456 43.936 174.328 43.936 174.328V174.552C44.768 174.68 45.12 174.904 45.392 175.176C45.648 175.464 45.744 175.88 45.792 176.472C47.984 176.264 48.304 175.544 48.304 174.312V167.064C48.624 167 48.848 166.856 48.944 166.728L47.088 165.304L46.208 166.296H42.96V164.184H48.96C49.2 164.184 49.376 164.104 49.424 163.928C48.64 163.272 47.392 162.328 47.392 162.328L46.272 163.736ZM55.856 168.728C58.896 167.48 59.232 165.24 59.232 163.848V163.016H61.472V166.264C61.472 167.304 61.6 167.64 62.784 167.64H63.52C64.992 167.64 65.552 167.304 65.552 166.648C65.552 166.328 65.424 166.168 65.04 165.976L64.96 165.96H64.8C64.704 165.976 64.56 166.008 64.464 166.024C64.384 166.04 64.208 166.04 64.128 166.04H63.76H63.36C63.168 166.04 63.136 165.976 63.136 165.816V163.176C63.424 163.128 63.616 163.048 63.712 162.936L62.16 161.656L61.312 162.568H59.504L57.536 161.848V163.848C57.536 165.32 57.344 167.128 55.728 168.568L55.856 168.728ZM56.224 167.24C55.6 167.512 54.96 167.784 54.336 168.04V165.656H56.4C56.624 165.656 56.8 165.576 56.832 165.4C56.288 164.792 55.344 163.944 55.344 163.944L54.496 165.192H54.336V162.104C54.736 162.04 54.896 161.88 54.928 161.64L52.512 161.416V165.192H50.464L50.576 165.656H52.512V168.76C51.584 169.144 50.816 169.432 50.384 169.576L51.344 171.64C51.52 171.56 51.648 171.352 51.696 171.144C51.984 170.936 52.256 170.728 52.512 170.536V173.896C52.512 174.088 52.432 174.184 52.176 174.184C51.856 174.184 50.416 174.088 50.416 174.088V174.312C51.104 174.44 51.456 174.648 51.68 174.984C51.888 175.304 51.984 175.768 52.016 176.424C54.08 176.216 54.336 175.432 54.336 174.088V169.096C55.152 168.424 55.824 167.832 56.304 167.384L56.224 167.24ZM61.984 169.256C61.568 170.424 60.976 171.496 60.192 172.424C59.184 171.64 58.384 170.6 57.888 169.256H61.984ZM62.96 167.816L61.936 168.792H56.208L56.352 169.256H57.584C57.984 170.952 58.576 172.248 59.392 173.288C58.112 174.52 56.464 175.496 54.48 176.2L54.592 176.408C56.88 175.96 58.72 175.208 60.192 174.184C61.216 175.176 62.528 175.864 64.08 176.408C64.336 175.544 64.864 174.984 65.616 174.824L65.648 174.632C64.096 174.328 62.64 173.896 61.392 173.208C62.496 172.184 63.328 170.968 63.936 169.576C64.336 169.544 64.496 169.48 64.624 169.32L62.96 167.816ZM70.7356 171.032H75.1676V169.944H70.7356V171.032ZM92.3546 163.128H88.0346V163.704L90.0986 163.928L90.1466 171.832L83.8746 163.128H80.4986V163.704L81.7146 163.848L81.9706 164.184L81.8906 174.248L80.4026 174.44V175H84.7226V174.44L82.6746 174.232L82.6266 165.112L89.6986 175.064H90.8026L90.8826 163.912L92.3546 163.704V163.128ZM98.0543 173.368C97.3183 173.976 96.9183 174.216 96.3903 174.216C95.6223 174.216 95.1103 173.768 95.1103 172.824C95.1103 171.832 95.5903 171.096 96.8543 170.6C97.1263 170.488 97.5743 170.36 98.0543 170.216V173.368ZM101.398 173.896C101.11 174.28 100.918 174.424 100.678 174.424C100.326 174.424 100.102 174.184 100.102 173.464V169.336C100.102 167.096 99.2223 166.184 97.1263 166.184C94.9023 166.184 93.5743 167.08 93.3663 168.52C93.4622 169 93.7983 169.256 94.3263 169.256C94.8703 169.256 95.3023 168.904 95.3663 168.024L95.5903 166.872C95.8783 166.808 96.1503 166.776 96.4223 166.776C97.6223 166.776 98.0543 167.24 98.0543 168.936V169.752C97.4303 169.896 96.7903 170.072 96.3103 170.232C93.8463 171 93.1103 171.784 93.1103 173.112C93.1103 174.456 94.0863 175.256 95.4303 175.256C96.6143 175.256 97.2383 174.76 98.1183 173.832C98.3263 174.696 98.8863 175.24 99.8623 175.24C100.71 175.24 101.27 174.936 101.686 174.136L101.398 173.896ZM111.111 174.376C111.095 173.464 111.079 172.152 111.079 171.24V169.288C111.079 167.144 110.135 166.184 108.631 166.184C107.591 166.184 106.599 166.632 105.591 167.8L105.479 166.344L105.255 166.2L102.183 167.176V167.576L103.447 167.704C103.495 168.472 103.511 169.048 103.511 170.088V171.24C103.511 172.12 103.495 173.448 103.479 174.36L102.311 174.504V175H106.695V174.504L105.655 174.376C105.639 173.464 105.623 172.12 105.623 171.24V168.36C106.407 167.64 107.127 167.32 107.719 167.32C108.583 167.32 108.983 167.8 108.983 169.192V171.24C108.983 172.152 108.967 173.464 108.935 174.36L107.815 174.504V175H112.199V174.504L111.111 174.376ZM118.435 173.816C118.003 174.136 117.715 174.296 117.299 174.296C116.659 174.296 116.259 173.928 116.259 173.032V167.112H118.387V166.44H116.275L116.323 163.912H114.947L114.259 166.424L112.771 166.584V167.112H114.147V171.304C114.147 171.944 114.131 172.392 114.131 172.904C114.131 174.536 114.947 175.256 116.419 175.256C117.507 175.256 118.259 174.84 118.723 174.12L118.435 173.816ZM123.71 175.256C126.158 175.256 128.03 173.576 128.03 170.696C128.03 167.816 126.03 166.184 123.71 166.184C121.374 166.184 119.39 167.832 119.39 170.696C119.39 173.56 121.23 175.256 123.71 175.256ZM123.71 174.664C122.382 174.664 121.646 173.368 121.646 170.712C121.646 168.072 122.382 166.776 123.71 166.776C125.006 166.776 125.774 168.072 125.774 170.712C125.774 173.368 125.006 174.664 123.71 174.664ZM137.777 174.408V169.016L137.825 166.456L137.649 166.28L134.561 166.728V167.144L135.697 167.352L135.665 173.048C135.073 173.64 134.401 173.992 133.681 173.992C132.801 173.992 132.305 173.528 132.305 172.12V169.016L132.401 166.456L132.225 166.28L129.057 166.696V167.144L130.257 167.368L130.193 172.008C130.161 174.408 131.121 175.256 132.657 175.256C133.841 175.256 134.913 174.552 135.681 173.576L135.793 175.176L138.865 175V174.52L137.777 174.408ZM142.063 175.256C142.799 175.256 143.375 174.648 143.375 173.944C143.375 173.208 142.799 172.6 142.063 172.6C141.311 172.6 140.735 173.208 140.735 173.944C140.735 174.648 141.311 175.256 142.063 175.256ZM148.139 167.912C148.811 167.304 149.339 167.176 149.851 167.176C151.179 167.176 151.995 168.184 151.995 170.712C151.995 173.32 151.051 174.232 149.739 174.232C149.131 174.232 148.635 174.088 148.139 173.64V167.912ZM147.963 166.36L147.739 166.2L144.699 167.176V167.576L145.995 167.704C146.027 168.472 146.043 169.064 146.043 170.104V175.256C146.043 176.232 146.027 177.384 146.011 178.536L144.795 178.68V179.16H149.515V178.68L148.139 178.52C148.123 177.368 148.107 176.216 148.107 175.256V174.152C148.811 174.968 149.627 175.256 150.459 175.256C152.571 175.256 154.251 173.496 154.251 170.664C154.251 167.832 152.731 166.184 150.795 166.184C149.803 166.184 148.843 166.552 148.075 167.416L147.963 166.36ZM164.047 166.44H160.719V166.936L162.223 167.096L160.143 173.24L157.887 167.08L159.199 166.936V166.44H154.655V166.936L155.599 167.032L159.183 175.736C158.703 176.92 158.223 177.768 157.535 178.328L157.311 178.072C156.895 177.592 156.495 177.288 155.903 177.288C155.343 177.288 154.767 177.576 154.671 178.184C154.687 178.856 155.487 179.336 156.335 179.336C157.423 179.336 158.719 178.456 159.727 175.784L163.007 167.08L164.047 166.936V166.44Z" fill="#C2A53A"/>
<path d="M18.992 283.488V279.296H25.104V283.488H18.992ZM24.912 278.832H19.104L17.008 278.016V285.392H17.296C18.112 285.392 18.992 284.944 18.992 284.752V283.936H25.104V285.28H25.424C26.08 285.28 27.072 284.928 27.088 284.832V279.68C27.472 279.6 27.712 279.44 27.824 279.296L25.856 277.776L24.912 278.832ZM23.808 272.912C24.592 273.584 25.424 274.48 26.112 275.424C22.624 275.552 19.28 275.648 17.136 275.68C19.184 274.608 21.504 272.976 22.736 271.68C23.104 271.712 23.312 271.584 23.376 271.408L20.768 270.368C20.016 271.904 17.632 274.592 15.984 275.472C15.792 275.584 15.344 275.664 15.344 275.664L15.984 277.824C16.16 277.776 16.32 277.664 16.464 277.488C20.624 276.896 24.048 276.32 26.4 275.84C26.784 276.416 27.104 277.008 27.296 277.552C29.344 278.8 30.448 274.464 23.952 272.8L23.808 272.912ZM41.632 281.552C41.856 281.552 42.016 281.472 42.064 281.296C41.456 280.768 40.48 280.032 40.48 280.032L39.616 281.104H38.88V279.168H41.52C41.744 279.168 41.904 279.088 41.936 278.912C41.376 278.416 40.512 277.776 40.512 277.776L39.728 278.704H38.816C39.472 278.096 40.144 277.36 40.592 276.832C40.928 276.848 41.12 276.72 41.184 276.528L39.072 275.92C38.912 276.736 38.624 277.872 38.352 278.704H34.544L34.672 279.168H37.056V281.104H34.192L34.32 281.552H37.056V284.928H37.376C38.32 284.928 38.864 284.624 38.88 284.544V281.552H41.632ZM35.04 276.112C35.44 276.672 35.808 277.536 35.824 278.32C37.2 279.504 38.848 276.832 35.216 276.016L35.04 276.112ZM42.272 272.736H38.96V271.04C39.392 270.976 39.52 270.816 39.552 270.592L37.056 270.384V272.736H30.624L30.768 273.184H37.056V275.296H33.984L31.936 274.464V285.44H32.24C33.04 285.44 33.856 284.992 33.856 284.784V275.744H42.368V283.12C42.368 283.328 42.304 283.456 42.032 283.456C41.6 283.456 39.936 283.328 39.936 283.328V283.552C40.768 283.68 41.12 283.904 41.392 284.176C41.648 284.464 41.744 284.88 41.792 285.472C43.984 285.264 44.304 284.544 44.304 283.312V276.064C44.624 276 44.848 275.856 44.944 275.728L43.088 274.304L42.208 275.296H38.96V273.184H44.96C45.2 273.184 45.376 273.104 45.424 272.928C44.64 272.272 43.392 271.328 43.392 271.328L42.272 272.736ZM50.7356 280.032H55.1676V278.944H50.7356V280.032ZM69.0586 272.8L69.7146 275.44H70.6106L70.5146 272.128H60.3546L60.2426 275.44H61.1386L61.8106 272.8H64.2906C64.3066 274.416 64.3066 276.064 64.3066 277.68V278.464C64.3066 280.096 64.3066 281.712 64.2906 283.296L62.5786 283.44V284H68.2906V283.44L66.5786 283.296C66.5466 281.68 66.5466 280.064 66.5466 278.464V277.68C66.5466 276.032 66.5466 274.4 66.5786 272.8H69.0586ZM75.6949 282.368C74.9589 282.976 74.5589 283.216 74.0309 283.216C73.2629 283.216 72.7509 282.768 72.7509 281.824C72.7509 280.832 73.2309 280.096 74.4949 279.6C74.7669 279.488 75.2149 279.36 75.6949 279.216V282.368ZM79.0389 282.896C78.7509 283.28 78.5589 283.424 78.3189 283.424C77.9669 283.424 77.7429 283.184 77.7429 282.464V278.336C77.7429 276.096 76.8629 275.184 74.7669 275.184C72.5429 275.184 71.2149 276.08 71.0069 277.52C71.1029 278 71.4389 278.256 71.9669 278.256C72.5109 278.256 72.9429 277.904 73.0069 277.024L73.2309 275.872C73.5189 275.808 73.7909 275.776 74.0629 275.776C75.2629 275.776 75.6949 276.24 75.6949 277.936V278.752C75.0709 278.896 74.4309 279.072 73.9509 279.232C71.4869 280 70.7509 280.784 70.7509 282.112C70.7509 283.456 71.7269 284.256 73.0709 284.256C74.2549 284.256 74.8789 283.76 75.7589 282.832C75.9669 283.696 76.5269 284.24 77.5029 284.24C78.3509 284.24 78.9109 283.936 79.3269 283.136L79.0389 282.896ZM82.1754 273.408C82.8634 273.408 83.4394 272.912 83.4394 272.224C83.4394 271.504 82.8634 271.024 82.1754 271.024C81.4874 271.024 80.9114 271.504 80.9114 272.224C80.9114 272.912 81.4874 273.408 82.1754 273.408ZM83.3114 283.376C83.2954 282.464 83.2794 281.12 83.2794 280.24V277.84L83.3114 275.344L83.0874 275.2L79.8394 276.112V276.544L81.1354 276.672C81.1674 277.472 81.1834 278.08 81.1834 279.104V280.24C81.1834 281.12 81.1674 282.448 81.1514 283.36L79.9834 283.504V284H84.3834V283.504L83.3114 283.376ZM94.2826 283.376C94.2666 282.464 94.2506 281.152 94.2506 280.24V278.288C94.2506 276.144 93.3066 275.184 91.8026 275.184C90.7626 275.184 89.7706 275.632 88.7626 276.8L88.6506 275.344L88.4266 275.2L85.3546 276.176V276.576L86.6186 276.704C86.6666 277.472 86.6826 278.048 86.6826 279.088V280.24C86.6826 281.12 86.6666 282.448 86.6506 283.36L85.4826 283.504V284H89.8666V283.504L88.8266 283.376C88.8106 282.464 88.7946 281.12 88.7946 280.24V277.36C89.5786 276.64 90.2986 276.32 90.8906 276.32C91.7546 276.32 92.1546 276.8 92.1546 278.192V280.24C92.1546 281.152 92.1386 282.464 92.1066 283.36L90.9866 283.504V284H95.3706V283.504L94.2826 283.376ZM101.382 282.368C100.646 282.976 100.246 283.216 99.7184 283.216C98.9504 283.216 98.4384 282.768 98.4384 281.824C98.4384 280.832 98.9184 280.096 100.182 279.6C100.454 279.488 100.902 279.36 101.382 279.216V282.368ZM104.726 282.896C104.438 283.28 104.246 283.424 104.006 283.424C103.654 283.424 103.43 283.184 103.43 282.464V278.336C103.43 276.096 102.55 275.184 100.454 275.184C98.2304 275.184 96.9024 276.08 96.6944 277.52C96.7904 278 97.1264 278.256 97.6544 278.256C98.1984 278.256 98.6304 277.904 98.6944 277.024L98.9184 275.872C99.2064 275.808 99.4784 275.776 99.7504 275.776C100.95 275.776 101.382 276.24 101.382 277.936V278.752C100.758 278.896 100.118 279.072 99.6384 279.232C97.1744 280 96.4384 280.784 96.4384 282.112C96.4384 283.456 97.4144 284.256 98.7584 284.256C99.9424 284.256 100.566 283.76 101.446 282.832C101.654 283.696 102.214 284.24 103.19 284.24C104.038 284.24 104.598 283.936 105.014 283.136L104.726 282.896ZM114.439 283.376C114.423 282.464 114.407 281.152 114.407 280.24V278.288C114.407 276.144 113.463 275.184 111.959 275.184C110.919 275.184 109.927 275.632 108.919 276.8L108.807 275.344L108.583 275.2L105.511 276.176V276.576L106.775 276.704C106.823 277.472 106.839 278.048 106.839 279.088V280.24C106.839 281.12 106.823 282.448 106.807 283.36L105.639 283.504V284H110.023V283.504L108.983 283.376C108.967 282.464 108.951 281.12 108.951 280.24V277.36C109.735 276.64 110.455 276.32 111.047 276.32C111.911 276.32 112.311 276.8 112.311 278.192V280.24C112.311 281.152 112.295 282.464 112.263 283.36L111.143 283.504V284H115.527V283.504L114.439 283.376ZM118.641 284.256C119.377 284.256 119.953 283.648 119.953 282.944C119.953 282.208 119.377 281.6 118.641 281.6C117.889 281.6 117.313 282.208 117.313 282.944C117.313 283.648 117.889 284.256 118.641 284.256ZM124.717 276.912C125.389 276.304 125.917 276.176 126.429 276.176C127.757 276.176 128.573 277.184 128.573 279.712C128.573 282.32 127.629 283.232 126.317 283.232C125.709 283.232 125.213 283.088 124.717 282.64V276.912ZM124.541 275.36L124.317 275.2L121.277 276.176V276.576L122.573 276.704C122.605 277.472 122.621 278.064 122.621 279.104V284.256C122.621 285.232 122.605 286.384 122.589 287.536L121.373 287.68V288.16H126.093V287.68L124.717 287.52C124.701 286.368 124.685 285.216 124.685 284.256V283.152C125.389 283.968 126.205 284.256 127.037 284.256C129.149 284.256 130.829 282.496 130.829 279.664C130.829 276.832 129.309 275.184 127.373 275.184C126.381 275.184 125.421 275.552 124.653 276.416L124.541 275.36ZM140.625 275.44H137.297V275.936L138.801 276.096L136.721 282.24L134.465 276.08L135.777 275.936V275.44H131.233V275.936L132.177 276.032L135.761 284.736C135.281 285.92 134.801 286.768 134.113 287.328L133.889 287.072C133.473 286.592 133.073 286.288 132.481 286.288C131.921 286.288 131.345 286.576 131.249 287.184C131.265 287.856 132.065 288.336 132.913 288.336C134.001 288.336 135.297 287.456 136.305 284.784L139.585 276.08L140.625 275.936V275.44Z" fill="#C2A53A"/>
<path d="M332.985 233.064C338.003 210.84 336.269 180.789 350.228 168.181C381.136 140.173 351.779 94.9412 384.986 71.0571C385.205 70.8564 382.742 66.3496 381.045 64.2149C368.638 48.7422 346.232 49.0524 331.945 29C318.133 58.2119 282.206 49.6363 268.741 72.7175C254.746 96.8388 234.511 115.687 219.914 138.859C202.38 166.575 179.116 192.685 169.884 223.01C159.21 257.915 150.433 296.049 173.715 333.417C184.061 350.003 190.082 368.03 209.459 376.441C224.02 382.791 229.074 395.91 231.044 409.996C232.504 420.487 227.797 435.485 245.203 433.497C257.976 432.092 257.83 418.808 256.972 408.481C255.129 385.984 260.129 362.684 274.853 348.689C308.681 316.284 323.205 276.416 332.985 233.064Z" fill="#C2A53A"/>
</svg>
