<svg width="138" height="138" viewBox="0 0 138 138" fill="none" xmlns="http://www.w3.org/2000/svg">
<circle cx="69" cy="69" r="67.5" stroke="#C4C4C4" stroke-width="3"/>
<g clip-path="url(#clip0)">
<path d="M110.686 62.8389L97.7981 46.0974C97.3211 45.4782 96.4511 45.3255 95.7914 45.7449L87.4705 51.0368H76.6183C76.4779 51.0368 76.3381 51.0668 76.203 51.1061L67.7887 53.5282L59.0579 51.1402L50.5743 45.7449C49.9257 45.3325 49.0716 45.4723 48.5893 46.0704L34.3345 63.7272C33.8222 64.3616 33.9068 65.2881 34.5248 65.8197L41.9962 72.2495L48.6991 81.2823C46.7387 83.3708 46.7769 86.6647 48.8166 88.705C49.7207 89.6085 50.8704 90.119 52.0529 90.2376C52.0118 90.5055 51.9907 90.7775 51.9907 91.0536C51.9907 92.4788 52.5458 93.8188 53.5533 94.8263C54.5614 95.8344 55.9014 96.3896 57.3266 96.3896C57.346 96.3896 57.3648 96.3884 57.3836 96.3878C57.383 96.4242 57.3812 96.4601 57.3812 96.4965C57.3812 97.9217 57.9364 99.2617 58.9439 100.27C59.952 101.277 61.292 101.832 62.7172 101.832C62.9986 101.832 63.277 101.81 63.5502 101.767C63.6659 102.954 64.1776 104.109 65.0846 105.016C66.1245 106.056 67.4909 106.576 68.8573 106.576C70.2238 106.576 71.5902 106.056 72.6306 105.016L73.4466 104.2L73.7891 104.476C74.8207 105.475 76.1601 105.975 77.4995 105.975C78.8659 105.975 80.2324 105.455 81.2722 104.414C82.3337 103.353 82.8536 101.952 82.8319 100.558C84.2254 100.579 85.6271 100.059 86.6886 98.9985C87.749 97.9375 88.2689 96.5376 88.2483 95.1441C89.6999 95.167 91.077 94.6095 92.1044 93.5821C93.166 92.5205 93.6859 91.1194 93.6641 89.7254C95.0588 89.7465 96.4593 89.2272 97.5208 88.1657C99.3326 86.3539 99.5658 83.5535 98.2223 81.4862L103.116 71.2361L110.474 64.9045C111.082 64.381 111.175 63.474 110.686 62.8389ZM50.0914 49.0165L56.1916 52.8955L42.9214 69.0625L37.6037 64.4856L50.0914 49.0165ZM50.952 83.2938L52.7931 81.4527C52.849 81.3969 52.9077 81.344 52.9676 81.2947C53.3277 81.001 53.7636 80.8259 54.2254 80.7842C54.2383 80.783 54.2518 80.783 54.2647 80.7824C54.3305 80.7771 54.3963 80.7736 54.4627 80.7742C55.0936 80.783 55.6799 81.0409 56.1147 81.4997C56.9677 82.4015 56.9218 83.8748 56.0124 84.7842L54.2271 86.5695C53.3242 87.4725 51.855 87.4725 50.952 86.5695C50.0491 85.666 50.0491 84.1968 50.952 83.2938ZM55.6887 92.6909C55.2511 92.2538 55.0102 91.6722 55.0102 91.0536C55.0102 90.435 55.2511 89.8534 55.6887 89.4158L59.2588 85.8458C59.9426 85.162 61.0176 84.9746 61.8918 85.3911C62.7929 85.8205 63.2999 86.7986 63.1677 87.7826C63.0972 88.3078 62.8529 88.8025 62.4781 89.1779L58.9644 92.6909C58.5268 93.1286 57.9452 93.3694 57.3266 93.3694C56.708 93.3694 56.1264 93.1286 55.6887 92.6909ZM61.0793 98.1337C60.6417 97.6967 60.4008 97.1151 60.4008 96.4965C60.4008 95.8779 60.6417 95.2963 61.0793 94.8586L64.6487 91.2886C65.3801 90.5578 66.5533 90.4004 67.4486 90.9215C68.2663 91.3973 68.6946 92.3314 68.5542 93.2619C68.4772 93.7736 68.234 94.2547 67.868 94.6207L64.355 98.1337C63.9173 98.5714 63.3358 98.8123 62.7172 98.8123C62.0986 98.8123 61.517 98.5714 61.0793 98.1337ZM67.2195 102.88C66.3166 101.978 66.3166 100.508 67.2195 99.6053L69.0606 97.7642C69.1164 97.7084 69.1746 97.6561 69.2345 97.6068C69.2362 97.6056 69.2374 97.6044 69.2386 97.6033C69.5382 97.3601 69.8901 97.1973 70.2655 97.1262C70.2743 97.1251 70.2831 97.1239 70.2919 97.1227C70.3565 97.111 70.4223 97.1016 70.4881 97.0957C70.5146 97.0933 70.541 97.0933 70.568 97.0916C70.6221 97.0886 70.6755 97.0851 70.7302 97.0857C71.3605 97.0945 71.9474 97.3518 72.3821 97.8112C72.4356 97.8676 72.4855 97.9264 72.5313 97.9869C73.2257 98.8945 73.1323 100.243 72.2705 101.105L70.4946 102.881C69.5917 103.784 68.1224 103.783 67.2195 102.88ZM95.3854 86.0302C94.4825 86.9338 93.0132 86.9332 92.1103 86.0302C92.0774 85.9973 92.0427 85.9668 92.0075 85.938L82.2991 76.1274C81.7122 75.5346 80.7564 75.5299 80.1637 76.1168C79.5709 76.7031 79.5662 77.6589 80.1525 78.2516L89.9661 88.1674C89.9672 88.1686 89.9684 88.1698 89.9696 88.1709C90.8725 89.0739 90.8725 90.5437 89.9696 91.4466C89.5319 91.8843 88.9503 92.1252 88.3317 92.1252C87.7126 92.1252 87.131 91.8843 86.6939 91.4466L80.129 84.8136C79.5427 84.2208 78.5869 84.2161 77.9941 84.8024C77.4014 85.3893 77.3967 86.3451 77.983 86.9379L84.4474 93.4693C84.4803 93.5104 84.5156 93.5498 84.5532 93.5874C85.4561 94.4903 85.4561 95.9601 84.5532 96.8631C83.6497 97.766 82.1798 97.7654 81.2769 96.8625L77.694 93.2419C77.1071 92.6492 76.1513 92.6439 75.5585 93.2308C74.9658 93.8171 74.9611 94.7729 75.5474 95.3656L79.0304 98.8845C79.0633 98.9256 79.0986 98.9656 79.1368 99.0032C80.0397 99.9061 80.0397 101.376 79.1368 102.279C78.2338 103.182 76.7646 103.182 75.8617 102.279C75.7577 102.175 75.6355 102.095 75.5192 102.006C75.4205 101.931 75.3946 101.878 75.444 101.758C75.4939 101.637 75.5685 101.527 75.6184 101.405C75.6737 101.268 75.7183 101.128 75.7618 100.987C75.9932 100.241 76.0614 99.4385 75.9574 98.6642C75.7577 97.1785 74.9405 95.8379 73.7021 94.9896C73.033 94.532 72.2587 94.2318 71.4563 94.119C71.8452 92.4036 71.3781 90.5437 70.1633 89.2601C69.1634 88.2038 67.8128 87.6111 66.36 87.5911C66.3072 87.5905 66.2543 87.5905 66.2008 87.5911C66.2331 86.2047 65.7291 84.8271 64.7733 83.8173C63.7728 82.761 62.4223 82.1682 60.97 82.1483C60.5383 82.1424 60.1024 82.1882 59.6817 82.2851C59.502 81.0344 58.8716 79.8771 57.917 79.0494C56.9682 78.2281 55.7751 77.7723 54.5044 77.7546C53.1668 77.7352 51.8526 78.2287 50.8592 79.1258L45.0228 71.2614L58.9856 54.2508L63.4356 55.468L57.6239 65.7234C56.9212 66.9635 56.7438 68.4028 57.1239 69.7763C57.504 71.1504 58.3958 72.2936 59.6359 72.9962C59.7135 73.0402 59.7916 73.0819 59.8709 73.1219C59.8768 73.1248 59.8827 73.1278 59.8891 73.1307C60.0977 73.2347 60.3121 73.324 60.5294 73.3992C61.5416 73.7499 62.6349 73.7881 63.6894 73.4967C65.0629 73.1166 66.2061 72.2242 66.9087 70.9847L70.6855 64.3199L77.429 64.7981L95.386 82.7545C96.2883 83.6581 96.2883 85.1273 95.3854 86.0302ZM96.0111 79.1093L79.1656 62.2644C79.1338 62.2321 79.1003 62.2015 79.0657 62.1727C78.8231 61.9707 78.5223 61.8485 78.205 61.8261L69.9482 61.2404C69.3772 61.2011 68.8097 61.5048 68.5278 62.0024L64.2816 69.4961C63.9767 70.0342 63.4803 70.4213 62.884 70.5864C62.2883 70.7515 61.6633 70.6739 61.1245 70.369C60.5864 70.0641 60.1993 69.5677 60.0342 68.9715C59.8691 68.3752 59.9461 67.7501 60.2516 67.212L65.92 57.2081L68.217 56.5472C68.2323 56.5425 68.247 56.5366 68.2622 56.5319L76.8351 54.0564H87.1932L100.124 70.4948L96.0111 79.1093ZM102.102 68.1249L90.1441 52.9149L96.2472 49.0335L107.421 63.548L102.102 68.1249Z" fill="#C7C7C7"/>
<path d="M80.6489 48.2018C81.0355 48.2018 81.422 48.0544 81.717 47.7595L92.0305 37.446C92.6203 36.8561 92.6203 35.9003 92.0305 35.3105C91.4407 34.7207 90.4849 34.7207 89.895 35.3105L79.5815 45.624C78.9917 46.2138 78.9917 47.1696 79.5815 47.7595C79.8764 48.0544 80.263 48.2018 80.6489 48.2018Z" fill="#7568F6"/>
<path d="M63.2837 47.7595C63.5786 48.0544 63.9652 48.2018 64.3517 48.2018C64.7377 48.2018 65.1242 48.0544 65.4191 47.7595C66.0089 47.1696 66.0089 46.2138 65.4191 45.624L55.1056 35.3105C54.5158 34.7207 53.56 34.7207 52.9702 35.3105C52.3804 35.9003 52.3804 36.8561 52.9702 37.446L63.2837 47.7595Z" fill="#7568F6"/>
<path d="M72.5005 48.2023C73.3341 48.2023 74.0103 47.5261 74.0103 46.6925V38.1572C74.0103 37.3236 73.3341 36.6475 72.5005 36.6475C71.6669 36.6475 70.9907 37.3236 70.9907 38.1572V46.6925C70.9907 47.5261 71.6669 48.2023 72.5005 48.2023Z" fill="#7568F6"/>
<path d="M71.1066 32.6847C71.3463 33.2657 71.9438 33.647 72.5741 33.6141C73.1968 33.5818 73.7438 33.1611 73.9365 32.5684C74.1297 31.9709 73.9194 31.2901 73.4189 30.9094C72.9084 30.5205 72.1964 30.4987 71.6624 30.8518C71.0667 31.2454 70.8358 32.0291 71.1066 32.6847Z" fill="#7568F6"/>
</g>
<defs>
<clipPath id="clip0">
<rect width="77" height="77" fill="white" transform="translate(34 30)"/>
</clipPath>
</defs>
</svg>
