
<svg width="76" height="76" viewBox="0 0 76 76" fill="none" xmlns="http://www.w3.org/2000/svg">
<g clip-path="url(#clip0)">
<path d="M16.0271 43.234C15.7508 42.9578 15.3692 42.7988 14.9772 42.7988C14.5866 42.7988 14.2034 42.9578 13.9273 43.234C13.651 43.5101 13.4922 43.8933 13.4922 44.2838C13.4922 44.676 13.6512 45.0576 13.9273 45.3352C14.2035 45.6114 14.5866 45.7688 14.9772 45.7688C15.3677 45.7688 15.751 45.6114 16.0271 45.3352C16.3033 45.0575 16.4621 44.676 16.4621 44.2838C16.4621 43.8933 16.3033 43.5101 16.0271 43.234Z" fill="white"/>
<path d="M30.031 43.234C29.7549 42.9578 29.3717 42.7988 28.9811 42.7988C28.5905 42.7988 28.2073 42.9578 27.9312 43.234C27.6549 43.5101 27.4961 43.8933 27.4961 44.2838C27.4961 44.676 27.6549 45.0576 27.9312 45.3352C28.2074 45.6114 28.5905 45.7688 28.9811 45.7688C29.3716 45.7688 29.7549 45.6114 30.031 45.3352C30.3072 45.0575 30.466 44.6743 30.466 44.2838C30.466 43.8933 30.3072 43.5101 30.031 43.234Z" fill="white"/>
<path d="M27.3069 51.3889C26.5146 51.1766 25.7007 51.6481 25.4889 52.4403C25.0645 54.0288 23.6212 55.1386 21.9789 55.1386C20.3367 55.1386 18.8935 54.0288 18.469 52.4403C18.2573 51.6478 17.4434 51.1763 16.6509 51.3889C15.8585 51.6007 15.3878 52.4144 15.5995 53.2069C16.3705 56.093 18.9938 58.1088 21.9791 58.1088C24.9641 58.1088 27.5875 56.093 28.3585 53.2069C28.57 52.4146 28.0991 51.6006 27.3069 51.3889Z" fill="white"/>
<path d="M38.0183 5.9375C37.1981 5.9375 36.5332 6.60235 36.5332 7.42262V16.8505C36.5332 17.6707 37.1981 18.3356 38.0183 18.3356C38.8386 18.3356 39.5034 17.6707 39.5034 16.8505V7.42262C39.5034 6.60235 38.8386 5.9375 38.0183 5.9375Z" fill="white"/>
<path d="M39.0681 21.0484C38.7917 20.7706 38.4086 20.6133 38.0182 20.6133C37.6261 20.6133 37.2444 20.7708 36.9668 21.0484C36.6905 21.3246 36.5332 21.7077 36.5332 22.0982C36.5332 22.4888 36.6907 22.8721 36.9668 23.1481C37.2445 23.4244 37.6261 23.5832 38.0182 23.5832C38.4087 23.5832 38.792 23.4244 39.0681 23.1481C39.3442 22.8719 39.5031 22.4888 39.5031 22.0982C39.5031 21.7077 39.3442 21.3246 39.0681 21.0484Z" fill="white"/>
<path d="M28.9687 19.4375L25.1773 15.6494C24.5972 15.0697 23.6567 15.07 23.0771 15.6502C22.4974 16.2305 22.4977 17.1707 23.078 17.7505L26.8694 21.5388C27.1593 21.8285 27.5391 21.9732 27.919 21.9732C28.2993 21.9732 28.6797 21.8279 28.9696 21.5379C29.5493 20.9575 29.549 20.0173 28.9687 19.4375Z" fill="white"/>
<path d="M52.9641 15.6533C52.3838 15.0735 51.4435 15.074 50.8638 15.6541L46.833 19.6882C46.2532 20.2684 46.2537 21.2088 46.8338 21.7884C47.1237 22.0783 47.5035 22.223 47.8834 22.223C48.2637 22.223 48.644 22.0779 48.9339 21.7877L52.9647 17.7536C53.5446 17.1733 53.5442 16.233 52.9641 15.6533Z" fill="white"/>
<path d="M75.2486 42.3851C72.1118 30.6782 60.0358 23.7063 48.3293 26.8434C44.3114 27.92 40.7618 30.0606 37.9893 33.0247C33.8411 28.6067 28.1001 26.1044 21.9794 26.1044C9.85996 26.1044 0 35.9646 0 48.084C0 60.2035 9.85996 70.0635 21.9794 70.0635C28.1059 70.0635 33.8561 67.5535 38.0058 63.1248C42.1148 67.4816 47.9097 70.0559 54.0231 70.0559C55.9007 70.0559 57.809 69.8129 59.7068 69.3045C71.4133 66.1676 78.3854 54.0914 75.2486 42.3851ZM21.9794 67.0932C11.4975 67.0932 2.97009 58.5657 2.97009 48.0839C2.97009 37.6021 11.4975 29.0745 21.9794 29.0745C27.4056 29.0745 32.4875 31.3484 36.0941 35.3508C35.7001 35.908 35.3287 36.4856 34.9832 37.0839C32.0477 42.1683 31.2679 48.0916 32.7875 53.7624C33.4847 56.3649 34.6238 58.7331 36.1024 60.8085C32.495 64.8161 27.4075 67.0932 21.9794 67.0932ZM58.938 66.4355C48.8135 69.1476 38.3693 63.1184 35.6565 52.9939C34.3424 48.0894 35.0167 42.9665 37.5554 38.5693C38.0239 37.758 38.5457 36.9897 39.1155 36.2672C39.1402 36.2389 39.163 36.2095 39.1853 36.1796C41.6983 33.0323 45.1349 30.7743 49.0979 29.7124C50.7398 29.2725 52.3892 29.0625 54.0136 29.0625C62.4057 29.0625 70.1064 34.6712 72.3793 43.1538C75.0925 53.2785 69.0625 63.7225 58.938 66.4355Z" fill="white"/>
<path d="M49.6687 45.1614C49.2092 43.4458 47.4401 42.4237 45.7237 42.8837C44.0081 43.3435 42.9864 45.113 43.4461 46.8287C43.6239 47.4922 44.2239 47.9299 44.8797 47.9299C45.0067 47.9299 45.1363 47.9135 45.2649 47.8789C46.0572 47.6665 46.5273 46.8524 46.3149 46.0601C46.2791 45.9265 46.3587 45.7884 46.4923 45.7527C46.5751 45.7307 46.6416 45.7541 46.6828 45.7778C46.7237 45.8015 46.7775 45.8472 46.7997 45.93C47.012 46.7223 47.826 47.1927 48.6185 46.9801C49.411 46.768 49.881 45.9538 49.6687 45.1614Z" fill="white"/>
<path d="M63.1112 41.5587C62.8884 40.7276 62.3555 40.0331 61.6103 39.6028C60.8652 39.1728 59.9971 39.0583 59.1662 39.2811C58.3351 39.5038 57.6404 40.0367 57.2103 40.7818C56.7802 41.527 56.6657 42.3949 56.8885 43.2261C57.0664 43.8896 57.6663 44.3272 58.3221 44.3272C58.4492 44.3271 58.5788 44.3108 58.7075 44.2762C59.4997 44.0638 59.9698 43.2496 59.7575 42.4572C59.7354 42.3744 59.7589 42.308 59.7826 42.2669C59.8064 42.2258 59.8519 42.1722 59.9349 42.1501C60.0177 42.128 60.0844 42.1516 60.1254 42.1752C60.1663 42.1988 60.2199 42.2445 60.2422 42.3275C60.4544 43.1197 61.2685 43.59 62.061 43.3775C62.8533 43.1653 63.3234 42.3511 63.1112 41.5587Z" fill="white"/>
<path d="M61.8091 50.8785C61.5967 50.0863 60.7824 49.6159 59.9901 49.8284C59.1978 50.0408 58.7278 50.8548 58.9401 51.6472C59.4454 53.5331 58.3222 55.4786 56.4363 55.9839C55.5225 56.2288 54.5683 56.103 53.7494 55.6302C52.9302 55.1571 52.3443 54.3937 52.0997 53.4801C51.8872 52.6879 51.0731 52.2172 50.2807 52.43C49.4885 52.6424 49.0184 53.4566 49.2307 54.2488C49.6809 55.9288 50.7582 57.3329 52.2644 58.2025C53.2676 58.7817 54.3811 59.0776 55.5094 59.0776C56.0751 59.0776 56.6444 59.0034 57.2053 58.8529C60.673 57.9237 62.7382 54.3462 61.8091 50.8785Z" fill="white"/>
</g>
<defs>
<clipPath id="clip0">
<rect width="76" height="76" fill="white"/>
</clipPath>
</defs>
</svg>
