<svg width="95" height="58" viewBox="0 0 95 58" fill="none" xmlns="http://www.w3.org/2000/svg">
<path fill-rule="evenodd" clip-rule="evenodd" d="M73.553 5.59156L73.1898 1.44075L75.1822 1.26643L75.5454 5.41725L73.553 5.59156ZM75.0056 22.1948L74.2793 13.8932L76.2716 13.7189L76.9979 22.0205L75.0056 22.1948ZM76.4582 38.798L75.7319 30.4964L77.7242 30.3221L78.4505 38.6237L76.4582 38.798ZM77.5476 51.2505L77.1844 47.0997L79.1768 46.9254L79.54 51.0762L77.5476 51.2505ZM0.435779 12.825C0.195105 10.0741 2.23006 7.64892 4.98097 7.40825L84.6765 0.435787C87.4275 0.195113 89.8526 2.23007 90.0933 4.98098L90.9775 15.0877C90.9444 15.0902 90.9113 15.093 90.8781 15.0959C85.9265 15.5291 82.2948 20.2512 82.7665 25.643C83.2382 31.0348 87.6347 35.0545 92.5864 34.6213C92.6195 34.6184 92.6526 34.6153 92.6857 34.612L93.57 44.7201C93.8107 47.471 91.7757 49.8962 89.0248 50.1369L9.32926 57.1093C6.57834 57.35 4.15318 55.315 3.9125 52.5641L3.02814 42.4558C7.89654 41.9348 11.4439 37.2572 10.9774 31.9245C10.5108 26.5918 6.20508 22.6013 1.32016 22.9336L0.435779 12.825Z" fill="#A8B4CA"/>
<g filter="url(#filter0_d_2061_5608)">
<path d="M24.1852 29.9486L24.9426 29.8824L24.7599 27.7942L24.0025 27.8604L24.1852 29.9486ZM25.9835 30.1839L25.9902 30.2098C26.5798 30.2259 27.0134 30.3585 27.2911 30.6077C27.5714 30.8537 27.7296 31.1825 27.7656 31.594L27.9329 33.5071L25.28 33.7392L25.0314 30.898L24.2741 30.9643L24.5226 33.8055L21.8784 34.0368L21.2675 27.0542L25.2645 26.7045C25.5943 26.6757 25.8785 26.6802 26.117 26.7182C26.3583 26.7529 26.5724 26.8298 26.7592 26.9487C26.949 27.0674 27.0964 27.2398 27.2015 27.4659C27.3092 27.6888 27.3777 27.968 27.4071 28.3037C27.4252 28.5109 27.4281 28.6944 27.4156 28.8543C27.4029 29.0113 27.3677 29.1644 27.3102 29.3135C27.2556 29.4624 27.1742 29.5916 27.0662 29.701C26.9579 29.8075 26.8132 29.9025 26.6323 29.986C26.4514 30.0695 26.2352 30.1354 25.9835 30.1839ZM32.2732 26.0914L32.3685 27.1814L30.8757 27.312L31.0232 28.9975L32.4153 28.8757L32.5111 29.9702L31.1189 30.092L31.2951 32.1057L32.7879 31.9751L32.8841 33.074L28.747 33.4359L28.1361 26.4533L32.2732 26.0914ZM37.2186 32.1477C36.9683 32.649 36.477 32.9317 35.7444 32.9958C35.4584 33.0208 35.1897 33.009 34.9384 32.9604C34.6901 32.9116 34.4636 32.827 34.259 32.7066C34.0573 32.5861 33.8925 32.4167 33.7645 32.1985C33.6366 31.9803 33.5599 31.7253 33.5344 31.4334L33.2016 27.6291C33.1816 27.4014 33.1973 27.1942 33.2486 27.0074C33.2997 26.8176 33.3738 26.6568 33.4711 26.5247C33.5713 26.3925 33.7007 26.2753 33.8594 26.1732C34.0178 26.0681 34.1781 25.9835 34.3401 25.9194C34.5021 25.8552 34.6898 25.7991 34.9032 25.751C35.1196 25.7026 35.3135 25.6666 35.4849 25.6427C35.6592 25.6187 35.8558 25.5971 36.0747 25.5779C36.2615 25.5616 36.4401 25.5518 36.6104 25.5487C36.7804 25.5426 36.9719 25.5465 37.1848 25.5602C37.3975 25.571 37.5923 25.5951 37.7691 25.6326C37.9456 25.6671 38.124 25.7236 38.3044 25.8019C38.4845 25.8773 38.6383 25.9712 38.7658 26.0836C38.893 26.193 39.001 26.335 39.0898 26.5096C39.1786 26.6842 39.2327 26.8823 39.2521 27.1042L39.3471 28.1898L36.6985 28.4216L36.5533 26.7624L35.796 26.8286L36.2261 31.7449L36.9834 31.6787L36.8674 30.3522L36.4953 30.3847L36.4068 29.3735L39.4275 29.1092L39.722 32.4757L37.59 32.6622L37.2186 32.1477ZM43.1695 31.1419L43.9269 31.0756L43.406 25.1218L46.0545 24.8901L46.5233 30.2485C46.5433 30.4761 46.5262 30.685 46.4723 30.875C46.421 31.0618 46.3467 31.2212 46.2494 31.3532C46.1522 31.4853 46.0229 31.6039 45.8615 31.7092C45.7031 31.8142 45.5428 31.8988 45.3808 31.963C45.2188 32.0272 45.0296 32.0834 44.8133 32.1318C44.5999 32.1798 44.406 32.2159 44.2316 32.24C44.0573 32.2641 43.8621 32.2856 43.6462 32.3044C43.4448 32.3221 43.2605 32.3338 43.0934 32.3396C42.9266 32.3483 42.7339 32.3475 42.5153 32.3372C42.2968 32.3269 42.1007 32.3044 41.9271 32.2696C41.7564 32.2345 41.581 32.1793 41.4009 32.1039C41.2237 32.0282 41.0728 31.9341 40.9483 31.8214C40.8267 31.7086 40.7213 31.5634 40.6323 31.3859C40.5459 31.2052 40.4927 31.0011 40.4728 30.7734L40.004 25.415L42.6482 25.1837L43.1695 31.1419ZM47.6192 31.7848L47.0083 24.8022L49.6525 24.5709L50.1711 30.4984L51.664 30.3678L51.7563 31.4229L47.6192 31.7848ZM55.0209 25.4775L54.9377 25.4848L54.8714 28.6094L55.6506 28.5412L55.0209 25.4775ZM54.873 29.5356L54.7724 31.159L52.207 31.3834L52.8744 24.289L56.8451 23.9416L58.7562 30.8104L56.1864 31.0353L55.8099 29.4537L54.873 29.5356ZM61.7633 26.661L62.5206 26.5947L62.3379 24.5065L61.5806 24.5728L61.7633 26.661ZM63.5616 26.8963L63.5683 26.9222C64.1579 26.9382 64.5915 27.0708 64.8691 27.3201C65.1495 27.5661 65.3076 27.8949 65.3436 28.3064L65.511 30.2195L62.858 30.4516L62.6095 27.6104L61.8521 27.6766L62.1007 30.5178L59.4565 30.7492L58.8456 23.7666L62.8425 23.4169C63.1723 23.388 63.4565 23.3926 63.6951 23.4305C63.9364 23.4653 64.1504 23.5421 64.3373 23.6611C64.5271 23.7798 64.6745 23.9521 64.7795 24.1782C64.8873 24.4011 64.9558 24.6804 64.9852 25.016C65.0033 25.2232 65.0061 25.4068 64.9936 25.5667C64.9809 25.7237 64.9458 25.8767 64.8882 26.0259C64.8336 26.1747 64.7523 26.3039 64.6442 26.4134C64.5359 26.5199 64.3913 26.6149 64.2104 26.6983C64.0295 26.7818 63.8132 26.8478 63.5616 26.8963Z" fill="#F0EBF5"/>
</g>
<defs>
<filter id="filter0_d_2061_5608" x="17.252" y="23.0574" width="52.2734" height="19.1502" filterUnits="userSpaceOnUse" color-interpolation-filters="sRGB">
<feFlood flood-opacity="0" result="BackgroundImageFix"/>
<feColorMatrix in="SourceAlpha" type="matrix" values="0 0 0 0 0 0 0 0 0 0 0 0 0 0 0 0 0 0 127 0" result="hardAlpha"/>
<feOffset dy="4"/>
<feGaussianBlur stdDeviation="2"/>
<feComposite in2="hardAlpha" operator="out"/>
<feColorMatrix type="matrix" values="0 0 0 0 0 0 0 0 0 0 0 0 0 0 0 0 0 0 0.25 0"/>
<feBlend mode="normal" in2="BackgroundImageFix" result="effect1_dropShadow_2061_5608"/>
<feBlend mode="normal" in="SourceGraphic" in2="effect1_dropShadow_2061_5608" result="shape"/>
</filter>
</defs>
</svg>
