<svg width="28" height="28" viewBox="0 0 33 33" fill="none" xmlns="http://www.w3.org/2000/svg">
<path d="M16.4212 11.5239H12.8069C12.126 11.5239 11.5498 12.0215 11.5498 12.7025C11.5498 13.3835 12.126 13.8811 12.8069 13.8811H16.4212C17.1022 13.8811 17.6784 13.3835 17.6784 12.7025C17.6784 12.0215 17.1284 11.5239 16.4212 11.5239Z" fill="#C2A53A"/>
<path d="M20.1665 18.8569H12.8069C12.126 18.8569 11.5498 19.4855 11.5498 20.1665C11.5498 20.8474 12.0998 21.476 12.8069 21.476H20.1665C20.8474 21.476 21.3974 20.8474 21.3974 20.1665C21.3974 19.4855 20.8474 18.8569 20.1665 18.8569Z" fill="#C2A53A"/>
<path d="M24.7238 0H8.25C3.71905 0 0 3.71905 0 8.27619V24.75C0 29.281 3.71905 33 8.25 33H24.7238C29.281 33 33 29.281 33 24.7238V8.27619C33 3.71905 29.281 0 24.7238 0ZM26.7667 20.2714C26.7405 23.8333 23.8071 26.7143 20.219 26.7143H12.7286C9.14048 26.7143 6.28571 23.8595 6.28571 20.2976V12.7024C6.28571 9.14048 9.14048 6.28571 12.7286 6.28571H17.2857C18.9619 6.28571 21.4238 7.88333 22.3143 9.79524C22.55 10.319 22.7071 10.3976 22.8905 11.9952C22.9952 12.8071 23.0476 13.4095 23.4143 13.75C23.9381 14.2214 25.85 13.9071 26.2429 14.1952L26.531 14.431L26.7143 14.7976L26.7667 15.0595V20.2714Z" fill="#C2A53A"/>
</svg>
