<svg width="28" height="28" viewBox="0 0 33 33" fill="none" xmlns="http://www.w3.org/2000/svg">
<path d="M3.87 29.1445H25.2585L24.237 26.1126C24.3885 26.2336 33 33 33 33V3.40312C32.898 1.56337 31.17 0 29.028 0L3.8775 0.004125C1.737 0.004125 0 1.57025 0 3.41V25.74C0 27.6801 1.734 29.1445 3.87 29.1445ZM19.692 7.81413L19.6425 7.83063L19.6605 7.81413H19.692ZM8.2455 9.559C10.995 7.72475 13.5435 7.81275 13.5435 7.81275L13.749 7.99837C10.3845 8.734 8.859 10.1117 8.859 10.1117C9.015 10.0815 15.8085 6.48863 24.0405 10.2025C24.0405 10.2025 22.512 8.91412 19.3545 8.08912L19.6335 7.8375C20.07 7.83887 22.38 7.91313 24.852 9.57C24.852 9.57 27.618 13.9012 27.618 19.2225C27.5265 19.1207 25.902 21.5133 21.7215 21.5958C21.7215 21.5958 21.0135 20.8615 20.5095 20.2208C22.9545 19.5772 23.8695 18.2903 23.8695 18.2903C19.11 21.0375 14.9385 20.6085 9.948 18.7522C9.9015 18.7522 9.8805 18.733 9.8565 18.711V18.7028C9.8325 18.6821 9.8115 18.6615 9.765 18.6615H9.675C9.369 18.4772 9.165 18.3865 9.165 18.3865C9.165 18.3865 10.0785 19.6735 12.426 20.317C11.8095 20.9619 11.199 21.6947 11.199 21.6947C7.02 21.604 5.496 19.2115 5.496 19.2115C5.496 13.882 8.2455 9.559 8.2455 9.559Z" fill="#C2A53A"/>
<path d="M19.962 17.5602C21.0285 17.5602 21.897 16.7352 21.897 15.7177C21.897 14.7071 21.033 13.8821 19.962 13.8821V13.8862C18.9 13.8862 18.03 14.7085 18.027 15.726C18.027 16.7352 18.8955 17.5602 19.962 17.5602Z" fill="#C2A53A"/>
<path d="M13.035 17.5602C14.1015 17.5602 14.97 16.7352 14.97 15.7177C14.97 14.7071 14.1075 13.8821 13.041 13.8821L13.035 13.8862C11.9685 13.8862 11.1 14.7085 11.1 15.726C11.1 16.7352 11.9685 17.5602 13.035 17.5602Z" fill="#C2A53A"/>
</svg>
