<svg width="33" height="34" viewBox="0 0 33 34" fill="none" xmlns="http://www.w3.org/2000/svg">
<path d="M3.87 29.8945H25.2585L24.237 26.8626C24.3885 26.9836 33 33.75 33 33.75V4.15312C32.898 2.31337 31.17 0.75 29.028 0.75L3.8775 0.754125C1.737 0.754125 0 2.32025 0 4.16V26.49C0 28.4301 1.734 29.8945 3.87 29.8945ZM19.692 8.56413L19.6425 8.58063L19.6605 8.56413H19.692ZM8.2455 10.309C10.995 8.47475 13.5435 8.56275 13.5435 8.56275L13.749 8.74837C10.3845 9.484 8.859 10.8617 8.859 10.8617C9.015 10.8315 15.8085 7.23863 24.0405 10.9525C24.0405 10.9525 22.512 9.66412 19.3545 8.83912L19.6335 8.5875C20.07 8.58887 22.38 8.66313 24.852 10.32C24.852 10.32 27.618 14.6512 27.618 19.9725C27.5265 19.8707 25.902 22.2633 21.7215 22.3458C21.7215 22.3458 21.0135 21.6115 20.5095 20.9708C22.9545 20.3272 23.8695 19.0403 23.8695 19.0403C19.11 21.7875 14.9385 21.3585 9.948 19.5022C9.9015 19.5022 9.8805 19.483 9.8565 19.461V19.4528C9.8325 19.4321 9.8115 19.4115 9.765 19.4115H9.675C9.369 19.2272 9.165 19.1365 9.165 19.1365C9.165 19.1365 10.0785 20.4235 12.426 21.067C11.8095 21.7119 11.199 22.4447 11.199 22.4447C7.02 22.354 5.496 19.9615 5.496 19.9615C5.496 14.632 8.2455 10.309 8.2455 10.309Z" fill="#C386AE"/>
<path d="M19.9623 18.31C21.0288 18.31 21.8973 17.485 21.8973 16.4675C21.8973 15.4568 21.0333 14.6318 19.9623 14.6318V14.636C18.9003 14.636 18.0303 15.4582 18.0273 16.4757C18.0273 17.485 18.8958 18.31 19.9623 18.31Z" fill="#C386AE"/>
<path d="M13.0346 18.31C14.1011 18.31 14.9696 17.485 14.9696 16.4675C14.9696 15.4568 14.1071 14.6318 13.0406 14.6318L13.0346 14.636C11.9681 14.636 11.0996 15.4582 11.0996 16.4757C11.0996 17.485 11.9681 18.31 13.0346 18.31Z" fill="#C386AE"/>
</svg>
