<svg width="28" height="28" viewBox="0 0 33 33" fill="none" xmlns="http://www.w3.org/2000/svg">
<path d="M23.1571 10.6069H9.8429L16.5 16.313L23.1571 10.6069Z" fill="#C2A53A"/>
<path d="M16.5 0C7.38736 0 0 7.38736 0 16.5C0 25.6126 7.38736 33 16.5 33C25.6126 33 33 25.6126 33 16.5C32.9896 7.39168 25.6083 0.0103585 16.5 0ZM25.3393 22.9821C25.3393 23.3076 25.0754 23.5714 24.75 23.5714H8.25C7.92457 23.5714 7.66071 23.3076 7.66071 22.9821V10.0179C7.66071 9.69243 7.92457 9.42857 8.25 9.42857H24.75C25.0754 9.42857 25.3393 9.69243 25.3393 10.0179V22.9821Z" fill="#C2A53A"/>
</svg>
