<svg width="33" height="34" viewBox="0 0 33 34" fill="none" xmlns="http://www.w3.org/2000/svg">
<g clip-path="url(#clip0_6090_2776)">
<path d="M23.157 11.3574H9.84277L16.4999 17.0635L23.157 11.3574Z" fill="#C386AE"/>
<path d="M16.5 0.75C7.38736 0.75 0 8.13736 0 17.25C0 26.3626 7.38736 33.75 16.5 33.75C25.6126 33.75 33 26.3626 33 17.25C32.9896 8.14168 25.6083 0.760359 16.5 0.75ZM25.3393 23.7321C25.3393 24.0576 25.0754 24.3214 24.75 24.3214H8.25C7.92457 24.3214 7.66071 24.0576 7.66071 23.7321V10.7679C7.66071 10.4424 7.92457 10.1786 8.25 10.1786H24.75C25.0754 10.1786 25.3393 10.4424 25.3393 10.7679V23.7321Z" fill="#C386AE"/>
</g>
<defs>
<clipPath id="clip0_6090_2776">
<rect width="33" height="33" fill="white" transform="translate(0 0.75)"/>
</clipPath>
</defs>
</svg>
