<svg width="33" height="34" viewBox="0 0 33 34" fill="none" xmlns="http://www.w3.org/2000/svg">
<path d="M16.5001 0.75C7.38744 0.75 0 8.16832 0 17.3191C0 25.5262 5.94861 32.3231 13.7482 33.6393V20.7758H9.76791V16.1468H13.7482V12.7335C13.7482 8.77314 16.157 6.61497 19.6758 6.61497C21.361 6.61497 22.8093 6.74107 23.2297 6.79661V10.9363L20.7892 10.9374C18.876 10.9374 18.5072 11.8502 18.5072 13.1901V16.1444H23.0723L22.4769 20.7735H18.5072V33.75C26.6709 32.7522 33 25.7822 33 17.3143C33 8.16832 25.6126 0.75 16.5001 0.75Z" fill="#C386AE"/>
</svg>
