<svg width="28" height="28" viewBox="0 0 33 33" fill="none"
    xmlns="http://www.w3.org/2000/svg">
    <path d="M16.5001 0C7.38744 0 0 7.41832 0 16.5691C0 24.7762 5.94861 31.5731 13.7482 32.8893V20.0258H9.76791V15.3968H13.7482V11.9835C13.7482 8.02314 16.157 5.86497 19.6758 5.86497C21.361 5.86497 22.8093 5.99107 23.2297 6.04661V10.1863L20.7892 10.1874C18.876 10.1874 18.5072 11.1002 18.5072 12.4401V15.3944H23.0723L22.4769 20.0235H18.5072V33C26.6709 32.0022 33 25.0322 33 16.5643C33 7.41832 25.6126 0 16.5001 0Z" fill="#C2A53A"/>
</svg>
