<svg width="33" height="34" viewBox="0 0 33 34" fill="none" xmlns="http://www.w3.org/2000/svg">
<circle cx="16.5" cy="17.25" r="16.5" fill="#C386AE"/>
<path d="M17.4851 7.91719C18.1844 7.91451 18.8837 7.92154 19.5829 7.93828L19.7688 7.94499C19.9834 7.95265 20.1952 7.96224 20.4511 7.97374C21.4708 8.02165 22.1665 8.18265 22.777 8.41936C23.4095 8.66278 23.9423 8.99244 24.4752 9.52528C24.9623 10.0041 25.3394 10.5832 25.5801 11.2225C25.8168 11.8329 25.9778 12.5297 26.0257 13.5493C26.0372 13.8042 26.0468 14.017 26.0545 14.2317L26.0602 14.4176C26.0773 15.1164 26.0846 15.8154 26.0823 16.5144L26.0832 17.2293V18.4847C26.0856 19.1841 26.0782 19.8834 26.0612 20.5825L26.0554 20.7684C26.0478 20.9831 26.0382 21.1949 26.0267 21.4508C25.9788 22.4704 25.8159 23.1662 25.5801 23.7767C25.3402 24.4166 24.963 24.9962 24.4752 25.4748C23.9959 25.962 23.4165 26.339 22.777 26.5798C22.1665 26.8165 21.4708 26.9775 20.4511 27.0254C20.1952 27.0369 19.9834 27.0465 19.7688 27.0542L19.5829 27.0599C18.8837 27.0769 18.1844 27.0843 17.4851 27.0819L16.7702 27.0829H15.5157C14.8164 27.0853 14.117 27.0779 13.4179 27.0609L13.232 27.0551C13.0045 27.0469 12.777 27.0373 12.5497 27.0264C11.53 26.9784 10.8342 26.8155 10.2228 26.5798C9.58331 26.3396 9.00405 25.9624 8.52561 25.4748C8.03786 24.9959 7.66045 24.4164 7.41969 23.7767C7.18299 23.1662 7.02199 22.4704 6.97407 21.4508C6.9634 21.2234 6.95381 20.9959 6.94532 20.7684L6.94053 20.5825C6.92286 19.8834 6.91487 19.1841 6.91657 18.4847V16.5144C6.91389 15.8154 6.92092 15.1164 6.93765 14.4176L6.94436 14.2317C6.95203 14.017 6.96161 13.8042 6.97311 13.5493C7.02103 12.5287 7.18203 11.8339 7.41874 11.2225C7.65963 10.5829 8.03778 10.0039 8.52657 9.52624C9.00468 9.03821 9.58357 8.66045 10.2228 8.41936C10.8342 8.18265 11.529 8.02165 12.5497 7.97374L13.232 7.94499L13.4179 7.94019C14.1167 7.92254 14.8157 7.91455 15.5147 7.91624L17.4851 7.91719ZM16.4999 12.7089C15.865 12.6999 15.2347 12.8172 14.6455 13.0539C14.0563 13.2907 13.5201 13.6422 13.068 14.088C12.6158 14.5338 12.2568 15.065 12.0117 15.6507C11.7667 16.2365 11.6405 16.8651 11.6405 17.5001C11.6405 18.135 11.7667 18.7636 12.0117 19.3494C12.2568 19.9351 12.6158 20.4664 13.068 20.9121C13.5201 21.3579 14.0563 21.7094 14.6455 21.9462C15.2347 22.1829 15.865 22.3002 16.4999 22.2912C17.7707 22.2912 18.9895 21.7864 19.8881 20.8878C20.7867 19.9892 21.2916 18.7704 21.2916 17.4996C21.2916 16.2287 20.7867 15.01 19.8881 14.1114C18.9895 13.2127 17.7707 12.7089 16.4999 12.7089ZM16.4999 14.6255C16.8818 14.6185 17.2613 14.6876 17.6162 14.8289C17.971 14.9702 18.2942 15.1807 18.5668 15.4483C18.8394 15.7159 19.0559 16.0351 19.2038 16.3873C19.3516 16.7395 19.4278 17.1176 19.4279 17.4996C19.4279 17.8815 19.3519 18.2597 19.2042 18.6119C19.0564 18.9642 18.84 19.2835 18.5675 19.5511C18.295 19.8188 17.9719 20.0294 17.6171 20.1708C17.2622 20.3122 16.8828 20.3815 16.5009 20.3746C15.7384 20.3746 15.0071 20.0717 14.4679 19.5325C13.9288 18.9933 13.6259 18.2621 13.6259 17.4996C13.6259 16.7371 13.9288 16.0058 14.4679 15.4666C15.0071 14.9275 15.7384 14.6246 16.5009 14.6246L16.4999 14.6255ZM21.5312 11.2714C21.222 11.2837 20.9296 11.4153 20.7152 11.6384C20.5009 11.8615 20.3811 12.1589 20.3811 12.4683C20.3811 12.7777 20.5009 13.0751 20.7152 13.2983C20.9296 13.5214 21.222 13.6529 21.5312 13.6653C21.8489 13.6653 22.1536 13.5391 22.3782 13.3144C22.6029 13.0898 22.7291 12.7851 22.7291 12.4674C22.7291 12.1497 22.6029 11.845 22.3782 11.6203C22.1536 11.3957 21.8489 11.2694 21.5312 11.2694V11.2714Z" fill="#1A1A30"/>
</svg>
