<svg width="28" height="28" viewBox="0 0 33 33" fill="none" xmlns="http://www.w3.org/2000/svg">
<path d="M16.5 33C25.6149 33 33 25.6149 33 16.5C33 7.38512 25.6149 0 16.5 0C7.38512 0 0 7.38512 0 16.5C0 25.6149 7.38512 33 16.5 33ZM7.55013 16.1425L23.4589 10.0086C24.1973 9.74187 24.8421 10.1888 24.6029 11.3053L24.6042 11.3039L21.8955 24.0653C21.6947 24.97 21.1571 25.19 20.405 24.7638L16.28 21.7236L14.2904 23.6404C14.0704 23.8604 13.8848 24.046 13.4585 24.046L13.7514 19.8481L21.3964 12.9415C21.7291 12.6486 21.3221 12.4836 20.8835 12.7751L11.4359 18.7234L7.36312 17.4529C6.479 17.1724 6.45975 16.5688 7.55013 16.1425Z" fill="#C2A53A"/>
</svg>
