<svg width="28" height="28" viewBox="0 0 33 33" fill="none" xmlns="http://www.w3.org/2000/svg">
<path d="M16.5 0C7.38869 0 0 7.38869 0 16.5C0 25.6113 7.38869 33 16.5 33C25.6113 33 33 25.6113 33 16.5C33 7.38869 25.6113 0 16.5 0ZM24.0337 12.8649C24.041 13.0273 24.0445 13.1905 24.0445 13.3544C24.0445 18.3588 20.2353 24.1296 13.269 24.1299H13.2693H13.269C11.1302 24.1299 9.14001 23.503 7.46397 22.4287C7.76031 22.4637 8.06193 22.481 8.36732 22.481C10.1418 22.481 11.7748 21.8758 13.0711 20.8599C11.4132 20.8292 10.0154 19.7342 9.53302 18.2294C9.76389 18.2737 10.0013 18.2979 10.2448 18.2979C10.5905 18.2979 10.9253 18.2513 11.2435 18.1645C9.51061 17.8175 8.20518 16.286 8.20518 14.4521C8.20518 14.435 8.20518 14.4196 8.20569 14.4038C8.71603 14.6875 9.29963 14.8582 9.921 14.8773C8.9041 14.1988 8.23565 13.0389 8.23565 11.7249C8.23565 11.0311 8.42322 10.381 8.7485 9.8213C10.6161 12.1129 13.4073 13.62 16.5549 13.7784C16.4899 13.5009 16.4564 13.2119 16.4564 12.9148C16.4564 10.8241 18.1526 9.12792 20.2441 9.12792C21.3335 9.12792 22.3174 9.58841 23.0085 10.3246C23.8713 10.1544 24.6815 9.83917 25.4134 9.40537C25.1302 10.2893 24.53 11.0311 23.748 11.5001C24.5141 11.4085 25.2442 11.2053 25.9227 10.9037C25.4159 11.6632 24.7732 12.3304 24.0337 12.8649Z" fill="#C2A53A"/>
</svg>
