<svg width="33" height="34" viewBox="0 0 33 34" fill="none" xmlns="http://www.w3.org/2000/svg">
<path d="M16.5 0.75C7.38869 0.75 0 8.13869 0 17.25C0 26.3613 7.38869 33.75 16.5 33.75C25.6113 33.75 33 26.3613 33 17.25C33 8.13869 25.6113 0.75 16.5 0.75ZM24.0337 13.6149C24.041 13.7773 24.0445 13.9405 24.0445 14.1044C24.0445 19.1088 20.2353 24.8796 13.269 24.8799H13.2693H13.269C11.1302 24.8799 9.14001 24.253 7.46397 23.1787C7.76031 23.2137 8.06193 23.231 8.36732 23.231C10.1418 23.231 11.7748 22.6258 13.0711 21.6099C11.4132 21.5792 10.0154 20.4842 9.53302 18.9794C9.76389 19.0237 10.0013 19.0479 10.2448 19.0479C10.5905 19.0479 10.9253 19.0013 11.2435 18.9145C9.51061 18.5675 8.20518 17.036 8.20518 15.2021C8.20518 15.185 8.20518 15.1696 8.20569 15.1538C8.71603 15.4375 9.29963 15.6082 9.921 15.6273C8.9041 14.9488 8.23565 13.7889 8.23565 12.4749C8.23565 11.7811 8.42322 11.131 8.7485 10.5713C10.6161 12.8629 13.4073 14.37 16.5549 14.5284C16.4899 14.2509 16.4564 13.9619 16.4564 13.6648C16.4564 11.5741 18.1526 9.87792 20.2441 9.87792C21.3335 9.87792 22.3174 10.3384 23.0085 11.0746C23.8713 10.9044 24.6815 10.5892 25.4134 10.1554C25.1302 11.0393 24.53 11.7811 23.748 12.2501C24.5141 12.1585 25.2442 11.9553 25.9227 11.6537C25.4159 12.4132 24.7732 13.0804 24.0337 13.6149Z" fill="#C386AE"/>
</svg>
