<svg width="33" height="34" viewBox="0 0 33 34" fill="none" xmlns="http://www.w3.org/2000/svg">
<path d="M14.4453 20.3416L19.8125 17.2504L14.4453 14.1592V20.3416Z" fill="#C386AE"/>
<path d="M16.5 0.75C7.38869 0.75 0 8.13869 0 17.25C0 26.3613 7.38869 33.75 16.5 33.75C25.6113 33.75 33 26.3613 33 17.25C33 8.13869 25.6113 0.75 16.5 0.75ZM26.81 17.2669C26.81 17.2669 26.81 20.6131 26.3855 22.2267C26.1476 23.1099 25.4512 23.8063 24.568 24.044C22.9544 24.4688 16.5 24.4688 16.5 24.4688C16.5 24.4688 10.0625 24.4688 8.43203 24.0271C7.54882 23.7895 6.85242 23.0928 6.6145 22.2096C6.18977 20.6131 6.18977 17.25 6.18977 17.25C6.18977 17.25 6.18977 13.904 6.6145 12.2904C6.85217 11.4072 7.56569 10.6937 8.43203 10.456C10.0456 10.0312 16.5 10.0312 16.5 10.0312C16.5 10.0312 22.9544 10.0312 24.568 10.4729C25.4512 10.7105 26.1476 11.4072 26.3855 12.2904C26.8271 13.904 26.81 17.2669 26.81 17.2669Z" fill="#C386AE"/>
</svg>
