<svg width="28" height="28" viewBox="0 0 33 33" fill="none" xmlns="http://www.w3.org/2000/svg">
<path d="M14.4448 19.5912L19.8121 16.4999L14.4448 13.4087V19.5912Z" fill="#C2A53A"/>
<path d="M16.5 0C7.38869 0 0 7.38869 0 16.5C0 25.6113 7.38869 33 16.5 33C25.6113 33 33 25.6113 33 16.5C33 7.38869 25.6113 0 16.5 0ZM26.81 16.5169C26.81 16.5169 26.81 19.8631 26.3855 21.4767C26.1476 22.3599 25.4512 23.0563 24.568 23.294C22.9544 23.7188 16.5 23.7188 16.5 23.7188C16.5 23.7188 10.0625 23.7188 8.43203 23.2771C7.54882 23.0395 6.85242 22.3428 6.6145 21.4596C6.18977 19.8631 6.18977 16.5 6.18977 16.5C6.18977 16.5 6.18977 13.154 6.6145 11.5404C6.85217 10.6572 7.56569 9.94366 8.43203 9.70599C10.0456 9.28125 16.5 9.28125 16.5 9.28125C16.5 9.28125 22.9544 9.28125 24.568 9.72285C25.4512 9.96053 26.1476 10.6572 26.3855 11.5404C26.8271 13.154 26.81 16.5169 26.81 16.5169Z" fill="#C2A53A"/>
</svg>
