<svg width="138" height="138" viewBox="0 0 138 138" fill="none" xmlns="http://www.w3.org/2000/svg">
<path d="M110.389 97.1766L93.6173 80.405H104.62C105.57 80.405 106.341 79.6341 106.341 78.6835V70.9764C106.341 67.9121 104.66 65.2347 102.172 63.8135C102.78 62.9337 103.138 61.8679 103.138 60.7198V55.8381C103.138 52.8307 100.691 50.384 97.6836 50.384H95.8008C94.5219 50.384 93.3381 50.7946 92.3703 51.4885C87.7969 41.9171 78.0205 35.2884 66.7242 35.2884C55.4918 35.2884 45.7619 41.8422 41.1559 51.3263C40.2827 50.7324 39.23 50.384 38.0968 50.384H36.214C32.959 50.384 30.3108 53.0323 30.3108 56.2872V60.2709C30.3108 61.56 30.7272 62.7531 31.4311 63.725C28.8582 65.122 27.1074 67.8485 27.1074 70.9764V78.6835C27.1074 79.6341 27.8782 80.405 28.829 80.405H43.7705C48.941 87.4875 57.3037 92.0989 66.7245 92.0989C71.6315 92.0989 76.4222 90.84 80.6647 88.4463L99.8917 107.674C100.228 108.01 100.669 108.178 101.109 108.178C101.55 108.178 101.99 108.01 102.326 107.674L110.389 99.6113C111.061 98.9389 111.061 97.8488 110.389 97.1766ZM95.8008 53.8271H97.6836C98.7925 53.8271 99.6948 54.7291 99.6948 55.8381V60.7198C99.6948 61.8287 98.7927 62.731 97.6836 62.731H95.8008C95.5599 62.731 95.3277 62.6947 95.1076 62.63C95.0086 59.9554 94.5384 57.3748 93.7465 54.9371C94.1869 54.2691 94.9428 53.8271 95.8008 53.8271ZM95.0184 66.1742H98.0957C100.744 66.1742 102.898 68.3286 102.898 70.9765V76.962H91.8404C93.6122 73.6158 94.6899 69.9567 95.0184 66.1742ZM33.7538 56.2872C33.7538 54.9306 34.8574 53.8271 36.214 53.8271H38.0969C38.7947 53.8271 39.4102 54.1845 39.771 54.7255C38.9287 57.2509 38.4327 59.9328 38.338 62.7151C38.2588 62.7246 38.1788 62.731 38.0969 62.731H36.214C34.8574 62.731 33.7538 61.6274 33.7538 60.2708V56.2872ZM30.5505 76.9618V70.9764C30.5505 68.3283 32.7049 66.1741 35.3528 66.1741H38.4286C38.7649 70.0423 39.8793 73.6906 41.615 76.9618H30.5505ZM101.109 104.021L82.1512 85.0638C81.8189 84.7316 81.378 84.5596 80.9334 84.5596C80.6169 84.5596 80.2984 84.6465 80.0158 84.8249C76.0404 87.3311 71.4443 88.6556 66.7243 88.6556C52.9602 88.6556 41.7622 77.4576 41.7622 63.6935C41.7622 49.9294 52.9602 38.7314 66.7243 38.7314C80.4884 38.7314 91.6864 49.9294 91.6864 63.6935C91.6864 68.5644 90.2819 73.2849 87.6245 77.3446C87.178 78.0266 87.2711 78.9282 87.8475 79.5047L106.737 98.3939L101.109 104.021Z" fill="#C7C7C7"/>
<path d="M66.7266 43.0346C55.3357 43.0346 46.0684 52.3019 46.0684 63.6928C46.0684 75.0838 55.3357 84.3511 66.7266 84.3511C78.1175 84.3511 87.3849 75.0838 87.3849 63.6928C87.3849 52.3019 78.1175 43.0346 66.7266 43.0346ZM66.7266 80.9082C61.5219 80.9082 56.8497 78.5864 53.6902 74.9244C54.0938 71.6602 57.0484 69.9273 60.3571 69.4883L65.2743 77.2134C65.5903 77.7099 66.1381 78.0105 66.7266 78.0105C67.3152 78.0105 67.863 77.7099 68.179 77.2134L73.0961 69.4883C76.4048 69.9273 79.3596 71.6602 79.7631 74.9244C76.6035 78.5862 71.9313 80.9082 66.7266 80.9082ZM67.2861 65.931H66.1671C63.4022 65.931 62.1645 63.5747 62.1645 61.2398V58.2271C62.1645 55.8923 63.4022 53.536 66.1671 53.536H67.2861C70.051 53.536 71.2887 55.8923 71.2887 58.2271V61.2398C71.2887 63.5747 70.051 65.931 67.2861 65.931ZM69.0875 69.3739L66.7266 73.0827L64.3659 69.3739H69.0875ZM73.4072 66.0518C74.2501 64.7305 74.7317 63.0849 74.7317 61.2398V58.2271C74.7317 53.5139 71.6004 50.0929 67.2861 50.0929H66.1671C61.8528 50.0929 58.7215 53.5137 58.7215 58.2271V61.2398C58.7215 63.0849 59.2031 64.7305 60.046 66.0518C55.9935 66.5373 52.8589 68.4745 51.2973 71.3221C50.155 69.0213 49.5114 66.4311 49.5114 63.693C49.5114 54.2003 57.2341 46.4778 66.7266 46.4778C76.2193 46.4778 83.9418 54.2003 83.9418 63.693C83.9418 66.4311 83.2982 69.0214 82.1559 71.3221C80.5941 68.4744 77.4597 66.5371 73.4072 66.0518Z" fill="#C7C7C7"/>
<path d="M66.7254 31.3569C67.676 31.3569 68.447 30.586 68.447 29.6353V26.3644C68.447 25.4138 67.676 24.6429 66.7254 24.6429C65.7747 24.6429 65.0039 25.4138 65.0039 26.3644V29.6353C65.0039 30.586 65.7747 31.3569 66.7254 31.3569Z" fill="#7568F6"/>
<path d="M82.1149 35.4821C82.3861 35.6385 82.682 35.7132 82.9739 35.7132C83.5689 35.7132 84.1476 35.4044 84.4665 34.8521L86.102 32.0192C86.5775 31.1958 86.2952 30.1429 85.4719 29.6677C84.6481 29.1921 83.5954 29.4746 83.1204 30.2977L81.4849 33.1305C81.0094 33.954 81.2916 35.0069 82.1149 35.4821Z" fill="#7568F6"/>
<path d="M48.9798 34.852C49.2986 35.4043 49.8772 35.7131 50.4722 35.7131C50.7642 35.7131 51.0603 35.6385 51.3313 35.482C52.1548 35.0067 52.4369 33.9538 51.9614 33.1305L50.3259 30.2976C49.8504 29.4742 48.7976 29.1919 47.9743 29.6676C47.1509 30.143 46.8688 31.1959 47.3443 32.0192L48.9798 34.852Z" fill="#7568F6"/>
<circle cx="69" cy="69" r="67.5" stroke="#C4C4C4" stroke-width="3"/>
</svg>
