<svg width="125" height="124" viewBox="0 0 125 124" fill="none" xmlns="http://www.w3.org/2000/svg">
<path d="M78.2462 62.0459C77.6578 62.0459 77.1676 62.4754 77.045 63.0523C76.8366 64.0341 76.3096 64.93 75.5496 65.605L66.2588 73.8156C65.7562 74.2697 65.7072 75.0429 66.1485 75.5461C66.602 76.0493 67.3742 76.0984 67.8767 75.6566L77.1676 67.446C78.332 66.4273 79.1164 65.0528 79.4351 63.5677C79.6067 62.7823 79.0429 62.0459 78.2462 62.0459Z" fill="#7568F6"/>
<path d="M93.8989 78.0376C91.7784 77.8413 89.756 78.5408 88.2361 79.9645C86.8878 78.6881 85.1351 78.0008 83.272 78.0008C81.3967 78.0008 79.6807 78.7249 78.3814 79.9031L74.6798 76.1967L80.4161 71.128C81.7399 69.962 82.7695 68.5384 83.4681 66.9552H86.5937C93.6537 66.9552 99.8313 61.6901 100.444 54.6455C101.143 46.6067 94.6956 39.8934 86.8265 39.9548C85.6254 30.9219 77.8421 24 68.6248 24C63.1214 24 57.8631 26.5282 54.3821 30.7992C53.046 30.3574 51.6487 30.1365 50.2392 30.1365C44.1842 30.1365 38.8769 34.2111 37.2589 39.9793C29.9782 40.3598 24.2174 46.5576 24.5116 54.0073C24.8057 61.3219 31.1059 66.9552 38.4111 66.9552H41.4754C42.174 68.5261 43.1914 69.9375 44.5029 71.1034L50.276 76.2212L46.5988 79.9031C45.3118 78.7249 43.5958 78.0008 41.7205 78.0008C39.8574 78.0008 38.1047 78.6881 36.7564 79.9522C35.2365 78.5285 33.2018 77.829 31.0814 78.0376C27.8087 78.3444 25.0631 80.9218 24.5851 84.1741C24.2297 86.5305 25.0019 88.8255 26.6321 90.4701L35.7268 99.5766C36.2906 100.141 37.2222 100.141 37.786 99.5766L46.6969 90.6542C47.8981 89.4514 48.7561 87.8928 48.9644 86.1991C49.1483 84.6159 48.8296 83.1186 48.1432 81.8545L52.1268 77.8658L61.4912 86.1623C62.0427 86.6532 62.864 86.6532 63.4155 86.1623L72.8412 77.829L76.8615 81.8545C76.1752 83.1309 75.8565 84.6282 76.0403 86.1991C76.2364 87.8928 77.0944 89.4514 78.3079 90.6542L86.9614 99.3188C87.6723 100.031 88.8245 100.031 89.5354 99.3188L98.3727 90.4701C100.015 88.8255 100.775 86.5305 100.42 84.1618C99.9171 80.9095 97.1715 78.3322 93.8989 78.0376ZM45.1402 88.7273L36.7564 97.1343L28.3726 88.7396C27.4533 87.8191 26.9507 86.6041 26.9507 85.3032C26.9507 82.6277 29.1202 80.4554 31.7923 80.4554C33.0793 80.4554 34.305 80.9586 35.212 81.879L36.7564 83.4132L38.3008 81.8668C39.2078 80.9586 40.4213 80.4554 41.7205 80.4554C44.3926 80.4554 46.5621 82.6277 46.5621 85.3032C46.5621 86.6041 46.0595 87.8191 45.1402 88.7273ZM37.9821 64.5006C31.9026 64.5006 26.9507 59.5423 26.9507 53.455C26.9507 47.3676 31.8903 42.4094 38.0189 42.4094C38.0189 42.4094 38.0189 42.4094 38.0311 42.4094L39.2323 42.4462L39.4407 41.4398C40.458 36.3097 45.0054 32.591 50.2392 32.591C51.6487 32.591 53.0338 32.861 54.3453 33.3888L55.2278 33.7447L55.7916 32.9715C58.8436 28.8355 63.5136 26.4546 68.6248 26.4546C76.9719 26.4546 83.9461 32.9838 84.51 41.3293L84.5958 42.6057L85.8582 42.4707C86.2382 42.4339 86.6182 42.4094 87.0104 42.4094C93.0899 42.4094 98.0418 47.3676 98.0418 53.455C98.0418 59.5423 93.0899 64.5006 87.0104 64.5006H84.2526C84.4119 63.7029 84.51 62.8806 84.51 62.046V61.8742C84.51 55.1977 79.0923 49.7731 72.4 49.7731C69.6544 49.7731 66.9578 50.7181 64.8128 52.4486L62.4717 54.3386L60.0448 52.4118C57.9244 50.7059 55.2401 49.7731 52.519 49.7731C49.2831 49.7731 46.2311 51.0372 43.9513 53.3445C41.6715 55.6396 40.409 58.6955 40.4335 61.9356V62.0951C40.4335 62.9174 40.5316 63.7151 40.6909 64.5006H37.9821ZM46.1331 69.2625C44.0861 67.4461 42.8972 64.8197 42.8849 62.0828V61.9233C42.8727 59.3337 43.8655 56.9037 45.6918 55.075C47.5181 53.2463 49.945 52.2277 52.519 52.2277C54.6885 52.2277 56.8212 52.9763 58.525 54.3264L62.484 57.4805L66.3572 54.3632C68.061 52.9886 70.2182 52.2277 72.4122 52.2277C77.7318 52.2277 82.0463 56.56 82.0463 61.8742V62.046C82.0463 64.8197 80.8574 67.4461 78.7859 69.287L62.4472 83.7323L46.1331 69.2625ZM96.62 88.7273L88.2361 97.1343L79.8523 88.7396C78.933 87.8191 78.4305 86.6041 78.4305 85.3032C78.4305 82.6277 80.6 80.4554 83.272 80.4554C84.5712 80.4554 85.7847 80.9586 86.6917 81.879L88.2361 83.4132L89.7805 81.8668C90.6875 80.9586 91.901 80.4554 93.2002 80.4554C95.8723 80.4554 98.0418 82.6277 98.0418 85.3032C98.0418 86.6041 97.5392 87.8191 96.62 88.7273Z" fill="#F0EBF5"/>
<circle cx="62.5" cy="62" r="60.5" stroke="#F0EBF5" stroke-width="3"/>
</svg>
