<svg width="124" height="124" viewBox="0 0 124 124" fill="none" xmlns="http://www.w3.org/2000/svg">
<g clip-path="url(#clip0_4498_20907)">
<path d="M83.024 60.5059L57.4459 60.4256V55.6046C57.4459 54.7216 56.7282 54.0039 55.8452 54.0039C54.9622 54.0039 54.2445 54.7216 54.2445 55.6046V60.4162L52.6485 60.4114C51.7608 60.4114 51.0431 61.1244 51.0384 62.0074C51.0336 62.8904 51.7514 63.6128 52.6343 63.6176L83.0146 63.712C83.9023 63.712 84.62 62.999 84.6247 62.116C84.6247 61.2283 83.9117 60.5106 83.024 60.5059Z" fill="#7568F6"/>
<path d="M93.4262 80.7716C93.4593 71.4602 93.4262 41.5757 93.4262 41.2783C93.4451 37.0144 90.1965 33.6619 86.0318 33.6431H85.9988C84.3603 33.6431 82.8399 34.1672 81.5933 35.0502V28.2366C81.6027 26.2062 80.8331 24.2985 79.426 22.8584C78.0094 21.4135 76.1112 20.6108 74.0809 20.6014H74.0478C72.4282 20.6014 70.922 21.1208 69.6848 21.999V19.7184C69.6943 17.688 68.9104 15.7756 67.4797 14.3355C66.049 12.8953 64.1414 12.0973 62.111 12.0879H62.078C57.8661 12.0879 54.4286 15.4829 54.4097 19.6664V21.9093C53.182 21.0358 51.6852 20.5164 50.0751 20.5069H50.042C45.8065 20.5069 42.3502 23.9019 42.3313 28.0855V44.9235C41.0941 44.0405 39.5879 43.5211 37.9636 43.5117H37.9305C33.7564 43.5117 30.3473 46.9067 30.3284 51.0949C30.3284 51.3027 30.3661 72.0835 30.3284 80.9652C30.3284 81.055 30.3378 81.1447 30.352 81.2297C30.4936 98.5068 44.6544 112.521 62.0402 112.521C70.4687 112.521 78.3683 109.263 84.28 103.351C90.1965 97.435 93.4498 89.5401 93.4498 81.1116C93.464 80.9936 93.4498 80.8802 93.4262 80.7716ZM62.0496 109.32C46.3448 109.32 33.5675 96.604 33.5675 80.9747C33.5675 80.8897 33.5628 80.8047 33.5487 80.7244C33.5817 71.6963 33.5487 51.3027 33.5487 51.1044C33.5581 48.6915 35.5318 46.7225 37.9636 46.7225C40.3717 46.732 42.336 48.6963 42.3454 51.0949V75.8515C42.3454 76.7345 43.0584 77.4522 43.9414 77.4522C48.3988 77.4711 52.5635 79.2276 55.6704 82.396C58.7727 85.5596 60.4678 89.7715 60.4536 94.2572C60.4489 95.1402 61.1666 95.8626 62.0496 95.8673C62.9373 95.8673 63.6551 95.1543 63.6598 94.2714C63.6834 88.9404 61.6577 83.9258 57.9605 80.1531C54.6222 76.7486 50.2639 74.7088 45.5516 74.3169V28.0949C45.561 25.7198 47.6244 23.713 50.0751 23.713C52.4643 23.7225 54.4144 25.6868 54.4239 28.0855V49.192C54.4239 50.075 55.1416 50.7927 56.0246 50.7927C56.9076 50.7927 57.6253 50.075 57.6253 49.192V19.6712C57.6347 17.2583 59.6368 15.2893 62.1063 15.2893C63.282 15.294 64.3822 15.7568 65.2085 16.5878C66.0349 17.4188 66.4882 18.5285 66.4834 19.7089V60.4489L69.6895 60.4583V28.1893C69.699 25.7765 71.6586 23.8075 74.0714 23.8075C75.2377 23.8122 76.3284 24.2702 77.1359 25.1013C77.948 25.9323 78.3919 27.0419 78.3872 28.2318V60.4914L81.5933 60.5008V41.231C81.6027 38.8182 83.5812 36.8492 86.0176 36.8492C88.3833 36.8586 90.2295 38.7993 90.2201 41.2735C90.2201 41.5805 90.2579 72.2204 90.2201 81.1022C90.2201 81.2155 90.2295 81.3335 90.2531 81.4421C90.0784 96.8448 77.4947 109.32 62.0496 109.32Z" fill="#F0EBF5"/>
<path d="M61.9976 124C27.8116 124 0 96.1884 0 61.9976C0 27.8116 27.8116 0 61.9976 0C96.1837 0 123.995 27.8116 123.995 61.9976C124 96.1884 96.1884 124 61.9976 124ZM61.9976 3.77746C29.8939 3.77746 3.77747 29.8939 3.77747 61.9976C3.77747 94.1014 29.8939 120.218 61.9976 120.218C94.1014 120.218 120.218 94.1014 120.218 61.9976C120.218 29.8939 94.1014 3.77746 61.9976 3.77746Z" fill="#F0EBF5"/>
<path d="M103.158 18.7273L18.9006 103.534L21.5804 106.197L105.837 21.3897L103.158 18.7273Z" fill="#F0EBF5"/>
</g>
<defs>
<clipPath id="clip0_4498_20907">
<rect width="124" height="124" fill="white"/>
</clipPath>
</defs>
</svg>
