<svg width="343" height="787" viewBox="0 0 343 787" fill="none" xmlns="http://www.w3.org/2000/svg">
<rect width="343" height="786.671" fill="#121023"/>
<circle cx="171.073" cy="239.807" r="51.676" stroke="#F0EBF5" stroke-width="2.56244"/>
<g clip-path="url(#clip0_4459_25514)">
<path d="M195.696 246.53C198.481 245.114 199.597 241.702 198.186 238.906C196.775 236.111 193.377 234.991 190.592 236.407C187.807 237.823 186.691 241.235 188.102 244.03C188.589 244.995 189.341 245.801 190.269 246.352C188.859 246.929 187.692 247.977 186.957 249.314L184.498 253.804L180.74 248.739C180.619 248.576 180.426 248.481 180.224 248.481H178.258V245.857C178.255 243.135 176.533 240.717 173.97 239.83C176.18 238.225 176.676 235.126 175.078 232.905C173.479 230.686 170.392 230.188 168.179 231.793C165.969 233.397 165.473 236.497 167.071 238.718C167.38 239.146 167.753 239.52 168.179 239.83C165.616 240.717 163.894 243.135 163.891 245.857V248.481H161.925C161.721 248.481 161.53 248.576 161.409 248.739L157.651 253.804L155.192 249.314C154.457 247.974 153.291 246.929 151.88 246.352C154.567 244.756 155.458 241.277 153.871 238.58C152.284 235.883 148.815 234.988 146.128 236.581C143.442 238.177 142.55 241.657 144.137 244.354C144.687 245.285 145.489 246.043 146.454 246.53C144.356 247.597 143.035 249.756 143.032 252.118V262.874C143.032 263.231 143.321 263.519 143.674 263.519C144.028 263.519 144.317 263.229 144.317 262.874V252.118C144.319 249.373 146.535 247.146 149.269 247.143H149.362C151.319 247.146 153.12 248.216 154.065 249.936L157.006 255.304C157.006 255.304 157.012 255.315 157.015 255.324L157.612 256.413C157.724 256.619 157.94 256.748 158.176 256.748H164.368C165.187 256.748 165.852 257.416 165.852 258.238C165.852 259.06 165.187 259.727 164.368 259.727H156.914C156.185 259.73 155.506 259.361 155.105 258.75C155.091 258.725 155.077 258.702 155.06 258.679L151.572 252.996C151.395 252.686 151.002 252.582 150.694 252.759C150.385 252.937 150.282 253.331 150.458 253.641C150.464 253.652 150.472 253.663 150.478 253.671L153.77 259.04L149.264 265.095C149.039 265.371 149.081 265.779 149.359 266.004C149.634 266.23 150.04 266.187 150.265 265.909C150.276 265.895 150.287 265.88 150.296 265.866L154.581 260.095C155.22 260.684 156.053 261.01 156.92 261.013H164.376C165.905 260.979 167.119 259.707 167.085 258.173C167.052 256.686 165.86 255.487 164.376 255.453H158.555L158.327 255.048L162.245 249.77H179.902L183.811 255.048L183.584 255.453H177.776C176.247 255.487 175.033 256.76 175.067 258.294C175.1 259.78 176.292 260.979 177.776 261.013H185.23C186.094 261.01 186.926 260.684 187.563 260.098L191.848 265.869C192.073 266.145 192.476 266.187 192.754 265.965C193.015 265.754 193.068 265.377 192.88 265.098L188.376 259.031L191.666 253.663C191.851 253.359 191.758 252.962 191.456 252.776C191.153 252.591 190.757 252.683 190.572 252.987L187.086 258.682C187.072 258.702 187.058 258.722 187.047 258.744C186.646 259.358 185.965 259.73 185.233 259.727H177.779C176.96 259.727 176.295 259.06 176.295 258.238C176.295 257.416 176.96 256.748 177.779 256.748H183.973C184.209 256.748 184.425 256.619 184.537 256.413L185.132 255.33C185.14 255.313 185.151 255.296 185.16 255.279L188.088 249.939C189.033 248.216 190.836 247.146 192.793 247.146H192.886C195.62 247.149 197.836 249.376 197.838 252.12V262.877C197.838 263.234 198.127 263.521 198.481 263.521C198.837 263.521 199.123 263.231 199.123 262.877V252.118C199.117 249.756 197.793 247.594 195.696 246.53ZM144.631 241.468C144.631 239.047 146.585 237.085 148.997 237.085C151.409 237.085 153.364 239.047 153.364 241.468C153.364 243.889 151.409 245.851 148.997 245.851C146.588 245.848 144.634 243.886 144.631 241.468ZM167.419 235.813C167.419 233.786 169.057 232.145 171.073 232.145C173.092 232.145 174.727 233.789 174.727 235.813C174.727 237.837 173.09 239.481 171.073 239.481C169.054 239.481 167.419 237.84 167.419 235.813ZM165.176 245.854C165.178 243.047 167.444 240.776 170.238 240.773H171.906C174.702 240.776 176.965 243.05 176.968 245.854V248.478H174.98V245.739C174.997 245.381 174.722 245.08 174.366 245.063C174.009 245.046 173.709 245.322 173.693 245.68C173.693 245.699 173.693 245.719 173.693 245.739V248.486H168.44V245.739C168.457 245.381 168.182 245.08 167.826 245.063C167.47 245.046 167.17 245.322 167.153 245.68C167.153 245.699 167.153 245.719 167.153 245.739V248.486H165.173L165.176 245.854ZM188.78 241.468C188.78 239.047 190.735 237.085 193.147 237.085C195.558 237.085 197.513 239.047 197.513 241.468C197.513 243.889 195.558 245.851 193.147 245.851C190.735 245.848 188.78 243.889 188.78 241.468Z" fill="#F0EBF5" stroke="#EFEAF4" stroke-width="0.427074" stroke-miterlimit="10"/>
<path d="M158.508 228.736C158.572 228.736 158.634 228.728 158.696 228.708L165.014 226.76C166.893 227.497 168.895 227.872 170.914 227.863C171.402 227.863 171.882 227.841 172.353 227.801C173.901 229.758 176.686 230.96 179.726 230.96C180.833 230.963 181.935 230.8 182.993 230.473L186.675 231.85C187.009 231.973 187.379 231.805 187.502 231.47C187.55 231.337 187.555 231.194 187.516 231.059L186.683 228.277C187.746 227.168 188.329 225.811 188.329 224.423C188.329 221.955 186.504 219.705 183.638 218.605C183.649 218.439 183.655 218.272 183.655 218.106C183.655 212.724 177.939 208.344 170.917 208.344C163.895 208.344 158.18 212.724 158.18 218.106C158.18 220.159 158.987 222.104 160.521 223.756L157.966 227.74C157.773 228.041 157.86 228.438 158.16 228.632C158.264 228.699 158.384 228.736 158.508 228.736ZM187.045 224.426C187.045 225.589 186.518 226.692 185.519 227.619C185.34 227.785 185.27 228.041 185.34 228.277L185.912 230.186L183.237 229.184C183.099 229.13 182.948 229.127 182.808 229.175C181.815 229.507 180.774 229.674 179.728 229.671C177.409 229.671 175.278 228.894 173.907 227.593C178.741 226.698 182.508 223.686 183.436 219.911C185.646 220.851 187.045 222.571 187.045 224.426ZM161.878 224.021C162.044 223.762 162.007 223.424 161.786 223.21C160.266 221.721 159.464 219.962 159.464 218.106C159.464 213.433 164.602 209.636 170.914 209.636C177.227 209.636 182.367 213.436 182.367 218.106C182.367 222.777 177.23 226.577 170.914 226.577C168.988 226.585 167.075 226.214 165.291 225.482C165.154 225.423 165 225.417 164.857 225.459L160.002 226.957L161.878 224.021Z" fill="#F0EBF5" stroke="#EFEAF4" stroke-width="0.427074" stroke-miterlimit="10"/>
<path d="M177.21 216.233H164.621C164.386 216.233 164.192 216.039 164.192 215.801C164.192 215.563 164.384 215.37 164.621 215.37H177.21C177.445 215.37 177.638 215.562 177.638 215.801C177.638 216.04 177.446 216.233 177.21 216.233Z" fill="#7568F6" stroke="#7568F6" stroke-width="0.427074"/>
<path d="M164.611 219.972L164.611 219.973H164.621H177.213C177.447 219.973 177.641 220.166 177.641 220.404C177.641 220.642 177.449 220.835 177.209 220.838H164.621H164.621H164.621H164.621H164.621H164.62H164.62H164.62H164.62H164.62H164.62H164.62H164.62H164.62H164.619H164.619H164.619H164.619H164.619H164.619H164.619H164.619H164.619H164.618H164.618H164.618H164.618H164.618H164.618H164.618H164.618H164.617H164.617H164.617H164.617H164.617H164.617H164.617H164.617H164.617H164.616H164.616H164.616H164.616H164.616H164.616H164.616H164.616H164.616H164.615H164.615H164.615H164.615H164.615H164.615H164.615H164.615H164.614H164.614H164.614H164.614H164.614H164.614H164.614H164.614H164.614H164.613H164.613H164.613H164.613H164.613H164.613H164.613H164.613H164.613H164.612H164.612H164.612H164.612H164.612H164.612H164.612H164.612H164.612H164.611H164.611H164.611H164.611H164.611H164.611H164.611H164.611H164.61H164.61H164.61H164.61H164.61H164.61H164.61H164.61H164.61H164.609H164.609H164.609H164.609H164.609H164.609H164.609H164.609H164.609H164.608H164.608H164.608H164.608H164.608H164.608H164.608H164.608H164.607H164.607H164.607H164.607H164.607H164.607H164.607H164.607H164.607H164.606H164.606H164.606H164.606H164.606H164.606H164.606H164.606H164.606H164.605H164.605H164.605H164.605H164.605H164.605H164.605H164.605H164.604H164.604H164.604H164.604H164.604H164.604H164.604H164.604H164.604H164.603H164.603H164.603H164.603H164.603H164.603H164.603H164.603H164.603H164.602H164.602H164.602H164.602H164.602H164.602H164.602H164.602H164.601H164.601H164.601H164.601H164.601H164.601H164.601H164.601H164.601H164.6H164.6H164.6H164.6H164.6H164.6H164.6H164.6H164.6H164.599H164.599H164.599H164.599H164.599H164.599H164.599H164.599H164.599H164.598H164.598H164.598H164.598H164.598H164.598H164.598H164.598H164.597H164.597H164.597H164.597H164.597H164.597H164.597H164.597H164.597H164.596H164.596H164.596H164.596H164.596H164.596H164.596H164.596H164.596H164.595H164.595H164.595H164.595H164.595H164.595H164.595H164.595H164.594H164.594H164.594H164.594H164.594H164.594H164.594H164.594H164.594H164.593H164.593H164.593H164.593H164.593H164.593H164.593H164.593H164.593H164.592H164.592H164.592H164.592H164.592H164.592H164.592H164.592H164.591H164.591H164.591H164.591H164.591H164.591H164.591H164.591H164.591H164.59H164.59H164.59H164.59H164.59H164.59H164.59H164.59H164.59H164.589H164.589H164.589H164.589H164.589H164.589H164.589H164.589H164.589H164.588H164.588H164.588H164.588H164.588H164.588H164.588H164.588H164.587H164.587H164.587H164.587H164.587H164.587H164.587H164.587H164.587H164.586H164.586H164.586H164.586H164.586H164.586H164.586H164.586H164.586H164.585H164.585H164.585H164.585H164.585H164.585H164.585H164.585H164.584H164.584H164.584H164.584H164.584H164.584H164.584H164.584H164.584H164.583H164.583H164.583H164.583H164.583H164.583H164.583H164.583H164.583H164.582H164.582H164.582H164.582H164.582H164.582H164.582H164.582H164.581H164.581H164.581H164.581H164.581H164.581H164.581H164.581H164.581H164.58H164.58H164.58H164.58H164.58H164.58H164.58H164.58H164.58H164.579H164.579H164.579H164.579H164.579H164.579H164.579H164.579H164.578H164.578H164.578H164.578H164.578H164.578H164.578H164.578H164.578H164.577H164.577H164.577H164.577H164.577H164.577H164.577H164.577H164.577H164.576H164.576H164.576H164.576H164.576H164.576H164.576H164.576H164.576H164.575H164.575H164.575H164.575H164.575H164.575H164.575H164.575H164.574H164.574H164.574H164.574H164.574H164.574H164.574H164.574H164.574H164.573H164.573H164.573H164.573H164.573H164.573H164.573H164.573H164.573H164.572H164.572H164.572H164.572H164.572H164.572H164.572H164.572H164.571H164.571H164.571H164.571H164.571H164.571H164.571H164.571H164.571H164.57H164.57H164.57H164.57H164.57H164.57H164.57H164.57H164.57H164.569H164.569H164.569H164.569H164.569H164.569H164.569H164.569H164.568H164.568H164.568H164.568H164.568H164.568H164.568H164.568C164.331 220.824 164.15 220.624 164.161 220.386C164.173 220.144 164.374 219.961 164.611 219.972Z" fill="#7568F6" stroke="#7568F6" stroke-width="0.427074"/>
</g>
<path d="M142.692 312.901V313.931H145.536V312.901H142.692ZM139.14 313.654V314.638H142.384V313.654H139.14ZM142.845 315.745V316.713H145.505V315.745H142.845ZM142.815 318.62V319.589H145.428V318.62H142.815ZM135.235 315.745V316.713H137.849V315.745H135.235ZM135.296 318.605V319.589H137.864V318.605H135.296ZM134.62 313.008L134.927 321.941H135.973L135.696 313.608C135.881 313.577 135.957 313.516 135.988 313.423L134.62 313.008ZM144.906 312.901C144.921 315.729 144.798 319.65 144.629 321.91H145.72C145.874 319.696 145.966 315.791 145.982 312.901H144.906ZM137.449 312.086C136.834 312.501 135.804 313.054 134.912 313.469C135.035 313.7 135.22 314.069 135.281 314.269C136.265 313.9 137.418 313.408 138.356 312.916L137.449 312.086ZM138.633 317.851V321.849H139.586V317.851H138.633ZM138.648 312.07V317.175H141.646V316.237H139.647V312.07H138.648ZM141.077 316.237V321.833H142.077V316.237H141.077ZM133.313 321.449V322.525H147.35V321.449H133.313ZM141.754 323.509C143.399 324.324 145.152 325.369 146.182 326.123L147.258 325.339C146.136 324.57 144.275 323.54 142.569 322.74L141.754 323.509ZM137.726 322.771C136.772 323.617 134.927 324.678 133.436 325.293C133.713 325.508 134.113 325.877 134.312 326.107C135.773 325.462 137.587 324.416 138.802 323.463L137.726 322.771ZM149.61 313.669V314.869H161.848V313.669H149.61ZM148.795 323.755V324.908H162.617V323.755H148.795ZM155.007 314.269V324.232H156.298V314.269H155.007ZM170.873 314.515L170.335 315.622H178.161V314.515H170.873ZM172.795 317.851V318.912H177.807V317.851H172.795ZM172.78 321.234V322.325H178.023V321.234H172.78ZM172.211 314.869V326.077H173.395V314.869H172.211ZM171.458 312.116C170.704 314.377 169.459 316.621 168.06 318.051C168.321 318.236 168.782 318.651 168.952 318.851C170.366 317.267 171.704 314.853 172.58 312.409L171.458 312.116ZM167.768 311.993C166.891 314.33 165.461 316.637 163.924 318.128C164.139 318.405 164.493 319.02 164.601 319.296C166.276 317.574 167.86 314.945 168.875 312.347L167.768 311.993ZM166.123 315.96V326.061H167.291V314.822L167.26 314.807L166.123 315.96ZM185.648 312.409C185.541 314.453 185.541 321.849 179.268 325.047C179.622 325.308 180.006 325.662 180.206 325.954C186.571 322.494 186.802 314.822 186.925 312.409H185.648ZM186.878 312.716L185.771 312.824C185.879 314.238 186.31 322.833 192.828 325.954C193.013 325.631 193.367 325.246 193.705 324.985C187.37 322.079 186.925 313.915 186.878 312.716ZM198.194 313.469H205.497V315.053H198.194V313.469ZM197.041 312.532V316.006H206.712V312.532H197.041ZM197.533 319.65H206.143V320.742H197.533V319.65ZM197.533 321.557H206.143V322.663H197.533V321.557ZM197.533 317.759H206.143V318.835H197.533V317.759ZM196.38 316.898V323.509H207.327V316.898H196.38ZM199.317 323.494C198.348 324.124 196.334 324.862 194.719 325.246C194.996 325.477 195.381 325.846 195.58 326.092C197.164 325.692 199.163 324.954 200.393 324.201L199.317 323.494ZM203.068 324.293C204.698 324.77 206.789 325.569 207.926 326.107L208.926 325.277C207.726 324.77 205.666 324.016 204.067 323.54L203.068 324.293ZM150.102 339.019V339.942H154.238V339.019H150.102ZM146.412 332.623V333.576H153.454V332.623H146.412ZM144.982 339.019V339.942H149.057V339.019H144.982ZM140.924 335.006V336.067H145.751V335.006H140.924ZM142.83 330.947V345.077H143.952V330.947H142.83ZM148.718 339.019V339.219C148.611 342.555 148.488 343.754 148.273 344.016C148.18 344.154 148.088 344.185 147.919 344.185C147.734 344.185 147.381 344.185 146.95 344.139C147.104 344.385 147.181 344.785 147.196 345.061C147.642 345.092 148.073 345.092 148.349 345.046C148.672 345.031 148.903 344.923 149.103 344.662C149.426 344.246 149.549 343.016 149.672 339.48C149.687 339.342 149.687 339.019 149.687 339.019H148.718ZM153.915 339.019V339.219C153.807 342.555 153.7 343.739 153.5 344C153.392 344.139 153.3 344.154 153.116 344.154C152.931 344.154 152.531 344.154 152.055 344.108C152.193 344.369 152.285 344.769 152.316 345.061C152.808 345.092 153.285 345.092 153.577 345.046C153.915 345.015 154.13 344.923 154.346 344.662C154.668 344.246 154.776 343.001 154.884 339.48C154.899 339.342 154.899 339.019 154.899 339.019H153.915ZM153.223 332.623V332.777C153.054 334.883 152.87 335.729 152.608 335.975C152.501 336.082 152.378 336.098 152.147 336.098C151.901 336.098 151.286 336.098 150.656 336.036C150.825 336.298 150.932 336.713 150.963 337.02C151.609 337.066 152.239 337.051 152.578 337.036C152.977 337.005 153.239 336.913 153.485 336.651C153.854 336.282 154.053 335.36 154.253 333.084C154.269 332.931 154.299 332.623 154.299 332.623H153.223ZM149.579 330.932C149.41 333.653 148.78 335.514 145.813 336.544C146.013 336.728 146.289 337.113 146.397 337.359C149.61 336.159 150.456 334.053 150.671 330.932H149.579ZM146.597 337.435C146.52 340.434 146.259 342.955 144.552 344.4C144.767 344.554 145.059 344.892 145.198 345.107C147.104 343.478 147.519 340.741 147.611 337.435H146.597ZM151.655 337.405C151.594 340.48 151.301 342.94 149.503 344.339C149.733 344.508 150.041 344.846 150.179 345.077C152.162 343.462 152.593 340.802 152.685 337.405H151.655ZM156.744 332.393V333.453H170.043V332.393H156.744ZM162.74 330.947V333.008H163.924V330.947H162.74ZM157.405 335.083V345.061H158.497V336.113H169.013V335.083H157.405ZM168.398 335.083V343.662C168.398 343.893 168.321 343.97 168.044 343.97C167.768 343.985 166.845 344 165.846 343.954C166 344.262 166.184 344.785 166.23 345.092C167.506 345.092 168.352 345.061 168.859 344.892C169.351 344.708 169.505 344.339 169.505 343.662V335.083H168.398ZM161.28 335.836C161.157 337.451 160.665 338.22 158.589 338.635C158.789 338.819 159.05 339.219 159.158 339.465C161.526 338.896 162.171 337.851 162.325 335.836H161.28ZM164.139 335.836V337.651C164.139 338.604 164.385 338.85 165.492 338.85C165.707 338.85 166.861 338.85 167.091 338.85C167.906 338.85 168.183 338.542 168.275 337.297C167.998 337.236 167.583 337.097 167.383 336.943C167.337 337.866 167.276 337.958 166.953 337.958C166.707 337.958 165.8 337.958 165.6 337.958C165.215 337.958 165.154 337.927 165.154 337.635V335.836H164.139ZM160.526 339.649V344.369H161.556V339.649H160.526ZM161.141 339.649V340.557H165.323V342.524H161.141V343.432H166.369V339.649H161.141ZM159.696 333.453C160.034 334.053 160.372 334.852 160.511 335.375L161.679 335.098C161.526 334.591 161.172 333.807 160.818 333.223L159.696 333.453ZM165.892 333.177C165.677 333.746 165.277 334.607 164.954 335.145L166.076 335.375C166.399 334.868 166.784 334.145 167.153 333.407L165.892 333.177ZM182.85 330.947V343.493C182.85 343.785 182.743 343.862 182.45 343.877C182.143 343.877 181.159 343.893 180.114 343.862C180.283 344.2 180.467 344.754 180.529 345.077C181.866 345.077 182.773 345.046 183.281 344.846C183.788 344.646 183.973 344.308 183.973 343.493V330.947H182.85ZM178.699 337.62C179.452 338.742 180.283 340.264 180.621 341.248L181.636 340.71C181.282 339.726 180.452 338.25 179.652 337.159L178.699 337.62ZM177.961 334.484V335.575H185.864V334.484H177.961ZM172.38 335.59V336.513H177.177V335.59H172.38ZM172.472 331.485V332.408H177.192V331.485H172.472ZM172.38 337.651V338.573H177.177V337.651H172.38ZM171.657 333.5V334.453H177.746V333.5H171.657ZM172.918 339.726V340.679H176.101V343.247H172.918V344.216H177.131V339.726H172.918ZM172.365 339.726V344.923H173.395V339.726H172.365ZM196.595 332.039C197.533 333.453 199.224 335.114 200.746 336.113C200.915 335.806 201.177 335.391 201.392 335.114C199.839 334.222 198.148 332.592 197.087 330.978H196.011C195.227 332.485 193.582 334.284 191.891 335.314C192.106 335.56 192.367 335.975 192.49 336.252C194.181 335.16 195.75 333.453 196.595 332.039ZM192.89 337.482V345.046H193.874V338.45H200.193V337.482H192.89ZM199.501 337.482V343.954C199.501 344.093 199.47 344.139 199.332 344.139C199.194 344.154 198.825 344.154 198.379 344.139C198.517 344.4 198.655 344.8 198.686 345.061C199.347 345.061 199.808 345.046 200.116 344.877C200.439 344.723 200.516 344.446 200.516 343.97V337.482H199.501ZM195.165 337.758V344.861H195.98V337.758H195.165ZM197.302 337.758V344.861H198.133V337.758H197.302ZM194.028 335.175V336.144H199.317V335.175H194.028ZM193.351 340.633V341.587H200.101V340.633H193.351ZM187.693 335.59V336.513H191.844V335.59H187.693ZM187.77 331.485V332.408H191.783V331.485H187.77ZM187.693 337.651V338.573H191.844V337.651H187.693ZM187.032 333.5V334.453H192.29V333.5H187.032ZM188.231 339.726V340.679H190.876V343.247H188.231V344.2H191.844V339.726H188.231ZM187.663 339.726V344.923H188.646V339.726H187.663Z" fill="#F0EBF5"/>
<line x1="172.782" y1="148.622" x2="172.782" y2="186.205" stroke="#F0EBF5" stroke-width="3.41659"/>
<line x1="281.258" y1="591.071" x2="281.258" y2="624.383" stroke="#F0EBF5" stroke-width="3.41659" stroke-dasharray="5.12 5.12"/>
<line x1="203.758" y1="356.212" x2="256.716" y2="452.731" stroke="#F0EBF5" stroke-width="3.41659"/>
<line y1="-1.7083" x2="110.092" y2="-1.7083" transform="matrix(0.481025 -0.876707 -0.876707 -0.481025 86.9502 451.844)" stroke="#F0EBF5" stroke-width="3.41659"/>
<circle cx="282.112" cy="497.437" r="51.676" stroke="#F0EBF5" stroke-width="2.56244"/>
<g clip-path="url(#clip1_4459_25514)">
<path d="M277.763 513.66C278.507 512.916 278.915 511.929 278.915 510.878C278.915 510.159 278.708 509.492 278.369 508.914H281.287C282.337 508.914 283.324 508.505 284.066 507.763C284.809 507.02 285.218 506.034 285.216 504.984C285.216 503.933 284.807 502.946 284.066 502.204C283.322 501.461 282.337 501.052 281.285 501.052H278.777C279.122 500.46 279.321 499.791 279.321 499.088C279.321 498.037 278.913 497.05 278.17 496.306C277.428 495.564 276.441 495.154 275.391 495.156H271.9C272.245 494.564 272.444 493.895 272.444 493.189C272.444 492.139 272.036 491.152 271.294 490.41C270.551 489.666 269.566 489.258 268.515 489.26H258.66L253.894 484.489C253.511 484.105 252.888 484.105 252.505 484.489C252.122 484.872 252.122 485.495 252.505 485.878L256.202 489.576C254.803 490.191 253.776 491.614 253.776 493.186C253.778 494.913 254.902 496.366 256.451 496.893C256.006 497.527 255.74 498.286 255.74 499.086C255.74 500.799 256.849 502.245 258.38 502.781C257.944 503.426 257.704 504.187 257.704 504.982C257.704 506.696 258.814 508.141 260.347 508.678C259.908 509.324 259.67 510.083 259.67 510.878C259.67 511.929 260.078 512.916 260.82 513.658C261.563 514.402 262.548 514.81 263.6 514.81H274.983C276.035 514.812 277.022 514.402 277.763 513.66ZM255.74 493.187C255.74 492.662 255.945 492.17 256.317 491.798C256.688 491.426 257.181 491.221 257.706 491.221H258.252H268.515C269.041 491.221 269.533 491.426 269.905 491.796C270.277 492.166 270.48 492.66 270.48 493.186C270.48 494.236 269.564 495.15 268.515 495.15H257.706C256.623 495.152 255.742 494.271 255.74 493.187ZM257.706 499.086C257.706 498.56 257.911 498.066 258.283 497.694C258.654 497.322 259.147 497.119 259.672 497.119H275.393C275.918 497.119 276.41 497.324 276.782 497.694C277.154 498.066 277.359 498.559 277.359 499.086C277.359 500.136 276.443 501.051 275.395 501.051H269.278H261.636C261.634 501.051 261.634 501.051 261.634 501.051H259.672C258.587 501.051 257.706 500.169 257.706 499.086ZM259.67 504.982C259.67 504.457 259.875 503.964 260.247 503.592C260.617 503.222 261.109 503.017 261.632 503.015H269.278H281.287C281.812 503.015 282.305 503.218 282.677 503.59C283.048 503.962 283.251 504.455 283.251 504.98C283.251 506.031 282.336 506.945 281.287 506.945H274.989C274.989 506.945 274.987 506.945 274.985 506.945H269.293H261.636C260.553 506.947 259.672 506.065 259.67 504.982ZM262.211 512.27C261.839 511.898 261.636 511.405 261.636 510.88C261.636 510.355 261.841 509.862 262.213 509.49C262.585 509.119 263.077 508.914 263.602 508.914H264.403H274.991C276.071 508.915 276.951 509.795 276.951 510.878C276.951 511.929 276.035 512.845 274.985 512.845H263.602C263.077 512.845 262.583 512.64 262.211 512.27Z" fill="#F0EBF5"/>
<path d="M290.004 481.73C290.387 482.114 291.01 482.116 291.394 481.73C291.777 481.347 291.777 480.724 291.394 480.34C286.371 475.316 281.316 474.454 278.294 473.938C277.413 473.787 276.316 473.599 276.108 473.392L270.549 467.829C270.165 467.446 269.543 467.446 269.159 467.829C268.774 468.214 268.776 468.835 269.159 469.219L274.718 474.78C275.368 475.429 276.458 475.617 277.964 475.874C280.935 476.382 285.422 477.149 290.004 481.73Z" fill="#7568F6"/>
<path d="M291.412 523.41C291.029 523.793 291.029 524.416 291.412 524.8L292.802 526.19C293.185 526.573 293.808 526.573 294.191 526.19C294.574 525.806 294.574 525.183 294.191 524.8L292.802 523.41C292.418 523.025 291.796 523.025 291.412 523.41Z" fill="#F0EBF5"/>
<path d="M289.115 484.241C286.392 484.785 278.282 486.942 277.88 487.051C277.184 487.283 276.701 487.831 276.521 488.594C276.132 490.239 277.232 492.585 278.19 493.544C279.526 494.88 281.273 494.753 283.124 494.621C283.766 494.575 284.429 494.527 285.138 494.527H292.087C292.547 494.527 292.982 494.527 293.077 494.563C293.129 494.59 293.279 494.736 293.424 494.882C293.7 495.485 293.884 498.236 293.884 500.448L293.189 515.086C293.185 515.486 293.053 516.209 292.782 516.479L286.53 522.734C285.763 523.501 284.518 523.501 283.751 522.734C282.985 521.967 282.985 520.721 283.751 519.954L288.615 515.089C289.569 514.135 289.596 512.494 289.598 512.31V502.58C289.598 502.037 289.157 501.598 288.615 501.596C288.07 501.596 287.631 502.035 287.631 502.58V512.306C287.628 512.707 287.495 513.429 287.225 513.7L282.362 518.565L280.277 520.65C279.51 521.417 278.265 521.417 277.498 520.65C276.732 519.883 276.732 518.638 277.498 517.871L283.057 512.31C283.441 511.927 283.441 511.304 283.057 510.92C282.674 510.537 282.051 510.537 281.668 510.92L276.109 516.481L274.024 518.567C273.258 519.333 272.012 519.333 271.246 518.567C270.903 518.223 270.699 517.769 270.673 517.286C270.642 516.744 270.18 516.328 269.638 516.358C269.096 516.389 268.682 516.853 268.71 517.393C268.764 518.361 269.17 519.27 269.856 519.956C271.29 521.39 273.551 521.465 275.093 520.219C275.26 520.886 275.59 521.52 276.109 522.04C277.542 523.474 279.804 523.549 281.346 522.303C281.513 522.97 281.842 523.604 282.362 524.124C283.895 525.657 286.388 525.657 287.921 524.124L294.174 517.869C295.128 516.914 295.155 515.273 295.155 515.135L295.85 500.494C295.85 494.527 295.111 493.787 294.867 493.544C293.946 492.622 293.658 492.56 292.089 492.56H285.138C284.359 492.56 283.628 492.614 282.983 492.658C281.206 492.785 280.248 492.821 279.579 492.152C278.702 491.274 278.169 489.244 278.441 488.932C278.524 488.909 286.834 486.699 289.498 486.166C292.493 485.566 296.44 485.389 300.422 489.373C303.404 492.355 305.102 498.746 306.227 502.973C307.03 505.994 307.444 507.474 308.086 508.118L309.475 509.507C309.858 509.891 310.481 509.891 310.864 509.507C311.247 509.124 311.247 508.501 310.864 508.118L309.482 506.736C309.159 506.354 308.609 504.29 308.126 502.469C306.876 497.772 305.169 491.339 301.812 487.983C297.123 483.29 292.319 483.601 289.115 484.241Z" fill="#F0EBF5"/>
</g>
<path d="M248.942 569.792C247.159 570.346 243.853 570.73 241.132 570.899C241.255 571.161 241.409 571.576 241.455 571.837C244.222 571.684 247.605 571.33 249.742 570.7L248.942 569.792ZM241.347 572.698C241.87 573.621 242.316 574.835 242.454 575.619L243.453 575.297C243.3 574.528 242.808 573.329 242.285 572.437L241.347 572.698ZM244.468 572.237C244.852 573.16 245.145 574.374 245.191 575.112L246.236 574.881C246.175 574.128 245.852 572.96 245.452 572.037L244.468 572.237ZM249.127 571.837C248.665 573.006 247.82 574.666 247.159 575.666L248.05 576.05C248.727 575.081 249.573 573.544 250.203 572.252L249.127 571.837ZM241.193 577.157V578.187H250.172V577.157H241.193ZM245.114 575.45V583.63H246.221V575.45H245.114ZM244.637 577.726C243.761 579.432 242.024 581.077 240.302 581.877C240.563 582.077 240.917 582.477 241.086 582.769C242.854 581.831 244.606 580.017 245.56 578.049L244.637 577.726ZM246.697 577.772L245.79 578.095C246.682 579.924 248.327 581.769 249.865 582.723C250.049 582.461 250.387 582.061 250.649 581.862C249.127 581.047 247.528 579.386 246.697 577.772ZM236.027 577.541L236.335 578.664C237.642 578.249 239.333 577.695 240.932 577.142L240.778 576.081C239.025 576.65 237.227 577.203 236.027 577.541ZM236.243 572.668V573.744H240.917V572.668H236.243ZM238.18 569.577V582.369C238.18 582.6 238.088 582.646 237.903 582.646C237.719 582.661 237.134 582.661 236.458 582.646C236.612 582.969 236.75 583.445 236.796 583.722C237.765 583.722 238.364 583.691 238.718 583.507C239.102 583.322 239.256 583.015 239.256 582.369V569.577H238.18ZM258.843 571.684V572.806H264.517V571.684H258.843ZM251.71 570.53V571.607H259.228V570.53H251.71ZM253.508 573.652V574.712H257.506V573.652H253.508ZM253.508 576.849V577.895H257.506V576.849H253.508ZM264.178 571.684V571.96C263.517 577.357 261.227 580.97 258.182 582.553C258.444 582.769 258.767 583.199 258.951 583.491C262.241 581.585 264.594 577.972 265.332 571.853L264.594 571.653L264.378 571.684H264.178ZM260.243 572.867L259.136 573.083C260.089 577.91 261.857 581.662 265.193 583.553C265.378 583.245 265.747 582.815 266.008 582.584C262.841 580.954 261.057 577.311 260.243 572.867ZM252.909 570.946V580.924H254.016V570.946H252.909ZM257.029 570.946V583.676H258.136V570.946H257.029ZM251.402 580.585L251.617 581.739C253.216 581.493 255.43 581.139 257.537 580.801L257.475 579.74C255.23 580.078 252.909 580.401 251.402 580.585ZM270.128 575.635H267.069V576.711H269.021V581.077H270.128V575.635ZM270.128 580.616H269.129C268.406 581.277 267.576 581.969 266.9 582.461L267.499 583.584C268.268 582.907 268.975 582.246 269.652 581.585C270.605 582.799 272.004 583.338 274.034 583.414C275.756 583.491 279.046 583.461 280.783 583.384C280.829 583.045 281.014 582.507 281.152 582.246C279.292 582.369 275.74 582.415 274.034 582.338C272.204 582.277 270.851 581.754 270.128 580.616ZM267.207 570.592C268.145 571.345 269.206 572.422 269.636 573.19L270.59 572.468C270.113 571.714 269.037 570.653 268.084 569.962L267.207 570.592ZM271.005 570.869V571.807H280.906V570.869H271.005ZM273.157 575.358V576.127H278.661V575.358H273.157ZM275.294 569.562V571.438H276.401V569.562H275.294ZM275.448 574.22V577.48H276.34V574.22H275.448ZM271.558 573.375V581.431H272.619V574.297H279.707V573.375H271.558ZM273.849 577.234V580.632H274.71V577.234H273.849ZM274.31 577.234V577.972H277.139V579.309H274.31V580.032H278V577.234H274.31ZM279.292 573.375V580.186C279.292 580.37 279.23 580.416 279.046 580.432C278.846 580.447 278.246 580.447 277.554 580.416C277.693 580.708 277.847 581.124 277.908 581.416C278.815 581.416 279.445 581.4 279.861 581.231C280.26 581.047 280.353 580.77 280.353 580.201V573.375H279.292ZM277.831 571.607C277.662 572.099 277.308 572.852 277.047 573.344L277.97 573.605C278.262 573.16 278.585 572.529 278.923 571.899L277.831 571.607ZM272.927 571.93C273.234 572.452 273.526 573.129 273.618 573.59L274.618 573.313C274.526 572.852 274.218 572.176 273.895 571.684L272.927 571.93ZM288.87 578.648V582.861H289.993V578.648H288.87ZM286.549 574.928H292.36V576.388H286.549V574.928ZM285.472 574.051V577.28H293.513V574.051H285.472ZM284.058 578.172V583.753H285.165V579.063H293.882V583.707H295.035V578.172H284.058ZM284.704 580.293V581.139H294.297V580.293H284.704ZM284.704 582.415V583.307H294.297V582.415H284.704ZM288.793 569.562V572.452H289.962V569.562H288.793ZM282.997 571.93V575.112H284.104V572.944H294.836V575.112H295.989V571.93H282.997ZM284.273 570.177C284.765 570.776 285.319 571.622 285.565 572.16L286.641 571.668C286.364 571.13 285.811 570.346 285.288 569.762L284.273 570.177ZM293.498 569.7C293.19 570.315 292.591 571.192 292.13 571.76L293.083 572.114C293.559 571.607 294.159 570.838 294.682 570.1L293.498 569.7ZM303.799 570.5V571.607H311.348V570.5H303.799ZM308.288 575.081V582.215C308.288 582.477 308.196 582.538 307.889 582.553C307.612 582.569 306.582 582.569 305.49 582.538C305.659 582.876 305.813 583.353 305.859 583.676C307.366 583.676 308.242 583.66 308.765 583.491C309.288 583.307 309.457 582.953 309.457 582.231V575.081H308.288ZM303.122 574.743V575.835H311.794V574.743H303.122ZM300.048 575.927V583.753H301.201V574.989L301.062 574.928L300.048 575.927ZM301.831 572.852C300.77 574.62 299.079 576.404 297.48 577.541C297.726 577.757 298.126 578.264 298.295 578.495C299.909 577.203 301.723 575.22 302.923 573.267L301.831 572.852ZM301.201 569.562C300.417 570.669 298.925 572.053 297.649 572.914C297.849 573.144 298.156 573.59 298.326 573.836C299.694 572.852 301.278 571.361 302.308 570.008L301.201 569.562ZM313.547 579.617V580.493H320.557V579.617H313.547ZM313.131 572.206V573.098H320.803V572.206H313.131ZM316.468 570.807V582.123H317.529V570.807H316.468ZM313.116 582.154L313.285 583.153C315.238 582.953 318.021 582.63 320.634 582.323L320.619 581.416C317.867 581.708 314.992 581.985 313.116 582.154ZM314.546 576.742H319.527V577.88H314.546V576.742ZM314.546 574.866H319.527V575.973H314.546V574.866ZM313.577 574.067V578.679H320.511V574.067H313.577ZM319.958 569.716C318.374 570.085 315.576 570.361 313.285 570.484C313.408 570.715 313.516 571.099 313.562 571.345C315.868 571.268 318.728 571.007 320.542 570.607L319.958 569.716ZM320.696 573.16V574.236H326.246V573.16H320.696ZM325.8 573.16V573.436C325.631 579.663 325.462 581.877 325.078 582.354C324.939 582.553 324.785 582.6 324.539 582.6C324.232 582.6 323.555 582.584 322.802 582.523C322.987 582.83 323.11 583.307 323.14 583.63C323.848 583.676 324.586 583.676 325.016 583.63C325.477 583.584 325.785 583.445 326.061 583.045C326.569 582.384 326.723 580.232 326.892 573.744C326.892 573.59 326.907 573.16 326.907 573.16H325.8ZM322.556 569.762C322.541 575.573 322.618 580.447 319.097 582.969C319.374 583.153 319.773 583.522 319.958 583.799C323.632 581.047 323.648 575.881 323.663 569.762H322.556Z" fill="#F0EBF5"/>
<circle cx="60.8879" cy="497.759" r="51.676" stroke="#F0EBF5" stroke-width="2.56244"/>
<g clip-path="url(#clip2_4459_25514)">
<path d="M75.5309 484.338H69.576C69.1215 482.113 67.152 480.434 64.7933 480.434H56.9837C54.6267 480.434 52.6555 482.113 52.201 484.338H46.2446C45.7055 484.338 45.2686 484.775 45.2686 485.314V523.384H47.2221V486.29H74.5549V523.384H76.5069V485.314C76.5069 484.775 76.0699 484.338 75.5309 484.338ZM56.9837 482.386H64.7933C66.0643 482.386 67.1376 483.206 67.5427 484.338H54.2359C54.6378 483.204 55.7127 482.386 56.9837 482.386Z" fill="#F0EBF5"/>
<path d="M60.8874 478.48C63.5794 478.48 65.769 476.291 65.769 473.599C65.769 470.907 63.5794 468.719 60.8874 468.719C58.1955 468.719 56.0059 470.908 56.0059 473.6C56.0059 476.292 58.1971 478.48 60.8874 478.48ZM60.8874 470.671C62.5014 470.671 63.8154 471.985 63.8154 473.599C63.8154 475.213 62.5014 476.527 60.8874 476.527C59.2735 476.527 57.9595 475.213 57.9595 473.599C57.9595 471.985 59.2735 470.671 60.8874 470.671Z" fill="#F0EBF5"/>
<path d="M78.458 492.148C78.458 494.84 80.6476 497.029 83.3396 497.029C86.0316 497.029 88.2212 494.84 88.2212 492.148C88.2212 489.456 86.0316 487.266 83.3396 487.266C80.6476 487.266 78.458 489.456 78.458 492.148ZM86.2676 492.148C86.2676 493.762 84.9535 495.076 83.3396 495.076C81.7257 495.076 80.4116 493.762 80.4116 492.148C80.4116 490.534 81.7257 489.22 83.3396 489.22C84.9535 489.218 86.2676 490.532 86.2676 492.148Z" fill="#F0EBF5"/>
<path d="M38.4363 487.266C35.7443 487.266 33.5547 489.456 33.5547 492.148C33.5547 494.84 35.7443 497.029 38.4363 497.029C41.1282 497.029 43.3179 494.84 43.3179 492.148C43.3179 489.456 41.1267 487.266 38.4363 487.266ZM38.4363 495.076C36.8224 495.076 35.5083 493.762 35.5083 492.148C35.5083 490.534 36.8224 489.22 38.4363 489.22C40.0502 489.22 41.3643 490.534 41.3643 492.148C41.3643 493.762 40.0502 495.076 38.4363 495.076Z" fill="#F0EBF5"/>
<path d="M83.3396 499.957C80.6476 499.957 78.458 502.147 78.458 504.839C78.458 507.531 80.6476 509.72 83.3396 509.72C86.0316 509.72 88.2212 507.531 88.2212 504.839C88.2212 502.147 86.03 499.957 83.3396 499.957ZM83.3396 507.765C81.7257 507.765 80.4116 506.451 80.4116 504.837C80.4116 503.223 81.7257 501.909 83.3396 501.909C84.9535 501.909 86.2676 503.223 86.2676 504.837C86.2676 506.451 84.9535 507.765 83.3396 507.765Z" fill="#F0EBF5"/>
<path d="M38.4363 499.957C35.7443 499.957 33.5547 502.147 33.5547 504.837C33.5547 507.527 35.7443 509.719 38.4363 509.719C41.1282 509.719 43.3179 507.529 43.3179 504.837C43.3179 502.145 41.1267 499.957 38.4363 499.957ZM38.4363 507.765C36.8224 507.765 35.5083 506.451 35.5083 504.837C35.5083 503.223 36.8224 501.909 38.4363 501.909C40.0502 501.909 41.3643 503.223 41.3643 504.837C41.3643 506.451 40.0502 507.765 38.4363 507.765Z" fill="#F0EBF5"/>
<path d="M83.3396 512.646C80.6476 512.646 78.458 514.836 78.458 517.528C78.458 520.22 80.6476 522.409 83.3396 522.409C86.0316 522.409 88.2212 520.22 88.2212 517.528C88.2212 514.836 86.03 512.646 83.3396 512.646ZM83.3396 520.456C81.7257 520.456 80.4116 519.141 80.4116 517.528C80.4116 515.914 81.7257 514.6 83.3396 514.6C84.9535 514.6 86.2676 515.914 86.2676 517.528C86.2676 519.141 84.9535 520.456 83.3396 520.456Z" fill="#F0EBF5"/>
<path d="M38.4363 512.646C35.7443 512.646 33.5547 514.836 33.5547 517.528C33.5547 520.22 35.7443 522.409 38.4363 522.409C41.1282 522.409 43.3179 520.22 43.3179 517.528C43.3179 514.836 41.1267 512.646 38.4363 512.646ZM38.4363 520.456C36.8224 520.456 35.5083 519.141 35.5083 517.528C35.5083 515.914 36.8224 514.6 38.4363 514.6C40.0502 514.6 41.3643 515.914 41.3643 517.528C41.3643 519.141 40.0502 520.456 38.4363 520.456Z" fill="#F0EBF5"/>
<path d="M38.436 475.552H44.2936C44.8326 475.552 45.2696 475.989 45.2696 476.528C45.2696 477.067 44.8326 477.504 44.2936 477.504H38.436C37.8969 477.504 37.46 477.067 37.46 476.528C37.4584 475.989 37.8953 475.552 38.436 475.552Z" fill="#7568F6"/>
<path d="M75.5307 472.623H81.3883C81.9273 472.623 82.3643 473.06 82.3643 473.599C82.3643 474.138 81.9273 474.575 81.3883 474.575H75.5307C74.9917 474.575 74.5547 474.138 74.5547 473.599C74.5547 473.06 74.9917 472.623 75.5307 472.623Z" fill="#7568F6"/>
<path d="M36.6788 484.923C36.867 485.173 37.1589 485.314 37.4603 485.314C37.5623 485.314 37.6676 485.298 37.7681 485.264C38.1668 485.13 38.4363 484.759 38.4363 484.338V481.408H48.1979C48.7369 481.408 49.1739 480.971 49.1739 480.432V472.622C49.1739 472.083 48.7369 471.646 48.1979 471.646H34.5307C33.9917 471.646 33.5547 472.085 33.5547 472.622V480.432C33.5547 480.643 33.6233 480.848 33.7492 481.017L36.6788 484.923ZM35.5067 473.6H47.2219V479.458H37.4587C36.9197 479.458 36.4827 479.895 36.4827 480.434V481.41L35.5067 480.108V473.6Z" fill="#F0EBF5"/>
<path d="M67.7212 478.48H85.2923C85.8314 478.48 86.2683 478.043 86.2683 477.504V469.695C86.2683 469.156 85.8314 468.719 85.2923 468.719H71.6252C71.0861 468.719 70.6492 469.156 70.6492 469.695V474.088L67.1343 476.724C66.7978 476.976 66.6606 477.415 66.793 477.814C66.9286 478.212 67.3002 478.48 67.7212 478.48ZM72.212 475.356C72.4576 475.173 72.6028 474.883 72.6028 474.575V470.671H84.3163V476.528H70.6492L72.212 475.356Z" fill="#F0EBF5"/>
<path d="M55.0205 492.009C54.9647 491.617 54.676 491.296 54.2917 491.201L50.7593 490.317C50.5536 490.266 50.3446 490.39 50.2936 490.596L50.0066 491.744C49.9555 491.95 50.0799 492.159 50.2856 492.21L52.9314 492.872C53.0829 492.91 53.1961 493.036 53.2184 493.191L53.842 497.567C53.8755 497.798 53.6953 498.005 53.4624 498.005C53.2503 498.005 53.0781 498.178 53.0781 498.39V499.575C53.0781 499.787 53.2503 499.959 53.4624 499.959H56.5993C56.8114 499.959 56.9837 499.787 56.9837 499.575V498.39C56.9837 498.178 56.8114 498.005 56.5993 498.005H56.2102C56.0188 498.005 55.8578 497.865 55.8307 497.675L55.0205 492.009Z" fill="#F0EBF5"/>
<path d="M55.0205 503.722C54.9647 503.33 54.676 503.009 54.2917 502.913L50.7593 502.03C50.5536 501.979 50.3446 502.103 50.2936 502.309L50.0066 503.457C49.9555 503.663 50.0799 503.872 50.2856 503.923L52.9314 504.585C53.0829 504.623 53.1961 504.749 53.2184 504.904L53.842 509.28C53.8755 509.511 53.6953 509.718 53.4624 509.718C53.2503 509.718 53.0781 509.891 53.0781 510.103V511.288C53.0781 511.5 53.2503 511.672 53.4624 511.672H56.5993C56.8114 511.672 56.9837 511.5 56.9837 511.288V510.103C56.9837 509.891 56.8114 509.718 56.5993 509.718H56.2102C56.0188 509.718 55.8578 509.578 55.8307 509.388L55.0205 503.722Z" fill="#F0EBF5"/>
<path d="M55.0205 515.436C54.9647 515.044 54.676 514.723 54.2917 514.627L50.7593 513.744C50.5536 513.693 50.3446 513.817 50.2936 514.023L50.0066 515.171C49.9555 515.377 50.0799 515.586 50.2856 515.637L52.9314 516.299C53.0829 516.337 53.1961 516.463 53.2184 516.618L53.842 520.994C53.8755 521.225 53.6953 521.432 53.4624 521.432C53.2503 521.432 53.0781 521.604 53.0781 521.817V523.002C53.0781 523.214 53.2503 523.386 53.4624 523.386H56.5993C56.8114 523.386 56.9837 523.214 56.9837 523.002V521.817C56.9837 521.604 56.8114 521.432 56.5993 521.432H56.2102C56.0188 521.432 55.8578 521.292 55.8307 521.102L55.0205 515.436Z" fill="#F0EBF5"/>
<path d="M67.4833 491.2C67.0974 491.298 66.8103 491.616 66.7545 492.009L65.946 497.673C65.9189 497.863 65.7562 498.004 65.5664 498.004H65.1773C64.9652 498.004 64.793 498.176 64.793 498.388V499.573C64.793 499.785 64.9652 499.957 65.1773 499.957H68.3142C68.5263 499.957 68.6986 499.785 68.6986 499.573V498.388C68.6986 498.176 68.5263 498.004 68.3142 498.004C68.0798 498.004 67.9012 497.796 67.9347 497.565L68.5598 493.189C68.5821 493.034 68.6954 492.908 68.8469 492.87L71.4926 492.208C71.6983 492.157 71.8227 491.948 71.7717 491.742L71.4846 490.594C71.4336 490.389 71.2247 490.264 71.0189 490.315L67.4833 491.2Z" fill="#F0EBF5"/>
<path d="M67.4833 502.914C67.0974 503.011 66.8103 503.33 66.7545 503.722L65.946 509.387C65.9189 509.577 65.7562 509.717 65.5664 509.717H65.1773C64.9652 509.717 64.793 509.889 64.793 510.101V511.286C64.793 511.498 64.9652 511.671 65.1773 511.671H68.3142C68.5263 511.671 68.6986 511.498 68.6986 511.286V510.101C68.6986 509.889 68.5263 509.717 68.3142 509.717C68.0798 509.717 67.9012 509.51 67.9347 509.278L68.5598 504.902C68.5821 504.748 68.6954 504.622 68.8469 504.583L71.4926 503.922C71.6983 503.87 71.8227 503.662 71.7717 503.456L71.4846 502.308C71.4336 502.102 71.2247 501.977 71.0189 502.029L67.4833 502.914Z" fill="#F0EBF5"/>
<path d="M71.7701 515.173L71.483 514.024C71.432 513.819 71.2231 513.694 71.0174 513.745L67.4849 514.629C67.099 514.726 66.8119 515.045 66.7561 515.437L65.946 521.102C65.9189 521.292 65.7562 521.432 65.5664 521.432H65.1773C64.9652 521.432 64.793 521.604 64.793 521.816V523.001C64.793 523.213 64.9652 523.386 65.1773 523.386H68.3142C68.5263 523.386 68.6986 523.213 68.6986 523.001V521.816C68.6986 521.604 68.5263 521.432 68.3142 521.432C68.0798 521.432 67.9012 521.225 67.9347 520.994L68.5598 516.618C68.5821 516.463 68.6954 516.337 68.8469 516.299L71.4926 515.637C71.6967 515.587 71.8211 515.378 71.7701 515.173Z" fill="#F0EBF5"/>
<path d="M61.4795 488.242H60.2945C60.0824 488.242 59.9102 488.414 59.9102 488.626V493.715C59.9102 493.927 59.738 494.099 59.5259 494.099H59.317C59.1049 494.099 58.9326 494.272 58.9326 494.484V495.669C58.9326 495.881 59.1049 496.053 59.317 496.053H62.4539C62.666 496.053 62.8382 495.881 62.8382 495.669V494.484C62.8382 494.272 62.666 494.099 62.4539 494.099H62.245C62.0328 494.099 61.8606 493.927 61.8606 493.715V488.626C61.8638 488.414 61.6916 488.242 61.4795 488.242Z" fill="#F0EBF5"/>
<path d="M60.8875 498.003C61.4268 498.003 61.8639 498.441 61.8639 498.98C61.8639 499.519 61.4268 499.956 60.8875 499.956C60.3483 499.956 59.9111 499.519 59.9111 498.98C59.9111 498.441 60.3483 498.003 60.8875 498.003Z" fill="#F0EBF5"/>
<path d="M60.8875 501.909C61.4268 501.909 61.8639 502.346 61.8639 502.886C61.8639 503.425 61.4268 503.862 60.8875 503.862C60.3483 503.862 59.9111 503.425 59.9111 502.886C59.9111 502.346 60.3483 501.909 60.8875 501.909Z" fill="#F0EBF5"/>
<path d="M60.8875 505.812C61.4268 505.812 61.8639 506.25 61.8639 506.789C61.8639 507.328 61.4268 507.765 60.8875 507.765C60.3483 507.765 59.9111 507.328 59.9111 506.789C59.9111 506.25 60.3483 505.812 60.8875 505.812Z" fill="#F0EBF5"/>
</g>
<path d="M33.7467 576.696V577.649H41.3726V576.696H33.7467ZM33.4546 579.325V580.309H41.6954V579.325H33.4546ZM38.5744 577.003V583.753H39.6199V577.003H38.5744ZM35.4226 577.049V579.847C35.4226 580.693 35.0997 582.323 33.5469 583.276C33.8082 583.43 34.1619 583.753 34.3156 583.968C36.0529 582.799 36.4219 580.785 36.4219 579.847V577.049H35.4226ZM31.8403 572.683V573.513H36.1606V572.683H31.8403ZM38.928 572.683V573.513H43.279V572.683H38.928ZM42.8332 570.546V582.538C42.8332 582.769 42.7563 582.861 42.5103 582.861C42.2643 582.876 41.4341 582.876 40.5885 582.845C40.7576 583.168 40.9113 583.706 40.9575 584.014C42.1259 584.014 42.8947 583.999 43.3559 583.799C43.8171 583.599 43.9709 583.23 43.9709 582.538V570.546H42.8332ZM31.9325 570.546V571.437H35.7762V574.851H31.9325V575.727H36.8678V570.546H31.9325ZM43.3867 570.546H38.2208V575.742H43.3867V574.866H39.3277V571.437H43.3867V570.546ZM31.2407 570.546V584.045H32.3784V570.546H31.2407ZM48.7524 575.143H57.1931V577.464H48.7524V575.143ZM47.7684 574.359V578.248H58.2386V574.359H47.7684ZM50.2899 572.698V573.513H55.6556V572.698H50.2899ZM52.3962 574.605V577.818H53.3802V574.605H52.3962ZM52.8728 570.822C54.441 572.329 57.2085 573.851 59.4686 574.635C59.6377 574.343 59.8991 573.928 60.145 573.682C57.762 572.975 55.0868 571.56 53.3494 569.885H52.2578C50.9817 571.376 48.3834 572.944 45.7697 573.836C45.985 574.082 46.2463 574.482 46.3847 574.743C48.9369 573.79 51.5045 572.222 52.8728 570.822ZM49.6903 575.604C50.0746 576.157 50.4283 576.911 50.5513 577.403L51.443 577.08C51.2892 576.588 50.9202 575.865 50.5205 575.327L49.6903 575.604ZM55.2252 575.266C55.0407 575.788 54.6409 576.603 54.3488 577.126L55.1637 577.403C55.4711 576.942 55.8555 576.234 56.2091 575.573L55.2252 575.266ZM48.6755 578.986V584.029H49.8133V579.801H56.1938V584.014H57.3622V578.986H48.6755ZM49.352 580.831V581.677H56.7011V580.831H49.352ZM49.352 582.722V583.553H56.7011V582.722H49.352ZM72.414 569.9V582.446C72.414 582.738 72.3064 582.815 72.0143 582.83C71.7068 582.83 70.7228 582.845 69.6773 582.815C69.8465 583.153 70.031 583.706 70.0925 584.029C71.4301 584.029 72.3372 583.999 72.8445 583.799C73.3519 583.599 73.5364 583.261 73.5364 582.446V569.9H72.414ZM68.2629 576.573C69.0162 577.695 69.8465 579.217 70.1847 580.201L71.1994 579.663C70.8458 578.679 70.0156 577.203 69.2161 576.111L68.2629 576.573ZM67.5249 573.436V574.528H75.4275V573.436H67.5249ZM61.9439 574.543V575.466H66.7408V574.543H61.9439ZM62.0361 570.438V571.361H66.7562V570.438H62.0361ZM61.9439 576.603V577.526H66.7408V576.603H61.9439ZM61.2213 572.452V573.405H67.3096V572.452H61.2213ZM62.482 578.679V579.632H65.6646V582.2H62.482V583.168H66.6947V578.679H62.482ZM61.9285 578.679V583.876H62.9586V578.679H61.9285ZM86.159 570.992C87.0968 572.406 88.7881 574.067 90.3101 575.066C90.4793 574.758 90.7406 574.343 90.9559 574.067C89.403 573.175 87.7118 571.545 86.651 569.931H85.5747C84.7906 571.437 83.1456 573.236 81.4543 574.266C81.6696 574.512 81.931 574.927 82.0539 575.204C83.7452 574.113 85.3134 572.406 86.159 570.992ZM82.4537 576.434V583.999H83.4377V577.403H89.7567V576.434H82.4537ZM89.0648 576.434V582.907C89.0648 583.045 89.034 583.091 88.8957 583.091C88.7573 583.107 88.3883 583.107 87.9424 583.091C88.0808 583.353 88.2192 583.753 88.2499 584.014C88.9111 584.014 89.3723 583.999 89.6798 583.829C90.0027 583.676 90.0795 583.399 90.0795 582.922V576.434H89.0648ZM84.7291 576.711V583.814H85.544V576.711H84.7291ZM86.8662 576.711V583.814H87.6965V576.711H86.8662ZM83.5914 574.128V575.097H88.8803V574.128H83.5914ZM82.9149 579.586V580.539H89.6644V579.586H82.9149ZM77.2571 574.543V575.466H81.4082V574.543H77.2571ZM77.3339 570.438V571.361H81.3467V570.438H77.3339ZM77.2571 576.603V577.526H81.4082V576.603H77.2571ZM76.5959 572.452V573.405H81.8541V572.452H76.5959ZM77.7952 578.679V579.632H80.4396V582.2H77.7952V583.153H81.4082V578.679H77.7952ZM77.2263 578.679V583.876H78.2103V578.679H77.2263ZM37.698 594.158V594.835H43.6173V594.158H37.698ZM37.698 595.696V596.372H43.6173V595.696H37.698ZM37.2522 597.264V598.048H44.263V597.264H37.2522ZM40.8345 591.252C40.6807 591.667 40.3578 592.313 40.1119 592.759L40.9421 593.02C41.2188 592.636 41.5571 592.098 41.8799 591.544L40.8345 591.252ZM35.3611 591.175C34.6846 592.605 33.5622 594.02 32.4245 594.942C32.6551 595.111 33.0395 595.511 33.1932 595.68C34.3463 594.65 35.5302 593.067 36.3297 591.468L35.3611 591.175ZM38.067 591.145C37.5135 592.482 36.5911 593.82 35.6071 594.727C35.8377 594.881 36.2374 595.204 36.4066 595.373C37.3905 594.404 38.4053 592.897 39.051 591.421L38.067 591.145ZM40.1426 592.913V597.571H41.1266V592.913H40.1426ZM36.1913 599.416V601.569C36.1913 602.645 36.5296 602.922 37.9133 602.922C38.2054 602.922 40.1119 602.922 40.404 602.922C41.4802 602.922 41.8031 602.553 41.9107 601.031C41.6339 600.954 41.1881 600.8 40.9575 600.631C40.9113 601.815 40.8191 601.968 40.2963 601.968C39.8966 601.968 38.3284 601.968 38.0209 601.968C37.3752 601.968 37.2522 601.907 37.2522 601.569V599.416H36.1913ZM37.0215 598.771C37.9594 599.216 39.0817 599.908 39.6199 600.416L40.3425 599.693C39.7736 599.186 38.6205 598.54 37.698 598.125L37.0215 598.771ZM41.4341 599.647C42.3258 600.569 43.279 601.861 43.648 602.706L44.632 602.199C44.2169 601.338 43.2483 600.093 42.3412 599.201L41.4341 599.647ZM34.3463 599.37C34.0389 600.385 33.4392 601.476 32.5629 602.107L33.4392 602.676C34.3925 601.984 34.9306 600.785 35.2842 599.693L34.3463 599.37ZM37.8825 592.575L37.329 593.328H44.017V592.575H37.8825ZM37.2522 593.435V597.725H38.2361V592.59L37.2522 593.435ZM37.4213 588.9V590.668H38.6051V588.9H37.4213ZM32.1785 590.084V591.068H44.5244V590.084H32.1785ZM31.5482 590.084V594.727C31.5482 596.987 31.4559 600.139 30.3336 602.384C30.5796 602.491 31.0408 602.845 31.2253 603.045C32.4399 600.662 32.6244 597.125 32.6244 594.727V590.084H31.5482ZM34.3463 593.543V598.371H35.3457V592.59L35.3303 592.559L34.3463 593.543ZM46.0003 593.236L46.0926 594.112C47.2764 594.066 48.7832 594.004 50.3206 593.927L50.3514 593.159C48.6909 593.205 47.1227 593.22 46.0003 593.236ZM46.2002 590.868C46.8306 591.391 47.5993 592.144 47.9376 592.636L48.491 591.944C48.1374 591.468 47.3687 590.76 46.723 590.268L46.2002 590.868ZM49.0599 592.467C49.5519 593.051 50.1208 593.866 50.3514 594.404L51.0432 593.989C50.7819 593.482 50.213 592.682 49.7056 592.098L49.0599 592.467ZM49.2598 594.911C49.5673 595.45 49.8901 596.172 50.0131 596.649L50.7665 596.326C50.6281 595.865 50.3053 595.157 49.967 594.65L49.2598 594.911ZM48.1374 588.869C47.8453 589.469 47.2918 590.376 46.8767 590.914L47.5224 591.222C47.9683 590.699 48.5064 589.93 48.9677 589.223L48.1374 588.869ZM49.3674 590.191C48.7063 591.191 47.5532 592.605 46.6615 593.435L47.2918 593.789C48.1836 592.974 49.3213 591.683 50.1823 590.622L49.3674 590.191ZM48.0298 593.512V597.664H48.9369V593.512H48.0298ZM46.7845 594.681C46.6 595.511 46.3232 596.372 45.8774 597.002C46.108 597.095 46.477 597.31 46.6461 597.433C47.0612 596.787 47.4302 595.803 47.6608 594.865L46.7845 594.681ZM54.7178 593.236L54.8408 594.112C56.04 594.066 57.5929 594.004 59.1611 593.927L59.1764 593.159C57.4852 593.205 55.8709 593.22 54.7178 593.236ZM54.933 590.991C55.5634 591.483 56.3321 592.175 56.7011 592.636L57.2239 591.929C56.8702 591.483 56.0861 590.822 55.4558 590.376L54.933 590.991ZM57.8235 592.405C58.4077 593.036 59.0842 593.927 59.3763 594.496L60.0682 594.05C59.7607 593.482 59.0842 592.651 58.4692 592.006L57.8235 592.405ZM58.1771 594.973C58.623 595.649 59.0842 596.587 59.2687 597.187L60.022 596.818C59.8376 596.234 59.3609 595.327 58.8843 594.65L58.1771 594.973ZM56.8856 588.869C56.5781 589.469 56.0093 590.376 55.5634 590.914L56.2399 591.237C56.6857 590.714 57.2546 589.93 57.7158 589.223L56.8856 588.869ZM58.2847 590.068C57.5775 591.099 56.3475 592.528 55.4096 593.389L56.0246 593.758C56.9932 592.928 58.1925 591.591 59.0996 590.499L58.2847 590.068ZM56.8087 593.512V597.664H57.7312V593.512H56.8087ZM55.5173 594.681C55.3481 595.48 55.056 596.295 54.6102 596.895C54.8408 596.987 55.2098 597.172 55.3789 597.295C55.794 596.664 56.1476 595.742 56.3629 594.865L55.5173 594.681ZM51.197 589.3V589.976H54.5025V589.3H51.197ZM51.1662 592.006V592.682H54.5487V592.006H51.1662ZM49.5211 598.048V599.001H59.4839V598.048H49.5211ZM51.1662 593.328V593.989H54.5487V593.328H51.1662ZM50.5666 590.622V591.36H55.0099V590.622H50.5666ZM56.0861 598.325C54.3795 600.708 50.213 601.707 45.8774 602.091C46.0618 602.337 46.354 602.829 46.4462 603.091C50.828 602.537 55.1483 601.461 57.1931 598.678L56.0861 598.325ZM50.5051 596.68C49.6441 598.079 47.9376 599.247 46.2156 599.939C46.4616 600.108 46.8613 600.523 47.0305 600.723C48.7524 599.924 50.5666 598.617 51.5506 597.002L50.5051 596.68ZM49.6903 598.755L48.7678 599.201C51.0586 601.369 55.2405 602.614 59.4686 603.06C59.6069 602.768 59.8683 602.337 60.0835 602.076C55.8863 601.738 51.7044 600.6 49.6903 598.755ZM51.9811 595.357H53.7184V596.48H51.9811V595.357ZM51.1355 594.681V597.156H54.5794V594.681H51.1355ZM61.4365 591.544V592.651H75.1968V591.544H61.4365ZM66.464 595.188V596.295H72.6139V595.188H66.464ZM72.1988 595.188L72.1834 595.388C71.922 599.601 71.6146 601.323 71.1226 601.769C70.9534 601.922 70.7382 601.938 70.4 601.938C70.0002 601.938 68.9086 601.938 67.8016 601.83C68.0169 602.153 68.186 602.63 68.2014 602.968C69.2469 603.014 70.2616 603.045 70.7997 603.014C71.3839 602.968 71.7683 602.86 72.1219 602.491C72.7215 601.876 73.029 600.17 73.3365 595.742C73.3673 595.573 73.3826 595.188 73.3826 595.188H72.1988ZM66.2027 592.159C66.0335 595.834 65.7722 600.123 61.2828 602.153C61.5749 602.384 61.9439 602.799 62.113 603.091C66.8023 600.846 67.2481 596.234 67.4788 592.159H66.2027ZM67.6633 588.854V592.021H68.8471V588.854H67.6633ZM86.9123 589.653C87.7118 590.207 88.6497 591.037 89.1109 591.591L89.9258 590.868C89.4492 590.33 88.4806 589.53 87.6811 588.992L86.9123 589.653ZM76.8573 591.76V592.882H90.5561V591.76H76.8573ZM77.38 595.188V596.311H84.1757V595.188H77.38ZM80.1475 595.788V601.277H81.3006V595.788H80.1475ZM76.9188 601.43L77.2724 602.583C79.2558 602.138 82.0693 601.492 84.6984 600.877L84.6061 599.847C81.7618 600.462 78.7484 601.077 76.9188 601.43ZM84.683 588.961C84.7445 596.403 85.9899 603.06 89.0494 603.06C90.2333 603.06 90.6791 602.276 90.879 599.585C90.5561 599.478 90.1103 599.216 89.8489 598.955C89.7567 601.015 89.5722 601.861 89.1417 601.861C87.2506 601.861 85.8669 596.095 85.913 588.961H84.683Z" fill="#F0EBF5"/>
<g clip-path="url(#clip3_4459_25514)">
<path d="M306.104 695.624H286.824C283.569 695.624 280.922 698.234 280.922 701.443C280.922 702.167 281.519 702.755 282.253 702.755H310.676C311.41 702.755 312.007 702.167 312.007 701.443C312.006 698.234 309.358 695.624 306.104 695.624ZM283.799 700.176C284.3 699.017 285.468 698.202 286.824 698.202H306.104C307.461 698.202 308.628 699.015 309.129 700.176H283.799Z" fill="#F0EBF5"/>
<path d="M303.013 675.954L296.013 657.167C297.332 656.258 297.922 654.555 297.342 652.997C296.651 651.144 294.56 650.19 292.681 650.872L277.388 656.412C275.509 657.092 274.542 659.154 275.231 661.008C275.811 662.564 277.381 663.486 278.982 663.338L281.306 669.574L269.4 673.888C269.11 673.299 268.41 673.012 267.773 673.242L246.682 680.881C244.307 681.742 243.086 684.346 243.957 686.687C244.829 689.028 247.471 690.232 249.845 689.373L270.935 681.732C271.572 681.502 271.917 680.834 271.75 680.201L283.657 675.888L285.98 682.123C284.66 683.028 284.065 684.721 284.642 686.266C285.331 688.118 287.423 689.072 289.303 688.392L304.596 682.852C306.476 682.172 307.442 680.11 306.753 678.256C306.178 676.713 304.613 675.801 303.013 675.954ZM268.806 679.756L248.943 686.951C247.922 687.319 246.788 686.802 246.412 685.797C246.036 684.79 246.563 683.672 247.582 683.302L267.446 676.106L268.806 679.756ZM277.686 660.118C277.493 659.601 277.764 659.024 278.289 658.833L293.582 653.293C294.107 653.102 294.692 653.369 294.886 653.888C295.079 654.408 294.808 654.983 294.282 655.174L278.989 660.714C278.464 660.903 277.879 660.636 277.686 660.118ZM293.599 658.168L300.516 676.733L288.395 681.125L281.478 662.559L293.599 658.168ZM270.856 677.777L270.307 676.305L282.207 671.995L282.756 673.467L270.856 677.777ZM303.695 680.433L288.402 685.973C287.877 686.164 287.292 685.897 287.098 685.379C286.908 684.867 287.177 684.315 287.711 684.121L303.004 678.581C303.539 678.388 304.107 678.636 304.298 679.147C304.491 679.665 304.22 680.242 303.695 680.433Z" fill="#F0EBF5"/>
<path d="M294.119 666.867C293.442 667.112 293.093 667.853 293.342 668.521L296.003 675.663C296.252 676.332 297.003 676.675 297.681 676.43C298.359 676.184 298.707 675.443 298.458 674.775L295.797 667.633C295.548 666.963 294.797 666.622 294.119 666.867Z" fill="#7568F6"/>
<path d="M292.721 663.113C292.043 663.358 291.695 664.099 291.944 664.767L292.079 665.131C292.328 665.799 293.079 666.143 293.757 665.897C294.435 665.652 294.783 664.911 294.534 664.243L294.399 663.879C294.15 663.211 293.398 662.868 292.721 663.113Z" fill="#7568F6"/>
</g>
<circle cx="281.258" cy="677.986" r="51.676" stroke="#F0EBF5" stroke-width="2.56244"/>
<path d="M253.66 759.228V762.733C253.66 763.825 253.906 764.148 254.983 764.148C255.198 764.148 256.197 764.148 256.428 764.148C257.304 764.148 257.596 763.671 257.704 761.734C257.412 761.657 256.966 761.503 256.751 761.319C256.704 762.949 256.643 763.164 256.289 763.164C256.089 763.164 255.29 763.164 255.136 763.164C254.783 763.164 254.721 763.102 254.721 762.733V759.228H253.66ZM251.154 754.385H255.428V756.015H251.154V754.385ZM251.154 756.922H255.428V758.567H251.154V756.922ZM251.154 751.863H255.428V753.462H251.154V751.863ZM250.078 750.91V759.52H256.535V750.91H250.078ZM251.339 759.197C251.123 761.165 250.555 762.61 248.264 763.379C248.494 763.594 248.817 764.009 248.94 764.271C251.492 763.302 252.2 761.596 252.461 759.197H251.339ZM243.667 753.001V754.062H248.464V753.001H243.667ZM245.911 757.598V764.255H247.034V756.245L245.911 757.598ZM245.911 750.126V753.524H247.034V750.126H245.911ZM247.034 756.399L246.357 757.014C246.972 757.567 248.371 759.043 248.894 759.735L249.601 758.767C249.202 758.367 247.526 756.799 247.034 756.399ZM248.079 753.001V753.247C247.188 755.584 245.097 757.921 243.113 759.151C243.298 759.351 243.59 759.889 243.697 760.181C245.804 758.767 248.064 756.199 249.156 753.385L248.51 752.955L248.31 753.001H248.079ZM264.761 758.92V759.812H270.88V758.92H264.761ZM263.331 751.325V752.202H272.464V751.325H263.331ZM263.7 753.186V754.031H272.079V753.186H263.7ZM262.854 755.107V755.984H272.909V755.107H262.854ZM264.761 760.981V761.842H270.926V760.981H264.761ZM263.977 756.891V764.24H265.053V757.783H270.88V756.891H263.977ZM270.603 756.891V762.949C270.603 763.148 270.542 763.21 270.326 763.21C270.111 763.225 269.373 763.225 268.604 763.195C268.743 763.487 268.897 763.917 268.943 764.194C270.034 764.209 270.726 764.194 271.157 764.025C271.587 763.856 271.71 763.548 271.71 762.964V756.891H270.603ZM267.267 750.111V755.384H268.405V750.111H267.267ZM260.517 750.111V764.24H261.578V750.111H260.517ZM259.303 753.078C259.211 754.293 258.965 755.984 258.611 757.045L259.503 757.337C259.856 756.184 260.118 754.4 260.164 753.201L259.303 753.078ZM261.717 752.678C262.024 753.401 262.378 754.354 262.531 754.938L263.331 754.554C263.193 753.985 262.824 753.078 262.485 752.371L261.717 752.678ZM275.139 751.079C276.153 751.479 277.383 752.14 277.998 752.678L278.659 751.71C278.029 751.202 276.768 750.572 275.769 750.218L275.139 751.079ZM274.155 755.369C275.246 755.738 276.599 756.384 277.26 756.876L277.891 755.892C277.199 755.4 275.831 754.8 274.754 754.492L274.155 755.369ZM274.754 763.348L275.723 764.086C276.707 762.626 277.845 760.627 278.736 758.936L277.906 758.228C276.938 760.027 275.631 762.134 274.754 763.348ZM284.025 756.999V762.549C284.025 763.763 284.302 764.132 285.47 764.132C285.686 764.132 286.731 764.132 286.962 764.132C287.992 764.132 288.284 763.517 288.392 761.227C288.084 761.15 287.608 760.965 287.377 760.765C287.331 762.749 287.254 763.102 286.854 763.102C286.639 763.102 285.809 763.102 285.64 763.102C285.24 763.102 285.163 763.01 285.163 762.549V756.999H284.025ZM280.581 751.894H286.301V756.03H280.581V751.894ZM279.459 750.818V757.106H287.469V750.818H279.459ZM281.104 756.983C280.95 760.227 280.566 762.257 277.66 763.348C277.922 763.564 278.26 763.994 278.383 764.271C281.535 762.995 282.057 760.642 282.226 756.983H281.104ZM296.017 751.248V752.155H303.52V751.248H296.017ZM295.848 759.874V760.765H303.705V759.874H295.848ZM299.2 750.126V758.413H300.215V750.126H299.2ZM297.324 755.353H302.183V756.291H297.324V755.353ZM297.324 753.708H302.183V754.646H297.324V753.708ZM296.371 752.986V757.029H303.167V752.986H296.371ZM295.864 758.075L295.941 758.966C297.709 758.92 300.292 758.874 302.798 758.797L302.813 757.952C300.199 758.013 297.586 758.059 295.864 758.075ZM300.753 759.043V763.118C300.753 763.287 300.707 763.333 300.492 763.348C300.292 763.364 299.584 763.364 298.8 763.333C298.939 763.61 299.092 763.994 299.139 764.286C300.184 764.286 300.845 764.286 301.291 764.132C301.721 763.979 301.829 763.702 301.829 763.133V759.043H300.753ZM296.755 761.38C297.34 761.918 297.939 762.703 298.201 763.256L299.062 762.703C298.77 762.164 298.155 761.426 297.54 760.904L296.755 761.38ZM301.183 757.306C301.875 757.936 302.644 758.828 302.982 759.428L303.797 758.951C303.428 758.367 302.659 757.521 301.952 756.906L301.183 757.306ZM289.729 751.787V752.817H295.695V751.787H289.729ZM289.529 760.55V761.58H295.91V760.55H289.529ZM292.251 750.126V754.323H293.312V750.126H292.251ZM292.358 754.385V758.859H292.251V764.286H293.312V758.859H293.204V754.385H292.358ZM290.959 757.029H294.634V758.444H290.959V757.029ZM290.959 754.815H294.634V756.199H290.959V754.815ZM290.067 753.954V759.305H295.526V753.954H290.067ZM314.221 756.368C312.807 760.258 309.578 762.257 304.919 763.225C305.165 763.502 305.534 764.025 305.657 764.317C310.377 763.133 313.76 760.996 315.451 756.706L314.221 756.368ZM309.209 753.724C308.271 755.031 306.641 756.307 305.135 757.106C305.427 757.321 305.873 757.783 306.073 758.029C307.564 757.091 309.286 755.646 310.377 754.17L309.209 753.724ZM309.824 756.445L308.732 756.783C310.377 760.873 313.468 763.333 318.372 764.271C318.541 763.948 318.88 763.425 319.141 763.164C314.375 762.38 311.254 760.089 309.824 756.445ZM305.258 752.125V753.247H318.757V752.125H305.258ZM311.377 750.095V752.847H312.561V750.095H311.377ZM313.806 754.369C315.282 755.369 317.065 756.86 317.896 757.875L318.895 757.075C318.019 756.061 316.204 754.631 314.759 753.662L313.806 754.369ZM251.723 770.694V771.694H257.396V770.694H251.723ZM251.523 779.15V780.15H257.55V779.15H251.523ZM257.765 772.139V773.216H263.3V772.139H257.765ZM251.139 773.154V774.169H258.011V773.154H251.139ZM251.354 776.537V777.536H257.796V776.537H251.354ZM254.06 769.111V773.554H255.136V769.111H254.06ZM254.06 776.844V783.225H255.136V776.844H254.06ZM257.627 776.183C259.195 777.198 261.04 778.72 261.87 779.781L262.562 778.874C261.701 777.813 259.826 776.352 258.257 775.384L257.627 776.183ZM256.151 774.123C255.982 774.784 255.628 775.768 255.351 776.383L256.212 776.644C256.52 776.045 256.843 775.184 257.15 774.384L256.151 774.123ZM252.2 774.384C252.523 775.107 252.83 776.06 252.907 776.66L253.829 776.368C253.753 775.783 253.43 774.845 253.076 774.154L252.2 774.384ZM262.747 772.139C262.731 778.136 262.547 782.687 264.192 783.225C264.976 783.517 265.453 782.932 265.545 780.196C265.36 780.073 265.022 779.719 264.807 779.473C264.792 780.888 264.684 782.133 264.576 782.102C263.685 781.872 263.777 777.644 263.869 772.139H262.747ZM259.872 769.126V773.754C259.872 776.614 259.549 780.134 256.305 782.579C256.566 782.748 256.997 783.071 257.181 783.286C260.564 780.688 260.963 776.921 260.963 773.769V769.126H259.872ZM270.603 775.583V776.675H280.489V775.583H270.603ZM271.387 771.632V772.739H279.766V771.632H271.387ZM274.908 769.126V776.368H276.092V769.126H274.908ZM270.619 781.38L270.788 782.548C272.971 782.41 276.184 782.195 279.244 781.964V780.918C276.061 781.103 272.709 781.287 270.619 781.38ZM276.815 778.751C277.968 780.15 279.198 782.072 279.674 783.286L280.75 782.687C280.243 781.441 278.967 779.612 277.799 778.243L276.815 778.751ZM273.878 776.306C273.401 777.951 272.494 780.257 271.741 781.687L272.756 782.041C273.524 780.642 274.447 778.443 275.123 776.66L273.878 776.306ZM267.282 770.079C268.358 770.494 269.65 771.217 270.296 771.77L270.957 770.802C270.296 770.264 268.973 769.603 267.928 769.218L267.282 770.079ZM266.467 774.323C267.544 774.692 268.866 775.337 269.527 775.829L270.157 774.861C269.465 774.369 268.112 773.769 267.067 773.431L266.467 774.323ZM267.005 782.318L268.005 783.071C268.866 781.641 269.881 779.719 270.649 778.089L269.788 777.367C268.943 779.104 267.79 781.134 267.005 782.318ZM288.299 774.031V783.255H289.483V774.031H288.299ZM284.809 776.629H293.173V777.966H284.809V776.629ZM284.809 774.43H293.173V775.737H284.809V774.43ZM283.687 773.492V778.889H294.342V773.492H283.687ZM282.134 780.073V781.088H295.772V780.073H282.134ZM284.317 770.494H287.269V771.955H284.317V770.494ZM283.272 769.726V772.724H288.346V769.726H283.272ZM290.636 770.494H293.619V771.955H290.636V770.494ZM289.591 769.726V772.724H294.711V769.726H289.591ZM305.688 769.295V772.801H306.841V769.295H305.688ZM301.675 772.139V773.246H311.069V772.139H301.675ZM302.951 774.446C303.505 776.506 303.982 779.181 304.089 780.719L305.227 780.473C305.104 778.95 304.566 776.321 303.982 774.277L302.951 774.446ZM308.563 774.138C308.148 776.429 307.303 779.688 306.58 781.626L307.61 781.872C308.333 779.965 309.224 776.813 309.793 774.353L308.563 774.138ZM301.291 781.441V782.548H311.454V781.441H301.291ZM300.876 769.157C299.984 771.478 298.477 773.769 296.925 775.214C297.14 775.491 297.463 776.106 297.586 776.368C299.277 774.676 300.922 772.093 301.967 769.51L300.876 769.157ZM299.277 773.123V783.225H300.384V772.047L300.369 772.032L299.277 773.123Z" fill="#F0EBF5"/>
<path d="M239.756 383.665V384.588H250.995V383.665H239.756ZM238.68 390.476V391.414H252.118V390.476H238.68ZM240.664 387.171V387.955H243.985V387.171H240.664ZM240.341 388.785V389.569H243.985V388.785H240.341ZM246.69 388.785V389.569H250.457V388.785H246.69ZM246.69 387.171V387.955H250.088V387.171H246.69ZM244.769 384.019V389.969H245.891V384.019H244.769ZM243.247 393.121V397.072H244.323V393.121H243.247ZM246.66 393.121V397.072H247.721V393.121H246.66ZM238.865 385.48V388.431H239.91V386.325H250.826V388.431H251.918V385.48H238.865ZM239.879 392.521V397.164H240.971V393.474H250.427V392.521L239.879 392.521ZM250.134 392.521V396.027C250.134 396.165 250.088 396.211 249.919 396.226C249.75 396.242 249.227 396.242 248.612 396.226C248.751 396.503 248.92 396.903 248.966 397.18C249.812 397.18 250.38 397.195 250.765 397.011C251.165 396.841 251.241 396.565 251.241 396.042V392.521H250.134ZM244.784 390.83C244.676 391.46 244.4 392.383 244.169 393.013L245.184 393.121C245.445 392.552 245.768 391.706 246.045 390.876L244.784 390.83ZM254.393 386.064V387.202H267.231V386.064H254.393ZM253.87 395.365V396.519H267.662V395.365H253.87ZM260.113 383.05V386.694H261.312V383.05H260.113ZM263.772 387.909C263.31 390.261 262.403 393.567 261.619 395.535L262.726 395.796C263.526 393.843 264.448 390.676 265.094 388.155L263.772 387.909ZM256.453 388.278C257.207 390.292 257.791 392.906 257.883 394.597L259.052 394.32C258.944 392.598 258.36 390.03 257.545 388.001L256.453 388.278ZM270.675 386.894V387.94H275.195V386.894H270.675ZM270.121 383.865V395.581L271.213 395.35V383.865H270.121ZM269.045 395.227L269.43 396.396C270.952 395.95 273.058 395.319 275.011 394.72L274.872 393.628C272.704 394.243 270.46 394.873 269.045 395.227ZM272.935 392.091C273.934 393.428 275.011 395.242 275.41 396.411L276.425 395.873C275.995 394.72 274.903 392.952 273.858 391.629L272.935 392.091ZM270.644 383.865V384.941H274.765V389.831H270.644V390.907H275.841V383.865H270.644ZM281.422 383.881V393.244C281.422 393.459 281.36 393.536 281.145 393.536C280.899 393.536 280.161 393.551 279.331 393.521C279.531 393.859 279.715 394.428 279.746 394.781C280.822 394.781 281.56 394.766 282.006 394.535C282.483 394.32 282.606 393.92 282.606 393.259V383.881H281.422ZM277.009 383.881V397.195H278.178V385.034H282.068V383.881H277.009ZM291.277 384.019V384.895H297.196V384.019H291.277ZM288.709 391.122V391.968H291.231V391.122H288.709ZM293.306 391.107V391.998H295.982V391.107H293.306ZM286.342 385.879V386.802H297.473V385.879H286.342ZM290.754 383.05V386.402H291.907V383.05H290.754ZM287.633 388.032L287.695 388.831L295.766 388.293L295.705 387.524L287.633 388.032ZM290.754 386.602V389.046C290.754 390.123 291.2 390.353 292.861 390.353C293.23 390.353 295.997 390.353 296.366 390.353C297.535 390.353 297.888 390.077 298.011 388.877C297.719 388.831 297.304 388.724 297.058 388.57C297.012 389.385 296.873 389.523 296.243 389.523C295.674 389.523 293.353 389.523 292.922 389.523C292 389.523 291.846 389.431 291.846 389.046V386.602H290.754ZM285.727 385.879V389.661C285.727 391.676 285.604 394.504 284.374 396.534C284.62 396.642 285.096 397.011 285.281 397.21C286.603 395.073 286.818 391.86 286.818 389.661V385.879H285.727ZM297.104 385.879V386.048C296.889 386.802 296.566 387.709 296.258 388.278L297.227 388.57C297.581 387.94 297.98 386.94 298.288 386.064L297.488 385.833L297.289 385.879H297.104ZM292.814 391.107V392.321C292.814 393.121 292.63 394.074 291.6 394.843C291.8 394.966 292.184 395.319 292.307 395.504C293.506 394.612 293.768 393.367 293.768 392.352V391.107H292.814ZM288.863 389.892C288.387 391.353 287.51 392.69 286.434 393.567C286.649 393.736 287.003 394.074 287.141 394.243C288.248 393.275 289.248 391.752 289.786 390.107L288.863 389.892ZM295.428 391.107V393.767C295.428 394.551 295.49 394.797 295.69 394.981C295.889 395.15 296.212 395.227 296.489 395.227C296.643 395.227 297.012 395.227 297.166 395.227C297.396 395.227 297.673 395.181 297.827 395.104C298.011 395.012 298.149 394.858 298.226 394.627C298.303 394.428 298.349 393.782 298.38 393.228C298.119 393.152 297.796 392.998 297.611 392.829C297.596 393.382 297.581 393.813 297.55 394.012C297.519 394.197 297.458 394.289 297.396 394.32C297.35 394.366 297.212 394.381 297.104 394.381C296.996 394.381 296.797 394.381 296.704 394.381C296.612 394.381 296.535 394.366 296.489 394.32C296.443 394.274 296.428 394.105 296.428 393.843V391.107H295.428ZM290.939 391.122V391.276C290.355 394.12 288.556 395.765 286.296 396.442C286.495 396.642 286.726 397.011 286.834 397.257C289.324 396.38 291.216 394.627 291.892 391.26L291.308 391.091L291.123 391.122H290.939ZM288.679 391.983L287.91 392.26C289.002 396.273 291.216 397.011 294.613 397.011H298.257C298.319 396.734 298.472 396.273 298.626 396.027C297.98 396.042 295.151 396.042 294.675 396.042C291.738 396.042 289.601 395.458 288.679 391.983ZM306.498 387.663H312.217V389.646H306.498V387.663ZM306.498 384.757H312.217V386.71H306.498V384.757ZM305.452 383.758V390.645H313.324V383.758H305.452ZM305.253 392.444V393.505H313.54V392.444H305.253ZM304.069 395.627V396.672H314.047V395.627H304.069ZM299.887 384.08V385.172H304.684V384.08H299.887ZM300.056 388.524V389.615H304.468V388.524H300.056ZM299.733 394.412L300.01 395.596C301.378 395.135 303.131 394.551 304.807 393.982L304.607 392.875C302.823 393.474 300.978 394.074 299.733 394.412ZM301.809 384.511V394.258L302.916 394.043V384.511H301.809ZM308.85 384.234V390.153H308.773V396.103H309.942V390.153H309.865V384.234H308.85Z" fill="#F0EBF5"/>
<path d="M26.928 384.127V385.295H40.1656V384.127H26.928ZM34.4616 388.601C36.2912 389.846 38.5974 391.645 39.6736 392.829L40.6115 391.952C39.4738 390.768 37.1214 389.031 35.3226 387.863L34.4616 388.601ZM34.1695 384.526C32.7397 387.417 29.88 390.369 26.5437 392.045C26.7743 392.291 27.1433 392.752 27.3278 393.044C30.8025 391.214 33.6775 388.17 35.4302 384.988L34.1695 384.526ZM32.9088 387.601V397.164H34.1541V386.371L32.9088 387.601ZM45.4545 386.94L52.4961 386.94V388.401H45.4545V386.94ZM45.4545 389.277H52.4961V390.753H45.4545V389.277ZM45.4545 384.603H52.4961V386.064H45.4545V384.603ZM44.3168 383.681V391.676H53.68V383.681H44.3168ZM42.1028 392.736V393.813H55.7556V392.736H42.1028ZM50.2053 395.073C51.9426 395.719 53.7415 396.549 54.8177 397.18L55.9247 396.396C54.7408 395.765 52.8036 394.935 51.0355 394.305L50.2053 395.073ZM46.6384 394.228C45.6083 394.95 43.6096 395.811 42.026 396.288C42.2873 396.534 42.641 396.934 42.8255 397.18C44.3937 396.657 46.377 395.796 47.6838 394.966L46.6384 394.228ZM59.3071 386.648V387.617H68.209V391.137H58.9842V392.091H69.3468V386.648H59.3071ZM61.0291 384.203V385.157H66.3026V384.203H61.0291ZM59.4608 388.908V389.815H68.6549V388.908H59.4608ZM61.4288 382.989C60.7062 384.465 59.3071 386.218 57.2776 387.478C57.5544 387.663 57.9234 388.032 58.1079 388.308C60.2603 386.863 61.7209 384.972 62.6742 383.219L61.4288 382.989ZM61.2751 393.259V395.535C61.2751 396.657 61.644 396.98 63.2123 396.98C63.5198 396.98 65.6722 396.98 65.9951 396.98C67.2558 396.98 67.594 396.534 67.7324 394.658C67.4249 394.597 66.9483 394.428 66.7177 394.243C66.6408 395.765 66.5332 395.98 65.9028 395.98C65.4262 395.98 63.6428 395.98 63.3045 395.98C62.5358 395.98 62.3974 395.904 62.3974 395.519V393.259H61.2751ZM62.3205 392.613C63.3353 393.029 64.5345 393.736 65.1034 394.305L65.8567 393.49C65.2571 392.921 64.0579 392.26 63.0431 391.875L62.3205 392.613ZM67.594 393.459C68.6703 394.397 69.8541 395.719 70.3615 396.642L71.3916 396.027C70.8535 395.104 69.6235 393.813 68.5319 392.921L67.594 393.459ZM59.4147 393.09C59.0611 394.228 58.3692 395.35 57.2776 395.98L58.2309 396.672C59.4147 395.934 60.0451 394.704 60.4602 393.459L59.4147 393.09ZM66.0412 384.203V384.419C65.7183 385.157 65.0111 386.248 64.4115 386.909C64.6729 387.032 65.0726 387.278 65.2878 387.448C65.9336 386.74 66.7638 385.603 67.2712 384.649L66.4717 384.142L66.2872 384.203H66.0412ZM81.2468 383.066C81.1084 383.881 80.8009 385.034 80.5395 385.772L81.6465 385.941C81.9386 385.249 82.2615 384.188 82.5536 383.235L81.2468 383.066ZM76.004 389.108H72.7292V390.184H74.8816V394.551H76.004V389.108ZM76.004 394.043H74.9585C74.1744 394.704 73.2673 395.381 72.5293 395.873L73.1443 397.057C73.9745 396.38 74.7586 395.719 75.4966 395.058C76.4806 396.273 77.8643 396.811 79.863 396.888C81.5696 396.949 84.7522 396.918 86.4434 396.857C86.4895 396.503 86.6894 395.95 86.8124 395.673C84.9982 395.796 81.5389 395.842 79.863 395.781C78.0949 395.704 76.7266 395.181 76.004 394.043ZM72.8983 384.111C73.8977 384.788 75.0508 385.833 75.5428 386.571L76.4499 385.818C75.9117 385.064 74.7586 384.065 73.7439 383.419L72.8983 384.111ZM79.0328 390.138H84.6753V392.967H79.0328V390.138ZM79.0328 386.356H84.6753V389.123H79.0328V386.356ZM77.9105 385.28V394.028H85.8284V385.28H77.9105ZM89.9949 383.035V397.164H91.1634V383.035H89.9949ZM88.5805 385.956C88.4729 387.202 88.1961 388.893 87.781 389.923L88.6881 390.23C89.1032 389.123 89.38 387.34 89.4568 386.095L88.5805 385.956ZM91.271 385.864C91.7015 386.725 92.1628 387.847 92.3319 388.524L93.1929 388.093C93.0238 387.432 92.5471 386.341 92.0705 385.51L91.271 385.864ZM94.4075 383.758C94.0692 385.833 93.4542 387.924 92.5471 389.277C92.8393 389.4 93.362 389.646 93.5926 389.815C94.4536 388.37 95.1301 386.187 95.5298 383.942L94.4075 383.758ZM94.4228 386.294L94.0692 387.401H101.572V386.294H94.4228ZM96.9135 383.096V396.165H98.0666V383.096H96.9135ZM93.6387 390.599V391.691H101.234V390.599H93.6387ZM92.4856 395.535V396.642H101.941V395.535H92.4856Z" fill="#F0EBF5"/>
<g clip-path="url(#clip4_4459_25514)">
<path d="M170.695 54.9857C172.329 54.9857 173.66 53.6636 173.66 52.0409C173.66 50.4183 172.329 49.0962 170.695 49.0962C169.061 49.0962 167.73 50.4183 167.73 52.0409C167.733 53.6659 169.061 54.9857 170.695 54.9857ZM170.695 51.0594C171.241 51.0594 171.683 51.5008 171.683 52.0409C171.683 52.581 171.241 53.0225 170.695 53.0225C170.149 53.0225 169.707 52.581 169.707 52.0409C169.709 51.5008 170.151 51.0594 170.695 51.0594Z" fill="#7568F6"/>
<path d="M174.645 27.5058C174.645 27.4752 174.518 29.4689 174.518 29.4689H190.941L176.837 42.7414C175.17 44.31 172.99 45.1719 170.695 45.1719C168.401 45.1719 166.219 44.31 164.553 42.7414L150.451 29.4689H166.874C166.874 29.4689 166.747 27.4729 166.747 27.5058H146.982V60.8748H155.874V65.3671C155.874 67.1165 156.389 68.812 157.368 70.2679L159.827 73.9312V78.5409H157.85V84.4304H183.539V78.5409H181.563V73.9312L184.021 70.2679C185 68.8096 185.515 67.1165 185.515 65.3671V60.8748H194.407V27.5058H174.645ZM155.874 58.9116H150.836L155.874 54.9947V58.9116ZM155.933 52.4562L148.959 57.8784V30.7699L163.196 44.1668C163.725 44.6646 164.3 45.1038 164.907 45.4818L160.205 49.1358C160.08 49.124 159.957 49.0982 159.827 49.0982C157.843 49.0982 156.212 50.5612 155.933 52.4562ZM181.565 82.4649H159.827V80.5017H181.565V82.4649ZM183.541 65.3671C183.541 66.7267 183.14 68.0464 182.381 69.1783L179.591 73.3348V78.5385H161.803V73.3348L159.014 69.1783C158.252 68.0464 157.853 66.7267 157.853 65.3671V53.0222C157.853 51.9396 158.739 51.059 159.829 51.059C160.919 51.059 161.806 51.9396 161.806 53.0222V63.8172H162.794C165.517 63.8172 167.735 66.0175 167.735 68.7251H169.711C169.711 65.2684 167.13 62.4035 163.782 61.9245V60.8724H183.544V65.3671H183.541ZM163.78 58.9116V53.0222C163.78 51.7964 163.198 50.7138 162.309 49.9929L166.877 46.4423C168.085 46.8908 169.373 47.135 170.697 47.135C172.021 47.135 173.309 46.8932 174.518 46.4423L190.558 58.9116H163.78ZM192.433 57.8784L176.484 45.4795C177.092 45.1014 177.667 44.6646 178.196 44.1645L192.433 30.7675V57.8784Z" fill="#F0EBF5"/>
<path d="M174.808 25.4885C174.808 25.4556 174.811 25.4227 174.811 25.3898C174.813 23.1872 173.007 21.3931 170.789 21.3931H170.591C168.371 21.3931 166.564 23.1872 166.564 25.3898C166.564 25.4251 166.567 25.4556 166.567 25.4885L167.46 38.8736C167.572 40.5574 168.99 41.8747 170.688 41.8747C172.385 41.8747 173.803 40.5574 173.915 38.876L174.808 25.4885ZM171.858 38.7398C171.818 39.3503 171.302 39.827 170.688 39.827C170.073 39.827 169.557 39.3503 169.517 38.7398L168.631 25.5119L168.626 25.3922C168.626 24.319 169.505 23.4431 170.588 23.4431H170.787C171.87 23.4431 172.749 24.3167 172.749 25.3922L171.858 38.7398Z" fill="#7568F6"/>
</g>
<circle cx="171.073" cy="52.9572" r="51.676" stroke="#F0EBF5" stroke-width="2.56244"/>
<path d="M140.847 135.076L141.231 136.229C142.492 135.86 144.121 135.353 145.69 134.861L145.551 133.831C143.799 134.308 142.03 134.8 140.847 135.076ZM145.044 125.16V139.228H146.166V125.16H145.044ZM141.892 126.866V135.215H142.999V126.866H141.892ZM148.642 127.943V129.034H155.13V127.943H148.642ZM149.057 125.083C148.488 127.65 147.488 130.141 146.12 131.709C146.397 131.894 146.873 132.309 147.058 132.54C148.472 130.802 149.564 128.142 150.241 125.313L149.057 125.083ZM153.131 128.465C152.193 133.354 150.256 136.475 146.305 138.244C146.52 138.49 146.873 139.012 146.981 139.274C151.102 137.26 153.208 133.923 154.284 128.65L153.131 128.465ZM149.057 128.834L148.011 129.034C149.026 133.831 150.932 137.552 154.515 139.274C154.684 138.966 155.053 138.52 155.314 138.29C151.87 136.814 149.948 133.216 149.057 128.834ZM156.467 126.098V127.143H164.354V126.098H156.467ZM156.929 133.416V134.461H163.909V133.416H156.929ZM159.865 131.586V137.782L161.003 137.613V131.586H159.865ZM156.298 137.613L156.483 138.766C158.527 138.49 161.556 138.059 164.416 137.659L164.385 136.583C161.418 136.983 158.297 137.398 156.298 137.613ZM156.437 130.279L156.529 131.371C158.358 131.263 160.987 131.125 163.509 130.971L163.54 129.957C160.895 130.095 158.189 130.218 156.437 130.279ZM161.341 128.404C162.264 129.495 163.294 130.987 163.739 131.925L164.662 131.371C164.216 130.449 163.14 129.003 162.202 127.927L161.341 128.404ZM159.127 126.651C158.789 127.866 158.128 129.664 157.59 130.756L158.604 131.002C159.173 129.941 159.834 128.25 160.372 126.897L159.127 126.651ZM165.031 126.943V135.461H166.138V126.943H165.031ZM168.659 125.529V137.69C168.659 137.967 168.583 138.044 168.306 138.059C167.998 138.059 167.045 138.074 166.015 138.028C166.184 138.382 166.353 138.92 166.415 139.243C167.66 139.243 168.598 139.212 169.105 139.012C169.613 138.828 169.797 138.474 169.797 137.675V125.529H168.659ZM175.04 131.156H171.704V132.232H173.948V136.598H175.04V131.156ZM175.04 136.137H174.041C173.226 136.798 172.272 137.49 171.504 137.967L172.073 139.105C172.949 138.443 173.779 137.767 174.563 137.106C175.516 138.32 176.916 138.859 178.93 138.935C180.652 139.012 183.942 138.982 185.648 138.905C185.71 138.566 185.879 138.028 186.017 137.767C184.172 137.89 180.621 137.936 178.93 137.859C177.115 137.798 175.793 137.275 175.04 136.137ZM171.965 126.159C172.934 126.882 174.056 127.973 174.533 128.727L175.409 127.927C174.901 127.174 173.748 126.128 172.764 125.436L171.965 126.159ZM178.115 127.666C179.606 128.235 181.513 129.111 182.481 129.711L183.265 128.988C182.235 128.373 180.298 127.527 178.853 127.02L178.115 127.666ZM176.654 128.957V136.921H177.746V129.849H184.603V128.957H176.654ZM184.049 128.957V135.753C184.049 135.953 184.003 136.014 183.803 136.014C183.604 136.014 182.958 136.03 182.235 135.999C182.374 136.26 182.512 136.66 182.558 136.952C183.588 136.952 184.234 136.952 184.634 136.768C185.049 136.598 185.156 136.337 185.156 135.768V128.957H184.049ZM176.654 125.729V126.651H184.326V125.729H176.654ZM177.254 131.202V132.063H184.495V131.202H177.254ZM177.254 133.462V134.354H184.495V133.462H177.254ZM180.329 129.326V136.86H181.374V129.326H180.329ZM183.942 125.729V125.944C183.25 126.666 181.82 127.558 180.559 128.05C180.728 128.219 181.021 128.527 181.174 128.727C182.573 128.142 184.126 127.189 185.156 126.221L184.449 125.667L184.203 125.729H183.942ZM194.996 131.033V131.986H200.024V131.033H194.996ZM194.412 125.805V139.243H195.473V126.836H199.916V125.805H194.412ZM199.363 125.805V128.757C199.363 128.927 199.301 128.988 199.055 129.003C198.809 129.019 198.01 129.019 197.056 128.988C197.21 129.28 197.364 129.695 197.41 130.003C198.594 130.003 199.363 129.987 199.839 129.818C200.316 129.649 200.439 129.342 200.439 128.773V125.805H199.363ZM196.503 131.663L195.596 131.894C196.503 135.092 198.209 137.89 200.577 139.228C200.762 138.935 201.115 138.52 201.377 138.29C199.07 137.167 197.333 134.538 196.503 131.663ZM199.67 131.033V131.279C199.193 134.092 197.748 136.967 195.442 138.474C195.703 138.674 196.042 138.997 196.211 139.258C198.671 137.598 200.193 134.569 200.792 131.233L200.085 130.971L199.885 131.033H199.67ZM187.632 126.666V127.666H193.336V126.666H187.632ZM187.447 135.076V136.076H193.536V135.076H187.447ZM187.078 129.203V130.203H193.92V129.203H187.078ZM187.293 132.401V133.401H193.735V132.401H187.293ZM189.999 125.114V129.557H191.076V125.114H189.999ZM189.999 132.816V139.197H191.076V132.816H189.999ZM192.075 130.141C191.906 130.741 191.568 131.648 191.306 132.217L192.167 132.478C192.459 131.94 192.751 131.14 193.059 130.402L192.075 130.141ZM188.154 130.387C188.462 131.064 188.754 131.94 188.831 132.493L189.753 132.232C189.677 131.694 189.369 130.818 189.031 130.172L188.154 130.387Z" fill="#F0EBF5"/>
<defs>
<clipPath id="clip0_4459_25514">
<rect width="56.3738" height="58.9362" fill="white" transform="translate(142.887 207.349)"/>
</clipPath>
<clipPath id="clip1_4459_25514">
<rect width="58.9362" height="58.9362" fill="white" transform="translate(252.218 467.542)"/>
</clipPath>
<clipPath id="clip2_4459_25514">
<rect width="54.6655" height="54.6655" fill="white" transform="translate(33.5547 468.719)"/>
</clipPath>
<clipPath id="clip3_4459_25514">
<rect width="68.3319" height="52.103" fill="white" transform="translate(243.676 650.652)"/>
</clipPath>
<clipPath id="clip4_4459_25514">
<rect width="53.8113" height="63.207" fill="white" transform="translate(143.74 21.3535)"/>
</clipPath>
</defs>
</svg>
