<svg width="669" height="392" viewBox="0 0 669 392" fill="none" xmlns="http://www.w3.org/2000/svg">
<circle cx="226.5" cy="162" r="60.5" stroke="#F0EBF5" stroke-width="3"/>
<g clip-path="url(#clip0_4497_29204)">
<path d="M255.327 169.87C258.587 168.213 259.894 164.218 258.243 160.945C256.591 157.673 252.612 156.361 249.352 158.019C246.091 159.677 244.785 163.671 246.436 166.944C247.007 168.074 247.887 169.017 248.974 169.663C247.323 170.338 245.957 171.564 245.097 173.13L242.217 178.387L237.818 172.457C237.676 172.266 237.45 172.154 237.213 172.154H234.912V169.083C234.909 165.896 232.893 163.065 229.892 162.026C232.479 160.148 233.06 156.519 231.189 153.919C229.317 151.322 225.702 150.738 223.112 152.617C220.525 154.496 219.944 158.124 221.815 160.725C222.176 161.226 222.613 161.664 223.112 162.026C220.111 163.065 218.095 165.896 218.092 169.083V172.154H215.79C215.551 172.154 215.327 172.266 215.186 172.457L210.787 178.387L207.907 173.13C207.047 171.561 205.681 170.338 204.03 169.663C207.175 167.794 208.219 163.72 206.361 160.563C204.502 157.406 200.441 156.358 197.296 158.223C194.15 160.092 193.106 164.165 194.965 167.323C195.608 168.414 196.547 169.3 197.676 169.87C195.221 171.119 193.674 173.647 193.671 176.412V189.005C193.671 189.424 194.009 189.76 194.423 189.76C194.836 189.76 195.175 189.421 195.175 189.005V176.412C195.178 173.199 197.772 170.592 200.973 170.589H201.081C203.373 170.592 205.481 171.844 206.587 173.858L210.031 180.143C210.031 180.143 210.038 180.156 210.041 180.166L210.741 181.442C210.872 181.682 211.125 181.834 211.4 181.834H218.65C219.609 181.834 220.387 182.615 220.387 183.577C220.387 184.54 219.609 185.321 218.65 185.321H209.923C209.069 185.324 208.275 184.892 207.805 184.177C207.789 184.148 207.772 184.121 207.753 184.095L203.668 177.441C203.462 177.078 203.002 176.956 202.641 177.164C202.28 177.371 202.158 177.833 202.365 178.195C202.372 178.209 202.381 178.222 202.388 178.232L206.242 184.517L200.966 191.606C200.704 191.929 200.753 192.407 201.078 192.67C201.4 192.934 201.876 192.885 202.138 192.558C202.152 192.542 202.165 192.525 202.175 192.509L207.191 185.753C207.94 186.441 208.915 186.824 209.93 186.827H218.66C220.449 186.787 221.871 185.298 221.831 183.502C221.792 181.761 220.397 180.357 218.66 180.318H211.844L211.578 179.843L216.164 173.664H236.836L241.413 179.843L241.147 180.318H234.347C232.558 180.357 231.136 181.847 231.176 183.643C231.215 185.383 232.61 186.787 234.347 186.827H243.074C244.085 186.824 245.06 186.441 245.806 185.756L250.823 192.512C251.085 192.835 251.558 192.885 251.883 192.624C252.188 192.377 252.251 191.935 252.031 191.609L246.758 184.507L250.609 178.222C250.826 177.866 250.717 177.401 250.363 177.184C250.008 176.966 249.545 177.075 249.329 177.431L245.248 184.098C245.231 184.121 245.215 184.144 245.202 184.171C244.732 184.889 243.934 185.324 243.077 185.321H234.35C233.392 185.321 232.614 184.54 232.614 183.577C232.614 182.615 233.392 181.834 234.35 181.834H241.603C241.879 181.834 242.132 181.682 242.263 181.442L242.959 180.173C242.969 180.153 242.982 180.133 242.992 180.114L246.42 173.861C247.526 171.844 249.637 170.592 251.929 170.592H252.037C255.239 170.595 257.832 173.202 257.836 176.416V189.009C257.836 189.427 258.174 189.764 258.587 189.764C259.004 189.764 259.339 189.424 259.339 189.009V176.412C259.333 173.647 257.783 171.116 255.327 169.87ZM195.542 163.945C195.542 161.11 197.831 158.813 200.654 158.813C203.478 158.813 205.766 161.11 205.766 163.945C205.766 166.779 203.478 169.076 200.654 169.076C197.834 169.073 195.546 166.776 195.542 163.945ZM222.222 157.323C222.222 154.95 224.14 153.029 226.5 153.029C228.864 153.029 230.778 154.954 230.778 157.323C230.778 159.693 228.861 161.618 226.5 161.618C224.136 161.618 222.222 159.696 222.222 157.323ZM219.595 169.079C219.599 165.793 222.252 163.134 225.522 163.13H227.475C230.749 163.134 233.398 165.797 233.402 169.079V172.151H231.074V168.944C231.093 168.526 230.772 168.173 230.355 168.153C229.938 168.133 229.586 168.456 229.567 168.875C229.567 168.898 229.567 168.921 229.567 168.944V172.161H223.417V168.944C223.437 168.526 223.115 168.173 222.698 168.153C222.281 168.133 221.93 168.456 221.91 168.875C221.91 168.898 221.91 168.921 221.91 168.944V172.161H219.592L219.595 169.079ZM247.231 163.945C247.231 161.11 249.519 158.813 252.343 158.813C255.166 158.813 257.455 161.11 257.455 163.945C257.455 166.779 255.166 169.076 252.343 169.076C249.519 169.073 247.231 166.779 247.231 163.945Z" fill="#F0EBF5" stroke="#EFEAF4" stroke-width="0.5" stroke-miterlimit="10"/>
<path d="M211.788 149.039C211.863 149.039 211.935 149.029 212.008 149.006L219.405 146.725C221.604 147.589 223.949 148.027 226.313 148.017C226.884 148.017 227.445 147.991 227.997 147.945C229.809 150.235 233.07 151.643 236.629 151.643C237.926 151.646 239.216 151.455 240.454 151.073L244.765 152.684C245.155 152.829 245.589 152.631 245.733 152.239C245.789 152.084 245.796 151.916 245.75 151.758L244.774 148.502C246.019 147.203 246.702 145.615 246.702 143.99C246.702 141.1 244.564 138.466 241.209 137.178C241.222 136.983 241.229 136.789 241.229 136.594C241.229 130.293 234.537 125.165 226.316 125.165C218.095 125.165 211.403 130.293 211.403 136.594C211.403 138.997 212.349 141.274 214.145 143.209L211.154 147.872C210.927 148.225 211.029 148.69 211.38 148.917C211.502 148.996 211.643 149.039 211.788 149.039ZM245.198 143.993C245.198 145.354 244.581 146.646 243.412 147.731C243.202 147.925 243.12 148.225 243.202 148.502L243.872 150.736L240.739 149.563C240.578 149.5 240.401 149.497 240.237 149.553C239.075 149.942 237.857 150.137 236.632 150.133C233.917 150.133 231.421 149.224 229.816 147.701C235.476 146.653 239.886 143.126 240.972 138.707C243.56 139.808 245.198 141.821 245.198 143.993ZM215.734 143.519C215.928 143.215 215.885 142.82 215.626 142.569C213.846 140.826 212.907 138.766 212.907 136.594C212.907 131.123 218.922 126.677 226.313 126.677C233.703 126.677 239.721 131.127 239.721 136.594C239.721 142.062 233.707 146.511 226.313 146.511C224.057 146.521 221.818 146.086 219.73 145.229C219.569 145.16 219.388 145.153 219.221 145.203L213.538 146.956L215.734 143.519Z" fill="#F0EBF5" stroke="#EFEAF4" stroke-width="0.5" stroke-miterlimit="10"/>
<path d="M233.684 134.4H218.945C218.671 134.4 218.443 134.173 218.443 133.895C218.443 133.617 218.668 133.391 218.945 133.391H233.684C233.959 133.391 234.186 133.615 234.186 133.895C234.186 134.174 233.961 134.4 233.684 134.4Z" fill="#7568F6" stroke="#7568F6" stroke-width="0.5"/>
<path d="M218.933 138.779L218.933 138.779H218.945H233.687C233.962 138.779 234.189 139.006 234.189 139.284C234.189 139.563 233.963 139.789 233.683 139.792H218.945H218.945H218.945H218.945H218.945H218.944H218.944H218.944H218.944H218.944H218.944H218.944H218.943H218.943H218.943H218.943H218.943H218.943H218.943H218.943H218.942H218.942H218.942H218.942H218.942H218.942H218.942H218.941H218.941H218.941H218.941H218.941H218.941H218.941H218.941H218.94H218.94H218.94H218.94H218.94H218.94H218.94H218.939H218.939H218.939H218.939H218.939H218.939H218.939H218.938H218.938H218.938H218.938H218.938H218.938H218.938H218.938H218.937H218.937H218.937H218.937H218.937H218.937H218.937H218.936H218.936H218.936H218.936H218.936H218.936H218.936H218.936H218.935H218.935H218.935H218.935H218.935H218.935H218.935H218.934H218.934H218.934H218.934H218.934H218.934H218.934H218.934H218.933H218.933H218.933H218.933H218.933H218.933H218.933H218.932H218.932H218.932H218.932H218.932H218.932H218.932H218.931H218.931H218.931H218.931H218.931H218.931H218.931H218.931H218.93H218.93H218.93H218.93H218.93H218.93H218.93H218.929H218.929H218.929H218.929H218.929H218.929H218.929H218.929H218.928H218.928H218.928H218.928H218.928H218.928H218.928H218.927H218.927H218.927H218.927H218.927H218.927H218.927H218.927H218.926H218.926H218.926H218.926H218.926H218.926H218.926H218.925H218.925H218.925H218.925H218.925H218.925H218.925H218.924H218.924H218.924H218.924H218.924H218.924H218.924H218.924H218.923H218.923H218.923H218.923H218.923H218.923H218.923H218.922H218.922H218.922H218.922H218.922H218.922H218.922H218.922H218.921H218.921H218.921H218.921H218.921H218.921H218.921H218.92H218.92H218.92H218.92H218.92H218.92H218.92H218.92H218.919H218.919H218.919H218.919H218.919H218.919H218.919H218.918H218.918H218.918H218.918H218.918H218.918H218.918H218.917H218.917H218.917H218.917H218.917H218.917H218.917H218.917H218.916H218.916H218.916H218.916H218.916H218.916H218.916H218.915H218.915H218.915H218.915H218.915H218.915H218.915H218.915H218.914H218.914H218.914H218.914H218.914H218.914H218.914H218.913H218.913H218.913H218.913H218.913H218.913H218.913H218.913H218.912H218.912H218.912H218.912H218.912H218.912H218.912H218.911H218.911H218.911H218.911H218.911H218.911H218.911H218.91H218.91H218.91H218.91H218.91H218.91H218.91H218.91H218.909H218.909H218.909H218.909H218.909H218.909H218.909H218.908H218.908H218.908H218.908H218.908H218.908H218.908H218.908H218.907H218.907H218.907H218.907H218.907H218.907H218.907H218.906H218.906H218.906H218.906H218.906H218.906H218.906H218.905H218.905H218.905H218.905H218.905H218.905H218.905H218.905H218.904H218.904H218.904H218.904H218.904H218.904H218.904H218.903H218.903H218.903H218.903H218.903H218.903H218.903H218.903H218.902H218.902H218.902H218.902H218.902H218.902H218.902H218.901H218.901H218.901H218.901H218.901H218.901H218.901H218.901H218.9H218.9H218.9H218.9H218.9H218.9H218.9H218.899H218.899H218.899H218.899H218.899H218.899H218.899H218.898H218.898H218.898H218.898H218.898H218.898H218.898H218.898H218.897H218.897H218.897H218.897H218.897H218.897H218.897H218.896H218.896H218.896H218.896H218.896H218.896H218.896H218.896H218.895H218.895H218.895H218.895H218.895H218.895H218.895H218.894H218.894H218.894H218.894H218.894H218.894H218.894H218.894H218.893H218.893H218.893H218.893H218.893H218.893H218.893H218.892H218.892H218.892H218.892H218.892H218.892H218.892H218.891H218.891H218.891H218.891H218.891H218.891H218.891H218.891H218.89H218.89H218.89H218.89H218.89H218.89H218.89H218.889H218.889H218.889H218.889H218.889H218.889H218.889H218.889H218.888H218.888H218.888H218.888H218.888H218.888H218.888H218.887H218.887H218.887H218.887H218.887H218.887H218.887H218.887H218.886H218.886H218.886H218.886H218.886H218.886H218.886H218.885H218.885H218.885H218.885H218.885H218.885H218.885H218.884H218.884H218.884H218.884H218.884H218.884H218.884H218.884H218.883H218.883H218.883H218.883H218.883H218.883H218.883C218.606 139.776 218.394 139.542 218.407 139.263C218.42 138.98 218.656 138.766 218.933 138.779Z" fill="#7568F6" stroke="#7568F6" stroke-width="0.5"/>
</g>
<path d="M193.272 248.014V249.22H196.602V248.014H193.272ZM189.114 248.896V250.048H192.912V248.896H189.114ZM193.452 251.344V252.478H196.566V251.344H193.452ZM193.416 254.71V255.844H196.476V254.71H193.416ZM184.542 251.344V252.478H187.602V251.344H184.542ZM184.614 254.692V255.844H187.62V254.692H184.614ZM183.822 248.14L184.182 258.598H185.406L185.082 248.842C185.298 248.806 185.388 248.734 185.424 248.626L183.822 248.14ZM195.864 248.014C195.882 251.326 195.738 255.916 195.54 258.562H196.818C196.998 255.97 197.106 251.398 197.124 248.014H195.864ZM187.134 247.06C186.414 247.546 185.208 248.194 184.164 248.68C184.308 248.95 184.524 249.382 184.596 249.616C185.748 249.184 187.098 248.608 188.196 248.032L187.134 247.06ZM188.52 253.81V258.49H189.636V253.81H188.52ZM188.538 247.042V253.018H192.048V251.92H189.708V247.042H188.538ZM191.382 251.92V258.472H192.552V251.92H191.382ZM182.292 258.022V259.282H198.726V258.022H182.292ZM192.174 260.434C194.1 261.388 196.152 262.612 197.358 263.494L198.618 262.576C197.304 261.676 195.126 260.47 193.128 259.534L192.174 260.434ZM187.458 259.57C186.342 260.56 184.182 261.802 182.436 262.522C182.76 262.774 183.228 263.206 183.462 263.476C185.172 262.72 187.296 261.496 188.718 260.38L187.458 259.57ZM201.372 248.914V250.318H215.7V248.914H201.372ZM200.418 260.722V262.072H216.6V260.722H200.418ZM207.69 249.616V261.28H209.202V249.616H207.69ZM226.266 249.904L225.636 251.2H234.798V249.904H226.266ZM228.516 253.81V255.052H234.384V253.81H228.516ZM228.498 257.77V259.048H234.636V257.77H228.498ZM227.832 250.318V263.44H229.218V250.318H227.832ZM226.95 247.096C226.068 249.742 224.61 252.37 222.972 254.044C223.278 254.26 223.818 254.746 224.016 254.98C225.672 253.126 227.238 250.3 228.264 247.438L226.95 247.096ZM222.63 246.952C221.604 249.688 219.93 252.388 218.13 254.134C218.382 254.458 218.796 255.178 218.922 255.502C220.884 253.486 222.738 250.408 223.926 247.366L222.63 246.952ZM220.704 251.596V263.422H222.072V250.264L222.036 250.246L220.704 251.596ZM243.564 247.438C243.438 249.832 243.438 258.49 236.094 262.234C236.508 262.54 236.958 262.954 237.192 263.296C244.644 259.246 244.914 250.264 245.058 247.438H243.564ZM245.004 247.798L243.708 247.924C243.834 249.58 244.338 259.642 251.97 263.296C252.186 262.918 252.6 262.468 252.996 262.162C245.58 258.76 245.058 249.202 245.004 247.798ZM258.252 248.68H266.802V250.534H258.252V248.68ZM256.902 247.582V251.65H268.224V247.582H256.902ZM257.478 255.916H267.558V257.194H257.478V255.916ZM257.478 258.148H267.558V259.444H257.478V258.148ZM257.478 253.702H267.558V254.962H257.478V253.702ZM256.128 252.694V260.434H268.944V252.694H256.128ZM259.566 260.416C258.432 261.154 256.074 262.018 254.184 262.468C254.508 262.738 254.958 263.17 255.192 263.458C257.046 262.99 259.386 262.126 260.826 261.244L259.566 260.416ZM263.958 261.352C265.866 261.91 268.314 262.846 269.646 263.476L270.816 262.504C269.412 261.91 267 261.028 265.128 260.47L263.958 261.352ZM201.948 279.348V280.428H206.79V279.348H201.948ZM197.628 271.86V272.976H205.872V271.86H197.628ZM195.954 279.348V280.428H200.724V279.348H195.954ZM191.202 274.65V275.892H196.854V274.65H191.202ZM193.434 269.898V286.44H194.748V269.898H193.434ZM200.328 279.348V279.582C200.202 283.488 200.058 284.892 199.806 285.198C199.698 285.36 199.59 285.396 199.392 285.396C199.176 285.396 198.762 285.396 198.258 285.342C198.438 285.63 198.528 286.098 198.546 286.422C199.068 286.458 199.572 286.458 199.896 286.404C200.274 286.386 200.544 286.26 200.778 285.954C201.156 285.468 201.3 284.028 201.444 279.888C201.462 279.726 201.462 279.348 201.462 279.348H200.328ZM206.412 279.348V279.582C206.286 283.488 206.16 284.874 205.926 285.18C205.8 285.342 205.692 285.36 205.476 285.36C205.26 285.36 204.792 285.36 204.234 285.306C204.396 285.612 204.504 286.08 204.54 286.422C205.116 286.458 205.674 286.458 206.016 286.404C206.412 286.368 206.664 286.26 206.916 285.954C207.294 285.468 207.42 284.01 207.546 279.888C207.564 279.726 207.564 279.348 207.564 279.348H206.412ZM205.602 271.86V272.04C205.404 274.506 205.188 275.496 204.882 275.784C204.756 275.91 204.612 275.928 204.342 275.928C204.054 275.928 203.334 275.928 202.596 275.856C202.794 276.162 202.92 276.648 202.956 277.008C203.712 277.062 204.45 277.044 204.846 277.026C205.314 276.99 205.62 276.882 205.908 276.576C206.34 276.144 206.574 275.064 206.808 272.4C206.826 272.22 206.862 271.86 206.862 271.86H205.602ZM201.336 269.88C201.138 273.066 200.4 275.244 196.926 276.45C197.16 276.666 197.484 277.116 197.61 277.404C201.372 276 202.362 273.534 202.614 269.88H201.336ZM197.844 277.494C197.754 281.004 197.448 283.956 195.45 285.648C195.702 285.828 196.044 286.224 196.206 286.476C198.438 284.568 198.924 281.364 199.032 277.494H197.844ZM203.766 277.458C203.694 281.058 203.352 283.938 201.246 285.576C201.516 285.774 201.876 286.17 202.038 286.44C204.36 284.55 204.864 281.436 204.972 277.458H203.766ZM209.724 271.59V272.832H225.294V271.59H209.724ZM216.744 269.898V272.31H218.13V269.898H216.744ZM210.498 274.74V286.422H211.776V275.946H224.088V274.74H210.498ZM223.368 274.74V284.784C223.368 285.054 223.278 285.144 222.954 285.144C222.63 285.162 221.55 285.18 220.38 285.126C220.56 285.486 220.776 286.098 220.83 286.458C222.324 286.458 223.314 286.422 223.908 286.224C224.484 286.008 224.664 285.576 224.664 284.784V274.74H223.368ZM215.034 275.622C214.89 277.512 214.314 278.412 211.884 278.898C212.118 279.114 212.424 279.582 212.55 279.87C215.322 279.204 216.078 277.98 216.258 275.622H215.034ZM218.382 275.622V277.746C218.382 278.862 218.67 279.15 219.966 279.15C220.218 279.15 221.568 279.15 221.838 279.15C222.792 279.15 223.116 278.79 223.224 277.332C222.9 277.26 222.414 277.098 222.18 276.918C222.126 277.998 222.054 278.106 221.676 278.106C221.388 278.106 220.326 278.106 220.092 278.106C219.642 278.106 219.57 278.07 219.57 277.728V275.622H218.382ZM214.152 280.086V285.612H215.358V280.086H214.152ZM214.872 280.086V281.148H219.768V283.452H214.872V284.514H220.992V280.086H214.872ZM213.18 272.832C213.576 273.534 213.972 274.47 214.134 275.082L215.502 274.758C215.322 274.164 214.908 273.246 214.494 272.562L213.18 272.832ZM220.434 272.508C220.182 273.174 219.714 274.182 219.336 274.812L220.65 275.082C221.028 274.488 221.478 273.642 221.91 272.778L220.434 272.508ZM240.288 269.898V284.586C240.288 284.928 240.162 285.018 239.82 285.036C239.46 285.036 238.308 285.054 237.084 285.018C237.282 285.414 237.498 286.062 237.57 286.44C239.136 286.44 240.198 286.404 240.792 286.17C241.386 285.936 241.602 285.54 241.602 284.586V269.898H240.288ZM235.428 277.71C236.31 279.024 237.282 280.806 237.678 281.958L238.866 281.328C238.452 280.176 237.48 278.448 236.544 277.17L235.428 277.71ZM234.564 274.038V275.316H243.816V274.038H234.564ZM228.03 275.334V276.414H233.646V275.334H228.03ZM228.138 270.528V271.608H233.664V270.528H228.138ZM228.03 277.746V278.826H233.646V277.746H228.03ZM227.184 272.886V274.002H234.312V272.886H227.184ZM228.66 280.176V281.292H232.386V284.298H228.66V285.432H233.592V280.176H228.66ZM228.012 280.176V286.26H229.218V280.176H228.012ZM256.38 271.176C257.478 272.832 259.458 274.776 261.24 275.946C261.438 275.586 261.744 275.1 261.996 274.776C260.178 273.732 258.198 271.824 256.956 269.934H255.696C254.778 271.698 252.852 273.804 250.872 275.01C251.124 275.298 251.43 275.784 251.574 276.108C253.554 274.83 255.39 272.832 256.38 271.176ZM252.042 277.548V286.404H253.194V278.682H260.592V277.548H252.042ZM259.782 277.548V285.126C259.782 285.288 259.746 285.342 259.584 285.342C259.422 285.36 258.99 285.36 258.468 285.342C258.63 285.648 258.792 286.116 258.828 286.422C259.602 286.422 260.142 286.404 260.502 286.206C260.88 286.026 260.97 285.702 260.97 285.144V277.548H259.782ZM254.706 277.872V286.188H255.66V277.872H254.706ZM257.208 277.872V286.188H258.18V277.872H257.208ZM253.374 274.848V275.982H259.566V274.848H253.374ZM252.582 281.238V282.354H260.484V281.238H252.582ZM245.958 275.334V276.414H250.818V275.334H245.958ZM246.048 270.528V271.608H250.746V270.528H246.048ZM245.958 277.746V278.826H250.818V277.746H245.958ZM245.184 272.886V274.002H251.34V272.886H245.184ZM246.588 280.176V281.292H249.684V284.298H246.588V285.414H250.818V280.176H246.588ZM245.922 280.176V286.26H247.074V280.176H245.922Z" fill="#F0EBF5"/>
<line x1="123.098" y1="161" x2="167.098" y2="161" stroke="#F0EBF5" stroke-width="4"/>
<line x1="508.5" y1="61" x2="547.5" y2="61" stroke="#F0EBF5" stroke-width="4" stroke-dasharray="6 6"/>
<line x1="274.538" y1="125.247" x2="387.538" y2="63.2466" stroke="#F0EBF5" stroke-width="4"/>
<line y1="-2" x2="128.891" y2="-2" transform="matrix(-0.876707 -0.481025 -0.481025 0.876707 386.5 262)" stroke="#F0EBF5" stroke-width="4"/>
<circle cx="448.5" cy="62" r="60.5" stroke="#F0EBF5" stroke-width="3"/>
<g clip-path="url(#clip1_4497_29204)">
<path d="M443.408 80.9932C444.278 80.1224 444.756 78.9667 444.756 77.7368C444.756 76.8953 444.514 76.1143 444.117 75.4365H447.533C448.763 75.4365 449.918 74.9585 450.786 74.09C451.657 73.2193 452.135 72.0658 452.132 70.8359C452.132 69.6061 451.655 68.4504 450.786 67.5819C449.916 66.7111 448.763 66.2331 447.531 66.2331H444.594C444.998 65.5397 445.232 64.7564 445.232 63.9328C445.232 62.703 444.754 61.5472 443.883 60.6765C443.015 59.808 441.86 59.3277 440.63 59.33H436.543C436.946 58.6365 437.18 57.8533 437.18 57.0274C437.18 55.7976 436.702 54.6418 435.834 53.7733C434.963 52.9026 433.81 52.4246 432.581 52.4268H421.043L415.463 46.841C415.014 46.3922 414.285 46.3922 413.837 46.841C413.388 47.2899 413.388 48.0192 413.837 48.4681L418.164 52.7971C416.526 53.5175 415.324 55.1827 415.324 57.0229C415.326 59.045 416.643 60.746 418.456 61.3632C417.935 62.106 417.623 62.9947 417.623 63.9306C417.623 65.9369 418.922 67.629 420.715 68.2574C420.203 69.0114 419.923 69.9024 419.923 70.8337C419.923 72.84 421.222 74.5321 423.017 75.1605C422.503 75.9168 422.225 76.8055 422.225 77.7368C422.225 78.9667 422.703 80.1224 423.571 80.9909C424.441 81.8617 425.595 82.3397 426.826 82.3397H440.152C441.384 82.3419 442.539 81.8617 443.408 80.9932ZM417.623 57.0252C417.623 56.4103 417.864 55.8335 418.299 55.3981C418.734 54.9628 419.311 54.7226 419.925 54.7226H420.565H432.581C433.195 54.7226 433.772 54.9628 434.207 55.3959C434.642 55.829 434.88 56.408 434.88 57.0229C434.88 58.2528 433.808 59.3232 432.581 59.3232H419.925C418.658 59.3255 417.626 58.2931 417.623 57.0252ZM419.925 63.9306C419.925 63.3157 420.165 62.7367 420.601 62.3013C421.036 61.8659 421.612 61.628 422.227 61.628H440.632C441.247 61.628 441.824 61.8681 442.259 62.3013C442.694 62.7367 442.934 63.3134 442.934 63.9306C442.934 65.1604 441.862 66.2309 440.635 66.2309H433.474H424.527C424.524 66.2309 424.524 66.2309 424.524 66.2309H422.227C420.957 66.2309 419.925 65.1985 419.925 63.9306ZM422.225 70.8337C422.225 70.2188 422.465 69.642 422.9 69.2067C423.333 68.7735 423.91 68.5334 424.522 68.5312H433.474H447.533C448.148 68.5312 448.725 68.769 449.16 69.2044C449.595 69.6398 449.833 70.2166 449.833 70.8315C449.833 72.0613 448.761 73.1318 447.533 73.1318H440.159C440.159 73.1318 440.157 73.1318 440.155 73.1318H433.492H424.527C423.259 73.134 422.227 72.1017 422.225 70.8337ZM425.2 79.3661C424.764 78.9308 424.527 78.354 424.527 77.7391C424.527 77.1242 424.767 76.5474 425.202 76.112C425.637 75.6767 426.214 75.4365 426.828 75.4365H427.766H440.161C441.427 75.4388 442.456 76.4689 442.456 77.7368C442.456 78.9667 441.384 80.0394 440.155 80.0394H426.828C426.214 80.0394 425.635 79.7993 425.2 79.3661Z" fill="#F0EBF5"/>
<path d="M457.739 43.6115C458.188 44.0604 458.917 44.0626 459.365 43.6115C459.814 43.1627 459.814 42.4333 459.365 41.9845C453.485 36.1025 447.567 35.0926 444.029 34.4889C442.997 34.3116 441.714 34.0917 441.469 33.8493L434.961 27.3366C434.512 26.8878 433.783 26.8878 433.334 27.3366C432.883 27.7877 432.886 28.5148 433.334 28.9637L439.843 35.4741C440.603 36.2349 441.88 36.4548 443.643 36.7555C447.121 37.3502 452.375 38.2479 457.739 43.6115Z" fill="#7568F6"/>
<path d="M459.388 92.4091C458.94 92.858 458.94 93.5873 459.388 94.0362L461.015 95.6632C461.463 96.112 462.193 96.112 462.641 95.6632C463.09 95.2144 463.09 94.485 462.641 94.0362L461.015 92.4091C460.566 91.958 459.837 91.958 459.388 92.4091Z" fill="#F0EBF5"/>
<path d="M456.698 46.5513C453.51 47.1887 444.015 49.7134 443.544 49.8413C442.73 50.1129 442.165 50.7547 441.954 51.6479C441.498 53.5734 442.786 56.3203 443.908 57.4424C445.471 59.0066 447.517 58.8585 449.685 58.7036C450.436 58.6498 451.212 58.5937 452.042 58.5937H460.177C460.716 58.5937 461.225 58.5937 461.337 58.6363C461.398 58.6677 461.573 58.8383 461.743 59.0088C462.066 59.7158 462.282 62.9362 462.282 65.526L461.467 82.6626C461.463 83.1317 461.308 83.9777 460.992 84.2942L453.671 91.617C452.774 92.5147 451.316 92.5147 450.418 91.617C449.521 90.7193 449.521 89.2606 450.418 88.3629L456.112 82.6671C457.229 81.5495 457.261 79.6285 457.263 79.4131V68.0215C457.263 67.3864 456.747 66.8725 456.112 66.8703C455.475 66.8703 454.961 67.3842 454.961 68.0215V79.4086C454.957 79.8776 454.802 80.7237 454.486 81.0401L448.792 86.7359L446.351 89.1775C445.453 90.0752 443.995 90.0752 443.098 89.1775C442.2 88.2799 442.2 86.8211 443.098 85.9235L449.606 79.4131C450.055 78.9642 450.055 78.2349 449.606 77.786C449.157 77.3372 448.428 77.3372 447.98 77.786L441.471 84.2964L439.03 86.7381C438.133 87.6358 436.675 87.6358 435.777 86.7381C435.376 86.3364 435.138 85.8045 435.107 85.239C435.071 84.6039 434.53 84.1169 433.895 84.1528C433.26 84.1887 432.776 84.7318 432.809 85.3647C432.872 86.498 433.348 87.5617 434.151 88.3651C435.829 90.0438 438.476 90.1313 440.282 88.6726C440.477 89.4536 440.863 90.1964 441.471 90.8046C443.149 92.4832 445.797 92.5708 447.603 91.112C447.798 91.893 448.184 92.6358 448.792 93.244C450.586 95.0394 453.505 95.0394 455.3 93.244L462.62 85.9212C463.738 84.8036 463.769 82.8826 463.769 82.721L464.583 65.5798C464.583 58.5937 463.717 57.7274 463.433 57.4424C462.353 56.3629 462.017 56.2911 460.18 56.2911H452.042C451.129 56.2911 450.275 56.354 449.519 56.4056C447.439 56.5537 446.317 56.5963 445.534 55.8131C444.507 54.7853 443.883 52.4087 444.202 52.0429C444.298 52.0159 454.028 49.4284 457.146 48.8045C460.653 48.1021 465.274 47.8956 469.936 52.559C473.427 56.051 475.415 63.5331 476.732 68.4816C477.672 72.0184 478.156 73.7509 478.908 74.505L480.534 76.132C480.983 76.5809 481.712 76.5809 482.161 76.132C482.61 75.6832 482.61 74.9538 482.161 74.505L480.543 72.8869C480.164 72.4403 479.52 70.0233 478.955 67.8914C477.492 62.3931 475.493 54.8616 471.563 50.932C466.073 45.4382 460.449 45.8018 456.698 46.5513Z" fill="#F0EBF5"/>
</g>
<path d="M410.106 147.15C408.018 147.798 404.148 148.248 400.962 148.446C401.106 148.752 401.286 149.238 401.34 149.544C404.58 149.364 408.54 148.95 411.042 148.212L410.106 147.15ZM401.214 150.552C401.826 151.632 402.348 153.054 402.51 153.972L403.68 153.594C403.5 152.694 402.924 151.29 402.312 150.246L401.214 150.552ZM404.868 150.012C405.318 151.092 405.66 152.514 405.714 153.378L406.938 153.108C406.866 152.226 406.488 150.858 406.02 149.778L404.868 150.012ZM410.322 149.544C409.782 150.912 408.792 152.856 408.018 154.026L409.062 154.476C409.854 153.342 410.844 151.542 411.582 150.03L410.322 149.544ZM401.034 155.772V156.978H411.546V155.772H401.034ZM405.624 153.774V163.35H406.92V153.774H405.624ZM405.066 156.438C404.04 158.436 402.006 160.362 399.99 161.298C400.296 161.532 400.71 162 400.908 162.342C402.978 161.244 405.03 159.12 406.146 156.816L405.066 156.438ZM407.478 156.492L406.416 156.87C407.46 159.012 409.386 161.172 411.186 162.288C411.402 161.982 411.798 161.514 412.104 161.28C410.322 160.326 408.45 158.382 407.478 156.492ZM394.986 156.222L395.346 157.536C396.876 157.05 398.856 156.402 400.728 155.754L400.548 154.512C398.496 155.178 396.39 155.826 394.986 156.222ZM395.238 150.516V151.776H400.71V150.516H395.238ZM397.506 146.898V161.874C397.506 162.144 397.398 162.198 397.182 162.198C396.966 162.216 396.282 162.216 395.49 162.198C395.67 162.576 395.832 163.134 395.886 163.458C397.02 163.458 397.722 163.422 398.136 163.206C398.586 162.99 398.766 162.63 398.766 161.874V146.898H397.506ZM421.698 149.364V150.678H428.34V149.364H421.698ZM413.346 148.014V149.274H422.148V148.014H413.346ZM415.452 151.668V152.91H420.132V151.668H415.452ZM415.452 155.412V156.636H420.132V155.412H415.452ZM427.944 149.364V149.688C427.17 156.006 424.488 160.236 420.924 162.09C421.23 162.342 421.608 162.846 421.824 163.188C425.676 160.956 428.43 156.726 429.294 149.562L428.43 149.328L428.178 149.364H427.944ZM423.336 150.75L422.04 151.002C423.156 156.654 425.226 161.046 429.132 163.26C429.348 162.9 429.78 162.396 430.086 162.126C426.378 160.218 424.29 155.952 423.336 150.75ZM414.75 148.5V160.182H416.046V148.5H414.75ZM419.574 148.5V163.404H420.87V148.5H419.574ZM412.986 159.786L413.238 161.136C415.11 160.848 417.702 160.434 420.168 160.038L420.096 158.796C417.468 159.192 414.75 159.57 412.986 159.786ZM434.91 153.99H431.328V155.25H433.614V160.362H434.91V153.99ZM434.91 159.822H433.74C432.894 160.596 431.922 161.406 431.13 161.982L431.832 163.296C432.732 162.504 433.56 161.73 434.352 160.956C435.468 162.378 437.106 163.008 439.482 163.098C441.498 163.188 445.35 163.152 447.384 163.062C447.438 162.666 447.654 162.036 447.816 161.73C445.638 161.874 441.48 161.928 439.482 161.838C437.34 161.766 435.756 161.154 434.91 159.822ZM431.49 148.086C432.588 148.968 433.83 150.228 434.334 151.128L435.45 150.282C434.892 149.4 433.632 148.158 432.516 147.348L431.49 148.086ZM435.936 148.41V149.508H447.528V148.41H435.936ZM438.456 153.666V154.566H444.9V153.666H438.456ZM440.958 146.88V149.076H442.254V146.88H440.958ZM441.138 152.334V156.15H442.182V152.334H441.138ZM436.584 151.344V160.776H437.826V152.424H446.124V151.344H436.584ZM439.266 155.862V159.84H440.274V155.862H439.266ZM439.806 155.862V156.726H443.118V158.292H439.806V159.138H444.126V155.862H439.806ZM445.638 151.344V159.318C445.638 159.534 445.566 159.588 445.35 159.606C445.116 159.624 444.414 159.624 443.604 159.588C443.766 159.93 443.946 160.416 444.018 160.758C445.08 160.758 445.818 160.74 446.304 160.542C446.772 160.326 446.88 160.002 446.88 159.336V151.344H445.638ZM443.928 149.274C443.73 149.85 443.316 150.732 443.01 151.308L444.09 151.614C444.432 151.092 444.81 150.354 445.206 149.616L443.928 149.274ZM438.186 149.652C438.546 150.264 438.888 151.056 438.996 151.596L440.166 151.272C440.058 150.732 439.698 149.94 439.32 149.364L438.186 149.652ZM456.852 157.518V162.45H458.166V157.518H456.852ZM454.134 153.162H460.938V154.872H454.134V153.162ZM452.874 152.136V155.916H462.288V152.136H452.874ZM451.218 156.96V163.494H452.514V158.004H462.72V163.44H464.07V156.96H451.218ZM451.974 159.444V160.434H463.206V159.444H451.974ZM451.974 161.928V162.972H463.206V161.928H451.974ZM456.762 146.88V150.264H458.13V146.88H456.762ZM449.976 149.652V153.378H451.272V150.84H463.836V153.378H465.186V149.652H449.976ZM451.47 147.6C452.046 148.302 452.694 149.292 452.982 149.922L454.242 149.346C453.918 148.716 453.27 147.798 452.658 147.114L451.47 147.6ZM462.27 147.042C461.91 147.762 461.208 148.788 460.668 149.454L461.784 149.868C462.342 149.274 463.044 148.374 463.656 147.51L462.27 147.042ZM474.33 147.978V149.274H483.168V147.978H474.33ZM479.586 153.342V161.694C479.586 162 479.478 162.072 479.118 162.09C478.794 162.108 477.588 162.108 476.31 162.072C476.508 162.468 476.688 163.026 476.742 163.404C478.506 163.404 479.532 163.386 480.144 163.188C480.756 162.972 480.954 162.558 480.954 161.712V153.342H479.586ZM473.538 152.946V154.224H483.69V152.946H473.538ZM469.938 154.332V163.494H471.288V153.234L471.126 153.162L469.938 154.332ZM472.026 150.732C470.784 152.802 468.804 154.89 466.932 156.222C467.22 156.474 467.688 157.068 467.886 157.338C469.776 155.826 471.9 153.504 473.304 151.218L472.026 150.732ZM471.288 146.88C470.37 148.176 468.624 149.796 467.13 150.804C467.364 151.074 467.724 151.596 467.922 151.884C469.524 150.732 471.378 148.986 472.584 147.402L471.288 146.88ZM485.742 158.652V159.678H493.95V158.652H485.742ZM485.256 149.976V151.02H494.238V149.976H485.256ZM489.162 148.338V161.586H490.404V148.338H489.162ZM485.238 161.622L485.436 162.792C487.722 162.558 490.98 162.18 494.04 161.82L494.022 160.758C490.8 161.1 487.434 161.424 485.238 161.622ZM486.912 155.286H492.744V156.618H486.912V155.286ZM486.912 153.09H492.744V154.386H486.912V153.09ZM485.778 152.154V157.554H493.896V152.154H485.778ZM493.248 147.06C491.394 147.492 488.118 147.816 485.436 147.96C485.58 148.23 485.706 148.68 485.76 148.968C488.46 148.878 491.808 148.572 493.932 148.104L493.248 147.06ZM494.112 151.092V152.352H500.61V151.092H494.112ZM500.088 151.092V151.416C499.89 158.706 499.692 161.298 499.242 161.856C499.08 162.09 498.9 162.144 498.612 162.144C498.252 162.144 497.46 162.126 496.578 162.054C496.794 162.414 496.938 162.972 496.974 163.35C497.802 163.404 498.666 163.404 499.17 163.35C499.71 163.296 500.07 163.134 500.394 162.666C500.988 161.892 501.168 159.372 501.366 151.776C501.366 151.596 501.384 151.092 501.384 151.092H500.088ZM496.29 147.114C496.272 153.918 496.362 159.624 492.24 162.576C492.564 162.792 493.032 163.224 493.248 163.548C497.55 160.326 497.568 154.278 497.586 147.114H496.29Z" fill="#F0EBF5"/>
<circle cx="448.5" cy="264" r="60.5" stroke="#F0EBF5" stroke-width="3"/>
<g clip-path="url(#clip2_4497_29204)">
<path d="M465.644 248.286H458.672C458.14 245.682 455.834 243.716 453.073 243.716H443.929C441.17 243.716 438.862 245.682 438.33 248.286H431.357C430.725 248.286 430.214 248.798 430.214 249.429V294H432.501V250.572H464.501V294H466.786V249.429C466.786 248.798 466.275 248.286 465.644 248.286ZM443.929 246.001H453.073C454.561 246.001 455.817 246.961 456.291 248.286H440.712C441.183 246.959 442.441 246.001 443.929 246.001Z" fill="#F0EBF5"/>
<path d="M448.5 241.428C451.652 241.428 454.215 238.865 454.215 235.713C454.215 232.562 451.652 230 448.5 230C445.349 230 442.785 232.564 442.785 235.715C442.785 238.867 445.351 241.428 448.5 241.428ZM448.5 232.285C450.39 232.285 451.928 233.824 451.928 235.713C451.928 237.603 450.39 239.141 448.5 239.141C446.611 239.141 445.072 237.603 445.072 235.713C445.072 233.824 446.611 232.285 448.5 232.285Z" fill="#F0EBF5"/>
<path d="M469.071 257.43C469.071 260.581 471.635 263.145 474.786 263.145C477.938 263.145 480.502 260.581 480.502 257.43C480.502 254.278 477.938 251.714 474.786 251.714C471.635 251.714 469.071 254.278 469.071 257.43ZM478.214 257.43C478.214 259.319 476.676 260.857 474.786 260.857C472.897 260.857 471.358 259.319 471.358 257.43C471.358 255.54 472.897 254.002 474.786 254.002C476.676 254 478.214 255.538 478.214 257.43Z" fill="#F0EBF5"/>
<path d="M422.215 251.714C419.064 251.714 416.5 254.278 416.5 257.43C416.5 260.581 419.064 263.145 422.215 263.145C425.367 263.145 427.93 260.581 427.93 257.43C427.93 254.278 425.365 251.714 422.215 251.714ZM422.215 260.857C420.326 260.857 418.787 259.319 418.787 257.43C418.787 255.54 420.326 254.002 422.215 254.002C424.105 254.002 425.643 255.54 425.643 257.43C425.643 259.319 424.105 260.857 422.215 260.857Z" fill="#F0EBF5"/>
<path d="M474.786 266.572C471.635 266.572 469.071 269.136 469.071 272.287C469.071 275.439 471.635 278.003 474.786 278.003C477.938 278.003 480.502 275.439 480.502 272.287C480.502 269.136 477.936 266.572 474.786 266.572ZM474.786 275.714C472.897 275.714 471.358 274.175 471.358 272.286C471.358 270.396 472.897 268.858 474.786 268.858C476.676 268.858 478.214 270.396 478.214 272.286C478.214 274.175 476.676 275.714 474.786 275.714Z" fill="#F0EBF5"/>
<path d="M422.215 266.572C419.064 266.572 416.5 269.136 416.5 272.286C416.5 275.435 419.064 278.001 422.215 278.001C425.367 278.001 427.93 275.437 427.93 272.286C427.93 269.134 425.365 266.572 422.215 266.572ZM422.215 275.714C420.326 275.714 418.787 274.175 418.787 272.286C418.787 270.396 420.326 268.858 422.215 268.858C424.105 268.858 425.643 270.396 425.643 272.286C425.643 274.175 424.105 275.714 422.215 275.714Z" fill="#F0EBF5"/>
<path d="M474.786 281.429C471.635 281.429 469.071 283.992 469.071 287.144C469.071 290.296 471.635 292.859 474.786 292.859C477.938 292.859 480.502 290.296 480.502 287.144C480.502 283.992 477.936 281.429 474.786 281.429ZM474.786 290.572C472.897 290.572 471.358 289.033 471.358 287.144C471.358 285.254 472.897 283.716 474.786 283.716C476.676 283.716 478.214 285.254 478.214 287.144C478.214 289.033 476.676 290.572 474.786 290.572Z" fill="#F0EBF5"/>
<path d="M422.215 281.429C419.064 281.429 416.5 283.992 416.5 287.144C416.5 290.296 419.064 292.859 422.215 292.859C425.367 292.859 427.93 290.296 427.93 287.144C427.93 283.992 425.365 281.429 422.215 281.429ZM422.215 290.572C420.326 290.572 418.787 289.033 418.787 287.144C418.787 285.254 420.326 283.716 422.215 283.716C424.105 283.716 425.643 285.254 425.643 287.144C425.643 289.033 424.105 290.572 422.215 290.572Z" fill="#F0EBF5"/>
<path d="M422.215 238H429.073C429.704 238 430.215 238.512 430.215 239.143C430.215 239.774 429.704 240.286 429.073 240.286H422.215C421.584 240.286 421.072 239.774 421.072 239.143C421.07 238.512 421.582 238 422.215 238Z" fill="#7568F6"/>
<path d="M465.644 234.571H472.501C473.133 234.571 473.644 235.082 473.644 235.713C473.644 236.345 473.133 236.856 472.501 236.856H465.644C465.013 236.856 464.501 236.345 464.501 235.713C464.501 235.082 465.013 234.571 465.644 234.571Z" fill="#7568F6"/>
<path d="M420.158 248.971C420.378 249.264 420.72 249.429 421.072 249.429C421.192 249.429 421.315 249.41 421.433 249.371C421.9 249.214 422.215 248.779 422.215 248.286V244.856H433.644C434.275 244.856 434.786 244.345 434.786 243.714V234.57C434.786 233.939 434.275 233.428 433.644 233.428H417.643C417.012 233.428 416.5 233.941 416.5 234.57V243.714C416.5 243.96 416.58 244.201 416.728 244.399L420.158 248.971ZM418.785 235.715H432.501V242.573H421.071C420.44 242.573 419.928 243.084 419.928 243.715V244.858L418.785 243.334V235.715Z" fill="#F0EBF5"/>
<path d="M456.5 241.428H477.072C477.703 241.428 478.215 240.917 478.215 240.286V231.143C478.215 230.512 477.703 230 477.072 230H461.071C460.44 230 459.928 230.512 459.928 231.143V236.286L455.813 239.373C455.419 239.668 455.259 240.181 455.414 240.648C455.573 241.115 456.008 241.428 456.5 241.428ZM461.758 237.771C462.046 237.556 462.216 237.216 462.216 236.856V232.285H475.929V239.143H459.928L461.758 237.771Z" fill="#F0EBF5"/>
<path d="M441.631 257.267C441.565 256.808 441.227 256.432 440.777 256.32L436.642 255.286C436.401 255.226 436.156 255.372 436.097 255.613L435.76 256.957C435.701 257.198 435.846 257.442 436.087 257.502L439.185 258.277C439.362 258.322 439.495 258.469 439.521 258.65L440.251 263.774C440.29 264.044 440.079 264.287 439.806 264.287C439.558 264.287 439.356 264.489 439.356 264.737V266.124C439.356 266.373 439.558 266.574 439.806 266.574H443.479C443.727 266.574 443.929 266.373 443.929 266.124V264.737C443.929 264.489 443.727 264.287 443.479 264.287H443.023C442.799 264.287 442.611 264.123 442.579 263.901L441.631 257.267Z" fill="#F0EBF5"/>
<path d="M441.631 270.981C441.565 270.521 441.227 270.146 440.777 270.034L436.642 269C436.401 268.94 436.156 269.086 436.097 269.326L435.76 270.671C435.701 270.912 435.846 271.156 436.087 271.216L439.185 271.991C439.362 272.036 439.495 272.183 439.521 272.364L440.251 277.487C440.29 277.758 440.079 278.001 439.806 278.001C439.558 278.001 439.356 278.203 439.356 278.451V279.838C439.356 280.086 439.558 280.288 439.806 280.288H443.479C443.727 280.288 443.929 280.086 443.929 279.838V278.451C443.929 278.203 443.727 278.001 443.479 278.001H443.023C442.799 278.001 442.611 277.837 442.579 277.614L441.631 270.981Z" fill="#F0EBF5"/>
<path d="M441.631 284.695C441.565 284.235 441.227 283.86 440.777 283.748L436.642 282.714C436.401 282.654 436.156 282.799 436.097 283.04L435.76 284.385C435.701 284.625 435.846 284.87 436.087 284.93L439.185 285.705C439.362 285.749 439.495 285.897 439.521 286.078L440.251 291.201C440.29 291.472 440.079 291.715 439.806 291.715C439.558 291.715 439.356 291.916 439.356 292.165V293.552C439.356 293.8 439.558 294.002 439.806 294.002H443.479C443.727 294.002 443.929 293.8 443.929 293.552V292.165C443.929 291.916 443.727 291.715 443.479 291.715H443.023C442.799 291.715 442.611 291.551 442.579 291.328L441.631 284.695Z" fill="#F0EBF5"/>
<path d="M456.222 256.32C455.77 256.434 455.434 256.807 455.369 257.267L454.422 263.899C454.39 264.121 454.2 264.285 453.978 264.285H453.522C453.274 264.285 453.072 264.487 453.072 264.735V266.122C453.072 266.371 453.274 266.572 453.522 266.572H457.195C457.443 266.572 457.645 266.371 457.645 266.122V264.735C457.645 264.487 457.443 264.285 457.195 264.285C456.92 264.285 456.711 264.042 456.75 263.772L457.482 258.648C457.508 258.467 457.641 258.32 457.818 258.275L460.916 257.5C461.157 257.44 461.302 257.196 461.243 256.955L460.907 255.611C460.847 255.37 460.602 255.224 460.361 255.284L456.222 256.32Z" fill="#F0EBF5"/>
<path d="M456.222 270.034C455.77 270.148 455.434 270.521 455.369 270.981L454.422 277.613C454.39 277.835 454.2 277.999 453.978 277.999H453.522C453.274 277.999 453.072 278.201 453.072 278.449V279.836C453.072 280.085 453.274 280.286 453.522 280.286H457.195C457.443 280.286 457.645 280.085 457.645 279.836V278.449C457.645 278.201 457.443 277.999 457.195 277.999C456.92 277.999 456.711 277.756 456.75 277.486L457.482 272.362C457.508 272.181 457.641 272.034 457.818 271.989L460.916 271.214C461.157 271.154 461.302 270.91 461.243 270.669L460.907 269.325C460.847 269.084 460.602 268.938 460.361 268.998L456.222 270.034Z" fill="#F0EBF5"/>
<path d="M461.241 284.387L460.905 283.042C460.845 282.801 460.6 282.656 460.36 282.716L456.224 283.75C455.772 283.864 455.436 284.237 455.371 284.697L454.422 291.328C454.39 291.551 454.2 291.715 453.978 291.715H453.522C453.274 291.715 453.072 291.917 453.072 292.165V293.552C453.072 293.8 453.274 294.002 453.522 294.002H457.195C457.443 294.002 457.645 293.8 457.645 293.552V292.165C457.645 291.917 457.443 291.715 457.195 291.715C456.92 291.715 456.711 291.472 456.75 291.201L457.482 286.078C457.508 285.897 457.641 285.75 457.818 285.705L460.916 284.93C461.155 284.872 461.301 284.627 461.241 284.387Z" fill="#F0EBF5"/>
<path d="M449.193 252.857H447.805C447.557 252.857 447.355 253.059 447.355 253.307V259.265C447.355 259.513 447.154 259.715 446.905 259.715H446.661C446.413 259.715 446.211 259.916 446.211 260.165V261.552C446.211 261.8 446.413 262.002 446.661 262.002H450.333C450.582 262.002 450.783 261.8 450.783 261.552V260.165C450.783 259.916 450.582 259.715 450.333 259.715H450.089C449.841 259.715 449.639 259.513 449.639 259.265V253.307C449.643 253.059 449.441 252.857 449.193 252.857Z" fill="#F0EBF5"/>
<path d="M448.5 264.285C449.131 264.285 449.643 264.797 449.643 265.428C449.643 266.059 449.131 266.57 448.5 266.57C447.869 266.57 447.357 266.059 447.357 265.428C447.357 264.797 447.869 264.285 448.5 264.285Z" fill="#F0EBF5"/>
<path d="M448.5 268.858C449.131 268.858 449.643 269.369 449.643 270.001C449.643 270.632 449.131 271.143 448.5 271.143C447.869 271.143 447.357 270.632 447.357 270.001C447.357 269.369 447.869 268.858 448.5 268.858Z" fill="#F0EBF5"/>
<path d="M448.5 273.428C449.131 273.428 449.643 273.94 449.643 274.571C449.643 275.202 449.131 275.714 448.5 275.714C447.869 275.714 447.357 275.202 447.357 274.571C447.357 273.94 447.869 273.428 448.5 273.428Z" fill="#F0EBF5"/>
</g>
<path d="M417.018 356.854V357.97H425.946V356.854H417.018ZM416.676 359.932V361.084H426.324V359.932H416.676ZM422.67 357.214V365.116H423.894V357.214H422.67ZM418.98 357.268V360.544C418.98 361.534 418.602 363.442 416.784 364.558C417.09 364.738 417.504 365.116 417.684 365.368C419.718 364 420.15 361.642 420.15 360.544V357.268H418.98ZM414.786 352.156V353.128H419.844V352.156H414.786ZM423.084 352.156V353.128H428.178V352.156H423.084ZM427.656 349.654V363.694C427.656 363.964 427.566 364.072 427.278 364.072C426.99 364.09 426.018 364.09 425.028 364.054C425.226 364.432 425.406 365.062 425.46 365.422C426.828 365.422 427.728 365.404 428.268 365.17C428.808 364.936 428.988 364.504 428.988 363.694V349.654H427.656ZM414.894 349.654V350.698H419.394V354.694H414.894V355.72H420.672V349.654H414.894ZM428.304 349.654H422.256V355.738H428.304V354.712H423.552V350.698H428.304V349.654ZM414.084 349.654V365.458H415.416V349.654H414.084ZM434.586 355.036H444.468V357.754H434.586V355.036ZM433.434 354.118V358.672H445.692V354.118H433.434ZM436.386 352.174V353.128H442.668V352.174H436.386ZM438.852 354.406V358.168H440.004V354.406H438.852ZM439.41 349.978C441.246 351.742 444.486 353.524 447.132 354.442C447.33 354.1 447.636 353.614 447.924 353.326C445.134 352.498 442.002 350.842 439.968 348.88H438.69C437.196 350.626 434.154 352.462 431.094 353.506C431.346 353.794 431.652 354.262 431.814 354.568C434.802 353.452 437.808 351.616 439.41 349.978ZM435.684 355.576C436.134 356.224 436.548 357.106 436.692 357.682L437.736 357.304C437.556 356.728 437.124 355.882 436.656 355.252L435.684 355.576ZM442.164 355.18C441.948 355.792 441.48 356.746 441.138 357.358L442.092 357.682C442.452 357.142 442.902 356.314 443.316 355.54L442.164 355.18ZM434.496 359.536V365.44H435.828V360.49H443.298V365.422H444.666V359.536H434.496ZM435.288 361.696V362.686H443.892V361.696H435.288ZM435.288 363.91V364.882H443.892V363.91H435.288ZM462.288 348.898V363.586C462.288 363.928 462.162 364.018 461.82 364.036C461.46 364.036 460.308 364.054 459.084 364.018C459.282 364.414 459.498 365.062 459.57 365.44C461.136 365.44 462.198 365.404 462.792 365.17C463.386 364.936 463.602 364.54 463.602 363.586V348.898H462.288ZM457.428 356.71C458.31 358.024 459.282 359.806 459.678 360.958L460.866 360.328C460.452 359.176 459.48 357.448 458.544 356.17L457.428 356.71ZM456.564 353.038V354.316H465.816V353.038H456.564ZM450.03 354.334V355.414H455.646V354.334H450.03ZM450.138 349.528V350.608H455.664V349.528H450.138ZM450.03 356.746V357.826H455.646V356.746H450.03ZM449.184 351.886V353.002H456.312V351.886H449.184ZM450.66 359.176V360.292H454.386V363.298H450.66V364.432H455.592V359.176H450.66ZM450.012 359.176V365.26H451.218V359.176H450.012ZM478.38 350.176C479.478 351.832 481.458 353.776 483.24 354.946C483.438 354.586 483.744 354.1 483.996 353.776C482.178 352.732 480.198 350.824 478.956 348.934H477.696C476.778 350.698 474.852 352.804 472.872 354.01C473.124 354.298 473.43 354.784 473.574 355.108C475.554 353.83 477.39 351.832 478.38 350.176ZM474.042 356.548V365.404H475.194V357.682H482.592V356.548H474.042ZM481.782 356.548V364.126C481.782 364.288 481.746 364.342 481.584 364.342C481.422 364.36 480.99 364.36 480.468 364.342C480.63 364.648 480.792 365.116 480.828 365.422C481.602 365.422 482.142 365.404 482.502 365.206C482.88 365.026 482.97 364.702 482.97 364.144V356.548H481.782ZM476.706 356.872V365.188H477.66V356.872H476.706ZM479.208 356.872V365.188H480.18V356.872H479.208ZM475.374 353.848V354.982H481.566V353.848H475.374ZM474.582 360.238V361.354H482.484V360.238H474.582ZM467.958 354.334V355.414H472.818V354.334H467.958ZM468.048 349.528V350.608H472.746V349.528H468.048ZM467.958 356.746V357.826H472.818V356.746H467.958ZM467.184 351.886V353.002H473.34V351.886H467.184ZM468.588 359.176V360.292H471.684V363.298H468.588V364.414H472.818V359.176H468.588ZM467.922 359.176V365.26H469.074V359.176H467.922ZM421.644 378.054V378.846H428.574V378.054H421.644ZM421.644 379.854V380.646H428.574V379.854H421.644ZM421.122 381.69V382.608H429.33V381.69H421.122ZM425.316 374.652C425.136 375.138 424.758 375.894 424.47 376.416L425.442 376.722C425.766 376.272 426.162 375.642 426.54 374.994L425.316 374.652ZM418.908 374.562C418.116 376.236 416.802 377.892 415.47 378.972C415.74 379.17 416.19 379.638 416.37 379.836C417.72 378.63 419.106 376.776 420.042 374.904L418.908 374.562ZM422.076 374.526C421.428 376.092 420.348 377.658 419.196 378.72C419.466 378.9 419.934 379.278 420.132 379.476C421.284 378.342 422.472 376.578 423.228 374.85L422.076 374.526ZM424.506 376.596V382.05H425.658V376.596H424.506ZM419.88 384.21V386.73C419.88 387.99 420.276 388.314 421.896 388.314C422.238 388.314 424.47 388.314 424.812 388.314C426.072 388.314 426.45 387.882 426.576 386.1C426.252 386.01 425.73 385.83 425.46 385.632C425.406 387.018 425.298 387.198 424.686 387.198C424.218 387.198 422.382 387.198 422.022 387.198C421.266 387.198 421.122 387.126 421.122 386.73V384.21H419.88ZM420.852 383.454C421.95 383.976 423.264 384.786 423.894 385.38L424.74 384.534C424.074 383.94 422.724 383.184 421.644 382.698L420.852 383.454ZM426.018 384.48C427.062 385.56 428.178 387.072 428.61 388.062L429.762 387.468C429.276 386.46 428.142 385.002 427.08 383.958L426.018 384.48ZM417.72 384.156C417.36 385.344 416.658 386.622 415.632 387.36L416.658 388.026C417.774 387.216 418.404 385.812 418.818 384.534L417.72 384.156ZM421.86 376.2L421.212 377.082H429.042V376.2H421.86ZM421.122 377.208V382.23H422.274V376.218L421.122 377.208ZM421.32 371.898V373.968H422.706V371.898H421.32ZM415.182 373.284V374.436H429.636V373.284H415.182ZM414.444 373.284V378.72C414.444 381.366 414.336 385.056 413.022 387.684C413.31 387.81 413.85 388.224 414.066 388.458C415.488 385.668 415.704 381.528 415.704 378.72V373.284H414.444ZM417.72 377.334V382.986H418.89V376.218L418.872 376.182L417.72 377.334ZM431.364 376.974L431.472 378C432.858 377.946 434.622 377.874 436.422 377.784L436.458 376.884C434.514 376.938 432.678 376.956 431.364 376.974ZM431.598 374.202C432.336 374.814 433.236 375.696 433.632 376.272L434.28 375.462C433.866 374.904 432.966 374.076 432.21 373.5L431.598 374.202ZM434.946 376.074C435.522 376.758 436.188 377.712 436.458 378.342L437.268 377.856C436.962 377.262 436.296 376.326 435.702 375.642L434.946 376.074ZM435.18 378.936C435.54 379.566 435.918 380.412 436.062 380.97L436.944 380.592C436.782 380.052 436.404 379.224 436.008 378.63L435.18 378.936ZM433.866 371.862C433.524 372.564 432.876 373.626 432.39 374.256L433.146 374.616C433.668 374.004 434.298 373.104 434.838 372.276L433.866 371.862ZM435.306 373.41C434.532 374.58 433.182 376.236 432.138 377.208L432.876 377.622C433.92 376.668 435.252 375.156 436.26 373.914L435.306 373.41ZM433.74 377.298V382.158H434.802V377.298H433.74ZM432.282 378.666C432.066 379.638 431.742 380.646 431.22 381.384C431.49 381.492 431.922 381.744 432.12 381.888C432.606 381.132 433.038 379.98 433.308 378.882L432.282 378.666ZM441.57 376.974L441.714 378C443.118 377.946 444.936 377.874 446.772 377.784L446.79 376.884C444.81 376.938 442.92 376.956 441.57 376.974ZM441.822 374.346C442.56 374.922 443.46 375.732 443.892 376.272L444.504 375.444C444.09 374.922 443.172 374.148 442.434 373.626L441.822 374.346ZM445.206 376.002C445.89 376.74 446.682 377.784 447.024 378.45L447.834 377.928C447.474 377.262 446.682 376.29 445.962 375.534L445.206 376.002ZM445.62 379.008C446.142 379.8 446.682 380.898 446.898 381.6L447.78 381.168C447.564 380.484 447.006 379.422 446.448 378.63L445.62 379.008ZM444.108 371.862C443.748 372.564 443.082 373.626 442.56 374.256L443.352 374.634C443.874 374.022 444.54 373.104 445.08 372.276L444.108 371.862ZM445.746 373.266C444.918 374.472 443.478 376.146 442.38 377.154L443.1 377.586C444.234 376.614 445.638 375.048 446.7 373.77L445.746 373.266ZM444.018 377.298V382.158H445.098V377.298H444.018ZM442.506 378.666C442.308 379.602 441.966 380.556 441.444 381.258C441.714 381.366 442.146 381.582 442.344 381.726C442.83 380.988 443.244 379.908 443.496 378.882L442.506 378.666ZM437.448 372.366V373.158H441.318V372.366H437.448ZM437.412 375.534V376.326H441.372V375.534H437.412ZM435.486 382.608V383.724H447.15V382.608H435.486ZM437.412 377.082V377.856H441.372V377.082H437.412ZM436.71 373.914V374.778H441.912V373.914H436.71ZM443.172 382.932C441.174 385.722 436.296 386.892 431.22 387.342C431.436 387.63 431.778 388.206 431.886 388.512C437.016 387.864 442.074 386.604 444.468 383.346L443.172 382.932ZM436.638 381.006C435.63 382.644 433.632 384.012 431.616 384.822C431.904 385.02 432.372 385.506 432.57 385.74C434.586 384.804 436.71 383.274 437.862 381.384L436.638 381.006ZM435.684 383.436L434.604 383.958C437.286 386.496 442.182 387.954 447.132 388.476C447.294 388.134 447.6 387.63 447.852 387.324C442.938 386.928 438.042 385.596 435.684 383.436ZM438.366 379.458H440.4V380.772H438.366V379.458ZM437.376 378.666V381.564H441.408V378.666H437.376ZM449.436 374.994V376.29H465.546V374.994H449.436ZM455.322 379.26V380.556H462.522V379.26H455.322ZM462.036 379.26L462.018 379.494C461.712 384.426 461.352 386.442 460.776 386.964C460.578 387.144 460.326 387.162 459.93 387.162C459.462 387.162 458.184 387.162 456.888 387.036C457.14 387.414 457.338 387.972 457.356 388.368C458.58 388.422 459.768 388.458 460.398 388.422C461.082 388.368 461.532 388.242 461.946 387.81C462.648 387.09 463.008 385.092 463.368 379.908C463.404 379.71 463.422 379.26 463.422 379.26H462.036ZM455.016 375.714C454.818 380.016 454.512 385.038 449.256 387.414C449.598 387.684 450.03 388.17 450.228 388.512C455.718 385.884 456.24 380.484 456.51 375.714H455.016ZM456.726 371.844V375.552H458.112V371.844H456.726ZM479.262 372.78C480.198 373.428 481.296 374.4 481.836 375.048L482.79 374.202C482.232 373.572 481.098 372.636 480.162 372.006L479.262 372.78ZM467.49 375.246V376.56H483.528V375.246H467.49ZM468.102 379.26V380.574H476.058V379.26H468.102ZM471.342 379.962V386.388H472.692V379.962H471.342ZM467.562 386.568L467.976 387.918C470.298 387.396 473.592 386.64 476.67 385.92L476.562 384.714C473.232 385.434 469.704 386.154 467.562 386.568ZM476.652 371.97C476.724 380.682 478.182 388.476 481.764 388.476C483.15 388.476 483.672 387.558 483.906 384.408C483.528 384.282 483.006 383.976 482.7 383.67C482.592 386.082 482.376 387.072 481.872 387.072C479.658 387.072 478.038 380.322 478.092 371.97H476.652Z" fill="#F0EBF5"/>
<g clip-path="url(#clip3_4497_29204)">
<path d="M635.588 82.6504H613.016C609.206 82.6504 606.106 85.7062 606.106 89.4632C606.106 90.3108 606.805 91 607.665 91H640.941C641.801 91 642.5 90.3108 642.5 89.4632C642.498 85.7062 639.399 82.6504 635.588 82.6504ZM609.475 87.9798C610.061 86.6232 611.429 85.6686 613.016 85.6686H635.588C637.177 85.6686 638.543 86.6212 639.13 87.9798H609.475Z" fill="#F0EBF5"/>
<path d="M631.969 59.6216L623.774 37.6267C625.318 36.5632 626.009 34.5688 625.331 32.7448C624.521 30.5763 622.073 29.4593 619.873 30.2574L601.969 36.7434C599.769 37.5395 598.636 39.9537 599.444 42.1243C600.123 43.9463 601.961 45.0257 603.835 44.8514L606.556 52.1533L592.617 57.2035C592.277 56.5143 591.458 56.1776 590.713 56.4469L566.019 65.3907C563.239 66.3987 561.809 69.4466 562.829 72.1876C563.85 74.9285 566.943 76.3386 569.723 75.3326L594.414 66.3868C595.16 66.1175 595.563 65.3352 595.368 64.5945L609.308 59.5444L612.028 66.8443C610.483 67.9039 609.786 69.8863 610.461 71.6945C611.268 73.8631 613.717 74.98 615.918 74.1839L633.823 67.6979C636.024 66.9018 637.155 64.4876 636.348 62.317C635.675 60.5108 633.843 59.4434 631.969 59.6216ZM591.922 64.0737L568.666 72.4965C567.471 72.9283 566.144 72.3223 565.704 71.1459C565.264 69.9675 565.88 68.6584 567.074 68.2247L590.329 59.7998L591.922 64.0737ZM602.318 41.0826C602.091 40.4765 602.409 39.8012 603.023 39.5774L620.928 33.0914C621.542 32.8676 622.227 33.1805 622.454 33.7885C622.681 34.3965 622.364 35.0699 621.747 35.2937L603.843 41.7797C603.228 42.0015 602.543 41.6886 602.318 41.0826ZM620.948 38.7991L629.046 60.5346L614.856 65.6759L606.757 43.9404L620.948 38.7991ZM594.322 61.7565L593.679 60.0335L607.611 54.9873L608.254 56.7103L594.322 61.7565ZM632.768 64.8659L614.864 71.3518C614.249 71.5756 613.564 71.2627 613.337 70.6567C613.114 70.0566 613.43 69.411 614.054 69.1832L631.959 62.6973C632.586 62.4715 633.25 62.7626 633.473 63.3607C633.7 63.9667 633.383 64.6421 632.768 64.8659Z" fill="#F0EBF5"/>
<path d="M621.557 48.9826C620.763 49.2698 620.356 50.1372 620.647 50.9195L623.762 59.281C624.053 60.0633 624.933 60.4653 625.727 60.1781C626.52 59.891 626.928 59.0235 626.636 58.2412L623.521 49.8798C623.23 49.0955 622.35 48.6955 621.557 48.9826Z" fill="#7568F6"/>
<path d="M619.919 44.5879C619.126 44.875 618.718 45.7425 619.009 46.5248L619.168 46.9505C619.459 47.7328 620.339 48.1349 621.132 47.8477C621.926 47.5605 622.333 46.6931 622.042 45.9108L621.883 45.485C621.592 44.7027 620.712 44.3007 619.919 44.5879Z" fill="#7568F6"/>
</g>
<circle cx="606.5" cy="62" r="60.5" stroke="#F0EBF5" stroke-width="3"/>
<path d="M574.19 157.554V161.658C574.19 162.936 574.478 163.314 575.738 163.314C575.99 163.314 577.16 163.314 577.43 163.314C578.456 163.314 578.798 162.756 578.924 160.488C578.582 160.398 578.06 160.218 577.808 160.002C577.754 161.91 577.682 162.162 577.268 162.162C577.034 162.162 576.098 162.162 575.918 162.162C575.504 162.162 575.432 162.09 575.432 161.658V157.554H574.19ZM571.256 151.884H576.26V153.792H571.256V151.884ZM571.256 154.854H576.26V156.78H571.256V154.854ZM571.256 148.932H576.26V150.804H571.256V148.932ZM569.996 147.816V157.896H577.556V147.816H569.996ZM571.472 157.518C571.22 159.822 570.554 161.514 567.872 162.414C568.142 162.666 568.52 163.152 568.664 163.458C571.652 162.324 572.48 160.326 572.786 157.518H571.472ZM562.49 150.264V151.506H568.106V150.264H562.49ZM565.118 155.646V163.44H566.432V154.062L565.118 155.646ZM565.118 146.898V150.876H566.432V146.898H565.118ZM566.432 154.242L565.64 154.962C566.36 155.61 567.998 157.338 568.61 158.148L569.438 157.014C568.97 156.546 567.008 154.71 566.432 154.242ZM567.656 150.264V150.552C566.612 153.288 564.164 156.024 561.842 157.464C562.058 157.698 562.4 158.328 562.526 158.67C564.992 157.014 567.638 154.008 568.916 150.714L568.16 150.21L567.926 150.264H567.656ZM587.186 157.194V158.238H594.35V157.194H587.186ZM585.512 148.302V149.328H596.204V148.302H585.512ZM585.944 150.48V151.47H595.754V150.48H585.944ZM584.954 152.73V153.756H596.726V152.73H584.954ZM587.186 159.606V160.614H594.404V159.606H587.186ZM586.268 154.818V163.422H587.528V155.862H594.35V154.818H586.268ZM594.026 154.818V161.91C594.026 162.144 593.954 162.216 593.702 162.216C593.45 162.234 592.586 162.234 591.686 162.198C591.848 162.54 592.028 163.044 592.082 163.368C593.36 163.386 594.17 163.368 594.674 163.17C595.178 162.972 595.322 162.612 595.322 161.928V154.818H594.026ZM590.12 146.88V153.054H591.452V146.88H590.12ZM582.218 146.88V163.422H583.46V146.88H582.218ZM580.796 150.354C580.688 151.776 580.4 153.756 579.986 154.998L581.03 155.34C581.444 153.99 581.75 151.902 581.804 150.498L580.796 150.354ZM583.622 149.886C583.982 150.732 584.396 151.848 584.576 152.532L585.512 152.082C585.35 151.416 584.918 150.354 584.522 149.526L583.622 149.886ZM599.336 148.014C600.524 148.482 601.964 149.256 602.684 149.886L603.458 148.752C602.72 148.158 601.244 147.42 600.074 147.006L599.336 148.014ZM598.184 153.036C599.462 153.468 601.046 154.224 601.82 154.8L602.558 153.648C601.748 153.072 600.146 152.37 598.886 152.01L598.184 153.036ZM598.886 162.378L600.02 163.242C601.172 161.532 602.504 159.192 603.548 157.212L602.576 156.384C601.442 158.49 599.912 160.956 598.886 162.378ZM609.74 154.944V161.442C609.74 162.864 610.064 163.296 611.432 163.296C611.684 163.296 612.908 163.296 613.178 163.296C614.384 163.296 614.726 162.576 614.852 159.894C614.492 159.804 613.934 159.588 613.664 159.354C613.61 161.676 613.52 162.09 613.052 162.09C612.8 162.09 611.828 162.09 611.63 162.09C611.162 162.09 611.072 161.982 611.072 161.442V154.944H609.74ZM605.708 148.968H612.404V153.81H605.708V148.968ZM604.394 147.708V155.07H613.772V147.708H604.394ZM606.32 154.926C606.14 158.724 605.69 161.1 602.288 162.378C602.594 162.63 602.99 163.134 603.134 163.458C606.824 161.964 607.436 159.21 607.634 154.926H606.32ZM623.78 148.212V149.274H632.564V148.212H623.78ZM623.582 158.31V159.354H632.78V158.31H623.582ZM627.506 146.898V156.6H628.694V146.898H627.506ZM625.31 153.018H630.998V154.116H625.31V153.018ZM625.31 151.092H630.998V152.19H625.31V151.092ZM624.194 150.246V154.98H632.15V150.246H624.194ZM623.6 156.204L623.69 157.248C625.76 157.194 628.784 157.14 631.718 157.05L631.736 156.06C628.676 156.132 625.616 156.186 623.6 156.204ZM629.324 157.338V162.108C629.324 162.306 629.27 162.36 629.018 162.378C628.784 162.396 627.956 162.396 627.038 162.36C627.2 162.684 627.38 163.134 627.434 163.476C628.658 163.476 629.432 163.476 629.954 163.296C630.458 163.116 630.584 162.792 630.584 162.126V157.338H629.324ZM624.644 160.074C625.328 160.704 626.03 161.622 626.336 162.27L627.344 161.622C627.002 160.992 626.282 160.128 625.562 159.516L624.644 160.074ZM629.828 155.304C630.638 156.042 631.538 157.086 631.934 157.788L632.888 157.23C632.456 156.546 631.556 155.556 630.728 154.836L629.828 155.304ZM616.418 148.842V150.048H623.402V148.842H616.418ZM616.184 159.102V160.308H623.654V159.102H616.184ZM619.37 146.898V151.812H620.612V146.898H619.37ZM619.496 151.884V157.122H619.37V163.476H620.612V157.122H620.486V151.884H619.496ZM617.858 154.98H622.16V156.636H617.858V154.98ZM617.858 152.388H622.16V154.008H617.858V152.388ZM616.814 151.38V157.644H623.204V151.38H616.814ZM645.092 154.206C643.436 158.76 639.656 161.1 634.202 162.234C634.49 162.558 634.922 163.17 635.066 163.512C640.592 162.126 644.552 159.624 646.532 154.602L645.092 154.206ZM639.224 151.11C638.126 152.64 636.218 154.134 634.454 155.07C634.796 155.322 635.318 155.862 635.552 156.15C637.298 155.052 639.314 153.36 640.592 151.632L639.224 151.11ZM639.944 154.296L638.666 154.692C640.592 159.48 644.21 162.36 649.952 163.458C650.15 163.08 650.546 162.468 650.852 162.162C645.272 161.244 641.618 158.562 639.944 154.296ZM634.598 149.238V150.552H650.402V149.238H634.598ZM641.762 146.862V150.084H643.148V146.862H641.762ZM644.606 151.866C646.334 153.036 648.422 154.782 649.394 155.97L650.564 155.034C649.538 153.846 647.414 152.172 645.722 151.038L644.606 151.866ZM571.922 171.734V172.904H578.564V171.734H571.922ZM571.688 181.634V182.804H578.744V181.634H571.688ZM578.996 173.426V174.686H585.476V173.426H578.996ZM571.238 174.614V175.802H579.284V174.614H571.238ZM571.49 178.574V179.744H579.032V178.574H571.49ZM574.658 169.88V175.082H575.918V169.88H574.658ZM574.658 178.934V186.404H575.918V178.934H574.658ZM578.834 178.16C580.67 179.348 582.83 181.13 583.802 182.372L584.612 181.31C583.604 180.068 581.408 178.358 579.572 177.224L578.834 178.16ZM577.106 175.748C576.908 176.522 576.494 177.674 576.17 178.394L577.178 178.7C577.538 177.998 577.916 176.99 578.276 176.054L577.106 175.748ZM572.48 176.054C572.858 176.9 573.218 178.016 573.308 178.718L574.388 178.376C574.298 177.692 573.92 176.594 573.506 175.784L572.48 176.054ZM584.828 173.426C584.81 180.446 584.594 185.774 586.52 186.404C587.438 186.746 587.996 186.062 588.104 182.858C587.888 182.714 587.492 182.3 587.24 182.012C587.222 183.668 587.096 185.126 586.97 185.09C585.926 184.82 586.034 179.87 586.142 173.426H584.828ZM581.462 169.898V175.316C581.462 178.664 581.084 182.786 577.286 185.648C577.592 185.846 578.096 186.224 578.312 186.476C582.272 183.434 582.74 179.024 582.74 175.334V169.898H581.462ZM594.026 177.458V178.736H605.6V177.458H594.026ZM594.944 172.832V174.128H604.754V172.832H594.944ZM599.066 169.898V178.376H600.452V169.898H599.066ZM594.044 184.244L594.242 185.612C596.798 185.45 600.56 185.198 604.142 184.928V183.704C600.416 183.92 596.492 184.136 594.044 184.244ZM601.298 181.166C602.648 182.804 604.088 185.054 604.646 186.476L605.906 185.774C605.312 184.316 603.818 182.174 602.45 180.572L601.298 181.166ZM597.86 178.304C597.302 180.23 596.24 182.93 595.358 184.604L596.546 185.018C597.446 183.38 598.526 180.806 599.318 178.718L597.86 178.304ZM590.138 171.014C591.398 171.5 592.91 172.346 593.666 172.994L594.44 171.86C593.666 171.23 592.118 170.456 590.894 170.006L590.138 171.014ZM589.184 175.982C590.444 176.414 591.992 177.17 592.766 177.746L593.504 176.612C592.694 176.036 591.11 175.334 589.886 174.938L589.184 175.982ZM589.814 185.342L590.984 186.224C591.992 184.55 593.18 182.3 594.08 180.392L593.072 179.546C592.082 181.58 590.732 183.956 589.814 185.342ZM614.744 175.64V186.44H616.13V175.64H614.744ZM610.658 178.682H620.45V180.248H610.658V178.682ZM610.658 176.108H620.45V177.638H610.658V176.108ZM609.344 175.01V181.328H621.818V175.01H609.344ZM607.526 182.714V183.902H623.492V182.714H607.526ZM610.082 171.5H613.538V173.21H610.082V171.5ZM608.858 170.6V174.11H614.798V170.6H608.858ZM617.48 171.5H620.972V173.21H617.48V171.5ZM616.256 170.6V174.11H622.25V170.6H616.256ZM635.102 170.096V174.2H636.452V170.096H635.102ZM630.404 173.426V174.722H641.402V173.426H630.404ZM631.898 176.126C632.546 178.538 633.104 181.67 633.23 183.47L634.562 183.182C634.418 181.4 633.788 178.322 633.104 175.928L631.898 176.126ZM638.468 175.766C637.982 178.448 636.992 182.264 636.146 184.532L637.352 184.82C638.198 182.588 639.242 178.898 639.908 176.018L638.468 175.766ZM629.954 184.316V185.612H641.852V184.316H629.954ZM629.468 169.934C628.424 172.652 626.66 175.334 624.842 177.026C625.094 177.35 625.472 178.07 625.616 178.376C627.596 176.396 629.522 173.372 630.746 170.348L629.468 169.934ZM627.596 174.578V186.404H628.892V173.318L628.874 173.3L627.596 174.578Z" fill="#F0EBF5"/>
<path d="M280.222 95.1295L280.735 96.0799L292.314 89.8316L291.801 88.8811L280.222 95.1295ZM282.899 102.745L283.421 103.712L297.266 96.241L296.744 95.2747L282.899 102.745ZM283.105 98.2369L283.541 99.0448L286.963 97.1985L286.527 96.3906L283.105 98.2369ZM283.67 100.08L284.106 100.888L287.86 98.8618L287.424 98.0539L283.67 100.08ZM290.212 96.5495L290.648 97.3574L294.529 95.2632L294.093 94.4553L290.212 96.5495ZM289.315 94.8862L289.751 95.6941L293.252 93.805L292.816 92.9972L289.315 94.8862ZM285.582 92.7073L288.89 98.8377L290.047 98.2137L286.739 92.0833L285.582 92.7073ZM289.074 102.931L291.271 107.002L292.38 106.404L290.183 102.333L289.074 102.931ZM292.591 101.034L294.788 105.105L295.881 104.515L293.684 100.444L292.591 101.034ZM280.311 97.4945L281.953 100.536L283.03 99.9547L281.859 97.7845L293.106 91.7156L294.277 93.8858L295.402 93.2789L293.76 90.2375L280.311 97.4945ZM285.272 104.185L287.853 108.969L288.978 108.363L286.927 104.561L296.669 99.3039L296.139 98.3218L285.272 104.185ZM295.838 98.4842L297.787 102.096C297.864 102.238 297.842 102.312 297.676 102.422C297.51 102.531 296.972 102.822 296.33 103.148C296.626 103.356 297.022 103.674 297.224 103.934C298.095 103.463 298.69 103.163 298.983 102.759C299.301 102.363 299.226 102.035 298.936 101.496L296.978 97.8687L295.838 98.4842ZM289.385 99.7163C289.624 100.426 289.852 101.53 289.965 102.308L291.07 101.854C291.023 101.123 290.886 100.072 290.709 99.0629L289.385 99.7163ZM296.636 89.4632L297.268 90.6355L310.495 83.4981L309.863 82.3259L296.636 89.4632ZM301.268 99.3377L301.91 100.526L316.119 92.8584L315.478 91.6704L301.268 99.3377ZM300.853 83.1787L302.879 86.933L304.115 86.2663L302.089 82.5119L300.853 83.1787ZM307.324 86.1501C308.157 88.8302 309.06 92.7403 309.346 95.2039L310.632 94.8577C310.37 92.4014 309.56 88.6253 308.824 85.6684L307.324 86.1501ZM299.989 90.599C301.885 92.2553 303.94 94.6234 304.976 96.3147L306.026 95.3799C304.957 93.6655 302.928 91.3449 300.96 89.7069L299.989 90.599ZM313.873 81.2666L314.454 82.3438L319.111 79.8308L318.53 78.7536L313.873 81.2666ZM311.619 78.4537L318.132 90.5245L319.129 89.68L312.743 77.8468L311.619 78.4537ZM316.827 90.7585L317.872 91.7487C319.193 90.4431 321.012 88.6226 322.691 86.9192L321.941 85.8715C320.05 87.7103 318.087 89.6078 316.827 90.7585ZM319.091 85.3644C320.864 86.1869 322.981 87.4578 324.043 88.4395L324.789 87.3209C323.705 86.3722 321.597 85.1574 319.785 84.3763L319.091 85.3644ZM312.157 78.1631L312.756 79.2719L317.001 76.9811L319.719 82.0186L315.474 84.3094L316.072 85.4182L321.426 82.5291L317.512 75.2739L312.157 78.1631ZM323.27 72.187L328.476 81.8341C328.596 82.0559 328.575 82.1693 328.353 82.289C328.1 82.4257 327.348 82.8518 326.475 83.2817C326.869 83.5191 327.376 84.0027 327.604 84.3499C328.713 83.7516 329.465 83.3254 329.796 82.8399C330.167 82.3532 330.072 81.8729 329.704 81.1918L324.49 71.5288L323.27 72.187ZM318.724 74.6401L326.126 88.3584L327.33 87.7088L320.569 75.1786L324.577 73.016L323.936 71.828L318.724 74.6401ZM333.501 66.8504L333.989 67.7534L340.087 64.4625L339.6 63.5596L333.501 66.8504ZM334.805 75.5964L335.275 76.4677L337.873 75.0659L337.403 74.1946L334.805 75.5964ZM339.533 73.0248L340.029 73.9436L342.785 72.4563L342.289 71.5375L339.533 73.0248ZM329.451 71.511L329.964 72.4615L341.432 66.2729L340.92 65.3225L329.451 71.511ZM332.424 66.1431L334.288 69.5964L335.476 68.9553L333.612 65.502L332.424 66.1431ZM331.978 73.0107L332.486 73.8003L340.503 68.7583L340.012 68.0005L331.978 73.0107ZM334.399 69.8024L335.758 72.3211C336.356 73.4299 336.944 73.4197 338.655 72.4965C339.035 72.2914 341.886 70.7528 342.266 70.5476C343.47 69.898 343.681 69.4163 343.141 68.1123C342.814 68.2272 342.327 68.3471 341.988 68.3254C342.393 69.1907 342.328 69.4102 341.678 69.7606C341.092 70.0769 338.7 71.3676 338.256 71.6069C337.306 72.1198 337.096 72.1102 336.883 71.7142L335.524 69.1955L334.399 69.8024ZM328.817 71.8529L330.92 75.7498C332.04 77.825 333.486 80.8081 333.347 83.5829C333.66 83.557 334.356 83.6723 334.657 83.7756C334.832 80.8386 333.267 77.4082 332.044 75.1429L329.942 71.246L328.817 71.8529ZM340.539 65.5276L340.633 65.7019C340.83 66.5978 341.002 67.7119 341.002 68.4689L342.162 68.2314C342.176 67.3853 342.032 66.1334 341.862 65.0595L340.91 65.2664L340.729 65.4251L340.539 65.5276ZM339.026 73.2984L339.701 74.5498C340.146 75.3735 340.486 76.4583 339.852 77.823C340.126 77.8386 340.719 77.9893 340.948 78.111C341.688 76.5255 341.265 75.097 340.7 74.0515L340.008 72.7684L339.026 73.2984ZM334.28 74.2437C334.601 76.0136 334.441 77.8789 333.82 79.3802C334.135 79.4348 334.688 79.5867 334.924 79.684C335.526 78.0706 335.71 75.9468 335.35 73.9526L334.28 74.2437ZM341.719 71.8453L343.198 74.5857C343.634 75.3936 343.834 75.6129 344.142 75.6919C344.442 75.755 344.818 75.6547 345.103 75.5009C345.261 75.4154 345.641 75.2102 345.8 75.1248C346.037 74.9965 346.297 74.7952 346.413 74.6305C346.551 74.4329 346.608 74.1975 346.559 73.9172C346.527 73.6685 346.216 72.9775 345.94 72.3902C345.628 72.4563 345.21 72.4774 344.926 72.4057C345.218 72.9845 345.441 73.4366 345.521 73.6596C345.591 73.8668 345.579 73.996 345.533 74.0619C345.511 74.1351 345.377 74.2279 345.266 74.2877C345.155 74.3475 344.949 74.4586 344.854 74.5099C344.759 74.5612 344.672 74.5881 344.598 74.5662C344.525 74.5444 344.415 74.3786 344.27 74.1094L342.749 71.2897L341.719 71.8453ZM337.102 74.357L337.187 74.5154C338.167 77.7708 337.228 80.4659 335.275 82.4194C335.592 82.5142 336.035 82.7662 336.283 82.9598C338.362 80.6722 339.336 77.8149 338.161 73.9696L337.465 74.1202L337.292 74.2545L337.102 74.357ZM335.252 76.5006L334.614 77.2132C337.969 80.7408 340.661 80.2703 344.162 78.3812L347.916 76.3554C347.825 76.0361 347.727 75.4754 347.749 75.1365C347.092 75.5113 344.178 77.0841 343.687 77.3491C340.661 78.9817 338.134 79.5678 335.252 76.5006ZM351.21 62.1425L357.103 58.9628L358.205 61.0063L352.312 64.186L351.21 62.1425ZM349.594 59.1486L355.487 55.9688L356.573 57.9806L350.68 61.1604L349.594 59.1486ZM347.961 58.7002L351.791 65.7969L359.901 61.4205L356.072 54.3237L347.961 58.7002ZM352.585 67.7614L353.175 68.8545L361.713 64.2473L361.123 63.1542L352.585 67.7614ZM353.135 71.6987L353.716 72.7759L363.997 67.2284L363.415 66.1512L353.135 71.6987ZM342.407 62.1271L343.013 63.2518L347.956 60.5849L347.349 59.4602L342.407 62.1271ZM345.051 66.6111L345.658 67.7358L350.204 65.2826L349.597 64.1579L345.051 66.6111ZM347.992 72.8577L348.935 73.9236C350.089 72.6876 351.57 71.1112 352.98 69.5934L352.159 68.564C350.655 70.1733 349.087 71.8168 347.992 72.8577ZM344.626 61.5022L350.045 71.5454L351.066 70.7082L345.767 60.8867L344.626 61.5022ZM351.727 57.3022L355.018 63.401L354.939 63.4437L358.247 69.5742L359.451 68.9245L356.143 62.7941L356.064 62.8368L352.773 56.738L351.727 57.3022Z" fill="#F0EBF5"/>
<path d="M288.431 218.255L287.789 219.463L301.478 226.73L302.12 225.521L288.431 218.255ZM293.765 227.017C294.974 229.309 296.371 232.435 296.834 234.25L298.285 233.859C297.758 232.01 296.28 228.922 295.061 226.726L293.765 227.017ZM295.7 222.643C292.634 224.847 288.057 226.33 283.687 226.232C283.79 226.613 283.919 227.292 283.949 227.696C288.547 227.711 293.191 226.141 296.75 223.812L295.7 222.643ZM292.708 225.131L287.459 235.02L288.747 235.704L294.671 224.543L292.708 225.131ZM306.044 231.334L313.326 235.199L312.524 236.71L305.243 232.844L306.044 231.334ZM304.762 233.751L312.043 237.616L311.233 239.142L303.952 235.277L304.762 233.751ZM307.327 228.917L314.609 232.783L313.807 234.293L306.526 230.428L307.327 228.917ZM306.657 227.339L302.269 235.606L311.951 240.746L316.34 232.479L306.657 227.339ZM299.397 235.488L298.806 236.601L312.924 244.095L313.515 242.982L299.397 235.488ZM306.493 242.352C307.935 243.974 309.339 245.82 310.106 247.062L311.681 246.859C310.803 245.557 309.256 243.636 307.773 242.013L306.493 242.352ZM303.268 239.52C301.807 239.702 299.267 239.495 297.368 239.119C297.503 239.516 297.649 240.124 297.705 240.48C299.614 240.8 302.137 240.998 303.944 240.857L303.268 239.52ZM320.53 238.636L319.998 239.638L329.204 244.524L327.271 248.165L317.732 243.101L317.208 244.087L327.924 249.775L330.912 244.147L320.53 238.636ZM323.652 237.053L323.129 238.039L328.582 240.934L329.106 239.948L323.652 237.053ZM319.448 241.057L318.95 241.995L328.458 247.042L328.956 246.104L319.448 241.057ZM324.732 236.017C323.175 237.146 320.766 238.191 317.975 238.38C318.16 238.723 318.339 239.307 318.378 239.695C321.397 239.382 323.946 238.228 325.894 236.939L324.732 236.017ZM318.936 246.553L317.687 248.906C317.071 250.066 317.275 250.603 318.897 251.464C319.215 251.632 321.441 252.814 321.774 252.991C323.078 253.683 323.673 253.408 324.845 251.544C324.561 251.312 324.161 250.875 324.024 250.558C323.109 252.09 322.88 252.253 322.228 251.907C321.735 251.645 319.891 250.666 319.541 250.481C318.746 250.059 318.645 249.903 318.856 249.506L320.096 247.169L318.936 246.553ZM320.371 246.459C321.193 247.445 322.045 248.835 322.321 249.735L323.547 249.306C323.239 248.389 322.362 247.047 321.524 246.092L320.371 246.459ZM325.361 250.228C325.959 251.789 326.457 253.806 326.475 255.038L327.878 254.968C327.828 253.718 327.265 251.708 326.626 250.186L325.361 250.228ZM317.105 245.357C316.115 246.339 314.783 247.12 313.308 247.173L313.914 248.411C315.544 248.298 316.871 247.372 317.984 246.312L317.105 245.357ZM328.835 239.804L328.717 240.027C327.978 240.613 326.648 241.354 325.665 241.708C325.868 241.979 326.146 242.453 326.276 242.746C327.332 242.369 328.815 241.648 329.863 240.941L329.314 239.977L329.09 239.939L328.835 239.804ZM345.184 246.975C344.594 247.741 343.643 248.765 342.967 249.385L344.019 250.167C344.701 249.612 345.617 248.692 346.443 247.867L345.184 246.975ZM336.446 250.345L333.059 248.547L332.468 249.66L334.694 250.842L332.298 255.357L333.458 255.973L336.446 250.345ZM333.737 255.449L332.655 254.875C331.482 255.128 330.172 255.329 329.139 255.433L329.125 256.995C330.355 256.751 331.529 256.498 332.655 256.219C333.006 258.015 334.141 259.331 336.166 260.508C337.897 261.508 341.205 263.224 342.988 264.088C343.229 263.748 343.74 263.285 344.019 263.067C342.075 262.198 338.473 260.347 336.774 259.363C334.987 258.313 333.859 257.022 333.737 255.449ZM335.977 243.473C336.639 244.721 337.258 246.435 337.361 247.468L338.713 247.187C338.57 246.113 337.926 244.447 337.231 243.222L335.977 243.473ZM339.012 253.073L344.847 256.17L343.294 259.095L337.459 255.998L339.012 253.073ZM341.088 249.162L346.923 252.259L345.404 255.121L339.569 252.023L341.088 249.162ZM340.519 247.433L335.717 256.479L343.904 260.825L348.707 251.779L340.519 247.433ZM354.247 251.745L346.491 266.356L347.7 266.997L355.456 252.386L354.247 251.745ZM351.181 253.989C350.386 255.218 349.172 256.815 348.177 257.652L348.946 258.468C349.983 257.551 351.248 255.859 352.011 254.613L351.181 253.989ZM354.014 255.371C353.987 256.497 353.847 257.911 353.651 258.703L354.778 258.731C354.966 257.954 355.072 256.564 355.035 255.444L354.014 255.371ZM358.414 254.914C356.925 256.875 355.141 258.7 353.46 259.601C353.695 259.888 354.1 260.43 354.246 260.731C355.929 259.709 357.827 257.823 359.473 255.721L358.414 254.914ZM357.037 257.546L356.064 258.497L363.822 262.615L364.43 261.47L357.037 257.546ZM361.368 255.606L354.195 269.12L355.387 269.753L362.56 256.239L361.368 255.606ZM353.863 261.567L353.264 262.696L361.118 266.865L361.717 265.736L353.863 261.567ZM349.962 266.038L349.354 267.183L359.132 272.373L359.739 271.228L349.962 266.038Z" fill="#F0EBF5"/>
<path d="M62.0568 164.375C63.9694 164.375 65.5277 162.827 65.5277 160.927C65.5277 159.027 63.9694 157.479 62.0568 157.479C60.1442 157.479 58.5859 159.027 58.5859 160.927C58.5887 162.83 60.1442 164.375 62.0568 164.375ZM62.0568 159.778C62.6962 159.778 63.2137 160.295 63.2137 160.927C63.2137 161.559 62.6962 162.076 62.0568 162.076C61.4174 162.076 60.8998 161.559 60.8998 160.927C60.9026 160.295 61.4202 159.778 62.0568 159.778Z" fill="#7568F6"/>
<path d="M66.6823 132.203C66.6823 132.167 66.5328 134.501 66.5328 134.501H85.7609L69.248 150.04C67.2967 151.876 64.7448 152.885 62.0572 152.885C59.3724 152.885 56.8177 151.876 54.8664 150.04L38.3563 134.501H57.5844C57.5844 134.501 57.435 132.164 57.435 132.203H34.2959V171.27H44.7057V176.529C44.7057 178.577 45.3091 180.562 46.455 182.267L49.3335 186.556V191.952H47.0196V198.847H77.0948V191.952H74.7809V186.556L77.6595 182.267C78.8054 180.559 79.4087 178.577 79.4087 176.529V171.27H89.8186V132.203H66.6823ZM44.7057 168.971H38.8075L44.7057 164.385V168.971ZM44.7749 161.414L36.6098 167.762V136.024L53.2777 151.709C53.8977 152.291 54.5702 152.806 55.2816 153.248L49.7764 157.526C49.6297 157.512 49.4857 157.482 49.3335 157.482C47.0113 157.482 45.1015 159.195 44.7749 161.414ZM74.7837 196.546H49.3335V194.248H74.7837V196.546ZM77.0976 176.529C77.0976 178.121 76.6271 179.666 75.7386 180.991L72.4726 185.857V191.95H51.6474V185.857L48.3814 180.991C47.4901 179.666 47.0224 178.121 47.0224 176.529V162.076C47.0224 160.809 48.0603 159.778 49.3363 159.778C50.6123 159.778 51.6502 160.809 51.6502 162.076V174.714H52.8071C55.9957 174.714 58.5919 177.291 58.5919 180.46H60.9058C60.9058 176.414 57.8833 173.059 53.9641 172.499V171.267H77.1004V176.529H77.0976ZM53.9613 168.971V162.076C53.9613 160.641 53.2804 159.374 52.2397 158.53L57.5872 154.373C59.0015 154.898 60.51 155.184 62.06 155.184C63.61 155.184 65.1184 154.901 66.5328 154.373L85.3125 168.971H53.9613ZM87.5074 167.762L68.8356 153.245C69.547 152.803 70.2196 152.291 70.8396 151.706L87.5074 136.021V167.762Z" fill="#F0EBF5"/>
<path d="M66.8731 129.841C66.8731 129.803 66.8759 129.764 66.8759 129.726C66.8786 127.147 64.764 125.046 62.1678 125.046H61.9353C59.3363 125.046 57.2217 127.147 57.2217 129.726C57.2217 129.767 57.2244 129.803 57.2244 129.841L58.2707 145.512C58.4008 147.483 60.0615 149.025 62.0488 149.025C64.0361 149.025 65.6968 147.483 65.8269 145.515L66.8731 129.841ZM63.4188 145.355C63.3718 146.07 62.7684 146.628 62.0488 146.628C61.3291 146.628 60.7258 146.07 60.6787 145.355L59.6408 129.869L59.6352 129.728C59.6352 128.472 60.6649 127.446 61.9325 127.446H62.165C63.4327 127.446 64.4623 128.469 64.4623 129.728L63.4188 145.355Z" fill="#7568F6"/>
<circle cx="62.5" cy="162" r="60.5" stroke="#F0EBF5" stroke-width="3"/>
<path d="M27.112 258.58L27.562 259.93C29.038 259.498 30.946 258.904 32.782 258.328L32.62 257.122C30.568 257.68 28.498 258.256 27.112 258.58ZM32.026 246.97V263.44H33.34V246.97H32.026ZM28.336 248.968V258.742H29.632V248.968H28.336ZM36.238 250.228V251.506H43.834V250.228H36.238ZM36.724 246.88C36.058 249.886 34.888 252.802 33.286 254.638C33.61 254.854 34.168 255.34 34.384 255.61C36.04 253.576 37.318 250.462 38.11 247.15L36.724 246.88ZM41.494 250.84C40.396 256.564 38.128 260.218 33.502 262.288C33.754 262.576 34.168 263.188 34.294 263.494C39.118 261.136 41.584 257.23 42.844 251.056L41.494 250.84ZM36.724 251.272L35.5 251.506C36.688 257.122 38.92 261.478 43.114 263.494C43.312 263.134 43.744 262.612 44.05 262.342C40.018 260.614 37.768 256.402 36.724 251.272ZM45.4 248.068V249.292H54.634V248.068H45.4ZM45.94 256.636V257.86H54.112V256.636H45.94ZM49.378 254.494V261.748L50.71 261.55V254.494H49.378ZM45.202 261.55L45.418 262.9C47.812 262.576 51.358 262.072 54.706 261.604L54.67 260.344C51.196 260.812 47.542 261.298 45.202 261.55ZM45.364 252.964L45.472 254.242C47.614 254.116 50.692 253.954 53.644 253.774L53.68 252.586C50.584 252.748 47.416 252.892 45.364 252.964ZM51.106 250.768C52.186 252.046 53.392 253.792 53.914 254.89L54.994 254.242C54.472 253.162 53.212 251.47 52.114 250.21L51.106 250.768ZM48.514 248.716C48.118 250.138 47.344 252.244 46.714 253.522L47.902 253.81C48.568 252.568 49.342 250.588 49.972 249.004L48.514 248.716ZM55.426 249.058V259.03H56.722V249.058H55.426ZM59.674 247.402V261.64C59.674 261.964 59.584 262.054 59.26 262.072C58.9 262.072 57.784 262.09 56.578 262.036C56.776 262.45 56.974 263.08 57.046 263.458C58.504 263.458 59.602 263.422 60.196 263.188C60.79 262.972 61.006 262.558 61.006 261.622V247.402H59.674ZM67.144 253.99H63.238V255.25H65.866V260.362H67.144V253.99ZM67.144 259.822H65.974C65.02 260.596 63.904 261.406 63.004 261.964L63.67 263.296C64.696 262.522 65.668 261.73 66.586 260.956C67.702 262.378 69.34 263.008 71.698 263.098C73.714 263.188 77.566 263.152 79.564 263.062C79.636 262.666 79.834 262.036 79.996 261.73C77.836 261.874 73.678 261.928 71.698 261.838C69.574 261.766 68.026 261.154 67.144 259.822ZM63.544 248.14C64.678 248.986 65.992 250.264 66.55 251.146L67.576 250.21C66.982 249.328 65.632 248.104 64.48 247.294L63.544 248.14ZM70.744 249.904C72.49 250.57 74.722 251.596 75.856 252.298L76.774 251.452C75.568 250.732 73.3 249.742 71.608 249.148L70.744 249.904ZM69.034 251.416V260.74H70.312V252.46H78.34V251.416H69.034ZM77.692 251.416V259.372C77.692 259.606 77.638 259.678 77.404 259.678C77.17 259.678 76.414 259.696 75.568 259.66C75.73 259.966 75.892 260.434 75.946 260.776C77.152 260.776 77.908 260.776 78.376 260.56C78.862 260.362 78.988 260.056 78.988 259.39V251.416H77.692ZM69.034 247.636V248.716H78.016V247.636H69.034ZM69.736 254.044V255.052H78.214V254.044H69.736ZM69.736 256.69V257.734H78.214V256.69H69.736ZM73.336 251.848V260.668H74.56V251.848H73.336ZM77.566 247.636V247.888C76.756 248.734 75.082 249.778 73.606 250.354C73.804 250.552 74.146 250.912 74.326 251.146C75.964 250.462 77.782 249.346 78.988 248.212L78.16 247.564L77.872 247.636H77.566ZM90.508 253.846V254.962H96.394V253.846H90.508ZM89.824 247.726V263.458H91.066V248.932H96.268V247.726H89.824ZM95.62 247.726V251.182C95.62 251.38 95.548 251.452 95.26 251.47C94.972 251.488 94.036 251.488 92.92 251.452C93.1 251.794 93.28 252.28 93.334 252.64C94.72 252.64 95.62 252.622 96.178 252.424C96.736 252.226 96.88 251.866 96.88 251.2V247.726H95.62ZM92.272 254.584L91.21 254.854C92.272 258.598 94.27 261.874 97.042 263.44C97.258 263.098 97.672 262.612 97.978 262.342C95.278 261.028 93.244 257.95 92.272 254.584ZM95.98 253.846V254.134C95.422 257.428 93.73 260.794 91.03 262.558C91.336 262.792 91.732 263.17 91.93 263.476C94.81 261.532 96.592 257.986 97.294 254.08L96.466 253.774L96.232 253.846H95.98ZM81.886 248.734V249.904H88.564V248.734H81.886ZM81.67 258.58V259.75H88.798V258.58H81.67ZM81.238 251.704V252.874H89.248V251.704H81.238ZM81.49 255.448V256.618H89.032V255.448H81.49ZM84.658 246.916V252.118H85.918V246.916H84.658ZM84.658 255.934V263.404H85.918V255.934H84.658ZM87.088 252.802C86.89 253.504 86.494 254.566 86.188 255.232L87.196 255.538C87.538 254.908 87.88 253.972 88.24 253.108L87.088 252.802ZM82.498 253.09C82.858 253.882 83.2 254.908 83.29 255.556L84.37 255.25C84.28 254.62 83.92 253.594 83.524 252.838L82.498 253.09Z" fill="#F0EBF5"/>
<defs>
<clipPath id="clip0_4497_29204">
<rect width="66" height="69" fill="white" transform="translate(193.5 124)"/>
</clipPath>
<clipPath id="clip1_4497_29204">
<rect width="69" height="69" fill="white" transform="translate(413.5 27)"/>
</clipPath>
<clipPath id="clip2_4497_29204">
<rect width="64" height="64" fill="white" transform="translate(416.5 230)"/>
</clipPath>
<clipPath id="clip3_4497_29204">
<rect width="80" height="61" fill="white" transform="translate(562.5 30)"/>
</clipPath>
</defs>
</svg>
