<svg width="138" height="134" viewBox="0 0 138 134" fill="none" xmlns="http://www.w3.org/2000/svg">
<path d="M129.036 31.0834C130.342 47.5702 118.611 61.9854 102.906 63.3432C87.2004 64.7011 73.36 52.4969 72.0538 36.0101C70.7476 19.5232 82.4792 5.10811 98.1844 3.75025C113.89 2.39239 127.73 14.5966 129.036 31.0834Z" stroke="url(#paint0_linear_146_2850)" stroke-width="1.5"/>
<g clip-path="url(#clip0_146_2850)">
<g opacity="0.46">
<path d="M26.3732 97.0902C10.7222 75.7194 14.6398 45.1172 35.1184 28.7669C55.5971 12.4167 84.8697 16.5095 100.521 37.9027M26.3732 97.0902C11.3299 76.5395 15.747 46.647 36.2257 30.2967C56.7043 13.9465 85.4776 17.352 100.521 37.9027M26.3732 97.0902C11.9592 77.3818 16.8541 48.1544 37.3327 31.8042C57.8114 15.454 86.1067 18.1719 100.521 37.9027M26.3732 97.0902C12.5672 78.2243 17.9613 49.6842 38.44 33.334C58.9186 16.9838 86.7146 19.0144 100.521 37.9027M26.3732 97.0902C13.1751 79.0669 19.0684 51.1917 39.547 34.8414C60.0257 18.4912 87.3226 19.857 100.521 37.9027M26.3732 97.0902C15.628 82.4144 23.5184 57.2659 43.997 40.9157C64.4757 24.5655 89.7755 23.2045 100.521 37.9027M26.3732 97.0902C16.2574 83.2566 24.6256 58.7957 45.1043 42.4455C65.5829 26.0953 90.3837 24.0693 100.521 37.9027M26.3732 97.0902C16.8653 84.0991 25.7757 60.3251 46.2329 43.9751C66.6902 27.6251 91.013 24.9116 100.521 37.9027M26.3732 97.0902C17.4732 84.9417 26.8613 61.8327 47.34 45.4825C67.8186 29.1323 91.6207 25.7318 100.521 37.9027M26.3732 97.0902C18.0812 85.7842 27.9684 63.3402 48.447 46.99C68.9257 30.6398 92.2287 26.5743 100.521 37.9027M26.3732 97.0902C18.7105 86.6265 29.0756 64.87 49.5543 48.5198C70.0329 32.1696 92.858 27.4166 100.521 37.9027M26.3732 97.0902C19.3182 87.4466 30.1829 66.3998 50.6616 50.0496C71.1402 33.6994 93.4659 28.2591 100.521 37.9027M26.3732 97.0902C19.9262 88.2892 31.2899 67.9073 51.7686 51.557C72.2472 35.2068 94.0739 29.1016 100.521 37.9027M26.3732 97.0902C20.5341 89.1317 32.4186 69.4368 52.8972 53.0866C73.3759 36.7364 94.6818 29.9441 100.521 37.9027M26.3732 97.0902C21.1634 89.974 33.5256 70.9443 54.0043 54.5941C74.4829 38.2438 95.3109 30.7641 100.521 37.9027M26.3732 97.0902C21.7714 90.8165 34.6329 72.4741 55.1115 56.1239C75.5902 39.7736 95.9189 31.6066 100.521 37.9027M26.3732 97.0902C22.3793 91.659 35.7399 73.9815 56.2186 57.6313C76.6972 41.2811 96.5268 32.4491 100.521 37.9027M26.3732 97.0902C23.0084 92.4789 36.8472 75.5113 57.3259 59.1611C77.8045 42.8109 97.1347 33.2916 100.521 37.9027M26.3732 97.0902C23.6164 93.3214 37.997 77.0183 58.4543 60.6683C78.9115 44.3183 97.7641 34.1339 100.521 37.9027M26.3732 97.0902C24.2243 94.164 39.0829 78.5483 59.5615 62.1981C80.0402 45.8479 98.372 34.9764 100.521 37.9027M26.3732 97.0902C24.8322 95.0065 40.1899 80.0558 60.6686 63.7056C81.1472 47.3553 98.9797 35.7966 100.521 37.9027M26.3732 97.0902C25.4616 95.8488 41.2972 81.5856 61.7759 65.2354C82.2545 48.8851 99.609 36.6389 100.521 37.9027M26.3732 97.0902C26.0695 96.6913 42.4042 83.093 62.8829 66.7428C83.3615 50.3926 100.217 37.4814 100.521 37.9027M26.3732 97.0902C26.6772 97.5115 43.5543 84.6224 64.0115 68.2724C84.4688 51.9224 100.825 38.3239 100.521 37.9027M26.3732 97.0902C27.2852 98.354 44.6399 86.1301 65.1186 69.7798C85.5972 53.4296 101.433 39.1664 100.521 37.9027M26.3732 97.0902C27.9145 99.1963 45.7472 87.6599 66.2258 71.3096C86.7045 54.9594 102.062 40.0087 100.521 37.9027M26.3732 97.0902C28.5224 100.039 46.8542 89.1673 67.3329 72.8171C87.8115 56.4669 102.67 40.8289 100.521 37.9027M26.3732 97.0902C29.7597 101.724 49.1113 92.2041 69.5686 75.8541C90.0258 59.5041 103.907 42.5137 100.521 37.9027M26.3732 97.0902C30.9753 103.386 51.3042 95.2416 71.7829 78.8914C92.2615 62.5411 105.123 44.1764 100.521 37.9027M26.3732 97.0902C31.5833 104.229 52.4115 96.7714 72.8902 80.4212C93.3688 64.0709 105.731 45.0412 100.521 37.9027M26.3732 97.0902C32.2126 105.071 53.5185 98.2788 73.9972 81.9286C94.4758 65.5784 106.36 45.8612 100.521 37.9027M26.3732 97.0902C32.8206 105.914 54.6686 99.8082 75.1259 83.4582C95.5831 67.1082 106.968 46.7037 100.521 37.9027M26.3732 97.0902C33.4285 106.756 55.7542 101.316 76.2329 84.9656C96.7115 68.6154 107.576 47.5462 100.521 37.9027M26.3732 97.0902C34.0362 107.576 56.8615 102.846 77.3402 86.4954C97.8188 70.1452 108.184 48.3887 100.521 37.9027M26.3732 97.0902C34.6655 108.419 57.9685 104.353 78.4472 88.0029C98.9258 71.6526 108.813 49.231 100.521 37.9027M26.3732 97.0902C35.2735 109.261 59.0758 105.883 79.5545 89.5327C100.033 73.1825 109.421 50.0735 100.521 37.9027M26.3732 97.0902C36.5108 110.946 61.3115 108.92 81.7902 92.5697C102.269 76.2195 110.658 51.736 100.521 37.9027M26.3732 97.0902C37.1187 111.788 62.4185 110.427 82.8972 94.0771C103.376 77.7269 111.266 52.5785 100.521 37.9027M26.3732 97.0902C42.0245 118.483 71.3399 122.576 91.7972 106.226C112.254 89.8757 116.172 59.2958 100.521 37.9027M100.521 37.9027C87.9305 20.6995 61.1329 20.021 40.6757 36.371C20.2184 52.721 13.8045 79.9091 26.3949 97.1123M100.521 37.9027C88.5599 21.5418 62.2616 21.5506 41.7829 37.9008C21.3043 54.251 14.4126 80.774 26.3735 97.1125M100.521 37.9027C89.1678 22.3843 63.3686 23.058 42.89 39.4083C22.4113 55.7585 15.0203 81.5942 26.3735 97.1125M100.521 37.9027C103.278 41.6714 88.9188 57.9967 68.4402 74.3469C47.9615 90.6971 29.1304 100.881 26.3735 97.1125M100.521 37.9027C104.515 43.3562 91.1545 61.0337 70.6759 77.3839C50.1972 93.7341 30.3676 102.566 26.3735 97.1125M100.521 37.9027C110.029 50.8937 101.14 74.6899 80.6829 91.0399C60.2256 107.39 35.9028 110.103 26.3949 97.1123M100.521 37.9027C111.874 53.421 104.483 79.2567 84.0044 95.6069C63.5258 111.957 37.7266 112.631 26.3735 97.1125M100.521 37.9027C112.482 54.2635 105.59 80.7642 85.1115 97.1144C64.6328 113.465 38.3343 113.451 26.3735 97.1125M100.521 37.9027C113.111 55.1058 106.697 82.294 86.2401 98.6439C65.7829 114.994 38.9639 114.316 26.3949 97.1123M100.521 37.9027C113.719 55.926 107.826 83.8012 87.3472 100.151C66.8685 116.502 39.5716 115.136 26.3735 97.1125M100.521 37.9027C114.327 56.7685 108.933 85.331 88.4544 101.681C67.9758 118.031 40.1795 115.978 26.3735 97.1125M100.521 37.9027C114.935 57.611 110.04 86.8384 89.5615 103.189C69.0828 119.539 40.7875 116.821 26.3735 97.1125M100.521 37.9027C115.564 58.4533 111.147 88.3682 90.6688 104.718C70.1901 121.069 41.3954 117.663 26.3735 97.1125" stroke="#C4C4C4" stroke-width="0.5" stroke-miterlimit="10"/>
<path d="M26.3732 97.0902C10.7222 75.7194 14.6398 45.1172 35.1184 28.7669C55.5971 12.4167 84.8697 16.5095 100.521 37.9027M26.3732 97.0902C11.3299 76.5395 15.747 46.647 36.2257 30.2967C56.7043 13.9465 85.4776 17.352 100.521 37.9027M26.3732 97.0902C11.9592 77.3818 16.8541 48.1544 37.3327 31.8042C57.8114 15.454 86.1067 18.1719 100.521 37.9027M26.3732 97.0902C12.5672 78.2243 17.9613 49.6842 38.44 33.334C58.9186 16.9838 86.7146 19.0144 100.521 37.9027M26.3732 97.0902C13.1751 79.0669 19.0684 51.1917 39.547 34.8414C60.0257 18.4912 87.3226 19.857 100.521 37.9027M26.3732 97.0902C15.628 82.4144 23.5184 57.2659 43.997 40.9157C64.4757 24.5655 89.7755 23.2045 100.521 37.9027M26.3732 97.0902C16.2574 83.2566 24.6256 58.7957 45.1043 42.4455C65.5829 26.0953 90.3837 24.0693 100.521 37.9027M26.3732 97.0902C16.8653 84.0991 25.7757 60.3251 46.2329 43.9751C66.6902 27.6251 91.013 24.9116 100.521 37.9027M26.3732 97.0902C17.4732 84.9417 26.8613 61.8327 47.34 45.4825C67.8186 29.1323 91.6207 25.7318 100.521 37.9027M26.3732 97.0902C18.0812 85.7842 27.9684 63.3402 48.447 46.99C68.9257 30.6398 92.2287 26.5743 100.521 37.9027M26.3732 97.0902C18.7105 86.6265 29.0756 64.87 49.5543 48.5198C70.0329 32.1696 92.858 27.4166 100.521 37.9027M26.3732 97.0902C19.3182 87.4466 30.1829 66.3998 50.6616 50.0496C71.1402 33.6994 93.4659 28.2591 100.521 37.9027M26.3732 97.0902C19.9262 88.2892 31.2899 67.9073 51.7686 51.557C72.2472 35.2068 94.0739 29.1016 100.521 37.9027M26.3732 97.0902C20.5341 89.1317 32.4186 69.4368 52.8972 53.0866C73.3759 36.7364 94.6818 29.9441 100.521 37.9027M26.3732 97.0902C21.1634 89.974 33.5256 70.9443 54.0043 54.5941C74.4829 38.2438 95.3109 30.7641 100.521 37.9027M26.3732 97.0902C21.7714 90.8165 34.6329 72.4741 55.1115 56.1239C75.5902 39.7736 95.9189 31.6066 100.521 37.9027M26.3732 97.0902C22.3793 91.659 35.7399 73.9815 56.2186 57.6313C76.6972 41.2811 96.5268 32.4491 100.521 37.9027M26.3732 97.0902C23.0084 92.4789 36.8472 75.5113 57.3259 59.1611C77.8045 42.8109 97.1347 33.2916 100.521 37.9027M26.3732 97.0902C23.6164 93.3214 37.997 77.0183 58.4543 60.6683C78.9115 44.3183 97.7641 34.1339 100.521 37.9027M26.3732 97.0902C24.2243 94.164 39.0829 78.5483 59.5615 62.1981C80.0402 45.8479 98.372 34.9764 100.521 37.9027M26.3732 97.0902C24.8322 95.0065 40.1899 80.0558 60.6686 63.7056C81.1472 47.3553 98.9797 35.7966 100.521 37.9027M26.3732 97.0902C25.4616 95.8488 41.2972 81.5856 61.7759 65.2354C82.2545 48.8851 99.609 36.6389 100.521 37.9027M26.3732 97.0902C26.0695 96.6913 42.4042 83.093 62.8829 66.7428C83.3615 50.3926 100.217 37.4814 100.521 37.9027M26.3732 97.0902C26.6772 97.5115 43.5543 84.6224 64.0115 68.2724C84.4688 51.9224 100.825 38.3239 100.521 37.9027M26.3732 97.0902C27.2852 98.354 44.6399 86.1301 65.1186 69.7798C85.5972 53.4296 101.433 39.1664 100.521 37.9027M26.3732 97.0902C27.9145 99.1963 45.7472 87.6599 66.2258 71.3096C86.7045 54.9594 102.062 40.0087 100.521 37.9027M26.3732 97.0902C28.5224 100.039 46.8542 89.1673 67.3329 72.8171C87.8115 56.4669 102.67 40.8289 100.521 37.9027M26.3732 97.0902C29.7597 101.724 49.1113 92.2041 69.5686 75.8541C90.0258 59.5041 103.907 42.5137 100.521 37.9027M26.3732 97.0902C30.9753 103.386 51.3042 95.2416 71.7829 78.8914C92.2615 62.5411 105.123 44.1764 100.521 37.9027M26.3732 97.0902C31.5833 104.229 52.4115 96.7714 72.8902 80.4212C93.3688 64.0709 105.731 45.0412 100.521 37.9027M26.3732 97.0902C32.2126 105.071 53.5185 98.2788 73.9972 81.9286C94.4758 65.5784 106.36 45.8612 100.521 37.9027M26.3732 97.0902C32.8206 105.914 54.6686 99.8082 75.1259 83.4582C95.5831 67.1082 106.968 46.7037 100.521 37.9027M26.3732 97.0902C33.4285 106.756 55.7542 101.316 76.2329 84.9656C96.7115 68.6154 107.576 47.5462 100.521 37.9027M26.3732 97.0902C34.0362 107.576 56.8615 102.846 77.3402 86.4954C97.8188 70.1452 108.184 48.3887 100.521 37.9027M26.3732 97.0902C34.6655 108.419 57.9685 104.353 78.4472 88.0029C98.9258 71.6526 108.813 49.231 100.521 37.9027M26.3732 97.0902C35.2735 109.261 59.0758 105.883 79.5545 89.5327C100.033 73.1825 109.421 50.0735 100.521 37.9027M26.3732 97.0902C36.5108 110.946 61.3115 108.92 81.7902 92.5697C102.269 76.2195 110.658 51.736 100.521 37.9027M26.3732 97.0902C37.1187 111.788 62.4185 110.427 82.8972 94.0771C103.376 77.7269 111.266 52.5785 100.521 37.9027M26.3732 97.0902C42.0245 118.483 71.3399 122.576 91.7972 106.226C112.254 89.8757 116.172 59.2958 100.521 37.9027M100.521 37.9027C87.9305 20.6995 61.1329 20.021 40.6757 36.371C20.2184 52.721 13.8045 79.9091 26.3949 97.1123M100.521 37.9027C88.5599 21.5418 62.2616 21.5506 41.7829 37.9008C21.3043 54.251 14.4126 80.774 26.3735 97.1125M100.521 37.9027C89.1678 22.3843 63.3686 23.058 42.89 39.4083C22.4113 55.7585 15.0203 81.5942 26.3735 97.1125M100.521 37.9027C103.278 41.6714 88.9188 57.9967 68.4402 74.3469C47.9615 90.6971 29.1304 100.881 26.3735 97.1125M100.521 37.9027C104.515 43.3562 91.1545 61.0337 70.6759 77.3839C50.1972 93.7341 30.3676 102.566 26.3735 97.1125M100.521 37.9027C110.029 50.8937 101.14 74.6899 80.6829 91.0399C60.2256 107.39 35.9028 110.103 26.3949 97.1123M100.521 37.9027C111.874 53.421 104.483 79.2567 84.0044 95.6069C63.5258 111.957 37.7266 112.631 26.3735 97.1125M100.521 37.9027C112.482 54.2635 105.59 80.7642 85.1115 97.1144C64.6328 113.465 38.3343 113.451 26.3735 97.1125M100.521 37.9027C113.111 55.1058 106.697 82.294 86.2401 98.6439C65.7829 114.994 38.9639 114.316 26.3949 97.1123M100.521 37.9027C113.719 55.926 107.826 83.8012 87.3472 100.151C66.8685 116.502 39.5716 115.136 26.3735 97.1125M100.521 37.9027C114.327 56.7685 108.933 85.331 88.4544 101.681C67.9758 118.031 40.1795 115.978 26.3735 97.1125M100.521 37.9027C114.935 57.611 110.04 86.8384 89.5615 103.189C69.0828 119.539 40.7875 116.821 26.3735 97.1125M100.521 37.9027C115.564 58.4533 111.147 88.3682 90.6688 104.718C70.1901 121.069 41.3954 117.663 26.3735 97.1125" stroke="url(#paint1_diamond_146_2850)" stroke-width="0.5" stroke-miterlimit="10"/>
<path d="M26.3732 97.0902C10.7222 75.7194 14.6398 45.1172 35.1184 28.7669C55.5971 12.4167 84.8697 16.5095 100.521 37.9027M26.3732 97.0902C11.3299 76.5395 15.747 46.647 36.2257 30.2967C56.7043 13.9465 85.4776 17.352 100.521 37.9027M26.3732 97.0902C11.9592 77.3818 16.8541 48.1544 37.3327 31.8042C57.8114 15.454 86.1067 18.1719 100.521 37.9027M26.3732 97.0902C12.5672 78.2243 17.9613 49.6842 38.44 33.334C58.9186 16.9838 86.7146 19.0144 100.521 37.9027M26.3732 97.0902C13.1751 79.0669 19.0684 51.1917 39.547 34.8414C60.0257 18.4912 87.3226 19.857 100.521 37.9027M26.3732 97.0902C15.628 82.4144 23.5184 57.2659 43.997 40.9157C64.4757 24.5655 89.7755 23.2045 100.521 37.9027M26.3732 97.0902C16.2574 83.2566 24.6256 58.7957 45.1043 42.4455C65.5829 26.0953 90.3837 24.0693 100.521 37.9027M26.3732 97.0902C16.8653 84.0991 25.7757 60.3251 46.2329 43.9751C66.6902 27.6251 91.013 24.9116 100.521 37.9027M26.3732 97.0902C17.4732 84.9417 26.8613 61.8327 47.34 45.4825C67.8186 29.1323 91.6207 25.7318 100.521 37.9027M26.3732 97.0902C18.0812 85.7842 27.9684 63.3402 48.447 46.99C68.9257 30.6398 92.2287 26.5743 100.521 37.9027M26.3732 97.0902C18.7105 86.6265 29.0756 64.87 49.5543 48.5198C70.0329 32.1696 92.858 27.4166 100.521 37.9027M26.3732 97.0902C19.3182 87.4466 30.1829 66.3998 50.6616 50.0496C71.1402 33.6994 93.4659 28.2591 100.521 37.9027M26.3732 97.0902C19.9262 88.2892 31.2899 67.9073 51.7686 51.557C72.2472 35.2068 94.0739 29.1016 100.521 37.9027M26.3732 97.0902C20.5341 89.1317 32.4186 69.4368 52.8972 53.0866C73.3759 36.7364 94.6818 29.9441 100.521 37.9027M26.3732 97.0902C21.1634 89.974 33.5256 70.9443 54.0043 54.5941C74.4829 38.2438 95.3109 30.7641 100.521 37.9027M26.3732 97.0902C21.7714 90.8165 34.6329 72.4741 55.1115 56.1239C75.5902 39.7736 95.9189 31.6066 100.521 37.9027M26.3732 97.0902C22.3793 91.659 35.7399 73.9815 56.2186 57.6313C76.6972 41.2811 96.5268 32.4491 100.521 37.9027M26.3732 97.0902C23.0084 92.4789 36.8472 75.5113 57.3259 59.1611C77.8045 42.8109 97.1347 33.2916 100.521 37.9027M26.3732 97.0902C23.6164 93.3214 37.997 77.0183 58.4543 60.6683C78.9115 44.3183 97.7641 34.1339 100.521 37.9027M26.3732 97.0902C24.2243 94.164 39.0829 78.5483 59.5615 62.1981C80.0402 45.8479 98.372 34.9764 100.521 37.9027M26.3732 97.0902C24.8322 95.0065 40.1899 80.0558 60.6686 63.7056C81.1472 47.3553 98.9797 35.7966 100.521 37.9027M26.3732 97.0902C25.4616 95.8488 41.2972 81.5856 61.7759 65.2354C82.2545 48.8851 99.609 36.6389 100.521 37.9027M26.3732 97.0902C26.0695 96.6913 42.4042 83.093 62.8829 66.7428C83.3615 50.3926 100.217 37.4814 100.521 37.9027M26.3732 97.0902C26.6772 97.5115 43.5543 84.6224 64.0115 68.2724C84.4688 51.9224 100.825 38.3239 100.521 37.9027M26.3732 97.0902C27.2852 98.354 44.6399 86.1301 65.1186 69.7798C85.5972 53.4296 101.433 39.1664 100.521 37.9027M26.3732 97.0902C27.9145 99.1963 45.7472 87.6599 66.2258 71.3096C86.7045 54.9594 102.062 40.0087 100.521 37.9027M26.3732 97.0902C28.5224 100.039 46.8542 89.1673 67.3329 72.8171C87.8115 56.4669 102.67 40.8289 100.521 37.9027M26.3732 97.0902C29.7597 101.724 49.1113 92.2041 69.5686 75.8541C90.0258 59.5041 103.907 42.5137 100.521 37.9027M26.3732 97.0902C30.9753 103.386 51.3042 95.2416 71.7829 78.8914C92.2615 62.5411 105.123 44.1764 100.521 37.9027M26.3732 97.0902C31.5833 104.229 52.4115 96.7714 72.8902 80.4212C93.3688 64.0709 105.731 45.0412 100.521 37.9027M26.3732 97.0902C32.2126 105.071 53.5185 98.2788 73.9972 81.9286C94.4758 65.5784 106.36 45.8612 100.521 37.9027M26.3732 97.0902C32.8206 105.914 54.6686 99.8082 75.1259 83.4582C95.5831 67.1082 106.968 46.7037 100.521 37.9027M26.3732 97.0902C33.4285 106.756 55.7542 101.316 76.2329 84.9656C96.7115 68.6154 107.576 47.5462 100.521 37.9027M26.3732 97.0902C34.0362 107.576 56.8615 102.846 77.3402 86.4954C97.8188 70.1452 108.184 48.3887 100.521 37.9027M26.3732 97.0902C34.6655 108.419 57.9685 104.353 78.4472 88.0029C98.9258 71.6526 108.813 49.231 100.521 37.9027M26.3732 97.0902C35.2735 109.261 59.0758 105.883 79.5545 89.5327C100.033 73.1825 109.421 50.0735 100.521 37.9027M26.3732 97.0902C36.5108 110.946 61.3115 108.92 81.7902 92.5697C102.269 76.2195 110.658 51.736 100.521 37.9027M26.3732 97.0902C37.1187 111.788 62.4185 110.427 82.8972 94.0771C103.376 77.7269 111.266 52.5785 100.521 37.9027M26.3732 97.0902C42.0245 118.483 71.3399 122.576 91.7972 106.226C112.254 89.8757 116.172 59.2958 100.521 37.9027M100.521 37.9027C87.9305 20.6995 61.1329 20.021 40.6757 36.371C20.2184 52.721 13.8045 79.9091 26.3949 97.1123M100.521 37.9027C88.5599 21.5418 62.2616 21.5506 41.7829 37.9008C21.3043 54.251 14.4126 80.774 26.3735 97.1125M100.521 37.9027C89.1678 22.3843 63.3686 23.058 42.89 39.4083C22.4113 55.7585 15.0203 81.5942 26.3735 97.1125M100.521 37.9027C103.278 41.6714 88.9188 57.9967 68.4402 74.3469C47.9615 90.6971 29.1304 100.881 26.3735 97.1125M100.521 37.9027C104.515 43.3562 91.1545 61.0337 70.6759 77.3839C50.1972 93.7341 30.3676 102.566 26.3735 97.1125M100.521 37.9027C110.029 50.8937 101.14 74.6899 80.6829 91.0399C60.2256 107.39 35.9028 110.103 26.3949 97.1123M100.521 37.9027C111.874 53.421 104.483 79.2567 84.0044 95.6069C63.5258 111.957 37.7266 112.631 26.3735 97.1125M100.521 37.9027C112.482 54.2635 105.59 80.7642 85.1115 97.1144C64.6328 113.465 38.3343 113.451 26.3735 97.1125M100.521 37.9027C113.111 55.1058 106.697 82.294 86.2401 98.6439C65.7829 114.994 38.9639 114.316 26.3949 97.1123M100.521 37.9027C113.719 55.926 107.826 83.8012 87.3472 100.151C66.8685 116.502 39.5716 115.136 26.3735 97.1125M100.521 37.9027C114.327 56.7685 108.933 85.331 88.4544 101.681C67.9758 118.031 40.1795 115.978 26.3735 97.1125M100.521 37.9027C114.935 57.611 110.04 86.8384 89.5615 103.189C69.0828 119.539 40.7875 116.821 26.3735 97.1125M100.521 37.9027C115.564 58.4533 111.147 88.3682 90.6688 104.718C70.1901 121.069 41.3954 117.663 26.3735 97.1125" stroke="url(#paint2_linear_146_2850)" stroke-width="0.5" stroke-miterlimit="10"/>
</g>
<g opacity="0.46">
<path d="M26.3732 97.0902C10.7222 75.7194 14.6398 45.1172 35.1184 28.7669C55.5971 12.4167 84.8697 16.5095 100.521 37.9027M26.3732 97.0902C11.3299 76.5395 15.747 46.647 36.2257 30.2967C56.7043 13.9465 85.4776 17.352 100.521 37.9027M26.3732 97.0902C11.9592 77.3818 16.8541 48.1544 37.3327 31.8042C57.8114 15.454 86.1067 18.1719 100.521 37.9027M26.3732 97.0902C12.5672 78.2243 17.9613 49.6842 38.44 33.334C58.9186 16.9838 86.7146 19.0144 100.521 37.9027M26.3732 97.0902C13.1751 79.0669 19.0684 51.1917 39.547 34.8414C60.0257 18.4912 87.3226 19.857 100.521 37.9027M26.3732 97.0902C15.628 82.4144 23.5184 57.2659 43.997 40.9157C64.4757 24.5655 89.7755 23.2045 100.521 37.9027M26.3732 97.0902C16.2574 83.2566 24.6256 58.7957 45.1043 42.4455C65.5829 26.0953 90.3837 24.0693 100.521 37.9027M26.3732 97.0902C16.8653 84.0991 25.7757 60.3251 46.2329 43.9751C66.6902 27.6251 91.013 24.9116 100.521 37.9027M26.3732 97.0902C17.4732 84.9417 26.8613 61.8327 47.34 45.4825C67.8186 29.1323 91.6207 25.7318 100.521 37.9027M26.3732 97.0902C18.0812 85.7842 27.9684 63.3402 48.447 46.99C68.9257 30.6398 92.2286 26.5743 100.521 37.9027M26.3732 97.0902C18.7105 86.6265 29.0756 64.87 49.5543 48.5198C70.0329 32.1696 92.858 27.4166 100.521 37.9027M26.3732 97.0902C19.3182 87.4466 30.1829 66.3998 50.6615 50.0496C71.1402 33.6994 93.4659 28.2591 100.521 37.9027M26.3732 97.0902C19.9262 88.2892 31.2899 67.9073 51.7686 51.557C72.2472 35.2068 94.0739 29.1016 100.521 37.9027M26.3732 97.0902C20.5341 89.1317 32.4186 69.4368 52.8972 53.0866C73.3759 36.7364 94.6818 29.9441 100.521 37.9027M26.3732 97.0902C21.1634 89.974 33.5256 70.9443 54.0043 54.5941C74.4829 38.2438 95.3109 30.7641 100.521 37.9027M26.3732 97.0902C21.7714 90.8165 34.6329 72.4741 55.1115 56.1239C75.5902 39.7736 95.9188 31.6066 100.521 37.9027M26.3732 97.0902C22.3793 91.659 35.7399 73.9815 56.2186 57.6313C76.6972 41.2811 96.5268 32.4491 100.521 37.9027M26.3732 97.0902C23.0084 92.4789 36.8472 75.5113 57.3258 59.1611C77.8045 42.8109 97.1347 33.2916 100.521 37.9027M26.3732 97.0902C23.6164 93.3215 37.997 77.0183 58.4543 60.6683C78.9115 44.3183 97.764 34.1339 100.521 37.9027M26.3732 97.0902C24.2243 94.164 39.0829 78.5483 59.5615 62.1981C80.0402 45.8479 98.372 34.9764 100.521 37.9027M26.3732 97.0902C24.8322 95.0065 40.1899 80.0558 60.6686 63.7056C81.1472 47.3554 98.9797 35.7966 100.521 37.9027M26.3732 97.0902C25.4616 95.8488 41.2972 81.5856 61.7758 65.2354C82.2545 48.8851 99.609 36.6389 100.521 37.9027M26.3732 97.0902C26.0695 96.6913 42.4042 83.093 62.8829 66.7428C83.3615 50.3926 100.217 37.4814 100.521 37.9027M26.3732 97.0902C26.6772 97.5115 43.5543 84.6224 64.0115 68.2724C84.4688 51.9224 100.825 38.3239 100.521 37.9027M26.3732 97.0902C27.2852 98.354 44.6399 86.1301 65.1186 69.7798C85.5972 53.4296 101.433 39.1664 100.521 37.9027M26.3732 97.0902C27.9145 99.1963 45.7472 87.6599 66.2258 71.3096C86.7045 54.9594 102.062 40.0087 100.521 37.9027M26.3732 97.0902C28.5224 100.039 46.8542 89.1673 67.3329 72.8171C87.8115 56.4669 102.67 40.8289 100.521 37.9027M26.3732 97.0902C29.7597 101.724 49.1113 92.2041 69.5686 75.8541C90.0258 59.5041 103.907 42.5137 100.521 37.9027M26.3732 97.0902C30.9753 103.386 51.3042 95.2416 71.7829 78.8914C92.2615 62.5411 105.123 44.1764 100.521 37.9027M26.3732 97.0902C31.5833 104.229 52.4115 96.7714 72.8902 80.4212C93.3688 64.0709 105.731 45.0413 100.521 37.9027M26.3732 97.0902C32.2126 105.071 53.5185 98.2788 73.9972 81.9286C94.4758 65.5784 106.36 45.8612 100.521 37.9027M26.3732 97.0902C32.8206 105.914 54.6686 99.8082 75.1258 83.4582C95.5831 67.1082 106.968 46.7037 100.521 37.9027M26.3732 97.0902C33.4285 106.756 55.7542 101.316 76.2329 84.9656C96.7115 68.6154 107.576 47.5462 100.521 37.9027M26.3732 97.0902C34.0362 107.576 56.8615 102.846 77.3401 86.4954C97.8188 70.1452 108.184 48.3887 100.521 37.9027M26.3732 97.0902C34.6655 108.419 57.9685 104.353 78.4472 88.0029C98.9258 71.6526 108.813 49.231 100.521 37.9027M26.3732 97.0902C35.2735 109.261 59.0758 105.883 79.5545 89.5327C100.033 73.1825 109.421 50.0735 100.521 37.9027M26.3732 97.0902C36.5107 110.946 61.3115 108.92 81.7901 92.5697C102.269 76.2195 110.658 51.736 100.521 37.9027M26.3732 97.0902C37.1187 111.788 62.4185 110.427 82.8972 94.0771C103.376 77.7269 111.266 52.5785 100.521 37.9027M26.3732 97.0902C42.0245 118.483 71.3399 122.576 91.7972 106.226C112.254 89.8757 116.172 59.2958 100.521 37.9027M100.521 37.9027C87.9305 20.6995 61.1329 20.021 40.6757 36.371C20.2184 52.721 13.8045 79.9091 26.3949 97.1123M100.521 37.9027C88.5599 21.5418 62.2616 21.5506 41.7829 37.9008C21.3043 54.251 14.4126 80.774 26.3735 97.1125M100.521 37.9027C89.1678 22.3843 63.3686 23.058 42.89 39.4083C22.4113 55.7585 15.0203 81.5942 26.3735 97.1125M100.521 37.9027C103.278 41.6714 88.9188 57.9967 68.4402 74.3469C47.9615 90.6971 29.1304 100.881 26.3735 97.1125M100.521 37.9027C104.515 43.3562 91.1545 61.0337 70.6758 77.3839C50.1972 93.7341 30.3676 102.566 26.3735 97.1125M100.521 37.9027C110.029 50.8937 101.14 74.6899 80.6829 91.0399C60.2256 107.39 35.9028 110.103 26.3949 97.1123M100.521 37.9027C111.874 53.421 104.483 79.2567 84.0044 95.6069C63.5258 111.957 37.7266 112.631 26.3735 97.1125M100.521 37.9027C112.482 54.2636 105.59 80.7642 85.1115 97.1144C64.6328 113.465 38.3343 113.451 26.3735 97.1125M100.521 37.9027C113.111 55.1058 106.697 82.294 86.2401 98.6439C65.7829 114.994 38.9639 114.316 26.3949 97.1123M100.521 37.9027C113.719 55.926 107.826 83.8012 87.3472 100.151C66.8685 116.502 39.5716 115.136 26.3735 97.1125M100.521 37.9027C114.327 56.7685 108.933 85.331 88.4544 101.681C67.9758 118.031 40.1795 115.978 26.3735 97.1125M100.521 37.9027C114.935 57.611 110.04 86.8384 89.5615 103.189C69.0828 119.539 40.7875 116.821 26.3735 97.1125M100.521 37.9027C115.564 58.4533 111.147 88.3682 90.6687 104.718C70.1901 121.069 41.3954 117.663 26.3735 97.1125" stroke="#C4C4C4" stroke-width="0.5" stroke-miterlimit="10"/>
<path d="M26.3732 97.0902C10.7222 75.7194 14.6398 45.1172 35.1184 28.7669C55.5971 12.4167 84.8697 16.5095 100.521 37.9027M26.3732 97.0902C11.3299 76.5395 15.747 46.647 36.2257 30.2967C56.7043 13.9465 85.4776 17.352 100.521 37.9027M26.3732 97.0902C11.9592 77.3818 16.8541 48.1544 37.3327 31.8042C57.8114 15.454 86.1067 18.1719 100.521 37.9027M26.3732 97.0902C12.5672 78.2243 17.9613 49.6842 38.44 33.334C58.9186 16.9838 86.7146 19.0144 100.521 37.9027M26.3732 97.0902C13.1751 79.0669 19.0684 51.1917 39.547 34.8414C60.0257 18.4912 87.3226 19.857 100.521 37.9027M26.3732 97.0902C15.628 82.4144 23.5184 57.2659 43.997 40.9157C64.4757 24.5655 89.7755 23.2045 100.521 37.9027M26.3732 97.0902C16.2574 83.2566 24.6256 58.7957 45.1043 42.4455C65.5829 26.0953 90.3837 24.0693 100.521 37.9027M26.3732 97.0902C16.8653 84.0991 25.7757 60.3251 46.2329 43.9751C66.6902 27.6251 91.013 24.9116 100.521 37.9027M26.3732 97.0902C17.4732 84.9417 26.8613 61.8327 47.34 45.4825C67.8186 29.1323 91.6207 25.7318 100.521 37.9027M26.3732 97.0902C18.0812 85.7842 27.9684 63.3402 48.447 46.99C68.9257 30.6398 92.2286 26.5743 100.521 37.9027M26.3732 97.0902C18.7105 86.6265 29.0756 64.87 49.5543 48.5198C70.0329 32.1696 92.858 27.4166 100.521 37.9027M26.3732 97.0902C19.3182 87.4466 30.1829 66.3998 50.6615 50.0496C71.1402 33.6994 93.4659 28.2591 100.521 37.9027M26.3732 97.0902C19.9262 88.2892 31.2899 67.9073 51.7686 51.557C72.2472 35.2068 94.0739 29.1016 100.521 37.9027M26.3732 97.0902C20.5341 89.1317 32.4186 69.4368 52.8972 53.0866C73.3759 36.7364 94.6818 29.9441 100.521 37.9027M26.3732 97.0902C21.1634 89.974 33.5256 70.9443 54.0043 54.5941C74.4829 38.2438 95.3109 30.7641 100.521 37.9027M26.3732 97.0902C21.7714 90.8165 34.6329 72.4741 55.1115 56.1239C75.5902 39.7736 95.9188 31.6066 100.521 37.9027M26.3732 97.0902C22.3793 91.659 35.7399 73.9815 56.2186 57.6313C76.6972 41.2811 96.5268 32.4491 100.521 37.9027M26.3732 97.0902C23.0084 92.4789 36.8472 75.5113 57.3258 59.1611C77.8045 42.8109 97.1347 33.2916 100.521 37.9027M26.3732 97.0902C23.6164 93.3215 37.997 77.0183 58.4543 60.6683C78.9115 44.3183 97.764 34.1339 100.521 37.9027M26.3732 97.0902C24.2243 94.164 39.0829 78.5483 59.5615 62.1981C80.0402 45.8479 98.372 34.9764 100.521 37.9027M26.3732 97.0902C24.8322 95.0065 40.1899 80.0558 60.6686 63.7056C81.1472 47.3554 98.9797 35.7966 100.521 37.9027M26.3732 97.0902C25.4616 95.8488 41.2972 81.5856 61.7758 65.2354C82.2545 48.8851 99.609 36.6389 100.521 37.9027M26.3732 97.0902C26.0695 96.6913 42.4042 83.093 62.8829 66.7428C83.3615 50.3926 100.217 37.4814 100.521 37.9027M26.3732 97.0902C26.6772 97.5115 43.5543 84.6224 64.0115 68.2724C84.4688 51.9224 100.825 38.3239 100.521 37.9027M26.3732 97.0902C27.2852 98.354 44.6399 86.1301 65.1186 69.7798C85.5972 53.4296 101.433 39.1664 100.521 37.9027M26.3732 97.0902C27.9145 99.1963 45.7472 87.6599 66.2258 71.3096C86.7045 54.9594 102.062 40.0087 100.521 37.9027M26.3732 97.0902C28.5224 100.039 46.8542 89.1673 67.3329 72.8171C87.8115 56.4669 102.67 40.8289 100.521 37.9027M26.3732 97.0902C29.7597 101.724 49.1113 92.2041 69.5686 75.8541C90.0258 59.5041 103.907 42.5137 100.521 37.9027M26.3732 97.0902C30.9753 103.386 51.3042 95.2416 71.7829 78.8914C92.2615 62.5411 105.123 44.1764 100.521 37.9027M26.3732 97.0902C31.5833 104.229 52.4115 96.7714 72.8902 80.4212C93.3688 64.0709 105.731 45.0413 100.521 37.9027M26.3732 97.0902C32.2126 105.071 53.5185 98.2788 73.9972 81.9286C94.4758 65.5784 106.36 45.8612 100.521 37.9027M26.3732 97.0902C32.8206 105.914 54.6686 99.8082 75.1258 83.4582C95.5831 67.1082 106.968 46.7037 100.521 37.9027M26.3732 97.0902C33.4285 106.756 55.7542 101.316 76.2329 84.9656C96.7115 68.6154 107.576 47.5462 100.521 37.9027M26.3732 97.0902C34.0362 107.576 56.8615 102.846 77.3401 86.4954C97.8188 70.1452 108.184 48.3887 100.521 37.9027M26.3732 97.0902C34.6655 108.419 57.9685 104.353 78.4472 88.0029C98.9258 71.6526 108.813 49.231 100.521 37.9027M26.3732 97.0902C35.2735 109.261 59.0758 105.883 79.5545 89.5327C100.033 73.1825 109.421 50.0735 100.521 37.9027M26.3732 97.0902C36.5107 110.946 61.3115 108.92 81.7901 92.5697C102.269 76.2195 110.658 51.736 100.521 37.9027M26.3732 97.0902C37.1187 111.788 62.4185 110.427 82.8972 94.0771C103.376 77.7269 111.266 52.5785 100.521 37.9027M26.3732 97.0902C42.0245 118.483 71.3399 122.576 91.7972 106.226C112.254 89.8757 116.172 59.2958 100.521 37.9027M100.521 37.9027C87.9305 20.6995 61.1329 20.021 40.6757 36.371C20.2184 52.721 13.8045 79.9091 26.3949 97.1123M100.521 37.9027C88.5599 21.5418 62.2616 21.5506 41.7829 37.9008C21.3043 54.251 14.4126 80.774 26.3735 97.1125M100.521 37.9027C89.1678 22.3843 63.3686 23.058 42.89 39.4083C22.4113 55.7585 15.0203 81.5942 26.3735 97.1125M100.521 37.9027C103.278 41.6714 88.9188 57.9967 68.4402 74.3469C47.9615 90.6971 29.1304 100.881 26.3735 97.1125M100.521 37.9027C104.515 43.3562 91.1545 61.0337 70.6758 77.3839C50.1972 93.7341 30.3676 102.566 26.3735 97.1125M100.521 37.9027C110.029 50.8937 101.14 74.6899 80.6829 91.0399C60.2256 107.39 35.9028 110.103 26.3949 97.1123M100.521 37.9027C111.874 53.421 104.483 79.2567 84.0044 95.6069C63.5258 111.957 37.7266 112.631 26.3735 97.1125M100.521 37.9027C112.482 54.2636 105.59 80.7642 85.1115 97.1144C64.6328 113.465 38.3343 113.451 26.3735 97.1125M100.521 37.9027C113.111 55.1058 106.697 82.294 86.2401 98.6439C65.7829 114.994 38.9639 114.316 26.3949 97.1123M100.521 37.9027C113.719 55.926 107.826 83.8012 87.3472 100.151C66.8685 116.502 39.5716 115.136 26.3735 97.1125M100.521 37.9027C114.327 56.7685 108.933 85.331 88.4544 101.681C67.9758 118.031 40.1795 115.978 26.3735 97.1125M100.521 37.9027C114.935 57.611 110.04 86.8384 89.5615 103.189C69.0828 119.539 40.7875 116.821 26.3735 97.1125M100.521 37.9027C115.564 58.4533 111.147 88.3682 90.6687 104.718C70.1901 121.069 41.3954 117.663 26.3735 97.1125" stroke="url(#paint3_diamond_146_2850)" stroke-width="0.5" stroke-miterlimit="10"/>
<path d="M26.3732 97.0902C10.7222 75.7194 14.6398 45.1172 35.1184 28.7669C55.5971 12.4167 84.8697 16.5095 100.521 37.9027M26.3732 97.0902C11.3299 76.5395 15.747 46.647 36.2257 30.2967C56.7043 13.9465 85.4776 17.352 100.521 37.9027M26.3732 97.0902C11.9592 77.3818 16.8541 48.1544 37.3327 31.8042C57.8114 15.454 86.1067 18.1719 100.521 37.9027M26.3732 97.0902C12.5672 78.2243 17.9613 49.6842 38.44 33.334C58.9186 16.9838 86.7146 19.0144 100.521 37.9027M26.3732 97.0902C13.1751 79.0669 19.0684 51.1917 39.547 34.8414C60.0257 18.4912 87.3226 19.857 100.521 37.9027M26.3732 97.0902C15.628 82.4144 23.5184 57.2659 43.997 40.9157C64.4757 24.5655 89.7755 23.2045 100.521 37.9027M26.3732 97.0902C16.2574 83.2566 24.6256 58.7957 45.1043 42.4455C65.5829 26.0953 90.3837 24.0693 100.521 37.9027M26.3732 97.0902C16.8653 84.0991 25.7757 60.3251 46.2329 43.9751C66.6902 27.6251 91.013 24.9116 100.521 37.9027M26.3732 97.0902C17.4732 84.9417 26.8613 61.8327 47.34 45.4825C67.8186 29.1323 91.6207 25.7318 100.521 37.9027M26.3732 97.0902C18.0812 85.7842 27.9684 63.3402 48.447 46.99C68.9257 30.6398 92.2286 26.5743 100.521 37.9027M26.3732 97.0902C18.7105 86.6265 29.0756 64.87 49.5543 48.5198C70.0329 32.1696 92.858 27.4166 100.521 37.9027M26.3732 97.0902C19.3182 87.4466 30.1829 66.3998 50.6615 50.0496C71.1402 33.6994 93.4659 28.2591 100.521 37.9027M26.3732 97.0902C19.9262 88.2892 31.2899 67.9073 51.7686 51.557C72.2472 35.2068 94.0739 29.1016 100.521 37.9027M26.3732 97.0902C20.5341 89.1317 32.4186 69.4368 52.8972 53.0866C73.3759 36.7364 94.6818 29.9441 100.521 37.9027M26.3732 97.0902C21.1634 89.974 33.5256 70.9443 54.0043 54.5941C74.4829 38.2438 95.3109 30.7641 100.521 37.9027M26.3732 97.0902C21.7714 90.8165 34.6329 72.4741 55.1115 56.1239C75.5902 39.7736 95.9188 31.6066 100.521 37.9027M26.3732 97.0902C22.3793 91.659 35.7399 73.9815 56.2186 57.6313C76.6972 41.2811 96.5268 32.4491 100.521 37.9027M26.3732 97.0902C23.0084 92.4789 36.8472 75.5113 57.3258 59.1611C77.8045 42.8109 97.1347 33.2916 100.521 37.9027M26.3732 97.0902C23.6164 93.3215 37.997 77.0183 58.4543 60.6683C78.9115 44.3183 97.764 34.1339 100.521 37.9027M26.3732 97.0902C24.2243 94.164 39.0829 78.5483 59.5615 62.1981C80.0402 45.8479 98.372 34.9764 100.521 37.9027M26.3732 97.0902C24.8322 95.0065 40.1899 80.0558 60.6686 63.7056C81.1472 47.3554 98.9797 35.7966 100.521 37.9027M26.3732 97.0902C25.4616 95.8488 41.2972 81.5856 61.7758 65.2354C82.2545 48.8851 99.609 36.6389 100.521 37.9027M26.3732 97.0902C26.0695 96.6913 42.4042 83.093 62.8829 66.7428C83.3615 50.3926 100.217 37.4814 100.521 37.9027M26.3732 97.0902C26.6772 97.5115 43.5543 84.6224 64.0115 68.2724C84.4688 51.9224 100.825 38.3239 100.521 37.9027M26.3732 97.0902C27.2852 98.354 44.6399 86.1301 65.1186 69.7798C85.5972 53.4296 101.433 39.1664 100.521 37.9027M26.3732 97.0902C27.9145 99.1963 45.7472 87.6599 66.2258 71.3096C86.7045 54.9594 102.062 40.0087 100.521 37.9027M26.3732 97.0902C28.5224 100.039 46.8542 89.1673 67.3329 72.8171C87.8115 56.4669 102.67 40.8289 100.521 37.9027M26.3732 97.0902C29.7597 101.724 49.1113 92.2041 69.5686 75.8541C90.0258 59.5041 103.907 42.5137 100.521 37.9027M26.3732 97.0902C30.9753 103.386 51.3042 95.2416 71.7829 78.8914C92.2615 62.5411 105.123 44.1764 100.521 37.9027M26.3732 97.0902C31.5833 104.229 52.4115 96.7714 72.8902 80.4212C93.3688 64.0709 105.731 45.0413 100.521 37.9027M26.3732 97.0902C32.2126 105.071 53.5185 98.2788 73.9972 81.9286C94.4758 65.5784 106.36 45.8612 100.521 37.9027M26.3732 97.0902C32.8206 105.914 54.6686 99.8082 75.1258 83.4582C95.5831 67.1082 106.968 46.7037 100.521 37.9027M26.3732 97.0902C33.4285 106.756 55.7542 101.316 76.2329 84.9656C96.7115 68.6154 107.576 47.5462 100.521 37.9027M26.3732 97.0902C34.0362 107.576 56.8615 102.846 77.3401 86.4954C97.8188 70.1452 108.184 48.3887 100.521 37.9027M26.3732 97.0902C34.6655 108.419 57.9685 104.353 78.4472 88.0029C98.9258 71.6526 108.813 49.231 100.521 37.9027M26.3732 97.0902C35.2735 109.261 59.0758 105.883 79.5545 89.5327C100.033 73.1825 109.421 50.0735 100.521 37.9027M26.3732 97.0902C36.5107 110.946 61.3115 108.92 81.7901 92.5697C102.269 76.2195 110.658 51.736 100.521 37.9027M26.3732 97.0902C37.1187 111.788 62.4185 110.427 82.8972 94.0771C103.376 77.7269 111.266 52.5785 100.521 37.9027M26.3732 97.0902C42.0245 118.483 71.3399 122.576 91.7972 106.226C112.254 89.8757 116.172 59.2958 100.521 37.9027M100.521 37.9027C87.9305 20.6995 61.1329 20.021 40.6757 36.371C20.2184 52.721 13.8045 79.9091 26.3949 97.1123M100.521 37.9027C88.5599 21.5418 62.2616 21.5506 41.7829 37.9008C21.3043 54.251 14.4126 80.774 26.3735 97.1125M100.521 37.9027C89.1678 22.3843 63.3686 23.058 42.89 39.4083C22.4113 55.7585 15.0203 81.5942 26.3735 97.1125M100.521 37.9027C103.278 41.6714 88.9188 57.9967 68.4402 74.3469C47.9615 90.6971 29.1304 100.881 26.3735 97.1125M100.521 37.9027C104.515 43.3562 91.1545 61.0337 70.6758 77.3839C50.1972 93.7341 30.3676 102.566 26.3735 97.1125M100.521 37.9027C110.029 50.8937 101.14 74.6899 80.6829 91.0399C60.2256 107.39 35.9028 110.103 26.3949 97.1123M100.521 37.9027C111.874 53.421 104.483 79.2567 84.0044 95.6069C63.5258 111.957 37.7266 112.631 26.3735 97.1125M100.521 37.9027C112.482 54.2636 105.59 80.7642 85.1115 97.1144C64.6328 113.465 38.3343 113.451 26.3735 97.1125M100.521 37.9027C113.111 55.1058 106.697 82.294 86.2401 98.6439C65.7829 114.994 38.9639 114.316 26.3949 97.1123M100.521 37.9027C113.719 55.926 107.826 83.8012 87.3472 100.151C66.8685 116.502 39.5716 115.136 26.3735 97.1125M100.521 37.9027C114.327 56.7685 108.933 85.331 88.4544 101.681C67.9758 118.031 40.1795 115.978 26.3735 97.1125M100.521 37.9027C114.935 57.611 110.04 86.8384 89.5615 103.189C69.0828 119.539 40.7875 116.821 26.3735 97.1125M100.521 37.9027C115.564 58.4533 111.147 88.3682 90.6687 104.718C70.1901 121.069 41.3954 117.663 26.3735 97.1125" stroke="url(#paint4_linear_146_2850)" stroke-width="0.5" stroke-miterlimit="10"/>
</g>
</g>
<defs>
<linearGradient id="paint0_linear_146_2850" x1="98.1252" y1="3.00259" x2="103.404" y2="64.053" gradientUnits="userSpaceOnUse">
<stop stop-color="#5F73E0"/>
<stop offset="0.489583" stop-color="#68CDDB" stop-opacity="0.5"/>
<stop offset="1" stop-color="#B468DB" stop-opacity="0.3"/>
</linearGradient>
<radialGradient id="paint1_diamond_146_2850" cx="0" cy="0" r="1" gradientUnits="userSpaceOnUse" gradientTransform="translate(84.7683 82.5593) rotate(-133.823) scale(81.6073 156.357)">
<stop stop-color="#253137" stop-opacity="0.9"/>
<stop offset="0.931345" stop-color="#6292C9"/>
</radialGradient>
<linearGradient id="paint2_linear_146_2850" x1="91.1475" y1="34.381" x2="31.1404" y2="92.4685" gradientUnits="userSpaceOnUse">
<stop stop-color="#6383D1"/>
<stop offset="0.666667" stop-color="#608DC7"/>
</linearGradient>
<radialGradient id="paint3_diamond_146_2850" cx="0" cy="0" r="1" gradientUnits="userSpaceOnUse" gradientTransform="translate(84.7683 82.5593) rotate(-133.823) scale(81.6073 156.357)">
<stop stop-color="#253137" stop-opacity="0.9"/>
<stop offset="0.931345" stop-color="#6292C9"/>
</radialGradient>
<linearGradient id="paint4_linear_146_2850" x1="91.1475" y1="34.381" x2="31.1404" y2="92.4685" gradientUnits="userSpaceOnUse">
<stop stop-color="#6383D1"/>
<stop offset="0.666667" stop-color="#608DC7"/>
</linearGradient>
<clipPath id="clip0_146_2850">
<rect width="94.1559" height="97.1386" fill="white" transform="matrix(0.919772 -0.392452 0.36414 0.931344 2.45996 40.7378)"/>
</clipPath>
</defs>
</svg>
