<svg width="181" height="184" viewBox="0 0 181 184" fill="none" xmlns="http://www.w3.org/2000/svg">
<path d="M147.842 145.939C130.538 152.386 111.5 144.192 105.252 127.782C99.0046 111.373 107.848 92.7918 125.152 86.3454C142.457 79.899 161.495 88.0932 167.742 104.503C173.99 120.912 165.146 139.493 147.842 145.939Z" stroke="url(#paint0_linear_146_2840)" stroke-width="2.5"/>
<g clip-path="url(#clip0_146_2840)">
<g opacity="0.46">
<path d="M44.5561 55.263C62.9191 31.6582 97.3589 26.4453 121.447 43.6232C145.535 60.8012 150.146 93.8515 131.759 117.464M44.5561 55.263C62.2165 32.5717 96.0404 28.1208 120.128 45.2987C144.217 62.4767 149.42 94.7722 131.759 117.464M44.5561 55.263C61.4967 33.5156 94.746 29.7891 118.834 46.9671C142.922 64.145 148.724 95.7089 131.759 117.464M44.5561 55.263C60.7699 34.4363 93.4275 31.4646 117.516 48.6426C141.604 65.8205 147.997 96.6297 131.759 117.464M44.5561 55.263C60.0432 35.3571 92.1332 33.133 116.221 50.3109C140.309 67.4889 147.27 97.5504 131.759 117.464M44.5561 55.263C57.1672 39.056 86.9143 39.8438 111.002 57.0218C135.09 74.1997 144.395 101.249 131.759 117.464M44.5561 55.263C56.4474 39.9999 85.5957 41.5193 109.684 58.6973C133.772 75.8752 143.644 102.177 131.759 117.464M44.5561 55.263C55.7206 40.9206 84.291 43.2412 108.372 60.3959C132.453 77.5507 142.924 103.121 131.759 117.464M44.5561 55.263C54.9939 41.8413 82.9898 44.8863 107.078 62.0643C131.166 79.2422 142.221 104.035 131.759 117.464M44.5561 55.263C54.2671 42.7621 81.6954 46.5547 105.783 63.7326C129.872 80.9106 141.494 104.955 131.759 117.464M44.5561 55.263C53.5473 43.7059 80.3769 48.2302 104.465 65.4081C128.553 82.5861 140.775 105.899 131.759 117.464M44.5561 55.263C52.8447 44.6195 79.0583 49.9057 103.146 67.0836C127.234 84.2616 140.048 106.82 131.759 117.464M44.5561 55.263C52.118 45.5402 77.764 51.574 101.852 68.752C125.94 85.9299 139.321 107.741 131.759 117.464M44.5561 55.263C51.3912 46.461 76.4523 53.2727 100.54 70.4506C124.628 87.6286 138.594 108.661 131.759 117.464M44.5561 55.263C50.6713 47.4049 75.158 54.941 99.246 72.119C123.334 89.2969 137.899 109.598 131.759 117.464M44.5561 55.263C49.9446 48.3256 73.8394 56.6166 97.9275 73.7945C122.016 90.9724 137.172 110.519 131.759 117.464M44.5561 55.263C49.2178 49.2463 72.5451 58.2849 96.6332 75.4628C120.721 92.6408 136.445 111.44 131.759 117.464M44.5561 55.263C48.5222 50.183 71.2266 59.9604 95.3146 77.1383C119.403 94.3163 135.718 112.36 131.759 117.464M44.5561 55.263C47.7954 51.1038 69.946 61.6751 94.0272 78.8298C118.108 95.9846 134.999 113.304 131.759 117.464M44.5561 55.263C47.0687 52.0245 68.6206 63.3274 92.7086 80.5053C116.797 97.6833 134.272 114.225 131.759 117.464M44.5561 55.263C46.3419 52.9452 67.3262 64.9958 91.4143 82.1737C115.502 99.3516 133.569 115.139 131.759 117.464M44.5561 55.263C45.6221 53.8891 66.0077 66.6713 90.0958 83.8492C114.184 101.027 132.849 116.082 131.759 117.464M44.5561 55.263C44.8953 54.8098 64.7134 68.3396 88.8014 85.5175C112.889 102.695 132.123 117.003 131.759 117.464M44.5561 55.263C44.1928 55.7234 63.4086 70.0614 87.4898 87.2162C111.571 104.371 131.396 117.924 131.759 117.464M44.5561 55.263C43.466 56.6441 62.1074 71.7066 86.1954 88.8846C110.283 106.062 130.669 118.845 131.759 117.464M44.5561 55.263C42.7461 57.588 60.7888 73.3821 84.8769 90.5601C108.965 107.738 129.949 119.789 131.759 117.464M44.5561 55.263C42.0194 58.5088 59.4945 75.0505 83.5825 92.2284C107.671 109.406 129.247 120.702 131.759 117.464M44.5561 55.263C40.5728 60.3734 56.8954 78.4406 80.9765 95.5954C105.058 112.75 127.8 122.567 131.759 117.464M44.5561 55.263C39.1435 62.2077 54.2756 81.7613 78.3637 98.9393C102.452 116.117 126.371 124.401 131.759 117.464M44.5561 55.263C38.4167 63.1284 52.9571 83.4368 77.0451 100.615C101.133 117.793 125.62 125.329 131.759 117.464M44.5561 55.263C37.6969 64.0723 51.6627 85.1052 75.7508 102.283C99.8388 119.461 124.924 126.266 131.759 117.464M44.5561 55.263C36.9701 64.993 50.358 86.827 74.4391 103.982C98.5203 121.137 124.197 127.186 131.759 117.464M44.5561 55.263C36.2434 65.9137 49.0567 88.4722 73.1448 105.65C97.2329 122.828 123.471 128.107 131.759 117.464M44.5561 55.263C35.5408 66.8273 47.7382 90.1477 71.8263 107.326C95.9143 124.504 122.744 129.028 131.759 117.464M44.5561 55.263C34.8209 67.7712 46.4439 91.816 70.5319 108.994C94.62 126.172 122.024 129.972 131.759 117.464M44.5561 55.263C34.0942 68.6919 45.1253 93.4915 69.2134 110.669C93.3014 127.847 121.297 130.892 131.759 117.464M44.5561 55.263C32.6476 70.5565 42.5193 96.8585 66.6074 114.036C90.6954 131.214 119.875 132.75 131.759 117.464M44.5561 55.263C31.9208 71.4773 41.225 98.5269 65.313 115.705C89.4011 132.883 119.148 133.671 131.759 117.464M44.5561 55.263C26.169 78.8751 30.7941 111.972 54.8753 129.127C78.9565 146.281 113.372 141.076 131.759 117.464M131.759 117.464C146.544 98.4711 138.991 69.1644 114.91 52.0096C90.8284 34.8548 59.3233 36.301 44.5388 55.2934M131.759 117.464C145.824 99.415 137.679 70.863 113.591 53.6851C89.503 36.5071 58.5724 37.2289 44.5319 55.2702M131.759 117.464C145.097 100.336 136.385 72.5314 112.297 55.3534C88.2086 38.1755 57.8698 38.1424 44.5319 55.2702M131.759 117.464C128.52 121.623 106.352 111.082 82.264 93.9039C58.1759 76.726 41.2927 59.4295 44.5319 55.2702M131.759 117.464C127.073 123.487 103.746 114.449 79.658 97.2709C55.5699 80.093 39.846 61.2941 44.5319 55.2702M131.759 117.464C120.595 131.806 92.0071 129.516 67.9259 112.361C43.8448 95.2062 33.3743 69.6358 44.5388 55.2934M131.759 117.464C118.421 134.591 88.0826 134.558 63.9945 117.38C39.9064 100.202 31.1941 72.398 44.5319 55.2702M131.759 117.464C117.695 135.512 86.7882 136.227 62.7002 119.049C38.6121 101.871 30.4915 73.3116 44.5319 55.2702M131.759 117.464C116.975 136.456 85.4697 137.902 61.3885 120.747C37.3073 103.593 29.7475 74.2626 44.5388 55.2934M131.759 117.464C116.272 137.37 84.1822 139.594 60.0942 122.416C36.0061 105.238 29.0449 75.1762 44.5319 55.2702M131.759 117.464C115.545 138.29 82.8637 141.269 58.7756 124.091C34.6876 106.913 28.3182 76.0969 44.5319 55.2702M131.759 117.464C114.819 139.211 81.5693 142.937 57.4813 125.76C33.3932 108.582 27.5914 77.0176 44.5319 55.2702M131.759 117.464C114.099 140.155 80.2508 144.613 56.1628 127.435C32.0747 110.257 26.8647 77.9384 44.5319 55.2702" stroke="#C4C4C4" stroke-width="0.6" stroke-miterlimit="10"/>
<path d="M44.5561 55.263C62.9191 31.6582 97.3589 26.4453 121.447 43.6232C145.535 60.8012 150.146 93.8515 131.759 117.464M44.5561 55.263C62.2165 32.5717 96.0404 28.1208 120.128 45.2987C144.217 62.4767 149.42 94.7722 131.759 117.464M44.5561 55.263C61.4967 33.5156 94.746 29.7891 118.834 46.9671C142.922 64.145 148.724 95.7089 131.759 117.464M44.5561 55.263C60.7699 34.4363 93.4275 31.4646 117.516 48.6426C141.604 65.8205 147.997 96.6297 131.759 117.464M44.5561 55.263C60.0432 35.3571 92.1332 33.133 116.221 50.3109C140.309 67.4889 147.27 97.5504 131.759 117.464M44.5561 55.263C57.1672 39.056 86.9143 39.8438 111.002 57.0218C135.09 74.1997 144.395 101.249 131.759 117.464M44.5561 55.263C56.4474 39.9999 85.5957 41.5193 109.684 58.6973C133.772 75.8752 143.644 102.177 131.759 117.464M44.5561 55.263C55.7206 40.9206 84.291 43.2412 108.372 60.3959C132.453 77.5507 142.924 103.121 131.759 117.464M44.5561 55.263C54.9939 41.8413 82.9898 44.8863 107.078 62.0643C131.166 79.2422 142.221 104.035 131.759 117.464M44.5561 55.263C54.2671 42.7621 81.6954 46.5547 105.783 63.7326C129.872 80.9106 141.494 104.955 131.759 117.464M44.5561 55.263C53.5473 43.7059 80.3769 48.2302 104.465 65.4081C128.553 82.5861 140.775 105.899 131.759 117.464M44.5561 55.263C52.8447 44.6195 79.0583 49.9057 103.146 67.0836C127.234 84.2616 140.048 106.82 131.759 117.464M44.5561 55.263C52.118 45.5402 77.764 51.574 101.852 68.752C125.94 85.9299 139.321 107.741 131.759 117.464M44.5561 55.263C51.3912 46.461 76.4523 53.2727 100.54 70.4506C124.628 87.6286 138.594 108.661 131.759 117.464M44.5561 55.263C50.6713 47.4049 75.158 54.941 99.246 72.119C123.334 89.2969 137.899 109.598 131.759 117.464M44.5561 55.263C49.9446 48.3256 73.8394 56.6166 97.9275 73.7945C122.016 90.9724 137.172 110.519 131.759 117.464M44.5561 55.263C49.2178 49.2463 72.5451 58.2849 96.6332 75.4628C120.721 92.6408 136.445 111.44 131.759 117.464M44.5561 55.263C48.5222 50.183 71.2266 59.9604 95.3146 77.1383C119.403 94.3163 135.718 112.36 131.759 117.464M44.5561 55.263C47.7954 51.1038 69.946 61.6751 94.0272 78.8298C118.108 95.9846 134.999 113.304 131.759 117.464M44.5561 55.263C47.0687 52.0245 68.6206 63.3274 92.7086 80.5053C116.797 97.6833 134.272 114.225 131.759 117.464M44.5561 55.263C46.3419 52.9452 67.3262 64.9958 91.4143 82.1737C115.502 99.3516 133.569 115.139 131.759 117.464M44.5561 55.263C45.6221 53.8891 66.0077 66.6713 90.0958 83.8492C114.184 101.027 132.849 116.082 131.759 117.464M44.5561 55.263C44.8953 54.8098 64.7134 68.3396 88.8014 85.5175C112.889 102.695 132.123 117.003 131.759 117.464M44.5561 55.263C44.1928 55.7234 63.4086 70.0614 87.4898 87.2162C111.571 104.371 131.396 117.924 131.759 117.464M44.5561 55.263C43.466 56.6441 62.1074 71.7066 86.1954 88.8846C110.283 106.062 130.669 118.845 131.759 117.464M44.5561 55.263C42.7461 57.588 60.7888 73.3821 84.8769 90.5601C108.965 107.738 129.949 119.789 131.759 117.464M44.5561 55.263C42.0194 58.5088 59.4945 75.0505 83.5825 92.2284C107.671 109.406 129.247 120.702 131.759 117.464M44.5561 55.263C40.5728 60.3734 56.8954 78.4406 80.9765 95.5954C105.058 112.75 127.8 122.567 131.759 117.464M44.5561 55.263C39.1435 62.2077 54.2756 81.7613 78.3637 98.9393C102.452 116.117 126.371 124.401 131.759 117.464M44.5561 55.263C38.4167 63.1284 52.9571 83.4368 77.0451 100.615C101.133 117.793 125.62 125.329 131.759 117.464M44.5561 55.263C37.6969 64.0723 51.6627 85.1052 75.7508 102.283C99.8388 119.461 124.924 126.266 131.759 117.464M44.5561 55.263C36.9701 64.993 50.358 86.827 74.4391 103.982C98.5203 121.137 124.197 127.186 131.759 117.464M44.5561 55.263C36.2434 65.9137 49.0567 88.4722 73.1448 105.65C97.2329 122.828 123.471 128.107 131.759 117.464M44.5561 55.263C35.5408 66.8273 47.7382 90.1477 71.8263 107.326C95.9143 124.504 122.744 129.028 131.759 117.464M44.5561 55.263C34.8209 67.7712 46.4439 91.816 70.5319 108.994C94.62 126.172 122.024 129.972 131.759 117.464M44.5561 55.263C34.0942 68.6919 45.1253 93.4915 69.2134 110.669C93.3014 127.847 121.297 130.892 131.759 117.464M44.5561 55.263C32.6476 70.5565 42.5193 96.8585 66.6074 114.036C90.6954 131.214 119.875 132.75 131.759 117.464M44.5561 55.263C31.9208 71.4773 41.225 98.5269 65.313 115.705C89.4011 132.883 119.148 133.671 131.759 117.464M44.5561 55.263C26.169 78.8751 30.7941 111.972 54.8753 129.127C78.9565 146.281 113.372 141.076 131.759 117.464M131.759 117.464C146.544 98.4711 138.991 69.1644 114.91 52.0096C90.8284 34.8548 59.3233 36.301 44.5388 55.2934M131.759 117.464C145.824 99.415 137.679 70.863 113.591 53.6851C89.503 36.5071 58.5724 37.2289 44.5319 55.2702M131.759 117.464C145.097 100.336 136.385 72.5314 112.297 55.3534C88.2086 38.1755 57.8698 38.1424 44.5319 55.2702M131.759 117.464C128.52 121.623 106.352 111.082 82.264 93.9039C58.1759 76.726 41.2927 59.4295 44.5319 55.2702M131.759 117.464C127.073 123.487 103.746 114.449 79.658 97.2709C55.5699 80.093 39.846 61.2941 44.5319 55.2702M131.759 117.464C120.595 131.806 92.0071 129.516 67.9259 112.361C43.8448 95.2062 33.3743 69.6358 44.5388 55.2934M131.759 117.464C118.421 134.591 88.0826 134.558 63.9945 117.38C39.9064 100.202 31.1941 72.398 44.5319 55.2702M131.759 117.464C117.695 135.512 86.7882 136.227 62.7002 119.049C38.6121 101.871 30.4915 73.3116 44.5319 55.2702M131.759 117.464C116.975 136.456 85.4697 137.902 61.3885 120.747C37.3073 103.593 29.7475 74.2626 44.5388 55.2934M131.759 117.464C116.272 137.37 84.1822 139.594 60.0942 122.416C36.0061 105.238 29.0449 75.1762 44.5319 55.2702M131.759 117.464C115.545 138.29 82.8637 141.269 58.7756 124.091C34.6876 106.913 28.3182 76.0969 44.5319 55.2702M131.759 117.464C114.819 139.211 81.5693 142.937 57.4813 125.76C33.3932 108.582 27.5914 77.0176 44.5319 55.2702M131.759 117.464C114.099 140.155 80.2508 144.613 56.1628 127.435C32.0747 110.257 26.8647 77.9384 44.5319 55.2702" stroke="url(#paint1_diamond_146_2840)" stroke-width="0.6" stroke-miterlimit="10"/>
<path d="M44.5561 55.263C62.9191 31.6582 97.3589 26.4453 121.447 43.6232C145.535 60.8012 150.146 93.8515 131.759 117.464M44.5561 55.263C62.2165 32.5717 96.0404 28.1208 120.128 45.2987C144.217 62.4767 149.42 94.7722 131.759 117.464M44.5561 55.263C61.4967 33.5156 94.746 29.7891 118.834 46.9671C142.922 64.145 148.724 95.7089 131.759 117.464M44.5561 55.263C60.7699 34.4363 93.4275 31.4646 117.516 48.6426C141.604 65.8205 147.997 96.6297 131.759 117.464M44.5561 55.263C60.0432 35.3571 92.1332 33.133 116.221 50.3109C140.309 67.4889 147.27 97.5504 131.759 117.464M44.5561 55.263C57.1672 39.056 86.9143 39.8438 111.002 57.0218C135.09 74.1997 144.395 101.249 131.759 117.464M44.5561 55.263C56.4474 39.9999 85.5957 41.5193 109.684 58.6973C133.772 75.8752 143.644 102.177 131.759 117.464M44.5561 55.263C55.7206 40.9206 84.291 43.2412 108.372 60.3959C132.453 77.5507 142.924 103.121 131.759 117.464M44.5561 55.263C54.9939 41.8413 82.9898 44.8863 107.078 62.0643C131.166 79.2422 142.221 104.035 131.759 117.464M44.5561 55.263C54.2671 42.7621 81.6954 46.5547 105.783 63.7326C129.872 80.9106 141.494 104.955 131.759 117.464M44.5561 55.263C53.5473 43.7059 80.3769 48.2302 104.465 65.4081C128.553 82.5861 140.775 105.899 131.759 117.464M44.5561 55.263C52.8447 44.6195 79.0583 49.9057 103.146 67.0836C127.234 84.2616 140.048 106.82 131.759 117.464M44.5561 55.263C52.118 45.5402 77.764 51.574 101.852 68.752C125.94 85.9299 139.321 107.741 131.759 117.464M44.5561 55.263C51.3912 46.461 76.4523 53.2727 100.54 70.4506C124.628 87.6286 138.594 108.661 131.759 117.464M44.5561 55.263C50.6713 47.4049 75.158 54.941 99.246 72.119C123.334 89.2969 137.899 109.598 131.759 117.464M44.5561 55.263C49.9446 48.3256 73.8394 56.6166 97.9275 73.7945C122.016 90.9724 137.172 110.519 131.759 117.464M44.5561 55.263C49.2178 49.2463 72.5451 58.2849 96.6332 75.4628C120.721 92.6408 136.445 111.44 131.759 117.464M44.5561 55.263C48.5222 50.183 71.2266 59.9604 95.3146 77.1383C119.403 94.3163 135.718 112.36 131.759 117.464M44.5561 55.263C47.7954 51.1038 69.946 61.6751 94.0272 78.8298C118.108 95.9846 134.999 113.304 131.759 117.464M44.5561 55.263C47.0687 52.0245 68.6206 63.3274 92.7086 80.5053C116.797 97.6833 134.272 114.225 131.759 117.464M44.5561 55.263C46.3419 52.9452 67.3262 64.9958 91.4143 82.1737C115.502 99.3516 133.569 115.139 131.759 117.464M44.5561 55.263C45.6221 53.8891 66.0077 66.6713 90.0958 83.8492C114.184 101.027 132.849 116.082 131.759 117.464M44.5561 55.263C44.8953 54.8098 64.7134 68.3396 88.8014 85.5175C112.889 102.695 132.123 117.003 131.759 117.464M44.5561 55.263C44.1928 55.7234 63.4086 70.0614 87.4898 87.2162C111.571 104.371 131.396 117.924 131.759 117.464M44.5561 55.263C43.466 56.6441 62.1074 71.7066 86.1954 88.8846C110.283 106.062 130.669 118.845 131.759 117.464M44.5561 55.263C42.7461 57.588 60.7888 73.3821 84.8769 90.5601C108.965 107.738 129.949 119.789 131.759 117.464M44.5561 55.263C42.0194 58.5088 59.4945 75.0505 83.5825 92.2284C107.671 109.406 129.247 120.702 131.759 117.464M44.5561 55.263C40.5728 60.3734 56.8954 78.4406 80.9765 95.5954C105.058 112.75 127.8 122.567 131.759 117.464M44.5561 55.263C39.1435 62.2077 54.2756 81.7613 78.3637 98.9393C102.452 116.117 126.371 124.401 131.759 117.464M44.5561 55.263C38.4167 63.1284 52.9571 83.4368 77.0451 100.615C101.133 117.793 125.62 125.329 131.759 117.464M44.5561 55.263C37.6969 64.0723 51.6627 85.1052 75.7508 102.283C99.8388 119.461 124.924 126.266 131.759 117.464M44.5561 55.263C36.9701 64.993 50.358 86.827 74.4391 103.982C98.5203 121.137 124.197 127.186 131.759 117.464M44.5561 55.263C36.2434 65.9137 49.0567 88.4722 73.1448 105.65C97.2329 122.828 123.471 128.107 131.759 117.464M44.5561 55.263C35.5408 66.8273 47.7382 90.1477 71.8263 107.326C95.9143 124.504 122.744 129.028 131.759 117.464M44.5561 55.263C34.8209 67.7712 46.4439 91.816 70.5319 108.994C94.62 126.172 122.024 129.972 131.759 117.464M44.5561 55.263C34.0942 68.6919 45.1253 93.4915 69.2134 110.669C93.3014 127.847 121.297 130.892 131.759 117.464M44.5561 55.263C32.6476 70.5565 42.5193 96.8585 66.6074 114.036C90.6954 131.214 119.875 132.75 131.759 117.464M44.5561 55.263C31.9208 71.4773 41.225 98.5269 65.313 115.705C89.4011 132.883 119.148 133.671 131.759 117.464M44.5561 55.263C26.169 78.8751 30.7941 111.972 54.8753 129.127C78.9565 146.281 113.372 141.076 131.759 117.464M131.759 117.464C146.544 98.4711 138.991 69.1644 114.91 52.0096C90.8284 34.8548 59.3233 36.301 44.5388 55.2934M131.759 117.464C145.824 99.415 137.679 70.863 113.591 53.6851C89.503 36.5071 58.5724 37.2289 44.5319 55.2702M131.759 117.464C145.097 100.336 136.385 72.5314 112.297 55.3534C88.2086 38.1755 57.8698 38.1424 44.5319 55.2702M131.759 117.464C128.52 121.623 106.352 111.082 82.264 93.9039C58.1759 76.726 41.2927 59.4295 44.5319 55.2702M131.759 117.464C127.073 123.487 103.746 114.449 79.658 97.2709C55.5699 80.093 39.846 61.2941 44.5319 55.2702M131.759 117.464C120.595 131.806 92.0071 129.516 67.9259 112.361C43.8448 95.2062 33.3743 69.6358 44.5388 55.2934M131.759 117.464C118.421 134.591 88.0826 134.558 63.9945 117.38C39.9064 100.202 31.1941 72.398 44.5319 55.2702M131.759 117.464C117.695 135.512 86.7882 136.227 62.7002 119.049C38.6121 101.871 30.4915 73.3116 44.5319 55.2702M131.759 117.464C116.975 136.456 85.4697 137.902 61.3885 120.747C37.3073 103.593 29.7475 74.2626 44.5388 55.2934M131.759 117.464C116.272 137.37 84.1822 139.594 60.0942 122.416C36.0061 105.238 29.0449 75.1762 44.5319 55.2702M131.759 117.464C115.545 138.29 82.8637 141.269 58.7756 124.091C34.6876 106.913 28.3182 76.0969 44.5319 55.2702M131.759 117.464C114.819 139.211 81.5693 142.937 57.4813 125.76C33.3932 108.582 27.5914 77.0176 44.5319 55.2702M131.759 117.464C114.099 140.155 80.2508 144.613 56.1628 127.435C32.0747 110.257 26.8647 77.9384 44.5319 55.2702" stroke="url(#paint2_linear_146_2840)" stroke-width="0.6" stroke-miterlimit="10"/>
</g>
<g opacity="0.46">
<path d="M44.5561 55.263C62.9191 31.6582 97.3589 26.4453 121.447 43.6232C145.535 60.8012 150.146 93.8515 131.759 117.464M44.5561 55.263C62.2165 32.5717 96.0404 28.1208 120.128 45.2987C144.216 62.4767 149.42 94.7722 131.759 117.464M44.5561 55.263C61.4967 33.5156 94.746 29.7891 118.834 46.9671C142.922 64.145 148.724 95.7089 131.759 117.464M44.5561 55.263C60.7699 34.4363 93.4275 31.4646 117.516 48.6426C141.604 65.8205 147.997 96.6297 131.759 117.464M44.5561 55.263C60.0432 35.3571 92.1332 33.133 116.221 50.3109C140.309 67.4889 147.27 97.5504 131.759 117.464M44.5561 55.263C57.1672 39.056 86.9143 39.8438 111.002 57.0218C135.09 74.1997 144.395 101.249 131.759 117.464M44.5561 55.263C56.4474 39.9999 85.5957 41.5193 109.684 58.6973C133.772 75.8752 143.644 102.177 131.759 117.464M44.5561 55.263C55.7206 40.9206 84.291 43.2412 108.372 60.3959C132.453 77.5507 142.924 103.121 131.759 117.464M44.5561 55.263C54.9939 41.8413 82.9898 44.8863 107.078 62.0643C131.166 79.2422 142.221 104.035 131.759 117.464M44.5561 55.263C54.2671 42.7621 81.6954 46.5547 105.783 63.7326C129.872 80.9106 141.494 104.955 131.759 117.464M44.5561 55.263C53.5473 43.706 80.3769 48.2302 104.465 65.4081C128.553 82.5861 140.775 105.899 131.759 117.464M44.5561 55.263C52.8447 44.6195 79.0583 49.9057 103.146 67.0836C127.234 84.2616 140.048 106.82 131.759 117.464M44.5561 55.263C52.118 45.5402 77.764 51.574 101.852 68.752C125.94 85.9299 139.321 107.741 131.759 117.464M44.5561 55.263C51.3912 46.461 76.4523 53.2727 100.54 70.4506C124.628 87.6286 138.594 108.661 131.759 117.464M44.5561 55.263C50.6713 47.4049 75.158 54.9411 99.246 72.119C123.334 89.2969 137.899 109.598 131.759 117.464M44.5561 55.263C49.9446 48.3256 73.8394 56.6166 97.9275 73.7945C122.016 90.9724 137.172 110.519 131.759 117.464M44.5561 55.263C49.2178 49.2463 72.5451 58.2849 96.6332 75.4628C120.721 92.6408 136.445 111.44 131.759 117.464M44.5561 55.263C48.5222 50.183 71.2266 59.9604 95.3146 77.1383C119.403 94.3163 135.718 112.36 131.759 117.464M44.5561 55.263C47.7954 51.1038 69.946 61.6751 94.0272 78.8298C118.108 95.9846 134.999 113.304 131.759 117.464M44.5561 55.263C47.0687 52.0245 68.6206 63.3274 92.7086 80.5054C116.797 97.6833 134.272 114.225 131.759 117.464M44.5561 55.263C46.3419 52.9452 67.3262 64.9958 91.4143 82.1737C115.502 99.3516 133.569 115.139 131.759 117.464M44.5561 55.263C45.6221 53.8891 66.0077 66.6713 90.0958 83.8492C114.184 101.027 132.849 116.082 131.759 117.464M44.5561 55.263C44.8953 54.8098 64.7134 68.3396 88.8014 85.5175C112.889 102.695 132.123 117.003 131.759 117.464M44.5561 55.263C44.1928 55.7234 63.4086 70.0614 87.4898 87.2162C111.571 104.371 131.396 117.924 131.759 117.464M44.5561 55.263C43.466 56.6441 62.1074 71.7066 86.1954 88.8846C110.283 106.062 130.669 118.845 131.759 117.464M44.5561 55.263C42.7461 57.588 60.7888 73.3821 84.8769 90.5601C108.965 107.738 129.949 119.789 131.759 117.464M44.5561 55.263C42.0194 58.5088 59.4945 75.0505 83.5825 92.2284C107.671 109.406 129.247 120.702 131.759 117.464M44.5561 55.263C40.5728 60.3734 56.8954 78.4406 80.9765 95.5954C105.058 112.75 127.8 122.567 131.759 117.464M44.5561 55.263C39.1435 62.2077 54.2756 81.7613 78.3637 98.9393C102.452 116.117 126.371 124.401 131.759 117.464M44.5561 55.263C38.4167 63.1284 52.9571 83.4368 77.0451 100.615C101.133 117.793 125.62 125.329 131.759 117.464M44.5561 55.263C37.6968 64.0723 51.6627 85.1052 75.7508 102.283C99.8388 119.461 124.924 126.266 131.759 117.464M44.5561 55.263C36.9701 64.993 50.3579 86.827 74.4391 103.982C98.5203 121.137 124.197 127.186 131.759 117.464M44.5561 55.263C36.2433 65.9137 49.0567 88.4722 73.1448 105.65C97.2328 122.828 123.471 128.107 131.759 117.464M44.5561 55.263C35.5408 66.8273 47.7382 90.1477 71.8263 107.326C95.9143 124.504 122.744 129.028 131.759 117.464M44.5561 55.263C34.8209 67.7712 46.4439 91.816 70.5319 108.994C94.62 126.172 122.024 129.972 131.759 117.464M44.5561 55.263C34.0942 68.6919 45.1253 93.4915 69.2134 110.669C93.3014 127.847 121.297 130.892 131.759 117.464M44.5561 55.263C32.6476 70.5565 42.5193 96.8585 66.6074 114.036C90.6954 131.214 119.875 132.75 131.759 117.464M44.5561 55.263C31.9208 71.4773 41.225 98.5269 65.313 115.705C89.4011 132.883 119.148 133.671 131.759 117.464M44.5561 55.263C26.169 78.8751 30.7941 111.972 54.8753 129.127C78.9565 146.281 113.372 141.076 131.759 117.464M131.759 117.464C146.544 98.4711 138.991 69.1644 114.91 52.0096C90.8284 34.8548 59.3233 36.301 44.5388 55.2934M131.759 117.464C145.824 99.415 137.679 70.863 113.591 53.6851C89.503 36.5071 58.5724 37.2289 44.5319 55.2702M131.759 117.464C145.097 100.336 136.385 72.5314 112.297 55.3534C88.2086 38.1755 57.8698 38.1424 44.5319 55.2702M131.759 117.464C128.52 121.623 106.352 111.082 82.264 93.9039C58.1759 76.726 41.2926 59.4295 44.5319 55.2702M131.759 117.464C127.073 123.487 103.746 114.449 79.658 97.2709C55.5699 80.093 39.846 61.2941 44.5319 55.2702M131.759 117.464C120.595 131.806 92.0071 129.516 67.9259 112.361C43.8447 95.2062 33.3743 69.6358 44.5388 55.2934M131.759 117.464C118.421 134.591 88.0826 134.558 63.9945 117.38C39.9064 100.202 31.1941 72.398 44.5319 55.2702M131.759 117.464C117.695 135.512 86.7882 136.227 62.7001 119.049C38.6121 101.871 30.4915 73.3116 44.5319 55.2702M131.759 117.464C116.975 136.456 85.4697 137.902 61.3885 120.747C37.3073 103.593 29.7475 74.2626 44.5388 55.2934M131.759 117.464C116.272 137.37 84.1822 139.594 60.0942 122.416C36.0061 105.238 29.0449 75.1762 44.5319 55.2702M131.759 117.464C115.545 138.29 82.8637 141.269 58.7756 124.091C34.6876 106.913 28.3182 76.0969 44.5319 55.2702M131.759 117.464C114.819 139.211 81.5693 142.937 57.4813 125.76C33.3932 108.582 27.5914 77.0176 44.5319 55.2702M131.759 117.464C114.099 140.155 80.2508 144.613 56.1627 127.435C32.0747 110.257 26.8647 77.9384 44.5319 55.2702" stroke="#C4C4C4" stroke-width="0.6" stroke-miterlimit="10"/>
<path d="M44.5561 55.263C62.9191 31.6582 97.3589 26.4453 121.447 43.6232C145.535 60.8012 150.146 93.8515 131.759 117.464M44.5561 55.263C62.2165 32.5717 96.0404 28.1208 120.128 45.2987C144.216 62.4767 149.42 94.7722 131.759 117.464M44.5561 55.263C61.4967 33.5156 94.746 29.7891 118.834 46.9671C142.922 64.145 148.724 95.7089 131.759 117.464M44.5561 55.263C60.7699 34.4363 93.4275 31.4646 117.516 48.6426C141.604 65.8205 147.997 96.6297 131.759 117.464M44.5561 55.263C60.0432 35.3571 92.1332 33.133 116.221 50.3109C140.309 67.4889 147.27 97.5504 131.759 117.464M44.5561 55.263C57.1672 39.056 86.9143 39.8438 111.002 57.0218C135.09 74.1997 144.395 101.249 131.759 117.464M44.5561 55.263C56.4474 39.9999 85.5957 41.5193 109.684 58.6973C133.772 75.8752 143.644 102.177 131.759 117.464M44.5561 55.263C55.7206 40.9206 84.291 43.2412 108.372 60.3959C132.453 77.5507 142.924 103.121 131.759 117.464M44.5561 55.263C54.9939 41.8413 82.9898 44.8863 107.078 62.0643C131.166 79.2422 142.221 104.035 131.759 117.464M44.5561 55.263C54.2671 42.7621 81.6954 46.5547 105.783 63.7326C129.872 80.9106 141.494 104.955 131.759 117.464M44.5561 55.263C53.5473 43.706 80.3769 48.2302 104.465 65.4081C128.553 82.5861 140.775 105.899 131.759 117.464M44.5561 55.263C52.8447 44.6195 79.0583 49.9057 103.146 67.0836C127.234 84.2616 140.048 106.82 131.759 117.464M44.5561 55.263C52.118 45.5402 77.764 51.574 101.852 68.752C125.94 85.9299 139.321 107.741 131.759 117.464M44.5561 55.263C51.3912 46.461 76.4523 53.2727 100.54 70.4506C124.628 87.6286 138.594 108.661 131.759 117.464M44.5561 55.263C50.6713 47.4049 75.158 54.9411 99.246 72.119C123.334 89.2969 137.899 109.598 131.759 117.464M44.5561 55.263C49.9446 48.3256 73.8394 56.6166 97.9275 73.7945C122.016 90.9724 137.172 110.519 131.759 117.464M44.5561 55.263C49.2178 49.2463 72.5451 58.2849 96.6332 75.4628C120.721 92.6408 136.445 111.44 131.759 117.464M44.5561 55.263C48.5222 50.183 71.2266 59.9604 95.3146 77.1383C119.403 94.3163 135.718 112.36 131.759 117.464M44.5561 55.263C47.7954 51.1038 69.946 61.6751 94.0272 78.8298C118.108 95.9846 134.999 113.304 131.759 117.464M44.5561 55.263C47.0687 52.0245 68.6206 63.3274 92.7086 80.5054C116.797 97.6833 134.272 114.225 131.759 117.464M44.5561 55.263C46.3419 52.9452 67.3262 64.9958 91.4143 82.1737C115.502 99.3516 133.569 115.139 131.759 117.464M44.5561 55.263C45.6221 53.8891 66.0077 66.6713 90.0958 83.8492C114.184 101.027 132.849 116.082 131.759 117.464M44.5561 55.263C44.8953 54.8098 64.7134 68.3396 88.8014 85.5175C112.889 102.695 132.123 117.003 131.759 117.464M44.5561 55.263C44.1928 55.7234 63.4086 70.0614 87.4898 87.2162C111.571 104.371 131.396 117.924 131.759 117.464M44.5561 55.263C43.466 56.6441 62.1074 71.7066 86.1954 88.8846C110.283 106.062 130.669 118.845 131.759 117.464M44.5561 55.263C42.7461 57.588 60.7888 73.3821 84.8769 90.5601C108.965 107.738 129.949 119.789 131.759 117.464M44.5561 55.263C42.0194 58.5088 59.4945 75.0505 83.5825 92.2284C107.671 109.406 129.247 120.702 131.759 117.464M44.5561 55.263C40.5728 60.3734 56.8954 78.4406 80.9765 95.5954C105.058 112.75 127.8 122.567 131.759 117.464M44.5561 55.263C39.1435 62.2077 54.2756 81.7613 78.3637 98.9393C102.452 116.117 126.371 124.401 131.759 117.464M44.5561 55.263C38.4167 63.1284 52.9571 83.4368 77.0451 100.615C101.133 117.793 125.62 125.329 131.759 117.464M44.5561 55.263C37.6968 64.0723 51.6627 85.1052 75.7508 102.283C99.8388 119.461 124.924 126.266 131.759 117.464M44.5561 55.263C36.9701 64.993 50.3579 86.827 74.4391 103.982C98.5203 121.137 124.197 127.186 131.759 117.464M44.5561 55.263C36.2433 65.9137 49.0567 88.4722 73.1448 105.65C97.2328 122.828 123.471 128.107 131.759 117.464M44.5561 55.263C35.5408 66.8273 47.7382 90.1477 71.8263 107.326C95.9143 124.504 122.744 129.028 131.759 117.464M44.5561 55.263C34.8209 67.7712 46.4439 91.816 70.5319 108.994C94.62 126.172 122.024 129.972 131.759 117.464M44.5561 55.263C34.0942 68.6919 45.1253 93.4915 69.2134 110.669C93.3014 127.847 121.297 130.892 131.759 117.464M44.5561 55.263C32.6476 70.5565 42.5193 96.8585 66.6074 114.036C90.6954 131.214 119.875 132.75 131.759 117.464M44.5561 55.263C31.9208 71.4773 41.225 98.5269 65.313 115.705C89.4011 132.883 119.148 133.671 131.759 117.464M44.5561 55.263C26.169 78.8751 30.7941 111.972 54.8753 129.127C78.9565 146.281 113.372 141.076 131.759 117.464M131.759 117.464C146.544 98.4711 138.991 69.1644 114.91 52.0096C90.8284 34.8548 59.3233 36.301 44.5388 55.2934M131.759 117.464C145.824 99.415 137.679 70.863 113.591 53.6851C89.503 36.5071 58.5724 37.2289 44.5319 55.2702M131.759 117.464C145.097 100.336 136.385 72.5314 112.297 55.3534C88.2086 38.1755 57.8698 38.1424 44.5319 55.2702M131.759 117.464C128.52 121.623 106.352 111.082 82.264 93.9039C58.1759 76.726 41.2926 59.4295 44.5319 55.2702M131.759 117.464C127.073 123.487 103.746 114.449 79.658 97.2709C55.5699 80.093 39.846 61.2941 44.5319 55.2702M131.759 117.464C120.595 131.806 92.0071 129.516 67.9259 112.361C43.8447 95.2062 33.3743 69.6358 44.5388 55.2934M131.759 117.464C118.421 134.591 88.0826 134.558 63.9945 117.38C39.9064 100.202 31.1941 72.398 44.5319 55.2702M131.759 117.464C117.695 135.512 86.7882 136.227 62.7001 119.049C38.6121 101.871 30.4915 73.3116 44.5319 55.2702M131.759 117.464C116.975 136.456 85.4697 137.902 61.3885 120.747C37.3073 103.593 29.7475 74.2626 44.5388 55.2934M131.759 117.464C116.272 137.37 84.1822 139.594 60.0942 122.416C36.0061 105.238 29.0449 75.1762 44.5319 55.2702M131.759 117.464C115.545 138.29 82.8637 141.269 58.7756 124.091C34.6876 106.913 28.3182 76.0969 44.5319 55.2702M131.759 117.464C114.819 139.211 81.5693 142.937 57.4813 125.76C33.3932 108.582 27.5914 77.0176 44.5319 55.2702M131.759 117.464C114.099 140.155 80.2508 144.613 56.1627 127.435C32.0747 110.257 26.8647 77.9384 44.5319 55.2702" stroke="url(#paint3_diamond_146_2840)" stroke-width="0.6" stroke-miterlimit="10"/>
<path d="M44.5561 55.263C62.9191 31.6582 97.3589 26.4453 121.447 43.6232C145.535 60.8012 150.146 93.8515 131.759 117.464M44.5561 55.263C62.2165 32.5717 96.0404 28.1208 120.128 45.2987C144.216 62.4767 149.42 94.7722 131.759 117.464M44.5561 55.263C61.4967 33.5156 94.746 29.7891 118.834 46.9671C142.922 64.145 148.724 95.7089 131.759 117.464M44.5561 55.263C60.7699 34.4363 93.4275 31.4646 117.516 48.6426C141.604 65.8205 147.997 96.6297 131.759 117.464M44.5561 55.263C60.0432 35.3571 92.1332 33.133 116.221 50.3109C140.309 67.4889 147.27 97.5504 131.759 117.464M44.5561 55.263C57.1672 39.056 86.9143 39.8438 111.002 57.0218C135.09 74.1997 144.395 101.249 131.759 117.464M44.5561 55.263C56.4474 39.9999 85.5957 41.5193 109.684 58.6973C133.772 75.8752 143.644 102.177 131.759 117.464M44.5561 55.263C55.7206 40.9206 84.291 43.2412 108.372 60.3959C132.453 77.5507 142.924 103.121 131.759 117.464M44.5561 55.263C54.9939 41.8413 82.9898 44.8863 107.078 62.0643C131.166 79.2422 142.221 104.035 131.759 117.464M44.5561 55.263C54.2671 42.7621 81.6954 46.5547 105.783 63.7326C129.872 80.9106 141.494 104.955 131.759 117.464M44.5561 55.263C53.5473 43.706 80.3769 48.2302 104.465 65.4081C128.553 82.5861 140.775 105.899 131.759 117.464M44.5561 55.263C52.8447 44.6195 79.0583 49.9057 103.146 67.0836C127.234 84.2616 140.048 106.82 131.759 117.464M44.5561 55.263C52.118 45.5402 77.764 51.574 101.852 68.752C125.94 85.9299 139.321 107.741 131.759 117.464M44.5561 55.263C51.3912 46.461 76.4523 53.2727 100.54 70.4506C124.628 87.6286 138.594 108.661 131.759 117.464M44.5561 55.263C50.6713 47.4049 75.158 54.9411 99.246 72.119C123.334 89.2969 137.899 109.598 131.759 117.464M44.5561 55.263C49.9446 48.3256 73.8394 56.6166 97.9275 73.7945C122.016 90.9724 137.172 110.519 131.759 117.464M44.5561 55.263C49.2178 49.2463 72.5451 58.2849 96.6332 75.4628C120.721 92.6408 136.445 111.44 131.759 117.464M44.5561 55.263C48.5222 50.183 71.2266 59.9604 95.3146 77.1383C119.403 94.3163 135.718 112.36 131.759 117.464M44.5561 55.263C47.7954 51.1038 69.946 61.6751 94.0272 78.8298C118.108 95.9846 134.999 113.304 131.759 117.464M44.5561 55.263C47.0687 52.0245 68.6206 63.3274 92.7086 80.5054C116.797 97.6833 134.272 114.225 131.759 117.464M44.5561 55.263C46.3419 52.9452 67.3262 64.9958 91.4143 82.1737C115.502 99.3516 133.569 115.139 131.759 117.464M44.5561 55.263C45.6221 53.8891 66.0077 66.6713 90.0958 83.8492C114.184 101.027 132.849 116.082 131.759 117.464M44.5561 55.263C44.8953 54.8098 64.7134 68.3396 88.8014 85.5175C112.889 102.695 132.123 117.003 131.759 117.464M44.5561 55.263C44.1928 55.7234 63.4086 70.0614 87.4898 87.2162C111.571 104.371 131.396 117.924 131.759 117.464M44.5561 55.263C43.466 56.6441 62.1074 71.7066 86.1954 88.8846C110.283 106.062 130.669 118.845 131.759 117.464M44.5561 55.263C42.7461 57.588 60.7888 73.3821 84.8769 90.5601C108.965 107.738 129.949 119.789 131.759 117.464M44.5561 55.263C42.0194 58.5088 59.4945 75.0505 83.5825 92.2284C107.671 109.406 129.247 120.702 131.759 117.464M44.5561 55.263C40.5728 60.3734 56.8954 78.4406 80.9765 95.5954C105.058 112.75 127.8 122.567 131.759 117.464M44.5561 55.263C39.1435 62.2077 54.2756 81.7613 78.3637 98.9393C102.452 116.117 126.371 124.401 131.759 117.464M44.5561 55.263C38.4167 63.1284 52.9571 83.4368 77.0451 100.615C101.133 117.793 125.62 125.329 131.759 117.464M44.5561 55.263C37.6968 64.0723 51.6627 85.1052 75.7508 102.283C99.8388 119.461 124.924 126.266 131.759 117.464M44.5561 55.263C36.9701 64.993 50.3579 86.827 74.4391 103.982C98.5203 121.137 124.197 127.186 131.759 117.464M44.5561 55.263C36.2433 65.9137 49.0567 88.4722 73.1448 105.65C97.2328 122.828 123.471 128.107 131.759 117.464M44.5561 55.263C35.5408 66.8273 47.7382 90.1477 71.8263 107.326C95.9143 124.504 122.744 129.028 131.759 117.464M44.5561 55.263C34.8209 67.7712 46.4439 91.816 70.5319 108.994C94.62 126.172 122.024 129.972 131.759 117.464M44.5561 55.263C34.0942 68.6919 45.1253 93.4915 69.2134 110.669C93.3014 127.847 121.297 130.892 131.759 117.464M44.5561 55.263C32.6476 70.5565 42.5193 96.8585 66.6074 114.036C90.6954 131.214 119.875 132.75 131.759 117.464M44.5561 55.263C31.9208 71.4773 41.225 98.5269 65.313 115.705C89.4011 132.883 119.148 133.671 131.759 117.464M44.5561 55.263C26.169 78.8751 30.7941 111.972 54.8753 129.127C78.9565 146.281 113.372 141.076 131.759 117.464M131.759 117.464C146.544 98.4711 138.991 69.1644 114.91 52.0096C90.8284 34.8548 59.3233 36.301 44.5388 55.2934M131.759 117.464C145.824 99.415 137.679 70.863 113.591 53.6851C89.503 36.5071 58.5724 37.2289 44.5319 55.2702M131.759 117.464C145.097 100.336 136.385 72.5314 112.297 55.3534C88.2086 38.1755 57.8698 38.1424 44.5319 55.2702M131.759 117.464C128.52 121.623 106.352 111.082 82.264 93.9039C58.1759 76.726 41.2926 59.4295 44.5319 55.2702M131.759 117.464C127.073 123.487 103.746 114.449 79.658 97.2709C55.5699 80.093 39.846 61.2941 44.5319 55.2702M131.759 117.464C120.595 131.806 92.0071 129.516 67.9259 112.361C43.8447 95.2062 33.3743 69.6358 44.5388 55.2934M131.759 117.464C118.421 134.591 88.0826 134.558 63.9945 117.38C39.9064 100.202 31.1941 72.398 44.5319 55.2702M131.759 117.464C117.695 135.512 86.7882 136.227 62.7001 119.049C38.6121 101.871 30.4915 73.3116 44.5319 55.2702M131.759 117.464C116.975 136.456 85.4697 137.902 61.3885 120.747C37.3073 103.593 29.7475 74.2626 44.5388 55.2934M131.759 117.464C116.272 137.37 84.1822 139.594 60.0942 122.416C36.0061 105.238 29.0449 75.1762 44.5319 55.2702M131.759 117.464C115.545 138.29 82.8637 141.269 58.7756 124.091C34.6876 106.913 28.3182 76.0969 44.5319 55.2702M131.759 117.464C114.819 139.211 81.5693 142.937 57.4813 125.76C33.3932 108.582 27.5914 77.0176 44.5319 55.2702M131.759 117.464C114.099 140.155 80.2508 144.613 56.1627 127.435C32.0747 110.257 26.8647 77.9384 44.5319 55.2702" stroke="url(#paint4_linear_146_2840)" stroke-width="0.6" stroke-miterlimit="10"/>
</g>
</g>
<defs>
<linearGradient id="paint0_linear_146_2840" x1="168.914" y1="104.066" x2="104.258" y2="128.683" gradientUnits="userSpaceOnUse">
<stop stop-color="#5F73E0"/>
<stop offset="0.489583" stop-color="#68CDDB" stop-opacity="0.5"/>
<stop offset="1" stop-color="#B468DB" stop-opacity="0.3"/>
</linearGradient>
<radialGradient id="paint1_diamond_146_2840" cx="0" cy="0" r="1" gradientUnits="userSpaceOnUse" gradientTransform="translate(78.398 114.174) rotate(-59.7249) scale(92.1354 176.528)">
<stop stop-color="#302537" stop-opacity="0.9"/>
<stop offset="0.931345" stop-color="#212042"/>
</radialGradient>
<linearGradient id="paint2_linear_146_2840" x1="132.683" y1="106.196" x2="51.0491" y2="59.0096" gradientUnits="userSpaceOnUse">
<stop stop-color="#6947CA"/>
<stop offset="0.666667" stop-color="#BE87DA"/>
</linearGradient>
<radialGradient id="paint3_diamond_146_2840" cx="0" cy="0" r="1" gradientUnits="userSpaceOnUse" gradientTransform="translate(78.398 114.174) rotate(-59.7249) scale(92.1354 176.528)">
<stop stop-color="#302537" stop-opacity="0.9"/>
<stop offset="0.931345" stop-color="#212042"/>
</radialGradient>
<linearGradient id="paint4_linear_146_2840" x1="132.683" y1="106.196" x2="51.0491" y2="59.0096" gradientUnits="userSpaceOnUse">
<stop stop-color="#6947CA"/>
<stop offset="0.666667" stop-color="#BE87DA"/>
</linearGradient>
<clipPath id="clip0_146_2840">
<rect width="106.303" height="109.67" fill="white" transform="matrix(0.629447 0.777043 -0.795929 0.605389 98.3462 11.8657)"/>
</clipPath>
</defs>
</svg>
