<svg width="61" height="50" viewBox="0 0 61 50" fill="none" xmlns="http://www.w3.org/2000/svg">
<path d="M55.2146 29.8386L56.1089 28.05L60.3585 30.1767L55.8688 31.7289L55.2146 29.8386ZM3.34747 3.88095L1.37103 4.18543L0.780064 0.359926L4.24175 2.09237L3.34747 3.88095ZM9.78381 45.5453L10.438 47.4356L8.17332 48.2186L7.80737 45.8497L9.78381 45.5453ZM2.76358 6.43017C2.03857 5.59649 2.12632 4.33317 2.95956 3.60847C3.79281 2.88378 5.05602 2.97212 5.78103 3.8058L2.76358 6.43017ZM33.4796 35.656C34.2046 36.4897 34.1168 37.753 33.2836 38.4777C32.4503 39.2024 31.1871 39.1141 30.4621 38.2804L33.4796 35.656ZM19.8407 43.0699C19.2684 42.1248 19.5704 40.8951 20.5151 40.3232C21.4598 39.7513 22.6895 40.0539 23.2617 40.999L19.8407 43.0699ZM26.8529 46.9298C27.4251 47.8749 27.1232 49.1046 26.1785 49.6765C25.2337 50.2484 24.004 49.9458 23.4318 49.0007L26.8529 46.9298ZM30.8744 36.5251L32.0403 34.9006L35.29 37.2343L34.1241 38.8588L30.8744 36.5251ZM26.7777 49.0941C26.1338 49.9913 24.8843 50.1962 23.9869 49.5518C23.0895 48.9073 22.8841 47.6576 23.528 46.7604L26.7777 49.0941ZM54.3204 31.6271L2.45318 5.66953L4.24175 2.09237L56.1089 28.05L54.3204 31.6271ZM5.3239 3.57647L11.7602 45.2408L7.80737 45.8497L1.37103 4.18543L5.3239 3.57647ZM9.12961 43.6549L54.5605 27.9482L55.8688 31.7289L10.438 47.4356L9.12961 43.6549ZM5.78103 3.8058L33.4796 35.656L30.4621 38.2804L2.76358 6.43017L5.78103 3.8058ZM23.2617 40.999L26.8529 46.9298L23.4318 49.0007L19.8407 43.0699L23.2617 40.999ZM34.1241 38.8588L26.7777 49.0941L23.528 46.7604L30.8744 36.5251L34.1241 38.8588Z" fill="url(#paint0_linear_2559_17982)"/>
<defs>
<linearGradient id="paint0_linear_2559_17982" x1="30.4298" y1="7.07329" x2="25.6033" y2="48.0196" gradientUnits="userSpaceOnUse">
<stop stop-color="#AC56D4"/>
<stop offset="0.473958" stop-color="#5B69E2"/>
<stop offset="1" stop-color="#709CD5"/>
<stop offset="1" stop-color="#709CD5"/>
</linearGradient>
</defs>
</svg>
