<svg width="156" height="151" viewBox="0 0 156 151" fill="none" xmlns="http://www.w3.org/2000/svg">
<g opacity="0.46">
<path d="M31.9891 16.2558C66.0998 -8.27477 114.47 -1.48292 139.983 31.4174C165.495 64.3177 158.489 110.848 124.343 135.379M31.9891 16.2558C64.7906 -7.32212 112.029 0.252224 137.541 33.1525C163.053 66.0528 157.144 111.801 124.343 135.379M31.9891 16.2558C63.4459 -6.33543 109.623 1.9874 135.135 34.8877C160.647 67.788 155.835 112.788 124.343 135.379M31.9891 16.2558C62.1013 -5.38281 107.181 3.72254 132.693 36.6228C158.206 69.5231 154.49 113.74 124.343 135.379M31.9891 16.2558C60.7567 -4.43018 104.775 5.45772 130.287 38.358C155.8 71.2583 153.146 114.693 124.343 135.379M31.9891 16.2558C55.4137 -0.585586 95.0797 12.4324 120.592 45.3327C146.104 78.233 147.803 118.537 124.343 135.379M31.9891 16.2558C54.069 0.401104 92.6382 14.1676 118.15 47.0679C143.663 79.9681 146.423 119.49 124.343 135.379M31.9891 16.2558C52.7244 1.35373 90.1967 15.9708 115.709 48.8371C141.221 81.7033 145.078 120.477 124.343 135.379M31.9891 16.2558C51.3798 2.30635 87.7905 17.6719 113.303 50.5722C138.815 83.4725 143.769 121.429 124.343 135.379M31.9891 16.2558C50.0352 3.25897 85.3844 19.4071 110.897 52.3074C136.409 85.2077 142.424 122.382 124.343 135.379M31.9891 16.2558C48.6906 4.24566 82.9428 21.1423 108.455 54.0426C133.967 86.9429 141.08 123.369 124.343 135.379M31.9891 16.2558C47.3814 5.19832 80.5013 22.8774 106.014 55.7777C131.526 88.678 139.735 124.321 124.343 135.379M31.9891 16.2558C46.0368 6.15094 78.0952 24.6126 103.607 57.5129C129.12 90.4132 138.39 125.274 124.343 135.379M31.9891 16.2558C44.6921 7.10356 75.6536 26.3818 101.166 59.2821C126.678 92.1824 137.046 126.226 124.343 135.379M31.9891 16.2558C43.3475 8.09025 73.2475 28.117 98.7597 61.0173C124.272 93.9175 135.737 127.213 124.343 135.379M31.9891 16.2558C42.0029 9.04288 70.8059 29.8521 96.3182 62.7524C121.83 95.6527 134.392 128.166 124.343 135.379M31.9891 16.2558C40.6583 9.9955 68.3998 31.5873 93.912 64.4876C119.424 97.3879 133.047 129.118 124.343 135.379M31.9891 16.2558C39.3491 10.9822 65.9582 33.3224 91.4705 66.2227C116.983 99.123 131.703 130.071 124.343 135.379M31.9891 16.2558C38.0045 11.9348 63.5521 35.1257 89.0644 67.992C114.577 100.858 130.358 131.058 124.343 135.379M31.9891 16.2558C36.6599 12.8875 61.1106 36.8268 86.6228 69.7271C112.135 102.627 129.013 132.01 124.343 135.379M31.9891 16.2558C35.3152 13.8401 58.7044 38.562 84.2167 71.4623C109.729 104.363 127.704 132.963 124.343 135.379M31.9891 16.2558C33.9706 14.8268 56.2629 40.2971 81.7751 73.1974C107.287 106.098 126.36 133.95 124.343 135.379M31.9891 16.2558C32.626 15.7794 53.8567 42.0323 79.369 74.9326C104.881 107.833 125.015 134.902 124.343 135.379M31.9891 16.2558C31.3168 16.7321 51.4152 43.8356 76.9275 76.7018C102.44 109.568 123.67 135.855 124.343 135.379M31.9891 16.2558C29.9722 17.6847 49.0091 45.5367 74.5213 78.437C100.034 111.337 122.326 136.808 124.343 135.379M31.9891 16.2558C28.6276 18.6714 46.5675 47.2718 72.0798 80.1721C97.592 113.072 120.981 137.794 124.343 135.379M31.9891 16.2558C27.283 19.624 44.1614 49.007 69.6736 81.9073C95.1859 114.808 119.672 138.747 124.343 135.379M31.9891 16.2558C24.5937 21.5633 39.3137 52.5454 64.8259 85.4117C90.3382 118.278 116.983 140.686 124.343 135.379M31.9891 16.2558C21.9399 23.4686 34.466 55.9817 59.9783 88.882C85.4905 121.782 114.329 142.592 124.343 135.379M31.9891 16.2558C20.5953 24.4212 32.0245 57.7169 57.5367 90.6172C83.049 123.517 112.949 143.544 124.343 135.379M31.9891 16.2558C19.2507 25.4079 29.6183 59.452 55.1306 92.3523C80.6428 125.253 111.64 144.531 124.343 135.379M31.9891 16.2558C17.9061 26.3605 27.1768 61.2553 52.689 94.1215C78.2013 126.988 110.295 145.483 124.343 135.379M31.9891 16.2558C16.5614 27.3131 24.7707 62.9564 50.2829 95.8567C75.7952 128.757 108.95 146.436 124.343 135.379M31.9891 16.2558C15.2522 28.2658 22.3291 64.6915 47.8414 97.5918C73.3536 130.492 107.606 147.389 124.343 135.379M31.9891 16.2558C13.9076 29.2525 19.923 66.4267 45.4352 99.327C70.9475 132.227 106.261 148.375 124.343 135.379M31.9891 16.2558C12.563 30.2051 17.4814 68.1619 42.9937 101.062C68.5059 133.962 104.917 149.328 124.343 135.379M31.9891 16.2558C9.87377 32.1444 12.6338 71.6663 38.146 104.567C63.6583 137.467 102.263 151.267 124.343 135.379M31.9891 16.2558C8.52916 33.0971 10.2276 73.4014 35.7399 106.302C61.2521 139.202 100.918 152.22 124.343 135.379M31.9891 16.2558C-2.15697 40.7862 -9.16311 87.3849 16.3491 120.251C41.8614 153.117 90.1966 159.909 124.343 135.379M124.343 135.379C151.801 115.645 153.358 72.9935 127.846 40.1272C102.334 7.26099 59.4121 -3.44349 31.9537 16.2898M124.343 135.379C150.456 116.632 150.916 74.7627 125.404 41.8624C99.892 8.96206 58.0321 -2.4909 31.9537 16.2557M124.343 135.379C149.112 117.585 148.51 76.4978 122.998 43.5975C97.4859 10.6972 56.7229 -1.53825 31.9537 16.2557M124.343 135.379C118.327 139.7 92.7443 116.543 67.2321 83.6424C41.7198 50.7421 25.9384 20.5766 31.9537 16.2557M124.343 135.379C115.638 141.639 87.8966 120.047 62.3844 87.1468C36.8722 54.2465 23.2491 22.5159 31.9537 16.2557M124.343 135.379C103.607 150.281 66.0998 135.698 40.5876 102.831C15.0753 69.9652 11.2184 31.1918 31.9537 16.2898M124.343 135.379C99.5735 153.173 58.8106 140.937 33.2983 108.037C7.7861 75.1365 7.18457 34.0497 31.9537 16.2557M124.343 135.379C98.2289 154.125 56.4044 142.672 30.8922 109.772C5.37993 76.8717 5.87534 35.0023 31.9537 16.2557M124.343 135.379C96.8843 155.112 53.9629 144.407 28.4507 111.541C2.93842 78.675 4.49534 35.989 31.9537 16.2898M124.343 135.379C95.5751 156.065 51.5567 146.177 26.0445 113.276C0.532267 80.3761 3.18612 36.9416 31.9537 16.2557M124.343 135.379C94.2305 157.017 49.1152 147.912 23.603 115.012C-1.90927 82.1112 1.8415 37.8943 31.9537 16.2557M124.343 135.379C92.8859 157.97 46.7091 149.647 21.1968 116.747C-4.31542 83.8464 0.496891 38.8469 31.9537 16.2557M124.343 135.379C91.5413 158.957 44.2675 151.382 18.7553 118.482C-6.75696 85.5816 -0.847721 39.7995 31.9537 16.2557" stroke="#C4C4C4" stroke-width="1.1" stroke-miterlimit="10"/>
<path d="M31.9891 16.2558C66.0998 -8.27477 114.47 -1.48292 139.983 31.4174C165.495 64.3177 158.489 110.848 124.343 135.379M31.9891 16.2558C64.7906 -7.32212 112.029 0.252224 137.541 33.1525C163.053 66.0528 157.144 111.801 124.343 135.379M31.9891 16.2558C63.4459 -6.33543 109.623 1.9874 135.135 34.8877C160.647 67.788 155.835 112.788 124.343 135.379M31.9891 16.2558C62.1013 -5.38281 107.181 3.72254 132.693 36.6228C158.206 69.5231 154.49 113.74 124.343 135.379M31.9891 16.2558C60.7567 -4.43018 104.775 5.45772 130.287 38.358C155.8 71.2583 153.146 114.693 124.343 135.379M31.9891 16.2558C55.4137 -0.585586 95.0797 12.4324 120.592 45.3327C146.104 78.233 147.803 118.537 124.343 135.379M31.9891 16.2558C54.069 0.401104 92.6382 14.1676 118.15 47.0679C143.663 79.9681 146.423 119.49 124.343 135.379M31.9891 16.2558C52.7244 1.35373 90.1967 15.9708 115.709 48.8371C141.221 81.7033 145.078 120.477 124.343 135.379M31.9891 16.2558C51.3798 2.30635 87.7905 17.6719 113.303 50.5722C138.815 83.4725 143.769 121.429 124.343 135.379M31.9891 16.2558C50.0352 3.25897 85.3844 19.4071 110.897 52.3074C136.409 85.2077 142.424 122.382 124.343 135.379M31.9891 16.2558C48.6906 4.24566 82.9428 21.1423 108.455 54.0426C133.967 86.9429 141.08 123.369 124.343 135.379M31.9891 16.2558C47.3814 5.19832 80.5013 22.8774 106.014 55.7777C131.526 88.678 139.735 124.321 124.343 135.379M31.9891 16.2558C46.0368 6.15094 78.0952 24.6126 103.607 57.5129C129.12 90.4132 138.39 125.274 124.343 135.379M31.9891 16.2558C44.6921 7.10356 75.6536 26.3818 101.166 59.2821C126.678 92.1824 137.046 126.226 124.343 135.379M31.9891 16.2558C43.3475 8.09025 73.2475 28.117 98.7597 61.0173C124.272 93.9175 135.737 127.213 124.343 135.379M31.9891 16.2558C42.0029 9.04288 70.8059 29.8521 96.3182 62.7524C121.83 95.6527 134.392 128.166 124.343 135.379M31.9891 16.2558C40.6583 9.9955 68.3998 31.5873 93.912 64.4876C119.424 97.3879 133.047 129.118 124.343 135.379M31.9891 16.2558C39.3491 10.9822 65.9582 33.3224 91.4705 66.2227C116.983 99.123 131.703 130.071 124.343 135.379M31.9891 16.2558C38.0045 11.9348 63.5521 35.1257 89.0644 67.992C114.577 100.858 130.358 131.058 124.343 135.379M31.9891 16.2558C36.6599 12.8875 61.1106 36.8268 86.6228 69.7271C112.135 102.627 129.013 132.01 124.343 135.379M31.9891 16.2558C35.3152 13.8401 58.7044 38.562 84.2167 71.4623C109.729 104.363 127.704 132.963 124.343 135.379M31.9891 16.2558C33.9706 14.8268 56.2629 40.2971 81.7751 73.1974C107.287 106.098 126.36 133.95 124.343 135.379M31.9891 16.2558C32.626 15.7794 53.8567 42.0323 79.369 74.9326C104.881 107.833 125.015 134.902 124.343 135.379M31.9891 16.2558C31.3168 16.7321 51.4152 43.8356 76.9275 76.7018C102.44 109.568 123.67 135.855 124.343 135.379M31.9891 16.2558C29.9722 17.6847 49.0091 45.5367 74.5213 78.437C100.034 111.337 122.326 136.808 124.343 135.379M31.9891 16.2558C28.6276 18.6714 46.5675 47.2718 72.0798 80.1721C97.592 113.072 120.981 137.794 124.343 135.379M31.9891 16.2558C27.283 19.624 44.1614 49.007 69.6736 81.9073C95.1859 114.808 119.672 138.747 124.343 135.379M31.9891 16.2558C24.5937 21.5633 39.3137 52.5454 64.8259 85.4117C90.3382 118.278 116.983 140.686 124.343 135.379M31.9891 16.2558C21.9399 23.4686 34.466 55.9817 59.9783 88.882C85.4905 121.782 114.329 142.592 124.343 135.379M31.9891 16.2558C20.5953 24.4212 32.0245 57.7169 57.5367 90.6172C83.049 123.517 112.949 143.544 124.343 135.379M31.9891 16.2558C19.2507 25.4079 29.6183 59.452 55.1306 92.3523C80.6428 125.253 111.64 144.531 124.343 135.379M31.9891 16.2558C17.9061 26.3605 27.1768 61.2553 52.689 94.1215C78.2013 126.988 110.295 145.483 124.343 135.379M31.9891 16.2558C16.5614 27.3131 24.7707 62.9564 50.2829 95.8567C75.7952 128.757 108.95 146.436 124.343 135.379M31.9891 16.2558C15.2522 28.2658 22.3291 64.6915 47.8414 97.5918C73.3536 130.492 107.606 147.389 124.343 135.379M31.9891 16.2558C13.9076 29.2525 19.923 66.4267 45.4352 99.327C70.9475 132.227 106.261 148.375 124.343 135.379M31.9891 16.2558C12.563 30.2051 17.4814 68.1619 42.9937 101.062C68.5059 133.962 104.917 149.328 124.343 135.379M31.9891 16.2558C9.87377 32.1444 12.6338 71.6663 38.146 104.567C63.6583 137.467 102.263 151.267 124.343 135.379M31.9891 16.2558C8.52916 33.0971 10.2276 73.4014 35.7399 106.302C61.2521 139.202 100.918 152.22 124.343 135.379M31.9891 16.2558C-2.15697 40.7862 -9.16311 87.3849 16.3491 120.251C41.8614 153.117 90.1966 159.909 124.343 135.379M124.343 135.379C151.801 115.645 153.358 72.9935 127.846 40.1272C102.334 7.26099 59.4121 -3.44349 31.9537 16.2898M124.343 135.379C150.456 116.632 150.916 74.7627 125.404 41.8624C99.892 8.96206 58.0321 -2.4909 31.9537 16.2557M124.343 135.379C149.112 117.585 148.51 76.4978 122.998 43.5975C97.4859 10.6972 56.7229 -1.53825 31.9537 16.2557M124.343 135.379C118.327 139.7 92.7443 116.543 67.2321 83.6424C41.7198 50.7421 25.9384 20.5766 31.9537 16.2557M124.343 135.379C115.638 141.639 87.8966 120.047 62.3844 87.1468C36.8722 54.2465 23.2491 22.5159 31.9537 16.2557M124.343 135.379C103.607 150.281 66.0998 135.698 40.5876 102.831C15.0753 69.9652 11.2184 31.1918 31.9537 16.2898M124.343 135.379C99.5735 153.173 58.8106 140.937 33.2983 108.037C7.7861 75.1365 7.18457 34.0497 31.9537 16.2557M124.343 135.379C98.2289 154.125 56.4044 142.672 30.8922 109.772C5.37993 76.8717 5.87534 35.0023 31.9537 16.2557M124.343 135.379C96.8843 155.112 53.9629 144.407 28.4507 111.541C2.93842 78.675 4.49534 35.989 31.9537 16.2898M124.343 135.379C95.5751 156.065 51.5567 146.177 26.0445 113.276C0.532267 80.3761 3.18612 36.9416 31.9537 16.2557M124.343 135.379C94.2305 157.017 49.1152 147.912 23.603 115.012C-1.90927 82.1112 1.8415 37.8943 31.9537 16.2557M124.343 135.379C92.8859 157.97 46.7091 149.647 21.1968 116.747C-4.31542 83.8464 0.496891 38.8469 31.9537 16.2557M124.343 135.379C91.5413 158.957 44.2675 151.382 18.7553 118.482C-6.75696 85.5816 -0.847721 39.7995 31.9537 16.2557" stroke="url(#paint0_diamond_3669_1493)" stroke-width="1.1" stroke-miterlimit="10"/>
<path d="M31.9891 16.2558C66.0998 -8.27477 114.47 -1.48292 139.983 31.4174C165.495 64.3177 158.489 110.848 124.343 135.379M31.9891 16.2558C64.7906 -7.32212 112.029 0.252224 137.541 33.1525C163.053 66.0528 157.144 111.801 124.343 135.379M31.9891 16.2558C63.4459 -6.33543 109.623 1.9874 135.135 34.8877C160.647 67.788 155.835 112.788 124.343 135.379M31.9891 16.2558C62.1013 -5.38281 107.181 3.72254 132.693 36.6228C158.206 69.5231 154.49 113.74 124.343 135.379M31.9891 16.2558C60.7567 -4.43018 104.775 5.45772 130.287 38.358C155.8 71.2583 153.146 114.693 124.343 135.379M31.9891 16.2558C55.4137 -0.585586 95.0797 12.4324 120.592 45.3327C146.104 78.233 147.803 118.537 124.343 135.379M31.9891 16.2558C54.069 0.401104 92.6382 14.1676 118.15 47.0679C143.663 79.9681 146.423 119.49 124.343 135.379M31.9891 16.2558C52.7244 1.35373 90.1967 15.9708 115.709 48.8371C141.221 81.7033 145.078 120.477 124.343 135.379M31.9891 16.2558C51.3798 2.30635 87.7905 17.6719 113.303 50.5722C138.815 83.4725 143.769 121.429 124.343 135.379M31.9891 16.2558C50.0352 3.25897 85.3844 19.4071 110.897 52.3074C136.409 85.2077 142.424 122.382 124.343 135.379M31.9891 16.2558C48.6906 4.24566 82.9428 21.1423 108.455 54.0426C133.967 86.9429 141.08 123.369 124.343 135.379M31.9891 16.2558C47.3814 5.19832 80.5013 22.8774 106.014 55.7777C131.526 88.678 139.735 124.321 124.343 135.379M31.9891 16.2558C46.0368 6.15094 78.0952 24.6126 103.607 57.5129C129.12 90.4132 138.39 125.274 124.343 135.379M31.9891 16.2558C44.6921 7.10356 75.6536 26.3818 101.166 59.2821C126.678 92.1824 137.046 126.226 124.343 135.379M31.9891 16.2558C43.3475 8.09025 73.2475 28.117 98.7597 61.0173C124.272 93.9175 135.737 127.213 124.343 135.379M31.9891 16.2558C42.0029 9.04288 70.8059 29.8521 96.3182 62.7524C121.83 95.6527 134.392 128.166 124.343 135.379M31.9891 16.2558C40.6583 9.9955 68.3998 31.5873 93.912 64.4876C119.424 97.3879 133.047 129.118 124.343 135.379M31.9891 16.2558C39.3491 10.9822 65.9582 33.3224 91.4705 66.2227C116.983 99.123 131.703 130.071 124.343 135.379M31.9891 16.2558C38.0045 11.9348 63.5521 35.1257 89.0644 67.992C114.577 100.858 130.358 131.058 124.343 135.379M31.9891 16.2558C36.6599 12.8875 61.1106 36.8268 86.6228 69.7271C112.135 102.627 129.013 132.01 124.343 135.379M31.9891 16.2558C35.3152 13.8401 58.7044 38.562 84.2167 71.4623C109.729 104.363 127.704 132.963 124.343 135.379M31.9891 16.2558C33.9706 14.8268 56.2629 40.2971 81.7751 73.1974C107.287 106.098 126.36 133.95 124.343 135.379M31.9891 16.2558C32.626 15.7794 53.8567 42.0323 79.369 74.9326C104.881 107.833 125.015 134.902 124.343 135.379M31.9891 16.2558C31.3168 16.7321 51.4152 43.8356 76.9275 76.7018C102.44 109.568 123.67 135.855 124.343 135.379M31.9891 16.2558C29.9722 17.6847 49.0091 45.5367 74.5213 78.437C100.034 111.337 122.326 136.808 124.343 135.379M31.9891 16.2558C28.6276 18.6714 46.5675 47.2718 72.0798 80.1721C97.592 113.072 120.981 137.794 124.343 135.379M31.9891 16.2558C27.283 19.624 44.1614 49.007 69.6736 81.9073C95.1859 114.808 119.672 138.747 124.343 135.379M31.9891 16.2558C24.5937 21.5633 39.3137 52.5454 64.8259 85.4117C90.3382 118.278 116.983 140.686 124.343 135.379M31.9891 16.2558C21.9399 23.4686 34.466 55.9817 59.9783 88.882C85.4905 121.782 114.329 142.592 124.343 135.379M31.9891 16.2558C20.5953 24.4212 32.0245 57.7169 57.5367 90.6172C83.049 123.517 112.949 143.544 124.343 135.379M31.9891 16.2558C19.2507 25.4079 29.6183 59.452 55.1306 92.3523C80.6428 125.253 111.64 144.531 124.343 135.379M31.9891 16.2558C17.9061 26.3605 27.1768 61.2553 52.689 94.1215C78.2013 126.988 110.295 145.483 124.343 135.379M31.9891 16.2558C16.5614 27.3131 24.7707 62.9564 50.2829 95.8567C75.7952 128.757 108.95 146.436 124.343 135.379M31.9891 16.2558C15.2522 28.2658 22.3291 64.6915 47.8414 97.5918C73.3536 130.492 107.606 147.389 124.343 135.379M31.9891 16.2558C13.9076 29.2525 19.923 66.4267 45.4352 99.327C70.9475 132.227 106.261 148.375 124.343 135.379M31.9891 16.2558C12.563 30.2051 17.4814 68.1619 42.9937 101.062C68.5059 133.962 104.917 149.328 124.343 135.379M31.9891 16.2558C9.87377 32.1444 12.6338 71.6663 38.146 104.567C63.6583 137.467 102.263 151.267 124.343 135.379M31.9891 16.2558C8.52916 33.0971 10.2276 73.4014 35.7399 106.302C61.2521 139.202 100.918 152.22 124.343 135.379M31.9891 16.2558C-2.15697 40.7862 -9.16311 87.3849 16.3491 120.251C41.8614 153.117 90.1966 159.909 124.343 135.379M124.343 135.379C151.801 115.645 153.358 72.9935 127.846 40.1272C102.334 7.26099 59.4121 -3.44349 31.9537 16.2898M124.343 135.379C150.456 116.632 150.916 74.7627 125.404 41.8624C99.892 8.96206 58.0321 -2.4909 31.9537 16.2557M124.343 135.379C149.112 117.585 148.51 76.4978 122.998 43.5975C97.4859 10.6972 56.7229 -1.53825 31.9537 16.2557M124.343 135.379C118.327 139.7 92.7443 116.543 67.2321 83.6424C41.7198 50.7421 25.9384 20.5766 31.9537 16.2557M124.343 135.379C115.638 141.639 87.8966 120.047 62.3844 87.1468C36.8722 54.2465 23.2491 22.5159 31.9537 16.2557M124.343 135.379C103.607 150.281 66.0998 135.698 40.5876 102.831C15.0753 69.9652 11.2184 31.1918 31.9537 16.2898M124.343 135.379C99.5735 153.173 58.8106 140.937 33.2983 108.037C7.7861 75.1365 7.18457 34.0497 31.9537 16.2557M124.343 135.379C98.2289 154.125 56.4044 142.672 30.8922 109.772C5.37993 76.8717 5.87534 35.0023 31.9537 16.2557M124.343 135.379C96.8843 155.112 53.9629 144.407 28.4507 111.541C2.93842 78.675 4.49534 35.989 31.9537 16.2898M124.343 135.379C95.5751 156.065 51.5567 146.177 26.0445 113.276C0.532267 80.3761 3.18612 36.9416 31.9537 16.2557M124.343 135.379C94.2305 157.017 49.1152 147.912 23.603 115.012C-1.90927 82.1112 1.8415 37.8943 31.9537 16.2557M124.343 135.379C92.8859 157.97 46.7091 149.647 21.1968 116.747C-4.31542 83.8464 0.496891 38.8469 31.9537 16.2557M124.343 135.379C91.5413 158.957 44.2675 151.382 18.7553 118.482C-6.75696 85.5816 -0.847721 39.7995 31.9537 16.2557" stroke="url(#paint1_angular_3669_1493)" stroke-width="1.1" stroke-miterlimit="10"/>
</g>
<defs>
<radialGradient id="paint0_diamond_3669_1493" cx="0" cy="0" r="1" gradientUnits="userSpaceOnUse" gradientTransform="translate(53.9381 109.49) rotate(-43.3354) scale(129.538 248.277)">
<stop stop-color="#302537" stop-opacity="0.9"/>
<stop offset="0.931345" stop-color="#212042"/>
</radialGradient>
<radialGradient id="paint1_angular_3669_1493" cx="0" cy="0" r="1" gradientUnits="userSpaceOnUse" gradientTransform="translate(82.5543 74.2212) rotate(-135.753) scale(66.3535 66.27)">
<stop stop-color="#BE87DA"/>
<stop offset="0.78125" stop-color="#5B69E2"/>
</radialGradient>
</defs>
</svg>
