<svg width="556" height="218" viewBox="0 0 556 218" fill="none" xmlns="http://www.w3.org/2000/svg">
<path d="M37.3928 19.46V20H30.2918V19.46H31.8848L30.0758 15.707H24.6218L23.0558 19.46H25.1888V20H20.5718V19.46H22.3808L28.5638 4.61004H29.2388L36.0968 19.46H37.3928ZM24.8648 15.14H29.8058L27.1598 9.63204L24.8648 15.14Z" fill="#74448A"/>
<path d="M37.9214 8.12004V7.58004H45.2114V8.12004H43.7804L46.6964 14.654L48.4514 10.253L47.5604 8.12004H46.5614V7.58004H53.3114V8.12004H52.1234L55.0394 14.654L57.5504 8.12004H55.3904V7.58004H59.7914V8.12004H58.1714L53.6084 20H53.0414L48.7754 11.063L45.2384 20H44.6714L39.1904 8.12004H37.9214Z" fill="#74448A"/>
<path d="M73.0775 14.6H64.9235C65.1035 17.768 66.3365 19.352 68.6225 19.352C69.2345 19.352 69.9275 19.208 70.7015 18.92C71.4935 18.632 72.0695 18.227 72.4295 17.705L72.8075 17.975C72.4115 18.641 71.7365 19.19 70.7825 19.622C69.8285 20.054 68.8745 20.27 67.9205 20.27C66.9845 20.27 66.1385 20.18 65.3825 20C64.6265 19.802 63.8885 19.478 63.1685 19.028C62.4485 18.578 61.8815 17.903 61.4675 17.003C61.0715 16.103 60.8735 15.014 60.8735 13.736C60.8735 11.558 61.4765 9.94704 62.6825 8.90304C63.8885 7.84104 65.3465 7.31004 67.0565 7.31004C68.7845 7.31004 70.2155 7.88604 71.3495 9.03804C72.5015 10.19 73.0775 12.044 73.0775 14.6ZM64.8965 14.06H69.2975C69.2975 12.404 69.1175 10.955 68.7575 9.71304C68.4155 8.47104 67.8575 7.85004 67.0835 7.85004C66.3095 7.85004 65.7515 8.45304 65.4095 9.65904C65.0675 10.847 64.8965 12.215 64.8965 13.763V14.06Z" fill="#74448A"/>
<path d="M81.114 19.784C82.986 19.784 83.922 19.271 83.922 18.245C83.922 17.669 83.598 17.201 82.95 16.841C82.302 16.463 81.519 16.157 80.601 15.923C79.683 15.689 78.774 15.419 77.874 15.113C76.992 14.807 76.254 14.321 75.66 13.655C75.084 12.989 74.85 12.116 74.958 11.036C75.066 9.95604 75.615 9.06504 76.605 8.36304C77.613 7.66104 78.846 7.31004 80.304 7.31004C81.78 7.31004 82.968 7.54404 83.868 8.01204C84.768 8.48004 85.272 9.11004 85.38 9.90204C85.452 10.388 85.371 10.838 85.137 11.252C84.921 11.666 84.552 11.882 84.03 11.9C83.526 11.918 83.103 11.783 82.761 11.495C82.437 11.207 82.284 10.874 82.302 10.496C82.32 10.118 82.464 9.78504 82.734 9.49704C83.004 9.19104 83.139 8.94804 83.139 8.76804C83.139 8.46204 82.842 8.23704 82.248 8.09304C81.672 7.93104 80.997 7.85004 80.223 7.85004C79.467 7.85004 78.846 8.02104 78.36 8.36304C77.874 8.70504 77.631 9.12804 77.631 9.63204C77.631 10.136 77.928 10.568 78.522 10.928C79.134 11.288 79.872 11.585 80.736 11.819C81.6 12.035 82.455 12.287 83.301 12.575C84.165 12.845 84.894 13.286 85.488 13.898C86.1 14.51 86.406 15.284 86.406 16.22C86.406 17.462 85.965 18.461 85.083 19.217C84.201 19.955 82.869 20.324 81.087 20.324C79.305 20.324 77.856 20.054 76.74 19.514C75.642 18.974 75.039 18.281 74.931 17.435C74.859 16.949 74.94 16.499 75.174 16.085C75.408 15.671 75.777 15.455 76.281 15.437C76.785 15.419 77.199 15.554 77.523 15.842C77.865 16.13 78.027 16.463 78.009 16.841C77.991 17.219 77.847 17.561 77.577 17.867C77.307 18.155 77.172 18.389 77.172 18.569C77.172 18.929 77.586 19.226 78.414 19.46C79.26 19.676 80.16 19.784 81.114 19.784Z" fill="#74448A"/>
<path d="M92.3085 18.38C92.7045 19.28 93.3885 19.73 94.3605 19.73C95.3325 19.73 96.0255 19.271 96.4395 18.353C96.8535 17.435 97.0605 15.923 97.0605 13.817C97.0605 11.693 96.8535 10.172 96.4395 9.25404C96.0255 8.31804 95.3325 7.85004 94.3605 7.85004C93.3885 7.85004 92.7045 8.31804 92.3085 9.25404C91.9125 10.172 91.7145 11.693 91.7145 13.817C91.7145 15.941 91.9125 17.462 92.3085 18.38ZM94.3065 20.27C92.5965 20.27 91.0485 19.712 89.6625 18.596C88.2765 17.48 87.5835 15.896 87.5835 13.844C87.5835 12.746 87.7815 11.765 88.1775 10.901C88.5915 10.037 89.1315 9.35304 89.7975 8.84904C90.4815 8.34504 91.2105 7.96704 91.9845 7.71504C92.7585 7.44504 93.5505 7.31004 94.3605 7.31004C95.1705 7.31004 95.9625 7.44504 96.7365 7.71504C97.5285 7.96704 98.2575 8.34504 98.9235 8.84904C99.6075 9.35304 100.156 10.037 100.57 10.901C100.984 11.765 101.191 12.737 101.191 13.817C101.191 14.897 100.984 15.86 100.57 16.706C100.156 17.552 99.6075 18.227 98.9235 18.731C97.5555 19.757 96.0165 20.27 94.3065 20.27Z" fill="#74448A"/>
<path d="M125.774 19.46H127.124V20H120.374V19.46H121.724V11.9C121.724 10.622 121.535 9.71304 121.157 9.17304C120.779 8.63304 120.212 8.36304 119.456 8.36304C119.024 8.36304 118.574 8.48904 118.106 8.74104C117.638 8.99304 117.251 9.34404 116.945 9.79404C117.161 10.442 117.269 11.342 117.269 12.494V19.46H118.619V20H111.599V19.46H113.219V11.9C113.219 10.622 113.03 9.71304 112.652 9.17304C112.274 8.63304 111.707 8.36304 110.951 8.36304C109.925 8.36304 109.106 8.90304 108.494 9.98304V19.46H109.844V20H103.094V19.46H104.444V8.12004H103.094V7.58004H108.494V8.98404C108.836 8.51604 109.367 8.12004 110.087 7.79604C110.825 7.45404 111.617 7.28304 112.463 7.28304C114.605 7.28304 116 7.88604 116.648 9.09204C117.116 8.51604 117.737 8.07504 118.511 7.76904C119.285 7.44504 120.104 7.28304 120.968 7.28304C124.172 7.28304 125.774 9.02004 125.774 12.494V19.46Z" fill="#74448A"/>
<path d="M140.947 14.6H132.793C132.973 17.768 134.206 19.352 136.492 19.352C137.104 19.352 137.797 19.208 138.571 18.92C139.363 18.632 139.939 18.227 140.299 17.705L140.677 17.975C140.281 18.641 139.606 19.19 138.652 19.622C137.698 20.054 136.744 20.27 135.79 20.27C134.854 20.27 134.008 20.18 133.252 20C132.496 19.802 131.758 19.478 131.038 19.028C130.318 18.578 129.751 17.903 129.337 17.003C128.941 16.103 128.743 15.014 128.743 13.736C128.743 11.558 129.346 9.94704 130.552 8.90304C131.758 7.84104 133.216 7.31004 134.926 7.31004C136.654 7.31004 138.085 7.88604 139.219 9.03804C140.371 10.19 140.947 12.044 140.947 14.6ZM132.766 14.06H137.167C137.167 12.404 136.987 10.955 136.627 9.71304C136.285 8.47104 135.727 7.85004 134.953 7.85004C134.179 7.85004 133.621 8.45304 133.279 9.65904C132.937 10.847 132.766 12.215 132.766 13.763V14.06Z" fill="#74448A"/>
<path d="M154.109 5.42004V14.222C155.585 14.222 156.593 13.907 157.133 13.277C157.673 12.629 157.943 11.504 157.943 9.90204C157.943 8.30004 157.673 7.15704 157.133 6.47304C156.593 5.77104 155.585 5.42004 154.109 5.42004ZM155.459 19.46V20H148.709V19.46H150.059V5.42004H148.709V4.88004H154.082C159.374 4.62804 162.02 6.32904 162.02 9.98304C162.02 11.603 161.354 12.836 160.022 13.682C158.69 14.528 156.719 14.888 154.109 14.762V19.46H155.459Z" fill="#74448A"/>
<path d="M169.647 22.997C169.161 24.041 168.648 24.788 168.108 25.238C167.568 25.706 166.848 25.94 165.948 25.94C165.048 25.94 164.346 25.742 163.842 25.346C163.338 24.968 163.086 24.455 163.086 23.807C163.086 23.177 163.266 22.673 163.626 22.295C164.004 21.917 164.454 21.728 164.976 21.728C165.498 21.728 165.939 21.827 166.299 22.025C166.659 22.223 166.911 22.439 167.055 22.673C167.451 23.303 167.82 23.618 168.162 23.618C168.522 23.618 168.837 23.312 169.107 22.7L170.241 20.027L163.923 8.12004H162.843V7.58004H170.106V8.12004H168.756L172.374 15.248L175.479 8.12004H173.319V7.58004H177.747V8.12004H176.127L169.647 22.997Z" fill="#74448A"/>
<path d="M184.052 8.12004V14.708C184.052 16.256 184.115 17.201 184.241 17.543C184.367 17.867 184.502 18.146 184.646 18.38C184.916 18.848 185.384 19.082 186.05 19.082C186.734 19.082 187.211 18.992 187.481 18.812V19.352C186.617 19.964 185.672 20.27 184.646 20.27C183.134 20.27 181.982 19.91 181.19 19.19C180.398 18.47 180.002 17.183 180.002 15.329V8.12004H178.004V7.58004H180.002C180.866 7.43604 181.631 7.02204 182.297 6.33804C182.963 5.63604 183.422 4.67304 183.674 3.44904H184.052V7.58004H187.184V8.12004H184.052Z" fill="#74448A"/>
<path d="M203.015 19.46H204.365V20H197.615V19.46H198.965V11.9C198.965 10.622 198.776 9.71304 198.398 9.17304C198.02 8.63304 197.453 8.36304 196.697 8.36304C195.671 8.36304 194.852 8.90304 194.24 9.98304V19.46H195.59V20H188.84V19.46H190.19V2.45004H188.84V1.91004H194.24V8.98404C194.582 8.49804 195.113 8.09304 195.833 7.76904C196.553 7.44504 197.345 7.28304 198.209 7.28304C201.413 7.28304 203.015 9.02004 203.015 12.494V19.46Z" fill="#74448A"/>
<path d="M210.697 18.38C211.093 19.28 211.777 19.73 212.749 19.73C213.721 19.73 214.414 19.271 214.828 18.353C215.242 17.435 215.449 15.923 215.449 13.817C215.449 11.693 215.242 10.172 214.828 9.25404C214.414 8.31804 213.721 7.85004 212.749 7.85004C211.777 7.85004 211.093 8.31804 210.697 9.25404C210.301 10.172 210.103 11.693 210.103 13.817C210.103 15.941 210.301 17.462 210.697 18.38ZM212.695 20.27C210.985 20.27 209.437 19.712 208.051 18.596C206.665 17.48 205.972 15.896 205.972 13.844C205.972 12.746 206.17 11.765 206.566 10.901C206.98 10.037 207.52 9.35304 208.186 8.84904C208.87 8.34504 209.599 7.96704 210.373 7.71504C211.147 7.44504 211.939 7.31004 212.749 7.31004C213.559 7.31004 214.351 7.44504 215.125 7.71504C215.917 7.96704 216.646 8.34504 217.312 8.84904C217.996 9.35304 218.545 10.037 218.959 10.901C219.373 11.765 219.58 12.737 219.58 13.817C219.58 14.897 219.373 15.86 218.959 16.706C218.545 17.552 217.996 18.227 217.312 18.731C215.944 19.757 214.405 20.27 212.695 20.27Z" fill="#74448A"/>
<path d="M235.657 19.46H237.007V20H230.257V19.46H231.607V11.9C231.607 10.622 231.418 9.71304 231.04 9.17304C230.662 8.63304 230.095 8.36304 229.339 8.36304C228.313 8.36304 227.494 8.90304 226.882 9.98304V19.46H228.232V20H221.482V19.46H222.832V8.12004H221.482V7.58004H226.882V8.98404C227.224 8.51604 227.755 8.12004 228.475 7.79604C229.213 7.45404 230.005 7.28304 230.851 7.28304C234.055 7.28304 235.657 9.02004 235.657 12.494V19.46Z" fill="#74448A"/>
<path d="M260.696 19.46V20H253.595V19.46H255.188L253.379 15.707H247.925L246.359 19.46H248.492V20H243.875V19.46H245.684L251.867 4.61004H252.542L259.4 19.46H260.696ZM248.168 15.14H253.109L250.463 9.63204L248.168 15.14Z" fill="#74448A"/>
<path d="M261.225 8.12004V7.58004H268.515V8.12004H267.084L270 14.654L271.755 10.253L270.864 8.12004H269.865V7.58004H276.615V8.12004H275.427L278.343 14.654L280.854 8.12004H278.694V7.58004H283.095V8.12004H281.475L276.912 20H276.345L272.079 11.063L268.542 20H267.975L262.494 8.12004H261.225Z" fill="#74448A"/>
<path d="M296.381 14.6H288.227C288.407 17.768 289.64 19.352 291.926 19.352C292.538 19.352 293.231 19.208 294.005 18.92C294.797 18.632 295.373 18.227 295.733 17.705L296.111 17.975C295.715 18.641 295.04 19.19 294.086 19.622C293.132 20.054 292.178 20.27 291.224 20.27C290.288 20.27 289.442 20.18 288.686 20C287.93 19.802 287.192 19.478 286.472 19.028C285.752 18.578 285.185 17.903 284.771 17.003C284.375 16.103 284.177 15.014 284.177 13.736C284.177 11.558 284.78 9.94704 285.986 8.90304C287.192 7.84104 288.65 7.31004 290.36 7.31004C292.088 7.31004 293.519 7.88604 294.653 9.03804C295.805 10.19 296.381 12.044 296.381 14.6ZM288.2 14.06H292.601C292.601 12.404 292.421 10.955 292.061 9.71304C291.719 8.47104 291.161 7.85004 290.387 7.85004C289.613 7.85004 289.055 8.45304 288.713 9.65904C288.371 10.847 288.2 12.215 288.2 13.763V14.06Z" fill="#74448A"/>
<path d="M304.418 19.784C306.29 19.784 307.226 19.271 307.226 18.245C307.226 17.669 306.902 17.201 306.254 16.841C305.606 16.463 304.823 16.157 303.905 15.923C302.987 15.689 302.078 15.419 301.178 15.113C300.296 14.807 299.558 14.321 298.964 13.655C298.388 12.989 298.154 12.116 298.262 11.036C298.37 9.95604 298.919 9.06504 299.909 8.36304C300.917 7.66104 302.15 7.31004 303.608 7.31004C305.084 7.31004 306.272 7.54404 307.172 8.01204C308.072 8.48004 308.576 9.11004 308.684 9.90204C308.756 10.388 308.675 10.838 308.441 11.252C308.225 11.666 307.856 11.882 307.334 11.9C306.83 11.918 306.407 11.783 306.065 11.495C305.741 11.207 305.588 10.874 305.606 10.496C305.624 10.118 305.768 9.78504 306.038 9.49704C306.308 9.19104 306.443 8.94804 306.443 8.76804C306.443 8.46204 306.146 8.23704 305.552 8.09304C304.976 7.93104 304.301 7.85004 303.527 7.85004C302.771 7.85004 302.15 8.02104 301.664 8.36304C301.178 8.70504 300.935 9.12804 300.935 9.63204C300.935 10.136 301.232 10.568 301.826 10.928C302.438 11.288 303.176 11.585 304.04 11.819C304.904 12.035 305.759 12.287 306.605 12.575C307.469 12.845 308.198 13.286 308.792 13.898C309.404 14.51 309.71 15.284 309.71 16.22C309.71 17.462 309.269 18.461 308.387 19.217C307.505 19.955 306.173 20.324 304.391 20.324C302.609 20.324 301.16 20.054 300.044 19.514C298.946 18.974 298.343 18.281 298.235 17.435C298.163 16.949 298.244 16.499 298.478 16.085C298.712 15.671 299.081 15.455 299.585 15.437C300.089 15.419 300.503 15.554 300.827 15.842C301.169 16.13 301.331 16.463 301.313 16.841C301.295 17.219 301.151 17.561 300.881 17.867C300.611 18.155 300.476 18.389 300.476 18.569C300.476 18.929 300.89 19.226 301.718 19.46C302.564 19.676 303.464 19.784 304.418 19.784Z" fill="#74448A"/>
<path d="M315.612 18.38C316.008 19.28 316.692 19.73 317.664 19.73C318.636 19.73 319.329 19.271 319.743 18.353C320.157 17.435 320.364 15.923 320.364 13.817C320.364 11.693 320.157 10.172 319.743 9.25404C319.329 8.31804 318.636 7.85004 317.664 7.85004C316.692 7.85004 316.008 8.31804 315.612 9.25404C315.216 10.172 315.018 11.693 315.018 13.817C315.018 15.941 315.216 17.462 315.612 18.38ZM317.61 20.27C315.9 20.27 314.352 19.712 312.966 18.596C311.58 17.48 310.887 15.896 310.887 13.844C310.887 12.746 311.085 11.765 311.481 10.901C311.895 10.037 312.435 9.35304 313.101 8.84904C313.785 8.34504 314.514 7.96704 315.288 7.71504C316.062 7.44504 316.854 7.31004 317.664 7.31004C318.474 7.31004 319.266 7.44504 320.04 7.71504C320.832 7.96704 321.561 8.34504 322.227 8.84904C322.911 9.35304 323.46 10.037 323.874 10.901C324.288 11.765 324.495 12.737 324.495 13.817C324.495 14.897 324.288 15.86 323.874 16.706C323.46 17.552 322.911 18.227 322.227 18.731C320.859 19.757 319.32 20.27 317.61 20.27Z" fill="#74448A"/>
<path d="M349.077 19.46H350.427V20H343.677V19.46H345.027V11.9C345.027 10.622 344.838 9.71304 344.46 9.17304C344.082 8.63304 343.515 8.36304 342.759 8.36304C342.327 8.36304 341.877 8.48904 341.409 8.74104C340.941 8.99304 340.554 9.34404 340.248 9.79404C340.464 10.442 340.572 11.342 340.572 12.494V19.46H341.922V20H334.902V19.46H336.522V11.9C336.522 10.622 336.333 9.71304 335.955 9.17304C335.577 8.63304 335.01 8.36304 334.254 8.36304C333.228 8.36304 332.409 8.90304 331.797 9.98304V19.46H333.147V20H326.397V19.46H327.747V8.12004H326.397V7.58004H331.797V8.98404C332.139 8.51604 332.67 8.12004 333.39 7.79604C334.128 7.45404 334.92 7.28304 335.766 7.28304C337.908 7.28304 339.303 7.88604 339.951 9.09204C340.419 8.51604 341.04 8.07504 341.814 7.76904C342.588 7.44504 343.407 7.28304 344.271 7.28304C347.475 7.28304 349.077 9.02004 349.077 12.494V19.46Z" fill="#74448A"/>
<path d="M364.25 14.6H356.096C356.276 17.768 357.509 19.352 359.795 19.352C360.407 19.352 361.1 19.208 361.874 18.92C362.666 18.632 363.242 18.227 363.602 17.705L363.98 17.975C363.584 18.641 362.909 19.19 361.955 19.622C361.001 20.054 360.047 20.27 359.093 20.27C358.157 20.27 357.311 20.18 356.555 20C355.799 19.802 355.061 19.478 354.341 19.028C353.621 18.578 353.054 17.903 352.64 17.003C352.244 16.103 352.046 15.014 352.046 13.736C352.046 11.558 352.649 9.94704 353.855 8.90304C355.061 7.84104 356.519 7.31004 358.229 7.31004C359.957 7.31004 361.388 7.88604 362.522 9.03804C363.674 10.19 364.25 12.044 364.25 14.6ZM356.069 14.06H360.47C360.47 12.404 360.29 10.955 359.93 9.71304C359.588 8.47104 359.03 7.85004 358.256 7.85004C357.482 7.85004 356.924 8.45304 356.582 9.65904C356.24 10.847 356.069 12.215 356.069 13.763V14.06Z" fill="#74448A"/>
<path d="M385.108 10.901H384.568C384.568 9.46104 384.109 8.12904 383.191 6.90504C382.273 5.68104 380.959 5.06904 379.249 5.06904C378.295 5.06904 377.503 5.62704 376.873 6.74304C376.261 7.85904 375.955 9.76704 375.955 12.467C375.955 15.167 376.261 17.075 376.873 18.191C377.503 19.307 378.475 19.865 379.789 19.865C381.121 19.865 382.237 19.451 383.137 18.623C384.055 17.795 384.622 16.625 384.838 15.113H385.378C385.126 16.895 384.496 18.227 383.488 19.109C382.498 19.973 381.31 20.405 379.924 20.405C377.242 20.405 375.181 19.766 373.741 18.488C372.319 17.192 371.608 15.176 371.608 12.44C371.608 9.68604 372.301 7.67904 373.687 6.41904C375.091 5.15904 376.945 4.52904 379.249 4.52904C380.491 4.52904 381.697 4.86204 382.867 5.52804C383.245 5.76204 383.551 5.87904 383.785 5.87904C384.037 5.87904 384.235 5.77104 384.379 5.55504C384.523 5.32104 384.595 5.09604 384.595 4.88004H385.108V10.901Z" fill="#74448A"/>
<path d="M391.576 18.38C391.972 19.28 392.656 19.73 393.628 19.73C394.6 19.73 395.293 19.271 395.707 18.353C396.121 17.435 396.328 15.923 396.328 13.817C396.328 11.693 396.121 10.172 395.707 9.25404C395.293 8.31804 394.6 7.85004 393.628 7.85004C392.656 7.85004 391.972 8.31804 391.576 9.25404C391.18 10.172 390.982 11.693 390.982 13.817C390.982 15.941 391.18 17.462 391.576 18.38ZM393.574 20.27C391.864 20.27 390.316 19.712 388.93 18.596C387.544 17.48 386.851 15.896 386.851 13.844C386.851 12.746 387.049 11.765 387.445 10.901C387.859 10.037 388.399 9.35304 389.065 8.84904C389.749 8.34504 390.478 7.96704 391.252 7.71504C392.026 7.44504 392.818 7.31004 393.628 7.31004C394.438 7.31004 395.23 7.44504 396.004 7.71504C396.796 7.96704 397.525 8.34504 398.191 8.84904C398.875 9.35304 399.424 10.037 399.838 10.901C400.252 11.765 400.459 12.737 400.459 13.817C400.459 14.897 400.252 15.86 399.838 16.706C399.424 17.552 398.875 18.227 398.191 18.731C396.823 19.757 395.284 20.27 393.574 20.27Z" fill="#74448A"/>
<path d="M425.041 19.46H426.391V20H419.641V19.46H420.991V11.9C420.991 10.622 420.802 9.71304 420.424 9.17304C420.046 8.63304 419.479 8.36304 418.723 8.36304C418.291 8.36304 417.841 8.48904 417.373 8.74104C416.905 8.99304 416.518 9.34404 416.212 9.79404C416.428 10.442 416.536 11.342 416.536 12.494V19.46H417.886V20H410.866V19.46H412.486V11.9C412.486 10.622 412.297 9.71304 411.919 9.17304C411.541 8.63304 410.974 8.36304 410.218 8.36304C409.192 8.36304 408.373 8.90304 407.761 9.98304V19.46H409.111V20H402.361V19.46H403.711V8.12004H402.361V7.58004H407.761V8.98404C408.103 8.51604 408.634 8.12004 409.354 7.79604C410.092 7.45404 410.884 7.28304 411.73 7.28304C413.872 7.28304 415.267 7.88604 415.915 9.09204C416.383 8.51604 417.004 8.07504 417.778 7.76904C418.552 7.44504 419.371 7.28304 420.235 7.28304C423.439 7.28304 425.041 9.02004 425.041 12.494V19.46Z" fill="#74448A"/>
<path d="M450.96 19.46H452.31V20H445.56V19.46H446.91V11.9C446.91 10.622 446.721 9.71304 446.343 9.17304C445.965 8.63304 445.398 8.36304 444.642 8.36304C444.21 8.36304 443.76 8.48904 443.292 8.74104C442.824 8.99304 442.437 9.34404 442.131 9.79404C442.347 10.442 442.455 11.342 442.455 12.494V19.46H443.805V20H436.785V19.46H438.405V11.9C438.405 10.622 438.216 9.71304 437.838 9.17304C437.46 8.63304 436.893 8.36304 436.137 8.36304C435.111 8.36304 434.292 8.90304 433.68 9.98304V19.46H435.03V20H428.28V19.46H429.63V8.12004H428.28V7.58004H433.68V8.98404C434.022 8.51604 434.553 8.12004 435.273 7.79604C436.011 7.45404 436.803 7.28304 437.649 7.28304C439.791 7.28304 441.186 7.88604 441.834 9.09204C442.302 8.51604 442.923 8.07504 443.697 7.76904C444.471 7.44504 445.29 7.28304 446.154 7.28304C449.358 7.28304 450.96 9.02004 450.96 12.494V19.46Z" fill="#74448A"/>
<path d="M463.514 20V18.569C463.172 19.055 462.632 19.469 461.894 19.811C461.174 20.135 460.391 20.297 459.545 20.297C456.341 20.297 454.739 18.56 454.739 15.086V8.12004H453.389V7.58004H458.789V15.68C458.789 16.958 458.978 17.867 459.356 18.407C459.734 18.947 460.301 19.217 461.057 19.217C462.065 19.217 462.884 18.677 463.514 17.597V8.12004H462.164V7.58004H467.564V19.46H468.914V20H463.514Z" fill="#74448A"/>
<path d="M484.985 19.46H486.335V20H479.585V19.46H480.935V11.9C480.935 10.622 480.746 9.71304 480.368 9.17304C479.99 8.63304 479.423 8.36304 478.667 8.36304C477.641 8.36304 476.822 8.90304 476.21 9.98304V19.46H477.56V20H470.81V19.46H472.16V8.12004H470.81V7.58004H476.21V8.98404C476.552 8.51604 477.083 8.12004 477.803 7.79604C478.541 7.45404 479.333 7.28304 480.179 7.28304C483.383 7.28304 484.985 9.02004 484.985 12.494V19.46Z" fill="#74448A"/>
<path d="M493.613 19.46H494.963V20H488.213V19.46H489.563V8.12004H488.483V7.58004H493.613V19.46ZM493.856 4.01604C493.856 4.66404 493.622 5.22204 493.154 5.69004C492.704 6.14004 492.146 6.36504 491.48 6.36504C490.832 6.36504 490.274 6.14004 489.806 5.69004C489.338 5.22204 489.104 4.66404 489.104 4.01604C489.104 3.35004 489.338 2.78304 489.806 2.31504C490.274 1.84704 490.832 1.61304 491.48 1.61304C492.146 1.61304 492.704 1.84704 493.154 2.31504C493.622 2.78304 493.856 3.35004 493.856 4.01604Z" fill="#74448A"/>
<path d="M501.829 8.12004V14.708C501.829 16.256 501.892 17.201 502.018 17.543C502.144 17.867 502.279 18.146 502.423 18.38C502.693 18.848 503.161 19.082 503.827 19.082C504.511 19.082 504.988 18.992 505.258 18.812V19.352C504.394 19.964 503.449 20.27 502.423 20.27C500.911 20.27 499.759 19.91 498.967 19.19C498.175 18.47 497.779 17.183 497.779 15.329V8.12004H495.781V7.58004H497.779C498.643 7.43604 499.408 7.02204 500.074 6.33804C500.74 5.63604 501.199 4.67304 501.451 3.44904H501.829V7.58004H504.961V8.12004H501.829Z" fill="#74448A"/>
<path d="M512.341 22.997C511.855 24.041 511.342 24.788 510.802 25.238C510.262 25.706 509.542 25.94 508.642 25.94C507.742 25.94 507.04 25.742 506.536 25.346C506.032 24.968 505.78 24.455 505.78 23.807C505.78 23.177 505.96 22.673 506.32 22.295C506.698 21.917 507.148 21.728 507.67 21.728C508.192 21.728 508.633 21.827 508.993 22.025C509.353 22.223 509.605 22.439 509.749 22.673C510.145 23.303 510.514 23.618 510.856 23.618C511.216 23.618 511.531 23.312 511.801 22.7L512.935 20.027L506.617 8.12004H505.537V7.58004H512.8V8.12004H511.45L515.068 15.248L518.173 8.12004H516.013V7.58004H520.441V8.12004H518.821L512.341 22.997Z" fill="#74448A"/>
<path d="M36.3928 18.46V19H29.2918V18.46H30.8848L29.0758 14.707H23.6218L22.0558 18.46H24.1888V19H19.5718V18.46H21.3808L27.5638 3.61004H28.2388L35.0968 18.46H36.3928ZM23.8648 14.14H28.8058L26.1598 8.63204L23.8648 14.14Z" fill="#C386AE"/>
<path d="M36.9214 7.12004V6.58004H44.2114V7.12004H42.7804L45.6964 13.654L47.4514 9.25304L46.5604 7.12004H45.5614V6.58004H52.3114V7.12004H51.1234L54.0394 13.654L56.5504 7.12004H54.3904V6.58004H58.7914V7.12004H57.1714L52.6084 19H52.0414L47.7754 10.063L44.2384 19H43.6714L38.1904 7.12004H36.9214Z" fill="#C386AE"/>
<path d="M72.0775 13.6H63.9235C64.1035 16.768 65.3365 18.352 67.6225 18.352C68.2345 18.352 68.9275 18.208 69.7015 17.92C70.4935 17.632 71.0695 17.227 71.4295 16.705L71.8075 16.975C71.4115 17.641 70.7365 18.19 69.7825 18.622C68.8285 19.054 67.8745 19.27 66.9205 19.27C65.9845 19.27 65.1385 19.18 64.3825 19C63.6265 18.802 62.8885 18.478 62.1685 18.028C61.4485 17.578 60.8815 16.903 60.4675 16.003C60.0715 15.103 59.8735 14.014 59.8735 12.736C59.8735 10.558 60.4765 8.94704 61.6825 7.90304C62.8885 6.84104 64.3465 6.31004 66.0565 6.31004C67.7845 6.31004 69.2155 6.88604 70.3495 8.03804C71.5015 9.19004 72.0775 11.044 72.0775 13.6ZM63.8965 13.06H68.2975C68.2975 11.404 68.1175 9.95504 67.7575 8.71304C67.4155 7.47104 66.8575 6.85004 66.0835 6.85004C65.3095 6.85004 64.7515 7.45304 64.4095 8.65904C64.0675 9.84704 63.8965 11.215 63.8965 12.763V13.06Z" fill="#C386AE"/>
<path d="M80.114 18.784C81.986 18.784 82.922 18.271 82.922 17.245C82.922 16.669 82.598 16.201 81.95 15.841C81.302 15.463 80.519 15.157 79.601 14.923C78.683 14.689 77.774 14.419 76.874 14.113C75.992 13.807 75.254 13.321 74.66 12.655C74.084 11.989 73.85 11.116 73.958 10.036C74.066 8.95604 74.615 8.06504 75.605 7.36304C76.613 6.66104 77.846 6.31004 79.304 6.31004C80.78 6.31004 81.968 6.54404 82.868 7.01204C83.768 7.48004 84.272 8.11004 84.38 8.90204C84.452 9.38804 84.371 9.83804 84.137 10.252C83.921 10.666 83.552 10.882 83.03 10.9C82.526 10.918 82.103 10.783 81.761 10.495C81.437 10.207 81.284 9.87404 81.302 9.49604C81.32 9.11804 81.464 8.78504 81.734 8.49704C82.004 8.19104 82.139 7.94804 82.139 7.76804C82.139 7.46204 81.842 7.23704 81.248 7.09304C80.672 6.93104 79.997 6.85004 79.223 6.85004C78.467 6.85004 77.846 7.02104 77.36 7.36304C76.874 7.70504 76.631 8.12804 76.631 8.63204C76.631 9.13604 76.928 9.56804 77.522 9.92804C78.134 10.288 78.872 10.585 79.736 10.819C80.6 11.035 81.455 11.287 82.301 11.575C83.165 11.845 83.894 12.286 84.488 12.898C85.1 13.51 85.406 14.284 85.406 15.22C85.406 16.462 84.965 17.461 84.083 18.217C83.201 18.955 81.869 19.324 80.087 19.324C78.305 19.324 76.856 19.054 75.74 18.514C74.642 17.974 74.039 17.281 73.931 16.435C73.859 15.949 73.94 15.499 74.174 15.085C74.408 14.671 74.777 14.455 75.281 14.437C75.785 14.419 76.199 14.554 76.523 14.842C76.865 15.13 77.027 15.463 77.009 15.841C76.991 16.219 76.847 16.561 76.577 16.867C76.307 17.155 76.172 17.389 76.172 17.569C76.172 17.929 76.586 18.226 77.414 18.46C78.26 18.676 79.16 18.784 80.114 18.784Z" fill="#C386AE"/>
<path d="M91.3085 17.38C91.7045 18.28 92.3885 18.73 93.3605 18.73C94.3325 18.73 95.0255 18.271 95.4395 17.353C95.8535 16.435 96.0605 14.923 96.0605 12.817C96.0605 10.693 95.8535 9.17204 95.4395 8.25404C95.0255 7.31804 94.3325 6.85004 93.3605 6.85004C92.3885 6.85004 91.7045 7.31804 91.3085 8.25404C90.9125 9.17204 90.7145 10.693 90.7145 12.817C90.7145 14.941 90.9125 16.462 91.3085 17.38ZM93.3065 19.27C91.5965 19.27 90.0485 18.712 88.6625 17.596C87.2765 16.48 86.5835 14.896 86.5835 12.844C86.5835 11.746 86.7815 10.765 87.1775 9.90104C87.5915 9.03704 88.1315 8.35304 88.7975 7.84904C89.4815 7.34504 90.2105 6.96704 90.9845 6.71504C91.7585 6.44504 92.5505 6.31004 93.3605 6.31004C94.1705 6.31004 94.9625 6.44504 95.7365 6.71504C96.5285 6.96704 97.2575 7.34504 97.9235 7.84904C98.6075 8.35304 99.1565 9.03704 99.5705 9.90104C99.9845 10.765 100.191 11.737 100.191 12.817C100.191 13.897 99.9845 14.86 99.5705 15.706C99.1565 16.552 98.6075 17.227 97.9235 17.731C96.5555 18.757 95.0165 19.27 93.3065 19.27Z" fill="#C386AE"/>
<path d="M124.774 18.46H126.124V19H119.374V18.46H120.724V10.9C120.724 9.62204 120.535 8.71304 120.157 8.17304C119.779 7.63304 119.212 7.36304 118.456 7.36304C118.024 7.36304 117.574 7.48904 117.106 7.74104C116.638 7.99304 116.251 8.34404 115.945 8.79404C116.161 9.44204 116.269 10.342 116.269 11.494V18.46H117.619V19H110.599V18.46H112.219V10.9C112.219 9.62204 112.03 8.71304 111.652 8.17304C111.274 7.63304 110.707 7.36304 109.951 7.36304C108.925 7.36304 108.106 7.90304 107.494 8.98304V18.46H108.844V19H102.094V18.46H103.444V7.12004H102.094V6.58004H107.494V7.98404C107.836 7.51604 108.367 7.12004 109.087 6.79604C109.825 6.45404 110.617 6.28304 111.463 6.28304C113.605 6.28304 115 6.88604 115.648 8.09204C116.116 7.51604 116.737 7.07504 117.511 6.76904C118.285 6.44504 119.104 6.28304 119.968 6.28304C123.172 6.28304 124.774 8.02004 124.774 11.494V18.46Z" fill="#C386AE"/>
<path d="M139.947 13.6H131.793C131.973 16.768 133.206 18.352 135.492 18.352C136.104 18.352 136.797 18.208 137.571 17.92C138.363 17.632 138.939 17.227 139.299 16.705L139.677 16.975C139.281 17.641 138.606 18.19 137.652 18.622C136.698 19.054 135.744 19.27 134.79 19.27C133.854 19.27 133.008 19.18 132.252 19C131.496 18.802 130.758 18.478 130.038 18.028C129.318 17.578 128.751 16.903 128.337 16.003C127.941 15.103 127.743 14.014 127.743 12.736C127.743 10.558 128.346 8.94704 129.552 7.90304C130.758 6.84104 132.216 6.31004 133.926 6.31004C135.654 6.31004 137.085 6.88604 138.219 8.03804C139.371 9.19004 139.947 11.044 139.947 13.6ZM131.766 13.06H136.167C136.167 11.404 135.987 9.95504 135.627 8.71304C135.285 7.47104 134.727 6.85004 133.953 6.85004C133.179 6.85004 132.621 7.45304 132.279 8.65904C131.937 9.84704 131.766 11.215 131.766 12.763V13.06Z" fill="#C386AE"/>
<path d="M153.109 4.42004V13.222C154.585 13.222 155.593 12.907 156.133 12.277C156.673 11.629 156.943 10.504 156.943 8.90204C156.943 7.30004 156.673 6.15704 156.133 5.47304C155.593 4.77104 154.585 4.42004 153.109 4.42004ZM154.459 18.46V19H147.709V18.46H149.059V4.42004H147.709V3.88004H153.082C158.374 3.62804 161.02 5.32904 161.02 8.98304C161.02 10.603 160.354 11.836 159.022 12.682C157.69 13.528 155.719 13.888 153.109 13.762V18.46H154.459Z" fill="#C386AE"/>
<path d="M168.647 21.997C168.161 23.041 167.648 23.788 167.108 24.238C166.568 24.706 165.848 24.94 164.948 24.94C164.048 24.94 163.346 24.742 162.842 24.346C162.338 23.968 162.086 23.455 162.086 22.807C162.086 22.177 162.266 21.673 162.626 21.295C163.004 20.917 163.454 20.728 163.976 20.728C164.498 20.728 164.939 20.827 165.299 21.025C165.659 21.223 165.911 21.439 166.055 21.673C166.451 22.303 166.82 22.618 167.162 22.618C167.522 22.618 167.837 22.312 168.107 21.7L169.241 19.027L162.923 7.12004H161.843V6.58004H169.106V7.12004H167.756L171.374 14.248L174.479 7.12004H172.319V6.58004H176.747V7.12004H175.127L168.647 21.997Z" fill="#C386AE"/>
<path d="M183.052 7.12004V13.708C183.052 15.256 183.115 16.201 183.241 16.543C183.367 16.867 183.502 17.146 183.646 17.38C183.916 17.848 184.384 18.082 185.05 18.082C185.734 18.082 186.211 17.992 186.481 17.812V18.352C185.617 18.964 184.672 19.27 183.646 19.27C182.134 19.27 180.982 18.91 180.19 18.19C179.398 17.47 179.002 16.183 179.002 14.329V7.12004H177.004V6.58004H179.002C179.866 6.43604 180.631 6.02204 181.297 5.33804C181.963 4.63604 182.422 3.67304 182.674 2.44904H183.052V6.58004H186.184V7.12004H183.052Z" fill="#C386AE"/>
<path d="M202.015 18.46H203.365V19H196.615V18.46H197.965V10.9C197.965 9.62204 197.776 8.71304 197.398 8.17304C197.02 7.63304 196.453 7.36304 195.697 7.36304C194.671 7.36304 193.852 7.90304 193.24 8.98304V18.46H194.59V19H187.84V18.46H189.19V1.45004H187.84V0.910038H193.24V7.98404C193.582 7.49804 194.113 7.09304 194.833 6.76904C195.553 6.44504 196.345 6.28304 197.209 6.28304C200.413 6.28304 202.015 8.02004 202.015 11.494V18.46Z" fill="#C386AE"/>
<path d="M209.697 17.38C210.093 18.28 210.777 18.73 211.749 18.73C212.721 18.73 213.414 18.271 213.828 17.353C214.242 16.435 214.449 14.923 214.449 12.817C214.449 10.693 214.242 9.17204 213.828 8.25404C213.414 7.31804 212.721 6.85004 211.749 6.85004C210.777 6.85004 210.093 7.31804 209.697 8.25404C209.301 9.17204 209.103 10.693 209.103 12.817C209.103 14.941 209.301 16.462 209.697 17.38ZM211.695 19.27C209.985 19.27 208.437 18.712 207.051 17.596C205.665 16.48 204.972 14.896 204.972 12.844C204.972 11.746 205.17 10.765 205.566 9.90104C205.98 9.03704 206.52 8.35304 207.186 7.84904C207.87 7.34504 208.599 6.96704 209.373 6.71504C210.147 6.44504 210.939 6.31004 211.749 6.31004C212.559 6.31004 213.351 6.44504 214.125 6.71504C214.917 6.96704 215.646 7.34504 216.312 7.84904C216.996 8.35304 217.545 9.03704 217.959 9.90104C218.373 10.765 218.58 11.737 218.58 12.817C218.58 13.897 218.373 14.86 217.959 15.706C217.545 16.552 216.996 17.227 216.312 17.731C214.944 18.757 213.405 19.27 211.695 19.27Z" fill="#C386AE"/>
<path d="M234.657 18.46H236.007V19H229.257V18.46H230.607V10.9C230.607 9.62204 230.418 8.71304 230.04 8.17304C229.662 7.63304 229.095 7.36304 228.339 7.36304C227.313 7.36304 226.494 7.90304 225.882 8.98304V18.46H227.232V19H220.482V18.46H221.832V7.12004H220.482V6.58004H225.882V7.98404C226.224 7.51604 226.755 7.12004 227.475 6.79604C228.213 6.45404 229.005 6.28304 229.851 6.28304C233.055 6.28304 234.657 8.02004 234.657 11.494V18.46Z" fill="#C386AE"/>
<path d="M259.696 18.46V19H252.595V18.46H254.188L252.379 14.707H246.925L245.359 18.46H247.492V19H242.875V18.46H244.684L250.867 3.61004H251.542L258.4 18.46H259.696ZM247.168 14.14H252.109L249.463 8.63204L247.168 14.14Z" fill="#C386AE"/>
<path d="M260.225 7.12004V6.58004H267.515V7.12004H266.084L269 13.654L270.755 9.25304L269.864 7.12004H268.865V6.58004H275.615V7.12004H274.427L277.343 13.654L279.854 7.12004H277.694V6.58004H282.095V7.12004H280.475L275.912 19H275.345L271.079 10.063L267.542 19H266.975L261.494 7.12004H260.225Z" fill="#C386AE"/>
<path d="M295.381 13.6H287.227C287.407 16.768 288.64 18.352 290.926 18.352C291.538 18.352 292.231 18.208 293.005 17.92C293.797 17.632 294.373 17.227 294.733 16.705L295.111 16.975C294.715 17.641 294.04 18.19 293.086 18.622C292.132 19.054 291.178 19.27 290.224 19.27C289.288 19.27 288.442 19.18 287.686 19C286.93 18.802 286.192 18.478 285.472 18.028C284.752 17.578 284.185 16.903 283.771 16.003C283.375 15.103 283.177 14.014 283.177 12.736C283.177 10.558 283.78 8.94704 284.986 7.90304C286.192 6.84104 287.65 6.31004 289.36 6.31004C291.088 6.31004 292.519 6.88604 293.653 8.03804C294.805 9.19004 295.381 11.044 295.381 13.6ZM287.2 13.06H291.601C291.601 11.404 291.421 9.95504 291.061 8.71304C290.719 7.47104 290.161 6.85004 289.387 6.85004C288.613 6.85004 288.055 7.45304 287.713 8.65904C287.371 9.84704 287.2 11.215 287.2 12.763V13.06Z" fill="#C386AE"/>
<path d="M303.418 18.784C305.29 18.784 306.226 18.271 306.226 17.245C306.226 16.669 305.902 16.201 305.254 15.841C304.606 15.463 303.823 15.157 302.905 14.923C301.987 14.689 301.078 14.419 300.178 14.113C299.296 13.807 298.558 13.321 297.964 12.655C297.388 11.989 297.154 11.116 297.262 10.036C297.37 8.95604 297.919 8.06504 298.909 7.36304C299.917 6.66104 301.15 6.31004 302.608 6.31004C304.084 6.31004 305.272 6.54404 306.172 7.01204C307.072 7.48004 307.576 8.11004 307.684 8.90204C307.756 9.38804 307.675 9.83804 307.441 10.252C307.225 10.666 306.856 10.882 306.334 10.9C305.83 10.918 305.407 10.783 305.065 10.495C304.741 10.207 304.588 9.87404 304.606 9.49604C304.624 9.11804 304.768 8.78504 305.038 8.49704C305.308 8.19104 305.443 7.94804 305.443 7.76804C305.443 7.46204 305.146 7.23704 304.552 7.09304C303.976 6.93104 303.301 6.85004 302.527 6.85004C301.771 6.85004 301.15 7.02104 300.664 7.36304C300.178 7.70504 299.935 8.12804 299.935 8.63204C299.935 9.13604 300.232 9.56804 300.826 9.92804C301.438 10.288 302.176 10.585 303.04 10.819C303.904 11.035 304.759 11.287 305.605 11.575C306.469 11.845 307.198 12.286 307.792 12.898C308.404 13.51 308.71 14.284 308.71 15.22C308.71 16.462 308.269 17.461 307.387 18.217C306.505 18.955 305.173 19.324 303.391 19.324C301.609 19.324 300.16 19.054 299.044 18.514C297.946 17.974 297.343 17.281 297.235 16.435C297.163 15.949 297.244 15.499 297.478 15.085C297.712 14.671 298.081 14.455 298.585 14.437C299.089 14.419 299.503 14.554 299.827 14.842C300.169 15.13 300.331 15.463 300.313 15.841C300.295 16.219 300.151 16.561 299.881 16.867C299.611 17.155 299.476 17.389 299.476 17.569C299.476 17.929 299.89 18.226 300.718 18.46C301.564 18.676 302.464 18.784 303.418 18.784Z" fill="#C386AE"/>
<path d="M314.612 17.38C315.008 18.28 315.692 18.73 316.664 18.73C317.636 18.73 318.329 18.271 318.743 17.353C319.157 16.435 319.364 14.923 319.364 12.817C319.364 10.693 319.157 9.17204 318.743 8.25404C318.329 7.31804 317.636 6.85004 316.664 6.85004C315.692 6.85004 315.008 7.31804 314.612 8.25404C314.216 9.17204 314.018 10.693 314.018 12.817C314.018 14.941 314.216 16.462 314.612 17.38ZM316.61 19.27C314.9 19.27 313.352 18.712 311.966 17.596C310.58 16.48 309.887 14.896 309.887 12.844C309.887 11.746 310.085 10.765 310.481 9.90104C310.895 9.03704 311.435 8.35304 312.101 7.84904C312.785 7.34504 313.514 6.96704 314.288 6.71504C315.062 6.44504 315.854 6.31004 316.664 6.31004C317.474 6.31004 318.266 6.44504 319.04 6.71504C319.832 6.96704 320.561 7.34504 321.227 7.84904C321.911 8.35304 322.46 9.03704 322.874 9.90104C323.288 10.765 323.495 11.737 323.495 12.817C323.495 13.897 323.288 14.86 322.874 15.706C322.46 16.552 321.911 17.227 321.227 17.731C319.859 18.757 318.32 19.27 316.61 19.27Z" fill="#C386AE"/>
<path d="M348.077 18.46H349.427V19H342.677V18.46H344.027V10.9C344.027 9.62204 343.838 8.71304 343.46 8.17304C343.082 7.63304 342.515 7.36304 341.759 7.36304C341.327 7.36304 340.877 7.48904 340.409 7.74104C339.941 7.99304 339.554 8.34404 339.248 8.79404C339.464 9.44204 339.572 10.342 339.572 11.494V18.46H340.922V19H333.902V18.46H335.522V10.9C335.522 9.62204 335.333 8.71304 334.955 8.17304C334.577 7.63304 334.01 7.36304 333.254 7.36304C332.228 7.36304 331.409 7.90304 330.797 8.98304V18.46H332.147V19H325.397V18.46H326.747V7.12004H325.397V6.58004H330.797V7.98404C331.139 7.51604 331.67 7.12004 332.39 6.79604C333.128 6.45404 333.92 6.28304 334.766 6.28304C336.908 6.28304 338.303 6.88604 338.951 8.09204C339.419 7.51604 340.04 7.07504 340.814 6.76904C341.588 6.44504 342.407 6.28304 343.271 6.28304C346.475 6.28304 348.077 8.02004 348.077 11.494V18.46Z" fill="#C386AE"/>
<path d="M363.25 13.6H355.096C355.276 16.768 356.509 18.352 358.795 18.352C359.407 18.352 360.1 18.208 360.874 17.92C361.666 17.632 362.242 17.227 362.602 16.705L362.98 16.975C362.584 17.641 361.909 18.19 360.955 18.622C360.001 19.054 359.047 19.27 358.093 19.27C357.157 19.27 356.311 19.18 355.555 19C354.799 18.802 354.061 18.478 353.341 18.028C352.621 17.578 352.054 16.903 351.64 16.003C351.244 15.103 351.046 14.014 351.046 12.736C351.046 10.558 351.649 8.94704 352.855 7.90304C354.061 6.84104 355.519 6.31004 357.229 6.31004C358.957 6.31004 360.388 6.88604 361.522 8.03804C362.674 9.19004 363.25 11.044 363.25 13.6ZM355.069 13.06H359.47C359.47 11.404 359.29 9.95504 358.93 8.71304C358.588 7.47104 358.03 6.85004 357.256 6.85004C356.482 6.85004 355.924 7.45304 355.582 8.65904C355.24 9.84704 355.069 11.215 355.069 12.763V13.06Z" fill="#C386AE"/>
<path d="M384.108 9.90104H383.568C383.568 8.46104 383.109 7.12904 382.191 5.90504C381.273 4.68104 379.959 4.06904 378.249 4.06904C377.295 4.06904 376.503 4.62704 375.873 5.74304C375.261 6.85904 374.955 8.76704 374.955 11.467C374.955 14.167 375.261 16.075 375.873 17.191C376.503 18.307 377.475 18.865 378.789 18.865C380.121 18.865 381.237 18.451 382.137 17.623C383.055 16.795 383.622 15.625 383.838 14.113H384.378C384.126 15.895 383.496 17.227 382.488 18.109C381.498 18.973 380.31 19.405 378.924 19.405C376.242 19.405 374.181 18.766 372.741 17.488C371.319 16.192 370.608 14.176 370.608 11.44C370.608 8.68604 371.301 6.67904 372.687 5.41904C374.091 4.15904 375.945 3.52904 378.249 3.52904C379.491 3.52904 380.697 3.86204 381.867 4.52804C382.245 4.76204 382.551 4.87904 382.785 4.87904C383.037 4.87904 383.235 4.77104 383.379 4.55504C383.523 4.32104 383.595 4.09604 383.595 3.88004H384.108V9.90104Z" fill="#C386AE"/>
<path d="M390.576 17.38C390.972 18.28 391.656 18.73 392.628 18.73C393.6 18.73 394.293 18.271 394.707 17.353C395.121 16.435 395.328 14.923 395.328 12.817C395.328 10.693 395.121 9.17204 394.707 8.25404C394.293 7.31804 393.6 6.85004 392.628 6.85004C391.656 6.85004 390.972 7.31804 390.576 8.25404C390.18 9.17204 389.982 10.693 389.982 12.817C389.982 14.941 390.18 16.462 390.576 17.38ZM392.574 19.27C390.864 19.27 389.316 18.712 387.93 17.596C386.544 16.48 385.851 14.896 385.851 12.844C385.851 11.746 386.049 10.765 386.445 9.90104C386.859 9.03704 387.399 8.35304 388.065 7.84904C388.749 7.34504 389.478 6.96704 390.252 6.71504C391.026 6.44504 391.818 6.31004 392.628 6.31004C393.438 6.31004 394.23 6.44504 395.004 6.71504C395.796 6.96704 396.525 7.34504 397.191 7.84904C397.875 8.35304 398.424 9.03704 398.838 9.90104C399.252 10.765 399.459 11.737 399.459 12.817C399.459 13.897 399.252 14.86 398.838 15.706C398.424 16.552 397.875 17.227 397.191 17.731C395.823 18.757 394.284 19.27 392.574 19.27Z" fill="#C386AE"/>
<path d="M424.041 18.46H425.391V19H418.641V18.46H419.991V10.9C419.991 9.62204 419.802 8.71304 419.424 8.17304C419.046 7.63304 418.479 7.36304 417.723 7.36304C417.291 7.36304 416.841 7.48904 416.373 7.74104C415.905 7.99304 415.518 8.34404 415.212 8.79404C415.428 9.44204 415.536 10.342 415.536 11.494V18.46H416.886V19H409.866V18.46H411.486V10.9C411.486 9.62204 411.297 8.71304 410.919 8.17304C410.541 7.63304 409.974 7.36304 409.218 7.36304C408.192 7.36304 407.373 7.90304 406.761 8.98304V18.46H408.111V19H401.361V18.46H402.711V7.12004H401.361V6.58004H406.761V7.98404C407.103 7.51604 407.634 7.12004 408.354 6.79604C409.092 6.45404 409.884 6.28304 410.73 6.28304C412.872 6.28304 414.267 6.88604 414.915 8.09204C415.383 7.51604 416.004 7.07504 416.778 6.76904C417.552 6.44504 418.371 6.28304 419.235 6.28304C422.439 6.28304 424.041 8.02004 424.041 11.494V18.46Z" fill="#C386AE"/>
<path d="M449.96 18.46H451.31V19H444.56V18.46H445.91V10.9C445.91 9.62204 445.721 8.71304 445.343 8.17304C444.965 7.63304 444.398 7.36304 443.642 7.36304C443.21 7.36304 442.76 7.48904 442.292 7.74104C441.824 7.99304 441.437 8.34404 441.131 8.79404C441.347 9.44204 441.455 10.342 441.455 11.494V18.46H442.805V19H435.785V18.46H437.405V10.9C437.405 9.62204 437.216 8.71304 436.838 8.17304C436.46 7.63304 435.893 7.36304 435.137 7.36304C434.111 7.36304 433.292 7.90304 432.68 8.98304V18.46H434.03V19H427.28V18.46H428.63V7.12004H427.28V6.58004H432.68V7.98404C433.022 7.51604 433.553 7.12004 434.273 6.79604C435.011 6.45404 435.803 6.28304 436.649 6.28304C438.791 6.28304 440.186 6.88604 440.834 8.09204C441.302 7.51604 441.923 7.07504 442.697 6.76904C443.471 6.44504 444.29 6.28304 445.154 6.28304C448.358 6.28304 449.96 8.02004 449.96 11.494V18.46Z" fill="#C386AE"/>
<path d="M462.514 19V17.569C462.172 18.055 461.632 18.469 460.894 18.811C460.174 19.135 459.391 19.297 458.545 19.297C455.341 19.297 453.739 17.56 453.739 14.086V7.12004H452.389V6.58004H457.789V14.68C457.789 15.958 457.978 16.867 458.356 17.407C458.734 17.947 459.301 18.217 460.057 18.217C461.065 18.217 461.884 17.677 462.514 16.597V7.12004H461.164V6.58004H466.564V18.46H467.914V19H462.514Z" fill="#C386AE"/>
<path d="M483.985 18.46H485.335V19H478.585V18.46H479.935V10.9C479.935 9.62204 479.746 8.71304 479.368 8.17304C478.99 7.63304 478.423 7.36304 477.667 7.36304C476.641 7.36304 475.822 7.90304 475.21 8.98304V18.46H476.56V19H469.81V18.46H471.16V7.12004H469.81V6.58004H475.21V7.98404C475.552 7.51604 476.083 7.12004 476.803 6.79604C477.541 6.45404 478.333 6.28304 479.179 6.28304C482.383 6.28304 483.985 8.02004 483.985 11.494V18.46Z" fill="#C386AE"/>
<path d="M492.613 18.46H493.963V19H487.213V18.46H488.563V7.12004H487.483V6.58004H492.613V18.46ZM492.856 3.01604C492.856 3.66404 492.622 4.22204 492.154 4.69004C491.704 5.14004 491.146 5.36504 490.48 5.36504C489.832 5.36504 489.274 5.14004 488.806 4.69004C488.338 4.22204 488.104 3.66404 488.104 3.01604C488.104 2.35004 488.338 1.78304 488.806 1.31504C489.274 0.847037 489.832 0.613037 490.48 0.613037C491.146 0.613037 491.704 0.847037 492.154 1.31504C492.622 1.78304 492.856 2.35004 492.856 3.01604Z" fill="#C386AE"/>
<path d="M500.829 7.12004V13.708C500.829 15.256 500.892 16.201 501.018 16.543C501.144 16.867 501.279 17.146 501.423 17.38C501.693 17.848 502.161 18.082 502.827 18.082C503.511 18.082 503.988 17.992 504.258 17.812V18.352C503.394 18.964 502.449 19.27 501.423 19.27C499.911 19.27 498.759 18.91 497.967 18.19C497.175 17.47 496.779 16.183 496.779 14.329V7.12004H494.781V6.58004H496.779C497.643 6.43604 498.408 6.02204 499.074 5.33804C499.74 4.63604 500.199 3.67304 500.451 2.44904H500.829V6.58004H503.961V7.12004H500.829Z" fill="#C386AE"/>
<path d="M511.341 21.997C510.855 23.041 510.342 23.788 509.802 24.238C509.262 24.706 508.542 24.94 507.642 24.94C506.742 24.94 506.04 24.742 505.536 24.346C505.032 23.968 504.78 23.455 504.78 22.807C504.78 22.177 504.96 21.673 505.32 21.295C505.698 20.917 506.148 20.728 506.67 20.728C507.192 20.728 507.633 20.827 507.993 21.025C508.353 21.223 508.605 21.439 508.749 21.673C509.145 22.303 509.514 22.618 509.856 22.618C510.216 22.618 510.531 22.312 510.801 21.7L511.935 19.027L505.617 7.12004H504.537V6.58004H511.8V7.12004H510.45L514.068 14.248L517.173 7.12004H515.013V6.58004H519.441V7.12004H517.821L511.341 21.997Z" fill="#C386AE"/>
<path d="M42.3164 71.3201V101.312C47.3457 101.312 50.7804 100.239 52.6204 98.0921C54.4604 95.8841 55.3804 92.0507 55.3804 86.5921C55.3804 81.1334 54.4604 77.2387 52.6204 74.9081C50.7804 72.5161 47.3457 71.3201 42.3164 71.3201ZM46.9164 119.16V121H23.9164V119.16H28.5164V71.3201H23.9164V69.4801H42.2244C60.2564 68.6214 69.2724 74.4174 69.2724 86.8681C69.2724 92.3881 67.0031 96.5894 62.4644 99.4721C57.9257 102.355 51.2097 103.581 42.3164 103.152V119.16H46.9164Z" fill="#74448A"/>
<path d="M95.2602 131.212C93.6042 134.769 91.8562 137.315 90.0162 138.848C88.1762 140.443 85.7229 141.24 82.6562 141.24C79.5896 141.24 77.1976 140.565 75.4802 139.216C73.7629 137.928 72.9042 136.18 72.9042 133.972C72.9042 131.825 73.5176 130.108 74.7442 128.82C76.0322 127.532 77.5656 126.888 79.3442 126.888C81.1229 126.888 82.6256 127.225 83.8522 127.9C85.0789 128.575 85.9376 129.311 86.4282 130.108C87.7776 132.255 89.0349 133.328 90.2002 133.328C91.4269 133.328 92.5002 132.285 93.4202 130.2L97.2842 121.092L75.7562 80.5201H72.0762V78.6801H96.8242V80.5201H92.2242L104.552 104.808L115.132 80.5201H107.772V78.6801H122.86V80.5201H117.34L95.2602 131.212Z" fill="#74448A"/>
<path d="M172.036 89.9961H170.196C170.196 85.0894 168.632 80.5507 165.504 76.3801C162.376 72.2094 157.899 70.1241 152.072 70.1241C148.822 70.1241 146.123 72.0254 143.976 75.8281C141.891 79.6307 140.848 86.1321 140.848 95.3321C140.848 104.532 141.891 111.033 143.976 114.836C146.123 118.639 149.435 120.54 153.912 120.54C158.451 120.54 162.254 119.129 165.32 116.308C168.448 113.487 170.38 109.5 171.116 104.348H172.956C172.098 110.42 169.951 114.959 166.516 117.964C163.143 120.908 159.095 122.38 154.372 122.38C145.234 122.38 138.211 120.203 133.304 115.848C128.459 111.432 126.036 104.563 126.036 95.2401C126.036 85.8561 128.398 79.0174 133.12 74.7241C137.904 70.4307 144.222 68.2841 152.072 68.2841C156.304 68.2841 160.414 69.4187 164.4 71.6881C165.688 72.4854 166.731 72.8841 167.528 72.8841C168.387 72.8841 169.062 72.5161 169.552 71.7801C170.043 70.9827 170.288 70.2161 170.288 69.4801H172.036V89.9961Z" fill="#74448A"/>
<path d="M194.077 115.48C195.426 118.547 197.757 120.08 201.069 120.08C204.381 120.08 206.742 118.516 208.153 115.388C209.564 112.26 210.269 107.108 210.269 99.9321C210.269 92.6947 209.564 87.5121 208.153 84.3841C206.742 81.1947 204.381 79.6001 201.069 79.6001C197.757 79.6001 195.426 81.1947 194.077 84.3841C192.728 87.5121 192.053 92.6947 192.053 99.9321C192.053 107.169 192.728 112.352 194.077 115.48ZM200.885 121.92C195.058 121.92 189.784 120.019 185.061 116.216C180.338 112.413 177.977 107.016 177.977 100.024C177.977 96.2827 178.652 92.9401 180.001 89.9961C181.412 87.0521 183.252 84.7214 185.521 83.0041C187.852 81.2867 190.336 79.9987 192.973 79.1401C195.61 78.2201 198.309 77.7601 201.069 77.7601C203.829 77.7601 206.528 78.2201 209.165 79.1401C211.864 79.9987 214.348 81.2867 216.617 83.0041C218.948 84.7214 220.818 87.0521 222.229 89.9961C223.64 92.9401 224.345 96.2521 224.345 99.9321C224.345 103.612 223.64 106.893 222.229 109.776C220.818 112.659 218.948 114.959 216.617 116.676C211.956 120.172 206.712 121.92 200.885 121.92Z" fill="#74448A"/>
<path d="M279.127 119.16H283.727V121H260.727V119.16H265.327V93.4001C265.327 89.0454 264.683 85.9481 263.395 84.1081C262.107 82.2681 260.175 81.3481 257.599 81.3481C254.103 81.3481 251.312 83.1881 249.227 86.8681V119.16H253.827V121H230.827V119.16H235.427V80.5201H230.827V78.6801H249.227V83.4641C250.392 81.8694 252.201 80.5201 254.655 79.4161C257.169 78.2507 259.868 77.6681 262.751 77.6681C273.668 77.6681 279.127 83.5867 279.127 95.4241V119.16Z" fill="#74448A"/>
<path d="M364.445 119.16V121H340.249V119.16H345.677L339.513 106.372H320.929L315.593 119.16H322.861V121H307.129V119.16H313.293L334.361 68.5601H336.661L360.029 119.16H364.445ZM321.757 104.44H338.593L329.577 85.6721L321.757 104.44Z" fill="#74448A"/>
<path d="M387.406 71.3201V101.312C392.436 101.312 395.87 100.239 397.71 98.0921C399.55 95.8841 400.47 92.0507 400.47 86.5921C400.47 81.1334 399.55 77.2387 397.71 74.9081C395.87 72.5161 392.436 71.3201 387.406 71.3201ZM392.006 119.16V121H369.006V119.16H373.606V71.3201H369.006V69.4801H387.314C405.346 68.6214 414.362 74.4174 414.362 86.8681C414.362 92.3881 412.093 96.5894 407.554 99.4721C403.016 102.355 396.3 103.581 387.406 103.152V119.16H392.006Z" fill="#74448A"/>
<path d="M475.402 119.16V121H451.206V119.16H456.634L450.47 106.372H431.886L426.55 119.16H433.818V121H418.086V119.16H424.25L445.318 68.5601H447.618L470.986 119.16H475.402ZM432.714 104.44H449.55L440.534 85.6721L432.714 104.44Z" fill="#74448A"/>
<path d="M524.583 89.9961H522.743C522.743 85.0894 521.179 80.5507 518.051 76.3801C514.923 72.2094 510.446 70.1241 504.619 70.1241C501.369 70.1241 498.67 72.0254 496.523 75.8281C494.438 79.6307 493.395 86.1321 493.395 95.3321C493.395 104.532 494.438 111.033 496.523 114.836C498.67 118.639 501.982 120.54 506.459 120.54C510.998 120.54 514.801 119.129 517.867 116.308C520.995 113.487 522.927 109.5 523.663 104.348H525.503C524.645 110.42 522.498 114.959 519.063 117.964C515.69 120.908 511.642 122.38 506.919 122.38C497.781 122.38 490.758 120.203 485.851 115.848C481.006 111.432 478.583 104.563 478.583 95.2401C478.583 85.8561 480.945 79.0174 485.667 74.7241C490.451 70.4307 496.769 68.2841 504.619 68.2841C508.851 68.2841 512.961 69.4187 516.947 71.6881C518.235 72.4854 519.278 72.8841 520.075 72.8841C520.934 72.8841 521.609 72.5161 522.099 71.7801C522.59 70.9827 522.835 70.2161 522.835 69.4801H524.583V89.9961Z" fill="#74448A"/>
<g filter="url(#filter0_d_1016_10830)">
<path d="M39.3164 67.3201V97.3121C44.3457 97.3121 47.7804 96.2387 49.6204 94.0921C51.4604 91.8841 52.3804 88.0507 52.3804 82.5921C52.3804 77.1334 51.4604 73.2387 49.6204 70.9081C47.7804 68.5161 44.3457 67.3201 39.3164 67.3201ZM43.9164 115.16V117H20.9164V115.16H25.5164V67.3201H20.9164V65.4801H39.2244C57.2564 64.6214 66.2724 70.4174 66.2724 82.8681C66.2724 88.3881 64.0031 92.5894 59.4644 95.4721C54.9257 98.3547 48.2097 99.5814 39.3164 99.1521V115.16H43.9164Z" fill="white"/>
<path d="M92.2602 127.212C90.6042 130.769 88.8562 133.315 87.0162 134.848C85.1762 136.443 82.7229 137.24 79.6562 137.24C76.5896 137.24 74.1976 136.565 72.4802 135.216C70.7629 133.928 69.9042 132.18 69.9042 129.972C69.9042 127.825 70.5176 126.108 71.7442 124.82C73.0322 123.532 74.5656 122.888 76.3442 122.888C78.1229 122.888 79.6256 123.225 80.8522 123.9C82.0789 124.575 82.9376 125.311 83.4282 126.108C84.7776 128.255 86.0349 129.328 87.2002 129.328C88.4269 129.328 89.5002 128.285 90.4202 126.2L94.2842 117.092L72.7562 76.5201H69.0762V74.6801H93.8242V76.5201H89.2242L101.552 100.808L112.132 76.5201H104.772V74.6801H119.86V76.5201H114.34L92.2602 127.212Z" fill="white"/>
<path d="M169.036 85.9961H167.196C167.196 81.0894 165.632 76.5507 162.504 72.3801C159.376 68.2094 154.899 66.1241 149.072 66.1241C145.822 66.1241 143.123 68.0254 140.976 71.8281C138.891 75.6307 137.848 82.1321 137.848 91.3321C137.848 100.532 138.891 107.033 140.976 110.836C143.123 114.639 146.435 116.54 150.912 116.54C155.451 116.54 159.254 115.129 162.32 112.308C165.448 109.487 167.38 105.5 168.116 100.348H169.956C169.098 106.42 166.951 110.959 163.516 113.964C160.143 116.908 156.095 118.38 151.372 118.38C142.234 118.38 135.211 116.203 130.304 111.848C125.459 107.432 123.036 100.563 123.036 91.2401C123.036 81.8561 125.398 75.0174 130.12 70.7241C134.904 66.4307 141.222 64.2841 149.072 64.2841C153.304 64.2841 157.414 65.4187 161.4 67.6881C162.688 68.4854 163.731 68.8841 164.528 68.8841C165.387 68.8841 166.062 68.5161 166.552 67.7801C167.043 66.9827 167.288 66.2161 167.288 65.4801H169.036V85.9961Z" fill="white"/>
<path d="M191.077 111.48C192.426 114.547 194.757 116.08 198.069 116.08C201.381 116.08 203.742 114.516 205.153 111.388C206.564 108.26 207.269 103.108 207.269 95.9321C207.269 88.6947 206.564 83.5121 205.153 80.3841C203.742 77.1947 201.381 75.6001 198.069 75.6001C194.757 75.6001 192.426 77.1947 191.077 80.3841C189.728 83.5121 189.053 88.6947 189.053 95.9321C189.053 103.169 189.728 108.352 191.077 111.48ZM197.885 117.92C192.058 117.92 186.784 116.019 182.061 112.216C177.338 108.413 174.977 103.016 174.977 96.0241C174.977 92.2827 175.652 88.9401 177.001 85.9961C178.412 83.0521 180.252 80.7214 182.521 79.0041C184.852 77.2867 187.336 75.9987 189.973 75.1401C192.61 74.2201 195.309 73.7601 198.069 73.7601C200.829 73.7601 203.528 74.2201 206.165 75.1401C208.864 75.9987 211.348 77.2867 213.617 79.0041C215.948 80.7214 217.818 83.0521 219.229 85.9961C220.64 88.9401 221.345 92.2521 221.345 95.9321C221.345 99.6121 220.64 102.893 219.229 105.776C217.818 108.659 215.948 110.959 213.617 112.676C208.956 116.172 203.712 117.92 197.885 117.92Z" fill="white"/>
<path d="M276.127 115.16H280.727V117H257.727V115.16H262.327V89.4001C262.327 85.0454 261.683 81.9481 260.395 80.1081C259.107 78.2681 257.175 77.3481 254.599 77.3481C251.103 77.3481 248.312 79.1881 246.227 82.8681V115.16H250.827V117H227.827V115.16H232.427V76.5201H227.827V74.6801H246.227V79.4641C247.392 77.8694 249.201 76.5201 251.655 75.4161C254.169 74.2507 256.868 73.6681 259.751 73.6681C270.668 73.6681 276.127 79.5867 276.127 91.4241V115.16Z" fill="white"/>
<path d="M361.445 115.16V117H337.249V115.16H342.677L336.513 102.372H317.929L312.593 115.16H319.861V117H304.129V115.16H310.293L331.361 64.5601H333.661L357.029 115.16H361.445ZM318.757 100.44H335.593L326.577 81.6721L318.757 100.44Z" fill="white"/>
<path d="M384.406 67.3201V97.3121C389.436 97.3121 392.87 96.2387 394.71 94.0921C396.55 91.8841 397.47 88.0507 397.47 82.5921C397.47 77.1334 396.55 73.2387 394.71 70.9081C392.87 68.5161 389.436 67.3201 384.406 67.3201ZM389.006 115.16V117H366.006V115.16H370.606V67.3201H366.006V65.4801H384.314C402.346 64.6214 411.362 70.4174 411.362 82.8681C411.362 88.3881 409.093 92.5894 404.554 95.4721C400.016 98.3547 393.3 99.5814 384.406 99.1521V115.16H389.006Z" fill="white"/>
<path d="M472.402 115.16V117H448.206V115.16H453.634L447.47 102.372H428.886L423.55 115.16H430.818V117H415.086V115.16H421.25L442.318 64.5601H444.618L467.986 115.16H472.402ZM429.714 100.44H446.55L437.534 81.6721L429.714 100.44Z" fill="white"/>
<path d="M521.583 85.9961H519.743C519.743 81.0894 518.179 76.5507 515.051 72.3801C511.923 68.2094 507.446 66.1241 501.619 66.1241C498.369 66.1241 495.67 68.0254 493.523 71.8281C491.438 75.6307 490.395 82.1321 490.395 91.3321C490.395 100.532 491.438 107.033 493.523 110.836C495.67 114.639 498.982 116.54 503.459 116.54C507.998 116.54 511.801 115.129 514.867 112.308C517.995 109.487 519.927 105.5 520.663 100.348H522.503C521.645 106.42 519.498 110.959 516.063 113.964C512.69 116.908 508.642 118.38 503.919 118.38C494.781 118.38 487.758 116.203 482.851 111.848C478.006 107.432 475.583 100.563 475.583 91.2401C475.583 81.8561 477.945 75.0174 482.667 70.7241C487.451 66.4307 493.769 64.2841 501.619 64.2841C505.851 64.2841 509.961 65.4187 513.947 67.6881C515.235 68.4854 516.278 68.8841 517.075 68.8841C517.934 68.8841 518.609 68.5161 519.099 67.7801C519.59 66.9827 519.835 66.2161 519.835 65.4801H521.583V85.9961Z" fill="white"/>
</g>
<g filter="url(#filter1_d_1016_10830)">
<path d="M43.2304 173.4C43.2304 171.027 42.8304 169.44 42.0304 168.64C41.257 167.813 39.7904 167.4 37.6304 167.4H36.4304V188.2H39.2304V189H27.6304V188.2H30.4304V167.4H29.2304C27.097 167.4 25.6304 167.813 24.8304 168.64C24.057 169.44 23.6704 171.027 23.6704 173.4H22.8704V166.6H44.0304V173.4H43.2304Z" fill="#74448A"/>
<path d="M65.8438 188.2C65.5771 188.467 65.0705 188.707 64.3238 188.92C63.5771 189.107 62.7105 189.2 61.7238 189.2C59.5371 189.2 58.1638 188.547 57.6038 187.24C56.2705 188.627 54.2305 189.32 51.4838 189.32C50.0171 189.32 48.8038 188.987 47.8438 188.32C46.9105 187.627 46.4438 186.613 46.4438 185.28C46.4438 183.493 47.1371 182.12 48.5238 181.16C49.9105 180.173 52.3371 179.48 55.8038 179.08L57.4038 178.88V176.92C57.4038 174.6 57.2305 173.04 56.8838 172.24C56.5371 171.44 55.8438 171.04 54.8038 171.04C53.7905 171.04 53.1371 171.187 52.8438 171.48C52.5505 171.747 52.4438 172.067 52.5238 172.44C52.6038 172.787 52.7371 173.253 52.9238 173.84C53.1105 174.427 53.2038 174.893 53.2038 175.24C53.2038 176.067 52.9105 176.773 52.3238 177.36C51.7638 177.92 51.0705 178.2 50.2438 178.2C49.4438 178.2 48.7505 177.92 48.1638 177.36C47.5771 176.773 47.2838 176.067 47.2838 175.24C47.2838 173.88 47.9771 172.72 49.3638 171.76C50.7771 170.773 52.8705 170.28 55.6438 170.28C58.4438 170.28 60.4305 170.827 61.6038 171.92C62.8038 173.013 63.4038 174.947 63.4038 177.72V184.92C63.4038 186.333 63.5771 187.227 63.9238 187.6C64.2705 187.947 64.9105 188.013 65.8438 187.8V188.2ZM52.0038 184.48C52.1371 185.493 52.5105 186.28 53.1238 186.84C53.7371 187.373 54.4438 187.64 55.2438 187.64C56.0705 187.64 56.7905 187.24 57.4038 186.44V179.64L55.9638 179.84C54.7371 180 53.7371 180.467 52.9638 181.24C52.2171 182.013 51.8971 183.093 52.0038 184.48Z" fill="#74448A"/>
<path d="M76.2407 188.2H78.2407V189H68.2407V188.2H70.2407V171.4H68.6407V170.6H76.2407V188.2ZM76.6007 165.32C76.6007 166.28 76.254 167.107 75.5607 167.8C74.894 168.467 74.0673 168.8 73.0807 168.8C72.1207 168.8 71.294 168.467 70.6007 167.8C69.9073 167.107 69.5607 166.28 69.5607 165.32C69.5607 164.333 69.9073 163.493 70.6007 162.8C71.294 162.107 72.1207 161.76 73.0807 161.76C74.0673 161.76 74.894 162.107 75.5607 162.8C76.254 163.493 76.6007 164.333 76.6007 165.32Z" fill="#74448A"/>
<path d="M79.8532 171.4V170.6H90.6532V171.4H88.5332L92.8532 181.08L95.4532 174.56L94.1332 171.4H92.6532V170.6H102.653V171.4H100.893L105.213 181.08L108.933 171.4H105.733V170.6H112.253V171.4H109.853L103.093 189H102.253L95.9332 175.76L90.6932 189H89.8532L81.7332 171.4H79.8532Z" fill="#74448A"/>
<path d="M133.656 188.2C133.39 188.467 132.883 188.707 132.136 188.92C131.39 189.107 130.523 189.2 129.536 189.2C127.35 189.2 125.976 188.547 125.416 187.24C124.083 188.627 122.043 189.32 119.296 189.32C117.83 189.32 116.616 188.987 115.656 188.32C114.723 187.627 114.256 186.613 114.256 185.28C114.256 183.493 114.95 182.12 116.336 181.16C117.723 180.173 120.15 179.48 123.616 179.08L125.216 178.88V176.92C125.216 174.6 125.043 173.04 124.696 172.24C124.35 171.44 123.656 171.04 122.616 171.04C121.603 171.04 120.95 171.187 120.656 171.48C120.363 171.747 120.256 172.067 120.336 172.44C120.416 172.787 120.55 173.253 120.736 173.84C120.923 174.427 121.016 174.893 121.016 175.24C121.016 176.067 120.723 176.773 120.136 177.36C119.576 177.92 118.883 178.2 118.056 178.2C117.256 178.2 116.563 177.92 115.976 177.36C115.39 176.773 115.096 176.067 115.096 175.24C115.096 173.88 115.79 172.72 117.176 171.76C118.59 170.773 120.683 170.28 123.456 170.28C126.256 170.28 128.243 170.827 129.416 171.92C130.616 173.013 131.216 174.947 131.216 177.72V184.92C131.216 186.333 131.39 187.227 131.736 187.6C132.083 187.947 132.723 188.013 133.656 187.8V188.2ZM119.816 184.48C119.95 185.493 120.323 186.28 120.936 186.84C121.55 187.373 122.256 187.64 123.056 187.64C123.883 187.64 124.603 187.24 125.216 186.44V179.64L123.776 179.84C122.55 180 121.55 180.467 120.776 181.24C120.03 182.013 119.71 183.093 119.816 184.48Z" fill="#74448A"/>
<path d="M157.053 188.2H159.053V189H149.053V188.2H151.053V177C151.053 175.107 150.773 173.76 150.213 172.96C149.653 172.16 148.813 171.76 147.693 171.76C146.173 171.76 144.96 172.56 144.053 174.16V188.2H146.053V189H136.053V188.2H138.053V171.4H136.053V170.6H144.053V172.68C144.56 171.987 145.347 171.4 146.413 170.92C147.507 170.413 148.68 170.16 149.933 170.16C154.68 170.16 157.053 172.733 157.053 177.88V188.2Z" fill="#74448A"/>
<path d="M172.028 189H171.228V179.68H172.028C172.028 182.187 172.922 184.32 174.708 186.08C176.522 187.84 178.721 188.72 181.308 188.72C182.375 188.72 183.228 188.413 183.868 187.8C184.535 187.16 184.868 186.32 184.868 185.28C184.868 184.107 184.108 183.107 182.588 182.28C181.762 181.853 180.335 181.187 178.308 180.28C176.282 179.347 174.855 178.56 174.028 177.92C172.375 176.64 171.642 174.947 171.828 172.84C172.042 170.733 172.842 169.107 174.228 167.96C175.615 166.787 177.175 166.2 178.908 166.2C180.668 166.2 182.242 166.44 183.628 166.92C185.042 167.373 185.842 167.6 186.028 167.6C186.562 167.6 186.828 167.133 186.828 166.2H187.628V173.52H186.828C186.828 171.6 186.122 170.04 184.708 168.84C183.295 167.613 181.482 167 179.268 167C178.282 167 177.508 167.293 176.948 167.88C176.388 168.44 176.108 169.067 176.108 169.76C176.108 170.453 176.202 170.987 176.388 171.36C176.575 171.733 176.895 172.08 177.348 172.4C177.828 172.693 178.242 172.933 178.588 173.12C178.935 173.307 179.482 173.56 180.228 173.88C181.002 174.2 181.535 174.427 181.828 174.56C183.295 175.227 184.162 175.627 184.428 175.76C184.695 175.867 185.082 176.053 185.588 176.32C186.095 176.587 186.468 176.827 186.708 177.04C186.975 177.253 187.308 177.52 187.708 177.84C188.108 178.16 188.402 178.493 188.588 178.84C188.775 179.16 188.962 179.533 189.148 179.96C189.522 180.813 189.655 181.813 189.548 182.96C189.335 185.12 188.522 186.773 187.108 187.92C185.722 189.04 183.842 189.6 181.468 189.6C179.335 189.6 177.215 189.053 175.108 187.96C174.388 187.587 173.855 187.4 173.508 187.4C172.522 187.4 172.028 187.933 172.028 189Z" fill="#74448A"/>
<path d="M210.413 181H198.333C198.6 185.693 200.426 188.04 203.813 188.04C204.72 188.04 205.746 187.827 206.893 187.4C208.066 186.973 208.92 186.373 209.453 185.6L210.013 186C209.426 186.987 208.426 187.8 207.013 188.44C205.6 189.08 204.186 189.4 202.773 189.4C201.386 189.4 200.133 189.267 199.013 189C197.893 188.707 196.8 188.227 195.733 187.56C194.666 186.893 193.826 185.893 193.213 184.56C192.626 183.227 192.333 181.613 192.333 179.72C192.333 176.493 193.226 174.107 195.013 172.56C196.8 170.987 198.96 170.2 201.493 170.2C204.053 170.2 206.173 171.053 207.853 172.76C209.56 174.467 210.413 177.213 210.413 181ZM198.293 180.2H204.813C204.813 177.747 204.546 175.6 204.013 173.76C203.506 171.92 202.68 171 201.533 171C200.386 171 199.56 171.893 199.053 173.68C198.546 175.44 198.293 177.467 198.293 179.76V180.2Z" fill="#74448A"/>
<path d="M220.519 179.36V185.96C221.239 187.4 222.172 188.12 223.319 188.12C224.492 188.12 225.492 187.453 226.319 186.12C227.145 184.787 227.559 182.653 227.559 179.72C227.559 176.76 227.239 174.693 226.599 173.52C225.959 172.32 224.985 171.72 223.679 171.72C222.372 171.72 221.519 172.253 221.119 173.32C220.719 174.387 220.519 176.4 220.519 179.36ZM220.519 172.44C221.425 170.893 223.052 170.12 225.399 170.12C227.745 170.12 229.705 170.973 231.279 172.68C232.852 174.387 233.639 176.8 233.639 179.92C233.639 183.04 232.865 185.48 231.319 187.24C229.772 189 227.892 189.88 225.679 189.88C224.585 189.88 223.559 189.653 222.599 189.2C221.639 188.747 220.945 188.067 220.519 187.16V196.6H222.519V197.4H214.519V171.4H212.519V170.6H220.519V172.44Z" fill="#74448A"/>
<path d="M243.804 171.4V181.16C243.804 183.453 243.897 184.853 244.084 185.36C244.27 185.84 244.47 186.253 244.684 186.6C245.084 187.293 245.777 187.64 246.764 187.64C247.777 187.64 248.484 187.507 248.884 187.24V188.04C247.604 188.947 246.204 189.4 244.684 189.4C242.444 189.4 240.737 188.867 239.564 187.8C238.39 186.733 237.804 184.827 237.804 182.08V171.4H234.844V170.6H237.804C239.084 170.387 240.217 169.773 241.204 168.76C242.19 167.72 242.87 166.293 243.244 164.48H243.804V170.6H248.444V171.4H243.804Z" fill="#74448A"/>
<path d="M268.577 181H256.497C256.764 185.693 258.59 188.04 261.977 188.04C262.884 188.04 263.91 187.827 265.057 187.4C266.23 186.973 267.084 186.373 267.617 185.6L268.177 186C267.59 186.987 266.59 187.8 265.177 188.44C263.764 189.08 262.35 189.4 260.937 189.4C259.55 189.4 258.297 189.267 257.177 189C256.057 188.707 254.964 188.227 253.897 187.56C252.83 186.893 251.99 185.893 251.377 184.56C250.79 183.227 250.497 181.613 250.497 179.72C250.497 176.493 251.39 174.107 253.177 172.56C254.964 170.987 257.124 170.2 259.657 170.2C262.217 170.2 264.337 171.053 266.017 172.76C267.724 174.467 268.577 177.213 268.577 181ZM256.457 180.2H262.977C262.977 177.747 262.71 175.6 262.177 173.76C261.67 171.92 260.844 171 259.697 171C258.55 171 257.724 171.893 257.217 173.68C256.71 175.44 256.457 177.467 256.457 179.76V180.2Z" fill="#74448A"/>
<path d="M305.083 188.2H307.083V189H297.083V188.2H299.083V177C299.083 175.107 298.803 173.76 298.243 172.96C297.683 172.16 296.843 171.76 295.723 171.76C295.083 171.76 294.416 171.947 293.723 172.32C293.03 172.693 292.456 173.213 292.003 173.88C292.323 174.84 292.483 176.173 292.483 177.88V188.2H294.483V189H284.083V188.2H286.483V177C286.483 175.107 286.203 173.76 285.643 172.96C285.083 172.16 284.243 171.76 283.123 171.76C281.603 171.76 280.39 172.56 279.483 174.16V188.2H281.483V189H271.483V188.2H273.483V171.4H271.483V170.6H279.483V172.68C279.99 171.987 280.776 171.4 281.843 170.92C282.936 170.413 284.11 170.16 285.363 170.16C288.536 170.16 290.603 171.053 291.563 172.84C292.256 171.987 293.176 171.333 294.323 170.88C295.47 170.4 296.683 170.16 297.963 170.16C302.71 170.16 305.083 172.733 305.083 177.88V188.2Z" fill="#74448A"/>
<path d="M316.681 182.76C316.681 184.787 316.908 186.253 317.361 187.16C317.815 188.04 318.535 188.48 319.521 188.48C320.535 188.48 321.428 187.733 322.201 186.24C322.975 184.72 323.361 182.6 323.361 179.88C323.361 177.133 322.948 175.027 322.121 173.56C321.321 172.093 320.375 171.36 319.281 171.36C318.188 171.36 317.321 171.987 316.681 173.24V182.76ZM326.081 187.6C325.095 188.24 324.135 188.693 323.201 188.96C322.268 189.227 321.348 189.36 320.441 189.36C319.561 189.36 318.748 189.2 318.001 188.88C317.255 188.533 316.655 188.173 316.201 187.8C315.775 187.4 315.295 187.04 314.761 186.72C314.228 186.373 313.721 186.2 313.241 186.2C312.761 186.2 312.335 186.467 311.961 187C311.615 187.533 311.441 188.2 311.441 189H310.681V163H308.681V162.2H316.681V172.04C317.108 171.32 317.801 170.76 318.761 170.36C319.748 169.933 320.775 169.72 321.841 169.72C323.868 169.72 325.628 170.613 327.121 172.4C328.641 174.16 329.401 176.627 329.401 179.8C329.401 181.667 329.095 183.267 328.481 184.6C327.868 185.933 327.068 186.933 326.081 187.6Z" fill="#74448A"/>
<path d="M349.866 181H337.786C338.053 185.693 339.879 188.04 343.266 188.04C344.173 188.04 345.199 187.827 346.346 187.4C347.519 186.973 348.373 186.373 348.906 185.6L349.466 186C348.879 186.987 347.879 187.8 346.466 188.44C345.053 189.08 343.639 189.4 342.226 189.4C340.839 189.4 339.586 189.267 338.466 189C337.346 188.707 336.253 188.227 335.186 187.56C334.119 186.893 333.279 185.893 332.666 184.56C332.079 183.227 331.786 181.613 331.786 179.72C331.786 176.493 332.679 174.107 334.466 172.56C336.253 170.987 338.413 170.2 340.946 170.2C343.506 170.2 345.626 171.053 347.306 172.76C349.013 174.467 349.866 177.213 349.866 181ZM337.746 180.2H344.266C344.266 177.747 343.999 175.6 343.466 173.76C342.959 171.92 342.133 171 340.986 171C339.839 171 339.013 171.893 338.506 173.68C337.999 175.44 337.746 177.467 337.746 179.76V180.2Z" fill="#74448A"/>
<path d="M362.772 189H352.772V188.2H354.772V171.4H352.772V170.6H360.772V175.36C361.012 174.053 361.439 172.987 362.052 172.16C362.692 171.333 363.385 170.787 364.132 170.52C364.905 170.253 365.639 170.12 366.332 170.12C367.052 170.12 367.732 170.253 368.372 170.52C369.039 170.76 369.532 171.267 369.852 172.04C370.172 172.787 370.185 173.547 369.892 174.32C369.599 175.067 369.079 175.6 368.332 175.92C367.612 176.24 366.945 176.28 366.332 176.04C365.719 175.8 365.279 175.48 365.012 175.08C364.745 174.653 364.559 174.253 364.452 173.88C364.185 172.893 363.825 172.4 363.372 172.4C362.865 172.4 362.305 173.28 361.692 175.04C361.079 176.773 360.772 178.613 360.772 180.56V188.2H362.772V189Z" fill="#74448A"/>
<path d="M387.982 165.52C394.062 165.52 397.102 167.36 397.102 171.04C397.102 172.507 396.515 173.747 395.342 174.76C394.195 175.773 392.542 176.333 390.382 176.44C392.808 176.467 394.768 177.013 396.262 178.08C397.782 179.147 398.542 180.6 398.542 182.44C398.542 184.707 397.622 186.48 395.782 187.76C393.968 189.013 391.395 189.64 388.062 189.64C385.742 189.64 383.928 189.133 382.622 188.12C381.342 187.08 380.702 185.707 380.702 184C380.702 182.933 380.982 182.067 381.542 181.4C382.128 180.733 382.888 180.4 383.822 180.4C384.755 180.4 385.475 180.653 385.982 181.16C386.515 181.667 386.782 182.293 386.782 183.04C386.782 183.76 386.582 184.333 386.182 184.76C385.782 185.187 385.342 185.453 384.862 185.56C383.608 185.853 382.982 186.28 382.982 186.84C382.982 187.373 383.355 187.813 384.102 188.16C384.875 188.507 385.755 188.68 386.742 188.68C388.288 188.68 389.542 188.12 390.502 187C391.462 185.88 391.942 184.373 391.942 182.48C391.942 180.56 391.515 179.147 390.662 178.24C389.835 177.333 388.315 176.88 386.102 176.88H385.462V176.08H386.102C387.808 176.08 389.035 175.573 389.782 174.56C390.528 173.52 390.902 172.347 390.902 171.04C390.902 169.733 390.528 168.64 389.782 167.76C389.035 166.88 388.088 166.44 386.942 166.44C385.795 166.44 384.928 166.627 384.342 167C383.755 167.373 383.462 167.773 383.462 168.2C383.462 168.6 383.622 168.893 383.942 169.08C384.288 169.267 384.662 169.413 385.062 169.52C385.488 169.6 385.862 169.827 386.182 170.2C386.528 170.573 386.702 171.08 386.702 171.72C386.702 172.36 386.475 172.907 386.022 173.36C385.568 173.813 384.928 174.04 384.102 174.04C383.275 174.04 382.595 173.747 382.062 173.16C381.528 172.573 381.262 171.773 381.262 170.76C381.262 169.293 381.862 168.053 383.062 167.04C384.288 166.027 385.928 165.52 387.982 165.52Z" fill="#74448A"/>
<path d="M401.756 181.08V178.04H408.596V181.08H401.756Z" fill="#74448A"/>
<path d="M428.915 179.84H429.835V186H428.915V183.28H425.955V188.2H428.555V189H417.355V188.2H419.955V183.28H410.595V182.48L421.955 165.72H425.955V182.48H428.915V179.84ZM419.955 182.48V170.12L411.635 182.48H419.955Z" fill="#74448A"/>
<path d="M437.565 188.8L435.925 189.04C435.152 189.04 434.459 188.773 433.845 188.24C433.232 187.707 432.925 186.947 432.925 185.96C432.925 184.947 433.245 184.107 433.885 183.44C434.552 182.773 435.472 182.44 436.645 182.44C437.845 182.44 438.819 182.893 439.565 183.8C440.312 184.707 440.685 185.733 440.685 186.88C440.685 188.533 440.139 190.053 439.045 191.44C437.979 192.853 436.432 194.013 434.405 194.92L434.125 194.2C436.899 192.573 438.285 191 438.285 189.48C438.285 189.027 438.045 188.8 437.565 188.8Z" fill="#74448A"/>
<path d="M470.761 183.32C470.761 185 470.361 186.44 469.561 187.64C468.787 188.813 467.641 189.4 466.121 189.4C464.627 189.4 462.881 188.907 460.881 187.92C458.881 186.907 457.441 186.4 456.561 186.4C454.987 186.4 454.014 187.267 453.641 189H452.841C453.001 186.973 453.747 185.067 455.081 183.28C455.987 182.08 457.907 180.04 460.841 177.16C461.614 176.387 462.307 175.467 462.921 174.4C463.534 173.333 463.841 172.187 463.841 170.96C463.841 169.733 463.481 168.68 462.761 167.8C462.041 166.92 460.974 166.48 459.561 166.48C458.654 166.48 457.827 166.653 457.081 167C456.334 167.347 455.961 167.747 455.961 168.2C455.961 168.627 456.134 168.947 456.481 169.16C456.854 169.373 457.241 169.547 457.641 169.68C458.067 169.787 458.454 170.053 458.801 170.48C459.174 170.907 459.361 171.48 459.361 172.2C459.361 172.92 459.094 173.533 458.561 174.04C458.054 174.547 457.347 174.8 456.441 174.8C455.534 174.8 454.787 174.467 454.201 173.8C453.614 173.133 453.321 172.28 453.321 171.24C453.321 169.613 454.014 168.253 455.401 167.16C456.814 166.067 458.774 165.52 461.281 165.52C463.814 165.52 465.961 166.067 467.721 167.16C469.481 168.253 470.361 169.76 470.361 171.68C470.361 173.253 469.987 174.587 469.241 175.68C468.521 176.773 467.587 177.6 466.441 178.16C465.321 178.72 464.161 179.213 462.961 179.64C461.787 180.04 460.627 180.52 459.481 181.08C458.361 181.613 457.561 182.24 457.081 182.96C457.721 182.427 458.547 182.16 459.561 182.16C460.574 182.16 461.721 182.333 463.001 182.68C464.307 183.027 465.334 183.2 466.081 183.2C466.827 183.2 467.441 183.16 467.921 183.08C468.401 183 468.854 182.773 469.281 182.4C469.707 182.027 469.961 181.493 470.041 180.8H470.441C470.654 181.653 470.761 182.493 470.761 183.32Z" fill="#74448A"/>
<path d="M494.053 177.56C494.053 181.16 493.16 184.053 491.373 186.24C489.587 188.4 487.173 189.48 484.133 189.48C481.12 189.48 478.733 188.4 476.973 186.24C475.24 184.08 474.373 181.027 474.373 177.08C474.373 173.827 475.24 171.093 476.973 168.88C478.733 166.64 481.16 165.52 484.253 165.52C487.373 165.52 489.787 166.627 491.493 168.84C493.2 171.027 494.053 173.933 494.053 177.56ZM488.093 177.08C488.093 169.907 486.8 166.32 484.214 166.32C481.627 166.32 480.333 169.907 480.333 177.08C480.333 180.92 480.613 183.813 481.173 185.76C481.733 187.707 482.76 188.68 484.253 188.68C485.747 188.68 486.76 187.72 487.293 185.8C487.827 183.88 488.093 180.973 488.093 177.08Z" fill="#74448A"/>
<path d="M514.784 183.32C514.784 185 514.384 186.44 513.584 187.64C512.811 188.813 511.664 189.4 510.144 189.4C508.651 189.4 506.904 188.907 504.904 187.92C502.904 186.907 501.464 186.4 500.584 186.4C499.011 186.4 498.037 187.267 497.664 189H496.864C497.024 186.973 497.771 185.067 499.104 183.28C500.011 182.08 501.931 180.04 504.864 177.16C505.637 176.387 506.331 175.467 506.944 174.4C507.557 173.333 507.864 172.187 507.864 170.96C507.864 169.733 507.504 168.68 506.784 167.8C506.064 166.92 504.997 166.48 503.584 166.48C502.677 166.48 501.851 166.653 501.104 167C500.357 167.347 499.984 167.747 499.984 168.2C499.984 168.627 500.157 168.947 500.504 169.16C500.877 169.373 501.264 169.547 501.664 169.68C502.091 169.787 502.477 170.053 502.824 170.48C503.197 170.907 503.384 171.48 503.384 172.2C503.384 172.92 503.117 173.533 502.584 174.04C502.077 174.547 501.371 174.8 500.464 174.8C499.557 174.8 498.811 174.467 498.224 173.8C497.637 173.133 497.344 172.28 497.344 171.24C497.344 169.613 498.037 168.253 499.424 167.16C500.837 166.067 502.797 165.52 505.304 165.52C507.837 165.52 509.984 166.067 511.744 167.16C513.504 168.253 514.384 169.76 514.384 171.68C514.384 173.253 514.011 174.587 513.264 175.68C512.544 176.773 511.611 177.6 510.464 178.16C509.344 178.72 508.184 179.213 506.984 179.64C505.811 180.04 504.651 180.52 503.504 181.08C502.384 181.613 501.584 182.24 501.104 182.96C501.744 182.427 502.571 182.16 503.584 182.16C504.597 182.16 505.744 182.333 507.024 182.68C508.331 183.027 509.357 183.2 510.104 183.2C510.851 183.2 511.464 183.16 511.944 183.08C512.424 183 512.877 182.773 513.304 182.4C513.731 182.027 513.984 181.493 514.064 180.8H514.464C514.677 181.653 514.784 182.493 514.784 183.32Z" fill="#74448A"/>
<path d="M535.917 183.32C535.917 185 535.517 186.44 534.717 187.64C533.944 188.813 532.797 189.4 531.277 189.4C529.784 189.4 528.037 188.907 526.037 187.92C524.037 186.907 522.597 186.4 521.717 186.4C520.144 186.4 519.17 187.267 518.797 189H517.997C518.157 186.973 518.904 185.067 520.237 183.28C521.144 182.08 523.064 180.04 525.997 177.16C526.77 176.387 527.464 175.467 528.077 174.4C528.69 173.333 528.997 172.187 528.997 170.96C528.997 169.733 528.637 168.68 527.917 167.8C527.197 166.92 526.13 166.48 524.717 166.48C523.81 166.48 522.984 166.653 522.237 167C521.49 167.347 521.117 167.747 521.117 168.2C521.117 168.627 521.29 168.947 521.637 169.16C522.01 169.373 522.397 169.547 522.797 169.68C523.224 169.787 523.61 170.053 523.957 170.48C524.33 170.907 524.517 171.48 524.517 172.2C524.517 172.92 524.25 173.533 523.717 174.04C523.21 174.547 522.504 174.8 521.597 174.8C520.69 174.8 519.944 174.467 519.357 173.8C518.77 173.133 518.477 172.28 518.477 171.24C518.477 169.613 519.17 168.253 520.557 167.16C521.97 166.067 523.93 165.52 526.437 165.52C528.97 165.52 531.117 166.067 532.877 167.16C534.637 168.253 535.517 169.76 535.517 171.68C535.517 173.253 535.144 174.587 534.397 175.68C533.677 176.773 532.744 177.6 531.597 178.16C530.477 178.72 529.317 179.213 528.117 179.64C526.944 180.04 525.784 180.52 524.637 181.08C523.517 181.613 522.717 182.24 522.237 182.96C522.877 182.427 523.704 182.16 524.717 182.16C525.73 182.16 526.877 182.333 528.157 182.68C529.464 183.027 530.49 183.2 531.237 183.2C531.984 183.2 532.597 183.16 533.077 183.08C533.557 183 534.01 182.773 534.437 182.4C534.864 182.027 535.117 181.493 535.197 180.8H535.597C535.81 181.653 535.917 182.493 535.917 183.32Z" fill="#74448A"/>
<path d="M41.2304 171.4C41.2304 169.027 40.8304 167.44 40.0304 166.64C39.257 165.813 37.7904 165.4 35.6304 165.4H34.4304V186.2H37.2304V187H25.6304V186.2H28.4304V165.4H27.2304C25.097 165.4 23.6304 165.813 22.8304 166.64C22.057 167.44 21.6704 169.027 21.6704 171.4H20.8704V164.6H42.0304V171.4H41.2304Z" fill="white"/>
<path d="M63.8438 186.2C63.5771 186.467 63.0705 186.707 62.3238 186.92C61.5771 187.107 60.7105 187.2 59.7238 187.2C57.5371 187.2 56.1638 186.547 55.6038 185.24C54.2705 186.627 52.2305 187.32 49.4838 187.32C48.0171 187.32 46.8038 186.987 45.8438 186.32C44.9105 185.627 44.4438 184.613 44.4438 183.28C44.4438 181.493 45.1371 180.12 46.5238 179.16C47.9105 178.173 50.3371 177.48 53.8038 177.08L55.4038 176.88V174.92C55.4038 172.6 55.2305 171.04 54.8838 170.24C54.5371 169.44 53.8438 169.04 52.8038 169.04C51.7905 169.04 51.1371 169.187 50.8438 169.48C50.5505 169.747 50.4438 170.067 50.5238 170.44C50.6038 170.787 50.7371 171.253 50.9238 171.84C51.1105 172.427 51.2038 172.893 51.2038 173.24C51.2038 174.067 50.9105 174.773 50.3238 175.36C49.7638 175.92 49.0705 176.2 48.2438 176.2C47.4438 176.2 46.7505 175.92 46.1638 175.36C45.5771 174.773 45.2838 174.067 45.2838 173.24C45.2838 171.88 45.9771 170.72 47.3638 169.76C48.7771 168.773 50.8705 168.28 53.6438 168.28C56.4438 168.28 58.4305 168.827 59.6038 169.92C60.8038 171.013 61.4038 172.947 61.4038 175.72V182.92C61.4038 184.333 61.5771 185.227 61.9238 185.6C62.2705 185.947 62.9105 186.013 63.8438 185.8V186.2ZM50.0038 182.48C50.1371 183.493 50.5105 184.28 51.1238 184.84C51.7371 185.373 52.4438 185.64 53.2438 185.64C54.0705 185.64 54.7905 185.24 55.4038 184.44V177.64L53.9638 177.84C52.7371 178 51.7371 178.467 50.9638 179.24C50.2171 180.013 49.8971 181.093 50.0038 182.48Z" fill="white"/>
<path d="M74.2407 186.2H76.2407V187H66.2407V186.2H68.2407V169.4H66.6407V168.6H74.2407V186.2ZM74.6007 163.32C74.6007 164.28 74.254 165.107 73.5607 165.8C72.894 166.467 72.0673 166.8 71.0807 166.8C70.1207 166.8 69.294 166.467 68.6007 165.8C67.9073 165.107 67.5607 164.28 67.5607 163.32C67.5607 162.333 67.9073 161.493 68.6007 160.8C69.294 160.107 70.1207 159.76 71.0807 159.76C72.0673 159.76 72.894 160.107 73.5607 160.8C74.254 161.493 74.6007 162.333 74.6007 163.32Z" fill="white"/>
<path d="M77.8532 169.4V168.6H88.6532V169.4H86.5332L90.8532 179.08L93.4532 172.56L92.1332 169.4H90.6532V168.6H100.653V169.4H98.8932L103.213 179.08L106.933 169.4H103.733V168.6H110.253V169.4H107.853L101.093 187H100.253L93.9332 173.76L88.6932 187H87.8532L79.7332 169.4H77.8532Z" fill="white"/>
<path d="M131.656 186.2C131.39 186.467 130.883 186.707 130.136 186.92C129.39 187.107 128.523 187.2 127.536 187.2C125.35 187.2 123.976 186.547 123.416 185.24C122.083 186.627 120.043 187.32 117.296 187.32C115.83 187.32 114.616 186.987 113.656 186.32C112.723 185.627 112.256 184.613 112.256 183.28C112.256 181.493 112.95 180.12 114.336 179.16C115.723 178.173 118.15 177.48 121.616 177.08L123.216 176.88V174.92C123.216 172.6 123.043 171.04 122.696 170.24C122.35 169.44 121.656 169.04 120.616 169.04C119.603 169.04 118.95 169.187 118.656 169.48C118.363 169.747 118.256 170.067 118.336 170.44C118.416 170.787 118.55 171.253 118.736 171.84C118.923 172.427 119.016 172.893 119.016 173.24C119.016 174.067 118.723 174.773 118.136 175.36C117.576 175.92 116.883 176.2 116.056 176.2C115.256 176.2 114.563 175.92 113.976 175.36C113.39 174.773 113.096 174.067 113.096 173.24C113.096 171.88 113.79 170.72 115.176 169.76C116.59 168.773 118.683 168.28 121.456 168.28C124.256 168.28 126.243 168.827 127.416 169.92C128.616 171.013 129.216 172.947 129.216 175.72V182.92C129.216 184.333 129.39 185.227 129.736 185.6C130.083 185.947 130.723 186.013 131.656 185.8V186.2ZM117.816 182.48C117.95 183.493 118.323 184.28 118.936 184.84C119.55 185.373 120.256 185.64 121.056 185.64C121.883 185.64 122.603 185.24 123.216 184.44V177.64L121.776 177.84C120.55 178 119.55 178.467 118.776 179.24C118.03 180.013 117.71 181.093 117.816 182.48Z" fill="white"/>
<path d="M155.053 186.2H157.053V187H147.053V186.2H149.053V175C149.053 173.107 148.773 171.76 148.213 170.96C147.653 170.16 146.813 169.76 145.693 169.76C144.173 169.76 142.96 170.56 142.053 172.16V186.2H144.053V187H134.053V186.2H136.053V169.4H134.053V168.6H142.053V170.68C142.56 169.987 143.347 169.4 144.413 168.92C145.507 168.413 146.68 168.16 147.933 168.16C152.68 168.16 155.053 170.733 155.053 175.88V186.2Z" fill="white"/>
<path d="M170.028 187H169.228V177.68H170.028C170.028 180.187 170.922 182.32 172.708 184.08C174.522 185.84 176.721 186.72 179.308 186.72C180.375 186.72 181.228 186.413 181.868 185.8C182.535 185.16 182.868 184.32 182.868 183.28C182.868 182.107 182.108 181.107 180.588 180.28C179.762 179.853 178.335 179.187 176.308 178.28C174.282 177.347 172.855 176.56 172.028 175.92C170.375 174.64 169.642 172.947 169.828 170.84C170.042 168.733 170.842 167.107 172.228 165.96C173.615 164.787 175.175 164.2 176.908 164.2C178.668 164.2 180.242 164.44 181.628 164.92C183.042 165.373 183.842 165.6 184.028 165.6C184.562 165.6 184.828 165.133 184.828 164.2H185.628V171.52H184.828C184.828 169.6 184.122 168.04 182.708 166.84C181.295 165.613 179.482 165 177.268 165C176.282 165 175.508 165.293 174.948 165.88C174.388 166.44 174.108 167.067 174.108 167.76C174.108 168.453 174.202 168.987 174.388 169.36C174.575 169.733 174.895 170.08 175.348 170.4C175.828 170.693 176.242 170.933 176.588 171.12C176.935 171.307 177.482 171.56 178.228 171.88C179.002 172.2 179.535 172.427 179.828 172.56C181.295 173.227 182.162 173.627 182.428 173.76C182.695 173.867 183.082 174.053 183.588 174.32C184.095 174.587 184.468 174.827 184.708 175.04C184.975 175.253 185.308 175.52 185.708 175.84C186.108 176.16 186.402 176.493 186.588 176.84C186.775 177.16 186.962 177.533 187.148 177.96C187.522 178.813 187.655 179.813 187.548 180.96C187.335 183.12 186.522 184.773 185.108 185.92C183.722 187.04 181.842 187.6 179.468 187.6C177.335 187.6 175.215 187.053 173.108 185.96C172.388 185.587 171.855 185.4 171.508 185.4C170.522 185.4 170.028 185.933 170.028 187Z" fill="white"/>
<path d="M208.413 179H196.333C196.6 183.693 198.426 186.04 201.813 186.04C202.72 186.04 203.746 185.827 204.893 185.4C206.066 184.973 206.92 184.373 207.453 183.6L208.013 184C207.426 184.987 206.426 185.8 205.013 186.44C203.6 187.08 202.186 187.4 200.773 187.4C199.386 187.4 198.133 187.267 197.013 187C195.893 186.707 194.8 186.227 193.733 185.56C192.666 184.893 191.826 183.893 191.213 182.56C190.626 181.227 190.333 179.613 190.333 177.72C190.333 174.493 191.226 172.107 193.013 170.56C194.8 168.987 196.96 168.2 199.493 168.2C202.053 168.2 204.173 169.053 205.853 170.76C207.56 172.467 208.413 175.213 208.413 179ZM196.293 178.2H202.813C202.813 175.747 202.546 173.6 202.013 171.76C201.506 169.92 200.68 169 199.533 169C198.386 169 197.56 169.893 197.053 171.68C196.546 173.44 196.293 175.467 196.293 177.76V178.2Z" fill="white"/>
<path d="M218.519 177.36V183.96C219.239 185.4 220.172 186.12 221.319 186.12C222.492 186.12 223.492 185.453 224.319 184.12C225.145 182.787 225.559 180.653 225.559 177.72C225.559 174.76 225.239 172.693 224.599 171.52C223.959 170.32 222.985 169.72 221.679 169.72C220.372 169.72 219.519 170.253 219.119 171.32C218.719 172.387 218.519 174.4 218.519 177.36ZM218.519 170.44C219.425 168.893 221.052 168.12 223.399 168.12C225.745 168.12 227.705 168.973 229.279 170.68C230.852 172.387 231.639 174.8 231.639 177.92C231.639 181.04 230.865 183.48 229.319 185.24C227.772 187 225.892 187.88 223.679 187.88C222.585 187.88 221.559 187.653 220.599 187.2C219.639 186.747 218.945 186.067 218.519 185.16V194.6H220.519V195.4H212.519V169.4H210.519V168.6H218.519V170.44Z" fill="white"/>
<path d="M241.804 169.4V179.16C241.804 181.453 241.897 182.853 242.084 183.36C242.27 183.84 242.47 184.253 242.684 184.6C243.084 185.293 243.777 185.64 244.764 185.64C245.777 185.64 246.484 185.507 246.884 185.24V186.04C245.604 186.947 244.204 187.4 242.684 187.4C240.444 187.4 238.737 186.867 237.564 185.8C236.39 184.733 235.804 182.827 235.804 180.08V169.4H232.844V168.6H235.804C237.084 168.387 238.217 167.773 239.204 166.76C240.19 165.72 240.87 164.293 241.244 162.48H241.804V168.6H246.444V169.4H241.804Z" fill="white"/>
<path d="M266.577 179H254.497C254.764 183.693 256.59 186.04 259.977 186.04C260.884 186.04 261.91 185.827 263.057 185.4C264.23 184.973 265.084 184.373 265.617 183.6L266.177 184C265.59 184.987 264.59 185.8 263.177 186.44C261.764 187.08 260.35 187.4 258.937 187.4C257.55 187.4 256.297 187.267 255.177 187C254.057 186.707 252.964 186.227 251.897 185.56C250.83 184.893 249.99 183.893 249.377 182.56C248.79 181.227 248.497 179.613 248.497 177.72C248.497 174.493 249.39 172.107 251.177 170.56C252.964 168.987 255.124 168.2 257.657 168.2C260.217 168.2 262.337 169.053 264.017 170.76C265.724 172.467 266.577 175.213 266.577 179ZM254.457 178.2H260.977C260.977 175.747 260.71 173.6 260.177 171.76C259.67 169.92 258.844 169 257.697 169C256.55 169 255.724 169.893 255.217 171.68C254.71 173.44 254.457 175.467 254.457 177.76V178.2Z" fill="white"/>
<path d="M303.083 186.2H305.083V187H295.083V186.2H297.083V175C297.083 173.107 296.803 171.76 296.243 170.96C295.683 170.16 294.843 169.76 293.723 169.76C293.083 169.76 292.416 169.947 291.723 170.32C291.03 170.693 290.456 171.213 290.003 171.88C290.323 172.84 290.483 174.173 290.483 175.88V186.2H292.483V187H282.083V186.2H284.483V175C284.483 173.107 284.203 171.76 283.643 170.96C283.083 170.16 282.243 169.76 281.123 169.76C279.603 169.76 278.39 170.56 277.483 172.16V186.2H279.483V187H269.483V186.2H271.483V169.4H269.483V168.6H277.483V170.68C277.99 169.987 278.776 169.4 279.843 168.92C280.936 168.413 282.11 168.16 283.363 168.16C286.536 168.16 288.603 169.053 289.563 170.84C290.256 169.987 291.176 169.333 292.323 168.88C293.47 168.4 294.683 168.16 295.963 168.16C300.71 168.16 303.083 170.733 303.083 175.88V186.2Z" fill="white"/>
<path d="M314.681 180.76C314.681 182.787 314.908 184.253 315.361 185.16C315.815 186.04 316.535 186.48 317.521 186.48C318.535 186.48 319.428 185.733 320.201 184.24C320.975 182.72 321.361 180.6 321.361 177.88C321.361 175.133 320.948 173.027 320.121 171.56C319.321 170.093 318.375 169.36 317.281 169.36C316.188 169.36 315.321 169.987 314.681 171.24V180.76ZM324.081 185.6C323.095 186.24 322.135 186.693 321.201 186.96C320.268 187.227 319.348 187.36 318.441 187.36C317.561 187.36 316.748 187.2 316.001 186.88C315.255 186.533 314.655 186.173 314.201 185.8C313.775 185.4 313.295 185.04 312.761 184.72C312.228 184.373 311.721 184.2 311.241 184.2C310.761 184.2 310.335 184.467 309.961 185C309.615 185.533 309.441 186.2 309.441 187H308.681V161H306.681V160.2H314.681V170.04C315.108 169.32 315.801 168.76 316.761 168.36C317.748 167.933 318.775 167.72 319.841 167.72C321.868 167.72 323.628 168.613 325.121 170.4C326.641 172.16 327.401 174.627 327.401 177.8C327.401 179.667 327.095 181.267 326.481 182.6C325.868 183.933 325.068 184.933 324.081 185.6Z" fill="white"/>
<path d="M347.866 179H335.786C336.053 183.693 337.879 186.04 341.266 186.04C342.173 186.04 343.199 185.827 344.346 185.4C345.519 184.973 346.373 184.373 346.906 183.6L347.466 184C346.879 184.987 345.879 185.8 344.466 186.44C343.053 187.08 341.639 187.4 340.226 187.4C338.839 187.4 337.586 187.267 336.466 187C335.346 186.707 334.253 186.227 333.186 185.56C332.119 184.893 331.279 183.893 330.666 182.56C330.079 181.227 329.786 179.613 329.786 177.72C329.786 174.493 330.679 172.107 332.466 170.56C334.253 168.987 336.413 168.2 338.946 168.2C341.506 168.2 343.626 169.053 345.306 170.76C347.013 172.467 347.866 175.213 347.866 179ZM335.746 178.2H342.266C342.266 175.747 341.999 173.6 341.466 171.76C340.959 169.92 340.133 169 338.986 169C337.839 169 337.013 169.893 336.506 171.68C335.999 173.44 335.746 175.467 335.746 177.76V178.2Z" fill="white"/>
<path d="M360.772 187H350.772V186.2H352.772V169.4H350.772V168.6H358.772V173.36C359.012 172.053 359.439 170.987 360.052 170.16C360.692 169.333 361.385 168.787 362.132 168.52C362.905 168.253 363.639 168.12 364.332 168.12C365.052 168.12 365.732 168.253 366.372 168.52C367.039 168.76 367.532 169.267 367.852 170.04C368.172 170.787 368.185 171.547 367.892 172.32C367.599 173.067 367.079 173.6 366.332 173.92C365.612 174.24 364.945 174.28 364.332 174.04C363.719 173.8 363.279 173.48 363.012 173.08C362.745 172.653 362.559 172.253 362.452 171.88C362.185 170.893 361.825 170.4 361.372 170.4C360.865 170.4 360.305 171.28 359.692 173.04C359.079 174.773 358.772 176.613 358.772 178.56V186.2H360.772V187Z" fill="white"/>
<path d="M385.982 163.52C392.062 163.52 395.102 165.36 395.102 169.04C395.102 170.507 394.515 171.747 393.342 172.76C392.195 173.773 390.542 174.333 388.382 174.44C390.808 174.467 392.768 175.013 394.262 176.08C395.782 177.147 396.542 178.6 396.542 180.44C396.542 182.707 395.622 184.48 393.782 185.76C391.968 187.013 389.395 187.64 386.062 187.64C383.742 187.64 381.928 187.133 380.622 186.12C379.342 185.08 378.702 183.707 378.702 182C378.702 180.933 378.982 180.067 379.542 179.4C380.128 178.733 380.888 178.4 381.822 178.4C382.755 178.4 383.475 178.653 383.982 179.16C384.515 179.667 384.782 180.293 384.782 181.04C384.782 181.76 384.582 182.333 384.182 182.76C383.782 183.187 383.342 183.453 382.862 183.56C381.608 183.853 380.982 184.28 380.982 184.84C380.982 185.373 381.355 185.813 382.102 186.16C382.875 186.507 383.755 186.68 384.742 186.68C386.288 186.68 387.542 186.12 388.502 185C389.462 183.88 389.942 182.373 389.942 180.48C389.942 178.56 389.515 177.147 388.662 176.24C387.835 175.333 386.315 174.88 384.102 174.88H383.462V174.08H384.102C385.808 174.08 387.035 173.573 387.782 172.56C388.528 171.52 388.902 170.347 388.902 169.04C388.902 167.733 388.528 166.64 387.782 165.76C387.035 164.88 386.088 164.44 384.942 164.44C383.795 164.44 382.928 164.627 382.342 165C381.755 165.373 381.462 165.773 381.462 166.2C381.462 166.6 381.622 166.893 381.942 167.08C382.288 167.267 382.662 167.413 383.062 167.52C383.488 167.6 383.862 167.827 384.182 168.2C384.528 168.573 384.702 169.08 384.702 169.72C384.702 170.36 384.475 170.907 384.022 171.36C383.568 171.813 382.928 172.04 382.102 172.04C381.275 172.04 380.595 171.747 380.062 171.16C379.528 170.573 379.262 169.773 379.262 168.76C379.262 167.293 379.862 166.053 381.062 165.04C382.288 164.027 383.928 163.52 385.982 163.52Z" fill="white"/>
<path d="M399.756 179.08V176.04H406.596V179.08H399.756Z" fill="white"/>
<path d="M426.915 177.84H427.835V184H426.915V181.28H423.955V186.2H426.555V187H415.355V186.2H417.955V181.28H408.595V180.48L419.955 163.72H423.955V180.48H426.915V177.84ZM417.955 180.48V168.12L409.635 180.48H417.955Z" fill="white"/>
<path d="M435.565 186.8L433.925 187.04C433.152 187.04 432.459 186.773 431.845 186.24C431.232 185.707 430.925 184.947 430.925 183.96C430.925 182.947 431.245 182.107 431.885 181.44C432.552 180.773 433.472 180.44 434.645 180.44C435.845 180.44 436.819 180.893 437.565 181.8C438.312 182.707 438.685 183.733 438.685 184.88C438.685 186.533 438.139 188.053 437.045 189.44C435.979 190.853 434.432 192.013 432.405 192.92L432.125 192.2C434.899 190.573 436.285 189 436.285 187.48C436.285 187.027 436.045 186.8 435.565 186.8Z" fill="white"/>
<path d="M468.761 181.32C468.761 183 468.361 184.44 467.561 185.64C466.787 186.813 465.641 187.4 464.121 187.4C462.627 187.4 460.881 186.907 458.881 185.92C456.881 184.907 455.441 184.4 454.561 184.4C452.987 184.4 452.014 185.267 451.641 187H450.841C451.001 184.973 451.747 183.067 453.081 181.28C453.987 180.08 455.907 178.04 458.841 175.16C459.614 174.387 460.307 173.467 460.921 172.4C461.534 171.333 461.841 170.187 461.841 168.96C461.841 167.733 461.481 166.68 460.761 165.8C460.041 164.92 458.974 164.48 457.561 164.48C456.654 164.48 455.827 164.653 455.081 165C454.334 165.347 453.961 165.747 453.961 166.2C453.961 166.627 454.134 166.947 454.481 167.16C454.854 167.373 455.241 167.547 455.641 167.68C456.067 167.787 456.454 168.053 456.801 168.48C457.174 168.907 457.361 169.48 457.361 170.2C457.361 170.92 457.094 171.533 456.561 172.04C456.054 172.547 455.347 172.8 454.441 172.8C453.534 172.8 452.787 172.467 452.201 171.8C451.614 171.133 451.321 170.28 451.321 169.24C451.321 167.613 452.014 166.253 453.401 165.16C454.814 164.067 456.774 163.52 459.281 163.52C461.814 163.52 463.961 164.067 465.721 165.16C467.481 166.253 468.361 167.76 468.361 169.68C468.361 171.253 467.987 172.587 467.241 173.68C466.521 174.773 465.587 175.6 464.441 176.16C463.321 176.72 462.161 177.213 460.961 177.64C459.787 178.04 458.627 178.52 457.481 179.08C456.361 179.613 455.561 180.24 455.081 180.96C455.721 180.427 456.547 180.16 457.561 180.16C458.574 180.16 459.721 180.333 461.001 180.68C462.307 181.027 463.334 181.2 464.081 181.2C464.827 181.2 465.441 181.16 465.921 181.08C466.401 181 466.854 180.773 467.281 180.4C467.707 180.027 467.961 179.493 468.041 178.8H468.441C468.654 179.653 468.761 180.493 468.761 181.32Z" fill="white"/>
<path d="M492.053 175.56C492.053 179.16 491.16 182.053 489.373 184.24C487.587 186.4 485.173 187.48 482.133 187.48C479.12 187.48 476.733 186.4 474.973 184.24C473.24 182.08 472.373 179.027 472.373 175.08C472.373 171.827 473.24 169.093 474.973 166.88C476.733 164.64 479.16 163.52 482.253 163.52C485.373 163.52 487.787 164.627 489.493 166.84C491.2 169.027 492.053 171.933 492.053 175.56ZM486.093 175.08C486.093 167.907 484.8 164.32 482.214 164.32C479.627 164.32 478.333 167.907 478.333 175.08C478.333 178.92 478.613 181.813 479.173 183.76C479.733 185.707 480.76 186.68 482.253 186.68C483.747 186.68 484.76 185.72 485.293 183.8C485.827 181.88 486.093 178.973 486.093 175.08Z" fill="white"/>
<path d="M512.784 181.32C512.784 183 512.384 184.44 511.584 185.64C510.811 186.813 509.664 187.4 508.144 187.4C506.651 187.4 504.904 186.907 502.904 185.92C500.904 184.907 499.464 184.4 498.584 184.4C497.011 184.4 496.037 185.267 495.664 187H494.864C495.024 184.973 495.771 183.067 497.104 181.28C498.011 180.08 499.931 178.04 502.864 175.16C503.637 174.387 504.331 173.467 504.944 172.4C505.557 171.333 505.864 170.187 505.864 168.96C505.864 167.733 505.504 166.68 504.784 165.8C504.064 164.92 502.997 164.48 501.584 164.48C500.677 164.48 499.851 164.653 499.104 165C498.357 165.347 497.984 165.747 497.984 166.2C497.984 166.627 498.157 166.947 498.504 167.16C498.877 167.373 499.264 167.547 499.664 167.68C500.091 167.787 500.477 168.053 500.824 168.48C501.197 168.907 501.384 169.48 501.384 170.2C501.384 170.92 501.117 171.533 500.584 172.04C500.077 172.547 499.371 172.8 498.464 172.8C497.557 172.8 496.811 172.467 496.224 171.8C495.637 171.133 495.344 170.28 495.344 169.24C495.344 167.613 496.037 166.253 497.424 165.16C498.837 164.067 500.797 163.52 503.304 163.52C505.837 163.52 507.984 164.067 509.744 165.16C511.504 166.253 512.384 167.76 512.384 169.68C512.384 171.253 512.011 172.587 511.264 173.68C510.544 174.773 509.611 175.6 508.464 176.16C507.344 176.72 506.184 177.213 504.984 177.64C503.811 178.04 502.651 178.52 501.504 179.08C500.384 179.613 499.584 180.24 499.104 180.96C499.744 180.427 500.571 180.16 501.584 180.16C502.597 180.16 503.744 180.333 505.024 180.68C506.331 181.027 507.357 181.2 508.104 181.2C508.851 181.2 509.464 181.16 509.944 181.08C510.424 181 510.877 180.773 511.304 180.4C511.731 180.027 511.984 179.493 512.064 178.8H512.464C512.677 179.653 512.784 180.493 512.784 181.32Z" fill="white"/>
<path d="M533.917 181.32C533.917 183 533.517 184.44 532.717 185.64C531.944 186.813 530.797 187.4 529.277 187.4C527.784 187.4 526.037 186.907 524.037 185.92C522.037 184.907 520.597 184.4 519.717 184.4C518.144 184.4 517.17 185.267 516.797 187H515.997C516.157 184.973 516.904 183.067 518.237 181.28C519.144 180.08 521.064 178.04 523.997 175.16C524.77 174.387 525.464 173.467 526.077 172.4C526.69 171.333 526.997 170.187 526.997 168.96C526.997 167.733 526.637 166.68 525.917 165.8C525.197 164.92 524.13 164.48 522.717 164.48C521.81 164.48 520.984 164.653 520.237 165C519.49 165.347 519.117 165.747 519.117 166.2C519.117 166.627 519.29 166.947 519.637 167.16C520.01 167.373 520.397 167.547 520.797 167.68C521.224 167.787 521.61 168.053 521.957 168.48C522.33 168.907 522.517 169.48 522.517 170.2C522.517 170.92 522.25 171.533 521.717 172.04C521.21 172.547 520.504 172.8 519.597 172.8C518.69 172.8 517.944 172.467 517.357 171.8C516.77 171.133 516.477 170.28 516.477 169.24C516.477 167.613 517.17 166.253 518.557 165.16C519.97 164.067 521.93 163.52 524.437 163.52C526.97 163.52 529.117 164.067 530.877 165.16C532.637 166.253 533.517 167.76 533.517 169.68C533.517 171.253 533.144 172.587 532.397 173.68C531.677 174.773 530.744 175.6 529.597 176.16C528.477 176.72 527.317 177.213 526.117 177.64C524.944 178.04 523.784 178.52 522.637 179.08C521.517 179.613 520.717 180.24 520.237 180.96C520.877 180.427 521.704 180.16 522.717 180.16C523.73 180.16 524.877 180.333 526.157 180.68C527.464 181.027 528.49 181.2 529.237 181.2C529.984 181.2 530.597 181.16 531.077 181.08C531.557 181 532.01 180.773 532.437 180.4C532.864 180.027 533.117 179.493 533.197 178.8H533.597C533.81 179.653 533.917 180.493 533.917 181.32Z" fill="white"/>
</g>
<defs>
<filter id="filter0_d_1016_10830" x="0.916382" y="44.2841" width="541.587" height="112.956" filterUnits="userSpaceOnUse" color-interpolation-filters="sRGB">
<feFlood flood-opacity="0" result="BackgroundImageFix"/>
<feColorMatrix in="SourceAlpha" type="matrix" values="0 0 0 0 0 0 0 0 0 0 0 0 0 0 0 0 0 0 127 0" result="hardAlpha"/>
<feOffset/>
<feGaussianBlur stdDeviation="10"/>
<feComposite in2="hardAlpha" operator="out"/>
<feColorMatrix type="matrix" values="0 0 0 0 0.891667 0 0 0 0 0.891667 0 0 0 0 0.891667 0 0 0 0.45 0"/>
<feBlend mode="normal" in2="BackgroundImageFix" result="effect1_dropShadow_1016_10830"/>
<feBlend mode="normal" in="SourceGraphic" in2="effect1_dropShadow_1016_10830" result="shape"/>
</filter>
<filter id="filter1_d_1016_10830" x="0.870361" y="139.76" width="555.047" height="77.64" filterUnits="userSpaceOnUse" color-interpolation-filters="sRGB">
<feFlood flood-opacity="0" result="BackgroundImageFix"/>
<feColorMatrix in="SourceAlpha" type="matrix" values="0 0 0 0 0 0 0 0 0 0 0 0 0 0 0 0 0 0 127 0" result="hardAlpha"/>
<feOffset/>
<feGaussianBlur stdDeviation="10"/>
<feComposite in2="hardAlpha" operator="out"/>
<feColorMatrix type="matrix" values="0 0 0 0 0.9125 0 0 0 0 0.9125 0 0 0 0 0.9125 0 0 0 0.45 0"/>
<feBlend mode="normal" in2="BackgroundImageFix" result="effect1_dropShadow_1016_10830"/>
<feBlend mode="normal" in="SourceGraphic" in2="effect1_dropShadow_1016_10830" result="shape"/>
</filter>
</defs>
</svg>
