<svg width="639" height="224" viewBox="0 0 639 224" fill="none" xmlns="http://www.w3.org/2000/svg">
<path d="M35.3928 27.46V28H28.2918V27.46H29.8848L28.0758 23.707H22.6218L21.0558 27.46H23.1888V28H18.5718V27.46H20.3808L26.5638 12.61H27.2388L34.0968 27.46H35.3928ZM22.8648 23.14H27.8058L25.1598 17.632L22.8648 23.14ZM35.9214 16.12V15.58H43.2114V16.12H41.7804L44.6964 22.654L46.4514 18.253L45.5604 16.12H44.5614V15.58H51.3114V16.12H50.1234L53.0394 22.654L55.5504 16.12H53.3904V15.58H57.7914V16.12H56.1714L51.6084 28H51.0414L46.7754 19.063L43.2384 28H42.6714L37.1904 16.12H35.9214ZM71.0775 22.6H62.9235C63.1035 25.768 64.3365 27.352 66.6225 27.352C67.2345 27.352 67.9275 27.208 68.7015 26.92C69.4935 26.632 70.0695 26.227 70.4295 25.705L70.8075 25.975C70.4115 26.641 69.7365 27.19 68.7825 27.622C67.8285 28.054 66.8745 28.27 65.9205 28.27C64.9845 28.27 64.1385 28.18 63.3825 28C62.6265 27.802 61.8885 27.478 61.1685 27.028C60.4485 26.578 59.8815 25.903 59.4675 25.003C59.0715 24.103 58.8735 23.014 58.8735 21.736C58.8735 19.558 59.4765 17.947 60.6825 16.903C61.8885 15.841 63.3465 15.31 65.0565 15.31C66.7845 15.31 68.2155 15.886 69.3495 17.038C70.5015 18.19 71.0775 20.044 71.0775 22.6ZM62.8965 22.06H67.2975C67.2975 20.404 67.1175 18.955 66.7575 17.713C66.4155 16.471 65.8575 15.85 65.0835 15.85C64.3095 15.85 63.7515 16.453 63.4095 17.659C63.0675 18.847 62.8965 20.215 62.8965 21.763V22.06ZM79.114 27.784C80.986 27.784 81.922 27.271 81.922 26.245C81.922 25.669 81.598 25.201 80.95 24.841C80.302 24.463 79.519 24.157 78.601 23.923C77.683 23.689 76.774 23.419 75.874 23.113C74.992 22.807 74.254 22.321 73.66 21.655C73.084 20.989 72.85 20.116 72.958 19.036C73.066 17.956 73.615 17.065 74.605 16.363C75.613 15.661 76.846 15.31 78.304 15.31C79.78 15.31 80.968 15.544 81.868 16.012C82.768 16.48 83.272 17.11 83.38 17.902C83.452 18.388 83.371 18.838 83.137 19.252C82.921 19.666 82.552 19.882 82.03 19.9C81.526 19.918 81.103 19.783 80.761 19.495C80.437 19.207 80.284 18.874 80.302 18.496C80.32 18.118 80.464 17.785 80.734 17.497C81.004 17.191 81.139 16.948 81.139 16.768C81.139 16.462 80.842 16.237 80.248 16.093C79.672 15.931 78.997 15.85 78.223 15.85C77.467 15.85 76.846 16.021 76.36 16.363C75.874 16.705 75.631 17.128 75.631 17.632C75.631 18.136 75.928 18.568 76.522 18.928C77.134 19.288 77.872 19.585 78.736 19.819C79.6 20.035 80.455 20.287 81.301 20.575C82.165 20.845 82.894 21.286 83.488 21.898C84.1 22.51 84.406 23.284 84.406 24.22C84.406 25.462 83.965 26.461 83.083 27.217C82.201 27.955 80.869 28.324 79.087 28.324C77.305 28.324 75.856 28.054 74.74 27.514C73.642 26.974 73.039 26.281 72.931 25.435C72.859 24.949 72.94 24.499 73.174 24.085C73.408 23.671 73.777 23.455 74.281 23.437C74.785 23.419 75.199 23.554 75.523 23.842C75.865 24.13 76.027 24.463 76.009 24.841C75.991 25.219 75.847 25.561 75.577 25.867C75.307 26.155 75.172 26.389 75.172 26.569C75.172 26.929 75.586 27.226 76.414 27.46C77.26 27.676 78.16 27.784 79.114 27.784ZM90.3084 26.38C90.7044 27.28 91.3884 27.73 92.3604 27.73C93.3324 27.73 94.0254 27.271 94.4394 26.353C94.8534 25.435 95.0604 23.923 95.0604 21.817C95.0604 19.693 94.8534 18.172 94.4394 17.254C94.0254 16.318 93.3324 15.85 92.3604 15.85C91.3884 15.85 90.7044 16.318 90.3084 17.254C89.9124 18.172 89.7144 19.693 89.7144 21.817C89.7144 23.941 89.9124 25.462 90.3084 26.38ZM92.3064 28.27C90.5964 28.27 89.0484 27.712 87.6624 26.596C86.2764 25.48 85.5834 23.896 85.5834 21.844C85.5834 20.746 85.7814 19.765 86.1774 18.901C86.5914 18.037 87.1314 17.353 87.7974 16.849C88.4814 16.345 89.2104 15.967 89.9844 15.715C90.7584 15.445 91.5504 15.31 92.3604 15.31C93.1704 15.31 93.9624 15.445 94.7364 15.715C95.5284 15.967 96.2574 16.345 96.9234 16.849C97.6074 17.353 98.1564 18.037 98.5704 18.901C98.9844 19.765 99.1914 20.737 99.1914 21.817C99.1914 22.897 98.9844 23.86 98.5704 24.706C98.1564 25.552 97.6074 26.227 96.9234 26.731C95.5554 27.757 94.0164 28.27 92.3064 28.27ZM123.774 27.46H125.124V28H118.374V27.46H119.724V19.9C119.724 18.622 119.535 17.713 119.157 17.173C118.779 16.633 118.212 16.363 117.456 16.363C117.024 16.363 116.574 16.489 116.106 16.741C115.638 16.993 115.251 17.344 114.945 17.794C115.161 18.442 115.269 19.342 115.269 20.494V27.46H116.619V28H109.599V27.46H111.219V19.9C111.219 18.622 111.03 17.713 110.652 17.173C110.274 16.633 109.707 16.363 108.951 16.363C107.925 16.363 107.106 16.903 106.494 17.983V27.46H107.844V28H101.094V27.46H102.444V16.12H101.094V15.58H106.494V16.984C106.836 16.516 107.367 16.12 108.087 15.796C108.825 15.454 109.617 15.283 110.463 15.283C112.605 15.283 114 15.886 114.648 17.092C115.116 16.516 115.737 16.075 116.511 15.769C117.285 15.445 118.104 15.283 118.968 15.283C122.172 15.283 123.774 17.02 123.774 20.494V27.46ZM138.947 22.6H130.793C130.973 25.768 132.206 27.352 134.492 27.352C135.104 27.352 135.797 27.208 136.571 26.92C137.363 26.632 137.939 26.227 138.299 25.705L138.677 25.975C138.281 26.641 137.606 27.19 136.652 27.622C135.698 28.054 134.744 28.27 133.79 28.27C132.854 28.27 132.008 28.18 131.252 28C130.496 27.802 129.758 27.478 129.038 27.028C128.318 26.578 127.751 25.903 127.337 25.003C126.941 24.103 126.743 23.014 126.743 21.736C126.743 19.558 127.346 17.947 128.552 16.903C129.758 15.841 131.216 15.31 132.926 15.31C134.654 15.31 136.085 15.886 137.219 17.038C138.371 18.19 138.947 20.044 138.947 22.6ZM130.766 22.06H135.167C135.167 20.404 134.987 18.955 134.627 17.713C134.285 16.471 133.727 15.85 132.953 15.85C132.179 15.85 131.621 16.453 131.279 17.659C130.937 18.847 130.766 20.215 130.766 21.763V22.06ZM152.109 13.42V22.222C153.585 22.222 154.593 21.907 155.133 21.277C155.673 20.629 155.943 19.504 155.943 17.902C155.943 16.3 155.673 15.157 155.133 14.473C154.593 13.771 153.585 13.42 152.109 13.42ZM153.459 27.46V28H146.709V27.46H148.059V13.42H146.709V12.88H152.082C157.374 12.628 160.02 14.329 160.02 17.983C160.02 19.603 159.354 20.836 158.022 21.682C156.69 22.528 154.719 22.888 152.109 22.762V27.46H153.459ZM167.647 30.997C167.161 32.041 166.648 32.788 166.108 33.238C165.568 33.706 164.848 33.94 163.948 33.94C163.048 33.94 162.346 33.742 161.842 33.346C161.338 32.968 161.086 32.455 161.086 31.807C161.086 31.177 161.266 30.673 161.626 30.295C162.004 29.917 162.454 29.728 162.976 29.728C163.498 29.728 163.939 29.827 164.299 30.025C164.659 30.223 164.911 30.439 165.055 30.673C165.451 31.303 165.82 31.618 166.162 31.618C166.522 31.618 166.837 31.312 167.107 30.7L168.241 28.027L161.923 16.12H160.843V15.58H168.106V16.12H166.756L170.374 23.248L173.479 16.12H171.319V15.58H175.747V16.12H174.127L167.647 30.997ZM182.052 16.12V22.708C182.052 24.256 182.115 25.201 182.241 25.543C182.367 25.867 182.502 26.146 182.646 26.38C182.916 26.848 183.384 27.082 184.05 27.082C184.734 27.082 185.211 26.992 185.481 26.812V27.352C184.617 27.964 183.672 28.27 182.646 28.27C181.134 28.27 179.982 27.91 179.19 27.19C178.398 26.47 178.002 25.183 178.002 23.329V16.12H176.004V15.58H178.002C178.866 15.436 179.631 15.022 180.297 14.338C180.963 13.636 181.422 12.673 181.674 11.449H182.052V15.58H185.184V16.12H182.052ZM201.015 27.46H202.365V28H195.615V27.46H196.965V19.9C196.965 18.622 196.776 17.713 196.398 17.173C196.02 16.633 195.453 16.363 194.697 16.363C193.671 16.363 192.852 16.903 192.24 17.983V27.46H193.59V28H186.84V27.46H188.19V10.45H186.84V9.91H192.24V16.984C192.582 16.498 193.113 16.093 193.833 15.769C194.553 15.445 195.345 15.283 196.209 15.283C199.413 15.283 201.015 17.02 201.015 20.494V27.46ZM208.697 26.38C209.093 27.28 209.777 27.73 210.749 27.73C211.721 27.73 212.414 27.271 212.828 26.353C213.242 25.435 213.449 23.923 213.449 21.817C213.449 19.693 213.242 18.172 212.828 17.254C212.414 16.318 211.721 15.85 210.749 15.85C209.777 15.85 209.093 16.318 208.697 17.254C208.301 18.172 208.103 19.693 208.103 21.817C208.103 23.941 208.301 25.462 208.697 26.38ZM210.695 28.27C208.985 28.27 207.437 27.712 206.051 26.596C204.665 25.48 203.972 23.896 203.972 21.844C203.972 20.746 204.17 19.765 204.566 18.901C204.98 18.037 205.52 17.353 206.186 16.849C206.87 16.345 207.599 15.967 208.373 15.715C209.147 15.445 209.939 15.31 210.749 15.31C211.559 15.31 212.351 15.445 213.125 15.715C213.917 15.967 214.646 16.345 215.312 16.849C215.996 17.353 216.545 18.037 216.959 18.901C217.373 19.765 217.58 20.737 217.58 21.817C217.58 22.897 217.373 23.86 216.959 24.706C216.545 25.552 215.996 26.227 215.312 26.731C213.944 27.757 212.405 28.27 210.695 28.27ZM233.657 27.46H235.007V28H228.257V27.46H229.607V19.9C229.607 18.622 229.418 17.713 229.04 17.173C228.662 16.633 228.095 16.363 227.339 16.363C226.313 16.363 225.494 16.903 224.882 17.983V27.46H226.232V28H219.482V27.46H220.832V16.12H219.482V15.58H224.882V16.984C225.224 16.516 225.755 16.12 226.475 15.796C227.213 15.454 228.005 15.283 228.851 15.283C232.055 15.283 233.657 17.02 233.657 20.494V27.46ZM258.696 27.46V28H251.595V27.46H253.188L251.379 23.707H245.925L244.359 27.46H246.492V28H241.875V27.46H243.684L249.867 12.61H250.542L257.4 27.46H258.696ZM246.168 23.14H251.109L248.463 17.632L246.168 23.14ZM259.225 16.12V15.58H266.515V16.12H265.084L268 22.654L269.755 18.253L268.864 16.12H267.865V15.58H274.615V16.12H273.427L276.343 22.654L278.854 16.12H276.694V15.58H281.095V16.12H279.475L274.912 28H274.345L270.079 19.063L266.542 28H265.975L260.494 16.12H259.225ZM294.381 22.6H286.227C286.407 25.768 287.64 27.352 289.926 27.352C290.538 27.352 291.231 27.208 292.005 26.92C292.797 26.632 293.373 26.227 293.733 25.705L294.111 25.975C293.715 26.641 293.04 27.19 292.086 27.622C291.132 28.054 290.178 28.27 289.224 28.27C288.288 28.27 287.442 28.18 286.686 28C285.93 27.802 285.192 27.478 284.472 27.028C283.752 26.578 283.185 25.903 282.771 25.003C282.375 24.103 282.177 23.014 282.177 21.736C282.177 19.558 282.78 17.947 283.986 16.903C285.192 15.841 286.65 15.31 288.36 15.31C290.088 15.31 291.519 15.886 292.653 17.038C293.805 18.19 294.381 20.044 294.381 22.6ZM286.2 22.06H290.601C290.601 20.404 290.421 18.955 290.061 17.713C289.719 16.471 289.161 15.85 288.387 15.85C287.613 15.85 287.055 16.453 286.713 17.659C286.371 18.847 286.2 20.215 286.2 21.763V22.06ZM302.418 27.784C304.29 27.784 305.226 27.271 305.226 26.245C305.226 25.669 304.902 25.201 304.254 24.841C303.606 24.463 302.823 24.157 301.905 23.923C300.987 23.689 300.078 23.419 299.178 23.113C298.296 22.807 297.558 22.321 296.964 21.655C296.388 20.989 296.154 20.116 296.262 19.036C296.37 17.956 296.919 17.065 297.909 16.363C298.917 15.661 300.15 15.31 301.608 15.31C303.084 15.31 304.272 15.544 305.172 16.012C306.072 16.48 306.576 17.11 306.684 17.902C306.756 18.388 306.675 18.838 306.441 19.252C306.225 19.666 305.856 19.882 305.334 19.9C304.83 19.918 304.407 19.783 304.065 19.495C303.741 19.207 303.588 18.874 303.606 18.496C303.624 18.118 303.768 17.785 304.038 17.497C304.308 17.191 304.443 16.948 304.443 16.768C304.443 16.462 304.146 16.237 303.552 16.093C302.976 15.931 302.301 15.85 301.527 15.85C300.771 15.85 300.15 16.021 299.664 16.363C299.178 16.705 298.935 17.128 298.935 17.632C298.935 18.136 299.232 18.568 299.826 18.928C300.438 19.288 301.176 19.585 302.04 19.819C302.904 20.035 303.759 20.287 304.605 20.575C305.469 20.845 306.198 21.286 306.792 21.898C307.404 22.51 307.71 23.284 307.71 24.22C307.71 25.462 307.269 26.461 306.387 27.217C305.505 27.955 304.173 28.324 302.391 28.324C300.609 28.324 299.16 28.054 298.044 27.514C296.946 26.974 296.343 26.281 296.235 25.435C296.163 24.949 296.244 24.499 296.478 24.085C296.712 23.671 297.081 23.455 297.585 23.437C298.089 23.419 298.503 23.554 298.827 23.842C299.169 24.13 299.331 24.463 299.313 24.841C299.295 25.219 299.151 25.561 298.881 25.867C298.611 26.155 298.476 26.389 298.476 26.569C298.476 26.929 298.89 27.226 299.718 27.46C300.564 27.676 301.464 27.784 302.418 27.784ZM313.612 26.38C314.008 27.28 314.692 27.73 315.664 27.73C316.636 27.73 317.329 27.271 317.743 26.353C318.157 25.435 318.364 23.923 318.364 21.817C318.364 19.693 318.157 18.172 317.743 17.254C317.329 16.318 316.636 15.85 315.664 15.85C314.692 15.85 314.008 16.318 313.612 17.254C313.216 18.172 313.018 19.693 313.018 21.817C313.018 23.941 313.216 25.462 313.612 26.38ZM315.61 28.27C313.9 28.27 312.352 27.712 310.966 26.596C309.58 25.48 308.887 23.896 308.887 21.844C308.887 20.746 309.085 19.765 309.481 18.901C309.895 18.037 310.435 17.353 311.101 16.849C311.785 16.345 312.514 15.967 313.288 15.715C314.062 15.445 314.854 15.31 315.664 15.31C316.474 15.31 317.266 15.445 318.04 15.715C318.832 15.967 319.561 16.345 320.227 16.849C320.911 17.353 321.46 18.037 321.874 18.901C322.288 19.765 322.495 20.737 322.495 21.817C322.495 22.897 322.288 23.86 321.874 24.706C321.46 25.552 320.911 26.227 320.227 26.731C318.859 27.757 317.32 28.27 315.61 28.27ZM347.077 27.46H348.427V28H341.677V27.46H343.027V19.9C343.027 18.622 342.838 17.713 342.46 17.173C342.082 16.633 341.515 16.363 340.759 16.363C340.327 16.363 339.877 16.489 339.409 16.741C338.941 16.993 338.554 17.344 338.248 17.794C338.464 18.442 338.572 19.342 338.572 20.494V27.46H339.922V28H332.902V27.46H334.522V19.9C334.522 18.622 334.333 17.713 333.955 17.173C333.577 16.633 333.01 16.363 332.254 16.363C331.228 16.363 330.409 16.903 329.797 17.983V27.46H331.147V28H324.397V27.46H325.747V16.12H324.397V15.58H329.797V16.984C330.139 16.516 330.67 16.12 331.39 15.796C332.128 15.454 332.92 15.283 333.766 15.283C335.908 15.283 337.303 15.886 337.951 17.092C338.419 16.516 339.04 16.075 339.814 15.769C340.588 15.445 341.407 15.283 342.271 15.283C345.475 15.283 347.077 17.02 347.077 20.494V27.46ZM362.25 22.6H354.096C354.276 25.768 355.509 27.352 357.795 27.352C358.407 27.352 359.1 27.208 359.874 26.92C360.666 26.632 361.242 26.227 361.602 25.705L361.98 25.975C361.584 26.641 360.909 27.19 359.955 27.622C359.001 28.054 358.047 28.27 357.093 28.27C356.157 28.27 355.311 28.18 354.555 28C353.799 27.802 353.061 27.478 352.341 27.028C351.621 26.578 351.054 25.903 350.64 25.003C350.244 24.103 350.046 23.014 350.046 21.736C350.046 19.558 350.649 17.947 351.855 16.903C353.061 15.841 354.519 15.31 356.229 15.31C357.957 15.31 359.388 15.886 360.522 17.038C361.674 18.19 362.25 20.044 362.25 22.6ZM354.069 22.06H358.47C358.47 20.404 358.29 18.955 357.93 17.713C357.588 16.471 357.03 15.85 356.256 15.85C355.482 15.85 354.924 16.453 354.582 17.659C354.24 18.847 354.069 20.215 354.069 21.763V22.06ZM383.108 18.901H382.568C382.568 17.461 382.109 16.129 381.191 14.905C380.273 13.681 378.959 13.069 377.249 13.069C376.295 13.069 375.503 13.627 374.873 14.743C374.261 15.859 373.955 17.767 373.955 20.467C373.955 23.167 374.261 25.075 374.873 26.191C375.503 27.307 376.475 27.865 377.789 27.865C379.121 27.865 380.237 27.451 381.137 26.623C382.055 25.795 382.622 24.625 382.838 23.113H383.378C383.126 24.895 382.496 26.227 381.488 27.109C380.498 27.973 379.31 28.405 377.924 28.405C375.242 28.405 373.181 27.766 371.741 26.488C370.319 25.192 369.608 23.176 369.608 20.44C369.608 17.686 370.301 15.679 371.687 14.419C373.091 13.159 374.945 12.529 377.249 12.529C378.491 12.529 379.697 12.862 380.867 13.528C381.245 13.762 381.551 13.879 381.785 13.879C382.037 13.879 382.235 13.771 382.379 13.555C382.523 13.321 382.595 13.096 382.595 12.88H383.108V18.901ZM389.576 26.38C389.972 27.28 390.656 27.73 391.628 27.73C392.6 27.73 393.293 27.271 393.707 26.353C394.121 25.435 394.328 23.923 394.328 21.817C394.328 19.693 394.121 18.172 393.707 17.254C393.293 16.318 392.6 15.85 391.628 15.85C390.656 15.85 389.972 16.318 389.576 17.254C389.18 18.172 388.982 19.693 388.982 21.817C388.982 23.941 389.18 25.462 389.576 26.38ZM391.574 28.27C389.864 28.27 388.316 27.712 386.93 26.596C385.544 25.48 384.851 23.896 384.851 21.844C384.851 20.746 385.049 19.765 385.445 18.901C385.859 18.037 386.399 17.353 387.065 16.849C387.749 16.345 388.478 15.967 389.252 15.715C390.026 15.445 390.818 15.31 391.628 15.31C392.438 15.31 393.23 15.445 394.004 15.715C394.796 15.967 395.525 16.345 396.191 16.849C396.875 17.353 397.424 18.037 397.838 18.901C398.252 19.765 398.459 20.737 398.459 21.817C398.459 22.897 398.252 23.86 397.838 24.706C397.424 25.552 396.875 26.227 396.191 26.731C394.823 27.757 393.284 28.27 391.574 28.27ZM423.041 27.46H424.391V28H417.641V27.46H418.991V19.9C418.991 18.622 418.802 17.713 418.424 17.173C418.046 16.633 417.479 16.363 416.723 16.363C416.291 16.363 415.841 16.489 415.373 16.741C414.905 16.993 414.518 17.344 414.212 17.794C414.428 18.442 414.536 19.342 414.536 20.494V27.46H415.886V28H408.866V27.46H410.486V19.9C410.486 18.622 410.297 17.713 409.919 17.173C409.541 16.633 408.974 16.363 408.218 16.363C407.192 16.363 406.373 16.903 405.761 17.983V27.46H407.111V28H400.361V27.46H401.711V16.12H400.361V15.58H405.761V16.984C406.103 16.516 406.634 16.12 407.354 15.796C408.092 15.454 408.884 15.283 409.73 15.283C411.872 15.283 413.267 15.886 413.915 17.092C414.383 16.516 415.004 16.075 415.778 15.769C416.552 15.445 417.371 15.283 418.235 15.283C421.439 15.283 423.041 17.02 423.041 20.494V27.46ZM448.96 27.46H450.31V28H443.56V27.46H444.91V19.9C444.91 18.622 444.721 17.713 444.343 17.173C443.965 16.633 443.398 16.363 442.642 16.363C442.21 16.363 441.76 16.489 441.292 16.741C440.824 16.993 440.437 17.344 440.131 17.794C440.347 18.442 440.455 19.342 440.455 20.494V27.46H441.805V28H434.785V27.46H436.405V19.9C436.405 18.622 436.216 17.713 435.838 17.173C435.46 16.633 434.893 16.363 434.137 16.363C433.111 16.363 432.292 16.903 431.68 17.983V27.46H433.03V28H426.28V27.46H427.63V16.12H426.28V15.58H431.68V16.984C432.022 16.516 432.553 16.12 433.273 15.796C434.011 15.454 434.803 15.283 435.649 15.283C437.791 15.283 439.186 15.886 439.834 17.092C440.302 16.516 440.923 16.075 441.697 15.769C442.471 15.445 443.29 15.283 444.154 15.283C447.358 15.283 448.96 17.02 448.96 20.494V27.46ZM461.514 28V26.569C461.172 27.055 460.632 27.469 459.894 27.811C459.174 28.135 458.391 28.297 457.545 28.297C454.341 28.297 452.739 26.56 452.739 23.086V16.12H451.389V15.58H456.789V23.68C456.789 24.958 456.978 25.867 457.356 26.407C457.734 26.947 458.301 27.217 459.057 27.217C460.065 27.217 460.884 26.677 461.514 25.597V16.12H460.164V15.58H465.564V27.46H466.914V28H461.514ZM482.985 27.46H484.335V28H477.585V27.46H478.935V19.9C478.935 18.622 478.746 17.713 478.368 17.173C477.99 16.633 477.423 16.363 476.667 16.363C475.641 16.363 474.822 16.903 474.21 17.983V27.46H475.56V28H468.81V27.46H470.16V16.12H468.81V15.58H474.21V16.984C474.552 16.516 475.083 16.12 475.803 15.796C476.541 15.454 477.333 15.283 478.179 15.283C481.383 15.283 482.985 17.02 482.985 20.494V27.46ZM491.613 27.46H492.963V28H486.213V27.46H487.563V16.12H486.483V15.58H491.613V27.46ZM491.856 12.016C491.856 12.664 491.622 13.222 491.154 13.69C490.704 14.14 490.146 14.365 489.48 14.365C488.832 14.365 488.274 14.14 487.806 13.69C487.338 13.222 487.104 12.664 487.104 12.016C487.104 11.35 487.338 10.783 487.806 10.315C488.274 9.847 488.832 9.613 489.48 9.613C490.146 9.613 490.704 9.847 491.154 10.315C491.622 10.783 491.856 11.35 491.856 12.016ZM499.829 16.12V22.708C499.829 24.256 499.892 25.201 500.018 25.543C500.144 25.867 500.279 26.146 500.423 26.38C500.693 26.848 501.161 27.082 501.827 27.082C502.511 27.082 502.988 26.992 503.258 26.812V27.352C502.394 27.964 501.449 28.27 500.423 28.27C498.911 28.27 497.759 27.91 496.967 27.19C496.175 26.47 495.779 25.183 495.779 23.329V16.12H493.781V15.58H495.779C496.643 15.436 497.408 15.022 498.074 14.338C498.74 13.636 499.199 12.673 499.451 11.449H499.829V15.58H502.961V16.12H499.829ZM510.341 30.997C509.855 32.041 509.342 32.788 508.802 33.238C508.262 33.706 507.542 33.94 506.642 33.94C505.742 33.94 505.04 33.742 504.536 33.346C504.032 32.968 503.78 32.455 503.78 31.807C503.78 31.177 503.96 30.673 504.32 30.295C504.698 29.917 505.148 29.728 505.67 29.728C506.192 29.728 506.633 29.827 506.993 30.025C507.353 30.223 507.605 30.439 507.749 30.673C508.145 31.303 508.514 31.618 508.856 31.618C509.216 31.618 509.531 31.312 509.801 30.7L510.935 28.027L504.617 16.12H503.537V15.58H510.8V16.12H509.45L513.068 23.248L516.173 16.12H514.013V15.58H518.441V16.12H516.821L510.341 30.997Z" fill="#573766"/>
<path d="M42.205 74.32V104.312C47.2343 104.312 50.669 103.239 52.509 101.092C54.349 98.884 55.269 95.0507 55.269 89.592C55.269 84.1333 54.349 80.2387 52.509 77.908C50.669 75.516 47.2343 74.32 42.205 74.32ZM46.805 122.16V124H23.805V122.16H28.405V74.32H23.805V72.48H42.113C60.145 71.6213 69.161 77.4173 69.161 89.868C69.161 95.388 66.8917 99.5893 62.353 102.472C57.8143 105.355 51.0983 106.581 42.205 106.152V122.16H46.805ZM95.1488 134.212C93.4928 137.769 91.7448 140.315 89.9048 141.848C88.0648 143.443 85.6115 144.24 82.5448 144.24C79.4782 144.24 77.0862 143.565 75.3688 142.216C73.6515 140.928 72.7928 139.18 72.7928 136.972C72.7928 134.825 73.4062 133.108 74.6328 131.82C75.9208 130.532 77.4542 129.888 79.2328 129.888C81.0115 129.888 82.5142 130.225 83.7408 130.9C84.9675 131.575 85.8262 132.311 86.3168 133.108C87.6662 135.255 88.9235 136.328 90.0888 136.328C91.3155 136.328 92.3888 135.285 93.3088 133.2L97.1728 124.092L75.6448 83.52H71.9648V81.68H96.7128V83.52H92.1128L104.441 107.808L115.021 83.52H107.661V81.68H122.749V83.52H117.229L95.1488 134.212ZM171.925 92.996H170.085C170.085 88.0893 168.521 83.5507 165.393 79.38C162.265 75.2093 157.788 73.124 151.961 73.124C148.71 73.124 146.012 75.0253 143.865 78.828C141.78 82.6307 140.737 89.132 140.737 98.332C140.737 107.532 141.78 114.033 143.865 117.836C146.012 121.639 149.324 123.54 153.801 123.54C158.34 123.54 162.142 122.129 165.209 119.308C168.337 116.487 170.269 112.5 171.005 107.348H172.845C171.986 113.42 169.84 117.959 166.405 120.964C163.032 123.908 158.984 125.38 154.261 125.38C145.122 125.38 138.1 123.203 133.193 118.848C128.348 114.432 125.925 107.563 125.925 98.24C125.925 88.856 128.286 82.0173 133.009 77.724C137.793 73.4307 144.11 71.284 151.961 71.284C156.193 71.284 160.302 72.4187 164.289 74.688C165.577 75.4853 166.62 75.884 167.417 75.884C168.276 75.884 168.95 75.516 169.441 74.78C169.932 73.9827 170.177 73.216 170.177 72.48H171.925V92.996ZM193.965 118.48C195.315 121.547 197.645 123.08 200.957 123.08C204.269 123.08 206.631 121.516 208.041 118.388C209.452 115.26 210.157 110.108 210.157 102.932C210.157 95.6947 209.452 90.512 208.041 87.384C206.631 84.1947 204.269 82.6 200.957 82.6C197.645 82.6 195.315 84.1947 193.965 87.384C192.616 90.512 191.941 95.6947 191.941 102.932C191.941 110.169 192.616 115.352 193.965 118.48ZM200.773 124.92C194.947 124.92 189.672 123.019 184.949 119.216C180.227 115.413 177.865 110.016 177.865 103.024C177.865 99.2827 178.54 95.94 179.889 92.996C181.3 90.052 183.14 87.7213 185.409 86.004C187.74 84.2867 190.224 82.9987 192.861 82.14C195.499 81.22 198.197 80.76 200.957 80.76C203.717 80.76 206.416 81.22 209.053 82.14C211.752 82.9987 214.236 84.2867 216.505 86.004C218.836 87.7213 220.707 90.052 222.117 92.996C223.528 95.94 224.233 99.252 224.233 102.932C224.233 106.612 223.528 109.893 222.117 112.776C220.707 115.659 218.836 117.959 216.505 119.676C211.844 123.172 206.6 124.92 200.773 124.92ZM279.015 122.16H283.615V124H260.615V122.16H265.215V96.4C265.215 92.0453 264.571 88.948 263.283 87.108C261.995 85.268 260.063 84.348 257.487 84.348C253.991 84.348 251.2 86.188 249.115 89.868V122.16H253.715V124H230.715V122.16H235.315V83.52H230.715V81.68H249.115V86.464C250.28 84.8693 252.09 83.52 254.543 82.416C257.058 81.2507 259.756 80.668 262.639 80.668C273.556 80.668 279.015 86.5867 279.015 98.424V122.16ZM354.766 88.12C354.766 82.6613 353.846 79.012 352.006 77.172C350.227 75.2707 346.854 74.32 341.886 74.32H339.126V122.16H345.566V124H318.886V122.16H325.326V74.32H322.566C317.659 74.32 314.286 75.2707 312.446 77.172C310.667 79.012 309.778 82.6613 309.778 88.12H307.938V72.48H356.606V88.12H354.766ZM406.777 122.16C406.163 122.773 404.998 123.325 403.281 123.816C401.563 124.245 399.57 124.46 397.301 124.46C392.271 124.46 389.113 122.957 387.825 119.952C384.758 123.141 380.066 124.736 373.749 124.736C370.375 124.736 367.585 123.969 365.377 122.436C363.23 120.841 362.157 118.511 362.157 115.444C362.157 111.335 363.751 108.176 366.941 105.968C370.13 103.699 375.711 102.104 383.685 101.184L387.365 100.724V96.216C387.365 90.88 386.966 87.292 386.169 85.452C385.371 83.612 383.777 82.692 381.385 82.692C379.054 82.692 377.551 83.0293 376.877 83.704C376.202 84.3173 375.957 85.0533 376.141 85.912C376.325 86.7093 376.631 87.7827 377.061 89.132C377.49 90.4813 377.705 91.5547 377.705 92.352C377.705 94.2533 377.03 95.8787 375.681 97.228C374.393 98.516 372.798 99.16 370.897 99.16C369.057 99.16 367.462 98.516 366.113 97.228C364.763 95.8787 364.089 94.2533 364.089 92.352C364.089 89.224 365.683 86.556 368.873 84.348C372.123 82.0787 376.938 80.944 383.317 80.944C389.757 80.944 394.326 82.2013 397.025 84.716C399.785 87.2307 401.165 91.6773 401.165 98.056V114.616C401.165 117.867 401.563 119.921 402.361 120.78C403.158 121.577 404.63 121.731 406.777 121.24V122.16ZM374.945 113.604C375.251 115.935 376.11 117.744 377.521 119.032C378.931 120.259 380.557 120.872 382.397 120.872C384.298 120.872 385.954 119.952 387.365 118.112V102.472L384.053 102.932C381.231 103.3 378.931 104.373 377.153 106.152C375.435 107.931 374.699 110.415 374.945 113.604ZM430.689 122.16H435.289V124H412.289V122.16H416.889V83.52H413.209V81.68H430.689V122.16ZM431.517 69.536C431.517 71.744 430.72 73.6453 429.125 75.24C427.592 76.7733 425.691 77.54 423.421 77.54C421.213 77.54 419.312 76.7733 417.717 75.24C416.123 73.6453 415.325 71.744 415.325 69.536C415.325 67.2667 416.123 65.3347 417.717 63.74C419.312 62.1453 421.213 61.348 423.421 61.348C425.691 61.348 427.592 62.1453 429.125 63.74C430.72 65.3347 431.517 67.2667 431.517 69.536ZM438.998 83.52V81.68H463.838V83.52H458.962L468.898 105.784L474.878 90.788L471.842 83.52H468.438V81.68H491.438V83.52H487.39L497.326 105.784L505.882 83.52H498.522V81.68H513.518V83.52H507.998L492.45 124H490.518L475.982 93.548L463.93 124H461.998L443.322 83.52H438.998ZM562.745 122.16C562.132 122.773 560.967 123.325 559.249 123.816C557.532 124.245 555.539 124.46 553.269 124.46C548.24 124.46 545.081 122.957 543.793 119.952C540.727 123.141 536.035 124.736 529.717 124.736C526.344 124.736 523.553 123.969 521.345 122.436C519.199 120.841 518.125 118.511 518.125 115.444C518.125 111.335 519.72 108.176 522.909 105.968C526.099 103.699 531.68 102.104 539.653 101.184L543.333 100.724V96.216C543.333 90.88 542.935 87.292 542.137 85.452C541.34 83.612 539.745 82.692 537.353 82.692C535.023 82.692 533.52 83.0293 532.845 83.704C532.171 84.3173 531.925 85.0533 532.109 85.912C532.293 86.7093 532.6 87.7827 533.029 89.132C533.459 90.4813 533.673 91.5547 533.673 92.352C533.673 94.2533 532.999 95.8787 531.649 97.228C530.361 98.516 528.767 99.16 526.865 99.16C525.025 99.16 523.431 98.516 522.081 97.228C520.732 95.8787 520.057 94.2533 520.057 92.352C520.057 89.224 521.652 86.556 524.841 84.348C528.092 82.0787 532.907 80.944 539.285 80.944C545.725 80.944 550.295 82.2013 552.993 84.716C555.753 87.2307 557.133 91.6773 557.133 98.056V114.616C557.133 117.867 557.532 119.921 558.329 120.78C559.127 121.577 560.599 121.731 562.745 121.24V122.16ZM530.913 113.604C531.22 115.935 532.079 117.744 533.489 119.032C534.9 120.259 536.525 120.872 538.365 120.872C540.267 120.872 541.923 119.952 543.333 118.112V102.472L540.021 102.932C537.2 103.3 534.9 104.373 533.121 106.152C531.404 107.931 530.668 110.415 530.913 113.604ZM616.558 122.16H621.158V124H598.158V122.16H602.758V96.4C602.758 92.0453 602.114 88.948 600.826 87.108C599.538 85.268 597.606 84.348 595.03 84.348C591.534 84.348 588.743 86.188 586.658 89.868V122.16H591.258V124H568.258V122.16H572.858V83.52H568.258V81.68H586.658V86.464C587.823 84.8693 589.633 83.52 592.086 82.416C594.601 81.2507 597.299 80.668 600.182 80.668C611.099 80.668 616.558 86.5867 616.558 98.424V122.16Z" fill="#74448A"/>
<g filter="url(#filter0_d_5140_23389)">
<path d="M39.205 71.32V101.312C44.2343 101.312 47.669 100.239 49.509 98.092C51.349 95.884 52.269 92.0507 52.269 86.592C52.269 81.1333 51.349 77.2387 49.509 74.908C47.669 72.516 44.2343 71.32 39.205 71.32ZM43.805 119.16V121H20.805V119.16H25.405V71.32H20.805V69.48H39.113C57.145 68.6213 66.161 74.4173 66.161 86.868C66.161 92.388 63.8917 96.5893 59.353 99.472C54.8143 102.355 48.0983 103.581 39.205 103.152V119.16H43.805ZM92.1488 131.212C90.4928 134.769 88.7448 137.315 86.9048 138.848C85.0648 140.443 82.6115 141.24 79.5448 141.24C76.4782 141.24 74.0862 140.565 72.3688 139.216C70.6515 137.928 69.7928 136.18 69.7928 133.972C69.7928 131.825 70.4062 130.108 71.6328 128.82C72.9208 127.532 74.4542 126.888 76.2328 126.888C78.0115 126.888 79.5142 127.225 80.7408 127.9C81.9675 128.575 82.8262 129.311 83.3168 130.108C84.6662 132.255 85.9235 133.328 87.0888 133.328C88.3155 133.328 89.3888 132.285 90.3088 130.2L94.1728 121.092L72.6448 80.52H68.9648V78.68H93.7128V80.52H89.1128L101.441 104.808L112.021 80.52H104.661V78.68H119.749V80.52H114.229L92.1488 131.212ZM168.925 89.996H167.085C167.085 85.0893 165.521 80.5507 162.393 76.38C159.265 72.2093 154.788 70.124 148.961 70.124C145.71 70.124 143.012 72.0253 140.865 75.828C138.78 79.6307 137.737 86.132 137.737 95.332C137.737 104.532 138.78 111.033 140.865 114.836C143.012 118.639 146.324 120.54 150.801 120.54C155.34 120.54 159.142 119.129 162.209 116.308C165.337 113.487 167.269 109.5 168.005 104.348H169.845C168.986 110.42 166.84 114.959 163.405 117.964C160.032 120.908 155.984 122.38 151.261 122.38C142.122 122.38 135.1 120.203 130.193 115.848C125.348 111.432 122.925 104.563 122.925 95.24C122.925 85.856 125.286 79.0173 130.009 74.724C134.793 70.4307 141.11 68.284 148.961 68.284C153.193 68.284 157.302 69.4187 161.289 71.688C162.577 72.4853 163.62 72.884 164.417 72.884C165.276 72.884 165.95 72.516 166.441 71.78C166.932 70.9827 167.177 70.216 167.177 69.48H168.925V89.996ZM190.965 115.48C192.315 118.547 194.645 120.08 197.957 120.08C201.269 120.08 203.631 118.516 205.041 115.388C206.452 112.26 207.157 107.108 207.157 99.932C207.157 92.6947 206.452 87.512 205.041 84.384C203.631 81.1947 201.269 79.6 197.957 79.6C194.645 79.6 192.315 81.1947 190.965 84.384C189.616 87.512 188.941 92.6947 188.941 99.932C188.941 107.169 189.616 112.352 190.965 115.48ZM197.773 121.92C191.947 121.92 186.672 120.019 181.949 116.216C177.227 112.413 174.865 107.016 174.865 100.024C174.865 96.2827 175.54 92.94 176.889 89.996C178.3 87.052 180.14 84.7213 182.409 83.004C184.74 81.2867 187.224 79.9987 189.861 79.14C192.499 78.22 195.197 77.76 197.957 77.76C200.717 77.76 203.416 78.22 206.053 79.14C208.752 79.9987 211.236 81.2867 213.505 83.004C215.836 84.7213 217.707 87.052 219.117 89.996C220.528 92.94 221.233 96.252 221.233 99.932C221.233 103.612 220.528 106.893 219.117 109.776C217.707 112.659 215.836 114.959 213.505 116.676C208.844 120.172 203.6 121.92 197.773 121.92ZM276.015 119.16H280.615V121H257.615V119.16H262.215V93.4C262.215 89.0453 261.571 85.948 260.283 84.108C258.995 82.268 257.063 81.348 254.487 81.348C250.991 81.348 248.2 83.188 246.115 86.868V119.16H250.715V121H227.715V119.16H232.315V80.52H227.715V78.68H246.115V83.464C247.28 81.8693 249.09 80.52 251.543 79.416C254.058 78.2507 256.756 77.668 259.639 77.668C270.556 77.668 276.015 83.5867 276.015 95.424V119.16ZM351.766 85.12C351.766 79.6613 350.846 76.012 349.006 74.172C347.227 72.2707 343.854 71.32 338.886 71.32H336.126V119.16H342.566V121H315.886V119.16H322.326V71.32H319.566C314.659 71.32 311.286 72.2707 309.446 74.172C307.667 76.012 306.778 79.6613 306.778 85.12H304.938V69.48H353.606V85.12H351.766ZM403.777 119.16C403.163 119.773 401.998 120.325 400.281 120.816C398.563 121.245 396.57 121.46 394.301 121.46C389.271 121.46 386.113 119.957 384.825 116.952C381.758 120.141 377.066 121.736 370.749 121.736C367.375 121.736 364.585 120.969 362.377 119.436C360.23 117.841 359.157 115.511 359.157 112.444C359.157 108.335 360.751 105.176 363.941 102.968C367.13 100.699 372.711 99.104 380.685 98.184L384.365 97.724V93.216C384.365 87.88 383.966 84.292 383.169 82.452C382.371 80.612 380.777 79.692 378.385 79.692C376.054 79.692 374.551 80.0293 373.877 80.704C373.202 81.3173 372.957 82.0533 373.141 82.912C373.325 83.7093 373.631 84.7827 374.061 86.132C374.49 87.4813 374.705 88.5547 374.705 89.352C374.705 91.2533 374.03 92.8787 372.681 94.228C371.393 95.516 369.798 96.16 367.897 96.16C366.057 96.16 364.462 95.516 363.113 94.228C361.763 92.8787 361.089 91.2533 361.089 89.352C361.089 86.224 362.683 83.556 365.873 81.348C369.123 79.0787 373.938 77.944 380.317 77.944C386.757 77.944 391.326 79.2013 394.025 81.716C396.785 84.2307 398.165 88.6773 398.165 95.056V111.616C398.165 114.867 398.563 116.921 399.361 117.78C400.158 118.577 401.63 118.731 403.777 118.24V119.16ZM371.945 110.604C372.251 112.935 373.11 114.744 374.521 116.032C375.931 117.259 377.557 117.872 379.397 117.872C381.298 117.872 382.954 116.952 384.365 115.112V99.472L381.053 99.932C378.231 100.3 375.931 101.373 374.153 103.152C372.435 104.931 371.699 107.415 371.945 110.604ZM427.689 119.16H432.289V121H409.289V119.16H413.889V80.52H410.209V78.68H427.689V119.16ZM428.517 66.536C428.517 68.744 427.72 70.6453 426.125 72.24C424.592 73.7733 422.691 74.54 420.421 74.54C418.213 74.54 416.312 73.7733 414.717 72.24C413.123 70.6453 412.325 68.744 412.325 66.536C412.325 64.2667 413.123 62.3347 414.717 60.74C416.312 59.1453 418.213 58.348 420.421 58.348C422.691 58.348 424.592 59.1453 426.125 60.74C427.72 62.3347 428.517 64.2667 428.517 66.536ZM435.998 80.52V78.68H460.838V80.52H455.962L465.898 102.784L471.878 87.788L468.842 80.52H465.438V78.68H488.438V80.52H484.39L494.326 102.784L502.882 80.52H495.522V78.68H510.518V80.52H504.998L489.45 121H487.518L472.982 90.548L460.93 121H458.998L440.322 80.52H435.998ZM559.745 119.16C559.132 119.773 557.967 120.325 556.249 120.816C554.532 121.245 552.539 121.46 550.269 121.46C545.24 121.46 542.081 119.957 540.793 116.952C537.727 120.141 533.035 121.736 526.717 121.736C523.344 121.736 520.553 120.969 518.345 119.436C516.199 117.841 515.125 115.511 515.125 112.444C515.125 108.335 516.72 105.176 519.909 102.968C523.099 100.699 528.68 99.104 536.653 98.184L540.333 97.724V93.216C540.333 87.88 539.935 84.292 539.137 82.452C538.34 80.612 536.745 79.692 534.353 79.692C532.023 79.692 530.52 80.0293 529.845 80.704C529.171 81.3173 528.925 82.0533 529.109 82.912C529.293 83.7093 529.6 84.7827 530.029 86.132C530.459 87.4813 530.673 88.5547 530.673 89.352C530.673 91.2533 529.999 92.8787 528.649 94.228C527.361 95.516 525.767 96.16 523.865 96.16C522.025 96.16 520.431 95.516 519.081 94.228C517.732 92.8787 517.057 91.2533 517.057 89.352C517.057 86.224 518.652 83.556 521.841 81.348C525.092 79.0787 529.907 77.944 536.285 77.944C542.725 77.944 547.295 79.2013 549.993 81.716C552.753 84.2307 554.133 88.6773 554.133 95.056V111.616C554.133 114.867 554.532 116.921 555.329 117.78C556.127 118.577 557.599 118.731 559.745 118.24V119.16ZM527.913 110.604C528.22 112.935 529.079 114.744 530.489 116.032C531.9 117.259 533.525 117.872 535.365 117.872C537.267 117.872 538.923 116.952 540.333 115.112V99.472L537.021 99.932C534.2 100.3 531.9 101.373 530.121 103.152C528.404 104.931 527.668 107.415 527.913 110.604ZM613.558 119.16H618.158V121H595.158V119.16H599.758V93.4C599.758 89.0453 599.114 85.948 597.826 84.108C596.538 82.268 594.606 81.348 592.03 81.348C588.534 81.348 585.743 83.188 583.658 86.868V119.16H588.258V121H565.258V119.16H569.858V80.52H565.258V78.68H583.658V83.464C584.823 81.8693 586.633 80.52 589.086 79.416C591.601 78.2507 594.299 77.668 597.182 77.668C608.099 77.668 613.558 83.5867 613.558 95.424V119.16Z" fill="white"/>
</g>
<path d="M23.6492 197H22.8492V187.68H23.6492C23.6492 190.187 24.5426 192.32 26.3292 194.08C28.1426 195.84 30.3426 196.72 32.9292 196.72C33.9959 196.72 34.8492 196.413 35.4892 195.8C36.1559 195.16 36.4892 194.32 36.4892 193.28C36.4892 192.107 35.7292 191.107 34.2092 190.28C33.3826 189.853 31.9559 189.187 29.9292 188.28C27.9026 187.347 26.4759 186.56 25.6492 185.92C23.9959 184.64 23.2626 182.947 23.4492 180.84C23.6626 178.733 24.4626 177.107 25.8492 175.96C27.2359 174.787 28.7959 174.2 30.5292 174.2C32.2892 174.2 33.8626 174.44 35.2492 174.92C36.6626 175.373 37.4626 175.6 37.6492 175.6C38.1826 175.6 38.4492 175.133 38.4492 174.2H39.2492V181.52H38.4492C38.4492 179.6 37.7426 178.04 36.3292 176.84C34.9159 175.613 33.1026 175 30.8892 175C29.9026 175 29.1292 175.293 28.5692 175.88C28.0092 176.44 27.7292 177.067 27.7292 177.76C27.7292 178.453 27.8226 178.987 28.0092 179.36C28.1959 179.733 28.5159 180.08 28.9692 180.4C29.4492 180.693 29.8626 180.933 30.2092 181.12C30.5559 181.307 31.1026 181.56 31.8492 181.88C32.6226 182.2 33.1559 182.427 33.4492 182.56C34.9159 183.227 35.7826 183.627 36.0492 183.76C36.3159 183.867 36.7026 184.053 37.2092 184.32C37.7159 184.587 38.0892 184.827 38.3292 185.04C38.5959 185.253 38.9292 185.52 39.3292 185.84C39.7292 186.16 40.0226 186.493 40.2092 186.84C40.3959 187.16 40.5826 187.533 40.7692 187.96C41.1426 188.813 41.2759 189.813 41.1692 190.96C40.9559 193.12 40.1426 194.773 38.7292 195.92C37.3426 197.04 35.4626 197.6 33.0892 197.6C30.9559 197.6 28.8359 197.053 26.7292 195.96C26.0092 195.587 25.4759 195.4 25.1292 195.4C24.1426 195.4 23.6492 195.933 23.6492 197ZM62.0339 189H49.9539C50.2206 193.693 52.0472 196.04 55.4339 196.04C56.3406 196.04 57.3672 195.827 58.5139 195.4C59.6872 194.973 60.5406 194.373 61.0739 193.6L61.6339 194C61.0472 194.987 60.0472 195.8 58.6339 196.44C57.2206 197.08 55.8072 197.4 54.3939 197.4C53.0072 197.4 51.7539 197.267 50.6339 197C49.5139 196.707 48.4206 196.227 47.3539 195.56C46.2872 194.893 45.4472 193.893 44.8339 192.56C44.2472 191.227 43.9539 189.613 43.9539 187.72C43.9539 184.493 44.8472 182.107 46.6339 180.56C48.4206 178.987 50.5806 178.2 53.1139 178.2C55.6739 178.2 57.7939 179.053 59.4739 180.76C61.1806 182.467 62.0339 185.213 62.0339 189ZM49.9139 188.2H56.4339C56.4339 185.747 56.1672 183.6 55.6339 181.76C55.1272 179.92 54.3006 179 53.1539 179C52.0072 179 51.1806 179.893 50.6739 181.68C50.1672 183.44 49.9139 185.467 49.9139 187.76V188.2ZM72.1398 187.36V193.96C72.8598 195.4 73.7932 196.12 74.9398 196.12C76.1132 196.12 77.1132 195.453 77.9398 194.12C78.7665 192.787 79.1798 190.653 79.1798 187.72C79.1798 184.76 78.8598 182.693 78.2198 181.52C77.5798 180.32 76.6065 179.72 75.2998 179.72C73.9932 179.72 73.1398 180.253 72.7398 181.32C72.3398 182.387 72.1398 184.4 72.1398 187.36ZM72.1398 180.44C73.0465 178.893 74.6732 178.12 77.0198 178.12C79.3665 178.12 81.3265 178.973 82.8998 180.68C84.4732 182.387 85.2598 184.8 85.2598 187.92C85.2598 191.04 84.4865 193.48 82.9398 195.24C81.3932 197 79.5132 197.88 77.2998 197.88C76.2065 197.88 75.1798 197.653 74.2198 197.2C73.2598 196.747 72.5665 196.067 72.1398 195.16V204.6H74.1398V205.4H66.1398V179.4H64.1398V178.6H72.1398V180.44ZM95.4248 179.4V189.16C95.4248 191.453 95.5182 192.853 95.7048 193.36C95.8915 193.84 96.0915 194.253 96.3048 194.6C96.7048 195.293 97.3982 195.64 98.3848 195.64C99.3982 195.64 100.105 195.507 100.505 195.24V196.04C99.2248 196.947 97.8248 197.4 96.3048 197.4C94.0648 197.4 92.3582 196.867 91.1848 195.8C90.0115 194.733 89.4248 192.827 89.4248 190.08V179.4H86.4648V178.6H89.4248C90.7048 178.387 91.8382 177.773 92.8248 176.76C93.8115 175.72 94.4915 174.293 94.8648 172.48H95.4248V178.6H100.065V179.4H95.4248ZM120.198 189H108.118C108.385 193.693 110.211 196.04 113.598 196.04C114.505 196.04 115.531 195.827 116.678 195.4C117.851 194.973 118.705 194.373 119.238 193.6L119.798 194C119.211 194.987 118.211 195.8 116.798 196.44C115.385 197.08 113.971 197.4 112.558 197.4C111.171 197.4 109.918 197.267 108.798 197C107.678 196.707 106.585 196.227 105.518 195.56C104.451 194.893 103.611 193.893 102.998 192.56C102.411 191.227 102.118 189.613 102.118 187.72C102.118 184.493 103.011 182.107 104.798 180.56C106.585 178.987 108.745 178.2 111.278 178.2C113.838 178.2 115.958 179.053 117.638 180.76C119.345 182.467 120.198 185.213 120.198 189ZM108.078 188.2H114.598C114.598 185.747 114.331 183.6 113.798 181.76C113.291 179.92 112.465 179 111.318 179C110.171 179 109.345 179.893 108.838 181.68C108.331 183.44 108.078 185.467 108.078 187.76V188.2ZM156.704 196.2H158.704V197H148.704V196.2H150.704V185C150.704 183.107 150.424 181.76 149.864 180.96C149.304 180.16 148.464 179.76 147.344 179.76C146.704 179.76 146.037 179.947 145.344 180.32C144.651 180.693 144.077 181.213 143.624 181.88C143.944 182.84 144.104 184.173 144.104 185.88V196.2H146.104V197H135.704V196.2H138.104V185C138.104 183.107 137.824 181.76 137.264 180.96C136.704 180.16 135.864 179.76 134.744 179.76C133.224 179.76 132.011 180.56 131.104 182.16V196.2H133.104V197H123.104V196.2H125.104V179.4H123.104V178.6H131.104V180.68C131.611 179.987 132.397 179.4 133.464 178.92C134.557 178.413 135.731 178.16 136.984 178.16C140.157 178.16 142.224 179.053 143.184 180.84C143.877 179.987 144.797 179.333 145.944 178.88C147.091 178.4 148.304 178.16 149.584 178.16C154.331 178.16 156.704 180.733 156.704 185.88V196.2ZM168.302 190.76C168.302 192.787 168.529 194.253 168.982 195.16C169.436 196.04 170.156 196.48 171.142 196.48C172.156 196.48 173.049 195.733 173.822 194.24C174.596 192.72 174.982 190.6 174.982 187.88C174.982 185.133 174.569 183.027 173.742 181.56C172.942 180.093 171.996 179.36 170.902 179.36C169.809 179.36 168.942 179.987 168.302 181.24V190.76ZM177.702 195.6C176.716 196.24 175.756 196.693 174.822 196.96C173.889 197.227 172.969 197.36 172.062 197.36C171.182 197.36 170.369 197.2 169.622 196.88C168.876 196.533 168.276 196.173 167.822 195.8C167.396 195.4 166.916 195.04 166.382 194.72C165.849 194.373 165.342 194.2 164.862 194.2C164.382 194.2 163.956 194.467 163.582 195C163.236 195.533 163.062 196.2 163.062 197H162.302V171H160.302V170.2H168.302V180.04C168.729 179.32 169.422 178.76 170.382 178.36C171.369 177.933 172.396 177.72 173.462 177.72C175.489 177.72 177.249 178.613 178.742 180.4C180.262 182.16 181.022 184.627 181.022 187.8C181.022 189.667 180.716 191.267 180.102 192.6C179.489 193.933 178.689 194.933 177.702 195.6ZM201.487 189H189.407C189.674 193.693 191.5 196.04 194.887 196.04C195.794 196.04 196.82 195.827 197.967 195.4C199.14 194.973 199.994 194.373 200.527 193.6L201.087 194C200.5 194.987 199.5 195.8 198.087 196.44C196.674 197.08 195.26 197.4 193.847 197.4C192.46 197.4 191.207 197.267 190.087 197C188.967 196.707 187.874 196.227 186.807 195.56C185.74 194.893 184.9 193.893 184.287 192.56C183.7 191.227 183.407 189.613 183.407 187.72C183.407 184.493 184.3 182.107 186.087 180.56C187.874 178.987 190.034 178.2 192.567 178.2C195.127 178.2 197.247 179.053 198.927 180.76C200.634 182.467 201.487 185.213 201.487 189ZM189.367 188.2H195.887C195.887 185.747 195.62 183.6 195.087 181.76C194.58 179.92 193.754 179 192.607 179C191.46 179 190.634 179.893 190.127 181.68C189.62 183.44 189.367 185.467 189.367 187.76V188.2ZM214.393 197H204.393V196.2H206.393V179.4H204.393V178.6H212.393V183.36C212.633 182.053 213.06 180.987 213.673 180.16C214.313 179.333 215.006 178.787 215.753 178.52C216.526 178.253 217.26 178.12 217.953 178.12C218.673 178.12 219.353 178.253 219.993 178.52C220.66 178.76 221.153 179.267 221.473 180.04C221.793 180.787 221.806 181.547 221.513 182.32C221.22 183.067 220.7 183.6 219.953 183.92C219.233 184.24 218.566 184.28 217.953 184.04C217.34 183.8 216.9 183.48 216.633 183.08C216.366 182.653 216.18 182.253 216.073 181.88C215.806 180.893 215.446 180.4 214.993 180.4C214.486 180.4 213.926 181.28 213.313 183.04C212.7 184.773 212.393 186.613 212.393 188.56V196.2H214.393V197ZM239.603 173.52C245.683 173.52 248.723 175.36 248.723 179.04C248.723 180.507 248.136 181.747 246.963 182.76C245.816 183.773 244.163 184.333 242.003 184.44C244.429 184.467 246.389 185.013 247.883 186.08C249.403 187.147 250.163 188.6 250.163 190.44C250.163 192.707 249.243 194.48 247.403 195.76C245.589 197.013 243.016 197.64 239.683 197.64C237.363 197.64 235.549 197.133 234.243 196.12C232.963 195.08 232.323 193.707 232.323 192C232.323 190.933 232.603 190.067 233.163 189.4C233.749 188.733 234.509 188.4 235.443 188.4C236.376 188.4 237.096 188.653 237.603 189.16C238.136 189.667 238.403 190.293 238.403 191.04C238.403 191.76 238.203 192.333 237.803 192.76C237.403 193.187 236.963 193.453 236.483 193.56C235.229 193.853 234.603 194.28 234.603 194.84C234.603 195.373 234.976 195.813 235.723 196.16C236.496 196.507 237.376 196.68 238.363 196.68C239.909 196.68 241.163 196.12 242.123 195C243.083 193.88 243.563 192.373 243.563 190.48C243.563 188.56 243.136 187.147 242.283 186.24C241.456 185.333 239.936 184.88 237.723 184.88H237.083V184.08H237.723C239.429 184.08 240.656 183.573 241.403 182.56C242.149 181.52 242.523 180.347 242.523 179.04C242.523 177.733 242.149 176.64 241.403 175.76C240.656 174.88 239.709 174.44 238.563 174.44C237.416 174.44 236.549 174.627 235.963 175C235.376 175.373 235.083 175.773 235.083 176.2C235.083 176.6 235.243 176.893 235.563 177.08C235.909 177.267 236.283 177.413 236.683 177.52C237.109 177.6 237.483 177.827 237.803 178.2C238.149 178.573 238.323 179.08 238.323 179.72C238.323 180.36 238.096 180.907 237.643 181.36C237.189 181.813 236.549 182.04 235.723 182.04C234.896 182.04 234.216 181.747 233.683 181.16C233.149 180.573 232.883 179.773 232.883 178.76C232.883 177.293 233.483 176.053 234.683 175.04C235.909 174.027 237.549 173.52 239.603 173.52ZM253.377 189.08V186.04H260.217V189.08H253.377ZM280.536 187.84H281.456V194H280.536V191.28H277.576V196.2H280.176V197H268.976V196.2H271.576V191.28H262.216V190.48L273.576 173.72H277.576V190.48H280.536V187.84ZM271.576 190.48V178.12L263.256 190.48H271.576ZM289.186 196.8L287.546 197.04C286.773 197.04 286.08 196.773 285.466 196.24C284.853 195.707 284.546 194.947 284.546 193.96C284.546 192.947 284.866 192.107 285.506 191.44C286.173 190.773 287.093 190.44 288.266 190.44C289.466 190.44 290.44 190.893 291.186 191.8C291.933 192.707 292.306 193.733 292.306 194.88C292.306 196.533 291.76 198.053 290.666 199.44C289.6 200.853 288.053 202.013 286.026 202.92L285.746 202.2C288.52 200.573 289.906 199 289.906 197.48C289.906 197.027 289.666 196.8 289.186 196.8ZM322.382 191.32C322.382 193 321.982 194.44 321.182 195.64C320.408 196.813 319.262 197.4 317.742 197.4C316.248 197.4 314.502 196.907 312.502 195.92C310.502 194.907 309.062 194.4 308.182 194.4C306.608 194.4 305.635 195.267 305.262 197H304.462C304.622 194.973 305.368 193.067 306.702 191.28C307.608 190.08 309.528 188.04 312.462 185.16C313.235 184.387 313.928 183.467 314.542 182.4C315.155 181.333 315.462 180.187 315.462 178.96C315.462 177.733 315.102 176.68 314.382 175.8C313.662 174.92 312.595 174.48 311.182 174.48C310.275 174.48 309.448 174.653 308.702 175C307.955 175.347 307.582 175.747 307.582 176.2C307.582 176.627 307.755 176.947 308.102 177.16C308.475 177.373 308.862 177.547 309.262 177.68C309.688 177.787 310.075 178.053 310.422 178.48C310.795 178.907 310.982 179.48 310.982 180.2C310.982 180.92 310.715 181.533 310.182 182.04C309.675 182.547 308.968 182.8 308.062 182.8C307.155 182.8 306.408 182.467 305.822 181.8C305.235 181.133 304.942 180.28 304.942 179.24C304.942 177.613 305.635 176.253 307.022 175.16C308.435 174.067 310.395 173.52 312.902 173.52C315.435 173.52 317.582 174.067 319.342 175.16C321.102 176.253 321.982 177.76 321.982 179.68C321.982 181.253 321.608 182.587 320.862 183.68C320.142 184.773 319.208 185.6 318.062 186.16C316.942 186.72 315.782 187.213 314.582 187.64C313.408 188.04 312.248 188.52 311.102 189.08C309.982 189.613 309.182 190.24 308.702 190.96C309.342 190.427 310.168 190.16 311.182 190.16C312.195 190.16 313.342 190.333 314.622 190.68C315.928 191.027 316.955 191.2 317.702 191.2C318.448 191.2 319.062 191.16 319.542 191.08C320.022 191 320.475 190.773 320.902 190.4C321.328 190.027 321.582 189.493 321.662 188.8H322.062C322.275 189.653 322.382 190.493 322.382 191.32ZM345.675 185.56C345.675 189.16 344.781 192.053 342.995 194.24C341.208 196.4 338.795 197.48 335.755 197.48C332.741 197.48 330.355 196.4 328.595 194.24C326.861 192.08 325.995 189.027 325.995 185.08C325.995 181.827 326.861 179.093 328.595 176.88C330.355 174.64 332.781 173.52 335.875 173.52C338.995 173.52 341.408 174.627 343.115 176.84C344.821 179.027 345.675 181.933 345.675 185.56ZM339.715 185.08C339.715 177.907 338.421 174.32 335.835 174.32C333.248 174.32 331.955 177.907 331.955 185.08C331.955 188.92 332.235 191.813 332.795 193.76C333.355 195.707 334.381 196.68 335.875 196.68C337.368 196.68 338.381 195.72 338.915 193.8C339.448 191.88 339.715 188.973 339.715 185.08ZM366.405 191.32C366.405 193 366.005 194.44 365.205 195.64C364.432 196.813 363.285 197.4 361.765 197.4C360.272 197.4 358.525 196.907 356.525 195.92C354.525 194.907 353.085 194.4 352.205 194.4C350.632 194.4 349.658 195.267 349.285 197H348.485C348.645 194.973 349.392 193.067 350.725 191.28C351.632 190.08 353.552 188.04 356.485 185.16C357.258 184.387 357.952 183.467 358.565 182.4C359.178 181.333 359.485 180.187 359.485 178.96C359.485 177.733 359.125 176.68 358.405 175.8C357.685 174.92 356.618 174.48 355.205 174.48C354.298 174.48 353.472 174.653 352.725 175C351.978 175.347 351.605 175.747 351.605 176.2C351.605 176.627 351.778 176.947 352.125 177.16C352.498 177.373 352.885 177.547 353.285 177.68C353.712 177.787 354.098 178.053 354.445 178.48C354.818 178.907 355.005 179.48 355.005 180.2C355.005 180.92 354.738 181.533 354.205 182.04C353.698 182.547 352.992 182.8 352.085 182.8C351.178 182.8 350.432 182.467 349.845 181.8C349.258 181.133 348.965 180.28 348.965 179.24C348.965 177.613 349.658 176.253 351.045 175.16C352.458 174.067 354.418 173.52 356.925 173.52C359.458 173.52 361.605 174.067 363.365 175.16C365.125 176.253 366.005 177.76 366.005 179.68C366.005 181.253 365.632 182.587 364.885 183.68C364.165 184.773 363.232 185.6 362.085 186.16C360.965 186.72 359.805 187.213 358.605 187.64C357.432 188.04 356.272 188.52 355.125 189.08C354.005 189.613 353.205 190.24 352.725 190.96C353.365 190.427 354.192 190.16 355.205 190.16C356.218 190.16 357.365 190.333 358.645 190.68C359.952 191.027 360.978 191.2 361.725 191.2C362.472 191.2 363.085 191.16 363.565 191.08C364.045 191 364.498 190.773 364.925 190.4C365.352 190.027 365.605 189.493 365.685 188.8H366.085C366.298 189.653 366.405 190.493 366.405 191.32ZM387.538 191.32C387.538 193 387.138 194.44 386.338 195.64C385.565 196.813 384.418 197.4 382.898 197.4C381.405 197.4 379.658 196.907 377.658 195.92C375.658 194.907 374.218 194.4 373.338 194.4C371.765 194.4 370.791 195.267 370.418 197H369.618C369.778 194.973 370.525 193.067 371.858 191.28C372.765 190.08 374.685 188.04 377.618 185.16C378.391 184.387 379.085 183.467 379.698 182.4C380.311 181.333 380.618 180.187 380.618 178.96C380.618 177.733 380.258 176.68 379.538 175.8C378.818 174.92 377.751 174.48 376.338 174.48C375.431 174.48 374.605 174.653 373.858 175C373.111 175.347 372.738 175.747 372.738 176.2C372.738 176.627 372.911 176.947 373.258 177.16C373.631 177.373 374.018 177.547 374.418 177.68C374.845 177.787 375.231 178.053 375.578 178.48C375.951 178.907 376.138 179.48 376.138 180.2C376.138 180.92 375.871 181.533 375.338 182.04C374.831 182.547 374.125 182.8 373.218 182.8C372.311 182.8 371.565 182.467 370.978 181.8C370.391 181.133 370.098 180.28 370.098 179.24C370.098 177.613 370.791 176.253 372.178 175.16C373.591 174.067 375.551 173.52 378.058 173.52C380.591 173.52 382.738 174.067 384.498 175.16C386.258 176.253 387.138 177.76 387.138 179.68C387.138 181.253 386.765 182.587 386.018 183.68C385.298 184.773 384.365 185.6 383.218 186.16C382.098 186.72 380.938 187.213 379.738 187.64C378.565 188.04 377.405 188.52 376.258 189.08C375.138 189.613 374.338 190.24 373.858 190.96C374.498 190.427 375.325 190.16 376.338 190.16C377.351 190.16 378.498 190.333 379.778 190.68C381.085 191.027 382.111 191.2 382.858 191.2C383.605 191.2 384.218 191.16 384.698 191.08C385.178 191 385.631 190.773 386.058 190.4C386.485 190.027 386.738 189.493 386.818 188.8H387.218C387.431 189.653 387.538 190.493 387.538 191.32Z" fill="#74448A"/>
<g filter="url(#filter1_d_5140_23389)">
<path d="M21.6492 195H20.8492V185.68H21.6492C21.6492 188.187 22.5426 190.32 24.3292 192.08C26.1426 193.84 28.3426 194.72 30.9292 194.72C31.9959 194.72 32.8492 194.413 33.4892 193.8C34.1559 193.16 34.4892 192.32 34.4892 191.28C34.4892 190.107 33.7292 189.107 32.2092 188.28C31.3826 187.853 29.9559 187.187 27.9292 186.28C25.9026 185.347 24.4759 184.56 23.6492 183.92C21.9959 182.64 21.2626 180.947 21.4492 178.84C21.6626 176.733 22.4626 175.107 23.8492 173.96C25.2359 172.787 26.7959 172.2 28.5292 172.2C30.2892 172.2 31.8626 172.44 33.2492 172.92C34.6626 173.373 35.4626 173.6 35.6492 173.6C36.1826 173.6 36.4492 173.133 36.4492 172.2H37.2492V179.52H36.4492C36.4492 177.6 35.7426 176.04 34.3292 174.84C32.9159 173.613 31.1026 173 28.8892 173C27.9026 173 27.1292 173.293 26.5692 173.88C26.0092 174.44 25.7292 175.067 25.7292 175.76C25.7292 176.453 25.8226 176.987 26.0092 177.36C26.1959 177.733 26.5159 178.08 26.9692 178.4C27.4492 178.693 27.8626 178.933 28.2092 179.12C28.5559 179.307 29.1026 179.56 29.8492 179.88C30.6226 180.2 31.1559 180.427 31.4492 180.56C32.9159 181.227 33.7826 181.627 34.0492 181.76C34.3159 181.867 34.7026 182.053 35.2092 182.32C35.7159 182.587 36.0892 182.827 36.3292 183.04C36.5959 183.253 36.9292 183.52 37.3292 183.84C37.7292 184.16 38.0226 184.493 38.2092 184.84C38.3959 185.16 38.5826 185.533 38.7692 185.96C39.1426 186.813 39.2759 187.813 39.1692 188.96C38.9559 191.12 38.1426 192.773 36.7292 193.92C35.3426 195.04 33.4626 195.6 31.0892 195.6C28.9559 195.6 26.8359 195.053 24.7292 193.96C24.0092 193.587 23.4759 193.4 23.1292 193.4C22.1426 193.4 21.6492 193.933 21.6492 195ZM60.0339 187H47.9539C48.2206 191.693 50.0472 194.04 53.4339 194.04C54.3406 194.04 55.3672 193.827 56.5139 193.4C57.6872 192.973 58.5406 192.373 59.0739 191.6L59.6339 192C59.0472 192.987 58.0472 193.8 56.6339 194.44C55.2206 195.08 53.8072 195.4 52.3939 195.4C51.0072 195.4 49.7539 195.267 48.6339 195C47.5139 194.707 46.4206 194.227 45.3539 193.56C44.2872 192.893 43.4472 191.893 42.8339 190.56C42.2472 189.227 41.9539 187.613 41.9539 185.72C41.9539 182.493 42.8472 180.107 44.6339 178.56C46.4206 176.987 48.5806 176.2 51.1139 176.2C53.6739 176.2 55.7939 177.053 57.4739 178.76C59.1806 180.467 60.0339 183.213 60.0339 187ZM47.9139 186.2H54.4339C54.4339 183.747 54.1672 181.6 53.6339 179.76C53.1272 177.92 52.3006 177 51.1539 177C50.0072 177 49.1806 177.893 48.6739 179.68C48.1672 181.44 47.9139 183.467 47.9139 185.76V186.2ZM70.1398 185.36V191.96C70.8598 193.4 71.7932 194.12 72.9398 194.12C74.1132 194.12 75.1132 193.453 75.9398 192.12C76.7665 190.787 77.1798 188.653 77.1798 185.72C77.1798 182.76 76.8598 180.693 76.2198 179.52C75.5798 178.32 74.6065 177.72 73.2998 177.72C71.9932 177.72 71.1398 178.253 70.7398 179.32C70.3398 180.387 70.1398 182.4 70.1398 185.36ZM70.1398 178.44C71.0465 176.893 72.6732 176.12 75.0198 176.12C77.3665 176.12 79.3265 176.973 80.8998 178.68C82.4732 180.387 83.2598 182.8 83.2598 185.92C83.2598 189.04 82.4865 191.48 80.9398 193.24C79.3932 195 77.5132 195.88 75.2998 195.88C74.2065 195.88 73.1798 195.653 72.2198 195.2C71.2598 194.747 70.5665 194.067 70.1398 193.16V202.6H72.1398V203.4H64.1398V177.4H62.1398V176.6H70.1398V178.44ZM93.4248 177.4V187.16C93.4248 189.453 93.5182 190.853 93.7048 191.36C93.8915 191.84 94.0915 192.253 94.3048 192.6C94.7048 193.293 95.3982 193.64 96.3848 193.64C97.3982 193.64 98.1048 193.507 98.5048 193.24V194.04C97.2248 194.947 95.8248 195.4 94.3048 195.4C92.0648 195.4 90.3582 194.867 89.1848 193.8C88.0115 192.733 87.4248 190.827 87.4248 188.08V177.4H84.4648V176.6H87.4248C88.7048 176.387 89.8382 175.773 90.8248 174.76C91.8115 173.72 92.4915 172.293 92.8648 170.48H93.4248V176.6H98.0648V177.4H93.4248ZM118.198 187H106.118C106.385 191.693 108.211 194.04 111.598 194.04C112.505 194.04 113.531 193.827 114.678 193.4C115.851 192.973 116.705 192.373 117.238 191.6L117.798 192C117.211 192.987 116.211 193.8 114.798 194.44C113.385 195.08 111.971 195.4 110.558 195.4C109.171 195.4 107.918 195.267 106.798 195C105.678 194.707 104.585 194.227 103.518 193.56C102.451 192.893 101.611 191.893 100.998 190.56C100.411 189.227 100.118 187.613 100.118 185.72C100.118 182.493 101.011 180.107 102.798 178.56C104.585 176.987 106.745 176.2 109.278 176.2C111.838 176.2 113.958 177.053 115.638 178.76C117.345 180.467 118.198 183.213 118.198 187ZM106.078 186.2H112.598C112.598 183.747 112.331 181.6 111.798 179.76C111.291 177.92 110.465 177 109.318 177C108.171 177 107.345 177.893 106.838 179.68C106.331 181.44 106.078 183.467 106.078 185.76V186.2ZM154.704 194.2H156.704V195H146.704V194.2H148.704V183C148.704 181.107 148.424 179.76 147.864 178.96C147.304 178.16 146.464 177.76 145.344 177.76C144.704 177.76 144.037 177.947 143.344 178.32C142.651 178.693 142.077 179.213 141.624 179.88C141.944 180.84 142.104 182.173 142.104 183.88V194.2H144.104V195H133.704V194.2H136.104V183C136.104 181.107 135.824 179.76 135.264 178.96C134.704 178.16 133.864 177.76 132.744 177.76C131.224 177.76 130.011 178.56 129.104 180.16V194.2H131.104V195H121.104V194.2H123.104V177.4H121.104V176.6H129.104V178.68C129.611 177.987 130.397 177.4 131.464 176.92C132.557 176.413 133.731 176.16 134.984 176.16C138.157 176.16 140.224 177.053 141.184 178.84C141.877 177.987 142.797 177.333 143.944 176.88C145.091 176.4 146.304 176.16 147.584 176.16C152.331 176.16 154.704 178.733 154.704 183.88V194.2ZM166.302 188.76C166.302 190.787 166.529 192.253 166.982 193.16C167.436 194.04 168.156 194.48 169.142 194.48C170.156 194.48 171.049 193.733 171.822 192.24C172.596 190.72 172.982 188.6 172.982 185.88C172.982 183.133 172.569 181.027 171.742 179.56C170.942 178.093 169.996 177.36 168.902 177.36C167.809 177.36 166.942 177.987 166.302 179.24V188.76ZM175.702 193.6C174.716 194.24 173.756 194.693 172.822 194.96C171.889 195.227 170.969 195.36 170.062 195.36C169.182 195.36 168.369 195.2 167.622 194.88C166.876 194.533 166.276 194.173 165.822 193.8C165.396 193.4 164.916 193.04 164.382 192.72C163.849 192.373 163.342 192.2 162.862 192.2C162.382 192.2 161.956 192.467 161.582 193C161.236 193.533 161.062 194.2 161.062 195H160.302V169H158.302V168.2H166.302V178.04C166.729 177.32 167.422 176.76 168.382 176.36C169.369 175.933 170.396 175.72 171.462 175.72C173.489 175.72 175.249 176.613 176.742 178.4C178.262 180.16 179.022 182.627 179.022 185.8C179.022 187.667 178.716 189.267 178.102 190.6C177.489 191.933 176.689 192.933 175.702 193.6ZM199.487 187H187.407C187.674 191.693 189.5 194.04 192.887 194.04C193.794 194.04 194.82 193.827 195.967 193.4C197.14 192.973 197.994 192.373 198.527 191.6L199.087 192C198.5 192.987 197.5 193.8 196.087 194.44C194.674 195.08 193.26 195.4 191.847 195.4C190.46 195.4 189.207 195.267 188.087 195C186.967 194.707 185.874 194.227 184.807 193.56C183.74 192.893 182.9 191.893 182.287 190.56C181.7 189.227 181.407 187.613 181.407 185.72C181.407 182.493 182.3 180.107 184.087 178.56C185.874 176.987 188.034 176.2 190.567 176.2C193.127 176.2 195.247 177.053 196.927 178.76C198.634 180.467 199.487 183.213 199.487 187ZM187.367 186.2H193.887C193.887 183.747 193.62 181.6 193.087 179.76C192.58 177.92 191.754 177 190.607 177C189.46 177 188.634 177.893 188.127 179.68C187.62 181.44 187.367 183.467 187.367 185.76V186.2ZM212.393 195H202.393V194.2H204.393V177.4H202.393V176.6H210.393V181.36C210.633 180.053 211.06 178.987 211.673 178.16C212.313 177.333 213.006 176.787 213.753 176.52C214.526 176.253 215.26 176.12 215.953 176.12C216.673 176.12 217.353 176.253 217.993 176.52C218.66 176.76 219.153 177.267 219.473 178.04C219.793 178.787 219.806 179.547 219.513 180.32C219.22 181.067 218.7 181.6 217.953 181.92C217.233 182.24 216.566 182.28 215.953 182.04C215.34 181.8 214.9 181.48 214.633 181.08C214.366 180.653 214.18 180.253 214.073 179.88C213.806 178.893 213.446 178.4 212.993 178.4C212.486 178.4 211.926 179.28 211.313 181.04C210.7 182.773 210.393 184.613 210.393 186.56V194.2H212.393V195ZM237.603 171.52C243.683 171.52 246.723 173.36 246.723 177.04C246.723 178.507 246.136 179.747 244.963 180.76C243.816 181.773 242.163 182.333 240.003 182.44C242.429 182.467 244.389 183.013 245.883 184.08C247.403 185.147 248.163 186.6 248.163 188.44C248.163 190.707 247.243 192.48 245.403 193.76C243.589 195.013 241.016 195.64 237.683 195.64C235.363 195.64 233.549 195.133 232.243 194.12C230.963 193.08 230.323 191.707 230.323 190C230.323 188.933 230.603 188.067 231.163 187.4C231.749 186.733 232.509 186.4 233.443 186.4C234.376 186.4 235.096 186.653 235.603 187.16C236.136 187.667 236.403 188.293 236.403 189.04C236.403 189.76 236.203 190.333 235.803 190.76C235.403 191.187 234.963 191.453 234.483 191.56C233.229 191.853 232.603 192.28 232.603 192.84C232.603 193.373 232.976 193.813 233.723 194.16C234.496 194.507 235.376 194.68 236.363 194.68C237.909 194.68 239.163 194.12 240.123 193C241.083 191.88 241.563 190.373 241.563 188.48C241.563 186.56 241.136 185.147 240.283 184.24C239.456 183.333 237.936 182.88 235.723 182.88H235.083V182.08H235.723C237.429 182.08 238.656 181.573 239.403 180.56C240.149 179.52 240.523 178.347 240.523 177.04C240.523 175.733 240.149 174.64 239.403 173.76C238.656 172.88 237.709 172.44 236.563 172.44C235.416 172.44 234.549 172.627 233.963 173C233.376 173.373 233.083 173.773 233.083 174.2C233.083 174.6 233.243 174.893 233.563 175.08C233.909 175.267 234.283 175.413 234.683 175.52C235.109 175.6 235.483 175.827 235.803 176.2C236.149 176.573 236.323 177.08 236.323 177.72C236.323 178.36 236.096 178.907 235.643 179.36C235.189 179.813 234.549 180.04 233.723 180.04C232.896 180.04 232.216 179.747 231.683 179.16C231.149 178.573 230.883 177.773 230.883 176.76C230.883 175.293 231.483 174.053 232.683 173.04C233.909 172.027 235.549 171.52 237.603 171.52ZM251.377 187.08V184.04H258.217V187.08H251.377ZM278.536 185.84H279.456V192H278.536V189.28H275.576V194.2H278.176V195H266.976V194.2H269.576V189.28H260.216V188.48L271.576 171.72H275.576V188.48H278.536V185.84ZM269.576 188.48V176.12L261.256 188.48H269.576ZM287.186 194.8L285.546 195.04C284.773 195.04 284.08 194.773 283.466 194.24C282.853 193.707 282.546 192.947 282.546 191.96C282.546 190.947 282.866 190.107 283.506 189.44C284.173 188.773 285.093 188.44 286.266 188.44C287.466 188.44 288.44 188.893 289.186 189.8C289.933 190.707 290.306 191.733 290.306 192.88C290.306 194.533 289.76 196.053 288.666 197.44C287.6 198.853 286.053 200.013 284.026 200.92L283.746 200.2C286.52 198.573 287.906 197 287.906 195.48C287.906 195.027 287.666 194.8 287.186 194.8ZM320.382 189.32C320.382 191 319.982 192.44 319.182 193.64C318.408 194.813 317.262 195.4 315.742 195.4C314.248 195.4 312.502 194.907 310.502 193.92C308.502 192.907 307.062 192.4 306.182 192.4C304.608 192.4 303.635 193.267 303.262 195H302.462C302.622 192.973 303.368 191.067 304.702 189.28C305.608 188.08 307.528 186.04 310.462 183.16C311.235 182.387 311.928 181.467 312.542 180.4C313.155 179.333 313.462 178.187 313.462 176.96C313.462 175.733 313.102 174.68 312.382 173.8C311.662 172.92 310.595 172.48 309.182 172.48C308.275 172.48 307.448 172.653 306.702 173C305.955 173.347 305.582 173.747 305.582 174.2C305.582 174.627 305.755 174.947 306.102 175.16C306.475 175.373 306.862 175.547 307.262 175.68C307.688 175.787 308.075 176.053 308.422 176.48C308.795 176.907 308.982 177.48 308.982 178.2C308.982 178.92 308.715 179.533 308.182 180.04C307.675 180.547 306.968 180.8 306.062 180.8C305.155 180.8 304.408 180.467 303.822 179.8C303.235 179.133 302.942 178.28 302.942 177.24C302.942 175.613 303.635 174.253 305.022 173.16C306.435 172.067 308.395 171.52 310.902 171.52C313.435 171.52 315.582 172.067 317.342 173.16C319.102 174.253 319.982 175.76 319.982 177.68C319.982 179.253 319.608 180.587 318.862 181.68C318.142 182.773 317.208 183.6 316.062 184.16C314.942 184.72 313.782 185.213 312.582 185.64C311.408 186.04 310.248 186.52 309.102 187.08C307.982 187.613 307.182 188.24 306.702 188.96C307.342 188.427 308.168 188.16 309.182 188.16C310.195 188.16 311.342 188.333 312.622 188.68C313.928 189.027 314.955 189.2 315.702 189.2C316.448 189.2 317.062 189.16 317.542 189.08C318.022 189 318.475 188.773 318.902 188.4C319.328 188.027 319.582 187.493 319.662 186.8H320.062C320.275 187.653 320.382 188.493 320.382 189.32ZM343.675 183.56C343.675 187.16 342.781 190.053 340.995 192.24C339.208 194.4 336.795 195.48 333.755 195.48C330.741 195.48 328.355 194.4 326.595 192.24C324.861 190.08 323.995 187.027 323.995 183.08C323.995 179.827 324.861 177.093 326.595 174.88C328.355 172.64 330.781 171.52 333.875 171.52C336.995 171.52 339.408 172.627 341.115 174.84C342.821 177.027 343.675 179.933 343.675 183.56ZM337.715 183.08C337.715 175.907 336.421 172.32 333.835 172.32C331.248 172.32 329.955 175.907 329.955 183.08C329.955 186.92 330.235 189.813 330.795 191.76C331.355 193.707 332.381 194.68 333.875 194.68C335.368 194.68 336.381 193.72 336.915 191.8C337.448 189.88 337.715 186.973 337.715 183.08ZM364.405 189.32C364.405 191 364.005 192.44 363.205 193.64C362.432 194.813 361.285 195.4 359.765 195.4C358.272 195.4 356.525 194.907 354.525 193.92C352.525 192.907 351.085 192.4 350.205 192.4C348.632 192.4 347.658 193.267 347.285 195H346.485C346.645 192.973 347.392 191.067 348.725 189.28C349.632 188.08 351.552 186.04 354.485 183.16C355.258 182.387 355.952 181.467 356.565 180.4C357.178 179.333 357.485 178.187 357.485 176.96C357.485 175.733 357.125 174.68 356.405 173.8C355.685 172.92 354.618 172.48 353.205 172.48C352.298 172.48 351.472 172.653 350.725 173C349.978 173.347 349.605 173.747 349.605 174.2C349.605 174.627 349.778 174.947 350.125 175.16C350.498 175.373 350.885 175.547 351.285 175.68C351.712 175.787 352.098 176.053 352.445 176.48C352.818 176.907 353.005 177.48 353.005 178.2C353.005 178.92 352.738 179.533 352.205 180.04C351.698 180.547 350.992 180.8 350.085 180.8C349.178 180.8 348.432 180.467 347.845 179.8C347.258 179.133 346.965 178.28 346.965 177.24C346.965 175.613 347.658 174.253 349.045 173.16C350.458 172.067 352.418 171.52 354.925 171.52C357.458 171.52 359.605 172.067 361.365 173.16C363.125 174.253 364.005 175.76 364.005 177.68C364.005 179.253 363.632 180.587 362.885 181.68C362.165 182.773 361.232 183.6 360.085 184.16C358.965 184.72 357.805 185.213 356.605 185.64C355.432 186.04 354.272 186.52 353.125 187.08C352.005 187.613 351.205 188.24 350.725 188.96C351.365 188.427 352.192 188.16 353.205 188.16C354.218 188.16 355.365 188.333 356.645 188.68C357.952 189.027 358.978 189.2 359.725 189.2C360.472 189.2 361.085 189.16 361.565 189.08C362.045 189 362.498 188.773 362.925 188.4C363.352 188.027 363.605 187.493 363.685 186.8H364.085C364.298 187.653 364.405 188.493 364.405 189.32ZM385.538 189.32C385.538 191 385.138 192.44 384.338 193.64C383.565 194.813 382.418 195.4 380.898 195.4C379.405 195.4 377.658 194.907 375.658 193.92C373.658 192.907 372.218 192.4 371.338 192.4C369.765 192.4 368.791 193.267 368.418 195H367.618C367.778 192.973 368.525 191.067 369.858 189.28C370.765 188.08 372.685 186.04 375.618 183.16C376.391 182.387 377.085 181.467 377.698 180.4C378.311 179.333 378.618 178.187 378.618 176.96C378.618 175.733 378.258 174.68 377.538 173.8C376.818 172.92 375.751 172.48 374.338 172.48C373.431 172.48 372.605 172.653 371.858 173C371.111 173.347 370.738 173.747 370.738 174.2C370.738 174.627 370.911 174.947 371.258 175.16C371.631 175.373 372.018 175.547 372.418 175.68C372.845 175.787 373.231 176.053 373.578 176.48C373.951 176.907 374.138 177.48 374.138 178.2C374.138 178.92 373.871 179.533 373.338 180.04C372.831 180.547 372.125 180.8 371.218 180.8C370.311 180.8 369.565 180.467 368.978 179.8C368.391 179.133 368.098 178.28 368.098 177.24C368.098 175.613 368.791 174.253 370.178 173.16C371.591 172.067 373.551 171.52 376.058 171.52C378.591 171.52 380.738 172.067 382.498 173.16C384.258 174.253 385.138 175.76 385.138 177.68C385.138 179.253 384.765 180.587 384.018 181.68C383.298 182.773 382.365 183.6 381.218 184.16C380.098 184.72 378.938 185.213 377.738 185.64C376.565 186.04 375.405 186.52 374.258 187.08C373.138 187.613 372.338 188.24 371.858 188.96C372.498 188.427 373.325 188.16 374.338 188.16C375.351 188.16 376.498 188.333 377.778 188.68C379.085 189.027 380.111 189.2 380.858 189.2C381.605 189.2 382.218 189.16 382.698 189.08C383.178 189 383.631 188.773 384.058 188.4C384.485 188.027 384.738 187.493 384.818 186.8H385.218C385.431 187.653 385.538 188.493 385.538 189.32Z" fill="white"/>
</g>
<path d="M34.3928 26.46V27H27.2918V26.46H28.8848L27.0758 22.707H21.6218L20.0558 26.46H22.1888V27H17.5718V26.46H19.3808L25.5638 11.61H26.2388L33.0968 26.46H34.3928ZM21.8648 22.14H26.8058L24.1598 16.632L21.8648 22.14ZM34.9214 15.12V14.58H42.2114V15.12H40.7804L43.6964 21.654L45.4514 17.253L44.5604 15.12H43.5614V14.58H50.3114V15.12H49.1234L52.0394 21.654L54.5504 15.12H52.3904V14.58H56.7914V15.12H55.1714L50.6084 27H50.0414L45.7754 18.063L42.2384 27H41.6714L36.1904 15.12H34.9214ZM70.0775 21.6H61.9235C62.1035 24.768 63.3365 26.352 65.6225 26.352C66.2345 26.352 66.9275 26.208 67.7015 25.92C68.4935 25.632 69.0695 25.227 69.4295 24.705L69.8075 24.975C69.4115 25.641 68.7365 26.19 67.7825 26.622C66.8285 27.054 65.8745 27.27 64.9205 27.27C63.9845 27.27 63.1385 27.18 62.3825 27C61.6265 26.802 60.8885 26.478 60.1685 26.028C59.4485 25.578 58.8815 24.903 58.4675 24.003C58.0715 23.103 57.8735 22.014 57.8735 20.736C57.8735 18.558 58.4765 16.947 59.6825 15.903C60.8885 14.841 62.3465 14.31 64.0565 14.31C65.7845 14.31 67.2155 14.886 68.3495 16.038C69.5015 17.19 70.0775 19.044 70.0775 21.6ZM61.8965 21.06H66.2975C66.2975 19.404 66.1175 17.955 65.7575 16.713C65.4155 15.471 64.8575 14.85 64.0835 14.85C63.3095 14.85 62.7515 15.453 62.4095 16.659C62.0675 17.847 61.8965 19.215 61.8965 20.763V21.06ZM78.114 26.784C79.986 26.784 80.922 26.271 80.922 25.245C80.922 24.669 80.598 24.201 79.95 23.841C79.302 23.463 78.519 23.157 77.601 22.923C76.683 22.689 75.774 22.419 74.874 22.113C73.992 21.807 73.254 21.321 72.66 20.655C72.084 19.989 71.85 19.116 71.958 18.036C72.066 16.956 72.615 16.065 73.605 15.363C74.613 14.661 75.846 14.31 77.304 14.31C78.78 14.31 79.968 14.544 80.868 15.012C81.768 15.48 82.272 16.11 82.38 16.902C82.452 17.388 82.371 17.838 82.137 18.252C81.921 18.666 81.552 18.882 81.03 18.9C80.526 18.918 80.103 18.783 79.761 18.495C79.437 18.207 79.284 17.874 79.302 17.496C79.32 17.118 79.464 16.785 79.734 16.497C80.004 16.191 80.139 15.948 80.139 15.768C80.139 15.462 79.842 15.237 79.248 15.093C78.672 14.931 77.997 14.85 77.223 14.85C76.467 14.85 75.846 15.021 75.36 15.363C74.874 15.705 74.631 16.128 74.631 16.632C74.631 17.136 74.928 17.568 75.522 17.928C76.134 18.288 76.872 18.585 77.736 18.819C78.6 19.035 79.455 19.287 80.301 19.575C81.165 19.845 81.894 20.286 82.488 20.898C83.1 21.51 83.406 22.284 83.406 23.22C83.406 24.462 82.965 25.461 82.083 26.217C81.201 26.955 79.869 27.324 78.087 27.324C76.305 27.324 74.856 27.054 73.74 26.514C72.642 25.974 72.039 25.281 71.931 24.435C71.859 23.949 71.94 23.499 72.174 23.085C72.408 22.671 72.777 22.455 73.281 22.437C73.785 22.419 74.199 22.554 74.523 22.842C74.865 23.13 75.027 23.463 75.009 23.841C74.991 24.219 74.847 24.561 74.577 24.867C74.307 25.155 74.172 25.389 74.172 25.569C74.172 25.929 74.586 26.226 75.414 26.46C76.26 26.676 77.16 26.784 78.114 26.784ZM89.3084 25.38C89.7044 26.28 90.3884 26.73 91.3604 26.73C92.3324 26.73 93.0254 26.271 93.4394 25.353C93.8534 24.435 94.0604 22.923 94.0604 20.817C94.0604 18.693 93.8534 17.172 93.4394 16.254C93.0254 15.318 92.3324 14.85 91.3604 14.85C90.3884 14.85 89.7044 15.318 89.3084 16.254C88.9124 17.172 88.7144 18.693 88.7144 20.817C88.7144 22.941 88.9124 24.462 89.3084 25.38ZM91.3064 27.27C89.5964 27.27 88.0484 26.712 86.6624 25.596C85.2764 24.48 84.5834 22.896 84.5834 20.844C84.5834 19.746 84.7814 18.765 85.1774 17.901C85.5914 17.037 86.1314 16.353 86.7974 15.849C87.4814 15.345 88.2104 14.967 88.9844 14.715C89.7584 14.445 90.5504 14.31 91.3604 14.31C92.1704 14.31 92.9624 14.445 93.7364 14.715C94.5284 14.967 95.2574 15.345 95.9234 15.849C96.6074 16.353 97.1564 17.037 97.5704 17.901C97.9844 18.765 98.1914 19.737 98.1914 20.817C98.1914 21.897 97.9844 22.86 97.5704 23.706C97.1564 24.552 96.6074 25.227 95.9234 25.731C94.5554 26.757 93.0164 27.27 91.3064 27.27ZM122.774 26.46H124.124V27H117.374V26.46H118.724V18.9C118.724 17.622 118.535 16.713 118.157 16.173C117.779 15.633 117.212 15.363 116.456 15.363C116.024 15.363 115.574 15.489 115.106 15.741C114.638 15.993 114.251 16.344 113.945 16.794C114.161 17.442 114.269 18.342 114.269 19.494V26.46H115.619V27H108.599V26.46H110.219V18.9C110.219 17.622 110.03 16.713 109.652 16.173C109.274 15.633 108.707 15.363 107.951 15.363C106.925 15.363 106.106 15.903 105.494 16.983V26.46H106.844V27H100.094V26.46H101.444V15.12H100.094V14.58H105.494V15.984C105.836 15.516 106.367 15.12 107.087 14.796C107.825 14.454 108.617 14.283 109.463 14.283C111.605 14.283 113 14.886 113.648 16.092C114.116 15.516 114.737 15.075 115.511 14.769C116.285 14.445 117.104 14.283 117.968 14.283C121.172 14.283 122.774 16.02 122.774 19.494V26.46ZM137.947 21.6H129.793C129.973 24.768 131.206 26.352 133.492 26.352C134.104 26.352 134.797 26.208 135.571 25.92C136.363 25.632 136.939 25.227 137.299 24.705L137.677 24.975C137.281 25.641 136.606 26.19 135.652 26.622C134.698 27.054 133.744 27.27 132.79 27.27C131.854 27.27 131.008 27.18 130.252 27C129.496 26.802 128.758 26.478 128.038 26.028C127.318 25.578 126.751 24.903 126.337 24.003C125.941 23.103 125.743 22.014 125.743 20.736C125.743 18.558 126.346 16.947 127.552 15.903C128.758 14.841 130.216 14.31 131.926 14.31C133.654 14.31 135.085 14.886 136.219 16.038C137.371 17.19 137.947 19.044 137.947 21.6ZM129.766 21.06H134.167C134.167 19.404 133.987 17.955 133.627 16.713C133.285 15.471 132.727 14.85 131.953 14.85C131.179 14.85 130.621 15.453 130.279 16.659C129.937 17.847 129.766 19.215 129.766 20.763V21.06ZM151.109 12.42V21.222C152.585 21.222 153.593 20.907 154.133 20.277C154.673 19.629 154.943 18.504 154.943 16.902C154.943 15.3 154.673 14.157 154.133 13.473C153.593 12.771 152.585 12.42 151.109 12.42ZM152.459 26.46V27H145.709V26.46H147.059V12.42H145.709V11.88H151.082C156.374 11.628 159.02 13.329 159.02 16.983C159.02 18.603 158.354 19.836 157.022 20.682C155.69 21.528 153.719 21.888 151.109 21.762V26.46H152.459ZM166.647 29.997C166.161 31.041 165.648 31.788 165.108 32.238C164.568 32.706 163.848 32.94 162.948 32.94C162.048 32.94 161.346 32.742 160.842 32.346C160.338 31.968 160.086 31.455 160.086 30.807C160.086 30.177 160.266 29.673 160.626 29.295C161.004 28.917 161.454 28.728 161.976 28.728C162.498 28.728 162.939 28.827 163.299 29.025C163.659 29.223 163.911 29.439 164.055 29.673C164.451 30.303 164.82 30.618 165.162 30.618C165.522 30.618 165.837 30.312 166.107 29.7L167.241 27.027L160.923 15.12H159.843V14.58H167.106V15.12H165.756L169.374 22.248L172.479 15.12H170.319V14.58H174.747V15.12H173.127L166.647 29.997ZM181.052 15.12V21.708C181.052 23.256 181.115 24.201 181.241 24.543C181.367 24.867 181.502 25.146 181.646 25.38C181.916 25.848 182.384 26.082 183.05 26.082C183.734 26.082 184.211 25.992 184.481 25.812V26.352C183.617 26.964 182.672 27.27 181.646 27.27C180.134 27.27 178.982 26.91 178.19 26.19C177.398 25.47 177.002 24.183 177.002 22.329V15.12H175.004V14.58H177.002C177.866 14.436 178.631 14.022 179.297 13.338C179.963 12.636 180.422 11.673 180.674 10.449H181.052V14.58H184.184V15.12H181.052ZM200.015 26.46H201.365V27H194.615V26.46H195.965V18.9C195.965 17.622 195.776 16.713 195.398 16.173C195.02 15.633 194.453 15.363 193.697 15.363C192.671 15.363 191.852 15.903 191.24 16.983V26.46H192.59V27H185.84V26.46H187.19V9.45H185.84V8.91H191.24V15.984C191.582 15.498 192.113 15.093 192.833 14.769C193.553 14.445 194.345 14.283 195.209 14.283C198.413 14.283 200.015 16.02 200.015 19.494V26.46ZM207.697 25.38C208.093 26.28 208.777 26.73 209.749 26.73C210.721 26.73 211.414 26.271 211.828 25.353C212.242 24.435 212.449 22.923 212.449 20.817C212.449 18.693 212.242 17.172 211.828 16.254C211.414 15.318 210.721 14.85 209.749 14.85C208.777 14.85 208.093 15.318 207.697 16.254C207.301 17.172 207.103 18.693 207.103 20.817C207.103 22.941 207.301 24.462 207.697 25.38ZM209.695 27.27C207.985 27.27 206.437 26.712 205.051 25.596C203.665 24.48 202.972 22.896 202.972 20.844C202.972 19.746 203.17 18.765 203.566 17.901C203.98 17.037 204.52 16.353 205.186 15.849C205.87 15.345 206.599 14.967 207.373 14.715C208.147 14.445 208.939 14.31 209.749 14.31C210.559 14.31 211.351 14.445 212.125 14.715C212.917 14.967 213.646 15.345 214.312 15.849C214.996 16.353 215.545 17.037 215.959 17.901C216.373 18.765 216.58 19.737 216.58 20.817C216.58 21.897 216.373 22.86 215.959 23.706C215.545 24.552 214.996 25.227 214.312 25.731C212.944 26.757 211.405 27.27 209.695 27.27ZM232.657 26.46H234.007V27H227.257V26.46H228.607V18.9C228.607 17.622 228.418 16.713 228.04 16.173C227.662 15.633 227.095 15.363 226.339 15.363C225.313 15.363 224.494 15.903 223.882 16.983V26.46H225.232V27H218.482V26.46H219.832V15.12H218.482V14.58H223.882V15.984C224.224 15.516 224.755 15.12 225.475 14.796C226.213 14.454 227.005 14.283 227.851 14.283C231.055 14.283 232.657 16.02 232.657 19.494V26.46ZM257.696 26.46V27H250.595V26.46H252.188L250.379 22.707H244.925L243.359 26.46H245.492V27H240.875V26.46H242.684L248.867 11.61H249.542L256.4 26.46H257.696ZM245.168 22.14H250.109L247.463 16.632L245.168 22.14ZM258.225 15.12V14.58H265.515V15.12H264.084L267 21.654L268.755 17.253L267.864 15.12H266.865V14.58H273.615V15.12H272.427L275.343 21.654L277.854 15.12H275.694V14.58H280.095V15.12H278.475L273.912 27H273.345L269.079 18.063L265.542 27H264.975L259.494 15.12H258.225ZM293.381 21.6H285.227C285.407 24.768 286.64 26.352 288.926 26.352C289.538 26.352 290.231 26.208 291.005 25.92C291.797 25.632 292.373 25.227 292.733 24.705L293.111 24.975C292.715 25.641 292.04 26.19 291.086 26.622C290.132 27.054 289.178 27.27 288.224 27.27C287.288 27.27 286.442 27.18 285.686 27C284.93 26.802 284.192 26.478 283.472 26.028C282.752 25.578 282.185 24.903 281.771 24.003C281.375 23.103 281.177 22.014 281.177 20.736C281.177 18.558 281.78 16.947 282.986 15.903C284.192 14.841 285.65 14.31 287.36 14.31C289.088 14.31 290.519 14.886 291.653 16.038C292.805 17.19 293.381 19.044 293.381 21.6ZM285.2 21.06H289.601C289.601 19.404 289.421 17.955 289.061 16.713C288.719 15.471 288.161 14.85 287.387 14.85C286.613 14.85 286.055 15.453 285.713 16.659C285.371 17.847 285.2 19.215 285.2 20.763V21.06ZM301.418 26.784C303.29 26.784 304.226 26.271 304.226 25.245C304.226 24.669 303.902 24.201 303.254 23.841C302.606 23.463 301.823 23.157 300.905 22.923C299.987 22.689 299.078 22.419 298.178 22.113C297.296 21.807 296.558 21.321 295.964 20.655C295.388 19.989 295.154 19.116 295.262 18.036C295.37 16.956 295.919 16.065 296.909 15.363C297.917 14.661 299.15 14.31 300.608 14.31C302.084 14.31 303.272 14.544 304.172 15.012C305.072 15.48 305.576 16.11 305.684 16.902C305.756 17.388 305.675 17.838 305.441 18.252C305.225 18.666 304.856 18.882 304.334 18.9C303.83 18.918 303.407 18.783 303.065 18.495C302.741 18.207 302.588 17.874 302.606 17.496C302.624 17.118 302.768 16.785 303.038 16.497C303.308 16.191 303.443 15.948 303.443 15.768C303.443 15.462 303.146 15.237 302.552 15.093C301.976 14.931 301.301 14.85 300.527 14.85C299.771 14.85 299.15 15.021 298.664 15.363C298.178 15.705 297.935 16.128 297.935 16.632C297.935 17.136 298.232 17.568 298.826 17.928C299.438 18.288 300.176 18.585 301.04 18.819C301.904 19.035 302.759 19.287 303.605 19.575C304.469 19.845 305.198 20.286 305.792 20.898C306.404 21.51 306.71 22.284 306.71 23.22C306.71 24.462 306.269 25.461 305.387 26.217C304.505 26.955 303.173 27.324 301.391 27.324C299.609 27.324 298.16 27.054 297.044 26.514C295.946 25.974 295.343 25.281 295.235 24.435C295.163 23.949 295.244 23.499 295.478 23.085C295.712 22.671 296.081 22.455 296.585 22.437C297.089 22.419 297.503 22.554 297.827 22.842C298.169 23.13 298.331 23.463 298.313 23.841C298.295 24.219 298.151 24.561 297.881 24.867C297.611 25.155 297.476 25.389 297.476 25.569C297.476 25.929 297.89 26.226 298.718 26.46C299.564 26.676 300.464 26.784 301.418 26.784ZM312.612 25.38C313.008 26.28 313.692 26.73 314.664 26.73C315.636 26.73 316.329 26.271 316.743 25.353C317.157 24.435 317.364 22.923 317.364 20.817C317.364 18.693 317.157 17.172 316.743 16.254C316.329 15.318 315.636 14.85 314.664 14.85C313.692 14.85 313.008 15.318 312.612 16.254C312.216 17.172 312.018 18.693 312.018 20.817C312.018 22.941 312.216 24.462 312.612 25.38ZM314.61 27.27C312.9 27.27 311.352 26.712 309.966 25.596C308.58 24.48 307.887 22.896 307.887 20.844C307.887 19.746 308.085 18.765 308.481 17.901C308.895 17.037 309.435 16.353 310.101 15.849C310.785 15.345 311.514 14.967 312.288 14.715C313.062 14.445 313.854 14.31 314.664 14.31C315.474 14.31 316.266 14.445 317.04 14.715C317.832 14.967 318.561 15.345 319.227 15.849C319.911 16.353 320.46 17.037 320.874 17.901C321.288 18.765 321.495 19.737 321.495 20.817C321.495 21.897 321.288 22.86 320.874 23.706C320.46 24.552 319.911 25.227 319.227 25.731C317.859 26.757 316.32 27.27 314.61 27.27ZM346.077 26.46H347.427V27H340.677V26.46H342.027V18.9C342.027 17.622 341.838 16.713 341.46 16.173C341.082 15.633 340.515 15.363 339.759 15.363C339.327 15.363 338.877 15.489 338.409 15.741C337.941 15.993 337.554 16.344 337.248 16.794C337.464 17.442 337.572 18.342 337.572 19.494V26.46H338.922V27H331.902V26.46H333.522V18.9C333.522 17.622 333.333 16.713 332.955 16.173C332.577 15.633 332.01 15.363 331.254 15.363C330.228 15.363 329.409 15.903 328.797 16.983V26.46H330.147V27H323.397V26.46H324.747V15.12H323.397V14.58H328.797V15.984C329.139 15.516 329.67 15.12 330.39 14.796C331.128 14.454 331.92 14.283 332.766 14.283C334.908 14.283 336.303 14.886 336.951 16.092C337.419 15.516 338.04 15.075 338.814 14.769C339.588 14.445 340.407 14.283 341.271 14.283C344.475 14.283 346.077 16.02 346.077 19.494V26.46ZM361.25 21.6H353.096C353.276 24.768 354.509 26.352 356.795 26.352C357.407 26.352 358.1 26.208 358.874 25.92C359.666 25.632 360.242 25.227 360.602 24.705L360.98 24.975C360.584 25.641 359.909 26.19 358.955 26.622C358.001 27.054 357.047 27.27 356.093 27.27C355.157 27.27 354.311 27.18 353.555 27C352.799 26.802 352.061 26.478 351.341 26.028C350.621 25.578 350.054 24.903 349.64 24.003C349.244 23.103 349.046 22.014 349.046 20.736C349.046 18.558 349.649 16.947 350.855 15.903C352.061 14.841 353.519 14.31 355.229 14.31C356.957 14.31 358.388 14.886 359.522 16.038C360.674 17.19 361.25 19.044 361.25 21.6ZM353.069 21.06H357.47C357.47 19.404 357.29 17.955 356.93 16.713C356.588 15.471 356.03 14.85 355.256 14.85C354.482 14.85 353.924 15.453 353.582 16.659C353.24 17.847 353.069 19.215 353.069 20.763V21.06ZM382.108 17.901H381.568C381.568 16.461 381.109 15.129 380.191 13.905C379.273 12.681 377.959 12.069 376.249 12.069C375.295 12.069 374.503 12.627 373.873 13.743C373.261 14.859 372.955 16.767 372.955 19.467C372.955 22.167 373.261 24.075 373.873 25.191C374.503 26.307 375.475 26.865 376.789 26.865C378.121 26.865 379.237 26.451 380.137 25.623C381.055 24.795 381.622 23.625 381.838 22.113H382.378C382.126 23.895 381.496 25.227 380.488 26.109C379.498 26.973 378.31 27.405 376.924 27.405C374.242 27.405 372.181 26.766 370.741 25.488C369.319 24.192 368.608 22.176 368.608 19.44C368.608 16.686 369.301 14.679 370.687 13.419C372.091 12.159 373.945 11.529 376.249 11.529C377.491 11.529 378.697 11.862 379.867 12.528C380.245 12.762 380.551 12.879 380.785 12.879C381.037 12.879 381.235 12.771 381.379 12.555C381.523 12.321 381.595 12.096 381.595 11.88H382.108V17.901ZM388.576 25.38C388.972 26.28 389.656 26.73 390.628 26.73C391.6 26.73 392.293 26.271 392.707 25.353C393.121 24.435 393.328 22.923 393.328 20.817C393.328 18.693 393.121 17.172 392.707 16.254C392.293 15.318 391.6 14.85 390.628 14.85C389.656 14.85 388.972 15.318 388.576 16.254C388.18 17.172 387.982 18.693 387.982 20.817C387.982 22.941 388.18 24.462 388.576 25.38ZM390.574 27.27C388.864 27.27 387.316 26.712 385.93 25.596C384.544 24.48 383.851 22.896 383.851 20.844C383.851 19.746 384.049 18.765 384.445 17.901C384.859 17.037 385.399 16.353 386.065 15.849C386.749 15.345 387.478 14.967 388.252 14.715C389.026 14.445 389.818 14.31 390.628 14.31C391.438 14.31 392.23 14.445 393.004 14.715C393.796 14.967 394.525 15.345 395.191 15.849C395.875 16.353 396.424 17.037 396.838 17.901C397.252 18.765 397.459 19.737 397.459 20.817C397.459 21.897 397.252 22.86 396.838 23.706C396.424 24.552 395.875 25.227 395.191 25.731C393.823 26.757 392.284 27.27 390.574 27.27ZM422.041 26.46H423.391V27H416.641V26.46H417.991V18.9C417.991 17.622 417.802 16.713 417.424 16.173C417.046 15.633 416.479 15.363 415.723 15.363C415.291 15.363 414.841 15.489 414.373 15.741C413.905 15.993 413.518 16.344 413.212 16.794C413.428 17.442 413.536 18.342 413.536 19.494V26.46H414.886V27H407.866V26.46H409.486V18.9C409.486 17.622 409.297 16.713 408.919 16.173C408.541 15.633 407.974 15.363 407.218 15.363C406.192 15.363 405.373 15.903 404.761 16.983V26.46H406.111V27H399.361V26.46H400.711V15.12H399.361V14.58H404.761V15.984C405.103 15.516 405.634 15.12 406.354 14.796C407.092 14.454 407.884 14.283 408.73 14.283C410.872 14.283 412.267 14.886 412.915 16.092C413.383 15.516 414.004 15.075 414.778 14.769C415.552 14.445 416.371 14.283 417.235 14.283C420.439 14.283 422.041 16.02 422.041 19.494V26.46ZM447.96 26.46H449.31V27H442.56V26.46H443.91V18.9C443.91 17.622 443.721 16.713 443.343 16.173C442.965 15.633 442.398 15.363 441.642 15.363C441.21 15.363 440.76 15.489 440.292 15.741C439.824 15.993 439.437 16.344 439.131 16.794C439.347 17.442 439.455 18.342 439.455 19.494V26.46H440.805V27H433.785V26.46H435.405V18.9C435.405 17.622 435.216 16.713 434.838 16.173C434.46 15.633 433.893 15.363 433.137 15.363C432.111 15.363 431.292 15.903 430.68 16.983V26.46H432.03V27H425.28V26.46H426.63V15.12H425.28V14.58H430.68V15.984C431.022 15.516 431.553 15.12 432.273 14.796C433.011 14.454 433.803 14.283 434.649 14.283C436.791 14.283 438.186 14.886 438.834 16.092C439.302 15.516 439.923 15.075 440.697 14.769C441.471 14.445 442.29 14.283 443.154 14.283C446.358 14.283 447.96 16.02 447.96 19.494V26.46ZM460.514 27V25.569C460.172 26.055 459.632 26.469 458.894 26.811C458.174 27.135 457.391 27.297 456.545 27.297C453.341 27.297 451.739 25.56 451.739 22.086V15.12H450.389V14.58H455.789V22.68C455.789 23.958 455.978 24.867 456.356 25.407C456.734 25.947 457.301 26.217 458.057 26.217C459.065 26.217 459.884 25.677 460.514 24.597V15.12H459.164V14.58H464.564V26.46H465.914V27H460.514ZM481.985 26.46H483.335V27H476.585V26.46H477.935V18.9C477.935 17.622 477.746 16.713 477.368 16.173C476.99 15.633 476.423 15.363 475.667 15.363C474.641 15.363 473.822 15.903 473.21 16.983V26.46H474.56V27H467.81V26.46H469.16V15.12H467.81V14.58H473.21V15.984C473.552 15.516 474.083 15.12 474.803 14.796C475.541 14.454 476.333 14.283 477.179 14.283C480.383 14.283 481.985 16.02 481.985 19.494V26.46ZM490.613 26.46H491.963V27H485.213V26.46H486.563V15.12H485.483V14.58H490.613V26.46ZM490.856 11.016C490.856 11.664 490.622 12.222 490.154 12.69C489.704 13.14 489.146 13.365 488.48 13.365C487.832 13.365 487.274 13.14 486.806 12.69C486.338 12.222 486.104 11.664 486.104 11.016C486.104 10.35 486.338 9.783 486.806 9.315C487.274 8.847 487.832 8.613 488.48 8.613C489.146 8.613 489.704 8.847 490.154 9.315C490.622 9.783 490.856 10.35 490.856 11.016ZM498.829 15.12V21.708C498.829 23.256 498.892 24.201 499.018 24.543C499.144 24.867 499.279 25.146 499.423 25.38C499.693 25.848 500.161 26.082 500.827 26.082C501.511 26.082 501.988 25.992 502.258 25.812V26.352C501.394 26.964 500.449 27.27 499.423 27.27C497.911 27.27 496.759 26.91 495.967 26.19C495.175 25.47 494.779 24.183 494.779 22.329V15.12H492.781V14.58H494.779C495.643 14.436 496.408 14.022 497.074 13.338C497.74 12.636 498.199 11.673 498.451 10.449H498.829V14.58H501.961V15.12H498.829ZM509.341 29.997C508.855 31.041 508.342 31.788 507.802 32.238C507.262 32.706 506.542 32.94 505.642 32.94C504.742 32.94 504.04 32.742 503.536 32.346C503.032 31.968 502.78 31.455 502.78 30.807C502.78 30.177 502.96 29.673 503.32 29.295C503.698 28.917 504.148 28.728 504.67 28.728C505.192 28.728 505.633 28.827 505.993 29.025C506.353 29.223 506.605 29.439 506.749 29.673C507.145 30.303 507.514 30.618 507.856 30.618C508.216 30.618 508.531 30.312 508.801 29.7L509.935 27.027L503.617 15.12H502.537V14.58H509.8V15.12H508.45L512.068 22.248L515.173 15.12H513.013V14.58H517.441V15.12H515.821L509.341 29.997Z" fill="url(#paint0_linear_5140_23389)"/>
<defs>
<filter id="filter0_d_5140_23389" x="0.804688" y="38.3477" width="637.354" height="122.893" filterUnits="userSpaceOnUse" color-interpolation-filters="sRGB">
<feFlood flood-opacity="0" result="BackgroundImageFix"/>
<feColorMatrix in="SourceAlpha" type="matrix" values="0 0 0 0 0 0 0 0 0 0 0 0 0 0 0 0 0 0 127 0" result="hardAlpha"/>
<feOffset/>
<feGaussianBlur stdDeviation="10"/>
<feComposite in2="hardAlpha" operator="out"/>
<feColorMatrix type="matrix" values="0 0 0 0 0.891667 0 0 0 0 0.891667 0 0 0 0 0.891667 0 0 0 0.45 0"/>
<feBlend mode="normal" in2="BackgroundImageFix" result="effect1_dropShadow_5140_23389"/>
<feBlend mode="normal" in="SourceGraphic" in2="effect1_dropShadow_5140_23389" result="shape"/>
</filter>
<filter id="filter1_d_5140_23389" x="0.849609" y="148.2" width="404.688" height="75.2002" filterUnits="userSpaceOnUse" color-interpolation-filters="sRGB">
<feFlood flood-opacity="0" result="BackgroundImageFix"/>
<feColorMatrix in="SourceAlpha" type="matrix" values="0 0 0 0 0 0 0 0 0 0 0 0 0 0 0 0 0 0 127 0" result="hardAlpha"/>
<feOffset/>
<feGaussianBlur stdDeviation="10"/>
<feComposite in2="hardAlpha" operator="out"/>
<feColorMatrix type="matrix" values="0 0 0 0 0.9125 0 0 0 0 0.9125 0 0 0 0 0.9125 0 0 0 0.45 0"/>
<feBlend mode="normal" in2="BackgroundImageFix" result="effect1_dropShadow_5140_23389"/>
<feBlend mode="normal" in="SourceGraphic" in2="effect1_dropShadow_5140_23389" result="shape"/>
</filter>
<linearGradient id="paint0_linear_5140_23389" x1="50.5" y1="18.9999" x2="493.5" y2="18.9999" gradientUnits="userSpaceOnUse">
<stop stop-color="#6FC4E0"/>
<stop offset="0.947917" stop-color="#5F5BCF"/>
</linearGradient>
</defs>
</svg>
