<svg width="640" height="229" viewBox="0 0 640 229" fill="none" xmlns="http://www.w3.org/2000/svg">
<path d="M36.3928 27.46V28H29.2918V27.46H30.8848L29.0758 23.707H23.6218L22.0558 27.46H24.1888V28H19.5718V27.46H21.3808L27.5638 12.61H28.2388L35.0968 27.46H36.3928ZM23.8648 23.14H28.8058L26.1598 17.632L23.8648 23.14ZM36.9214 16.12V15.58H44.2114V16.12H42.7804L45.6964 22.654L47.4514 18.253L46.5604 16.12H45.5614V15.58H52.3114V16.12H51.1234L54.0394 22.654L56.5504 16.12H54.3904V15.58H58.7914V16.12H57.1714L52.6084 28H52.0414L47.7754 19.063L44.2384 28H43.6714L38.1904 16.12H36.9214ZM72.0775 22.6H63.9235C64.1035 25.768 65.3365 27.352 67.6225 27.352C68.2345 27.352 68.9275 27.208 69.7015 26.92C70.4935 26.632 71.0695 26.227 71.4295 25.705L71.8075 25.975C71.4115 26.641 70.7365 27.19 69.7825 27.622C68.8285 28.054 67.8745 28.27 66.9205 28.27C65.9845 28.27 65.1385 28.18 64.3825 28C63.6265 27.802 62.8885 27.478 62.1685 27.028C61.4485 26.578 60.8815 25.903 60.4675 25.003C60.0715 24.103 59.8735 23.014 59.8735 21.736C59.8735 19.558 60.4765 17.947 61.6825 16.903C62.8885 15.841 64.3465 15.31 66.0565 15.31C67.7845 15.31 69.2155 15.886 70.3495 17.038C71.5015 18.19 72.0775 20.044 72.0775 22.6ZM63.8965 22.06H68.2975C68.2975 20.404 68.1175 18.955 67.7575 17.713C67.4155 16.471 66.8575 15.85 66.0835 15.85C65.3095 15.85 64.7515 16.453 64.4095 17.659C64.0675 18.847 63.8965 20.215 63.8965 21.763V22.06ZM80.114 27.784C81.986 27.784 82.922 27.271 82.922 26.245C82.922 25.669 82.598 25.201 81.95 24.841C81.302 24.463 80.519 24.157 79.601 23.923C78.683 23.689 77.774 23.419 76.874 23.113C75.992 22.807 75.254 22.321 74.66 21.655C74.084 20.989 73.85 20.116 73.958 19.036C74.066 17.956 74.615 17.065 75.605 16.363C76.613 15.661 77.846 15.31 79.304 15.31C80.78 15.31 81.968 15.544 82.868 16.012C83.768 16.48 84.272 17.11 84.38 17.902C84.452 18.388 84.371 18.838 84.137 19.252C83.921 19.666 83.552 19.882 83.03 19.9C82.526 19.918 82.103 19.783 81.761 19.495C81.437 19.207 81.284 18.874 81.302 18.496C81.32 18.118 81.464 17.785 81.734 17.497C82.004 17.191 82.139 16.948 82.139 16.768C82.139 16.462 81.842 16.237 81.248 16.093C80.672 15.931 79.997 15.85 79.223 15.85C78.467 15.85 77.846 16.021 77.36 16.363C76.874 16.705 76.631 17.128 76.631 17.632C76.631 18.136 76.928 18.568 77.522 18.928C78.134 19.288 78.872 19.585 79.736 19.819C80.6 20.035 81.455 20.287 82.301 20.575C83.165 20.845 83.894 21.286 84.488 21.898C85.1 22.51 85.406 23.284 85.406 24.22C85.406 25.462 84.965 26.461 84.083 27.217C83.201 27.955 81.869 28.324 80.087 28.324C78.305 28.324 76.856 28.054 75.74 27.514C74.642 26.974 74.039 26.281 73.931 25.435C73.859 24.949 73.94 24.499 74.174 24.085C74.408 23.671 74.777 23.455 75.281 23.437C75.785 23.419 76.199 23.554 76.523 23.842C76.865 24.13 77.027 24.463 77.009 24.841C76.991 25.219 76.847 25.561 76.577 25.867C76.307 26.155 76.172 26.389 76.172 26.569C76.172 26.929 76.586 27.226 77.414 27.46C78.26 27.676 79.16 27.784 80.114 27.784ZM91.3084 26.38C91.7044 27.28 92.3884 27.73 93.3604 27.73C94.3324 27.73 95.0254 27.271 95.4394 26.353C95.8534 25.435 96.0604 23.923 96.0604 21.817C96.0604 19.693 95.8534 18.172 95.4394 17.254C95.0254 16.318 94.3324 15.85 93.3604 15.85C92.3884 15.85 91.7044 16.318 91.3084 17.254C90.9124 18.172 90.7144 19.693 90.7144 21.817C90.7144 23.941 90.9124 25.462 91.3084 26.38ZM93.3064 28.27C91.5964 28.27 90.0484 27.712 88.6624 26.596C87.2764 25.48 86.5834 23.896 86.5834 21.844C86.5834 20.746 86.7814 19.765 87.1774 18.901C87.5914 18.037 88.1314 17.353 88.7974 16.849C89.4814 16.345 90.2104 15.967 90.9844 15.715C91.7584 15.445 92.5504 15.31 93.3604 15.31C94.1704 15.31 94.9624 15.445 95.7364 15.715C96.5284 15.967 97.2574 16.345 97.9234 16.849C98.6074 17.353 99.1564 18.037 99.5704 18.901C99.9844 19.765 100.191 20.737 100.191 21.817C100.191 22.897 99.9844 23.86 99.5704 24.706C99.1564 25.552 98.6074 26.227 97.9234 26.731C96.5554 27.757 95.0164 28.27 93.3064 28.27ZM124.774 27.46H126.124V28H119.374V27.46H120.724V19.9C120.724 18.622 120.535 17.713 120.157 17.173C119.779 16.633 119.212 16.363 118.456 16.363C118.024 16.363 117.574 16.489 117.106 16.741C116.638 16.993 116.251 17.344 115.945 17.794C116.161 18.442 116.269 19.342 116.269 20.494V27.46H117.619V28H110.599V27.46H112.219V19.9C112.219 18.622 112.03 17.713 111.652 17.173C111.274 16.633 110.707 16.363 109.951 16.363C108.925 16.363 108.106 16.903 107.494 17.983V27.46H108.844V28H102.094V27.46H103.444V16.12H102.094V15.58H107.494V16.984C107.836 16.516 108.367 16.12 109.087 15.796C109.825 15.454 110.617 15.283 111.463 15.283C113.605 15.283 115 15.886 115.648 17.092C116.116 16.516 116.737 16.075 117.511 15.769C118.285 15.445 119.104 15.283 119.968 15.283C123.172 15.283 124.774 17.02 124.774 20.494V27.46ZM139.947 22.6H131.793C131.973 25.768 133.206 27.352 135.492 27.352C136.104 27.352 136.797 27.208 137.571 26.92C138.363 26.632 138.939 26.227 139.299 25.705L139.677 25.975C139.281 26.641 138.606 27.19 137.652 27.622C136.698 28.054 135.744 28.27 134.79 28.27C133.854 28.27 133.008 28.18 132.252 28C131.496 27.802 130.758 27.478 130.038 27.028C129.318 26.578 128.751 25.903 128.337 25.003C127.941 24.103 127.743 23.014 127.743 21.736C127.743 19.558 128.346 17.947 129.552 16.903C130.758 15.841 132.216 15.31 133.926 15.31C135.654 15.31 137.085 15.886 138.219 17.038C139.371 18.19 139.947 20.044 139.947 22.6ZM131.766 22.06H136.167C136.167 20.404 135.987 18.955 135.627 17.713C135.285 16.471 134.727 15.85 133.953 15.85C133.179 15.85 132.621 16.453 132.279 17.659C131.937 18.847 131.766 20.215 131.766 21.763V22.06ZM153.109 13.42V22.222C154.585 22.222 155.593 21.907 156.133 21.277C156.673 20.629 156.943 19.504 156.943 17.902C156.943 16.3 156.673 15.157 156.133 14.473C155.593 13.771 154.585 13.42 153.109 13.42ZM154.459 27.46V28H147.709V27.46H149.059V13.42H147.709V12.88H153.082C158.374 12.628 161.02 14.329 161.02 17.983C161.02 19.603 160.354 20.836 159.022 21.682C157.69 22.528 155.719 22.888 153.109 22.762V27.46H154.459ZM168.647 30.997C168.161 32.041 167.648 32.788 167.108 33.238C166.568 33.706 165.848 33.94 164.948 33.94C164.048 33.94 163.346 33.742 162.842 33.346C162.338 32.968 162.086 32.455 162.086 31.807C162.086 31.177 162.266 30.673 162.626 30.295C163.004 29.917 163.454 29.728 163.976 29.728C164.498 29.728 164.939 29.827 165.299 30.025C165.659 30.223 165.911 30.439 166.055 30.673C166.451 31.303 166.82 31.618 167.162 31.618C167.522 31.618 167.837 31.312 168.107 30.7L169.241 28.027L162.923 16.12H161.843V15.58H169.106V16.12H167.756L171.374 23.248L174.479 16.12H172.319V15.58H176.747V16.12H175.127L168.647 30.997ZM183.052 16.12V22.708C183.052 24.256 183.115 25.201 183.241 25.543C183.367 25.867 183.502 26.146 183.646 26.38C183.916 26.848 184.384 27.082 185.05 27.082C185.734 27.082 186.211 26.992 186.481 26.812V27.352C185.617 27.964 184.672 28.27 183.646 28.27C182.134 28.27 180.982 27.91 180.19 27.19C179.398 26.47 179.002 25.183 179.002 23.329V16.12H177.004V15.58H179.002C179.866 15.436 180.631 15.022 181.297 14.338C181.963 13.636 182.422 12.673 182.674 11.449H183.052V15.58H186.184V16.12H183.052ZM202.015 27.46H203.365V28H196.615V27.46H197.965V19.9C197.965 18.622 197.776 17.713 197.398 17.173C197.02 16.633 196.453 16.363 195.697 16.363C194.671 16.363 193.852 16.903 193.24 17.983V27.46H194.59V28H187.84V27.46H189.19V10.45H187.84V9.91H193.24V16.984C193.582 16.498 194.113 16.093 194.833 15.769C195.553 15.445 196.345 15.283 197.209 15.283C200.413 15.283 202.015 17.02 202.015 20.494V27.46ZM209.697 26.38C210.093 27.28 210.777 27.73 211.749 27.73C212.721 27.73 213.414 27.271 213.828 26.353C214.242 25.435 214.449 23.923 214.449 21.817C214.449 19.693 214.242 18.172 213.828 17.254C213.414 16.318 212.721 15.85 211.749 15.85C210.777 15.85 210.093 16.318 209.697 17.254C209.301 18.172 209.103 19.693 209.103 21.817C209.103 23.941 209.301 25.462 209.697 26.38ZM211.695 28.27C209.985 28.27 208.437 27.712 207.051 26.596C205.665 25.48 204.972 23.896 204.972 21.844C204.972 20.746 205.17 19.765 205.566 18.901C205.98 18.037 206.52 17.353 207.186 16.849C207.87 16.345 208.599 15.967 209.373 15.715C210.147 15.445 210.939 15.31 211.749 15.31C212.559 15.31 213.351 15.445 214.125 15.715C214.917 15.967 215.646 16.345 216.312 16.849C216.996 17.353 217.545 18.037 217.959 18.901C218.373 19.765 218.58 20.737 218.58 21.817C218.58 22.897 218.373 23.86 217.959 24.706C217.545 25.552 216.996 26.227 216.312 26.731C214.944 27.757 213.405 28.27 211.695 28.27ZM234.657 27.46H236.007V28H229.257V27.46H230.607V19.9C230.607 18.622 230.418 17.713 230.04 17.173C229.662 16.633 229.095 16.363 228.339 16.363C227.313 16.363 226.494 16.903 225.882 17.983V27.46H227.232V28H220.482V27.46H221.832V16.12H220.482V15.58H225.882V16.984C226.224 16.516 226.755 16.12 227.475 15.796C228.213 15.454 229.005 15.283 229.851 15.283C233.055 15.283 234.657 17.02 234.657 20.494V27.46ZM259.696 27.46V28H252.595V27.46H254.188L252.379 23.707H246.925L245.359 27.46H247.492V28H242.875V27.46H244.684L250.867 12.61H251.542L258.4 27.46H259.696ZM247.168 23.14H252.109L249.463 17.632L247.168 23.14ZM260.225 16.12V15.58H267.515V16.12H266.084L269 22.654L270.755 18.253L269.864 16.12H268.865V15.58H275.615V16.12H274.427L277.343 22.654L279.854 16.12H277.694V15.58H282.095V16.12H280.475L275.912 28H275.345L271.079 19.063L267.542 28H266.975L261.494 16.12H260.225ZM295.381 22.6H287.227C287.407 25.768 288.64 27.352 290.926 27.352C291.538 27.352 292.231 27.208 293.005 26.92C293.797 26.632 294.373 26.227 294.733 25.705L295.111 25.975C294.715 26.641 294.04 27.19 293.086 27.622C292.132 28.054 291.178 28.27 290.224 28.27C289.288 28.27 288.442 28.18 287.686 28C286.93 27.802 286.192 27.478 285.472 27.028C284.752 26.578 284.185 25.903 283.771 25.003C283.375 24.103 283.177 23.014 283.177 21.736C283.177 19.558 283.78 17.947 284.986 16.903C286.192 15.841 287.65 15.31 289.36 15.31C291.088 15.31 292.519 15.886 293.653 17.038C294.805 18.19 295.381 20.044 295.381 22.6ZM287.2 22.06H291.601C291.601 20.404 291.421 18.955 291.061 17.713C290.719 16.471 290.161 15.85 289.387 15.85C288.613 15.85 288.055 16.453 287.713 17.659C287.371 18.847 287.2 20.215 287.2 21.763V22.06ZM303.418 27.784C305.29 27.784 306.226 27.271 306.226 26.245C306.226 25.669 305.902 25.201 305.254 24.841C304.606 24.463 303.823 24.157 302.905 23.923C301.987 23.689 301.078 23.419 300.178 23.113C299.296 22.807 298.558 22.321 297.964 21.655C297.388 20.989 297.154 20.116 297.262 19.036C297.37 17.956 297.919 17.065 298.909 16.363C299.917 15.661 301.15 15.31 302.608 15.31C304.084 15.31 305.272 15.544 306.172 16.012C307.072 16.48 307.576 17.11 307.684 17.902C307.756 18.388 307.675 18.838 307.441 19.252C307.225 19.666 306.856 19.882 306.334 19.9C305.83 19.918 305.407 19.783 305.065 19.495C304.741 19.207 304.588 18.874 304.606 18.496C304.624 18.118 304.768 17.785 305.038 17.497C305.308 17.191 305.443 16.948 305.443 16.768C305.443 16.462 305.146 16.237 304.552 16.093C303.976 15.931 303.301 15.85 302.527 15.85C301.771 15.85 301.15 16.021 300.664 16.363C300.178 16.705 299.935 17.128 299.935 17.632C299.935 18.136 300.232 18.568 300.826 18.928C301.438 19.288 302.176 19.585 303.04 19.819C303.904 20.035 304.759 20.287 305.605 20.575C306.469 20.845 307.198 21.286 307.792 21.898C308.404 22.51 308.71 23.284 308.71 24.22C308.71 25.462 308.269 26.461 307.387 27.217C306.505 27.955 305.173 28.324 303.391 28.324C301.609 28.324 300.16 28.054 299.044 27.514C297.946 26.974 297.343 26.281 297.235 25.435C297.163 24.949 297.244 24.499 297.478 24.085C297.712 23.671 298.081 23.455 298.585 23.437C299.089 23.419 299.503 23.554 299.827 23.842C300.169 24.13 300.331 24.463 300.313 24.841C300.295 25.219 300.151 25.561 299.881 25.867C299.611 26.155 299.476 26.389 299.476 26.569C299.476 26.929 299.89 27.226 300.718 27.46C301.564 27.676 302.464 27.784 303.418 27.784ZM314.612 26.38C315.008 27.28 315.692 27.73 316.664 27.73C317.636 27.73 318.329 27.271 318.743 26.353C319.157 25.435 319.364 23.923 319.364 21.817C319.364 19.693 319.157 18.172 318.743 17.254C318.329 16.318 317.636 15.85 316.664 15.85C315.692 15.85 315.008 16.318 314.612 17.254C314.216 18.172 314.018 19.693 314.018 21.817C314.018 23.941 314.216 25.462 314.612 26.38ZM316.61 28.27C314.9 28.27 313.352 27.712 311.966 26.596C310.58 25.48 309.887 23.896 309.887 21.844C309.887 20.746 310.085 19.765 310.481 18.901C310.895 18.037 311.435 17.353 312.101 16.849C312.785 16.345 313.514 15.967 314.288 15.715C315.062 15.445 315.854 15.31 316.664 15.31C317.474 15.31 318.266 15.445 319.04 15.715C319.832 15.967 320.561 16.345 321.227 16.849C321.911 17.353 322.46 18.037 322.874 18.901C323.288 19.765 323.495 20.737 323.495 21.817C323.495 22.897 323.288 23.86 322.874 24.706C322.46 25.552 321.911 26.227 321.227 26.731C319.859 27.757 318.32 28.27 316.61 28.27ZM348.077 27.46H349.427V28H342.677V27.46H344.027V19.9C344.027 18.622 343.838 17.713 343.46 17.173C343.082 16.633 342.515 16.363 341.759 16.363C341.327 16.363 340.877 16.489 340.409 16.741C339.941 16.993 339.554 17.344 339.248 17.794C339.464 18.442 339.572 19.342 339.572 20.494V27.46H340.922V28H333.902V27.46H335.522V19.9C335.522 18.622 335.333 17.713 334.955 17.173C334.577 16.633 334.01 16.363 333.254 16.363C332.228 16.363 331.409 16.903 330.797 17.983V27.46H332.147V28H325.397V27.46H326.747V16.12H325.397V15.58H330.797V16.984C331.139 16.516 331.67 16.12 332.39 15.796C333.128 15.454 333.92 15.283 334.766 15.283C336.908 15.283 338.303 15.886 338.951 17.092C339.419 16.516 340.04 16.075 340.814 15.769C341.588 15.445 342.407 15.283 343.271 15.283C346.475 15.283 348.077 17.02 348.077 20.494V27.46ZM363.25 22.6H355.096C355.276 25.768 356.509 27.352 358.795 27.352C359.407 27.352 360.1 27.208 360.874 26.92C361.666 26.632 362.242 26.227 362.602 25.705L362.98 25.975C362.584 26.641 361.909 27.19 360.955 27.622C360.001 28.054 359.047 28.27 358.093 28.27C357.157 28.27 356.311 28.18 355.555 28C354.799 27.802 354.061 27.478 353.341 27.028C352.621 26.578 352.054 25.903 351.64 25.003C351.244 24.103 351.046 23.014 351.046 21.736C351.046 19.558 351.649 17.947 352.855 16.903C354.061 15.841 355.519 15.31 357.229 15.31C358.957 15.31 360.388 15.886 361.522 17.038C362.674 18.19 363.25 20.044 363.25 22.6ZM355.069 22.06H359.47C359.47 20.404 359.29 18.955 358.93 17.713C358.588 16.471 358.03 15.85 357.256 15.85C356.482 15.85 355.924 16.453 355.582 17.659C355.24 18.847 355.069 20.215 355.069 21.763V22.06ZM384.108 18.901H383.568C383.568 17.461 383.109 16.129 382.191 14.905C381.273 13.681 379.959 13.069 378.249 13.069C377.295 13.069 376.503 13.627 375.873 14.743C375.261 15.859 374.955 17.767 374.955 20.467C374.955 23.167 375.261 25.075 375.873 26.191C376.503 27.307 377.475 27.865 378.789 27.865C380.121 27.865 381.237 27.451 382.137 26.623C383.055 25.795 383.622 24.625 383.838 23.113H384.378C384.126 24.895 383.496 26.227 382.488 27.109C381.498 27.973 380.31 28.405 378.924 28.405C376.242 28.405 374.181 27.766 372.741 26.488C371.319 25.192 370.608 23.176 370.608 20.44C370.608 17.686 371.301 15.679 372.687 14.419C374.091 13.159 375.945 12.529 378.249 12.529C379.491 12.529 380.697 12.862 381.867 13.528C382.245 13.762 382.551 13.879 382.785 13.879C383.037 13.879 383.235 13.771 383.379 13.555C383.523 13.321 383.595 13.096 383.595 12.88H384.108V18.901ZM390.576 26.38C390.972 27.28 391.656 27.73 392.628 27.73C393.6 27.73 394.293 27.271 394.707 26.353C395.121 25.435 395.328 23.923 395.328 21.817C395.328 19.693 395.121 18.172 394.707 17.254C394.293 16.318 393.6 15.85 392.628 15.85C391.656 15.85 390.972 16.318 390.576 17.254C390.18 18.172 389.982 19.693 389.982 21.817C389.982 23.941 390.18 25.462 390.576 26.38ZM392.574 28.27C390.864 28.27 389.316 27.712 387.93 26.596C386.544 25.48 385.851 23.896 385.851 21.844C385.851 20.746 386.049 19.765 386.445 18.901C386.859 18.037 387.399 17.353 388.065 16.849C388.749 16.345 389.478 15.967 390.252 15.715C391.026 15.445 391.818 15.31 392.628 15.31C393.438 15.31 394.23 15.445 395.004 15.715C395.796 15.967 396.525 16.345 397.191 16.849C397.875 17.353 398.424 18.037 398.838 18.901C399.252 19.765 399.459 20.737 399.459 21.817C399.459 22.897 399.252 23.86 398.838 24.706C398.424 25.552 397.875 26.227 397.191 26.731C395.823 27.757 394.284 28.27 392.574 28.27ZM424.041 27.46H425.391V28H418.641V27.46H419.991V19.9C419.991 18.622 419.802 17.713 419.424 17.173C419.046 16.633 418.479 16.363 417.723 16.363C417.291 16.363 416.841 16.489 416.373 16.741C415.905 16.993 415.518 17.344 415.212 17.794C415.428 18.442 415.536 19.342 415.536 20.494V27.46H416.886V28H409.866V27.46H411.486V19.9C411.486 18.622 411.297 17.713 410.919 17.173C410.541 16.633 409.974 16.363 409.218 16.363C408.192 16.363 407.373 16.903 406.761 17.983V27.46H408.111V28H401.361V27.46H402.711V16.12H401.361V15.58H406.761V16.984C407.103 16.516 407.634 16.12 408.354 15.796C409.092 15.454 409.884 15.283 410.73 15.283C412.872 15.283 414.267 15.886 414.915 17.092C415.383 16.516 416.004 16.075 416.778 15.769C417.552 15.445 418.371 15.283 419.235 15.283C422.439 15.283 424.041 17.02 424.041 20.494V27.46ZM449.96 27.46H451.31V28H444.56V27.46H445.91V19.9C445.91 18.622 445.721 17.713 445.343 17.173C444.965 16.633 444.398 16.363 443.642 16.363C443.21 16.363 442.76 16.489 442.292 16.741C441.824 16.993 441.437 17.344 441.131 17.794C441.347 18.442 441.455 19.342 441.455 20.494V27.46H442.805V28H435.785V27.46H437.405V19.9C437.405 18.622 437.216 17.713 436.838 17.173C436.46 16.633 435.893 16.363 435.137 16.363C434.111 16.363 433.292 16.903 432.68 17.983V27.46H434.03V28H427.28V27.46H428.63V16.12H427.28V15.58H432.68V16.984C433.022 16.516 433.553 16.12 434.273 15.796C435.011 15.454 435.803 15.283 436.649 15.283C438.791 15.283 440.186 15.886 440.834 17.092C441.302 16.516 441.923 16.075 442.697 15.769C443.471 15.445 444.29 15.283 445.154 15.283C448.358 15.283 449.96 17.02 449.96 20.494V27.46ZM462.514 28V26.569C462.172 27.055 461.632 27.469 460.894 27.811C460.174 28.135 459.391 28.297 458.545 28.297C455.341 28.297 453.739 26.56 453.739 23.086V16.12H452.389V15.58H457.789V23.68C457.789 24.958 457.978 25.867 458.356 26.407C458.734 26.947 459.301 27.217 460.057 27.217C461.065 27.217 461.884 26.677 462.514 25.597V16.12H461.164V15.58H466.564V27.46H467.914V28H462.514ZM483.985 27.46H485.335V28H478.585V27.46H479.935V19.9C479.935 18.622 479.746 17.713 479.368 17.173C478.99 16.633 478.423 16.363 477.667 16.363C476.641 16.363 475.822 16.903 475.21 17.983V27.46H476.56V28H469.81V27.46H471.16V16.12H469.81V15.58H475.21V16.984C475.552 16.516 476.083 16.12 476.803 15.796C477.541 15.454 478.333 15.283 479.179 15.283C482.383 15.283 483.985 17.02 483.985 20.494V27.46ZM492.613 27.46H493.963V28H487.213V27.46H488.563V16.12H487.483V15.58H492.613V27.46ZM492.856 12.016C492.856 12.664 492.622 13.222 492.154 13.69C491.704 14.14 491.146 14.365 490.48 14.365C489.832 14.365 489.274 14.14 488.806 13.69C488.338 13.222 488.104 12.664 488.104 12.016C488.104 11.35 488.338 10.783 488.806 10.315C489.274 9.847 489.832 9.613 490.48 9.613C491.146 9.613 491.704 9.847 492.154 10.315C492.622 10.783 492.856 11.35 492.856 12.016ZM500.829 16.12V22.708C500.829 24.256 500.892 25.201 501.018 25.543C501.144 25.867 501.279 26.146 501.423 26.38C501.693 26.848 502.161 27.082 502.827 27.082C503.511 27.082 503.988 26.992 504.258 26.812V27.352C503.394 27.964 502.449 28.27 501.423 28.27C499.911 28.27 498.759 27.91 497.967 27.19C497.175 26.47 496.779 25.183 496.779 23.329V16.12H494.781V15.58H496.779C497.643 15.436 498.408 15.022 499.074 14.338C499.74 13.636 500.199 12.673 500.451 11.449H500.829V15.58H503.961V16.12H500.829ZM511.341 30.997C510.855 32.041 510.342 32.788 509.802 33.238C509.262 33.706 508.542 33.94 507.642 33.94C506.742 33.94 506.04 33.742 505.536 33.346C505.032 32.968 504.78 32.455 504.78 31.807C504.78 31.177 504.96 30.673 505.32 30.295C505.698 29.917 506.148 29.728 506.67 29.728C507.192 29.728 507.633 29.827 507.993 30.025C508.353 30.223 508.605 30.439 508.749 30.673C509.145 31.303 509.514 31.618 509.856 31.618C510.216 31.618 510.531 31.312 510.801 30.7L511.935 28.027L505.617 16.12H504.537V15.58H511.8V16.12H510.45L514.068 23.248L517.173 16.12H515.013V15.58H519.441V16.12H517.821L511.341 30.997Z" fill="#573766"/>
<path d="M43.205 74.32V104.312C48.2343 104.312 51.669 103.239 53.509 101.092C55.349 98.884 56.269 95.0507 56.269 89.592C56.269 84.1333 55.349 80.2387 53.509 77.908C51.669 75.516 48.2343 74.32 43.205 74.32ZM47.805 122.16V124H24.805V122.16H29.405V74.32H24.805V72.48H43.113C61.145 71.6213 70.161 77.4173 70.161 89.868C70.161 95.388 67.8917 99.5893 63.353 102.472C58.8143 105.355 52.0983 106.581 43.205 106.152V122.16H47.805ZM96.1488 134.212C94.4928 137.769 92.7448 140.315 90.9048 141.848C89.0648 143.443 86.6115 144.24 83.5448 144.24C80.4782 144.24 78.0862 143.565 76.3688 142.216C74.6515 140.928 73.7928 139.18 73.7928 136.972C73.7928 134.825 74.4062 133.108 75.6328 131.82C76.9208 130.532 78.4542 129.888 80.2328 129.888C82.0115 129.888 83.5142 130.225 84.7408 130.9C85.9675 131.575 86.8262 132.311 87.3168 133.108C88.6662 135.255 89.9235 136.328 91.0888 136.328C92.3155 136.328 93.3888 135.285 94.3088 133.2L98.1728 124.092L76.6448 83.52H72.9648V81.68H97.7128V83.52H93.1128L105.441 107.808L116.021 83.52H108.661V81.68H123.749V83.52H118.229L96.1488 134.212ZM172.925 92.996H171.085C171.085 88.0893 169.521 83.5507 166.393 79.38C163.265 75.2093 158.788 73.124 152.961 73.124C149.71 73.124 147.012 75.0253 144.865 78.828C142.78 82.6307 141.737 89.132 141.737 98.332C141.737 107.532 142.78 114.033 144.865 117.836C147.012 121.639 150.324 123.54 154.801 123.54C159.34 123.54 163.142 122.129 166.209 119.308C169.337 116.487 171.269 112.5 172.005 107.348H173.845C172.986 113.42 170.84 117.959 167.405 120.964C164.032 123.908 159.984 125.38 155.261 125.38C146.122 125.38 139.1 123.203 134.193 118.848C129.348 114.432 126.925 107.563 126.925 98.24C126.925 88.856 129.286 82.0173 134.009 77.724C138.793 73.4307 145.11 71.284 152.961 71.284C157.193 71.284 161.302 72.4187 165.289 74.688C166.577 75.4853 167.62 75.884 168.417 75.884C169.276 75.884 169.95 75.516 170.441 74.78C170.932 73.9827 171.177 73.216 171.177 72.48H172.925V92.996ZM194.965 118.48C196.315 121.547 198.645 123.08 201.957 123.08C205.269 123.08 207.631 121.516 209.041 118.388C210.452 115.26 211.157 110.108 211.157 102.932C211.157 95.6947 210.452 90.512 209.041 87.384C207.631 84.1947 205.269 82.6 201.957 82.6C198.645 82.6 196.315 84.1947 194.965 87.384C193.616 90.512 192.941 95.6947 192.941 102.932C192.941 110.169 193.616 115.352 194.965 118.48ZM201.773 124.92C195.947 124.92 190.672 123.019 185.949 119.216C181.227 115.413 178.865 110.016 178.865 103.024C178.865 99.2827 179.54 95.94 180.889 92.996C182.3 90.052 184.14 87.7213 186.409 86.004C188.74 84.2867 191.224 82.9987 193.861 82.14C196.499 81.22 199.197 80.76 201.957 80.76C204.717 80.76 207.416 81.22 210.053 82.14C212.752 82.9987 215.236 84.2867 217.505 86.004C219.836 87.7213 221.707 90.052 223.117 92.996C224.528 95.94 225.233 99.252 225.233 102.932C225.233 106.612 224.528 109.893 223.117 112.776C221.707 115.659 219.836 117.959 217.505 119.676C212.844 123.172 207.6 124.92 201.773 124.92ZM280.015 122.16H284.615V124H261.615V122.16H266.215V96.4C266.215 92.0453 265.571 88.948 264.283 87.108C262.995 85.268 261.063 84.348 258.487 84.348C254.991 84.348 252.2 86.188 250.115 89.868V122.16H254.715V124H231.715V122.16H236.315V83.52H231.715V81.68H250.115V86.464C251.28 84.8693 253.09 83.52 255.543 82.416C258.058 81.2507 260.756 80.668 263.639 80.668C274.556 80.668 280.015 86.5867 280.015 98.424V122.16ZM355.766 88.12C355.766 82.6613 354.846 79.012 353.006 77.172C351.227 75.2707 347.854 74.32 342.886 74.32H340.126V122.16H346.566V124H319.886V122.16H326.326V74.32H323.566C318.659 74.32 315.286 75.2707 313.446 77.172C311.667 79.012 310.778 82.6613 310.778 88.12H308.938V72.48H357.606V88.12H355.766ZM407.777 122.16C407.163 122.773 405.998 123.325 404.281 123.816C402.563 124.245 400.57 124.46 398.301 124.46C393.271 124.46 390.113 122.957 388.825 119.952C385.758 123.141 381.066 124.736 374.749 124.736C371.375 124.736 368.585 123.969 366.377 122.436C364.23 120.841 363.157 118.511 363.157 115.444C363.157 111.335 364.751 108.176 367.941 105.968C371.13 103.699 376.711 102.104 384.685 101.184L388.365 100.724V96.216C388.365 90.88 387.966 87.292 387.169 85.452C386.371 83.612 384.777 82.692 382.385 82.692C380.054 82.692 378.551 83.0293 377.877 83.704C377.202 84.3173 376.957 85.0533 377.141 85.912C377.325 86.7093 377.631 87.7827 378.061 89.132C378.49 90.4813 378.705 91.5547 378.705 92.352C378.705 94.2533 378.03 95.8787 376.681 97.228C375.393 98.516 373.798 99.16 371.897 99.16C370.057 99.16 368.462 98.516 367.113 97.228C365.763 95.8787 365.089 94.2533 365.089 92.352C365.089 89.224 366.683 86.556 369.873 84.348C373.123 82.0787 377.938 80.944 384.317 80.944C390.757 80.944 395.326 82.2013 398.025 84.716C400.785 87.2307 402.165 91.6773 402.165 98.056V114.616C402.165 117.867 402.563 119.921 403.361 120.78C404.158 121.577 405.63 121.731 407.777 121.24V122.16ZM375.945 113.604C376.251 115.935 377.11 117.744 378.521 119.032C379.931 120.259 381.557 120.872 383.397 120.872C385.298 120.872 386.954 119.952 388.365 118.112V102.472L385.053 102.932C382.231 103.3 379.931 104.373 378.153 106.152C376.435 107.931 375.699 110.415 375.945 113.604ZM431.689 122.16H436.289V124H413.289V122.16H417.889V83.52H414.209V81.68H431.689V122.16ZM432.517 69.536C432.517 71.744 431.72 73.6453 430.125 75.24C428.592 76.7733 426.691 77.54 424.421 77.54C422.213 77.54 420.312 76.7733 418.717 75.24C417.123 73.6453 416.325 71.744 416.325 69.536C416.325 67.2667 417.123 65.3347 418.717 63.74C420.312 62.1453 422.213 61.348 424.421 61.348C426.691 61.348 428.592 62.1453 430.125 63.74C431.72 65.3347 432.517 67.2667 432.517 69.536ZM439.998 83.52V81.68H464.838V83.52H459.962L469.898 105.784L475.878 90.788L472.842 83.52H469.438V81.68H492.438V83.52H488.39L498.326 105.784L506.882 83.52H499.522V81.68H514.518V83.52H508.998L493.45 124H491.518L476.982 93.548L464.93 124H462.998L444.322 83.52H439.998ZM563.745 122.16C563.132 122.773 561.967 123.325 560.249 123.816C558.532 124.245 556.539 124.46 554.269 124.46C549.24 124.46 546.081 122.957 544.793 119.952C541.727 123.141 537.035 124.736 530.717 124.736C527.344 124.736 524.553 123.969 522.345 122.436C520.199 120.841 519.125 118.511 519.125 115.444C519.125 111.335 520.72 108.176 523.909 105.968C527.099 103.699 532.68 102.104 540.653 101.184L544.333 100.724V96.216C544.333 90.88 543.935 87.292 543.137 85.452C542.34 83.612 540.745 82.692 538.353 82.692C536.023 82.692 534.52 83.0293 533.845 83.704C533.171 84.3173 532.925 85.0533 533.109 85.912C533.293 86.7093 533.6 87.7827 534.029 89.132C534.459 90.4813 534.673 91.5547 534.673 92.352C534.673 94.2533 533.999 95.8787 532.649 97.228C531.361 98.516 529.767 99.16 527.865 99.16C526.025 99.16 524.431 98.516 523.081 97.228C521.732 95.8787 521.057 94.2533 521.057 92.352C521.057 89.224 522.652 86.556 525.841 84.348C529.092 82.0787 533.907 80.944 540.285 80.944C546.725 80.944 551.295 82.2013 553.993 84.716C556.753 87.2307 558.133 91.6773 558.133 98.056V114.616C558.133 117.867 558.532 119.921 559.329 120.78C560.127 121.577 561.599 121.731 563.745 121.24V122.16ZM531.913 113.604C532.22 115.935 533.079 117.744 534.489 119.032C535.9 120.259 537.525 120.872 539.365 120.872C541.267 120.872 542.923 119.952 544.333 118.112V102.472L541.021 102.932C538.2 103.3 535.9 104.373 534.121 106.152C532.404 107.931 531.668 110.415 531.913 113.604ZM617.558 122.16H622.158V124H599.158V122.16H603.758V96.4C603.758 92.0453 603.114 88.948 601.826 87.108C600.538 85.268 598.606 84.348 596.03 84.348C592.534 84.348 589.743 86.188 587.658 89.868V122.16H592.258V124H569.258V122.16H573.858V83.52H569.258V81.68H587.658V86.464C588.823 84.8693 590.633 83.52 593.086 82.416C595.601 81.2507 598.299 80.668 601.182 80.668C612.099 80.668 617.558 86.5867 617.558 98.424V122.16Z" fill="#74448A"/>
<g filter="url(#filter0_d_6759_10376)">
<path d="M40.205 71.32V101.312C45.2343 101.312 48.669 100.239 50.509 98.092C52.349 95.884 53.269 92.0507 53.269 86.592C53.269 81.1333 52.349 77.2387 50.509 74.908C48.669 72.516 45.2343 71.32 40.205 71.32ZM44.805 119.16V121H21.805V119.16H26.405V71.32H21.805V69.48H40.113C58.145 68.6213 67.161 74.4173 67.161 86.868C67.161 92.388 64.8917 96.5893 60.353 99.472C55.8143 102.355 49.0983 103.581 40.205 103.152V119.16H44.805ZM93.1488 131.212C91.4928 134.769 89.7448 137.315 87.9048 138.848C86.0648 140.443 83.6115 141.24 80.5448 141.24C77.4782 141.24 75.0862 140.565 73.3688 139.216C71.6515 137.928 70.7928 136.18 70.7928 133.972C70.7928 131.825 71.4062 130.108 72.6328 128.82C73.9208 127.532 75.4542 126.888 77.2328 126.888C79.0115 126.888 80.5142 127.225 81.7408 127.9C82.9675 128.575 83.8262 129.311 84.3168 130.108C85.6662 132.255 86.9235 133.328 88.0888 133.328C89.3155 133.328 90.3888 132.285 91.3088 130.2L95.1728 121.092L73.6448 80.52H69.9648V78.68H94.7128V80.52H90.1128L102.441 104.808L113.021 80.52H105.661V78.68H120.749V80.52H115.229L93.1488 131.212ZM169.925 89.996H168.085C168.085 85.0893 166.521 80.5507 163.393 76.38C160.265 72.2093 155.788 70.124 149.961 70.124C146.71 70.124 144.012 72.0253 141.865 75.828C139.78 79.6307 138.737 86.132 138.737 95.332C138.737 104.532 139.78 111.033 141.865 114.836C144.012 118.639 147.324 120.54 151.801 120.54C156.34 120.54 160.142 119.129 163.209 116.308C166.337 113.487 168.269 109.5 169.005 104.348H170.845C169.986 110.42 167.84 114.959 164.405 117.964C161.032 120.908 156.984 122.38 152.261 122.38C143.122 122.38 136.1 120.203 131.193 115.848C126.348 111.432 123.925 104.563 123.925 95.24C123.925 85.856 126.286 79.0173 131.009 74.724C135.793 70.4307 142.11 68.284 149.961 68.284C154.193 68.284 158.302 69.4187 162.289 71.688C163.577 72.4853 164.62 72.884 165.417 72.884C166.276 72.884 166.95 72.516 167.441 71.78C167.932 70.9827 168.177 70.216 168.177 69.48H169.925V89.996ZM191.965 115.48C193.315 118.547 195.645 120.08 198.957 120.08C202.269 120.08 204.631 118.516 206.041 115.388C207.452 112.26 208.157 107.108 208.157 99.932C208.157 92.6947 207.452 87.512 206.041 84.384C204.631 81.1947 202.269 79.6 198.957 79.6C195.645 79.6 193.315 81.1947 191.965 84.384C190.616 87.512 189.941 92.6947 189.941 99.932C189.941 107.169 190.616 112.352 191.965 115.48ZM198.773 121.92C192.947 121.92 187.672 120.019 182.949 116.216C178.227 112.413 175.865 107.016 175.865 100.024C175.865 96.2827 176.54 92.94 177.889 89.996C179.3 87.052 181.14 84.7213 183.409 83.004C185.74 81.2867 188.224 79.9987 190.861 79.14C193.499 78.22 196.197 77.76 198.957 77.76C201.717 77.76 204.416 78.22 207.053 79.14C209.752 79.9987 212.236 81.2867 214.505 83.004C216.836 84.7213 218.707 87.052 220.117 89.996C221.528 92.94 222.233 96.252 222.233 99.932C222.233 103.612 221.528 106.893 220.117 109.776C218.707 112.659 216.836 114.959 214.505 116.676C209.844 120.172 204.6 121.92 198.773 121.92ZM277.015 119.16H281.615V121H258.615V119.16H263.215V93.4C263.215 89.0453 262.571 85.948 261.283 84.108C259.995 82.268 258.063 81.348 255.487 81.348C251.991 81.348 249.2 83.188 247.115 86.868V119.16H251.715V121H228.715V119.16H233.315V80.52H228.715V78.68H247.115V83.464C248.28 81.8693 250.09 80.52 252.543 79.416C255.058 78.2507 257.756 77.668 260.639 77.668C271.556 77.668 277.015 83.5867 277.015 95.424V119.16ZM352.766 85.12C352.766 79.6613 351.846 76.012 350.006 74.172C348.227 72.2707 344.854 71.32 339.886 71.32H337.126V119.16H343.566V121H316.886V119.16H323.326V71.32H320.566C315.659 71.32 312.286 72.2707 310.446 74.172C308.667 76.012 307.778 79.6613 307.778 85.12H305.938V69.48H354.606V85.12H352.766ZM404.777 119.16C404.163 119.773 402.998 120.325 401.281 120.816C399.563 121.245 397.57 121.46 395.301 121.46C390.271 121.46 387.113 119.957 385.825 116.952C382.758 120.141 378.066 121.736 371.749 121.736C368.375 121.736 365.585 120.969 363.377 119.436C361.23 117.841 360.157 115.511 360.157 112.444C360.157 108.335 361.751 105.176 364.941 102.968C368.13 100.699 373.711 99.104 381.685 98.184L385.365 97.724V93.216C385.365 87.88 384.966 84.292 384.169 82.452C383.371 80.612 381.777 79.692 379.385 79.692C377.054 79.692 375.551 80.0293 374.877 80.704C374.202 81.3173 373.957 82.0533 374.141 82.912C374.325 83.7093 374.631 84.7827 375.061 86.132C375.49 87.4813 375.705 88.5547 375.705 89.352C375.705 91.2533 375.03 92.8787 373.681 94.228C372.393 95.516 370.798 96.16 368.897 96.16C367.057 96.16 365.462 95.516 364.113 94.228C362.763 92.8787 362.089 91.2533 362.089 89.352C362.089 86.224 363.683 83.556 366.873 81.348C370.123 79.0787 374.938 77.944 381.317 77.944C387.757 77.944 392.326 79.2013 395.025 81.716C397.785 84.2307 399.165 88.6773 399.165 95.056V111.616C399.165 114.867 399.563 116.921 400.361 117.78C401.158 118.577 402.63 118.731 404.777 118.24V119.16ZM372.945 110.604C373.251 112.935 374.11 114.744 375.521 116.032C376.931 117.259 378.557 117.872 380.397 117.872C382.298 117.872 383.954 116.952 385.365 115.112V99.472L382.053 99.932C379.231 100.3 376.931 101.373 375.153 103.152C373.435 104.931 372.699 107.415 372.945 110.604ZM428.689 119.16H433.289V121H410.289V119.16H414.889V80.52H411.209V78.68H428.689V119.16ZM429.517 66.536C429.517 68.744 428.72 70.6453 427.125 72.24C425.592 73.7733 423.691 74.54 421.421 74.54C419.213 74.54 417.312 73.7733 415.717 72.24C414.123 70.6453 413.325 68.744 413.325 66.536C413.325 64.2667 414.123 62.3347 415.717 60.74C417.312 59.1453 419.213 58.348 421.421 58.348C423.691 58.348 425.592 59.1453 427.125 60.74C428.72 62.3347 429.517 64.2667 429.517 66.536ZM436.998 80.52V78.68H461.838V80.52H456.962L466.898 102.784L472.878 87.788L469.842 80.52H466.438V78.68H489.438V80.52H485.39L495.326 102.784L503.882 80.52H496.522V78.68H511.518V80.52H505.998L490.45 121H488.518L473.982 90.548L461.93 121H459.998L441.322 80.52H436.998ZM560.745 119.16C560.132 119.773 558.967 120.325 557.249 120.816C555.532 121.245 553.539 121.46 551.269 121.46C546.24 121.46 543.081 119.957 541.793 116.952C538.727 120.141 534.035 121.736 527.717 121.736C524.344 121.736 521.553 120.969 519.345 119.436C517.199 117.841 516.125 115.511 516.125 112.444C516.125 108.335 517.72 105.176 520.909 102.968C524.099 100.699 529.68 99.104 537.653 98.184L541.333 97.724V93.216C541.333 87.88 540.935 84.292 540.137 82.452C539.34 80.612 537.745 79.692 535.353 79.692C533.023 79.692 531.52 80.0293 530.845 80.704C530.171 81.3173 529.925 82.0533 530.109 82.912C530.293 83.7093 530.6 84.7827 531.029 86.132C531.459 87.4813 531.673 88.5547 531.673 89.352C531.673 91.2533 530.999 92.8787 529.649 94.228C528.361 95.516 526.767 96.16 524.865 96.16C523.025 96.16 521.431 95.516 520.081 94.228C518.732 92.8787 518.057 91.2533 518.057 89.352C518.057 86.224 519.652 83.556 522.841 81.348C526.092 79.0787 530.907 77.944 537.285 77.944C543.725 77.944 548.295 79.2013 550.993 81.716C553.753 84.2307 555.133 88.6773 555.133 95.056V111.616C555.133 114.867 555.532 116.921 556.329 117.78C557.127 118.577 558.599 118.731 560.745 118.24V119.16ZM528.913 110.604C529.22 112.935 530.079 114.744 531.489 116.032C532.9 117.259 534.525 117.872 536.365 117.872C538.267 117.872 539.923 116.952 541.333 115.112V99.472L538.021 99.932C535.2 100.3 532.9 101.373 531.121 103.152C529.404 104.931 528.668 107.415 528.913 110.604ZM614.558 119.16H619.158V121H596.158V119.16H600.758V93.4C600.758 89.0453 600.114 85.948 598.826 84.108C597.538 82.268 595.606 81.348 593.03 81.348C589.534 81.348 586.743 83.188 584.658 86.868V119.16H589.258V121H566.258V119.16H570.858V80.52H566.258V78.68H584.658V83.464C585.823 81.8693 587.633 80.52 590.086 79.416C592.601 78.2507 595.299 77.668 598.182 77.668C609.099 77.668 614.558 83.5867 614.558 95.424V119.16Z" fill="white"/>
</g>
<path d="M35.3928 26.46V27H28.2918V26.46H29.8848L28.0758 22.707H22.6218L21.0558 26.46H23.1888V27H18.5718V26.46H20.3808L26.5638 11.61H27.2388L34.0968 26.46H35.3928ZM22.8648 22.14H27.8058L25.1598 16.632L22.8648 22.14ZM35.9214 15.12V14.58H43.2114V15.12H41.7804L44.6964 21.654L46.4514 17.253L45.5604 15.12H44.5614V14.58H51.3114V15.12H50.1234L53.0394 21.654L55.5504 15.12H53.3904V14.58H57.7914V15.12H56.1714L51.6084 27H51.0414L46.7754 18.063L43.2384 27H42.6714L37.1904 15.12H35.9214ZM71.0775 21.6H62.9235C63.1035 24.768 64.3365 26.352 66.6225 26.352C67.2345 26.352 67.9275 26.208 68.7015 25.92C69.4935 25.632 70.0695 25.227 70.4295 24.705L70.8075 24.975C70.4115 25.641 69.7365 26.19 68.7825 26.622C67.8285 27.054 66.8745 27.27 65.9205 27.27C64.9845 27.27 64.1385 27.18 63.3825 27C62.6265 26.802 61.8885 26.478 61.1685 26.028C60.4485 25.578 59.8815 24.903 59.4675 24.003C59.0715 23.103 58.8735 22.014 58.8735 20.736C58.8735 18.558 59.4765 16.947 60.6825 15.903C61.8885 14.841 63.3465 14.31 65.0565 14.31C66.7845 14.31 68.2155 14.886 69.3495 16.038C70.5015 17.19 71.0775 19.044 71.0775 21.6ZM62.8965 21.06H67.2975C67.2975 19.404 67.1175 17.955 66.7575 16.713C66.4155 15.471 65.8575 14.85 65.0835 14.85C64.3095 14.85 63.7515 15.453 63.4095 16.659C63.0675 17.847 62.8965 19.215 62.8965 20.763V21.06ZM79.114 26.784C80.986 26.784 81.922 26.271 81.922 25.245C81.922 24.669 81.598 24.201 80.95 23.841C80.302 23.463 79.519 23.157 78.601 22.923C77.683 22.689 76.774 22.419 75.874 22.113C74.992 21.807 74.254 21.321 73.66 20.655C73.084 19.989 72.85 19.116 72.958 18.036C73.066 16.956 73.615 16.065 74.605 15.363C75.613 14.661 76.846 14.31 78.304 14.31C79.78 14.31 80.968 14.544 81.868 15.012C82.768 15.48 83.272 16.11 83.38 16.902C83.452 17.388 83.371 17.838 83.137 18.252C82.921 18.666 82.552 18.882 82.03 18.9C81.526 18.918 81.103 18.783 80.761 18.495C80.437 18.207 80.284 17.874 80.302 17.496C80.32 17.118 80.464 16.785 80.734 16.497C81.004 16.191 81.139 15.948 81.139 15.768C81.139 15.462 80.842 15.237 80.248 15.093C79.672 14.931 78.997 14.85 78.223 14.85C77.467 14.85 76.846 15.021 76.36 15.363C75.874 15.705 75.631 16.128 75.631 16.632C75.631 17.136 75.928 17.568 76.522 17.928C77.134 18.288 77.872 18.585 78.736 18.819C79.6 19.035 80.455 19.287 81.301 19.575C82.165 19.845 82.894 20.286 83.488 20.898C84.1 21.51 84.406 22.284 84.406 23.22C84.406 24.462 83.965 25.461 83.083 26.217C82.201 26.955 80.869 27.324 79.087 27.324C77.305 27.324 75.856 27.054 74.74 26.514C73.642 25.974 73.039 25.281 72.931 24.435C72.859 23.949 72.94 23.499 73.174 23.085C73.408 22.671 73.777 22.455 74.281 22.437C74.785 22.419 75.199 22.554 75.523 22.842C75.865 23.13 76.027 23.463 76.009 23.841C75.991 24.219 75.847 24.561 75.577 24.867C75.307 25.155 75.172 25.389 75.172 25.569C75.172 25.929 75.586 26.226 76.414 26.46C77.26 26.676 78.16 26.784 79.114 26.784ZM90.3084 25.38C90.7044 26.28 91.3884 26.73 92.3604 26.73C93.3324 26.73 94.0254 26.271 94.4394 25.353C94.8534 24.435 95.0604 22.923 95.0604 20.817C95.0604 18.693 94.8534 17.172 94.4394 16.254C94.0254 15.318 93.3324 14.85 92.3604 14.85C91.3884 14.85 90.7044 15.318 90.3084 16.254C89.9124 17.172 89.7144 18.693 89.7144 20.817C89.7144 22.941 89.9124 24.462 90.3084 25.38ZM92.3064 27.27C90.5964 27.27 89.0484 26.712 87.6624 25.596C86.2764 24.48 85.5834 22.896 85.5834 20.844C85.5834 19.746 85.7814 18.765 86.1774 17.901C86.5914 17.037 87.1314 16.353 87.7974 15.849C88.4814 15.345 89.2104 14.967 89.9844 14.715C90.7584 14.445 91.5504 14.31 92.3604 14.31C93.1704 14.31 93.9624 14.445 94.7364 14.715C95.5284 14.967 96.2574 15.345 96.9234 15.849C97.6074 16.353 98.1564 17.037 98.5704 17.901C98.9844 18.765 99.1914 19.737 99.1914 20.817C99.1914 21.897 98.9844 22.86 98.5704 23.706C98.1564 24.552 97.6074 25.227 96.9234 25.731C95.5554 26.757 94.0164 27.27 92.3064 27.27ZM123.774 26.46H125.124V27H118.374V26.46H119.724V18.9C119.724 17.622 119.535 16.713 119.157 16.173C118.779 15.633 118.212 15.363 117.456 15.363C117.024 15.363 116.574 15.489 116.106 15.741C115.638 15.993 115.251 16.344 114.945 16.794C115.161 17.442 115.269 18.342 115.269 19.494V26.46H116.619V27H109.599V26.46H111.219V18.9C111.219 17.622 111.03 16.713 110.652 16.173C110.274 15.633 109.707 15.363 108.951 15.363C107.925 15.363 107.106 15.903 106.494 16.983V26.46H107.844V27H101.094V26.46H102.444V15.12H101.094V14.58H106.494V15.984C106.836 15.516 107.367 15.12 108.087 14.796C108.825 14.454 109.617 14.283 110.463 14.283C112.605 14.283 114 14.886 114.648 16.092C115.116 15.516 115.737 15.075 116.511 14.769C117.285 14.445 118.104 14.283 118.968 14.283C122.172 14.283 123.774 16.02 123.774 19.494V26.46ZM138.947 21.6H130.793C130.973 24.768 132.206 26.352 134.492 26.352C135.104 26.352 135.797 26.208 136.571 25.92C137.363 25.632 137.939 25.227 138.299 24.705L138.677 24.975C138.281 25.641 137.606 26.19 136.652 26.622C135.698 27.054 134.744 27.27 133.79 27.27C132.854 27.27 132.008 27.18 131.252 27C130.496 26.802 129.758 26.478 129.038 26.028C128.318 25.578 127.751 24.903 127.337 24.003C126.941 23.103 126.743 22.014 126.743 20.736C126.743 18.558 127.346 16.947 128.552 15.903C129.758 14.841 131.216 14.31 132.926 14.31C134.654 14.31 136.085 14.886 137.219 16.038C138.371 17.19 138.947 19.044 138.947 21.6ZM130.766 21.06H135.167C135.167 19.404 134.987 17.955 134.627 16.713C134.285 15.471 133.727 14.85 132.953 14.85C132.179 14.85 131.621 15.453 131.279 16.659C130.937 17.847 130.766 19.215 130.766 20.763V21.06ZM152.109 12.42V21.222C153.585 21.222 154.593 20.907 155.133 20.277C155.673 19.629 155.943 18.504 155.943 16.902C155.943 15.3 155.673 14.157 155.133 13.473C154.593 12.771 153.585 12.42 152.109 12.42ZM153.459 26.46V27H146.709V26.46H148.059V12.42H146.709V11.88H152.082C157.374 11.628 160.02 13.329 160.02 16.983C160.02 18.603 159.354 19.836 158.022 20.682C156.69 21.528 154.719 21.888 152.109 21.762V26.46H153.459ZM167.647 29.997C167.161 31.041 166.648 31.788 166.108 32.238C165.568 32.706 164.848 32.94 163.948 32.94C163.048 32.94 162.346 32.742 161.842 32.346C161.338 31.968 161.086 31.455 161.086 30.807C161.086 30.177 161.266 29.673 161.626 29.295C162.004 28.917 162.454 28.728 162.976 28.728C163.498 28.728 163.939 28.827 164.299 29.025C164.659 29.223 164.911 29.439 165.055 29.673C165.451 30.303 165.82 30.618 166.162 30.618C166.522 30.618 166.837 30.312 167.107 29.7L168.241 27.027L161.923 15.12H160.843V14.58H168.106V15.12H166.756L170.374 22.248L173.479 15.12H171.319V14.58H175.747V15.12H174.127L167.647 29.997ZM182.052 15.12V21.708C182.052 23.256 182.115 24.201 182.241 24.543C182.367 24.867 182.502 25.146 182.646 25.38C182.916 25.848 183.384 26.082 184.05 26.082C184.734 26.082 185.211 25.992 185.481 25.812V26.352C184.617 26.964 183.672 27.27 182.646 27.27C181.134 27.27 179.982 26.91 179.19 26.19C178.398 25.47 178.002 24.183 178.002 22.329V15.12H176.004V14.58H178.002C178.866 14.436 179.631 14.022 180.297 13.338C180.963 12.636 181.422 11.673 181.674 10.449H182.052V14.58H185.184V15.12H182.052ZM201.015 26.46H202.365V27H195.615V26.46H196.965V18.9C196.965 17.622 196.776 16.713 196.398 16.173C196.02 15.633 195.453 15.363 194.697 15.363C193.671 15.363 192.852 15.903 192.24 16.983V26.46H193.59V27H186.84V26.46H188.19V9.45H186.84V8.91H192.24V15.984C192.582 15.498 193.113 15.093 193.833 14.769C194.553 14.445 195.345 14.283 196.209 14.283C199.413 14.283 201.015 16.02 201.015 19.494V26.46ZM208.697 25.38C209.093 26.28 209.777 26.73 210.749 26.73C211.721 26.73 212.414 26.271 212.828 25.353C213.242 24.435 213.449 22.923 213.449 20.817C213.449 18.693 213.242 17.172 212.828 16.254C212.414 15.318 211.721 14.85 210.749 14.85C209.777 14.85 209.093 15.318 208.697 16.254C208.301 17.172 208.103 18.693 208.103 20.817C208.103 22.941 208.301 24.462 208.697 25.38ZM210.695 27.27C208.985 27.27 207.437 26.712 206.051 25.596C204.665 24.48 203.972 22.896 203.972 20.844C203.972 19.746 204.17 18.765 204.566 17.901C204.98 17.037 205.52 16.353 206.186 15.849C206.87 15.345 207.599 14.967 208.373 14.715C209.147 14.445 209.939 14.31 210.749 14.31C211.559 14.31 212.351 14.445 213.125 14.715C213.917 14.967 214.646 15.345 215.312 15.849C215.996 16.353 216.545 17.037 216.959 17.901C217.373 18.765 217.58 19.737 217.58 20.817C217.58 21.897 217.373 22.86 216.959 23.706C216.545 24.552 215.996 25.227 215.312 25.731C213.944 26.757 212.405 27.27 210.695 27.27ZM233.657 26.46H235.007V27H228.257V26.46H229.607V18.9C229.607 17.622 229.418 16.713 229.04 16.173C228.662 15.633 228.095 15.363 227.339 15.363C226.313 15.363 225.494 15.903 224.882 16.983V26.46H226.232V27H219.482V26.46H220.832V15.12H219.482V14.58H224.882V15.984C225.224 15.516 225.755 15.12 226.475 14.796C227.213 14.454 228.005 14.283 228.851 14.283C232.055 14.283 233.657 16.02 233.657 19.494V26.46ZM258.696 26.46V27H251.595V26.46H253.188L251.379 22.707H245.925L244.359 26.46H246.492V27H241.875V26.46H243.684L249.867 11.61H250.542L257.4 26.46H258.696ZM246.168 22.14H251.109L248.463 16.632L246.168 22.14ZM259.225 15.12V14.58H266.515V15.12H265.084L268 21.654L269.755 17.253L268.864 15.12H267.865V14.58H274.615V15.12H273.427L276.343 21.654L278.854 15.12H276.694V14.58H281.095V15.12H279.475L274.912 27H274.345L270.079 18.063L266.542 27H265.975L260.494 15.12H259.225ZM294.381 21.6H286.227C286.407 24.768 287.64 26.352 289.926 26.352C290.538 26.352 291.231 26.208 292.005 25.92C292.797 25.632 293.373 25.227 293.733 24.705L294.111 24.975C293.715 25.641 293.04 26.19 292.086 26.622C291.132 27.054 290.178 27.27 289.224 27.27C288.288 27.27 287.442 27.18 286.686 27C285.93 26.802 285.192 26.478 284.472 26.028C283.752 25.578 283.185 24.903 282.771 24.003C282.375 23.103 282.177 22.014 282.177 20.736C282.177 18.558 282.78 16.947 283.986 15.903C285.192 14.841 286.65 14.31 288.36 14.31C290.088 14.31 291.519 14.886 292.653 16.038C293.805 17.19 294.381 19.044 294.381 21.6ZM286.2 21.06H290.601C290.601 19.404 290.421 17.955 290.061 16.713C289.719 15.471 289.161 14.85 288.387 14.85C287.613 14.85 287.055 15.453 286.713 16.659C286.371 17.847 286.2 19.215 286.2 20.763V21.06ZM302.418 26.784C304.29 26.784 305.226 26.271 305.226 25.245C305.226 24.669 304.902 24.201 304.254 23.841C303.606 23.463 302.823 23.157 301.905 22.923C300.987 22.689 300.078 22.419 299.178 22.113C298.296 21.807 297.558 21.321 296.964 20.655C296.388 19.989 296.154 19.116 296.262 18.036C296.37 16.956 296.919 16.065 297.909 15.363C298.917 14.661 300.15 14.31 301.608 14.31C303.084 14.31 304.272 14.544 305.172 15.012C306.072 15.48 306.576 16.11 306.684 16.902C306.756 17.388 306.675 17.838 306.441 18.252C306.225 18.666 305.856 18.882 305.334 18.9C304.83 18.918 304.407 18.783 304.065 18.495C303.741 18.207 303.588 17.874 303.606 17.496C303.624 17.118 303.768 16.785 304.038 16.497C304.308 16.191 304.443 15.948 304.443 15.768C304.443 15.462 304.146 15.237 303.552 15.093C302.976 14.931 302.301 14.85 301.527 14.85C300.771 14.85 300.15 15.021 299.664 15.363C299.178 15.705 298.935 16.128 298.935 16.632C298.935 17.136 299.232 17.568 299.826 17.928C300.438 18.288 301.176 18.585 302.04 18.819C302.904 19.035 303.759 19.287 304.605 19.575C305.469 19.845 306.198 20.286 306.792 20.898C307.404 21.51 307.71 22.284 307.71 23.22C307.71 24.462 307.269 25.461 306.387 26.217C305.505 26.955 304.173 27.324 302.391 27.324C300.609 27.324 299.16 27.054 298.044 26.514C296.946 25.974 296.343 25.281 296.235 24.435C296.163 23.949 296.244 23.499 296.478 23.085C296.712 22.671 297.081 22.455 297.585 22.437C298.089 22.419 298.503 22.554 298.827 22.842C299.169 23.13 299.331 23.463 299.313 23.841C299.295 24.219 299.151 24.561 298.881 24.867C298.611 25.155 298.476 25.389 298.476 25.569C298.476 25.929 298.89 26.226 299.718 26.46C300.564 26.676 301.464 26.784 302.418 26.784ZM313.612 25.38C314.008 26.28 314.692 26.73 315.664 26.73C316.636 26.73 317.329 26.271 317.743 25.353C318.157 24.435 318.364 22.923 318.364 20.817C318.364 18.693 318.157 17.172 317.743 16.254C317.329 15.318 316.636 14.85 315.664 14.85C314.692 14.85 314.008 15.318 313.612 16.254C313.216 17.172 313.018 18.693 313.018 20.817C313.018 22.941 313.216 24.462 313.612 25.38ZM315.61 27.27C313.9 27.27 312.352 26.712 310.966 25.596C309.58 24.48 308.887 22.896 308.887 20.844C308.887 19.746 309.085 18.765 309.481 17.901C309.895 17.037 310.435 16.353 311.101 15.849C311.785 15.345 312.514 14.967 313.288 14.715C314.062 14.445 314.854 14.31 315.664 14.31C316.474 14.31 317.266 14.445 318.04 14.715C318.832 14.967 319.561 15.345 320.227 15.849C320.911 16.353 321.46 17.037 321.874 17.901C322.288 18.765 322.495 19.737 322.495 20.817C322.495 21.897 322.288 22.86 321.874 23.706C321.46 24.552 320.911 25.227 320.227 25.731C318.859 26.757 317.32 27.27 315.61 27.27ZM347.077 26.46H348.427V27H341.677V26.46H343.027V18.9C343.027 17.622 342.838 16.713 342.46 16.173C342.082 15.633 341.515 15.363 340.759 15.363C340.327 15.363 339.877 15.489 339.409 15.741C338.941 15.993 338.554 16.344 338.248 16.794C338.464 17.442 338.572 18.342 338.572 19.494V26.46H339.922V27H332.902V26.46H334.522V18.9C334.522 17.622 334.333 16.713 333.955 16.173C333.577 15.633 333.01 15.363 332.254 15.363C331.228 15.363 330.409 15.903 329.797 16.983V26.46H331.147V27H324.397V26.46H325.747V15.12H324.397V14.58H329.797V15.984C330.139 15.516 330.67 15.12 331.39 14.796C332.128 14.454 332.92 14.283 333.766 14.283C335.908 14.283 337.303 14.886 337.951 16.092C338.419 15.516 339.04 15.075 339.814 14.769C340.588 14.445 341.407 14.283 342.271 14.283C345.475 14.283 347.077 16.02 347.077 19.494V26.46ZM362.25 21.6H354.096C354.276 24.768 355.509 26.352 357.795 26.352C358.407 26.352 359.1 26.208 359.874 25.92C360.666 25.632 361.242 25.227 361.602 24.705L361.98 24.975C361.584 25.641 360.909 26.19 359.955 26.622C359.001 27.054 358.047 27.27 357.093 27.27C356.157 27.27 355.311 27.18 354.555 27C353.799 26.802 353.061 26.478 352.341 26.028C351.621 25.578 351.054 24.903 350.64 24.003C350.244 23.103 350.046 22.014 350.046 20.736C350.046 18.558 350.649 16.947 351.855 15.903C353.061 14.841 354.519 14.31 356.229 14.31C357.957 14.31 359.388 14.886 360.522 16.038C361.674 17.19 362.25 19.044 362.25 21.6ZM354.069 21.06H358.47C358.47 19.404 358.29 17.955 357.93 16.713C357.588 15.471 357.03 14.85 356.256 14.85C355.482 14.85 354.924 15.453 354.582 16.659C354.24 17.847 354.069 19.215 354.069 20.763V21.06ZM383.108 17.901H382.568C382.568 16.461 382.109 15.129 381.191 13.905C380.273 12.681 378.959 12.069 377.249 12.069C376.295 12.069 375.503 12.627 374.873 13.743C374.261 14.859 373.955 16.767 373.955 19.467C373.955 22.167 374.261 24.075 374.873 25.191C375.503 26.307 376.475 26.865 377.789 26.865C379.121 26.865 380.237 26.451 381.137 25.623C382.055 24.795 382.622 23.625 382.838 22.113H383.378C383.126 23.895 382.496 25.227 381.488 26.109C380.498 26.973 379.31 27.405 377.924 27.405C375.242 27.405 373.181 26.766 371.741 25.488C370.319 24.192 369.608 22.176 369.608 19.44C369.608 16.686 370.301 14.679 371.687 13.419C373.091 12.159 374.945 11.529 377.249 11.529C378.491 11.529 379.697 11.862 380.867 12.528C381.245 12.762 381.551 12.879 381.785 12.879C382.037 12.879 382.235 12.771 382.379 12.555C382.523 12.321 382.595 12.096 382.595 11.88H383.108V17.901ZM389.576 25.38C389.972 26.28 390.656 26.73 391.628 26.73C392.6 26.73 393.293 26.271 393.707 25.353C394.121 24.435 394.328 22.923 394.328 20.817C394.328 18.693 394.121 17.172 393.707 16.254C393.293 15.318 392.6 14.85 391.628 14.85C390.656 14.85 389.972 15.318 389.576 16.254C389.18 17.172 388.982 18.693 388.982 20.817C388.982 22.941 389.18 24.462 389.576 25.38ZM391.574 27.27C389.864 27.27 388.316 26.712 386.93 25.596C385.544 24.48 384.851 22.896 384.851 20.844C384.851 19.746 385.049 18.765 385.445 17.901C385.859 17.037 386.399 16.353 387.065 15.849C387.749 15.345 388.478 14.967 389.252 14.715C390.026 14.445 390.818 14.31 391.628 14.31C392.438 14.31 393.23 14.445 394.004 14.715C394.796 14.967 395.525 15.345 396.191 15.849C396.875 16.353 397.424 17.037 397.838 17.901C398.252 18.765 398.459 19.737 398.459 20.817C398.459 21.897 398.252 22.86 397.838 23.706C397.424 24.552 396.875 25.227 396.191 25.731C394.823 26.757 393.284 27.27 391.574 27.27ZM423.041 26.46H424.391V27H417.641V26.46H418.991V18.9C418.991 17.622 418.802 16.713 418.424 16.173C418.046 15.633 417.479 15.363 416.723 15.363C416.291 15.363 415.841 15.489 415.373 15.741C414.905 15.993 414.518 16.344 414.212 16.794C414.428 17.442 414.536 18.342 414.536 19.494V26.46H415.886V27H408.866V26.46H410.486V18.9C410.486 17.622 410.297 16.713 409.919 16.173C409.541 15.633 408.974 15.363 408.218 15.363C407.192 15.363 406.373 15.903 405.761 16.983V26.46H407.111V27H400.361V26.46H401.711V15.12H400.361V14.58H405.761V15.984C406.103 15.516 406.634 15.12 407.354 14.796C408.092 14.454 408.884 14.283 409.73 14.283C411.872 14.283 413.267 14.886 413.915 16.092C414.383 15.516 415.004 15.075 415.778 14.769C416.552 14.445 417.371 14.283 418.235 14.283C421.439 14.283 423.041 16.02 423.041 19.494V26.46ZM448.96 26.46H450.31V27H443.56V26.46H444.91V18.9C444.91 17.622 444.721 16.713 444.343 16.173C443.965 15.633 443.398 15.363 442.642 15.363C442.21 15.363 441.76 15.489 441.292 15.741C440.824 15.993 440.437 16.344 440.131 16.794C440.347 17.442 440.455 18.342 440.455 19.494V26.46H441.805V27H434.785V26.46H436.405V18.9C436.405 17.622 436.216 16.713 435.838 16.173C435.46 15.633 434.893 15.363 434.137 15.363C433.111 15.363 432.292 15.903 431.68 16.983V26.46H433.03V27H426.28V26.46H427.63V15.12H426.28V14.58H431.68V15.984C432.022 15.516 432.553 15.12 433.273 14.796C434.011 14.454 434.803 14.283 435.649 14.283C437.791 14.283 439.186 14.886 439.834 16.092C440.302 15.516 440.923 15.075 441.697 14.769C442.471 14.445 443.29 14.283 444.154 14.283C447.358 14.283 448.96 16.02 448.96 19.494V26.46ZM461.514 27V25.569C461.172 26.055 460.632 26.469 459.894 26.811C459.174 27.135 458.391 27.297 457.545 27.297C454.341 27.297 452.739 25.56 452.739 22.086V15.12H451.389V14.58H456.789V22.68C456.789 23.958 456.978 24.867 457.356 25.407C457.734 25.947 458.301 26.217 459.057 26.217C460.065 26.217 460.884 25.677 461.514 24.597V15.12H460.164V14.58H465.564V26.46H466.914V27H461.514ZM482.985 26.46H484.335V27H477.585V26.46H478.935V18.9C478.935 17.622 478.746 16.713 478.368 16.173C477.99 15.633 477.423 15.363 476.667 15.363C475.641 15.363 474.822 15.903 474.21 16.983V26.46H475.56V27H468.81V26.46H470.16V15.12H468.81V14.58H474.21V15.984C474.552 15.516 475.083 15.12 475.803 14.796C476.541 14.454 477.333 14.283 478.179 14.283C481.383 14.283 482.985 16.02 482.985 19.494V26.46ZM491.613 26.46H492.963V27H486.213V26.46H487.563V15.12H486.483V14.58H491.613V26.46ZM491.856 11.016C491.856 11.664 491.622 12.222 491.154 12.69C490.704 13.14 490.146 13.365 489.48 13.365C488.832 13.365 488.274 13.14 487.806 12.69C487.338 12.222 487.104 11.664 487.104 11.016C487.104 10.35 487.338 9.783 487.806 9.315C488.274 8.847 488.832 8.613 489.48 8.613C490.146 8.613 490.704 8.847 491.154 9.315C491.622 9.783 491.856 10.35 491.856 11.016ZM499.829 15.12V21.708C499.829 23.256 499.892 24.201 500.018 24.543C500.144 24.867 500.279 25.146 500.423 25.38C500.693 25.848 501.161 26.082 501.827 26.082C502.511 26.082 502.988 25.992 503.258 25.812V26.352C502.394 26.964 501.449 27.27 500.423 27.27C498.911 27.27 497.759 26.91 496.967 26.19C496.175 25.47 495.779 24.183 495.779 22.329V15.12H493.781V14.58H495.779C496.643 14.436 497.408 14.022 498.074 13.338C498.74 12.636 499.199 11.673 499.451 10.449H499.829V14.58H502.961V15.12H499.829ZM510.341 29.997C509.855 31.041 509.342 31.788 508.802 32.238C508.262 32.706 507.542 32.94 506.642 32.94C505.742 32.94 505.04 32.742 504.536 32.346C504.032 31.968 503.78 31.455 503.78 30.807C503.78 30.177 503.96 29.673 504.32 29.295C504.698 28.917 505.148 28.728 505.67 28.728C506.192 28.728 506.633 28.827 506.993 29.025C507.353 29.223 507.605 29.439 507.749 29.673C508.145 30.303 508.514 30.618 508.856 30.618C509.216 30.618 509.531 30.312 509.801 29.7L510.935 27.027L504.617 15.12H503.537V14.58H510.8V15.12H509.45L513.068 22.248L516.173 15.12H514.013V14.58H518.441V15.12H516.821L510.341 29.997Z" fill="url(#paint0_linear_6759_10376)"/>
<g filter="url(#filter1_d_6759_10376)">
<path d="M21.5047 200H20.7047V190.68H21.5047C21.5047 193.187 22.398 195.32 24.1847 197.08C25.998 198.84 28.198 199.72 30.7847 199.72C31.8514 199.72 32.7047 199.413 33.3447 198.8C34.0114 198.16 34.3447 197.32 34.3447 196.28C34.3447 195.107 33.5847 194.107 32.0647 193.28C31.238 192.853 29.8114 192.187 27.7847 191.28C25.758 190.347 24.3314 189.56 23.5047 188.92C21.8514 187.64 21.118 185.947 21.3047 183.84C21.518 181.733 22.318 180.107 23.7047 178.96C25.0914 177.787 26.6514 177.2 28.3847 177.2C30.1447 177.2 31.718 177.44 33.1047 177.92C34.518 178.373 35.318 178.6 35.5047 178.6C36.038 178.6 36.3047 178.133 36.3047 177.2H37.1047V184.52H36.3047C36.3047 182.6 35.598 181.04 34.1847 179.84C32.7714 178.613 30.958 178 28.7447 178C27.758 178 26.9847 178.293 26.4247 178.88C25.8647 179.44 25.5847 180.067 25.5847 180.76C25.5847 181.453 25.678 181.987 25.8647 182.36C26.0514 182.733 26.3714 183.08 26.8247 183.4C27.3047 183.693 27.718 183.933 28.0647 184.12C28.4114 184.307 28.958 184.56 29.7047 184.88C30.478 185.2 31.0114 185.427 31.3047 185.56C32.7714 186.227 33.638 186.627 33.9047 186.76C34.1714 186.867 34.558 187.053 35.0647 187.32C35.5714 187.587 35.9447 187.827 36.1847 188.04C36.4514 188.253 36.7847 188.52 37.1847 188.84C37.5847 189.16 37.878 189.493 38.0647 189.84C38.2514 190.16 38.438 190.533 38.6247 190.96C38.998 191.813 39.1314 192.813 39.0247 193.96C38.8114 196.12 37.998 197.773 36.5847 198.92C35.198 200.04 33.318 200.6 30.9447 200.6C28.8114 200.6 26.6914 200.053 24.5847 198.96C23.8647 198.587 23.3314 198.4 22.9847 198.4C21.998 198.4 21.5047 198.933 21.5047 200ZM59.8894 192H47.8094C48.076 196.693 49.9027 199.04 53.2894 199.04C54.196 199.04 55.2227 198.827 56.3694 198.4C57.5427 197.973 58.396 197.373 58.9294 196.6L59.4894 197C58.9027 197.987 57.9027 198.8 56.4894 199.44C55.076 200.08 53.6627 200.4 52.2494 200.4C50.8627 200.4 49.6094 200.267 48.4894 200C47.3694 199.707 46.276 199.227 45.2094 198.56C44.1427 197.893 43.3027 196.893 42.6894 195.56C42.1027 194.227 41.8094 192.613 41.8094 190.72C41.8094 187.493 42.7027 185.107 44.4894 183.56C46.276 181.987 48.436 181.2 50.9694 181.2C53.5294 181.2 55.6494 182.053 57.3294 183.76C59.036 185.467 59.8894 188.213 59.8894 192ZM47.7694 191.2H54.2894C54.2894 188.747 54.0227 186.6 53.4894 184.76C52.9827 182.92 52.156 182 51.0094 182C49.8627 182 49.036 182.893 48.5294 184.68C48.0227 186.44 47.7694 188.467 47.7694 190.76V191.2ZM69.9953 190.36V196.96C70.7153 198.4 71.6486 199.12 72.7953 199.12C73.9686 199.12 74.9686 198.453 75.7953 197.12C76.622 195.787 77.0353 193.653 77.0353 190.72C77.0353 187.76 76.7153 185.693 76.0753 184.52C75.4353 183.32 74.462 182.72 73.1553 182.72C71.8486 182.72 70.9953 183.253 70.5953 184.32C70.1953 185.387 69.9953 187.4 69.9953 190.36ZM69.9953 183.44C70.902 181.893 72.5286 181.12 74.8753 181.12C77.222 181.12 79.182 181.973 80.7553 183.68C82.3286 185.387 83.1153 187.8 83.1153 190.92C83.1153 194.04 82.342 196.48 80.7953 198.24C79.2486 200 77.3686 200.88 75.1553 200.88C74.062 200.88 73.0353 200.653 72.0753 200.2C71.1153 199.747 70.422 199.067 69.9953 198.16V207.6H71.9953V208.4H63.9953V182.4H61.9953V181.6H69.9953V183.44ZM93.2803 182.4V192.16C93.2803 194.453 93.3736 195.853 93.5603 196.36C93.747 196.84 93.947 197.253 94.1603 197.6C94.5603 198.293 95.2536 198.64 96.2403 198.64C97.2536 198.64 97.9603 198.507 98.3603 198.24V199.04C97.0803 199.947 95.6803 200.4 94.1603 200.4C91.9203 200.4 90.2136 199.867 89.0403 198.8C87.867 197.733 87.2803 195.827 87.2803 193.08V182.4H84.3203V181.6H87.2803C88.5603 181.387 89.6936 180.773 90.6803 179.76C91.667 178.72 92.347 177.293 92.7203 175.48H93.2803V181.6H97.9203V182.4H93.2803ZM118.053 192H105.973C106.24 196.693 108.067 199.04 111.453 199.04C112.36 199.04 113.387 198.827 114.533 198.4C115.707 197.973 116.56 197.373 117.093 196.6L117.653 197C117.067 197.987 116.067 198.8 114.653 199.44C113.24 200.08 111.827 200.4 110.413 200.4C109.027 200.4 107.773 200.267 106.653 200C105.533 199.707 104.44 199.227 103.373 198.56C102.307 197.893 101.467 196.893 100.853 195.56C100.267 194.227 99.9734 192.613 99.9734 190.72C99.9734 187.493 100.867 185.107 102.653 183.56C104.44 181.987 106.6 181.2 109.133 181.2C111.693 181.2 113.813 182.053 115.493 183.76C117.2 185.467 118.053 188.213 118.053 192ZM105.933 191.2H112.453C112.453 188.747 112.187 186.6 111.653 184.76C111.147 182.92 110.32 182 109.173 182C108.027 182 107.2 182.893 106.693 184.68C106.187 186.44 105.933 188.467 105.933 190.76V191.2ZM154.559 199.2H156.559V200H146.559V199.2H148.559V188C148.559 186.107 148.279 184.76 147.719 183.96C147.159 183.16 146.319 182.76 145.199 182.76C144.559 182.76 143.893 182.947 143.199 183.32C142.506 183.693 141.933 184.213 141.479 184.88C141.799 185.84 141.959 187.173 141.959 188.88V199.2H143.959V200H133.559V199.2H135.959V188C135.959 186.107 135.679 184.76 135.119 183.96C134.559 183.16 133.719 182.76 132.599 182.76C131.079 182.76 129.866 183.56 128.959 185.16V199.2H130.959V200H120.959V199.2H122.959V182.4H120.959V181.6H128.959V183.68C129.466 182.987 130.253 182.4 131.319 181.92C132.413 181.413 133.586 181.16 134.839 181.16C138.013 181.16 140.079 182.053 141.039 183.84C141.733 182.987 142.653 182.333 143.799 181.88C144.946 181.4 146.159 181.16 147.439 181.16C152.186 181.16 154.559 183.733 154.559 188.88V199.2ZM166.158 193.76C166.158 195.787 166.384 197.253 166.838 198.16C167.291 199.04 168.011 199.48 168.998 199.48C170.011 199.48 170.904 198.733 171.678 197.24C172.451 195.72 172.838 193.6 172.838 190.88C172.838 188.133 172.424 186.027 171.598 184.56C170.798 183.093 169.851 182.36 168.758 182.36C167.664 182.36 166.798 182.987 166.158 184.24V193.76ZM175.558 198.6C174.571 199.24 173.611 199.693 172.678 199.96C171.744 200.227 170.824 200.36 169.918 200.36C169.038 200.36 168.224 200.2 167.478 199.88C166.731 199.533 166.131 199.173 165.678 198.8C165.251 198.4 164.771 198.04 164.238 197.72C163.704 197.373 163.198 197.2 162.718 197.2C162.238 197.2 161.811 197.467 161.438 198C161.091 198.533 160.918 199.2 160.918 200H160.158V174H158.158V173.2H166.158V183.04C166.584 182.32 167.278 181.76 168.238 181.36C169.224 180.933 170.251 180.72 171.318 180.72C173.344 180.72 175.104 181.613 176.598 183.4C178.118 185.16 178.878 187.627 178.878 190.8C178.878 192.667 178.571 194.267 177.958 195.6C177.344 196.933 176.544 197.933 175.558 198.6ZM199.343 192H187.263C187.529 196.693 189.356 199.04 192.743 199.04C193.649 199.04 194.676 198.827 195.823 198.4C196.996 197.973 197.849 197.373 198.383 196.6L198.943 197C198.356 197.987 197.356 198.8 195.943 199.44C194.529 200.08 193.116 200.4 191.703 200.4C190.316 200.4 189.063 200.267 187.943 200C186.823 199.707 185.729 199.227 184.663 198.56C183.596 197.893 182.756 196.893 182.143 195.56C181.556 194.227 181.263 192.613 181.263 190.72C181.263 187.493 182.156 185.107 183.943 183.56C185.729 181.987 187.889 181.2 190.423 181.2C192.983 181.2 195.103 182.053 196.783 183.76C198.489 185.467 199.343 188.213 199.343 192ZM187.223 191.2H193.743C193.743 188.747 193.476 186.6 192.943 184.76C192.436 182.92 191.609 182 190.463 182C189.316 182 188.489 182.893 187.983 184.68C187.476 186.44 187.223 188.467 187.223 190.76V191.2ZM212.248 200H202.248V199.2H204.248V182.4H202.248V181.6H210.248V186.36C210.488 185.053 210.915 183.987 211.528 183.16C212.168 182.333 212.862 181.787 213.608 181.52C214.382 181.253 215.115 181.12 215.808 181.12C216.528 181.12 217.208 181.253 217.848 181.52C218.515 181.76 219.008 182.267 219.328 183.04C219.648 183.787 219.662 184.547 219.368 185.32C219.075 186.067 218.555 186.6 217.808 186.92C217.088 187.24 216.422 187.28 215.808 187.04C215.195 186.8 214.755 186.48 214.488 186.08C214.222 185.653 214.035 185.253 213.928 184.88C213.662 183.893 213.302 183.4 212.848 183.4C212.342 183.4 211.782 184.28 211.168 186.04C210.555 187.773 210.248 189.613 210.248 191.56V199.2H212.248V200ZM247.698 194.32C247.698 196 247.298 197.44 246.498 198.64C245.725 199.813 244.578 200.4 243.058 200.4C241.565 200.4 239.818 199.907 237.818 198.92C235.818 197.907 234.378 197.4 233.498 197.4C231.925 197.4 230.951 198.267 230.578 200H229.778C229.938 197.973 230.685 196.067 232.018 194.28C232.925 193.08 234.845 191.04 237.778 188.16C238.551 187.387 239.245 186.467 239.858 185.4C240.471 184.333 240.778 183.187 240.778 181.96C240.778 180.733 240.418 179.68 239.698 178.8C238.978 177.92 237.911 177.48 236.498 177.48C235.591 177.48 234.765 177.653 234.018 178C233.271 178.347 232.898 178.747 232.898 179.2C232.898 179.627 233.071 179.947 233.418 180.16C233.791 180.373 234.178 180.547 234.578 180.68C235.005 180.787 235.391 181.053 235.738 181.48C236.111 181.907 236.298 182.48 236.298 183.2C236.298 183.92 236.031 184.533 235.498 185.04C234.991 185.547 234.285 185.8 233.378 185.8C232.471 185.8 231.725 185.467 231.138 184.8C230.551 184.133 230.258 183.28 230.258 182.24C230.258 180.613 230.951 179.253 232.338 178.16C233.751 177.067 235.711 176.52 238.218 176.52C240.751 176.52 242.898 177.067 244.658 178.16C246.418 179.253 247.298 180.76 247.298 182.68C247.298 184.253 246.925 185.587 246.178 186.68C245.458 187.773 244.525 188.6 243.378 189.16C242.258 189.72 241.098 190.213 239.898 190.64C238.725 191.04 237.565 191.52 236.418 192.08C235.298 192.613 234.498 193.24 234.018 193.96C234.658 193.427 235.485 193.16 236.498 193.16C237.511 193.16 238.658 193.333 239.938 193.68C241.245 194.027 242.271 194.2 243.018 194.2C243.765 194.2 244.378 194.16 244.858 194.08C245.338 194 245.791 193.773 246.218 193.4C246.645 193.027 246.898 192.493 246.978 191.8H247.378C247.591 192.653 247.698 193.493 247.698 194.32ZM260.791 199.2H263.591V200H251.591V199.2H254.791V179.96L251.551 181.2L251.311 180.44L259.351 176.72H260.791V199.2ZM266.389 192.08V189.04H273.229V192.08H266.389ZM293.948 194.32C293.948 196 293.548 197.44 292.748 198.64C291.975 199.813 290.828 200.4 289.308 200.4C287.815 200.4 286.068 199.907 284.068 198.92C282.068 197.907 280.628 197.4 279.748 197.4C278.175 197.4 277.201 198.267 276.828 200H276.028C276.188 197.973 276.935 196.067 278.268 194.28C279.175 193.08 281.095 191.04 284.028 188.16C284.801 187.387 285.495 186.467 286.108 185.4C286.721 184.333 287.028 183.187 287.028 181.96C287.028 180.733 286.668 179.68 285.948 178.8C285.228 177.92 284.161 177.48 282.748 177.48C281.841 177.48 281.015 177.653 280.268 178C279.521 178.347 279.148 178.747 279.148 179.2C279.148 179.627 279.321 179.947 279.668 180.16C280.041 180.373 280.428 180.547 280.828 180.68C281.255 180.787 281.641 181.053 281.988 181.48C282.361 181.907 282.548 182.48 282.548 183.2C282.548 183.92 282.281 184.533 281.748 185.04C281.241 185.547 280.535 185.8 279.628 185.8C278.721 185.8 277.975 185.467 277.388 184.8C276.801 184.133 276.508 183.28 276.508 182.24C276.508 180.613 277.201 179.253 278.588 178.16C280.001 177.067 281.961 176.52 284.468 176.52C287.001 176.52 289.148 177.067 290.908 178.16C292.668 179.253 293.548 180.76 293.548 182.68C293.548 184.253 293.175 185.587 292.428 186.68C291.708 187.773 290.775 188.6 289.628 189.16C288.508 189.72 287.348 190.213 286.148 190.64C284.975 191.04 283.815 191.52 282.668 192.08C281.548 192.613 280.748 193.24 280.268 193.96C280.908 193.427 281.735 193.16 282.748 193.16C283.761 193.16 284.908 193.333 286.188 193.68C287.495 194.027 288.521 194.2 289.268 194.2C290.015 194.2 290.628 194.16 291.108 194.08C291.588 194 292.041 193.773 292.468 193.4C292.895 193.027 293.148 192.493 293.228 191.8H293.628C293.841 192.653 293.948 193.493 293.948 194.32ZM315.081 194.32C315.081 196 314.681 197.44 313.881 198.64C313.108 199.813 311.961 200.4 310.441 200.4C308.948 200.4 307.201 199.907 305.201 198.92C303.201 197.907 301.761 197.4 300.881 197.4C299.308 197.4 298.334 198.267 297.961 200H297.161C297.321 197.973 298.068 196.067 299.401 194.28C300.308 193.08 302.228 191.04 305.161 188.16C305.934 187.387 306.628 186.467 307.241 185.4C307.854 184.333 308.161 183.187 308.161 181.96C308.161 180.733 307.801 179.68 307.081 178.8C306.361 177.92 305.294 177.48 303.881 177.48C302.974 177.48 302.148 177.653 301.401 178C300.654 178.347 300.281 178.747 300.281 179.2C300.281 179.627 300.454 179.947 300.801 180.16C301.174 180.373 301.561 180.547 301.961 180.68C302.388 180.787 302.774 181.053 303.121 181.48C303.494 181.907 303.681 182.48 303.681 183.2C303.681 183.92 303.414 184.533 302.881 185.04C302.374 185.547 301.668 185.8 300.761 185.8C299.854 185.8 299.108 185.467 298.521 184.8C297.934 184.133 297.641 183.28 297.641 182.24C297.641 180.613 298.334 179.253 299.721 178.16C301.134 177.067 303.094 176.52 305.601 176.52C308.134 176.52 310.281 177.067 312.041 178.16C313.801 179.253 314.681 180.76 314.681 182.68C314.681 184.253 314.308 185.587 313.561 186.68C312.841 187.773 311.908 188.6 310.761 189.16C309.641 189.72 308.481 190.213 307.281 190.64C306.108 191.04 304.948 191.52 303.801 192.08C302.681 192.613 301.881 193.24 301.401 193.96C302.041 193.427 302.868 193.16 303.881 193.16C304.894 193.16 306.041 193.333 307.321 193.68C308.628 194.027 309.654 194.2 310.401 194.2C311.148 194.2 311.761 194.16 312.241 194.08C312.721 194 313.174 193.773 313.601 193.4C314.028 193.027 314.281 192.493 314.361 191.8H314.761C314.974 192.653 315.081 193.493 315.081 194.32ZM323.214 199.8L321.574 200.04C320.8 200.04 320.107 199.773 319.494 199.24C318.88 198.707 318.574 197.947 318.574 196.96C318.574 195.947 318.894 195.107 319.534 194.44C320.2 193.773 321.12 193.44 322.294 193.44C323.494 193.44 324.467 193.893 325.214 194.8C325.96 195.707 326.334 196.733 326.334 197.88C326.334 199.533 325.787 201.053 324.694 202.44C323.627 203.853 322.08 205.013 320.054 205.92L319.774 205.2C322.547 203.573 323.934 202 323.934 200.48C323.934 200.027 323.694 199.8 323.214 199.8ZM356.409 194.32C356.409 196 356.009 197.44 355.209 198.64C354.436 199.813 353.289 200.4 351.769 200.4C350.276 200.4 348.529 199.907 346.529 198.92C344.529 197.907 343.089 197.4 342.209 197.4C340.636 197.4 339.662 198.267 339.289 200H338.489C338.649 197.973 339.396 196.067 340.729 194.28C341.636 193.08 343.556 191.04 346.489 188.16C347.262 187.387 347.956 186.467 348.569 185.4C349.182 184.333 349.489 183.187 349.489 181.96C349.489 180.733 349.129 179.68 348.409 178.8C347.689 177.92 346.622 177.48 345.209 177.48C344.302 177.48 343.476 177.653 342.729 178C341.982 178.347 341.609 178.747 341.609 179.2C341.609 179.627 341.782 179.947 342.129 180.16C342.502 180.373 342.889 180.547 343.289 180.68C343.716 180.787 344.102 181.053 344.449 181.48C344.822 181.907 345.009 182.48 345.009 183.2C345.009 183.92 344.742 184.533 344.209 185.04C343.702 185.547 342.996 185.8 342.089 185.8C341.182 185.8 340.436 185.467 339.849 184.8C339.262 184.133 338.969 183.28 338.969 182.24C338.969 180.613 339.662 179.253 341.049 178.16C342.462 177.067 344.422 176.52 346.929 176.52C349.462 176.52 351.609 177.067 353.369 178.16C355.129 179.253 356.009 180.76 356.009 182.68C356.009 184.253 355.636 185.587 354.889 186.68C354.169 187.773 353.236 188.6 352.089 189.16C350.969 189.72 349.809 190.213 348.609 190.64C347.436 191.04 346.276 191.52 345.129 192.08C344.009 192.613 343.209 193.24 342.729 193.96C343.369 193.427 344.196 193.16 345.209 193.16C346.222 193.16 347.369 193.333 348.649 193.68C349.956 194.027 350.982 194.2 351.729 194.2C352.476 194.2 353.089 194.16 353.569 194.08C354.049 194 354.502 193.773 354.929 193.4C355.356 193.027 355.609 192.493 355.689 191.8H356.089C356.302 192.653 356.409 193.493 356.409 194.32ZM379.702 188.56C379.702 192.16 378.809 195.053 377.022 197.24C375.235 199.4 372.822 200.48 369.782 200.48C366.769 200.48 364.382 199.4 362.622 197.24C360.889 195.08 360.022 192.027 360.022 188.08C360.022 184.827 360.889 182.093 362.622 179.88C364.382 177.64 366.809 176.52 369.902 176.52C373.022 176.52 375.435 177.627 377.142 179.84C378.849 182.027 379.702 184.933 379.702 188.56ZM373.742 188.08C373.742 180.907 372.449 177.32 369.862 177.32C367.275 177.32 365.982 180.907 365.982 188.08C365.982 191.92 366.262 194.813 366.822 196.76C367.382 198.707 368.409 199.68 369.902 199.68C371.395 199.68 372.409 198.72 372.942 196.8C373.475 194.88 373.742 191.973 373.742 188.08ZM400.433 194.32C400.433 196 400.033 197.44 399.233 198.64C398.459 199.813 397.313 200.4 395.793 200.4C394.299 200.4 392.553 199.907 390.553 198.92C388.553 197.907 387.113 197.4 386.233 197.4C384.659 197.4 383.686 198.267 383.313 200H382.513C382.673 197.973 383.419 196.067 384.753 194.28C385.659 193.08 387.579 191.04 390.513 188.16C391.286 187.387 391.979 186.467 392.593 185.4C393.206 184.333 393.513 183.187 393.513 181.96C393.513 180.733 393.153 179.68 392.433 178.8C391.713 177.92 390.646 177.48 389.233 177.48C388.326 177.48 387.499 177.653 386.753 178C386.006 178.347 385.633 178.747 385.633 179.2C385.633 179.627 385.806 179.947 386.153 180.16C386.526 180.373 386.913 180.547 387.313 180.68C387.739 180.787 388.126 181.053 388.473 181.48C388.846 181.907 389.033 182.48 389.033 183.2C389.033 183.92 388.766 184.533 388.233 185.04C387.726 185.547 387.019 185.8 386.113 185.8C385.206 185.8 384.459 185.467 383.873 184.8C383.286 184.133 382.993 183.28 382.993 182.24C382.993 180.613 383.686 179.253 385.073 178.16C386.486 177.067 388.446 176.52 390.953 176.52C393.486 176.52 395.633 177.067 397.393 178.16C399.153 179.253 400.033 180.76 400.033 182.68C400.033 184.253 399.659 185.587 398.913 186.68C398.193 187.773 397.259 188.6 396.113 189.16C394.993 189.72 393.833 190.213 392.633 190.64C391.459 191.04 390.299 191.52 389.153 192.08C388.033 192.613 387.233 193.24 386.753 193.96C387.393 193.427 388.219 193.16 389.233 193.16C390.246 193.16 391.393 193.333 392.673 193.68C393.979 194.027 395.006 194.2 395.753 194.2C396.499 194.2 397.113 194.16 397.593 194.08C398.073 194 398.526 193.773 398.953 193.4C399.379 193.027 399.633 192.493 399.713 191.8H400.113C400.326 192.653 400.433 193.493 400.433 194.32ZM421.165 190.84H422.085V197H421.165V194.28H418.205V199.2H420.805V200H409.605V199.2H412.205V194.28H402.845V193.48L414.205 176.72H418.205V193.48H421.165V190.84ZM412.205 193.48V181.12L403.885 193.48H412.205Z" fill="white"/>
</g>
<defs>
<filter id="filter0_d_6759_10376" x="1.80493" y="38.348" width="637.353" height="122.892" filterUnits="userSpaceOnUse" color-interpolation-filters="sRGB">
<feFlood flood-opacity="0" result="BackgroundImageFix"/>
<feColorMatrix in="SourceAlpha" type="matrix" values="0 0 0 0 0 0 0 0 0 0 0 0 0 0 0 0 0 0 127 0" result="hardAlpha"/>
<feOffset/>
<feGaussianBlur stdDeviation="10"/>
<feComposite in2="hardAlpha" operator="out"/>
<feColorMatrix type="matrix" values="0 0 0 0 0.891667 0 0 0 0 0.891667 0 0 0 0 0.891667 0 0 0 0.45 0"/>
<feBlend mode="normal" in2="BackgroundImageFix" result="effect1_dropShadow_6759_10376"/>
<feBlend mode="normal" in="SourceGraphic" in2="effect1_dropShadow_6759_10376" result="shape"/>
</filter>
<filter id="filter1_d_6759_10376" x="0.70459" y="153.2" width="441.381" height="75.2" filterUnits="userSpaceOnUse" color-interpolation-filters="sRGB">
<feFlood flood-opacity="0" result="BackgroundImageFix"/>
<feColorMatrix in="SourceAlpha" type="matrix" values="0 0 0 0 0 0 0 0 0 0 0 0 0 0 0 0 0 0 127 0" result="hardAlpha"/>
<feOffset/>
<feGaussianBlur stdDeviation="10"/>
<feComposite in2="hardAlpha" operator="out"/>
<feColorMatrix type="matrix" values="0 0 0 0 0.9125 0 0 0 0 0.9125 0 0 0 0 0.9125 0 0 0 0.45 0"/>
<feBlend mode="normal" in2="BackgroundImageFix" result="effect1_dropShadow_6759_10376"/>
<feBlend mode="normal" in="SourceGraphic" in2="effect1_dropShadow_6759_10376" result="shape"/>
</filter>
<linearGradient id="paint0_linear_6759_10376" x1="51.5" y1="18.9999" x2="494.5" y2="18.9999" gradientUnits="userSpaceOnUse">
<stop stop-color="#E77196"/>
<stop offset="0.947917" stop-color="#5F5BCF"/>
</linearGradient>
</defs>
</svg>
