<svg width="554" height="536" viewBox="0 0 554 536" fill="none" xmlns="http://www.w3.org/2000/svg">
<rect width="24.3501" height="137.986" rx="12.175" transform="matrix(0.59909 -0.800681 -0.871151 -0.491016 213.41 125.442)" fill="url(#paint0_linear_5140_23374)"/>
<rect width="24.3501" height="187.572" rx="12.175" transform="matrix(0.59909 -0.800681 -0.871151 -0.491016 194.969 302.372)" fill="url(#paint1_linear_5140_23374)"/>
<rect width="26.5174" height="166.231" rx="13.2587" transform="matrix(0.59909 -0.800681 -0.871151 -0.491016 144.812 102.854)" fill="url(#paint2_linear_5140_23374)" fill-opacity="0.5"/>
<rect width="26.5174" height="166.231" rx="13.2587" transform="matrix(0.59909 -0.800681 -0.871151 -0.491016 160.539 265.854)" fill="url(#paint3_linear_5140_23374)" fill-opacity="0.5"/>
<circle cx="408" cy="262" r="2" fill="#9D93A3" fill-opacity="0.8"/>
<circle cx="418" cy="262" r="2" fill="#9D93A3" fill-opacity="0.8"/>
<circle cx="428" cy="262" r="2" fill="#9D93A3" fill-opacity="0.8"/>
<circle cx="438" cy="262" r="2" fill="#9D93A3" fill-opacity="0.8"/>
<circle cx="448" cy="262" r="2" fill="#9D93A3" fill-opacity="0.8"/>
<circle cx="458" cy="262" r="2" fill="#9D93A3" fill-opacity="0.8"/>
<circle cx="468" cy="262" r="2" fill="#9D93A3" fill-opacity="0.8"/>
<circle cx="478" cy="262" r="2" fill="#9D93A3" fill-opacity="0.8"/>
<circle cx="488" cy="262" r="2" fill="#9D93A3" fill-opacity="0.8"/>
<circle cx="408" cy="273" r="2" fill="#9D93A3" fill-opacity="0.8"/>
<circle cx="418" cy="273" r="2" fill="#9D93A3" fill-opacity="0.8"/>
<circle cx="428" cy="273" r="2" fill="#9D93A3" fill-opacity="0.8"/>
<circle cx="458" cy="273" r="2" fill="#9D93A3" fill-opacity="0.8"/>
<circle cx="468" cy="273" r="2" fill="#9D93A3" fill-opacity="0.8"/>
<circle cx="478" cy="273" r="2" fill="#9D93A3" fill-opacity="0.8"/>
<circle cx="488" cy="273" r="2" fill="#9D93A3" fill-opacity="0.8"/>
<circle cx="498" cy="273" r="2" fill="#9D93A3" fill-opacity="0.8"/>
<circle cx="508" cy="273" r="2" fill="#9D93A3" fill-opacity="0.8"/>
<circle cx="518" cy="273" r="2" fill="#9D93A3" fill-opacity="0.8"/>
<circle cx="528" cy="273" r="2" fill="#9D93A3" fill-opacity="0.8"/>
<circle cx="498" cy="306" r="2" fill="#9D93A3" fill-opacity="0.8"/>
<circle cx="508" cy="306" r="2" fill="#9D93A3" fill-opacity="0.8"/>
<circle cx="518" cy="306" r="2" fill="#9D93A3" fill-opacity="0.8"/>
<circle cx="528" cy="306" r="2" fill="#9D93A3" fill-opacity="0.8"/>
<circle cx="498" cy="295" r="2" fill="#9D93A3" fill-opacity="0.8"/>
<circle cx="508" cy="295" r="2" fill="#9D93A3" fill-opacity="0.8"/>
<circle cx="518" cy="295" r="2" fill="#9D93A3" fill-opacity="0.8"/>
<circle cx="528" cy="295" r="2" fill="#9D93A3" fill-opacity="0.8"/>
<circle cx="538" cy="295" r="2" fill="#9D93A3" fill-opacity="0.8"/>
<circle cx="408" cy="284" r="2" fill="#9D93A3" fill-opacity="0.8"/>
<circle cx="418" cy="284" r="2" fill="#9D93A3" fill-opacity="0.8"/>
<circle cx="428" cy="284" r="2" fill="#9D93A3" fill-opacity="0.8"/>
<circle cx="438" cy="284" r="2" fill="#9D93A3" fill-opacity="0.8"/>
<circle cx="448" cy="284" r="2" fill="#9D93A3" fill-opacity="0.8"/>
<circle cx="458" cy="284" r="2" fill="#9D93A3" fill-opacity="0.8"/>
<circle cx="468" cy="284" r="2" fill="#9D93A3" fill-opacity="0.8"/>
<circle cx="478" cy="284" r="2" fill="#9D93A3" fill-opacity="0.8"/>
<circle cx="488" cy="284" r="2" fill="#9D93A3" fill-opacity="0.8"/>
<circle cx="408" cy="295" r="2" fill="#9D93A3" fill-opacity="0.8"/>
<circle cx="418" cy="295" r="2" fill="#9D93A3" fill-opacity="0.8"/>
<circle cx="428" cy="295" r="2" fill="#9D93A3" fill-opacity="0.8"/>
<circle cx="438" cy="295" r="2" fill="#9D93A3" fill-opacity="0.8"/>
<circle cx="448" cy="295" r="2" fill="#9D93A3" fill-opacity="0.8"/>
<circle cx="458" cy="295" r="2" fill="#9D93A3" fill-opacity="0.8"/>
<circle cx="468" cy="295" r="2" fill="#9D93A3" fill-opacity="0.8"/>
<circle cx="478" cy="295" r="2" fill="#9D93A3" fill-opacity="0.8"/>
<circle cx="488" cy="295" r="2" fill="#9D93A3" fill-opacity="0.8"/>
<circle cx="408" cy="306" r="2" fill="#9D93A3" fill-opacity="0.8"/>
<circle cx="418" cy="306" r="2" fill="#9D93A3" fill-opacity="0.8"/>
<circle cx="428" cy="306" r="2" fill="#9D93A3" fill-opacity="0.8"/>
<circle cx="438" cy="306" r="2" fill="#9D93A3" fill-opacity="0.8"/>
<circle cx="448" cy="306" r="2" fill="#9D93A3" fill-opacity="0.8"/>
<circle cx="458" cy="306" r="2" fill="#9D93A3" fill-opacity="0.8"/>
<circle cx="468" cy="306" r="2" fill="#9D93A3" fill-opacity="0.8"/>
<circle cx="478" cy="306" r="2" fill="#9D93A3" fill-opacity="0.8"/>
<circle cx="488" cy="306" r="2" fill="#9D93A3" fill-opacity="0.8"/>
<rect x="211.801" y="343.13" width="6.79" height="6.79" rx="3.395" transform="rotate(45 211.801 343.13)" fill="url(#paint4_linear_5140_23374)"/>
<rect x="211.801" y="365.732" width="6.79" height="6.79" rx="3.395" transform="rotate(45 211.801 365.732)" fill="url(#paint5_linear_5140_23374)"/>
<rect x="211.801" y="388.335" width="6.79" height="6.79" rx="3.395" transform="rotate(45 211.801 388.335)" fill="url(#paint6_linear_5140_23374)"/>
<rect x="211.801" y="410.938" width="6.79" height="6.79" rx="3.395" transform="rotate(45 211.801 410.938)" fill="url(#paint7_linear_5140_23374)"/>
<rect x="211.801" y="433.54" width="6.79" height="6.79" rx="3.395" transform="rotate(45 211.801 433.54)" fill="url(#paint8_linear_5140_23374)"/>
<path d="M343 102C348.695 100.861 352.837 91 361.638 91C368.369 91 372.511 102 380.277 102C388.043 102 391.149 91 398.915 91C407.957 91.0001 407.716 102 417.035 102C423.766 102 425.837 91 434.638 91C441.887 91 447.582 102 454.312 102C461.043 102 464.667 91.0002 471.397 91C476.574 91 485.376 102 489 102" stroke="url(#paint9_linear_5140_23374)" stroke-width="5"/>
<path fill-rule="evenodd" clip-rule="evenodd" d="M154.423 365.13H143.838L166 378.806V372.274L154.423 365.13ZM166 365.451V365.13H165.48L166 365.451ZM94 379.903V371.43L166 415.861V424.333L94 379.903ZM94 386.726V395.198L161.509 436.857L161.34 437.13H166V431.156L94 386.726ZM94 410.493V402.021L150.895 437.13H137.165L94 410.493ZM94 417.316V425.788L112.379 437.13H126.109L94 417.316ZM94 437.13V432.611L101.323 437.13H94ZM166 400.565V409.038L94.8467 365.13H108.576L166 400.565ZM166 393.742V385.629L132.781 365.13H119.633L166 393.742Z" fill="url(#paint10_angular_5140_23374)"/>
<path fill-rule="evenodd" clip-rule="evenodd" d="M408.934 438H427.142L538.239 502.142C534.873 504.355 531.103 506.003 527.062 506.949L449.493 462.165L445.606 468.898L513.105 507.869H495.425L448.887 481L445 487.733L479.875 507.869H464.64L438.887 493L435 499.733L449.091 507.869H408.934C389.641 507.869 374 492.228 374 472.934C374 453.641 389.641 438 408.934 438ZM550.194 488.807C548.695 491.741 546.794 494.434 544.563 496.816L442.691 438H462.194L550.194 488.807ZM552.961 481.426C553.64 478.708 554 475.863 554 472.934C554 472.193 553.977 471.457 553.931 470.727L497.247 438H477.744L552.961 481.426ZM519.066 438C533.967 438 546.689 447.33 551.71 460.467L512.796 438H519.066Z" fill="url(#paint11_linear_5140_23374)"/>
<rect x="374" y="438" width="77.7778" height="69.8686" rx="34.9343" fill="url(#paint12_linear_5140_23374)"/>
<rect x="396.223" y="458.55" width="33.3333" height="30.8244" rx="15.4122" fill="#121023"/>
<path d="M109 532C116.138 530.55 121.33 518 132.362 518C140.798 518 145.989 532 155.723 532C165.457 532 169.351 518 179.085 518C190.418 518 190.117 532 201.798 532C210.234 532 212.83 518 223.862 518C232.947 518 240.085 532 248.521 532C256.957 532 261.5 518 269.936 518C276.426 518 287.457 532 292 532" stroke="url(#paint13_linear_5140_23374)" stroke-width="8"/>
<path fill-rule="evenodd" clip-rule="evenodd" d="M283.581 380.469C285.619 379.214 287.788 378.151 290.063 377.306L337.241 398.078C338.139 400.285 338.829 402.6 339.288 404.996L283.581 380.469ZM278.175 384.518C276.727 385.825 275.382 387.245 274.155 388.764L339.536 417.55C339.809 415.74 339.95 413.886 339.95 412C339.95 411.905 339.95 411.81 339.949 411.716L278.175 384.518ZM268.419 398.683C269.084 396.958 269.875 395.296 270.781 393.708L338.168 423.377C337.599 425.138 336.902 426.842 336.088 428.476L268.419 398.683ZM266.737 404.372C266.349 406.222 266.1 408.123 266 410.064L329.328 437.946C330.67 436.582 331.907 435.115 333.025 433.557L266.737 404.372ZM267.693 423.254C267.01 421.113 266.516 418.886 266.233 416.595L324.354 442.185C322.506 443.497 320.533 444.644 318.455 445.604L267.693 423.254ZM271.381 431.307C277.885 441.92 289.591 449 302.95 449C305.371 449 307.738 448.767 310.029 448.323L271.381 431.307ZM302.95 375C314.909 375 325.543 380.674 332.306 389.476L299.74 375.137C300.798 375.046 301.868 375 302.95 375Z" fill="url(#paint14_angular_5140_23374)"/>
<defs>
<linearGradient id="paint0_linear_5140_23374" x1="12.175" y1="0" x2="12.175" y2="137.986" gradientUnits="userSpaceOnUse">
<stop offset="0.046875" stop-color="#AE3C9C"/>
<stop offset="0.375" stop-color="#7136C1"/>
<stop offset="0.734375" stop-color="#2F36E7"/>
<stop offset="0.994792" stop-color="#6BC0E2"/>
</linearGradient>
<linearGradient id="paint1_linear_5140_23374" x1="12.175" y1="-7.52133e-09" x2="13.1485" y2="170.438" gradientUnits="userSpaceOnUse">
<stop stop-color="#6AC7B3"/>
<stop offset="0.338542" stop-color="#347DC3"/>
<stop offset="0.666667" stop-color="#51ADB0"/>
<stop offset="0.984375" stop-color="#6BB7CA"/>
</linearGradient>
<linearGradient id="paint2_linear_5140_23374" x1="13.2587" y1="0" x2="13.2587" y2="166.231" gradientUnits="userSpaceOnUse">
<stop stop-color="#6CC2E2"/>
<stop offset="0.411458" stop-color="#7D5BE0"/>
<stop offset="0.682292" stop-color="#2F36E7"/>
<stop offset="1" stop-color="#A45ED9"/>
</linearGradient>
<linearGradient id="paint3_linear_5140_23374" x1="13.2587" y1="0" x2="13.2587" y2="166.231" gradientUnits="userSpaceOnUse">
<stop stop-color="#6CC2E2"/>
<stop offset="0.411458" stop-color="#7D5BE0"/>
<stop offset="0.682292" stop-color="#2F36E7"/>
<stop offset="1" stop-color="#A45ED9"/>
</linearGradient>
<linearGradient id="paint4_linear_5140_23374" x1="215.196" y1="343.13" x2="215.196" y2="349.92" gradientUnits="userSpaceOnUse">
<stop stop-color="#59C3A1"/>
<stop offset="1" stop-color="#55B7A1"/>
</linearGradient>
<linearGradient id="paint5_linear_5140_23374" x1="215.196" y1="365.732" x2="215.196" y2="372.522" gradientUnits="userSpaceOnUse">
<stop stop-color="#3E7887"/>
<stop offset="1" stop-color="#3E838D"/>
</linearGradient>
<linearGradient id="paint6_linear_5140_23374" x1="215.196" y1="388.335" x2="215.196" y2="395.125" gradientUnits="userSpaceOnUse">
<stop stop-color="#316C82"/>
<stop offset="1" stop-color="#2E5279"/>
</linearGradient>
<linearGradient id="paint7_linear_5140_23374" x1="215.196" y1="410.937" x2="215.196" y2="417.727" gradientUnits="userSpaceOnUse">
<stop stop-color="#254C74"/>
<stop offset="1" stop-color="#183F73"/>
</linearGradient>
<linearGradient id="paint8_linear_5140_23374" x1="215.196" y1="433.54" x2="215.196" y2="440.33" gradientUnits="userSpaceOnUse">
<stop stop-color="#082A75"/>
<stop offset="1" stop-color="#0F1B5A"/>
</linearGradient>
<linearGradient id="paint9_linear_5140_23374" x1="355.426" y1="98.7" x2="492.099" y2="100.162" gradientUnits="userSpaceOnUse">
<stop offset="0.244792" stop-color="#5698E3"/>
<stop offset="0.442708" stop-color="#6060CE"/>
<stop offset="0.6875" stop-color="#BE3692"/>
</linearGradient>
<radialGradient id="paint10_angular_5140_23374" cx="0" cy="0" r="1" gradientUnits="userSpaceOnUse" gradientTransform="translate(130 401.13) rotate(90) scale(36)">
<stop stop-color="#2C70C8"/>
<stop offset="0.369792" stop-color="#479CB8"/>
<stop offset="0.661458" stop-color="#69D69D"/>
<stop offset="0.963542" stop-color="#6CAADD"/>
</radialGradient>
<linearGradient id="paint11_linear_5140_23374" x1="464" y1="451" x2="496.938" y2="559.151" gradientUnits="userSpaceOnUse">
<stop stop-color="#685CCE"/>
<stop offset="0.338364" stop-color="#628DD9"/>
<stop offset="0.612826" stop-color="#A336BE"/>
<stop offset="1" stop-color="#5BC0E5"/>
</linearGradient>
<linearGradient id="paint12_linear_5140_23374" x1="434" y1="493" x2="387.693" y2="450.613" gradientUnits="userSpaceOnUse">
<stop stop-color="#59B2E9"/>
<stop offset="0.390625" stop-color="#6789DD"/>
<stop offset="0.75" stop-color="#6060CE"/>
<stop offset="1" stop-color="#BE3692" stop-opacity="0.8"/>
</linearGradient>
<linearGradient id="paint13_linear_5140_23374" x1="124.574" y1="527.8" x2="295.884" y2="529.605" gradientUnits="userSpaceOnUse">
<stop stop-color="#2F75C6"/>
<stop offset="0.244792" stop-color="#5698E3"/>
<stop offset="0.553244" stop-color="#65D0A0"/>
<stop offset="0.953125" stop-color="#6BBEC0"/>
</linearGradient>
<radialGradient id="paint14_angular_5140_23374" cx="0" cy="0" r="1" gradientUnits="userSpaceOnUse" gradientTransform="translate(302.95 412) rotate(90) scale(37 37)">
<stop stop-color="#4664DE"/>
<stop offset="0.307292" stop-color="#5B36CE"/>
<stop offset="0.619792" stop-color="#C13590"/>
</radialGradient>
</defs>
</svg>
