<svg width="385" height="184" viewBox="0 0 385 184" fill="none" xmlns="http://www.w3.org/2000/svg">
<path d="M33.4616 18.62V19H28.4646V18.62H29.5856L28.3126 15.979H24.4746L23.3726 18.62H24.8736V19H21.6246V18.62H22.8976L27.2486 8.17H27.7236L32.5496 18.62H33.4616ZM24.6456 15.58H28.1226L26.2606 11.704L24.6456 15.58ZM33.8336 10.64V10.26H38.9636V10.64H37.9566L40.0086 15.238L41.2436 12.141L40.6166 10.64H39.9136V10.26H44.6636V10.64H43.8276L45.8796 15.238L47.6466 10.64H46.1266V10.26H49.2236V10.64H48.0836L44.8726 19H44.4736L41.4716 12.711L38.9826 19H38.5836L34.7266 10.64H33.8336ZM58.573 15.2H52.835C52.9617 17.4293 53.8294 18.544 55.438 18.544C55.8687 18.544 56.3564 18.4427 56.901 18.24C57.4584 18.0373 57.8637 17.7523 58.117 17.385L58.383 17.575C58.1044 18.0437 57.6294 18.43 56.958 18.734C56.2867 19.038 55.6154 19.19 54.944 19.19C54.2854 19.19 53.69 19.1267 53.158 19C52.626 18.8607 52.1067 18.6327 51.6 18.316C51.0934 17.9993 50.6944 17.5243 50.403 16.891C50.1244 16.2577 49.985 15.4913 49.985 14.592C49.985 13.0593 50.4094 11.9257 51.258 11.191C52.1067 10.4437 53.1327 10.07 54.336 10.07C55.552 10.07 56.559 10.4753 57.357 11.286C58.1677 12.0967 58.573 13.4013 58.573 15.2ZM52.816 14.82H55.913C55.913 13.6547 55.7864 12.635 55.533 11.761C55.2924 10.887 54.8997 10.45 54.355 10.45C53.8104 10.45 53.4177 10.8743 53.177 11.723C52.9364 12.559 52.816 13.5217 52.816 14.611V14.82ZM64.2284 18.848C65.5457 18.848 66.2044 18.487 66.2044 17.765C66.2044 17.3597 65.9764 17.0303 65.5204 16.777C65.0644 16.511 64.5134 16.2957 63.8674 16.131C63.2214 15.9663 62.5817 15.7763 61.9484 15.561C61.3277 15.3457 60.8084 15.0037 60.3904 14.535C59.985 14.0663 59.8204 13.452 59.8964 12.692C59.9724 11.932 60.3587 11.305 61.0554 10.811C61.7647 10.317 62.6324 10.07 63.6584 10.07C64.697 10.07 65.533 10.2347 66.1664 10.564C66.7997 10.8933 67.1544 11.3367 67.2304 11.894C67.281 12.236 67.224 12.5527 67.0594 12.844C66.9074 13.1353 66.6477 13.2873 66.2804 13.3C65.9257 13.3127 65.628 13.2177 65.3874 13.015C65.1594 12.8123 65.0517 12.578 65.0644 12.312C65.077 12.046 65.1784 11.8117 65.3684 11.609C65.5584 11.3937 65.6534 11.2227 65.6534 11.096C65.6534 10.8807 65.4444 10.7223 65.0264 10.621C64.621 10.507 64.146 10.45 63.6014 10.45C63.0694 10.45 62.6324 10.5703 62.2904 10.811C61.9484 11.0517 61.7774 11.3493 61.7774 11.704C61.7774 12.0587 61.9864 12.3627 62.4044 12.616C62.835 12.8693 63.3544 13.0783 63.9624 13.243C64.5704 13.395 65.172 13.5723 65.7674 13.775C66.3754 13.965 66.8884 14.2753 67.3064 14.706C67.737 15.1367 67.9524 15.6813 67.9524 16.34C67.9524 17.214 67.642 17.917 67.0214 18.449C66.4007 18.9683 65.4634 19.228 64.2094 19.228C62.9554 19.228 61.9357 19.038 61.1504 18.658C60.3777 18.278 59.9534 17.7903 59.8774 17.195C59.8267 16.853 59.8837 16.5363 60.0484 16.245C60.213 15.9537 60.4727 15.8017 60.8274 15.789C61.182 15.7763 61.4734 15.8713 61.7014 16.074C61.942 16.2767 62.056 16.511 62.0434 16.777C62.0307 17.043 61.9294 17.2837 61.7394 17.499C61.5494 17.7017 61.4544 17.8663 61.4544 17.993C61.4544 18.2463 61.7457 18.4553 62.3284 18.62C62.9237 18.772 63.557 18.848 64.2284 18.848ZM72.1059 17.86C72.3846 18.4933 72.8659 18.81 73.5499 18.81C74.2339 18.81 74.7216 18.487 75.0129 17.841C75.3043 17.195 75.4499 16.131 75.4499 14.649C75.4499 13.1543 75.3043 12.084 75.0129 11.438C74.7216 10.7793 74.2339 10.45 73.5499 10.45C72.8659 10.45 72.3846 10.7793 72.1059 11.438C71.8273 12.084 71.6879 13.1543 71.6879 14.649C71.6879 16.1437 71.8273 17.214 72.1059 17.86ZM73.5119 19.19C72.3086 19.19 71.2193 18.7973 70.2439 18.012C69.2686 17.2267 68.7809 16.112 68.7809 14.668C68.7809 13.8953 68.9203 13.205 69.1989 12.597C69.4903 11.989 69.8703 11.5077 70.3389 11.153C70.8203 10.7983 71.3333 10.5323 71.8779 10.355C72.4226 10.165 72.9799 10.07 73.5499 10.07C74.1199 10.07 74.6773 10.165 75.2219 10.355C75.7793 10.5323 76.2923 10.7983 76.7609 11.153C77.2423 11.5077 77.6286 11.989 77.9199 12.597C78.2113 13.205 78.3569 13.889 78.3569 14.649C78.3569 15.409 78.2113 16.0867 77.9199 16.682C77.6286 17.2773 77.2423 17.7523 76.7609 18.107C75.7983 18.829 74.7153 19.19 73.5119 19.19ZM95.6555 18.62H96.6055V19H91.8555V18.62H92.8055V13.3C92.8055 12.4007 92.6725 11.761 92.4065 11.381C92.1405 11.001 91.7415 10.811 91.2095 10.811C90.9055 10.811 90.5889 10.8997 90.2595 11.077C89.9302 11.2543 89.6579 11.5013 89.4425 11.818C89.5945 12.274 89.6705 12.9073 89.6705 13.718V18.62H90.6205V19H85.6805V18.62H86.8205V13.3C86.8205 12.4007 86.6875 11.761 86.4215 11.381C86.1555 11.001 85.7565 10.811 85.2245 10.811C84.5025 10.811 83.9262 11.191 83.4955 11.951V18.62H84.4455V19H79.6955V18.62H80.6455V10.64H79.6955V10.26H83.4955V11.248C83.7362 10.9187 84.1099 10.64 84.6165 10.412C85.1359 10.1713 85.6932 10.051 86.2885 10.051C87.7959 10.051 88.7775 10.4753 89.2335 11.324C89.5629 10.9187 89.9999 10.6083 90.5445 10.393C91.0892 10.165 91.6655 10.051 92.2735 10.051C94.5282 10.051 95.6555 11.2733 95.6555 13.718V18.62ZM106.333 15.2H100.595C100.721 17.4293 101.589 18.544 103.198 18.544C103.628 18.544 104.116 18.4427 104.661 18.24C105.218 18.0373 105.623 17.7523 105.877 17.385L106.143 17.575C105.864 18.0437 105.389 18.43 104.718 18.734C104.046 19.038 103.375 19.19 102.704 19.19C102.045 19.19 101.45 19.1267 100.918 19C100.386 18.8607 99.8665 18.6327 99.3598 18.316C98.8531 17.9993 98.4541 17.5243 98.1628 16.891C97.8841 16.2577 97.7448 15.4913 97.7448 14.592C97.7448 13.0593 98.1691 11.9257 99.0178 11.191C99.8665 10.4437 100.892 10.07 102.096 10.07C103.312 10.07 104.319 10.4753 105.117 11.286C105.927 12.0967 106.333 13.4013 106.333 15.2ZM100.576 14.82H103.673C103.673 13.6547 103.546 12.635 103.293 11.761C103.052 10.887 102.659 10.45 102.115 10.45C101.57 10.45 101.177 10.8743 100.937 11.723C100.696 12.559 100.576 13.5217 100.576 14.611V14.82ZM115.595 8.74V14.934C116.634 14.934 117.343 14.7123 117.723 14.269C118.103 13.813 118.293 13.0213 118.293 11.894C118.293 10.7667 118.103 9.96233 117.723 9.481C117.343 8.987 116.634 8.74 115.595 8.74ZM116.545 18.62V19H111.795V18.62H112.745V8.74H111.795V8.36H115.576C119.3 8.18267 121.162 9.37967 121.162 11.951C121.162 13.091 120.693 13.9587 119.756 14.554C118.819 15.1493 117.432 15.4027 115.595 15.314V18.62H116.545ZM126.529 21.109C126.187 21.8437 125.826 22.3693 125.446 22.686C125.066 23.0153 124.56 23.18 123.926 23.18C123.293 23.18 122.799 23.0407 122.444 22.762C122.09 22.496 121.912 22.135 121.912 21.679C121.912 21.2357 122.039 20.881 122.292 20.615C122.558 20.349 122.875 20.216 123.242 20.216C123.61 20.216 123.92 20.2857 124.173 20.425C124.427 20.5643 124.604 20.7163 124.705 20.881C124.984 21.3243 125.244 21.546 125.484 21.546C125.738 21.546 125.959 21.3307 126.149 20.9L126.947 19.019L122.501 10.64H121.741V10.26H126.852V10.64H125.902L128.448 15.656L130.633 10.64H129.113V10.26H132.229V10.64H131.089L126.529 21.109ZM136.666 10.64V15.276C136.666 16.3653 136.71 17.0303 136.799 17.271C136.888 17.499 136.983 17.6953 137.084 17.86C137.274 18.1893 137.603 18.354 138.072 18.354C138.553 18.354 138.889 18.2907 139.079 18.164V18.544C138.471 18.9747 137.806 19.19 137.084 19.19C136.02 19.19 135.209 18.9367 134.652 18.43C134.095 17.9233 133.816 17.0177 133.816 15.713V10.64H132.41V10.26H133.816C134.424 10.1587 134.962 9.86733 135.431 9.386C135.9 8.892 136.223 8.21433 136.4 7.353H136.666V10.26H138.87V10.64H136.666ZM150.01 18.62H150.96V19H146.21V18.62H147.16V13.3C147.16 12.4007 147.027 11.761 146.761 11.381C146.495 11.001 146.096 10.811 145.564 10.811C144.842 10.811 144.266 11.191 143.835 11.951V18.62H144.785V19H140.035V18.62H140.985V6.65H140.035V6.27H143.835V11.248C144.076 10.906 144.45 10.621 144.956 10.393C145.463 10.165 146.02 10.051 146.628 10.051C148.883 10.051 150.01 11.2733 150.01 13.718V18.62ZM155.416 17.86C155.695 18.4933 156.176 18.81 156.86 18.81C157.544 18.81 158.032 18.487 158.323 17.841C158.615 17.195 158.76 16.131 158.76 14.649C158.76 13.1543 158.615 12.084 158.323 11.438C158.032 10.7793 157.544 10.45 156.86 10.45C156.176 10.45 155.695 10.7793 155.416 11.438C155.138 12.084 154.998 13.1543 154.998 14.649C154.998 16.1437 155.138 17.214 155.416 17.86ZM156.822 19.19C155.619 19.19 154.53 18.7973 153.554 18.012C152.579 17.2267 152.091 16.112 152.091 14.668C152.091 13.8953 152.231 13.205 152.509 12.597C152.801 11.989 153.181 11.5077 153.649 11.153C154.131 10.7983 154.644 10.5323 155.188 10.355C155.733 10.165 156.29 10.07 156.86 10.07C157.43 10.07 157.988 10.165 158.532 10.355C159.09 10.5323 159.603 10.7983 160.071 11.153C160.553 11.5077 160.939 11.989 161.23 12.597C161.522 13.205 161.667 13.889 161.667 14.649C161.667 15.409 161.522 16.0867 161.23 16.682C160.939 17.2773 160.553 17.7523 160.071 18.107C159.109 18.829 158.026 19.19 156.822 19.19ZM172.981 18.62H173.931V19H169.181V18.62H170.131V13.3C170.131 12.4007 169.998 11.761 169.732 11.381C169.466 11.001 169.067 10.811 168.535 10.811C167.813 10.811 167.237 11.191 166.806 11.951V18.62H167.756V19H163.006V18.62H163.956V10.64H163.006V10.26H166.806V11.248C167.047 10.9187 167.42 10.64 167.927 10.412C168.446 10.1713 169.004 10.051 169.599 10.051C171.854 10.051 172.981 11.2733 172.981 13.718V18.62ZM190.601 18.62V19H185.604V18.62H186.725L185.452 15.979H181.614L180.512 18.62H182.013V19H178.764V18.62H180.037L184.388 8.17H184.863L189.689 18.62H190.601ZM181.785 15.58H185.262L183.4 11.704L181.785 15.58ZM190.973 10.64V10.26H196.103V10.64H195.096L197.148 15.238L198.383 12.141L197.756 10.64H197.053V10.26H201.803V10.64H200.967L203.019 15.238L204.786 10.64H203.266V10.26H206.363V10.64H205.223L202.012 19H201.613L198.611 12.711L196.122 19H195.723L191.866 10.64H190.973ZM215.713 15.2H209.975C210.101 17.4293 210.969 18.544 212.578 18.544C213.008 18.544 213.496 18.4427 214.041 18.24C214.598 18.0373 215.003 17.7523 215.257 17.385L215.523 17.575C215.244 18.0437 214.769 18.43 214.098 18.734C213.426 19.038 212.755 19.19 212.084 19.19C211.425 19.19 210.83 19.1267 210.298 19C209.766 18.8607 209.246 18.6327 208.74 18.316C208.233 17.9993 207.834 17.5243 207.543 16.891C207.264 16.2577 207.125 15.4913 207.125 14.592C207.125 13.0593 207.549 11.9257 208.398 11.191C209.246 10.4437 210.272 10.07 211.476 10.07C212.692 10.07 213.699 10.4753 214.497 11.286C215.307 12.0967 215.713 13.4013 215.713 15.2ZM209.956 14.82H213.053C213.053 13.6547 212.926 12.635 212.673 11.761C212.432 10.887 212.039 10.45 211.495 10.45C210.95 10.45 210.557 10.8743 210.317 11.723C210.076 12.559 209.956 13.5217 209.956 14.611V14.82ZM221.368 18.848C222.685 18.848 223.344 18.487 223.344 17.765C223.344 17.3597 223.116 17.0303 222.66 16.777C222.204 16.511 221.653 16.2957 221.007 16.131C220.361 15.9663 219.721 15.7763 219.088 15.561C218.467 15.3457 217.948 15.0037 217.53 14.535C217.125 14.0663 216.96 13.452 217.036 12.692C217.112 11.932 217.498 11.305 218.195 10.811C218.904 10.317 219.772 10.07 220.798 10.07C221.837 10.07 222.673 10.2347 223.306 10.564C223.939 10.8933 224.294 11.3367 224.37 11.894C224.421 12.236 224.364 12.5527 224.199 12.844C224.047 13.1353 223.787 13.2873 223.42 13.3C223.065 13.3127 222.768 13.2177 222.527 13.015C222.299 12.8123 222.191 12.578 222.204 12.312C222.217 12.046 222.318 11.8117 222.508 11.609C222.698 11.3937 222.793 11.2227 222.793 11.096C222.793 10.8807 222.584 10.7223 222.166 10.621C221.761 10.507 221.286 10.45 220.741 10.45C220.209 10.45 219.772 10.5703 219.43 10.811C219.088 11.0517 218.917 11.3493 218.917 11.704C218.917 12.0587 219.126 12.3627 219.544 12.616C219.975 12.8693 220.494 13.0783 221.102 13.243C221.71 13.395 222.312 13.5723 222.907 13.775C223.515 13.965 224.028 14.2753 224.446 14.706C224.877 15.1367 225.092 15.6813 225.092 16.34C225.092 17.214 224.782 17.917 224.161 18.449C223.54 18.9683 222.603 19.228 221.349 19.228C220.095 19.228 219.075 19.038 218.29 18.658C217.517 18.278 217.093 17.7903 217.017 17.195C216.966 16.853 217.023 16.5363 217.188 16.245C217.353 15.9537 217.612 15.8017 217.967 15.789C218.322 15.7763 218.613 15.8713 218.841 16.074C219.082 16.2767 219.196 16.511 219.183 16.777C219.17 17.043 219.069 17.2837 218.879 17.499C218.689 17.7017 218.594 17.8663 218.594 17.993C218.594 18.2463 218.885 18.4553 219.468 18.62C220.063 18.772 220.697 18.848 221.368 18.848ZM229.246 17.86C229.524 18.4933 230.006 18.81 230.69 18.81C231.374 18.81 231.861 18.487 232.153 17.841C232.444 17.195 232.59 16.131 232.59 14.649C232.59 13.1543 232.444 12.084 232.153 11.438C231.861 10.7793 231.374 10.45 230.69 10.45C230.006 10.45 229.524 10.7793 229.246 11.438C228.967 12.084 228.828 13.1543 228.828 14.649C228.828 16.1437 228.967 17.214 229.246 17.86ZM230.652 19.19C229.448 19.19 228.359 18.7973 227.384 18.012C226.408 17.2267 225.921 16.112 225.921 14.668C225.921 13.8953 226.06 13.205 226.339 12.597C226.63 11.989 227.01 11.5077 227.479 11.153C227.96 10.7983 228.473 10.5323 229.018 10.355C229.562 10.165 230.12 10.07 230.69 10.07C231.26 10.07 231.817 10.165 232.362 10.355C232.919 10.5323 233.432 10.7983 233.901 11.153C234.382 11.5077 234.768 11.989 235.06 12.597C235.351 13.205 235.497 13.889 235.497 14.649C235.497 15.409 235.351 16.0867 235.06 16.682C234.768 17.2773 234.382 17.7523 233.901 18.107C232.938 18.829 231.855 19.19 230.652 19.19ZM252.795 18.62H253.745V19H248.995V18.62H249.945V13.3C249.945 12.4007 249.812 11.761 249.546 11.381C249.28 11.001 248.881 10.811 248.349 10.811C248.045 10.811 247.729 10.8997 247.399 11.077C247.07 11.2543 246.798 11.5013 246.582 11.818C246.734 12.274 246.81 12.9073 246.81 13.718V18.62H247.76V19H242.82V18.62H243.96V13.3C243.96 12.4007 243.827 11.761 243.561 11.381C243.295 11.001 242.896 10.811 242.364 10.811C241.642 10.811 241.066 11.191 240.635 11.951V18.62H241.585V19H236.835V18.62H237.785V10.64H236.835V10.26H240.635V11.248C240.876 10.9187 241.25 10.64 241.756 10.412C242.276 10.1713 242.833 10.051 243.428 10.051C244.936 10.051 245.917 10.4753 246.373 11.324C246.703 10.9187 247.14 10.6083 247.684 10.393C248.229 10.165 248.805 10.051 249.413 10.051C251.668 10.051 252.795 11.2733 252.795 13.718V18.62ZM263.472 15.2H257.734C257.861 17.4293 258.729 18.544 260.337 18.544C260.768 18.544 261.256 18.4427 261.8 18.24C262.358 18.0373 262.763 17.7523 263.016 17.385L263.282 17.575C263.004 18.0437 262.529 18.43 261.857 18.734C261.186 19.038 260.515 19.19 259.843 19.19C259.185 19.19 258.589 19.1267 258.057 19C257.525 18.8607 257.006 18.6327 256.499 18.316C255.993 17.9993 255.594 17.5243 255.302 16.891C255.024 16.2577 254.884 15.4913 254.884 14.592C254.884 13.0593 255.309 11.9257 256.157 11.191C257.006 10.4437 258.032 10.07 259.235 10.07C260.451 10.07 261.458 10.4753 262.256 11.286C263.067 12.0967 263.472 13.4013 263.472 15.2ZM257.715 14.82H260.812C260.812 13.6547 260.686 12.635 260.432 11.761C260.192 10.887 259.799 10.45 259.254 10.45C258.71 10.45 258.317 10.8743 258.076 11.723C257.836 12.559 257.715 13.5217 257.715 14.611V14.82ZM278.15 12.597H277.77C277.77 11.5837 277.447 10.6463 276.801 9.785C276.155 8.92367 275.23 8.493 274.027 8.493C273.355 8.493 272.798 8.88567 272.355 9.671C271.924 10.4563 271.709 11.799 271.709 13.699C271.709 15.599 271.924 16.9417 272.355 17.727C272.798 18.5123 273.482 18.905 274.407 18.905C275.344 18.905 276.129 18.6137 276.763 18.031C277.409 17.4483 277.808 16.625 277.96 15.561H278.34C278.162 16.815 277.719 17.7523 277.01 18.373C276.313 18.981 275.477 19.285 274.502 19.285C272.614 19.285 271.164 18.8353 270.151 17.936C269.15 17.024 268.65 15.6053 268.65 13.68C268.65 11.742 269.137 10.3297 270.113 9.443C271.101 8.55633 272.405 8.113 274.027 8.113C274.901 8.113 275.749 8.34733 276.573 8.816C276.839 8.98067 277.054 9.063 277.219 9.063C277.396 9.063 277.535 8.987 277.637 8.835C277.738 8.67033 277.789 8.512 277.789 8.36H278.15V12.597ZM282.702 17.86C282.98 18.4933 283.462 18.81 284.146 18.81C284.83 18.81 285.317 18.487 285.609 17.841C285.9 17.195 286.046 16.131 286.046 14.649C286.046 13.1543 285.9 12.084 285.609 11.438C285.317 10.7793 284.83 10.45 284.146 10.45C283.462 10.45 282.98 10.7793 282.702 11.438C282.423 12.084 282.284 13.1543 282.284 14.649C282.284 16.1437 282.423 17.214 282.702 17.86ZM284.108 19.19C282.904 19.19 281.815 18.7973 280.84 18.012C279.864 17.2267 279.377 16.112 279.377 14.668C279.377 13.8953 279.516 13.205 279.795 12.597C280.086 11.989 280.466 11.5077 280.935 11.153C281.416 10.7983 281.929 10.5323 282.474 10.355C283.018 10.165 283.576 10.07 284.146 10.07C284.716 10.07 285.273 10.165 285.818 10.355C286.375 10.5323 286.888 10.7983 287.357 11.153C287.838 11.5077 288.224 11.989 288.516 12.597C288.807 13.205 288.953 13.889 288.953 14.649C288.953 15.409 288.807 16.0867 288.516 16.682C288.224 17.2773 287.838 17.7523 287.357 18.107C286.394 18.829 285.311 19.19 284.108 19.19ZM306.251 18.62H307.201V19H302.451V18.62H303.401V13.3C303.401 12.4007 303.268 11.761 303.002 11.381C302.736 11.001 302.337 10.811 301.805 10.811C301.501 10.811 301.185 10.8997 300.855 11.077C300.526 11.2543 300.254 11.5013 300.038 11.818C300.19 12.274 300.266 12.9073 300.266 13.718V18.62H301.216V19H296.276V18.62H297.416V13.3C297.416 12.4007 297.283 11.761 297.017 11.381C296.751 11.001 296.352 10.811 295.82 10.811C295.098 10.811 294.522 11.191 294.091 11.951V18.62H295.041V19H290.291V18.62H291.241V10.64H290.291V10.26H294.091V11.248C294.332 10.9187 294.706 10.64 295.212 10.412C295.732 10.1713 296.289 10.051 296.884 10.051C298.392 10.051 299.373 10.4753 299.829 11.324C300.159 10.9187 300.596 10.6083 301.14 10.393C301.685 10.165 302.261 10.051 302.869 10.051C305.124 10.051 306.251 11.2733 306.251 13.718V18.62ZM324.491 18.62H325.441V19H320.691V18.62H321.641V13.3C321.641 12.4007 321.508 11.761 321.242 11.381C320.976 11.001 320.577 10.811 320.045 10.811C319.741 10.811 319.424 10.8997 319.095 11.077C318.765 11.2543 318.493 11.5013 318.278 11.818C318.43 12.274 318.506 12.9073 318.506 13.718V18.62H319.456V19H314.516V18.62H315.656V13.3C315.656 12.4007 315.523 11.761 315.257 11.381C314.991 11.001 314.592 10.811 314.06 10.811C313.338 10.811 312.761 11.191 312.331 11.951V18.62H313.281V19H308.531V18.62H309.481V10.64H308.531V10.26H312.331V11.248C312.571 10.9187 312.945 10.64 313.452 10.412C313.971 10.1713 314.528 10.051 315.124 10.051C316.631 10.051 317.613 10.4753 318.069 11.324C318.398 10.9187 318.835 10.6083 319.38 10.393C319.924 10.165 320.501 10.051 321.109 10.051C323.363 10.051 324.491 11.2733 324.491 13.718V18.62ZM333.325 19V17.993C333.084 18.335 332.704 18.6263 332.185 18.867C331.678 19.095 331.127 19.209 330.532 19.209C328.277 19.209 327.15 17.9867 327.15 15.542V10.64H326.2V10.26H330V15.96C330 16.8593 330.133 17.499 330.399 17.879C330.665 18.259 331.064 18.449 331.596 18.449C332.305 18.449 332.881 18.069 333.325 17.309V10.64H332.375V10.26H336.175V18.62H337.125V19H333.325ZM348.434 18.62H349.384V19H344.634V18.62H345.584V13.3C345.584 12.4007 345.451 11.761 345.185 11.381C344.919 11.001 344.52 10.811 343.988 10.811C343.266 10.811 342.69 11.191 342.259 11.951V18.62H343.209V19H338.459V18.62H339.409V10.64H338.459V10.26H342.259V11.248C342.5 10.9187 342.874 10.64 343.38 10.412C343.9 10.1713 344.457 10.051 345.052 10.051C347.307 10.051 348.434 11.2733 348.434 13.718V18.62ZM354.505 18.62H355.455V19H350.705V18.62H351.655V10.64H350.895V10.26H354.505V18.62ZM354.676 7.752C354.676 8.208 354.512 8.60067 354.182 8.93C353.866 9.24667 353.473 9.405 353.004 9.405C352.548 9.405 352.156 9.24667 351.826 8.93C351.497 8.60067 351.332 8.208 351.332 7.752C351.332 7.28333 351.497 6.88433 351.826 6.555C352.156 6.22567 352.548 6.061 353.004 6.061C353.473 6.061 353.866 6.22567 354.182 6.555C354.512 6.88433 354.676 7.28333 354.676 7.752ZM360.287 10.64V15.276C360.287 16.3653 360.332 17.0303 360.42 17.271C360.509 17.499 360.604 17.6953 360.705 17.86C360.895 18.1893 361.225 18.354 361.693 18.354C362.175 18.354 362.51 18.2907 362.7 18.164V18.544C362.092 18.9747 361.427 19.19 360.705 19.19C359.641 19.19 358.831 18.9367 358.273 18.43C357.716 17.9233 357.437 17.0177 357.437 15.713V10.64H356.031V10.26H357.437C358.045 10.1587 358.584 9.86733 359.052 9.386C359.521 8.892 359.844 8.21433 360.021 7.353H360.287V10.26H362.491V10.64H360.287ZM367.684 21.109C367.342 21.8437 366.981 22.3693 366.601 22.686C366.221 23.0153 365.715 23.18 365.081 23.18C364.448 23.18 363.954 23.0407 363.599 22.762C363.245 22.496 363.067 22.135 363.067 21.679C363.067 21.2357 363.194 20.881 363.447 20.615C363.713 20.349 364.03 20.216 364.397 20.216C364.765 20.216 365.075 20.2857 365.328 20.425C365.582 20.5643 365.759 20.7163 365.86 20.881C366.139 21.3243 366.399 21.546 366.639 21.546C366.893 21.546 367.114 21.3307 367.304 20.9L368.102 19.019L363.656 10.64H362.896V10.26H368.007V10.64H367.057L369.603 15.656L371.788 10.64H370.268V10.26H373.384V10.64H372.244L367.684 21.109Z" fill="url(#paint0_linear_5140_23249)"/>
<path d="M33.8138 73.38V90.658C36.7111 90.658 38.6898 90.0397 39.7498 88.803C40.8098 87.531 41.3398 85.3227 41.3398 82.178C41.3398 79.0333 40.8098 76.7897 39.7498 75.447C38.6898 74.069 36.7111 73.38 33.8138 73.38ZM36.4638 100.94V102H23.2138V100.94H25.8638V73.38H23.2138V72.32H33.7608C44.1488 71.8253 49.3428 75.1643 49.3428 82.337C49.3428 85.517 48.0354 87.9373 45.4208 89.598C42.8061 91.2587 38.9371 91.9653 33.8138 91.718V100.94H36.4638ZM64.314 107.883C63.36 109.932 62.353 111.399 61.293 112.282C60.233 113.201 58.8197 113.66 57.053 113.66C55.2863 113.66 53.9083 113.271 52.919 112.494C51.9297 111.752 51.435 110.745 51.435 109.473C51.435 108.236 51.7883 107.247 52.495 106.505C53.237 105.763 54.1203 105.392 55.145 105.392C56.1697 105.392 57.0353 105.586 57.742 105.975C58.4487 106.364 58.9433 106.788 59.226 107.247C60.0033 108.484 60.7277 109.102 61.399 109.102C62.1057 109.102 62.724 108.501 63.254 107.3L65.48 102.053L53.078 78.68H50.958V77.62H65.215V78.68H62.565L69.667 92.672L75.762 78.68H71.522V77.62H80.214V78.68H77.034L64.314 107.883ZM108.544 84.139H107.484C107.484 81.3123 106.583 78.6977 104.781 76.295C102.979 73.8923 100.399 72.691 97.0428 72.691C95.1701 72.691 93.6154 73.7863 92.3788 75.977C91.1774 78.1677 90.5768 81.913 90.5768 87.213C90.5768 92.513 91.1774 96.2583 92.3788 98.449C93.6154 100.64 95.5234 101.735 98.1028 101.735C100.717 101.735 102.908 100.922 104.675 99.297C106.477 97.6717 107.59 95.375 108.014 92.407H109.074C108.579 95.905 107.342 98.5197 105.364 100.251C103.42 101.947 101.088 102.795 98.3678 102.795C93.1031 102.795 89.0574 101.541 86.2308 99.032C83.4394 96.488 82.0438 92.5307 82.0438 87.16C82.0438 81.754 83.4041 77.8143 86.1248 75.341C88.8808 72.8677 92.5201 71.631 97.0428 71.631C99.4808 71.631 101.848 72.2847 104.145 73.592C104.887 74.0513 105.487 74.281 105.947 74.281C106.441 74.281 106.83 74.069 107.113 73.645C107.395 73.1857 107.537 72.744 107.537 72.32H108.544V84.139ZM121.241 98.82C122.018 100.587 123.361 101.47 125.269 101.47C127.177 101.47 128.537 100.569 129.35 98.767C130.163 96.965 130.569 93.997 130.569 89.863C130.569 85.6937 130.163 82.708 129.35 80.906C128.537 79.0687 127.177 78.15 125.269 78.15C123.361 78.15 122.018 79.0687 121.241 80.906C120.464 82.708 120.075 85.6937 120.075 89.863C120.075 94.0323 120.464 97.018 121.241 98.82ZM125.163 102.53C121.806 102.53 118.768 101.435 116.047 99.244C113.326 97.0533 111.966 93.944 111.966 89.916C111.966 87.7607 112.355 85.835 113.132 84.139C113.945 82.443 115.005 81.1003 116.312 80.111C117.655 79.1217 119.086 78.3797 120.605 77.885C122.124 77.355 123.679 77.09 125.269 77.09C126.859 77.09 128.414 77.355 129.933 77.885C131.488 78.3797 132.919 79.1217 134.226 80.111C135.569 81.1003 136.646 82.443 137.459 84.139C138.272 85.835 138.678 87.743 138.678 89.863C138.678 91.983 138.272 93.8733 137.459 95.534C136.646 97.1947 135.569 98.5197 134.226 99.509C131.541 101.523 128.52 102.53 125.163 102.53ZM170.237 100.94H172.887V102H159.637V100.94H162.287V86.1C162.287 83.5913 161.916 81.807 161.174 80.747C160.432 79.687 159.319 79.157 157.835 79.157C155.821 79.157 154.213 80.217 153.012 82.337V100.94H155.662V102H142.412V100.94H145.062V78.68H142.412V77.62H153.012V80.376C153.683 79.4573 154.726 78.68 156.139 78.044C157.588 77.3727 159.142 77.037 160.803 77.037C167.092 77.037 170.237 80.4467 170.237 87.266V100.94ZM213.876 81.33C213.876 78.1853 213.346 76.083 212.286 75.023C211.261 73.9277 209.318 73.38 206.456 73.38H204.866V100.94H208.576V102H193.206V100.94H196.916V73.38H195.326C192.499 73.38 190.556 73.9277 189.496 75.023C188.471 76.083 187.959 78.1853 187.959 81.33H186.899V72.32H214.936V81.33H213.876ZM243.839 100.94C243.485 101.293 242.814 101.611 241.825 101.894C240.835 102.141 239.687 102.265 238.38 102.265C235.482 102.265 233.663 101.399 232.921 99.668C231.154 101.505 228.451 102.424 224.812 102.424C222.868 102.424 221.261 101.982 219.989 101.099C218.752 100.18 218.134 98.8377 218.134 97.071C218.134 94.7037 219.052 92.884 220.89 91.612C222.727 90.3047 225.942 89.386 230.536 88.856L232.656 88.591V85.994C232.656 82.92 232.426 80.853 231.967 79.793C231.507 78.733 230.589 78.203 229.211 78.203C227.868 78.203 227.002 78.3973 226.614 78.786C226.225 79.1393 226.084 79.5633 226.19 80.058C226.296 80.5173 226.472 81.1357 226.72 81.913C226.967 82.6903 227.091 83.3087 227.091 83.768C227.091 84.8633 226.702 85.7997 225.925 86.577C225.183 87.319 224.264 87.69 223.169 87.69C222.109 87.69 221.19 87.319 220.413 86.577C219.635 85.7997 219.247 84.8633 219.247 83.768C219.247 81.966 220.165 80.429 222.003 79.157C223.875 77.8497 226.649 77.196 230.324 77.196C234.034 77.196 236.666 77.9203 238.221 79.369C239.811 80.8177 240.606 83.3793 240.606 87.054V96.594C240.606 98.4667 240.835 99.6503 241.295 100.145C241.754 100.604 242.602 100.693 243.839 100.41V100.94ZM225.501 96.011C225.677 97.3537 226.172 98.396 226.985 99.138C227.797 99.8447 228.734 100.198 229.794 100.198C230.889 100.198 231.843 99.668 232.656 98.608V89.598L230.748 89.863C229.122 90.075 227.797 90.6933 226.773 91.718C225.783 92.7427 225.359 94.1737 225.501 96.011ZM257.615 100.94H260.265V102H247.015V100.94H249.665V78.68H247.545V77.62H257.615V100.94ZM258.092 70.624C258.092 71.896 257.632 72.9913 256.714 73.91C255.83 74.7933 254.735 75.235 253.428 75.235C252.156 75.235 251.06 74.7933 250.142 73.91C249.223 72.9913 248.764 71.896 248.764 70.624C248.764 69.3167 249.223 68.2037 250.142 67.285C251.06 66.3663 252.156 65.907 253.428 65.907C254.735 65.907 255.83 66.3663 256.714 67.285C257.632 68.2037 258.092 69.3167 258.092 70.624ZM262.401 78.68V77.62H276.711V78.68H273.902L279.626 91.506L283.071 82.867L281.322 78.68H279.361V77.62H292.611V78.68H290.279L296.003 91.506L300.932 78.68H296.692V77.62H305.331V78.68H302.151L293.194 102H292.081L283.707 84.457L276.764 102H275.651L264.892 78.68H262.401ZM333.69 100.94C333.337 101.293 332.666 101.611 331.676 101.894C330.687 102.141 329.539 102.265 328.231 102.265C325.334 102.265 323.514 101.399 322.772 99.668C321.006 101.505 318.303 102.424 314.663 102.424C312.72 102.424 311.112 101.982 309.84 101.099C308.604 100.18 307.985 98.8377 307.985 97.071C307.985 94.7037 308.904 92.884 310.741 91.612C312.579 90.3047 315.794 89.386 320.387 88.856L322.507 88.591V85.994C322.507 82.92 322.278 80.853 321.818 79.793C321.359 78.733 320.44 78.203 319.062 78.203C317.72 78.203 316.854 78.3973 316.465 78.786C316.077 79.1393 315.935 79.5633 316.041 80.058C316.147 80.5173 316.324 81.1357 316.571 81.913C316.819 82.6903 316.942 83.3087 316.942 83.768C316.942 84.8633 316.554 85.7997 315.776 86.577C315.034 87.319 314.116 87.69 313.02 87.69C311.96 87.69 311.042 87.319 310.264 86.577C309.487 85.7997 309.098 84.8633 309.098 83.768C309.098 81.966 310.017 80.429 311.854 79.157C313.727 77.8497 316.501 77.196 320.175 77.196C323.885 77.196 326.518 77.9203 328.072 79.369C329.662 80.8177 330.457 83.3793 330.457 87.054V96.594C330.457 98.4667 330.687 99.6503 331.146 100.145C331.606 100.604 332.454 100.693 333.69 100.41V100.94ZM315.352 96.011C315.529 97.3537 316.024 98.396 316.836 99.138C317.649 99.8447 318.585 100.198 319.645 100.198C320.741 100.198 321.695 99.668 322.507 98.608V89.598L320.599 89.863C318.974 90.075 317.649 90.6933 316.624 91.718C315.635 92.7427 315.211 94.1737 315.352 96.011ZM364.691 100.94H367.341V102H354.091V100.94H356.741V86.1C356.741 83.5913 356.37 81.807 355.628 80.747C354.886 79.687 353.773 79.157 352.289 79.157C350.275 79.157 348.667 80.217 347.466 82.337V100.94H350.116V102H336.866V100.94H339.516V78.68H336.866V77.62H347.466V80.376C348.137 79.4573 349.18 78.68 350.593 78.044C352.042 77.3727 353.596 77.037 355.257 77.037C361.546 77.037 364.691 80.4467 364.691 87.266V100.94Z" fill="#74448A"/>
<g filter="url(#filter0_d_5140_23249)">
<path d="M30.8138 70.38V87.658C33.7111 87.658 35.6898 87.0397 36.7498 85.803C37.8098 84.531 38.3398 82.3227 38.3398 79.178C38.3398 76.0333 37.8098 73.7897 36.7498 72.447C35.6898 71.069 33.7111 70.38 30.8138 70.38ZM33.4638 97.94V99H20.2138V97.94H22.8638V70.38H20.2138V69.32H30.7608C41.1488 68.8253 46.3428 72.1643 46.3428 79.337C46.3428 82.517 45.0354 84.9373 42.4208 86.598C39.8061 88.2587 35.9371 88.9653 30.8138 88.718V97.94H33.4638ZM61.314 104.883C60.36 106.932 59.353 108.399 58.293 109.282C57.233 110.201 55.8197 110.66 54.053 110.66C52.2863 110.66 50.9083 110.271 49.919 109.494C48.9297 108.752 48.435 107.745 48.435 106.473C48.435 105.236 48.7883 104.247 49.495 103.505C50.237 102.763 51.1203 102.392 52.145 102.392C53.1697 102.392 54.0353 102.586 54.742 102.975C55.4487 103.364 55.9433 103.788 56.226 104.247C57.0033 105.484 57.7277 106.102 58.399 106.102C59.1057 106.102 59.724 105.501 60.254 104.3L62.48 99.053L50.078 75.68H47.958V74.62H62.215V75.68H59.565L66.667 89.672L72.762 75.68H68.522V74.62H77.214V75.68H74.034L61.314 104.883ZM105.544 81.139H104.484C104.484 78.3123 103.583 75.6977 101.781 73.295C99.9788 70.8923 97.3994 69.691 94.0428 69.691C92.1701 69.691 90.6154 70.7863 89.3788 72.977C88.1774 75.1677 87.5768 78.913 87.5768 84.213C87.5768 89.513 88.1774 93.2583 89.3788 95.449C90.6154 97.6397 92.5234 98.735 95.1028 98.735C97.7174 98.735 99.9081 97.9223 101.675 96.297C103.477 94.6717 104.59 92.375 105.014 89.407H106.074C105.579 92.905 104.342 95.5197 102.364 97.251C100.42 98.947 98.0884 99.795 95.3678 99.795C90.1031 99.795 86.0574 98.5407 83.2308 96.032C80.4394 93.488 79.0438 89.5307 79.0438 84.16C79.0438 78.754 80.4041 74.8143 83.1248 72.341C85.8808 69.8677 89.5201 68.631 94.0428 68.631C96.4808 68.631 98.8481 69.2847 101.145 70.592C101.887 71.0513 102.487 71.281 102.947 71.281C103.441 71.281 103.83 71.069 104.113 70.645C104.395 70.1857 104.537 69.744 104.537 69.32H105.544V81.139ZM118.241 95.82C119.018 97.5867 120.361 98.47 122.269 98.47C124.177 98.47 125.537 97.569 126.35 95.767C127.163 93.965 127.569 90.997 127.569 86.863C127.569 82.6937 127.163 79.708 126.35 77.906C125.537 76.0687 124.177 75.15 122.269 75.15C120.361 75.15 119.018 76.0687 118.241 77.906C117.464 79.708 117.075 82.6937 117.075 86.863C117.075 91.0323 117.464 94.018 118.241 95.82ZM122.163 99.53C118.806 99.53 115.768 98.4347 113.047 96.244C110.326 94.0533 108.966 90.944 108.966 86.916C108.966 84.7607 109.355 82.835 110.132 81.139C110.945 79.443 112.005 78.1003 113.312 77.111C114.655 76.1217 116.086 75.3797 117.605 74.885C119.124 74.355 120.679 74.09 122.269 74.09C123.859 74.09 125.414 74.355 126.933 74.885C128.488 75.3797 129.919 76.1217 131.226 77.111C132.569 78.1003 133.646 79.443 134.459 81.139C135.272 82.835 135.678 84.743 135.678 86.863C135.678 88.983 135.272 90.8733 134.459 92.534C133.646 94.1947 132.569 95.5197 131.226 96.509C128.541 98.523 125.52 99.53 122.163 99.53ZM167.237 97.94H169.887V99H156.637V97.94H159.287V83.1C159.287 80.5913 158.916 78.807 158.174 77.747C157.432 76.687 156.319 76.157 154.835 76.157C152.821 76.157 151.213 77.217 150.012 79.337V97.94H152.662V99H139.412V97.94H142.062V75.68H139.412V74.62H150.012V77.376C150.683 76.4573 151.726 75.68 153.139 75.044C154.588 74.3727 156.142 74.037 157.803 74.037C164.092 74.037 167.237 77.4467 167.237 84.266V97.94ZM210.876 78.33C210.876 75.1853 210.346 73.083 209.286 72.023C208.261 70.9277 206.318 70.38 203.456 70.38H201.866V97.94H205.576V99H190.206V97.94H193.916V70.38H192.326C189.499 70.38 187.556 70.9277 186.496 72.023C185.471 73.083 184.959 75.1853 184.959 78.33H183.899V69.32H211.936V78.33H210.876ZM240.839 97.94C240.485 98.2933 239.814 98.6113 238.825 98.894C237.835 99.1413 236.687 99.265 235.38 99.265C232.482 99.265 230.663 98.3993 229.921 96.668C228.154 98.5053 225.451 99.424 221.812 99.424C219.868 99.424 218.261 98.9823 216.989 98.099C215.752 97.1803 215.134 95.8377 215.134 94.071C215.134 91.7037 216.052 89.884 217.89 88.612C219.727 87.3047 222.942 86.386 227.536 85.856L229.656 85.591V82.994C229.656 79.92 229.426 77.853 228.967 76.793C228.507 75.733 227.589 75.203 226.211 75.203C224.868 75.203 224.002 75.3973 223.614 75.786C223.225 76.1393 223.084 76.5633 223.19 77.058C223.296 77.5173 223.472 78.1357 223.72 78.913C223.967 79.6903 224.091 80.3087 224.091 80.768C224.091 81.8633 223.702 82.7997 222.925 83.577C222.183 84.319 221.264 84.69 220.169 84.69C219.109 84.69 218.19 84.319 217.413 83.577C216.635 82.7997 216.247 81.8633 216.247 80.768C216.247 78.966 217.165 77.429 219.003 76.157C220.875 74.8497 223.649 74.196 227.324 74.196C231.034 74.196 233.666 74.9203 235.221 76.369C236.811 77.8177 237.606 80.3793 237.606 84.054V93.594C237.606 95.4667 237.835 96.6503 238.295 97.145C238.754 97.6043 239.602 97.6927 240.839 97.41V97.94ZM222.501 93.011C222.677 94.3537 223.172 95.396 223.985 96.138C224.797 96.8447 225.734 97.198 226.794 97.198C227.889 97.198 228.843 96.668 229.656 95.608V86.598L227.748 86.863C226.122 87.075 224.797 87.6933 223.773 88.718C222.783 89.7427 222.359 91.1737 222.501 93.011ZM254.615 97.94H257.265V99H244.015V97.94H246.665V75.68H244.545V74.62H254.615V97.94ZM255.092 67.624C255.092 68.896 254.632 69.9913 253.714 70.91C252.83 71.7933 251.735 72.235 250.428 72.235C249.156 72.235 248.06 71.7933 247.142 70.91C246.223 69.9913 245.764 68.896 245.764 67.624C245.764 66.3167 246.223 65.2037 247.142 64.285C248.06 63.3663 249.156 62.907 250.428 62.907C251.735 62.907 252.83 63.3663 253.714 64.285C254.632 65.2037 255.092 66.3167 255.092 67.624ZM259.401 75.68V74.62H273.711V75.68H270.902L276.626 88.506L280.071 79.867L278.322 75.68H276.361V74.62H289.611V75.68H287.279L293.003 88.506L297.932 75.68H293.692V74.62H302.331V75.68H299.151L290.194 99H289.081L280.707 81.457L273.764 99H272.651L261.892 75.68H259.401ZM330.69 97.94C330.337 98.2933 329.666 98.6113 328.676 98.894C327.687 99.1413 326.539 99.265 325.231 99.265C322.334 99.265 320.514 98.3993 319.772 96.668C318.006 98.5053 315.303 99.424 311.663 99.424C309.72 99.424 308.112 98.9823 306.84 98.099C305.604 97.1803 304.985 95.8377 304.985 94.071C304.985 91.7037 305.904 89.884 307.741 88.612C309.579 87.3047 312.794 86.386 317.387 85.856L319.507 85.591V82.994C319.507 79.92 319.278 77.853 318.818 76.793C318.359 75.733 317.44 75.203 316.062 75.203C314.72 75.203 313.854 75.3973 313.465 75.786C313.077 76.1393 312.935 76.5633 313.041 77.058C313.147 77.5173 313.324 78.1357 313.571 78.913C313.819 79.6903 313.942 80.3087 313.942 80.768C313.942 81.8633 313.554 82.7997 312.776 83.577C312.034 84.319 311.116 84.69 310.02 84.69C308.96 84.69 308.042 84.319 307.264 83.577C306.487 82.7997 306.098 81.8633 306.098 80.768C306.098 78.966 307.017 77.429 308.854 76.157C310.727 74.8497 313.501 74.196 317.175 74.196C320.885 74.196 323.518 74.9203 325.072 76.369C326.662 77.8177 327.457 80.3793 327.457 84.054V93.594C327.457 95.4667 327.687 96.6503 328.146 97.145C328.606 97.6043 329.454 97.6927 330.69 97.41V97.94ZM312.352 93.011C312.529 94.3537 313.024 95.396 313.836 96.138C314.649 96.8447 315.585 97.198 316.645 97.198C317.741 97.198 318.695 96.668 319.507 95.608V86.598L317.599 86.863C315.974 87.075 314.649 87.6933 313.624 88.718C312.635 89.7427 312.211 91.1737 312.352 93.011ZM361.691 97.94H364.341V99H351.091V97.94H353.741V83.1C353.741 80.5913 353.37 78.807 352.628 77.747C351.886 76.687 350.773 76.157 349.289 76.157C347.275 76.157 345.667 77.217 344.466 79.337V97.94H347.116V99H333.866V97.94H336.516V75.68H333.866V74.62H344.466V77.376C345.137 76.4573 346.18 75.68 347.593 75.044C349.042 74.3727 350.596 74.037 352.257 74.037C358.546 74.037 361.691 77.4467 361.691 84.266V97.94Z" fill="white"/>
</g>
<path d="M61.5207 157H60.9407V150.243H61.5207C61.5207 152.06 62.1684 153.607 63.4637 154.883C64.7784 156.159 66.3734 156.797 68.2487 156.797C69.022 156.797 69.6407 156.575 70.1047 156.13C70.588 155.666 70.8297 155.057 70.8297 154.303C70.8297 153.452 70.2787 152.727 69.1767 152.128C68.5774 151.819 67.543 151.335 66.0737 150.678C64.6044 150.001 63.57 149.431 62.9707 148.967C61.772 148.039 61.2404 146.811 61.3757 145.284C61.5304 143.757 62.1104 142.577 63.1157 141.746C64.121 140.895 65.252 140.47 66.5087 140.47C67.7847 140.47 68.9254 140.644 69.9307 140.992C70.9554 141.321 71.5354 141.485 71.6707 141.485C72.0574 141.485 72.2507 141.147 72.2507 140.47H72.8307V145.777H72.2507C72.2507 144.385 71.7384 143.254 70.7137 142.384C69.689 141.495 68.3744 141.05 66.7697 141.05C66.0544 141.05 65.4937 141.263 65.0877 141.688C64.6817 142.094 64.4787 142.548 64.4787 143.051C64.4787 143.554 64.5464 143.94 64.6817 144.211C64.817 144.482 65.049 144.733 65.3777 144.965C65.7257 145.178 66.0254 145.352 66.2767 145.487C66.528 145.622 66.9244 145.806 67.4657 146.038C68.0264 146.27 68.413 146.434 68.6257 146.531C69.689 147.014 70.3174 147.304 70.5107 147.401C70.704 147.478 70.9844 147.614 71.3517 147.807C71.719 148 71.9897 148.174 72.1637 148.329C72.357 148.484 72.5987 148.677 72.8887 148.909C73.1787 149.141 73.3914 149.383 73.5267 149.634C73.662 149.866 73.7974 150.137 73.9327 150.446C74.2034 151.065 74.3 151.79 74.2227 152.621C74.068 154.187 73.4784 155.386 72.4537 156.217C71.4484 157.029 70.0854 157.435 68.3647 157.435C66.818 157.435 65.281 157.039 63.7537 156.246C63.2317 155.975 62.845 155.84 62.5937 155.84C61.8784 155.84 61.5207 156.227 61.5207 157ZM89.3496 151.2H80.5916C80.7849 154.603 82.1092 156.304 84.5646 156.304C85.2219 156.304 85.9662 156.149 86.7976 155.84C87.6482 155.531 88.2669 155.096 88.6536 154.535L89.0596 154.825C88.6342 155.54 87.9092 156.13 86.8846 156.594C85.8599 157.058 84.8352 157.29 83.8106 157.29C82.8052 157.29 81.8966 157.193 81.0846 157C80.2726 156.787 79.4799 156.439 78.7066 155.956C77.9332 155.473 77.3242 154.748 76.8796 153.781C76.4542 152.814 76.2416 151.645 76.2416 150.272C76.2416 147.933 76.8892 146.202 78.1846 145.081C79.4799 143.94 81.0459 143.37 82.8826 143.37C84.7386 143.37 86.2756 143.989 87.4936 145.226C88.7309 146.463 89.3496 148.455 89.3496 151.2ZM80.5626 150.62H85.2896C85.2896 148.841 85.0962 147.285 84.7096 145.951C84.3422 144.617 83.7429 143.95 82.9116 143.95C82.0802 143.95 81.4809 144.598 81.1136 145.893C80.7462 147.169 80.5626 148.638 80.5626 150.301V150.62ZM96.6764 150.011V154.796C97.1984 155.84 97.8751 156.362 98.7064 156.362C99.5571 156.362 100.282 155.879 100.881 154.912C101.481 153.945 101.78 152.399 101.78 150.272C101.78 148.126 101.548 146.628 101.084 145.777C100.62 144.907 99.9147 144.472 98.9674 144.472C98.0201 144.472 97.4014 144.859 97.1114 145.632C96.8214 146.405 96.6764 147.865 96.6764 150.011ZM96.6764 144.994C97.3337 143.873 98.5131 143.312 100.214 143.312C101.916 143.312 103.337 143.931 104.477 145.168C105.618 146.405 106.188 148.155 106.188 150.417C106.188 152.679 105.628 154.448 104.506 155.724C103.385 157 102.022 157.638 100.417 157.638C99.6247 157.638 98.8804 157.474 98.1844 157.145C97.4884 156.816 96.9857 156.323 96.6764 155.666V162.51H98.1264V163.09H92.3264V144.24H90.8764V143.66H96.6764V144.994ZM113.558 144.24V151.316C113.558 152.979 113.626 153.994 113.761 154.361C113.896 154.709 114.041 155.009 114.196 155.26C114.486 155.763 114.989 156.014 115.704 156.014C116.439 156.014 116.951 155.917 117.241 155.724V156.304C116.313 156.961 115.298 157.29 114.196 157.29C112.572 157.29 111.335 156.903 110.484 156.13C109.633 155.357 109.208 153.974 109.208 151.983V144.24H107.062V143.66H109.208C110.136 143.505 110.958 143.061 111.673 142.326C112.388 141.572 112.881 140.538 113.152 139.223H113.558V143.66H116.922V144.24H113.558ZM131.519 151.2H122.761C122.954 154.603 124.278 156.304 126.734 156.304C127.391 156.304 128.135 156.149 128.967 155.84C129.817 155.531 130.436 155.096 130.823 154.535L131.229 154.825C130.803 155.54 130.078 156.13 129.054 156.594C128.029 157.058 127.004 157.29 125.98 157.29C124.974 157.29 124.066 157.193 123.254 157C122.442 156.787 121.649 156.439 120.876 155.956C120.102 155.473 119.493 154.748 119.049 153.781C118.623 152.814 118.411 151.645 118.411 150.272C118.411 147.933 119.058 146.202 120.354 145.081C121.649 143.94 123.215 143.37 125.052 143.37C126.908 143.37 128.445 143.989 129.663 145.226C130.9 146.463 131.519 148.455 131.519 151.2ZM122.732 150.62H127.459C127.459 148.841 127.265 147.285 126.879 145.951C126.511 144.617 125.912 143.95 125.081 143.95C124.249 143.95 123.65 144.598 123.283 145.893C122.915 147.169 122.732 148.638 122.732 150.301V150.62ZM157.985 156.42H159.435V157H152.185V156.42H153.635V148.3C153.635 146.927 153.432 145.951 153.026 145.371C152.62 144.791 152.011 144.501 151.199 144.501C150.735 144.501 150.252 144.636 149.749 144.907C149.247 145.178 148.831 145.555 148.502 146.038C148.734 146.734 148.85 147.701 148.85 148.938V156.42H150.3V157H142.76V156.42H144.5V148.3C144.5 146.927 144.297 145.951 143.891 145.371C143.485 144.791 142.876 144.501 142.064 144.501C140.962 144.501 140.083 145.081 139.425 146.241V156.42H140.875V157H133.625V156.42H135.075V144.24H133.625V143.66H139.425V145.168C139.793 144.665 140.363 144.24 141.136 143.892C141.929 143.525 142.78 143.341 143.688 143.341C145.989 143.341 147.487 143.989 148.183 145.284C148.686 144.665 149.353 144.192 150.184 143.863C151.016 143.515 151.895 143.341 152.823 143.341C156.265 143.341 157.985 145.207 157.985 148.938V156.42ZM166.394 152.476C166.394 153.945 166.559 155.009 166.887 155.666C167.216 156.304 167.738 156.623 168.453 156.623C169.188 156.623 169.836 156.082 170.396 154.999C170.957 153.897 171.237 152.36 171.237 150.388C171.237 148.397 170.938 146.869 170.338 145.806C169.758 144.743 169.072 144.211 168.279 144.211C167.487 144.211 166.858 144.665 166.394 145.574V152.476ZM173.209 155.985C172.494 156.449 171.798 156.778 171.121 156.971C170.445 157.164 169.778 157.261 169.12 157.261C168.482 157.261 167.893 157.145 167.351 156.913C166.81 156.662 166.375 156.401 166.046 156.13C165.737 155.84 165.389 155.579 165.002 155.347C164.616 155.096 164.248 154.97 163.9 154.97C163.552 154.97 163.243 155.163 162.972 155.55C162.721 155.937 162.595 156.42 162.595 157H162.044V138.15H160.594V137.57H166.394V144.704C166.704 144.182 167.206 143.776 167.902 143.486C168.618 143.177 169.362 143.022 170.135 143.022C171.605 143.022 172.881 143.67 173.963 144.965C175.065 146.241 175.616 148.029 175.616 150.33C175.616 151.683 175.394 152.843 174.949 153.81C174.505 154.777 173.925 155.502 173.209 155.985ZM190.453 151.2H181.695C181.888 154.603 183.213 156.304 185.668 156.304C186.325 156.304 187.07 156.149 187.901 155.84C188.752 155.531 189.37 155.096 189.757 154.535L190.163 154.825C189.738 155.54 189.013 156.13 187.988 156.594C186.963 157.058 185.939 157.29 184.914 157.29C183.909 157.29 183 157.193 182.188 157C181.376 156.787 180.583 156.439 179.81 155.956C179.037 155.473 178.428 154.748 177.983 153.781C177.558 152.814 177.345 151.645 177.345 150.272C177.345 147.933 177.993 146.202 179.288 145.081C180.583 143.94 182.149 143.37 183.986 143.37C185.842 143.37 187.379 143.989 188.597 145.226C189.834 146.463 190.453 148.455 190.453 151.2ZM181.666 150.62H186.393C186.393 148.841 186.2 147.285 185.813 145.951C185.446 144.617 184.846 143.95 184.015 143.95C183.184 143.95 182.584 144.598 182.217 145.893C181.85 147.169 181.666 148.638 181.666 150.301V150.62ZM199.81 157H192.56V156.42H194.01V144.24H192.56V143.66H198.36V147.111C198.534 146.164 198.843 145.39 199.288 144.791C199.752 144.192 200.255 143.795 200.796 143.602C201.357 143.409 201.888 143.312 202.391 143.312C202.913 143.312 203.406 143.409 203.87 143.602C204.353 143.776 204.711 144.143 204.943 144.704C205.175 145.245 205.185 145.796 204.972 146.357C204.759 146.898 204.382 147.285 203.841 147.517C203.319 147.749 202.836 147.778 202.391 147.604C201.946 147.43 201.627 147.198 201.434 146.908C201.241 146.599 201.105 146.309 201.028 146.038C200.835 145.323 200.574 144.965 200.245 144.965C199.878 144.965 199.472 145.603 199.027 146.879C198.582 148.136 198.36 149.47 198.36 150.881V156.42H199.81V157ZM218.087 139.977C222.495 139.977 224.699 141.311 224.699 143.979C224.699 145.042 224.274 145.941 223.423 146.676C222.592 147.411 221.393 147.817 219.827 147.894C221.586 147.913 223.007 148.31 224.09 149.083C225.192 149.856 225.743 150.91 225.743 152.244C225.743 153.887 225.076 155.173 223.742 156.101C222.427 157.01 220.562 157.464 218.145 157.464C216.463 157.464 215.148 157.097 214.201 156.362C213.273 155.608 212.809 154.612 212.809 153.375C212.809 152.602 213.012 151.973 213.418 151.49C213.843 151.007 214.394 150.765 215.071 150.765C215.748 150.765 216.27 150.949 216.637 151.316C217.024 151.683 217.217 152.138 217.217 152.679C217.217 153.201 217.072 153.617 216.782 153.926C216.492 154.235 216.173 154.429 215.825 154.506C214.916 154.719 214.462 155.028 214.462 155.434C214.462 155.821 214.733 156.14 215.274 156.391C215.835 156.642 216.473 156.768 217.188 156.768C218.309 156.768 219.218 156.362 219.914 155.55C220.61 154.738 220.958 153.646 220.958 152.273C220.958 150.881 220.649 149.856 220.03 149.199C219.431 148.542 218.329 148.213 216.724 148.213H216.26V147.633H216.724C217.961 147.633 218.851 147.266 219.392 146.531C219.933 145.777 220.204 144.926 220.204 143.979C220.204 143.032 219.933 142.239 219.392 141.601C218.851 140.963 218.164 140.644 217.333 140.644C216.502 140.644 215.873 140.779 215.448 141.05C215.023 141.321 214.81 141.611 214.81 141.92C214.81 142.21 214.926 142.423 215.158 142.558C215.409 142.693 215.68 142.8 215.97 142.877C216.279 142.935 216.55 143.099 216.782 143.37C217.033 143.641 217.159 144.008 217.159 144.472C217.159 144.936 216.995 145.332 216.666 145.661C216.337 145.99 215.873 146.154 215.274 146.154C214.675 146.154 214.182 145.941 213.795 145.516C213.408 145.091 213.215 144.511 213.215 143.776C213.215 142.713 213.65 141.814 214.52 141.079C215.409 140.344 216.598 139.977 218.087 139.977ZM228.074 151.258V149.054H233.033V151.258H228.074ZM247.764 150.359H248.431V154.825H247.764V152.853H245.618V156.42H247.503V157H239.383V156.42H241.268V152.853H234.482V152.273L242.718 140.122H245.618V152.273H247.764V150.359ZM241.268 152.273V143.312L235.236 152.273H241.268ZM254.035 156.855L252.846 157.029C252.285 157.029 251.783 156.836 251.338 156.449C250.893 156.062 250.671 155.511 250.671 154.796C250.671 154.061 250.903 153.452 251.367 152.969C251.85 152.486 252.517 152.244 253.368 152.244C254.238 152.244 254.944 152.573 255.485 153.23C256.026 153.887 256.297 154.632 256.297 155.463C256.297 156.662 255.901 157.764 255.108 158.769C254.335 159.794 253.213 160.635 251.744 161.292L251.541 160.77C253.552 159.591 254.557 158.45 254.557 157.348C254.557 157.019 254.383 156.855 254.035 156.855ZM278.102 152.882C278.102 154.1 277.812 155.144 277.232 156.014C276.671 156.865 275.84 157.29 274.738 157.29C273.655 157.29 272.389 156.932 270.939 156.217C269.489 155.482 268.445 155.115 267.807 155.115C266.666 155.115 265.96 155.743 265.69 157H265.11C265.226 155.531 265.767 154.148 266.734 152.853C267.391 151.983 268.783 150.504 270.91 148.416C271.47 147.855 271.973 147.188 272.418 146.415C272.862 145.642 273.085 144.81 273.085 143.921C273.085 143.032 272.824 142.268 272.302 141.63C271.78 140.992 271.006 140.673 269.982 140.673C269.324 140.673 268.725 140.799 268.184 141.05C267.642 141.301 267.372 141.591 267.372 141.92C267.372 142.229 267.497 142.461 267.749 142.616C268.019 142.771 268.3 142.896 268.59 142.993C268.899 143.07 269.179 143.264 269.431 143.573C269.701 143.882 269.837 144.298 269.837 144.82C269.837 145.342 269.643 145.787 269.257 146.154C268.889 146.521 268.377 146.705 267.72 146.705C267.062 146.705 266.521 146.463 266.096 145.98C265.67 145.497 265.458 144.878 265.458 144.124C265.458 142.945 265.96 141.959 266.966 141.166C267.99 140.373 269.411 139.977 271.229 139.977C273.065 139.977 274.622 140.373 275.898 141.166C277.174 141.959 277.812 143.051 277.812 144.443C277.812 145.584 277.541 146.55 277 147.343C276.478 148.136 275.801 148.735 274.97 149.141C274.158 149.547 273.317 149.905 272.447 150.214C271.596 150.504 270.755 150.852 269.924 151.258C269.112 151.645 268.532 152.099 268.184 152.621C268.648 152.234 269.247 152.041 269.982 152.041C270.716 152.041 271.548 152.167 272.476 152.418C273.423 152.669 274.167 152.795 274.709 152.795C275.25 152.795 275.695 152.766 276.043 152.708C276.391 152.65 276.719 152.486 277.029 152.215C277.338 151.944 277.522 151.558 277.58 151.055H277.87C278.024 151.674 278.102 152.283 278.102 152.882ZM294.989 148.706C294.989 151.316 294.341 153.414 293.046 154.999C291.751 156.565 290.001 157.348 287.797 157.348C285.612 157.348 283.882 156.565 282.606 154.999C281.349 153.433 280.721 151.219 280.721 148.358C280.721 145.999 281.349 144.018 282.606 142.413C283.882 140.789 285.641 139.977 287.884 139.977C290.146 139.977 291.896 140.779 293.133 142.384C294.37 143.969 294.989 146.077 294.989 148.706ZM290.668 148.358C290.668 143.157 289.73 140.557 287.855 140.557C285.98 140.557 285.042 143.157 285.042 148.358C285.042 151.142 285.245 153.24 285.651 154.651C286.057 156.062 286.801 156.768 287.884 156.768C288.967 156.768 289.701 156.072 290.088 154.68C290.475 153.288 290.668 151.181 290.668 148.358ZM310.019 152.882C310.019 154.1 309.729 155.144 309.149 156.014C308.588 156.865 307.757 157.29 306.655 157.29C305.572 157.29 304.306 156.932 302.856 156.217C301.406 155.482 300.362 155.115 299.724 155.115C298.583 155.115 297.877 155.743 297.607 157H297.027C297.143 155.531 297.684 154.148 298.651 152.853C299.308 151.983 300.7 150.504 302.827 148.416C303.387 147.855 303.89 147.188 304.335 146.415C304.779 145.642 305.002 144.81 305.002 143.921C305.002 143.032 304.741 142.268 304.219 141.63C303.697 140.992 302.923 140.673 301.899 140.673C301.241 140.673 300.642 140.799 300.101 141.05C299.559 141.301 299.289 141.591 299.289 141.92C299.289 142.229 299.414 142.461 299.666 142.616C299.936 142.771 300.217 142.896 300.507 142.993C300.816 143.07 301.096 143.264 301.348 143.573C301.618 143.882 301.754 144.298 301.754 144.82C301.754 145.342 301.56 145.787 301.174 146.154C300.806 146.521 300.294 146.705 299.637 146.705C298.979 146.705 298.438 146.463 298.013 145.98C297.587 145.497 297.375 144.878 297.375 144.124C297.375 142.945 297.877 141.959 298.883 141.166C299.907 140.373 301.328 139.977 303.146 139.977C304.982 139.977 306.539 140.373 307.815 141.166C309.091 141.959 309.729 143.051 309.729 144.443C309.729 145.584 309.458 146.55 308.917 147.343C308.395 148.136 307.718 148.735 306.887 149.141C306.075 149.547 305.234 149.905 304.364 150.214C303.513 150.504 302.672 150.852 301.841 151.258C301.029 151.645 300.449 152.099 300.101 152.621C300.565 152.234 301.164 152.041 301.899 152.041C302.633 152.041 303.465 152.167 304.393 152.418C305.34 152.669 306.084 152.795 306.626 152.795C307.167 152.795 307.612 152.766 307.96 152.708C308.308 152.65 308.636 152.486 308.946 152.215C309.255 151.944 309.439 151.558 309.497 151.055H309.787C309.941 151.674 310.019 152.283 310.019 152.882ZM325.34 152.882C325.34 154.1 325.05 155.144 324.47 156.014C323.909 156.865 323.078 157.29 321.976 157.29C320.893 157.29 319.627 156.932 318.177 156.217C316.727 155.482 315.683 155.115 315.045 155.115C313.904 155.115 313.199 155.743 312.928 157H312.348C312.464 155.531 313.005 154.148 313.972 152.853C314.629 151.983 316.021 150.504 318.148 148.416C318.709 147.855 319.211 147.188 319.656 146.415C320.101 145.642 320.323 144.81 320.323 143.921C320.323 143.032 320.062 142.268 319.54 141.63C319.018 140.992 318.245 140.673 317.22 140.673C316.563 140.673 315.963 140.799 315.422 141.05C314.881 141.301 314.61 141.591 314.61 141.92C314.61 142.229 314.736 142.461 314.987 142.616C315.258 142.771 315.538 142.896 315.828 142.993C316.137 143.07 316.418 143.264 316.669 143.573C316.94 143.882 317.075 144.298 317.075 144.82C317.075 145.342 316.882 145.787 316.495 146.154C316.128 146.521 315.615 146.705 314.958 146.705C314.301 146.705 313.759 146.463 313.334 145.98C312.909 145.497 312.696 144.878 312.696 144.124C312.696 142.945 313.199 141.959 314.204 141.166C315.229 140.373 316.65 139.977 318.467 139.977C320.304 139.977 321.86 140.373 323.136 141.166C324.412 141.959 325.05 143.051 325.05 144.443C325.05 145.584 324.779 146.55 324.238 147.343C323.716 148.136 323.039 148.735 322.208 149.141C321.396 149.547 320.555 149.905 319.685 150.214C318.834 150.504 317.993 150.852 317.162 151.258C316.35 151.645 315.77 152.099 315.422 152.621C315.886 152.234 316.485 152.041 317.22 152.041C317.955 152.041 318.786 152.167 319.714 152.418C320.661 152.669 321.406 152.795 321.947 152.795C322.488 152.795 322.933 152.766 323.281 152.708C323.629 152.65 323.958 152.486 324.267 152.215C324.576 151.944 324.76 151.558 324.818 151.055H325.108C325.263 151.674 325.34 152.283 325.34 152.882Z" fill="#74448A"/>
<g filter="url(#filter1_d_5140_23249)">
<path d="M59.5207 157H58.9407V150.243H59.5207C59.5207 152.06 60.1684 153.607 61.4637 154.883C62.7784 156.159 64.3734 156.797 66.2487 156.797C67.022 156.797 67.6407 156.575 68.1047 156.13C68.588 155.666 68.8297 155.057 68.8297 154.303C68.8297 153.452 68.2787 152.727 67.1767 152.128C66.5774 151.819 65.543 151.335 64.0737 150.678C62.6044 150.001 61.57 149.431 60.9707 148.967C59.772 148.039 59.2404 146.811 59.3757 145.284C59.5304 143.757 60.1104 142.577 61.1157 141.746C62.121 140.895 63.252 140.47 64.5087 140.47C65.7847 140.47 66.9254 140.644 67.9307 140.992C68.9554 141.321 69.5354 141.485 69.6707 141.485C70.0574 141.485 70.2507 141.147 70.2507 140.47H70.8307V145.777H70.2507C70.2507 144.385 69.7384 143.254 68.7137 142.384C67.689 141.495 66.3744 141.05 64.7697 141.05C64.0544 141.05 63.4937 141.263 63.0877 141.688C62.6817 142.094 62.4787 142.548 62.4787 143.051C62.4787 143.554 62.5464 143.94 62.6817 144.211C62.817 144.482 63.049 144.733 63.3777 144.965C63.7257 145.178 64.0254 145.352 64.2767 145.487C64.528 145.622 64.9244 145.806 65.4657 146.038C66.0264 146.27 66.413 146.434 66.6257 146.531C67.689 147.014 68.3174 147.304 68.5107 147.401C68.704 147.478 68.9844 147.614 69.3517 147.807C69.719 148 69.9897 148.174 70.1637 148.329C70.357 148.484 70.5987 148.677 70.8887 148.909C71.1787 149.141 71.3914 149.383 71.5267 149.634C71.662 149.866 71.7974 150.137 71.9327 150.446C72.2034 151.065 72.3 151.79 72.2227 152.621C72.068 154.187 71.4784 155.386 70.4537 156.217C69.4484 157.029 68.0854 157.435 66.3647 157.435C64.818 157.435 63.281 157.039 61.7537 156.246C61.2317 155.975 60.845 155.84 60.5937 155.84C59.8784 155.84 59.5207 156.227 59.5207 157ZM87.3496 151.2H78.5916C78.7849 154.603 80.1092 156.304 82.5646 156.304C83.2219 156.304 83.9662 156.149 84.7976 155.84C85.6482 155.531 86.2669 155.096 86.6536 154.535L87.0596 154.825C86.6342 155.54 85.9092 156.13 84.8846 156.594C83.8599 157.058 82.8352 157.29 81.8106 157.29C80.8052 157.29 79.8966 157.193 79.0846 157C78.2726 156.787 77.4799 156.439 76.7066 155.956C75.9332 155.473 75.3242 154.748 74.8796 153.781C74.4542 152.814 74.2416 151.645 74.2416 150.272C74.2416 147.933 74.8892 146.202 76.1846 145.081C77.4799 143.94 79.0459 143.37 80.8826 143.37C82.7386 143.37 84.2756 143.989 85.4936 145.226C86.7309 146.463 87.3496 148.455 87.3496 151.2ZM78.5626 150.62H83.2896C83.2896 148.841 83.0962 147.285 82.7096 145.951C82.3422 144.617 81.7429 143.95 80.9116 143.95C80.0802 143.95 79.4809 144.598 79.1136 145.893C78.7462 147.169 78.5626 148.638 78.5626 150.301V150.62ZM94.6764 150.011V154.796C95.1984 155.84 95.8751 156.362 96.7064 156.362C97.5571 156.362 98.2821 155.879 98.8814 154.912C99.4807 153.945 99.7804 152.399 99.7804 150.272C99.7804 148.126 99.5484 146.628 99.0844 145.777C98.6204 144.907 97.9147 144.472 96.9674 144.472C96.0201 144.472 95.4014 144.859 95.1114 145.632C94.8214 146.405 94.6764 147.865 94.6764 150.011ZM94.6764 144.994C95.3337 143.873 96.5131 143.312 98.2144 143.312C99.9157 143.312 101.337 143.931 102.477 145.168C103.618 146.405 104.188 148.155 104.188 150.417C104.188 152.679 103.628 154.448 102.506 155.724C101.385 157 100.022 157.638 98.4174 157.638C97.6247 157.638 96.8804 157.474 96.1844 157.145C95.4884 156.816 94.9857 156.323 94.6764 155.666V162.51H96.1264V163.09H90.3264V144.24H88.8764V143.66H94.6764V144.994ZM111.558 144.24V151.316C111.558 152.979 111.626 153.994 111.761 154.361C111.896 154.709 112.041 155.009 112.196 155.26C112.486 155.763 112.989 156.014 113.704 156.014C114.439 156.014 114.951 155.917 115.241 155.724V156.304C114.313 156.961 113.298 157.29 112.196 157.29C110.572 157.29 109.335 156.903 108.484 156.13C107.633 155.357 107.208 153.974 107.208 151.983V144.24H105.062V143.66H107.208C108.136 143.505 108.958 143.061 109.673 142.326C110.388 141.572 110.881 140.538 111.152 139.223H111.558V143.66H114.922V144.24H111.558ZM129.519 151.2H120.761C120.954 154.603 122.278 156.304 124.734 156.304C125.391 156.304 126.135 156.149 126.967 155.84C127.817 155.531 128.436 155.096 128.823 154.535L129.229 154.825C128.803 155.54 128.078 156.13 127.054 156.594C126.029 157.058 125.004 157.29 123.98 157.29C122.974 157.29 122.066 157.193 121.254 157C120.442 156.787 119.649 156.439 118.876 155.956C118.102 155.473 117.493 154.748 117.049 153.781C116.623 152.814 116.411 151.645 116.411 150.272C116.411 147.933 117.058 146.202 118.354 145.081C119.649 143.94 121.215 143.37 123.052 143.37C124.908 143.37 126.445 143.989 127.663 145.226C128.9 146.463 129.519 148.455 129.519 151.2ZM120.732 150.62H125.459C125.459 148.841 125.265 147.285 124.879 145.951C124.511 144.617 123.912 143.95 123.081 143.95C122.249 143.95 121.65 144.598 121.283 145.893C120.915 147.169 120.732 148.638 120.732 150.301V150.62ZM155.985 156.42H157.435V157H150.185V156.42H151.635V148.3C151.635 146.927 151.432 145.951 151.026 145.371C150.62 144.791 150.011 144.501 149.199 144.501C148.735 144.501 148.252 144.636 147.749 144.907C147.247 145.178 146.831 145.555 146.502 146.038C146.734 146.734 146.85 147.701 146.85 148.938V156.42H148.3V157H140.76V156.42H142.5V148.3C142.5 146.927 142.297 145.951 141.891 145.371C141.485 144.791 140.876 144.501 140.064 144.501C138.962 144.501 138.083 145.081 137.425 146.241V156.42H138.875V157H131.625V156.42H133.075V144.24H131.625V143.66H137.425V145.168C137.793 144.665 138.363 144.24 139.136 143.892C139.929 143.525 140.78 143.341 141.688 143.341C143.989 143.341 145.487 143.989 146.183 145.284C146.686 144.665 147.353 144.192 148.184 143.863C149.016 143.515 149.895 143.341 150.823 143.341C154.265 143.341 155.985 145.207 155.985 148.938V156.42ZM164.394 152.476C164.394 153.945 164.559 155.009 164.887 155.666C165.216 156.304 165.738 156.623 166.453 156.623C167.188 156.623 167.836 156.082 168.396 154.999C168.957 153.897 169.237 152.36 169.237 150.388C169.237 148.397 168.938 146.869 168.338 145.806C167.758 144.743 167.072 144.211 166.279 144.211C165.487 144.211 164.858 144.665 164.394 145.574V152.476ZM171.209 155.985C170.494 156.449 169.798 156.778 169.121 156.971C168.445 157.164 167.778 157.261 167.12 157.261C166.482 157.261 165.893 157.145 165.351 156.913C164.81 156.662 164.375 156.401 164.046 156.13C163.737 155.84 163.389 155.579 163.002 155.347C162.616 155.096 162.248 154.97 161.9 154.97C161.552 154.97 161.243 155.163 160.972 155.55C160.721 155.937 160.595 156.42 160.595 157H160.044V138.15H158.594V137.57H164.394V144.704C164.704 144.182 165.206 143.776 165.902 143.486C166.618 143.177 167.362 143.022 168.135 143.022C169.605 143.022 170.881 143.67 171.963 144.965C173.065 146.241 173.616 148.029 173.616 150.33C173.616 151.683 173.394 152.843 172.949 153.81C172.505 154.777 171.925 155.502 171.209 155.985ZM188.453 151.2H179.695C179.888 154.603 181.213 156.304 183.668 156.304C184.325 156.304 185.07 156.149 185.901 155.84C186.752 155.531 187.37 155.096 187.757 154.535L188.163 154.825C187.738 155.54 187.013 156.13 185.988 156.594C184.963 157.058 183.939 157.29 182.914 157.29C181.909 157.29 181 157.193 180.188 157C179.376 156.787 178.583 156.439 177.81 155.956C177.037 155.473 176.428 154.748 175.983 153.781C175.558 152.814 175.345 151.645 175.345 150.272C175.345 147.933 175.993 146.202 177.288 145.081C178.583 143.94 180.149 143.37 181.986 143.37C183.842 143.37 185.379 143.989 186.597 145.226C187.834 146.463 188.453 148.455 188.453 151.2ZM179.666 150.62H184.393C184.393 148.841 184.2 147.285 183.813 145.951C183.446 144.617 182.846 143.95 182.015 143.95C181.184 143.95 180.584 144.598 180.217 145.893C179.85 147.169 179.666 148.638 179.666 150.301V150.62ZM197.81 157H190.56V156.42H192.01V144.24H190.56V143.66H196.36V147.111C196.534 146.164 196.843 145.39 197.288 144.791C197.752 144.192 198.255 143.795 198.796 143.602C199.357 143.409 199.888 143.312 200.391 143.312C200.913 143.312 201.406 143.409 201.87 143.602C202.353 143.776 202.711 144.143 202.943 144.704C203.175 145.245 203.185 145.796 202.972 146.357C202.759 146.898 202.382 147.285 201.841 147.517C201.319 147.749 200.836 147.778 200.391 147.604C199.946 147.43 199.627 147.198 199.434 146.908C199.241 146.599 199.105 146.309 199.028 146.038C198.835 145.323 198.574 144.965 198.245 144.965C197.878 144.965 197.472 145.603 197.027 146.879C196.582 148.136 196.36 149.47 196.36 150.881V156.42H197.81V157ZM216.087 139.977C220.495 139.977 222.699 141.311 222.699 143.979C222.699 145.042 222.274 145.941 221.423 146.676C220.592 147.411 219.393 147.817 217.827 147.894C219.586 147.913 221.007 148.31 222.09 149.083C223.192 149.856 223.743 150.91 223.743 152.244C223.743 153.887 223.076 155.173 221.742 156.101C220.427 157.01 218.562 157.464 216.145 157.464C214.463 157.464 213.148 157.097 212.201 156.362C211.273 155.608 210.809 154.612 210.809 153.375C210.809 152.602 211.012 151.973 211.418 151.49C211.843 151.007 212.394 150.765 213.071 150.765C213.748 150.765 214.27 150.949 214.637 151.316C215.024 151.683 215.217 152.138 215.217 152.679C215.217 153.201 215.072 153.617 214.782 153.926C214.492 154.235 214.173 154.429 213.825 154.506C212.916 154.719 212.462 155.028 212.462 155.434C212.462 155.821 212.733 156.14 213.274 156.391C213.835 156.642 214.473 156.768 215.188 156.768C216.309 156.768 217.218 156.362 217.914 155.55C218.61 154.738 218.958 153.646 218.958 152.273C218.958 150.881 218.649 149.856 218.03 149.199C217.431 148.542 216.329 148.213 214.724 148.213H214.26V147.633H214.724C215.961 147.633 216.851 147.266 217.392 146.531C217.933 145.777 218.204 144.926 218.204 143.979C218.204 143.032 217.933 142.239 217.392 141.601C216.851 140.963 216.164 140.644 215.333 140.644C214.502 140.644 213.873 140.779 213.448 141.05C213.023 141.321 212.81 141.611 212.81 141.92C212.81 142.21 212.926 142.423 213.158 142.558C213.409 142.693 213.68 142.8 213.97 142.877C214.279 142.935 214.55 143.099 214.782 143.37C215.033 143.641 215.159 144.008 215.159 144.472C215.159 144.936 214.995 145.332 214.666 145.661C214.337 145.99 213.873 146.154 213.274 146.154C212.675 146.154 212.182 145.941 211.795 145.516C211.408 145.091 211.215 144.511 211.215 143.776C211.215 142.713 211.65 141.814 212.52 141.079C213.409 140.344 214.598 139.977 216.087 139.977ZM226.074 151.258V149.054H231.033V151.258H226.074ZM245.764 150.359H246.431V154.825H245.764V152.853H243.618V156.42H245.503V157H237.383V156.42H239.268V152.853H232.482V152.273L240.718 140.122H243.618V152.273H245.764V150.359ZM239.268 152.273V143.312L233.236 152.273H239.268ZM252.035 156.855L250.846 157.029C250.285 157.029 249.783 156.836 249.338 156.449C248.893 156.062 248.671 155.511 248.671 154.796C248.671 154.061 248.903 153.452 249.367 152.969C249.85 152.486 250.517 152.244 251.368 152.244C252.238 152.244 252.944 152.573 253.485 153.23C254.026 153.887 254.297 154.632 254.297 155.463C254.297 156.662 253.901 157.764 253.108 158.769C252.335 159.794 251.213 160.635 249.744 161.292L249.541 160.77C251.552 159.591 252.557 158.45 252.557 157.348C252.557 157.019 252.383 156.855 252.035 156.855ZM276.102 152.882C276.102 154.1 275.812 155.144 275.232 156.014C274.671 156.865 273.84 157.29 272.738 157.29C271.655 157.29 270.389 156.932 268.939 156.217C267.489 155.482 266.445 155.115 265.807 155.115C264.666 155.115 263.96 155.743 263.69 157H263.11C263.226 155.531 263.767 154.148 264.734 152.853C265.391 151.983 266.783 150.504 268.91 148.416C269.47 147.855 269.973 147.188 270.418 146.415C270.862 145.642 271.085 144.81 271.085 143.921C271.085 143.032 270.824 142.268 270.302 141.63C269.78 140.992 269.006 140.673 267.982 140.673C267.324 140.673 266.725 140.799 266.184 141.05C265.642 141.301 265.372 141.591 265.372 141.92C265.372 142.229 265.497 142.461 265.749 142.616C266.019 142.771 266.3 142.896 266.59 142.993C266.899 143.07 267.179 143.264 267.431 143.573C267.701 143.882 267.837 144.298 267.837 144.82C267.837 145.342 267.643 145.787 267.257 146.154C266.889 146.521 266.377 146.705 265.72 146.705C265.062 146.705 264.521 146.463 264.096 145.98C263.67 145.497 263.458 144.878 263.458 144.124C263.458 142.945 263.96 141.959 264.966 141.166C265.99 140.373 267.411 139.977 269.229 139.977C271.065 139.977 272.622 140.373 273.898 141.166C275.174 141.959 275.812 143.051 275.812 144.443C275.812 145.584 275.541 146.55 275 147.343C274.478 148.136 273.801 148.735 272.97 149.141C272.158 149.547 271.317 149.905 270.447 150.214C269.596 150.504 268.755 150.852 267.924 151.258C267.112 151.645 266.532 152.099 266.184 152.621C266.648 152.234 267.247 152.041 267.982 152.041C268.716 152.041 269.548 152.167 270.476 152.418C271.423 152.669 272.167 152.795 272.709 152.795C273.25 152.795 273.695 152.766 274.043 152.708C274.391 152.65 274.719 152.486 275.029 152.215C275.338 151.944 275.522 151.558 275.58 151.055H275.87C276.024 151.674 276.102 152.283 276.102 152.882ZM292.989 148.706C292.989 151.316 292.341 153.414 291.046 154.999C289.751 156.565 288.001 157.348 285.797 157.348C283.612 157.348 281.882 156.565 280.606 154.999C279.349 153.433 278.721 151.219 278.721 148.358C278.721 145.999 279.349 144.018 280.606 142.413C281.882 140.789 283.641 139.977 285.884 139.977C288.146 139.977 289.896 140.779 291.133 142.384C292.37 143.969 292.989 146.077 292.989 148.706ZM288.668 148.358C288.668 143.157 287.73 140.557 285.855 140.557C283.98 140.557 283.042 143.157 283.042 148.358C283.042 151.142 283.245 153.24 283.651 154.651C284.057 156.062 284.801 156.768 285.884 156.768C286.967 156.768 287.701 156.072 288.088 154.68C288.475 153.288 288.668 151.181 288.668 148.358ZM308.019 152.882C308.019 154.1 307.729 155.144 307.149 156.014C306.588 156.865 305.757 157.29 304.655 157.29C303.572 157.29 302.306 156.932 300.856 156.217C299.406 155.482 298.362 155.115 297.724 155.115C296.583 155.115 295.877 155.743 295.607 157H295.027C295.143 155.531 295.684 154.148 296.651 152.853C297.308 151.983 298.7 150.504 300.827 148.416C301.387 147.855 301.89 147.188 302.335 146.415C302.779 145.642 303.002 144.81 303.002 143.921C303.002 143.032 302.741 142.268 302.219 141.63C301.697 140.992 300.923 140.673 299.899 140.673C299.241 140.673 298.642 140.799 298.101 141.05C297.559 141.301 297.289 141.591 297.289 141.92C297.289 142.229 297.414 142.461 297.666 142.616C297.936 142.771 298.217 142.896 298.507 142.993C298.816 143.07 299.096 143.264 299.348 143.573C299.618 143.882 299.754 144.298 299.754 144.82C299.754 145.342 299.56 145.787 299.174 146.154C298.806 146.521 298.294 146.705 297.637 146.705C296.979 146.705 296.438 146.463 296.013 145.98C295.587 145.497 295.375 144.878 295.375 144.124C295.375 142.945 295.877 141.959 296.883 141.166C297.907 140.373 299.328 139.977 301.146 139.977C302.982 139.977 304.539 140.373 305.815 141.166C307.091 141.959 307.729 143.051 307.729 144.443C307.729 145.584 307.458 146.55 306.917 147.343C306.395 148.136 305.718 148.735 304.887 149.141C304.075 149.547 303.234 149.905 302.364 150.214C301.513 150.504 300.672 150.852 299.841 151.258C299.029 151.645 298.449 152.099 298.101 152.621C298.565 152.234 299.164 152.041 299.899 152.041C300.633 152.041 301.465 152.167 302.393 152.418C303.34 152.669 304.084 152.795 304.626 152.795C305.167 152.795 305.612 152.766 305.96 152.708C306.308 152.65 306.636 152.486 306.946 152.215C307.255 151.944 307.439 151.558 307.497 151.055H307.787C307.941 151.674 308.019 152.283 308.019 152.882ZM323.34 152.882C323.34 154.1 323.05 155.144 322.47 156.014C321.909 156.865 321.078 157.29 319.976 157.29C318.893 157.29 317.627 156.932 316.177 156.217C314.727 155.482 313.683 155.115 313.045 155.115C311.904 155.115 311.199 155.743 310.928 157H310.348C310.464 155.531 311.005 154.148 311.972 152.853C312.629 151.983 314.021 150.504 316.148 148.416C316.709 147.855 317.211 147.188 317.656 146.415C318.101 145.642 318.323 144.81 318.323 143.921C318.323 143.032 318.062 142.268 317.54 141.63C317.018 140.992 316.245 140.673 315.22 140.673C314.563 140.673 313.963 140.799 313.422 141.05C312.881 141.301 312.61 141.591 312.61 141.92C312.61 142.229 312.736 142.461 312.987 142.616C313.258 142.771 313.538 142.896 313.828 142.993C314.137 143.07 314.418 143.264 314.669 143.573C314.94 143.882 315.075 144.298 315.075 144.82C315.075 145.342 314.882 145.787 314.495 146.154C314.128 146.521 313.615 146.705 312.958 146.705C312.301 146.705 311.759 146.463 311.334 145.98C310.909 145.497 310.696 144.878 310.696 144.124C310.696 142.945 311.199 141.959 312.204 141.166C313.229 140.373 314.65 139.977 316.467 139.977C318.304 139.977 319.86 140.373 321.136 141.166C322.412 141.959 323.05 143.051 323.05 144.443C323.05 145.584 322.779 146.55 322.238 147.343C321.716 148.136 321.039 148.735 320.208 149.141C319.396 149.547 318.555 149.905 317.685 150.214C316.834 150.504 315.993 150.852 315.162 151.258C314.35 151.645 313.77 152.099 313.422 152.621C313.886 152.234 314.485 152.041 315.22 152.041C315.955 152.041 316.786 152.167 317.714 152.418C318.661 152.669 319.406 152.795 319.947 152.795C320.488 152.795 320.933 152.766 321.281 152.708C321.629 152.65 321.958 152.486 322.267 152.215C322.576 151.944 322.76 151.558 322.818 151.055H323.108C323.263 151.674 323.34 152.283 323.34 152.882Z" fill="white"/>
</g>
<defs>
<filter id="filter0_d_5140_23249" x="0.212891" y="42.9072" width="384.129" height="87.7529" filterUnits="userSpaceOnUse" color-interpolation-filters="sRGB">
<feFlood flood-opacity="0" result="BackgroundImageFix"/>
<feColorMatrix in="SourceAlpha" type="matrix" values="0 0 0 0 0 0 0 0 0 0 0 0 0 0 0 0 0 0 127 0" result="hardAlpha"/>
<feOffset/>
<feGaussianBlur stdDeviation="10"/>
<feComposite in2="hardAlpha" operator="out"/>
<feColorMatrix type="matrix" values="0 0 0 0 0.891667 0 0 0 0 0.891667 0 0 0 0 0.891667 0 0 0 0.45 0"/>
<feBlend mode="normal" in2="BackgroundImageFix" result="effect1_dropShadow_5140_23249"/>
<feBlend mode="normal" in="SourceGraphic" in2="effect1_dropShadow_5140_23249" result="shape"/>
</filter>
<filter id="filter1_d_5140_23249" x="38.9414" y="117.57" width="304.398" height="65.5195" filterUnits="userSpaceOnUse" color-interpolation-filters="sRGB">
<feFlood flood-opacity="0" result="BackgroundImageFix"/>
<feColorMatrix in="SourceAlpha" type="matrix" values="0 0 0 0 0 0 0 0 0 0 0 0 0 0 0 0 0 0 127 0" result="hardAlpha"/>
<feOffset/>
<feGaussianBlur stdDeviation="10"/>
<feComposite in2="hardAlpha" operator="out"/>
<feColorMatrix type="matrix" values="0 0 0 0 0.9125 0 0 0 0 0.9125 0 0 0 0 0.9125 0 0 0 0.45 0"/>
<feBlend mode="normal" in2="BackgroundImageFix" result="effect1_dropShadow_5140_23249"/>
<feBlend mode="normal" in="SourceGraphic" in2="effect1_dropShadow_5140_23249" result="shape"/>
</filter>
<linearGradient id="paint0_linear_5140_23249" x1="44.6038" y1="13.4999" x2="356.738" y2="13.5" gradientUnits="userSpaceOnUse">
<stop stop-color="#6FC4E0"/>
<stop offset="0.947917" stop-color="#5F5BCF"/>
</linearGradient>
</defs>
</svg>
