<svg width="641" height="229" viewBox="0 0 641 229" fill="none" xmlns="http://www.w3.org/2000/svg">
<g filter="url(#filter0_d_7100_16943)">
<path d="M41.0508 187.52H40.2508C40.2508 185.387 39.5708 183.413 38.2108 181.6C36.8508 179.787 34.9041 178.88 32.3708 178.88C30.9574 178.88 29.7841 179.707 28.8508 181.36C27.9441 183.013 27.4908 185.84 27.4908 189.84C27.4908 193.84 27.9441 196.667 28.8508 198.32C29.7841 199.973 31.2241 200.8 33.1708 200.8C35.1441 200.8 36.7974 200.187 38.1308 198.96C39.4908 197.733 40.3308 196 40.6508 193.76H41.4508C41.0774 196.4 40.1441 198.373 38.6508 199.68C37.1841 200.96 35.4241 201.6 33.3708 201.6C29.3974 201.6 26.3441 200.653 24.2108 198.76C22.1041 196.84 21.0508 193.853 21.0508 189.8C21.0508 185.72 22.0774 182.747 24.1308 180.88C26.2108 179.013 28.9574 178.08 32.3708 178.08C34.2108 178.08 35.9974 178.573 37.7308 179.56C38.2908 179.907 38.7441 180.08 39.0908 180.08C39.4641 180.08 39.7574 179.92 39.9708 179.6C40.1841 179.253 40.2908 178.92 40.2908 178.6H41.0508V187.52ZM50.6336 198.6C51.2203 199.933 52.2336 200.6 53.6736 200.6C55.1136 200.6 56.1403 199.92 56.7536 198.56C57.3669 197.2 57.6736 194.96 57.6736 191.84C57.6736 188.693 57.3669 186.44 56.7536 185.08C56.1403 183.693 55.1136 183 53.6736 183C52.2336 183 51.2203 183.693 50.6336 185.08C50.0469 186.44 49.7536 188.693 49.7536 191.84C49.7536 194.987 50.0469 197.24 50.6336 198.6ZM53.5936 201.4C51.0603 201.4 48.7669 200.573 46.7136 198.92C44.6603 197.267 43.6336 194.92 43.6336 191.88C43.6336 190.253 43.9269 188.8 44.5136 187.52C45.1269 186.24 45.9269 185.227 46.9136 184.48C47.9269 183.733 49.0069 183.173 50.1536 182.8C51.3003 182.4 52.4736 182.2 53.6736 182.2C54.8736 182.2 56.0469 182.4 57.1936 182.8C58.3669 183.173 59.4469 183.733 60.4336 184.48C61.4469 185.227 62.2603 186.24 62.8736 187.52C63.4869 188.8 63.7936 190.24 63.7936 191.84C63.7936 193.44 63.4869 194.867 62.8736 196.12C62.2603 197.373 61.4469 198.373 60.4336 199.12C58.4069 200.64 56.1269 201.4 53.5936 201.4ZM100.212 200.2H102.212V201H92.2117V200.2H94.2117V189C94.2117 187.107 93.9317 185.76 93.3717 184.96C92.8117 184.16 91.9717 183.76 90.8517 183.76C90.2117 183.76 89.5451 183.947 88.8517 184.32C88.1584 184.693 87.5851 185.213 87.1317 185.88C87.4517 186.84 87.6117 188.173 87.6117 189.88V200.2H89.6117V201H79.2117V200.2H81.6117V189C81.6117 187.107 81.3317 185.76 80.7717 184.96C80.2117 184.16 79.3717 183.76 78.2517 183.76C76.7317 183.76 75.5184 184.56 74.6117 186.16V200.2H76.6117V201H66.6117V200.2H68.6117V183.4H66.6117V182.6H74.6117V184.68C75.1184 183.987 75.9051 183.4 76.9717 182.92C78.0651 182.413 79.2384 182.16 80.4917 182.16C83.6651 182.16 85.7317 183.053 86.6917 184.84C87.3851 183.987 88.3051 183.333 89.4517 182.88C90.5984 182.4 91.8117 182.16 93.0917 182.16C97.8384 182.16 100.212 184.733 100.212 189.88V200.2ZM113.01 200.2H115.01V201H105.01V200.2H107.01V183.4H105.41V182.6H113.01V200.2ZM113.37 177.32C113.37 178.28 113.023 179.107 112.33 179.8C111.663 180.467 110.837 180.8 109.85 180.8C108.89 180.8 108.063 180.467 107.37 179.8C106.677 179.107 106.33 178.28 106.33 177.32C106.33 176.333 106.677 175.493 107.37 174.8C108.063 174.107 108.89 173.76 109.85 173.76C110.837 173.76 111.663 174.107 112.33 174.8C113.023 175.493 113.37 176.333 113.37 177.32ZM138.823 200.2H140.823V201H130.823V200.2H132.823V189C132.823 187.107 132.543 185.76 131.983 184.96C131.423 184.16 130.583 183.76 129.463 183.76C127.943 183.76 126.729 184.56 125.823 186.16V200.2H127.823V201H117.823V200.2H119.823V183.4H117.823V182.6H125.823V184.68C126.329 183.987 127.116 183.4 128.183 182.92C129.276 182.413 130.449 182.16 131.703 182.16C136.449 182.16 138.823 184.733 138.823 189.88V200.2ZM148.484 197.28C148.484 198.027 148.964 198.453 149.924 198.56H156.804C159.177 198.56 160.831 199.067 161.764 200.08C162.697 201.093 163.017 202.347 162.724 203.84C162.457 205.333 161.551 206.707 160.004 207.96C158.457 209.213 156.324 209.84 153.604 209.84C148.617 209.84 145.417 209.107 144.004 207.64C143.471 207.053 143.244 206.36 143.324 205.56C143.404 204.787 143.697 204.147 144.204 203.64C144.711 203.16 145.284 202.827 145.924 202.64C145.071 201.92 144.644 201.027 144.644 199.96C144.644 198.893 144.964 197.947 145.604 197.12C146.271 196.267 147.031 195.587 147.884 195.08C144.817 193.96 143.284 191.947 143.284 189.04C143.284 186.88 144.271 185.213 146.244 184.04C148.244 182.84 150.497 182.24 153.004 182.24C154.204 182.24 155.404 182.427 156.604 182.8C155.991 181.973 155.684 180.987 155.684 179.84C155.684 178.693 156.071 177.747 156.844 177C157.644 176.227 158.631 175.84 159.804 175.84C161.004 175.84 161.897 176.16 162.484 176.8C163.097 177.413 163.404 178.107 163.404 178.88C163.404 179.653 163.164 180.307 162.684 180.84C162.231 181.373 161.617 181.64 160.844 181.64C160.097 181.64 159.497 181.387 159.044 180.88C158.591 180.373 158.364 179.867 158.364 179.36C158.364 178.827 158.457 178.373 158.644 178C158.857 177.6 158.964 177.373 158.964 177.32C158.884 176.893 158.617 176.773 158.164 176.96C157.711 177.147 157.311 177.533 156.964 178.12C156.644 178.68 156.484 179.333 156.484 180.08C156.484 181.547 157.137 182.72 158.444 183.6C160.737 184.88 161.884 186.653 161.884 188.92C161.884 191.187 160.937 192.907 159.044 194.08C157.151 195.227 154.911 195.8 152.324 195.8C151.071 195.8 149.964 195.667 149.004 195.4C148.657 195.987 148.484 196.613 148.484 197.28ZM155.884 188.96C155.884 186.667 155.617 185.107 155.084 184.28C154.551 183.453 153.751 183.04 152.684 183.04C151.644 183.04 150.884 183.467 150.404 184.32C149.924 185.147 149.684 186.68 149.684 188.92C149.684 191.16 149.937 192.733 150.444 193.64C150.951 194.547 151.711 195 152.724 195C153.764 195 154.551 194.56 155.084 193.68C155.617 192.8 155.884 191.227 155.884 188.96ZM156.564 203.76H149.844C148.564 203.76 147.484 203.533 146.604 203.08C146.231 205 146.711 206.467 148.044 207.48C149.404 208.52 151.257 209.04 153.604 209.04C155.951 209.04 157.897 208.453 159.444 207.28C160.164 206.747 160.564 206.213 160.644 205.68C160.724 205.147 160.417 204.693 159.724 204.32C159.031 203.947 157.977 203.76 156.564 203.76ZM175.907 201H175.107V191.68H175.907C175.907 194.187 176.8 196.32 178.587 198.08C180.4 199.84 182.6 200.72 185.187 200.72C186.254 200.72 187.107 200.413 187.747 199.8C188.414 199.16 188.747 198.32 188.747 197.28C188.747 196.107 187.987 195.107 186.467 194.28C185.64 193.853 184.214 193.187 182.187 192.28C180.16 191.347 178.734 190.56 177.907 189.92C176.254 188.64 175.52 186.947 175.707 184.84C175.92 182.733 176.72 181.107 178.107 179.96C179.494 178.787 181.054 178.2 182.787 178.2C184.547 178.2 186.12 178.44 187.507 178.92C188.92 179.373 189.72 179.6 189.907 179.6C190.44 179.6 190.707 179.133 190.707 178.2H191.507V185.52H190.707C190.707 183.6 190 182.04 188.587 180.84C187.174 179.613 185.36 179 183.147 179C182.16 179 181.387 179.293 180.827 179.88C180.267 180.44 179.987 181.067 179.987 181.76C179.987 182.453 180.08 182.987 180.267 183.36C180.454 183.733 180.774 184.08 181.227 184.4C181.707 184.693 182.12 184.933 182.467 185.12C182.814 185.307 183.36 185.56 184.107 185.88C184.88 186.2 185.414 186.427 185.707 186.56C187.174 187.227 188.04 187.627 188.307 187.76C188.574 187.867 188.96 188.053 189.467 188.32C189.974 188.587 190.347 188.827 190.587 189.04C190.854 189.253 191.187 189.52 191.587 189.84C191.987 190.16 192.28 190.493 192.467 190.84C192.654 191.16 192.84 191.533 193.027 191.96C193.4 192.813 193.534 193.813 193.427 194.96C193.214 197.12 192.4 198.773 190.987 199.92C189.6 201.04 187.72 201.6 185.347 201.6C183.214 201.6 181.094 201.053 178.987 199.96C178.267 199.587 177.734 199.4 177.387 199.4C176.4 199.4 175.907 199.933 175.907 201ZM203.212 198.6C203.798 199.933 204.812 200.6 206.252 200.6C207.692 200.6 208.718 199.92 209.332 198.56C209.945 197.2 210.252 194.96 210.252 191.84C210.252 188.693 209.945 186.44 209.332 185.08C208.718 183.693 207.692 183 206.252 183C204.812 183 203.798 183.693 203.212 185.08C202.625 186.44 202.332 188.693 202.332 191.84C202.332 194.987 202.625 197.24 203.212 198.6ZM206.172 201.4C203.638 201.4 201.345 200.573 199.292 198.92C197.238 197.267 196.212 194.92 196.212 191.88C196.212 190.253 196.505 188.8 197.092 187.52C197.705 186.24 198.505 185.227 199.492 184.48C200.505 183.733 201.585 183.173 202.732 182.8C203.878 182.4 205.052 182.2 206.252 182.2C207.452 182.2 208.625 182.4 209.772 182.8C210.945 183.173 212.025 183.733 213.012 184.48C214.025 185.227 214.838 186.24 215.452 187.52C216.065 188.8 216.372 190.24 216.372 191.84C216.372 193.44 216.065 194.867 215.452 196.12C214.838 197.373 214.025 198.373 213.012 199.12C210.985 200.64 208.705 201.4 206.172 201.4ZM225.79 198.6C226.377 199.933 227.39 200.6 228.83 200.6C230.27 200.6 231.297 199.92 231.91 198.56C232.523 197.2 232.83 194.96 232.83 191.84C232.83 188.693 232.523 186.44 231.91 185.08C231.297 183.693 230.27 183 228.83 183C227.39 183 226.377 183.693 225.79 185.08C225.203 186.44 224.91 188.693 224.91 191.84C224.91 194.987 225.203 197.24 225.79 198.6ZM228.75 201.4C226.217 201.4 223.923 200.573 221.87 198.92C219.817 197.267 218.79 194.92 218.79 191.88C218.79 190.253 219.083 188.8 219.67 187.52C220.283 186.24 221.083 185.227 222.07 184.48C223.083 183.733 224.163 183.173 225.31 182.8C226.457 182.4 227.63 182.2 228.83 182.2C230.03 182.2 231.203 182.4 232.35 182.8C233.523 183.173 234.603 183.733 235.59 184.48C236.603 185.227 237.417 186.24 238.03 187.52C238.643 188.8 238.95 190.24 238.95 191.84C238.95 193.44 238.643 194.867 238.03 196.12C237.417 197.373 236.603 198.373 235.59 199.12C233.563 200.64 231.283 201.4 228.75 201.4ZM262.768 200.2H264.768V201H254.768V200.2H256.768V189C256.768 187.107 256.488 185.76 255.928 184.96C255.368 184.16 254.528 183.76 253.408 183.76C251.888 183.76 250.675 184.56 249.768 186.16V200.2H251.768V201H241.768V200.2H243.768V183.4H241.768V182.6H249.768V184.68C250.275 183.987 251.061 183.4 252.128 182.92C253.221 182.413 254.395 182.16 255.648 182.16C260.395 182.16 262.768 184.733 262.768 189.88V200.2Z" fill="#74448A"/>
</g>
<path d="M44.205 74.32V104.312C49.2343 104.312 52.669 103.239 54.509 101.092C56.349 98.884 57.269 95.0507 57.269 89.592C57.269 84.1333 56.349 80.2387 54.509 77.908C52.669 75.516 49.2343 74.32 44.205 74.32ZM48.805 122.16V124H25.805V122.16H30.405V74.32H25.805V72.48H44.113C62.145 71.6213 71.161 77.4173 71.161 89.868C71.161 95.388 68.8917 99.5893 64.353 102.472C59.8143 105.355 53.0983 106.581 44.205 106.152V122.16H48.805ZM97.1488 134.212C95.4928 137.769 93.7448 140.315 91.9048 141.848C90.0648 143.443 87.6115 144.24 84.5448 144.24C81.4782 144.24 79.0862 143.565 77.3688 142.216C75.6515 140.928 74.7928 139.18 74.7928 136.972C74.7928 134.825 75.4062 133.108 76.6328 131.82C77.9208 130.532 79.4542 129.888 81.2328 129.888C83.0115 129.888 84.5142 130.225 85.7408 130.9C86.9675 131.575 87.8262 132.311 88.3168 133.108C89.6662 135.255 90.9235 136.328 92.0888 136.328C93.3155 136.328 94.3888 135.285 95.3088 133.2L99.1728 124.092L77.6448 83.52H73.9648V81.68H98.7128V83.52H94.1128L106.441 107.808L117.021 83.52H109.661V81.68H124.749V83.52H119.229L97.1488 134.212ZM173.925 92.996H172.085C172.085 88.0893 170.521 83.5507 167.393 79.38C164.265 75.2093 159.788 73.124 153.961 73.124C150.71 73.124 148.012 75.0253 145.865 78.828C143.78 82.6307 142.737 89.132 142.737 98.332C142.737 107.532 143.78 114.033 145.865 117.836C148.012 121.639 151.324 123.54 155.801 123.54C160.34 123.54 164.142 122.129 167.209 119.308C170.337 116.487 172.269 112.5 173.005 107.348H174.845C173.986 113.42 171.84 117.959 168.405 120.964C165.032 123.908 160.984 125.38 156.261 125.38C147.122 125.38 140.1 123.203 135.193 118.848C130.348 114.432 127.925 107.563 127.925 98.24C127.925 88.856 130.286 82.0173 135.009 77.724C139.793 73.4307 146.11 71.284 153.961 71.284C158.193 71.284 162.302 72.4187 166.289 74.688C167.577 75.4853 168.62 75.884 169.417 75.884C170.276 75.884 170.95 75.516 171.441 74.78C171.932 73.9827 172.177 73.216 172.177 72.48H173.925V92.996ZM195.965 118.48C197.315 121.547 199.645 123.08 202.957 123.08C206.269 123.08 208.631 121.516 210.041 118.388C211.452 115.26 212.157 110.108 212.157 102.932C212.157 95.6947 211.452 90.512 210.041 87.384C208.631 84.1947 206.269 82.6 202.957 82.6C199.645 82.6 197.315 84.1947 195.965 87.384C194.616 90.512 193.941 95.6947 193.941 102.932C193.941 110.169 194.616 115.352 195.965 118.48ZM202.773 124.92C196.947 124.92 191.672 123.019 186.949 119.216C182.227 115.413 179.865 110.016 179.865 103.024C179.865 99.2827 180.54 95.94 181.889 92.996C183.3 90.052 185.14 87.7213 187.409 86.004C189.74 84.2867 192.224 82.9987 194.861 82.14C197.499 81.22 200.197 80.76 202.957 80.76C205.717 80.76 208.416 81.22 211.053 82.14C213.752 82.9987 216.236 84.2867 218.505 86.004C220.836 87.7213 222.707 90.052 224.117 92.996C225.528 95.94 226.233 99.252 226.233 102.932C226.233 106.612 225.528 109.893 224.117 112.776C222.707 115.659 220.836 117.959 218.505 119.676C213.844 123.172 208.6 124.92 202.773 124.92ZM281.015 122.16H285.615V124H262.615V122.16H267.215V96.4C267.215 92.0453 266.571 88.948 265.283 87.108C263.995 85.268 262.063 84.348 259.487 84.348C255.991 84.348 253.2 86.188 251.115 89.868V122.16H255.715V124H232.715V122.16H237.315V83.52H232.715V81.68H251.115V86.464C252.28 84.8693 254.09 83.52 256.543 82.416C259.058 81.2507 261.756 80.668 264.639 80.668C275.556 80.668 281.015 86.5867 281.015 98.424V122.16ZM356.766 88.12C356.766 82.6613 355.846 79.012 354.006 77.172C352.227 75.2707 348.854 74.32 343.886 74.32H341.126V122.16H347.566V124H320.886V122.16H327.326V74.32H324.566C319.659 74.32 316.286 75.2707 314.446 77.172C312.667 79.012 311.778 82.6613 311.778 88.12H309.938V72.48H358.606V88.12H356.766ZM408.777 122.16C408.163 122.773 406.998 123.325 405.281 123.816C403.563 124.245 401.57 124.46 399.301 124.46C394.271 124.46 391.113 122.957 389.825 119.952C386.758 123.141 382.066 124.736 375.749 124.736C372.375 124.736 369.585 123.969 367.377 122.436C365.23 120.841 364.157 118.511 364.157 115.444C364.157 111.335 365.751 108.176 368.941 105.968C372.13 103.699 377.711 102.104 385.685 101.184L389.365 100.724V96.216C389.365 90.88 388.966 87.292 388.169 85.452C387.371 83.612 385.777 82.692 383.385 82.692C381.054 82.692 379.551 83.0293 378.877 83.704C378.202 84.3173 377.957 85.0533 378.141 85.912C378.325 86.7093 378.631 87.7827 379.061 89.132C379.49 90.4813 379.705 91.5547 379.705 92.352C379.705 94.2533 379.03 95.8787 377.681 97.228C376.393 98.516 374.798 99.16 372.897 99.16C371.057 99.16 369.462 98.516 368.113 97.228C366.763 95.8787 366.089 94.2533 366.089 92.352C366.089 89.224 367.683 86.556 370.873 84.348C374.123 82.0787 378.938 80.944 385.317 80.944C391.757 80.944 396.326 82.2013 399.025 84.716C401.785 87.2307 403.165 91.6773 403.165 98.056V114.616C403.165 117.867 403.563 119.921 404.361 120.78C405.158 121.577 406.63 121.731 408.777 121.24V122.16ZM376.945 113.604C377.251 115.935 378.11 117.744 379.521 119.032C380.931 120.259 382.557 120.872 384.397 120.872C386.298 120.872 387.954 119.952 389.365 118.112V102.472L386.053 102.932C383.231 103.3 380.931 104.373 379.153 106.152C377.435 107.931 376.699 110.415 376.945 113.604ZM432.689 122.16H437.289V124H414.289V122.16H418.889V83.52H415.209V81.68H432.689V122.16ZM433.517 69.536C433.517 71.744 432.72 73.6453 431.125 75.24C429.592 76.7733 427.691 77.54 425.421 77.54C423.213 77.54 421.312 76.7733 419.717 75.24C418.123 73.6453 417.325 71.744 417.325 69.536C417.325 67.2667 418.123 65.3347 419.717 63.74C421.312 62.1453 423.213 61.348 425.421 61.348C427.691 61.348 429.592 62.1453 431.125 63.74C432.72 65.3347 433.517 67.2667 433.517 69.536ZM440.998 83.52V81.68H465.838V83.52H460.962L470.898 105.784L476.878 90.788L473.842 83.52H470.438V81.68H493.438V83.52H489.39L499.326 105.784L507.882 83.52H500.522V81.68H515.518V83.52H509.998L494.45 124H492.518L477.982 93.548L465.93 124H463.998L445.322 83.52H440.998ZM564.745 122.16C564.132 122.773 562.967 123.325 561.249 123.816C559.532 124.245 557.539 124.46 555.269 124.46C550.24 124.46 547.081 122.957 545.793 119.952C542.727 123.141 538.035 124.736 531.717 124.736C528.344 124.736 525.553 123.969 523.345 122.436C521.199 120.841 520.125 118.511 520.125 115.444C520.125 111.335 521.72 108.176 524.909 105.968C528.099 103.699 533.68 102.104 541.653 101.184L545.333 100.724V96.216C545.333 90.88 544.935 87.292 544.137 85.452C543.34 83.612 541.745 82.692 539.353 82.692C537.023 82.692 535.52 83.0293 534.845 83.704C534.171 84.3173 533.925 85.0533 534.109 85.912C534.293 86.7093 534.6 87.7827 535.029 89.132C535.459 90.4813 535.673 91.5547 535.673 92.352C535.673 94.2533 534.999 95.8787 533.649 97.228C532.361 98.516 530.767 99.16 528.865 99.16C527.025 99.16 525.431 98.516 524.081 97.228C522.732 95.8787 522.057 94.2533 522.057 92.352C522.057 89.224 523.652 86.556 526.841 84.348C530.092 82.0787 534.907 80.944 541.285 80.944C547.725 80.944 552.295 82.2013 554.993 84.716C557.753 87.2307 559.133 91.6773 559.133 98.056V114.616C559.133 117.867 559.532 119.921 560.329 120.78C561.127 121.577 562.599 121.731 564.745 121.24V122.16ZM532.913 113.604C533.22 115.935 534.079 117.744 535.489 119.032C536.9 120.259 538.525 120.872 540.365 120.872C542.267 120.872 543.923 119.952 545.333 118.112V102.472L542.021 102.932C539.2 103.3 536.9 104.373 535.121 106.152C533.404 107.931 532.668 110.415 532.913 113.604ZM618.558 122.16H623.158V124H600.158V122.16H604.758V96.4C604.758 92.0453 604.114 88.948 602.826 87.108C601.538 85.268 599.606 84.348 597.03 84.348C593.534 84.348 590.743 86.188 588.658 89.868V122.16H593.258V124H570.258V122.16H574.858V83.52H570.258V81.68H588.658V86.464C589.823 84.8693 591.633 83.52 594.086 82.416C596.601 81.2507 599.299 80.668 602.182 80.668C613.099 80.668 618.558 86.5867 618.558 98.424V122.16Z" fill="#74448A"/>
<g filter="url(#filter1_d_7100_16943)">
<path d="M41.205 71.32V101.312C46.2343 101.312 49.669 100.239 51.509 98.092C53.349 95.884 54.269 92.0507 54.269 86.592C54.269 81.1333 53.349 77.2387 51.509 74.908C49.669 72.516 46.2343 71.32 41.205 71.32ZM45.805 119.16V121H22.805V119.16H27.405V71.32H22.805V69.48H41.113C59.145 68.6213 68.161 74.4173 68.161 86.868C68.161 92.388 65.8917 96.5893 61.353 99.472C56.8143 102.355 50.0983 103.581 41.205 103.152V119.16H45.805ZM94.1488 131.212C92.4928 134.769 90.7448 137.315 88.9048 138.848C87.0648 140.443 84.6115 141.24 81.5448 141.24C78.4782 141.24 76.0862 140.565 74.3688 139.216C72.6515 137.928 71.7928 136.18 71.7928 133.972C71.7928 131.825 72.4062 130.108 73.6328 128.82C74.9208 127.532 76.4542 126.888 78.2328 126.888C80.0115 126.888 81.5142 127.225 82.7408 127.9C83.9675 128.575 84.8262 129.311 85.3168 130.108C86.6662 132.255 87.9235 133.328 89.0888 133.328C90.3155 133.328 91.3888 132.285 92.3088 130.2L96.1728 121.092L74.6448 80.52H70.9648V78.68H95.7128V80.52H91.1128L103.441 104.808L114.021 80.52H106.661V78.68H121.749V80.52H116.229L94.1488 131.212ZM170.925 89.996H169.085C169.085 85.0893 167.521 80.5507 164.393 76.38C161.265 72.2093 156.788 70.124 150.961 70.124C147.71 70.124 145.012 72.0253 142.865 75.828C140.78 79.6307 139.737 86.132 139.737 95.332C139.737 104.532 140.78 111.033 142.865 114.836C145.012 118.639 148.324 120.54 152.801 120.54C157.34 120.54 161.142 119.129 164.209 116.308C167.337 113.487 169.269 109.5 170.005 104.348H171.845C170.986 110.42 168.84 114.959 165.405 117.964C162.032 120.908 157.984 122.38 153.261 122.38C144.122 122.38 137.1 120.203 132.193 115.848C127.348 111.432 124.925 104.563 124.925 95.24C124.925 85.856 127.286 79.0173 132.009 74.724C136.793 70.4307 143.11 68.284 150.961 68.284C155.193 68.284 159.302 69.4187 163.289 71.688C164.577 72.4853 165.62 72.884 166.417 72.884C167.276 72.884 167.95 72.516 168.441 71.78C168.932 70.9827 169.177 70.216 169.177 69.48H170.925V89.996ZM192.965 115.48C194.315 118.547 196.645 120.08 199.957 120.08C203.269 120.08 205.631 118.516 207.041 115.388C208.452 112.26 209.157 107.108 209.157 99.932C209.157 92.6947 208.452 87.512 207.041 84.384C205.631 81.1947 203.269 79.6 199.957 79.6C196.645 79.6 194.315 81.1947 192.965 84.384C191.616 87.512 190.941 92.6947 190.941 99.932C190.941 107.169 191.616 112.352 192.965 115.48ZM199.773 121.92C193.947 121.92 188.672 120.019 183.949 116.216C179.227 112.413 176.865 107.016 176.865 100.024C176.865 96.2827 177.54 92.94 178.889 89.996C180.3 87.052 182.14 84.7213 184.409 83.004C186.74 81.2867 189.224 79.9987 191.861 79.14C194.499 78.22 197.197 77.76 199.957 77.76C202.717 77.76 205.416 78.22 208.053 79.14C210.752 79.9987 213.236 81.2867 215.505 83.004C217.836 84.7213 219.707 87.052 221.117 89.996C222.528 92.94 223.233 96.252 223.233 99.932C223.233 103.612 222.528 106.893 221.117 109.776C219.707 112.659 217.836 114.959 215.505 116.676C210.844 120.172 205.6 121.92 199.773 121.92ZM278.015 119.16H282.615V121H259.615V119.16H264.215V93.4C264.215 89.0453 263.571 85.948 262.283 84.108C260.995 82.268 259.063 81.348 256.487 81.348C252.991 81.348 250.2 83.188 248.115 86.868V119.16H252.715V121H229.715V119.16H234.315V80.52H229.715V78.68H248.115V83.464C249.28 81.8693 251.09 80.52 253.543 79.416C256.058 78.2507 258.756 77.668 261.639 77.668C272.556 77.668 278.015 83.5867 278.015 95.424V119.16ZM353.766 85.12C353.766 79.6613 352.846 76.012 351.006 74.172C349.227 72.2707 345.854 71.32 340.886 71.32H338.126V119.16H344.566V121H317.886V119.16H324.326V71.32H321.566C316.659 71.32 313.286 72.2707 311.446 74.172C309.667 76.012 308.778 79.6613 308.778 85.12H306.938V69.48H355.606V85.12H353.766ZM405.777 119.16C405.163 119.773 403.998 120.325 402.281 120.816C400.563 121.245 398.57 121.46 396.301 121.46C391.271 121.46 388.113 119.957 386.825 116.952C383.758 120.141 379.066 121.736 372.749 121.736C369.375 121.736 366.585 120.969 364.377 119.436C362.23 117.841 361.157 115.511 361.157 112.444C361.157 108.335 362.751 105.176 365.941 102.968C369.13 100.699 374.711 99.104 382.685 98.184L386.365 97.724V93.216C386.365 87.88 385.966 84.292 385.169 82.452C384.371 80.612 382.777 79.692 380.385 79.692C378.054 79.692 376.551 80.0293 375.877 80.704C375.202 81.3173 374.957 82.0533 375.141 82.912C375.325 83.7093 375.631 84.7827 376.061 86.132C376.49 87.4813 376.705 88.5547 376.705 89.352C376.705 91.2533 376.03 92.8787 374.681 94.228C373.393 95.516 371.798 96.16 369.897 96.16C368.057 96.16 366.462 95.516 365.113 94.228C363.763 92.8787 363.089 91.2533 363.089 89.352C363.089 86.224 364.683 83.556 367.873 81.348C371.123 79.0787 375.938 77.944 382.317 77.944C388.757 77.944 393.326 79.2013 396.025 81.716C398.785 84.2307 400.165 88.6773 400.165 95.056V111.616C400.165 114.867 400.563 116.921 401.361 117.78C402.158 118.577 403.63 118.731 405.777 118.24V119.16ZM373.945 110.604C374.251 112.935 375.11 114.744 376.521 116.032C377.931 117.259 379.557 117.872 381.397 117.872C383.298 117.872 384.954 116.952 386.365 115.112V99.472L383.053 99.932C380.231 100.3 377.931 101.373 376.153 103.152C374.435 104.931 373.699 107.415 373.945 110.604ZM429.689 119.16H434.289V121H411.289V119.16H415.889V80.52H412.209V78.68H429.689V119.16ZM430.517 66.536C430.517 68.744 429.72 70.6453 428.125 72.24C426.592 73.7733 424.691 74.54 422.421 74.54C420.213 74.54 418.312 73.7733 416.717 72.24C415.123 70.6453 414.325 68.744 414.325 66.536C414.325 64.2667 415.123 62.3347 416.717 60.74C418.312 59.1453 420.213 58.348 422.421 58.348C424.691 58.348 426.592 59.1453 428.125 60.74C429.72 62.3347 430.517 64.2667 430.517 66.536ZM437.998 80.52V78.68H462.838V80.52H457.962L467.898 102.784L473.878 87.788L470.842 80.52H467.438V78.68H490.438V80.52H486.39L496.326 102.784L504.882 80.52H497.522V78.68H512.518V80.52H506.998L491.45 121H489.518L474.982 90.548L462.93 121H460.998L442.322 80.52H437.998ZM561.745 119.16C561.132 119.773 559.967 120.325 558.249 120.816C556.532 121.245 554.539 121.46 552.269 121.46C547.24 121.46 544.081 119.957 542.793 116.952C539.727 120.141 535.035 121.736 528.717 121.736C525.344 121.736 522.553 120.969 520.345 119.436C518.199 117.841 517.125 115.511 517.125 112.444C517.125 108.335 518.72 105.176 521.909 102.968C525.099 100.699 530.68 99.104 538.653 98.184L542.333 97.724V93.216C542.333 87.88 541.935 84.292 541.137 82.452C540.34 80.612 538.745 79.692 536.353 79.692C534.023 79.692 532.52 80.0293 531.845 80.704C531.171 81.3173 530.925 82.0533 531.109 82.912C531.293 83.7093 531.6 84.7827 532.029 86.132C532.459 87.4813 532.673 88.5547 532.673 89.352C532.673 91.2533 531.999 92.8787 530.649 94.228C529.361 95.516 527.767 96.16 525.865 96.16C524.025 96.16 522.431 95.516 521.081 94.228C519.732 92.8787 519.057 91.2533 519.057 89.352C519.057 86.224 520.652 83.556 523.841 81.348C527.092 79.0787 531.907 77.944 538.285 77.944C544.725 77.944 549.295 79.2013 551.993 81.716C554.753 84.2307 556.133 88.6773 556.133 95.056V111.616C556.133 114.867 556.532 116.921 557.329 117.78C558.127 118.577 559.599 118.731 561.745 118.24V119.16ZM529.913 110.604C530.22 112.935 531.079 114.744 532.489 116.032C533.9 117.259 535.525 117.872 537.365 117.872C539.267 117.872 540.923 116.952 542.333 115.112V99.472L539.021 99.932C536.2 100.3 533.9 101.373 532.121 103.152C530.404 104.931 529.668 107.415 529.913 110.604ZM615.558 119.16H620.158V121H597.158V119.16H601.758V93.4C601.758 89.0453 601.114 85.948 599.826 84.108C598.538 82.268 596.606 81.348 594.03 81.348C590.534 81.348 587.743 83.188 585.658 86.868V119.16H590.258V121H567.258V119.16H571.858V80.52H567.258V78.68H585.658V83.464C586.823 81.8693 588.633 80.52 591.086 79.416C593.601 78.2507 596.299 77.668 599.182 77.668C610.099 77.668 615.558 83.5867 615.558 95.424V119.16Z" fill="white"/>
</g>
<g filter="url(#filter2_d_7100_16943)">
<path d="M40.0508 186.52H39.2508C39.2508 184.387 38.5708 182.413 37.2108 180.6C35.8508 178.787 33.9041 177.88 31.3708 177.88C29.9574 177.88 28.7841 178.707 27.8508 180.36C26.9441 182.013 26.4908 184.84 26.4908 188.84C26.4908 192.84 26.9441 195.667 27.8508 197.32C28.7841 198.973 30.2241 199.8 32.1708 199.8C34.1441 199.8 35.7974 199.187 37.1308 197.96C38.4908 196.733 39.3308 195 39.6508 192.76H40.4508C40.0774 195.4 39.1441 197.373 37.6508 198.68C36.1841 199.96 34.4241 200.6 32.3708 200.6C28.3974 200.6 25.3441 199.653 23.2108 197.76C21.1041 195.84 20.0508 192.853 20.0508 188.8C20.0508 184.72 21.0774 181.747 23.1308 179.88C25.2108 178.013 27.9574 177.08 31.3708 177.08C33.2108 177.08 34.9974 177.573 36.7308 178.56C37.2908 178.907 37.7441 179.08 38.0908 179.08C38.4641 179.08 38.7574 178.92 38.9708 178.6C39.1841 178.253 39.2908 177.92 39.2908 177.6H40.0508V186.52ZM49.6336 197.6C50.2203 198.933 51.2336 199.6 52.6736 199.6C54.1136 199.6 55.1403 198.92 55.7536 197.56C56.3669 196.2 56.6736 193.96 56.6736 190.84C56.6736 187.693 56.3669 185.44 55.7536 184.08C55.1403 182.693 54.1136 182 52.6736 182C51.2336 182 50.2203 182.693 49.6336 184.08C49.0469 185.44 48.7536 187.693 48.7536 190.84C48.7536 193.987 49.0469 196.24 49.6336 197.6ZM52.5936 200.4C50.0603 200.4 47.7669 199.573 45.7136 197.92C43.6603 196.267 42.6336 193.92 42.6336 190.88C42.6336 189.253 42.9269 187.8 43.5136 186.52C44.1269 185.24 44.9269 184.227 45.9136 183.48C46.9269 182.733 48.0069 182.173 49.1536 181.8C50.3003 181.4 51.4736 181.2 52.6736 181.2C53.8736 181.2 55.0469 181.4 56.1936 181.8C57.3669 182.173 58.4469 182.733 59.4336 183.48C60.4469 184.227 61.2603 185.24 61.8736 186.52C62.4869 187.8 62.7936 189.24 62.7936 190.84C62.7936 192.44 62.4869 193.867 61.8736 195.12C61.2603 196.373 60.4469 197.373 59.4336 198.12C57.4069 199.64 55.1269 200.4 52.5936 200.4ZM99.2117 199.2H101.212V200H91.2117V199.2H93.2117V188C93.2117 186.107 92.9317 184.76 92.3717 183.96C91.8117 183.16 90.9717 182.76 89.8517 182.76C89.2117 182.76 88.5451 182.947 87.8517 183.32C87.1584 183.693 86.5851 184.213 86.1317 184.88C86.4517 185.84 86.6117 187.173 86.6117 188.88V199.2H88.6117V200H78.2117V199.2H80.6117V188C80.6117 186.107 80.3317 184.76 79.7717 183.96C79.2117 183.16 78.3717 182.76 77.2517 182.76C75.7317 182.76 74.5184 183.56 73.6117 185.16V199.2H75.6117V200H65.6117V199.2H67.6117V182.4H65.6117V181.6H73.6117V183.68C74.1184 182.987 74.9051 182.4 75.9717 181.92C77.0651 181.413 78.2384 181.16 79.4917 181.16C82.6651 181.16 84.7317 182.053 85.6917 183.84C86.3851 182.987 87.3051 182.333 88.4517 181.88C89.5984 181.4 90.8117 181.16 92.0917 181.16C96.8384 181.16 99.2117 183.733 99.2117 188.88V199.2ZM112.01 199.2H114.01V200H104.01V199.2H106.01V182.4H104.41V181.6H112.01V199.2ZM112.37 176.32C112.37 177.28 112.023 178.107 111.33 178.8C110.663 179.467 109.837 179.8 108.85 179.8C107.89 179.8 107.063 179.467 106.37 178.8C105.677 178.107 105.33 177.28 105.33 176.32C105.33 175.333 105.677 174.493 106.37 173.8C107.063 173.107 107.89 172.76 108.85 172.76C109.837 172.76 110.663 173.107 111.33 173.8C112.023 174.493 112.37 175.333 112.37 176.32ZM137.823 199.2H139.823V200H129.823V199.2H131.823V188C131.823 186.107 131.543 184.76 130.983 183.96C130.423 183.16 129.583 182.76 128.463 182.76C126.943 182.76 125.729 183.56 124.823 185.16V199.2H126.823V200H116.823V199.2H118.823V182.4H116.823V181.6H124.823V183.68C125.329 182.987 126.116 182.4 127.183 181.92C128.276 181.413 129.449 181.16 130.703 181.16C135.449 181.16 137.823 183.733 137.823 188.88V199.2ZM147.484 196.28C147.484 197.027 147.964 197.453 148.924 197.56H155.804C158.177 197.56 159.831 198.067 160.764 199.08C161.697 200.093 162.017 201.347 161.724 202.84C161.457 204.333 160.551 205.707 159.004 206.96C157.457 208.213 155.324 208.84 152.604 208.84C147.617 208.84 144.417 208.107 143.004 206.64C142.471 206.053 142.244 205.36 142.324 204.56C142.404 203.787 142.697 203.147 143.204 202.64C143.711 202.16 144.284 201.827 144.924 201.64C144.071 200.92 143.644 200.027 143.644 198.96C143.644 197.893 143.964 196.947 144.604 196.12C145.271 195.267 146.031 194.587 146.884 194.08C143.817 192.96 142.284 190.947 142.284 188.04C142.284 185.88 143.271 184.213 145.244 183.04C147.244 181.84 149.497 181.24 152.004 181.24C153.204 181.24 154.404 181.427 155.604 181.8C154.991 180.973 154.684 179.987 154.684 178.84C154.684 177.693 155.071 176.747 155.844 176C156.644 175.227 157.631 174.84 158.804 174.84C160.004 174.84 160.897 175.16 161.484 175.8C162.097 176.413 162.404 177.107 162.404 177.88C162.404 178.653 162.164 179.307 161.684 179.84C161.231 180.373 160.617 180.64 159.844 180.64C159.097 180.64 158.497 180.387 158.044 179.88C157.591 179.373 157.364 178.867 157.364 178.36C157.364 177.827 157.457 177.373 157.644 177C157.857 176.6 157.964 176.373 157.964 176.32C157.884 175.893 157.617 175.773 157.164 175.96C156.711 176.147 156.311 176.533 155.964 177.12C155.644 177.68 155.484 178.333 155.484 179.08C155.484 180.547 156.137 181.72 157.444 182.6C159.737 183.88 160.884 185.653 160.884 187.92C160.884 190.187 159.937 191.907 158.044 193.08C156.151 194.227 153.911 194.8 151.324 194.8C150.071 194.8 148.964 194.667 148.004 194.4C147.657 194.987 147.484 195.613 147.484 196.28ZM154.884 187.96C154.884 185.667 154.617 184.107 154.084 183.28C153.551 182.453 152.751 182.04 151.684 182.04C150.644 182.04 149.884 182.467 149.404 183.32C148.924 184.147 148.684 185.68 148.684 187.92C148.684 190.16 148.937 191.733 149.444 192.64C149.951 193.547 150.711 194 151.724 194C152.764 194 153.551 193.56 154.084 192.68C154.617 191.8 154.884 190.227 154.884 187.96ZM155.564 202.76H148.844C147.564 202.76 146.484 202.533 145.604 202.08C145.231 204 145.711 205.467 147.044 206.48C148.404 207.52 150.257 208.04 152.604 208.04C154.951 208.04 156.897 207.453 158.444 206.28C159.164 205.747 159.564 205.213 159.644 204.68C159.724 204.147 159.417 203.693 158.724 203.32C158.031 202.947 156.977 202.76 155.564 202.76ZM174.907 200H174.107V190.68H174.907C174.907 193.187 175.8 195.32 177.587 197.08C179.4 198.84 181.6 199.72 184.187 199.72C185.254 199.72 186.107 199.413 186.747 198.8C187.414 198.16 187.747 197.32 187.747 196.28C187.747 195.107 186.987 194.107 185.467 193.28C184.64 192.853 183.214 192.187 181.187 191.28C179.16 190.347 177.734 189.56 176.907 188.92C175.254 187.64 174.52 185.947 174.707 183.84C174.92 181.733 175.72 180.107 177.107 178.96C178.494 177.787 180.054 177.2 181.787 177.2C183.547 177.2 185.12 177.44 186.507 177.92C187.92 178.373 188.72 178.6 188.907 178.6C189.44 178.6 189.707 178.133 189.707 177.2H190.507V184.52H189.707C189.707 182.6 189 181.04 187.587 179.84C186.174 178.613 184.36 178 182.147 178C181.16 178 180.387 178.293 179.827 178.88C179.267 179.44 178.987 180.067 178.987 180.76C178.987 181.453 179.08 181.987 179.267 182.36C179.454 182.733 179.774 183.08 180.227 183.4C180.707 183.693 181.12 183.933 181.467 184.12C181.814 184.307 182.36 184.56 183.107 184.88C183.88 185.2 184.414 185.427 184.707 185.56C186.174 186.227 187.04 186.627 187.307 186.76C187.574 186.867 187.96 187.053 188.467 187.32C188.974 187.587 189.347 187.827 189.587 188.04C189.854 188.253 190.187 188.52 190.587 188.84C190.987 189.16 191.28 189.493 191.467 189.84C191.654 190.16 191.84 190.533 192.027 190.96C192.4 191.813 192.534 192.813 192.427 193.96C192.214 196.12 191.4 197.773 189.987 198.92C188.6 200.04 186.72 200.6 184.347 200.6C182.214 200.6 180.094 200.053 177.987 198.96C177.267 198.587 176.734 198.4 176.387 198.4C175.4 198.4 174.907 198.933 174.907 200ZM202.212 197.6C202.798 198.933 203.812 199.6 205.252 199.6C206.692 199.6 207.718 198.92 208.332 197.56C208.945 196.2 209.252 193.96 209.252 190.84C209.252 187.693 208.945 185.44 208.332 184.08C207.718 182.693 206.692 182 205.252 182C203.812 182 202.798 182.693 202.212 184.08C201.625 185.44 201.332 187.693 201.332 190.84C201.332 193.987 201.625 196.24 202.212 197.6ZM205.172 200.4C202.638 200.4 200.345 199.573 198.292 197.92C196.238 196.267 195.212 193.92 195.212 190.88C195.212 189.253 195.505 187.8 196.092 186.52C196.705 185.24 197.505 184.227 198.492 183.48C199.505 182.733 200.585 182.173 201.732 181.8C202.878 181.4 204.052 181.2 205.252 181.2C206.452 181.2 207.625 181.4 208.772 181.8C209.945 182.173 211.025 182.733 212.012 183.48C213.025 184.227 213.838 185.24 214.452 186.52C215.065 187.8 215.372 189.24 215.372 190.84C215.372 192.44 215.065 193.867 214.452 195.12C213.838 196.373 213.025 197.373 212.012 198.12C209.985 199.64 207.705 200.4 205.172 200.4ZM224.79 197.6C225.377 198.933 226.39 199.6 227.83 199.6C229.27 199.6 230.297 198.92 230.91 197.56C231.523 196.2 231.83 193.96 231.83 190.84C231.83 187.693 231.523 185.44 230.91 184.08C230.297 182.693 229.27 182 227.83 182C226.39 182 225.377 182.693 224.79 184.08C224.203 185.44 223.91 187.693 223.91 190.84C223.91 193.987 224.203 196.24 224.79 197.6ZM227.75 200.4C225.217 200.4 222.923 199.573 220.87 197.92C218.817 196.267 217.79 193.92 217.79 190.88C217.79 189.253 218.083 187.8 218.67 186.52C219.283 185.24 220.083 184.227 221.07 183.48C222.083 182.733 223.163 182.173 224.31 181.8C225.457 181.4 226.63 181.2 227.83 181.2C229.03 181.2 230.203 181.4 231.35 181.8C232.523 182.173 233.603 182.733 234.59 183.48C235.603 184.227 236.417 185.24 237.03 186.52C237.643 187.8 237.95 189.24 237.95 190.84C237.95 192.44 237.643 193.867 237.03 195.12C236.417 196.373 235.603 197.373 234.59 198.12C232.563 199.64 230.283 200.4 227.75 200.4ZM261.768 199.2H263.768V200H253.768V199.2H255.768V188C255.768 186.107 255.488 184.76 254.928 183.96C254.368 183.16 253.528 182.76 252.408 182.76C250.888 182.76 249.675 183.56 248.768 185.16V199.2H250.768V200H240.768V199.2H242.768V182.4H240.768V181.6H248.768V183.68C249.275 182.987 250.061 182.4 251.128 181.92C252.221 181.413 253.395 181.16 254.648 181.16C259.395 181.16 261.768 183.733 261.768 188.88V199.2Z" fill="white"/>
</g>
<defs>
<filter id="filter0_d_7100_16943" x="16" y="161" width="254" height="65" filterUnits="userSpaceOnUse" color-interpolation-filters="sRGB">
<feFlood flood-opacity="0" result="BackgroundImageFix"/>
<feColorMatrix in="SourceAlpha" type="matrix" values="0 0 0 0 0 0 0 0 0 0 0 0 0 0 0 0 0 0 127 0" result="hardAlpha"/>
<feOffset dy="4"/>
<feGaussianBlur stdDeviation="2"/>
<feComposite in2="hardAlpha" operator="out"/>
<feColorMatrix type="matrix" values="0 0 0 0 0 0 0 0 0 0 0 0 0 0 0 0 0 0 0.25 0"/>
<feBlend mode="normal" in2="BackgroundImageFix" result="effect1_dropShadow_7100_16943"/>
<feBlend mode="normal" in="SourceGraphic" in2="effect1_dropShadow_7100_16943" result="shape"/>
</filter>
<filter id="filter1_d_7100_16943" x="2.80469" y="38.3481" width="637.354" height="122.892" filterUnits="userSpaceOnUse" color-interpolation-filters="sRGB">
<feFlood flood-opacity="0" result="BackgroundImageFix"/>
<feColorMatrix in="SourceAlpha" type="matrix" values="0 0 0 0 0 0 0 0 0 0 0 0 0 0 0 0 0 0 127 0" result="hardAlpha"/>
<feOffset/>
<feGaussianBlur stdDeviation="10"/>
<feComposite in2="hardAlpha" operator="out"/>
<feColorMatrix type="matrix" values="0 0 0 0 0.891667 0 0 0 0 0.891667 0 0 0 0 0.891667 0 0 0 0.45 0"/>
<feBlend mode="normal" in2="BackgroundImageFix" result="effect1_dropShadow_7100_16943"/>
<feBlend mode="normal" in="SourceGraphic" in2="effect1_dropShadow_7100_16943" result="shape"/>
</filter>
<filter id="filter2_d_7100_16943" x="0.0507812" y="152.76" width="283.717" height="76.0801" filterUnits="userSpaceOnUse" color-interpolation-filters="sRGB">
<feFlood flood-opacity="0" result="BackgroundImageFix"/>
<feColorMatrix in="SourceAlpha" type="matrix" values="0 0 0 0 0 0 0 0 0 0 0 0 0 0 0 0 0 0 127 0" result="hardAlpha"/>
<feOffset/>
<feGaussianBlur stdDeviation="10"/>
<feComposite in2="hardAlpha" operator="out"/>
<feColorMatrix type="matrix" values="0 0 0 0 0.9125 0 0 0 0 0.9125 0 0 0 0 0.9125 0 0 0 0.45 0"/>
<feBlend mode="normal" in2="BackgroundImageFix" result="effect1_dropShadow_7100_16943"/>
<feBlend mode="normal" in="SourceGraphic" in2="effect1_dropShadow_7100_16943" result="shape"/>
</filter>
</defs>
</svg>
