<svg width="121" height="121" viewBox="0 0 121 121" fill="none" xmlns="http://www.w3.org/2000/svg">
<g opacity="0.22547">
<path d="M60.4076 103.285C36.8199 103.348 17.6948 84.2782 17.6906 60.6906C17.6864 37.1031 36.8045 17.9303 60.3923 17.8671" stroke="#F7E757"/>
<path d="M60.8344 17.2984C38.1357 17.3616 19.7365 36.5642 19.739 60.1887C19.7412 83.8136 38.1439 102.915 60.8426 102.852" stroke="#F7E757"/>
<path d="M60.2731 17.7475C38.5807 17.7005 21.0914 36.7449 21.2098 60.2843C21.3285 83.8234 39.0097 102.944 60.7021 102.991" stroke="#F7E757"/>
<path d="M60.6614 18.1369C39.9741 18.1979 23.2027 37.2531 23.2008 60.698C23.1989 84.143 39.9678 103.1 60.6547 103.038" stroke="#F7E757"/>
<path d="M60.6319 18.1079C40.7465 18.2704 24.5247 37.5201 24.3998 61.1039C24.2748 84.6877 40.2942 103.675 60.1796 103.512" stroke="#F7E757"/>
<path d="M60.6793 17.1423C41.6108 17.2017 26.1477 36.4781 26.1415 60.1973C26.1353 83.9165 41.5883 103.097 60.6572 103.037" stroke="#F7E757"/>
<path d="M60.1642 17.6384C42.1155 17.6019 27.5778 36.7063 27.693 60.309C27.8086 83.9114 42.5334 103.075 60.5818 103.111" stroke="#F7E757"/>
<path d="M60.1708 17.6445C43.0499 17.6105 29.263 36.7147 29.3774 60.3148C29.4918 83.9149 43.4645 103.074 60.5853 103.108" stroke="#F7E757"/>
<path d="M60.1448 17.6188C44.043 17.6735 30.9799 36.7377 30.9674 60.1998C30.9548 83.662 43.9981 102.638 60.0997 102.583" stroke="#F7E757"/>
<path d="M60.6932 18.1692C45.5258 18.2218 33.2185 37.2668 33.2038 60.7068C33.1891 84.1468 45.4731 103.106 60.6402 103.053" stroke="#F7E757"/>
<path d="M60.7559 18.2317C46.4488 18.3612 34.7325 37.5457 34.5874 61.0812C34.4419 84.6171 45.9222 103.592 60.2294 103.462" stroke="#F7E757"/>
<path d="M59.864 17.3372C46.4307 17.3864 35.5253 36.5773 35.5062 60.201C35.4875 83.8243 46.3623 102.935 59.7952 102.886" stroke="#F7E757"/>
<path d="M59.9948 17.468C47.4473 17.446 37.3644 36.6419 37.4742 60.3438C37.584 84.0456 47.8452 103.278 60.3928 103.3" stroke="#F7E757"/>
<path d="M60.1135 17.5875C48.5271 17.5672 39.2227 36.7125 39.3316 60.3496C39.4405 83.9868 48.9217 103.165 60.5081 103.185" stroke="#F7E757"/>
<path d="M60.2566 17.7308C49.6321 17.7124 41.1074 36.7957 41.2155 60.3545C41.3236 83.9133 50.0241 103.027 60.6483 103.045" stroke="#F7E757"/>
<path d="M60.9316 17.3957C51.2138 17.4347 43.3138 36.598 43.2873 60.1977C43.2604 83.7979 51.1167 102.898 60.8344 102.859" stroke="#F7E757"/>
<path d="M60.6218 18.0972C51.869 18.133 44.7505 37.2071 44.722 60.7005C44.6938 84.1936 51.7659 103.21 60.5187 103.174" stroke="#F7E757"/>
<path d="M60.355 17.8294C52.5194 17.8165 46.2533 36.8625 46.359 60.3696C46.4646 83.8766 52.9026 102.943 60.7378 102.956" stroke="#F7E757"/>
<path d="M61.112 17.5766C54.1984 17.606 48.5684 36.6842 48.5367 60.1896C48.505 83.6949 54.0839 102.726 60.9975 102.697" stroke="#F7E757"/>
<path d="M60.3907 17.8655C54.4035 17.856 49.6348 36.8896 49.7391 60.3782C49.8434 83.8668 54.7818 102.916 60.7686 102.925" stroke="#F7E757"/>
<path d="M60.7017 18.1774C55.6427 18.199 51.5136 37.2312 51.4797 60.686C51.4455 84.141 55.5192 103.137 60.578 103.116" stroke="#F7E757"/>
<path d="M60.5439 18.0191C56.3891 18.0373 52.9922 37.1376 52.9569 60.681C52.9218 84.224 56.2612 103.295 60.416 103.277" stroke="#F7E757"/>
<path d="M60.4157 17.8905C57.1744 17.9046 54.5173 37.0602 54.4809 60.6753C54.4446 84.2904 57.0434 103.423 60.2843 103.408" stroke="#F7E757"/>
<path d="M60.3183 17.7927C57.9977 17.8032 56.0865 36.9993 56.0494 60.669C56.0124 84.3386 57.8638 103.518 60.1843 103.508" stroke="#F7E757"/>
<path d="M60.7585 17.222C59.3641 17.2281 58.2032 36.4509 58.1656 60.1573C58.128 83.8638 59.2283 103.076 60.6227 103.07" stroke="#F7E757"/>
<path d="M60.7254 17.1888C60.26 17.1909 59.8524 36.4255 59.8149 60.1501C59.777 83.8751 60.1236 103.107 60.5887 103.104" stroke="#F7E757"/>
<path d="M60.717 17.1889C61.1824 17.1868 61.5287 36.418 61.4908 60.143C61.4533 83.8676 61.0456 103.102 60.5803 103.104" stroke="#F7E757"/>
<path d="M60.683 17.2228C62.0774 17.2167 63.1776 36.4294 63.14 60.1358C63.1024 83.8422 61.9419 103.065 60.5471 103.071" stroke="#F7E757"/>
<path d="M60.6155 17.29C62.9361 17.2796 64.7875 36.4594 64.7504 60.129C64.7133 83.7987 62.8024 102.995 60.4815 103.005" stroke="#F7E757"/>
<path d="M60.5155 17.3898C63.7568 17.3757 66.3553 36.5076 66.3189 60.1227C66.2825 83.7378 63.6254 102.893 60.3841 102.908" stroke="#F7E757"/>
<path d="M60.3838 17.521C64.5386 17.5028 67.878 36.5739 67.8429 60.1169C67.8075 83.6603 64.411 102.761 60.2558 102.779" stroke="#F7E757"/>
<path d="M60.2219 17.6825C65.2809 17.6609 69.3544 36.657 69.3201 60.112C69.2862 83.5668 65.1572 102.599 60.0981 102.621" stroke="#F7E757"/>
<path d="M60.031 17.8728C66.0181 17.8822 70.9562 36.9311 71.0605 60.4197C71.1648 83.9083 66.3961 102.942 60.4089 102.932" stroke="#F7E757"/>
<path d="M60.3084 17.5961C67.2217 17.5671 72.8009 36.5982 72.7691 60.1035C72.7374 83.6089 67.1073 102.688 60.1937 102.717" stroke="#F7E757"/>
<path d="M59.557 17.3354C67.3926 17.3483 73.8302 36.4146 73.9359 59.9216C74.0415 83.4287 67.7754 102.475 59.9399 102.462" stroke="#F7E757"/>
<path d="M60.2809 17.6236C69.0337 17.5878 76.1058 36.6042 76.0773 60.0976C76.0491 83.5907 68.9306 102.665 60.1778 102.701" stroke="#F7E757"/>
<path d="M60.4712 17.434C70.1889 17.395 78.0452 36.4951 78.0182 60.0952C77.9913 83.6953 70.0919 102.859 60.3738 102.897" stroke="#F7E757"/>
<path d="M60.1512 17.7529C70.7757 17.7712 79.4758 36.8843 79.5839 60.4431C79.692 84.0019 71.1674 103.085 60.5429 103.067" stroke="#F7E757"/>
<path d="M59.7866 17.1065C71.373 17.1267 80.8542 36.3046 80.963 59.9417C81.0719 83.5787 71.7678 102.724 60.1811 102.704" stroke="#F7E757"/>
<path d="M59.9021 16.9913C72.4497 17.0133 82.7108 36.2454 82.8206 59.9472C82.9303 83.649 72.8478 102.845 60.2998 102.823" stroke="#F7E757"/>
<path d="M60.4995 17.4057C73.9328 17.3565 84.8072 36.4672 84.7882 60.0909C84.7694 83.7142 73.8641 102.905 60.4307 102.954" stroke="#F7E757"/>
<path d="M60.5702 17.3353C74.8773 17.2057 86.3575 36.1805 86.212 59.7163C86.0665 83.2521 74.3509 102.437 60.0435 102.566" stroke="#F7E757"/>
<path d="M60.1591 17.745C75.3265 17.6923 87.6102 36.651 87.5955 60.091C87.5808 83.531 75.2735 102.576 60.1061 102.629" stroke="#F7E757"/>
<path d="M60.1953 17.7089C76.2972 17.6542 89.3402 36.6296 89.3276 60.0918C89.3151 83.5539 76.252 102.618 60.1501 102.673" stroke="#F7E757"/>
<path d="M59.7095 17.1833C76.8304 17.2173 90.8029 36.3762 90.9173 59.9762C91.0317 83.5763 77.2451 102.681 60.124 102.646" stroke="#F7E757"/>
<path d="M59.7128 17.1801C77.7615 17.2166 92.4859 36.3799 92.6012 59.9826C92.7167 83.585 78.179 102.689 60.1303 102.653" stroke="#F7E757"/>
<path d="M60.6492 17.2565C79.7177 17.197 95.1711 36.3768 95.1649 60.096C95.1587 83.8152 79.6954 103.092 60.6269 103.151" stroke="#F7E757"/>
<path d="M60.6197 17.2859C80.5051 17.1235 96.5244 36.1103 96.3994 59.694C96.2744 83.2778 80.053 102.528 60.1672 102.69" stroke="#F7E757"/>
<path d="M60.1448 17.7593C80.8321 17.6983 97.6006 36.6547 97.5987 60.0996C97.5968 83.5446 80.8254 102.6 60.1381 102.661" stroke="#F7E757"/>
<path d="M59.5924 17.3C81.2848 17.347 98.9659 36.4677 99.0846 60.0067C99.203 83.5461 81.714 102.591 60.0213 102.544" stroke="#F7E757"/>
<path d="M60.4632 17.4419C83.1618 17.3787 101.564 36.4798 101.567 60.1046C101.569 83.7292 83.1702 102.932 60.4712 102.995" stroke="#F7E757"/>
<path d="M60.3919 17.513C83.9797 17.4497 103.105 36.5196 103.109 60.1071C103.113 83.6947 83.995 102.867 60.4072 102.931" stroke="#F7E757"/>
</g>
</svg>
