<svg width="60" height="24" viewBox="0 0 60 24" fill="none" xmlns="http://www.w3.org/2000/svg">
<path fill-rule="evenodd" clip-rule="evenodd" d="M24 12C24 18.6274 18.6274 24 12 24C9.61628 24 7.39489 23.305 5.52743 22.1065C5.50625 22.1156 5.48406 22.1233 5.4609 22.1297L1.73704 23.1527C1.36589 23.2547 1.02355 22.9166 1.12082 22.5442L2.09679 18.8078C2.09859 18.8009 2.10052 18.7941 2.10257 18.7873C0.776235 16.8569 0 14.5191 0 12C0 5.37258 5.37258 0 12 0C18.6274 0 24 5.37258 24 12ZM7.604 15H6.86V14.744L7.61176 14.6703C7.628 13.8756 7.628 13.0538 7.628 12.232V11.856C7.628 11.0312 7.628 10.2188 7.61158 9.40786L6.86 9.344V9.08H7.604H8.196H8.788H11.324L11.332 10.616H10.908L10.6032 9.384H8.78083C8.76436 10.1763 8.76401 10.9941 8.764 11.848H9.96036L10.076 11H10.436V12.936H10.076L9.96681 12.128H8.764C8.764 13.0423 8.764 13.8801 8.78109 14.704H10.7523L11.076 13.416H11.484L11.476 15H8.788H8.196H7.604ZM13.0081 15H12.2321V14.744L13.0081 14.6331V9.52364L12.9281 9.4L12.2561 9.344V9.08H14.0321L17.0683 13.5011L17.0401 11.408V9.44127L16.0001 9.344V9.08H17.0401H17.3761H18.1601V9.344L17.3761 9.44107V15.032H16.7921L13.3208 9.98427L13.3921 12.92V14.6345L14.3921 14.744V15H13.3921H13.0081Z" fill="#CDD2E2"/>
<rect x="34" y="0.5" width="26" height="2" rx="1" fill="#CDD2E2"/>
<path fill-rule="evenodd" clip-rule="evenodd" d="M57.5 3.5H36.5V17.5C36.5 18.0523 36.9477 18.5 37.5 18.5H56.5C57.0523 18.5 57.5 18.0523 57.5 17.5V3.5ZM42.7074 14.1426H42.0285V13.909L42.7145 13.8417C42.7293 13.1165 42.7293 12.3667 42.7293 11.6168V11.2737C42.7293 10.521 42.7293 9.77972 42.7143 9.03975L42.0285 8.98148V8.74058H42.7074H43.2476H43.7878H46.1019L46.1092 10.1422H45.7223L45.4442 9.01798H43.7813C43.7662 9.74095 43.7659 10.4872 43.7659 11.2664H44.8576L44.9631 10.4926H45.2916V12.2592H44.9631L44.8635 11.5219H43.7659C43.7659 12.3562 43.7659 13.1207 43.7815 13.8725H45.5803L45.8756 12.6972H46.2479L46.2406 14.1426H43.7878H43.2476H42.7074ZM48.3474 14.1426H47.6393V13.909L48.3474 13.8078V9.1454L48.2744 9.03258L47.6612 8.98148V8.74058H49.2818L52.0523 12.7748L52.0266 10.8649V9.07023L51.0776 8.98148V8.74058H52.0266H52.3332H53.0486V8.98148L52.3332 9.07005V14.1718H51.8003L48.6328 9.56572L48.6978 12.2446V13.8091L49.6103 13.909V14.1426H48.6978H48.3474Z" fill="#CDD2E2"/>
<line x1="47.6" y1="17.5" x2="47.6" y2="20.5" stroke="#CDD2E2" stroke-width="1.2"/>
<circle cx="47.5" cy="21.5" r="1.5" stroke="#CDD2E2"/>
</svg>
