<svg width="20" height="20" viewBox="0 0 20 20" fill="none" xmlns="http://www.w3.org/2000/svg">
<path fill-rule="evenodd" clip-rule="evenodd" d="M20 10C20 15.5228 15.5228 20 10 20C8.14408 20 6.40624 19.4944 4.91671 18.6135L1.94325 19.6803C1.53125 19.8282 1.12358 19.4506 1.23943 19.0285L2.05167 16.0691C0.764618 14.3861 0 12.2824 0 10C0 4.47715 4.47715 0 10 0C15.5228 0 20 4.47715 20 10ZM5.15676 12.973V12.7654L5.76629 12.7056C5.77946 12.0613 5.77946 11.395 5.77946 10.7286V10.4238C5.77946 9.75501 5.77946 9.09631 5.76614 8.4388L5.15676 8.38703V8.17297H8.77622L8.7827 9.41838H8.43892L8.19182 8.41946H6.71418C6.70083 9.06186 6.70055 9.72496 6.70054 10.4173H7.67057L7.76432 9.72973H8.05622V11.2995H7.76432L7.67579 10.6443H6.70054C6.70054 11.3857 6.70054 12.065 6.71439 12.733H8.31272L8.57514 11.6886H8.90595L8.89946 12.973H5.15676ZM9.97199 12.973V12.7654L10.6012 12.6755V8.53268L10.5363 8.43243L9.99145 8.38703V8.17297H11.4315L13.8932 11.7577L13.8704 10.0605V8.46589L13.0271 8.38703V8.17297H14.7785V8.38703L14.1428 8.46573V12.9989H13.6693L10.8547 8.90616L10.9125 11.2865V12.6766L11.7233 12.7654V12.973H9.97199Z" fill="#CDD2E2"/>
</svg>
