<svg width="60" height="24" viewBox="0 0 60 24" fill="none" xmlns="http://www.w3.org/2000/svg">
<path fill-rule="evenodd" clip-rule="evenodd" d="M24 12C24 18.6274 18.6274 24 12 24C9.61628 24 7.39489 23.305 5.52743 22.1065C5.50625 22.1156 5.48406 22.1233 5.4609 22.1297L1.73704 23.1527C1.36589 23.2547 1.02355 22.9166 1.12082 22.5442L2.09679 18.8078C2.09859 18.8009 2.10052 18.7941 2.10257 18.7873C0.776235 16.8569 0 14.5191 0 12C0 5.37258 5.37258 0 12 0C18.6274 0 24 5.37258 24 12ZM9.4024 16.0236C9.0006 16.5074 8.5332 16.6796 8.0904 16.6796C7.5574 16.6796 7.2294 16.532 7.1802 16.1794C7.2458 15.8596 7.4508 15.7448 7.7296 15.7448C8.0002 15.7448 8.1396 15.8022 8.4102 16.081L8.63167 16.3422C8.80649 15.7306 8.8284 14.9805 8.8284 13.8506C8.8284 13.0205 8.82092 12.0633 8.79882 9.67911L7.8854 9.60299V9.33239H8.7956H9.9682H10.7308V9.60299L9.95751 9.66743C9.9354 10.4668 9.9354 11.2945 9.9354 12.1286V13.8178C9.9354 15.056 9.7632 15.5808 9.4024 16.0236ZM12.699 15.4004H11.9364V15.138L12.7069 15.0624C12.7236 14.2479 12.7236 13.4055 12.7236 12.5632V12.1778C12.7236 11.3323 12.7236 10.4996 12.7067 9.66845L11.9364 9.60299V9.33239H12.699H13.3058H13.9126H14.3636C16.1102 9.33239 16.8482 9.99659 16.8482 11.12C16.8482 12.145 16.1348 12.9568 14.2652 12.9568H13.888C13.8881 13.5917 13.8896 14.3117 13.9045 15.0521L14.7982 15.138V15.4004H13.9126H12.699ZM13.888 12.6616H14.2324C15.282 12.6616 15.7494 12.0302 15.7494 11.12C15.7494 10.136 15.2738 9.62759 14.339 9.62759H13.9056C13.888 10.462 13.888 11.3199 13.888 12.1778V12.6616Z" fill="#CDD2E2"/>
<rect x="34" y="0.5" width="26" height="2" rx="1" fill="#CDD2E2"/>
<path fill-rule="evenodd" clip-rule="evenodd" d="M57.5 3.5H36.5V17.5C36.5 18.0523 36.9477 18.5 37.5 18.5H56.5C57.0523 18.5 57.5 18.0523 57.5 17.5V3.5ZM42.7074 14.1426H42.0285V13.909L42.7145 13.8417C42.7293 13.1165 42.7293 12.3667 42.7293 11.6168V11.2737C42.7293 10.521 42.7293 9.77972 42.7143 9.03975L42.0285 8.98148V8.74058H42.7074H43.2476H43.7878H46.1019L46.1092 10.1422H45.7223L45.4442 9.01798H43.7813C43.7662 9.74095 43.7659 10.4872 43.7659 11.2664H44.8576L44.9631 10.4926H45.2916V12.2592H44.9631L44.8635 11.5219H43.7659C43.7659 12.3562 43.7659 13.1207 43.7815 13.8725H45.5803L45.8756 12.6972H46.2479L46.2406 14.1426H43.7878H43.2476H42.7074ZM48.3474 14.1426H47.6393V13.909L48.3474 13.8078V9.1454L48.2744 9.03258L47.6612 8.98148V8.74058H49.2818L52.0523 12.7748L52.0266 10.8649V9.07023L51.0776 8.98148V8.74058H52.0266H52.3332H53.0486V8.98148L52.3332 9.07005V14.1718H51.8003L48.6328 9.56572L48.6978 12.2446V13.8091L49.6103 13.909V14.1426H48.6978H48.3474Z" fill="#CDD2E2"/>
<line x1="47.6" y1="17.5" x2="47.6" y2="20.5" stroke="#CDD2E2" stroke-width="1.2"/>
<circle cx="47.5" cy="21.5" r="1.5" stroke="#CDD2E2"/>
</svg>
