<svg width="60" height="24" viewBox="0 0 60 24" fill="none" xmlns="http://www.w3.org/2000/svg">
<path fill-rule="evenodd" clip-rule="evenodd" d="M24 12C24 18.6274 18.6274 24 12 24C9.61628 24 7.39489 23.305 5.52743 22.1065C5.50625 22.1156 5.48406 22.1233 5.4609 22.1297L1.73704 23.1527C1.36589 23.2547 1.02355 22.9166 1.12082 22.5442L2.09679 18.8078C2.09859 18.8009 2.10052 18.7941 2.10257 18.7873C0.776235 16.8569 0 14.5191 0 12C0 5.37258 5.37258 0 12 0C18.6274 0 24 5.37258 24 12ZM11.228 15H6.7V14.664L9.96231 9.384H7.5991L7.268 10.736H6.82L6.892 9.08H11.18V9.424L7.94263 14.704H10.478L10.868 13.304H11.268L11.228 15ZM12.7116 15H11.9756V14.744L12.7168 14.6689C12.7276 13.8746 12.7276 13.0533 12.7276 12.232V11.856C12.7276 11.0316 12.7276 10.2196 12.7167 9.40909L11.9756 9.344V9.08H12.7116H13.8956H14.6076V9.344L13.888 9.40514C13.8718 10.1971 13.8716 11.0104 13.8716 11.824H16.2716C16.2716 11.0094 16.2713 10.2069 16.2497 9.40575L15.5276 9.344V9.08H16.2396H17.4316H18.1676V9.344L17.424 9.40802C17.4076 10.2095 17.4076 11.0328 17.4076 11.856V12.232C17.4076 13.0421 17.4076 13.8585 17.424 14.6701L18.1676 14.744V15H17.4316H16.2396H15.5276V14.744L16.2499 14.6727C16.2714 13.8841 16.2716 13.0551 16.2716 12.112H13.8716C13.8716 13.0442 13.8718 13.868 13.8881 14.6735L14.6076 14.744V15H13.8956H12.7116Z" fill="#CDD2E2"/>
<rect x="34" y="0.5" width="26" height="2" rx="1" fill="#CDD2E2"/>
<path fill-rule="evenodd" clip-rule="evenodd" d="M57.5 3.5H36.5V17.5C36.5 18.0523 36.9477 18.5 37.5 18.5H56.5C57.0523 18.5 57.5 18.0523 57.5 17.5V3.5ZM46.0143 14.1426H41.8825V13.836L44.8594 9.01798H42.7029L42.4008 10.2517H41.992L42.0577 8.74058H45.9705V9.05448L43.0164 13.8725H45.3299L45.6858 12.595H46.0508L46.0143 14.1426ZM48.0769 14.1426H47.4053V13.909L48.0816 13.8404C48.0915 13.1157 48.0915 12.3662 48.0915 11.6168V11.2737C48.0915 10.5214 48.0915 9.78047 48.0815 9.04088L47.4053 8.98148V8.74058H48.0769H49.1573H49.807V8.98148L49.1503 9.03727C49.1356 9.75997 49.1354 10.5021 49.1354 11.2445H51.3254C51.3254 10.5012 51.3251 9.76886 51.3053 9.03783L50.6465 8.98148V8.74058H51.2962H52.3839H53.0555V8.98148L52.3769 9.0399C52.362 9.77125 52.362 10.5225 52.362 11.2737V11.6168C52.362 12.356 52.362 13.101 52.3769 13.8416L53.0555 13.909V14.1426H52.3839H51.2962H50.6465V13.909L51.3055 13.8439C51.3251 13.1243 51.3254 12.3678 51.3254 11.5073H49.1354C49.1354 12.3579 49.1355 13.1096 49.1504 13.8446L49.807 13.909V14.1426H49.1573H48.0769Z" fill="#CDD2E2"/>
<line x1="47.6" y1="17.5" x2="47.6" y2="20.5" stroke="#CDD2E2" stroke-width="1.2"/>
<circle cx="47.5" cy="21.5" r="1.5" stroke="#CDD2E2"/>
</svg>
