<svg width="60" height="60" viewBox="0 0 60 60" fill="none" xmlns="http://www.w3.org/2000/svg">
<path d="M26.5747 35.3669L35.5201 30.2148L26.5747 25.0627V35.3669Z" fill="#9258BF"/>
<path d="M30 2.71484C14.8145 2.71484 2.5 15.0293 2.5 30.2148C2.5 45.4004 14.8145 57.7148 30 57.7148C45.1855 57.7148 57.5 45.4004 57.5 30.2148C57.5 15.0293 45.1855 2.71484 30 2.71484ZM47.1833 30.243C47.1833 30.243 47.1833 35.8201 46.4758 38.5094C46.0793 39.9814 44.9186 41.1421 43.4466 41.5382C40.7573 42.2461 30 42.2461 30 42.2461C30 42.2461 19.2708 42.2461 16.5534 41.5101C15.0814 41.114 13.9207 39.9529 13.5242 38.4809C12.8163 35.8201 12.8163 30.2148 12.8163 30.2148C12.8163 30.2148 12.8163 24.6381 13.5242 21.9488C13.9203 20.4768 15.1095 19.2876 16.5534 18.8915C19.2427 18.1836 30 18.1836 30 18.1836C30 18.1836 40.7573 18.1836 43.4466 18.9196C44.9186 19.3157 46.0793 20.4768 46.4758 21.9488C47.2118 24.6381 47.1833 30.243 47.1833 30.243Z" fill="#9258BF"/>
</svg>
