<svg width="138" height="138" viewBox="0 0 138 138" fill="none" xmlns="http://www.w3.org/2000/svg">
<circle cx="69" cy="69" r="67.5" stroke="#C4C4C4" stroke-width="3"/>
<g clip-path="url(#clip0)">
<path d="M51.105 85.3236V90.452C51.105 92.2901 52.6003 93.7855 54.4384 93.7855H82.5613C84.3994 93.7855 85.8947 92.2901 85.8947 90.452V85.3236C85.8947 83.4878 84.3994 81.9941 82.5613 81.9941H54.4384C52.6003 81.9943 51.105 83.4878 51.105 85.3236ZM82.965 85.3236V90.452C82.965 90.6708 82.7802 90.8559 82.5613 90.8559H54.4384C54.2157 90.8559 54.0347 90.6748 54.0347 90.452V85.3236C54.0347 85.1069 54.2195 84.9238 54.4384 84.9238H82.5613C82.7802 84.924 82.965 85.1071 82.965 85.3236Z" fill="#7568F6"/>
<path d="M102.119 67.5644H101.383V61.3386C101.383 61.3355 101.383 61.3331 101.383 61.33C101.383 61.3281 101.383 61.326 101.383 61.3241C101.382 61.1889 101.375 61.1157 101.36 61.0868C101.317 60.8412 101.213 60.603 101.041 60.398L97.6341 56.3303C98.6931 54.6358 98.6009 52.3807 97.2492 50.767L95.8854 49.1422C95.077 48.1738 93.9357 47.5783 92.6717 47.4657C91.4046 47.3527 90.1731 47.7383 89.2028 48.5511C89.2023 48.5516 89.2018 48.552 89.2012 48.5526C87.1986 50.2355 86.9377 53.2328 88.6174 55.2317L89.98 56.8602C90.7916 57.8289 91.9349 58.4239 93.199 58.5352C93.3418 58.5478 93.4839 58.5541 93.6254 58.5541C94.2366 58.5541 94.8331 58.4372 95.3894 58.2129L98.4533 61.8711V67.5645H86.6734C86.5562 59.3375 85.3183 55.2506 79.3981 52.4117L77.0474 50.0063C78.7792 48.2584 79.9948 46.1064 79.9948 43.8397V40.2726V37.6439C79.9946 31.3042 74.8372 26.1465 68.4978 26.1465C62.1584 26.1465 57.0013 31.3042 57.0013 37.6439V40.2724V43.8396C57.0013 46.107 58.2175 48.2595 59.9503 50.0076L57.5983 52.4113C51.6777 55.2503 50.4398 59.3372 50.3226 67.5644H38.5428V61.8709L41.6066 58.2128C42.1631 58.4371 42.7599 58.554 43.3713 58.554C43.5147 58.554 43.6589 58.5475 43.8035 58.5346C45.0676 58.422 46.209 57.8267 47.0151 56.8609L48.3804 55.234C49.1923 54.2678 49.5786 53.0393 49.468 51.7745C49.3573 50.508 48.7624 49.3634 47.793 48.5511C46.8243 47.7396 45.5945 47.3541 44.3308 47.4652C43.0667 47.5766 41.9235 48.1714 41.1127 49.1393L39.7441 50.7701C38.3989 52.3817 38.3077 54.6345 39.3631 56.3287L35.9547 60.3982C35.7479 60.6452 35.6378 60.9405 35.6176 61.239C35.6154 61.2616 35.614 61.2868 35.6134 61.3149C35.6132 61.3208 35.6129 61.3266 35.6129 61.3325C35.6129 61.3347 35.6128 61.3364 35.6128 61.3388V67.5645H34.8811C32.7413 67.5644 31 69.3056 31 71.4459V73.9707C31 76.111 32.7413 77.8522 34.8814 77.8522H36.6752L41.9941 98.6724C42.1305 99.2119 42.5458 100.854 44.444 100.854H92.5558C94.4412 100.854 94.8647 99.2177 95.0049 98.6759L100.325 77.8524H102.119C104.259 77.8524 106 76.1111 106 73.9708V71.446C106 69.3056 104.259 67.5644 102.119 67.5644ZM94.779 55.2036C94.41 55.5128 93.941 55.6591 93.4558 55.6166C92.9714 55.574 92.5344 55.3474 92.2261 54.9793L90.862 53.3491C90.2197 52.5847 90.3199 51.4394 91.0853 50.7956C91.4545 50.4866 91.9255 50.3397 92.4112 50.3835C92.8948 50.4266 93.3298 50.6524 93.6385 51.0223L95.0037 52.649C95.646 53.4159 95.5453 54.5617 94.779 55.2036ZM41.991 52.6505L43.358 51.0217C43.6668 50.6529 44.1038 50.4264 44.588 50.3838C44.6431 50.379 44.6979 50.3765 44.7524 50.3765C45.1779 50.3765 45.5844 50.5229 45.9114 50.7969C46.2805 51.106 46.507 51.5439 46.5495 52.0298C46.5918 52.5143 46.4456 52.9829 46.137 53.3501L44.7685 54.9809C44.4622 55.3479 44.027 55.5737 43.5435 55.6168C43.0571 55.6607 42.5862 55.5134 42.2182 55.2052C41.4537 54.5623 41.3528 53.415 41.991 52.6505ZM68.4978 29.0762C73.2216 29.0762 77.0648 32.9196 77.0648 37.6439V38.7431C74.1334 38.4934 71.7168 37.5648 69.5494 36.732C67.6044 35.9845 65.709 35.2562 63.8349 35.2562C62.5516 35.2562 61.278 35.5979 60.0055 36.5091C60.5626 32.3192 64.1586 29.0762 68.4978 29.0762ZM59.931 43.8396V40.74C62.5403 37.1772 64.4554 37.913 68.4985 39.4667C70.8019 40.3518 73.6012 41.4264 77.0648 41.6809V43.8397C77.0648 47.4384 71.4938 51.2448 68.4978 51.2448C65.5019 51.2447 59.931 47.4384 59.931 43.8396ZM76.4282 53.5644L72.4034 57.2766L70.694 53.8375C72.0294 53.4598 73.4564 52.7803 74.7818 51.88L76.4282 53.5644ZM66.3016 53.8373L64.5924 57.2765L60.5682 53.5648L62.2157 51.881C63.5406 52.7809 64.9669 53.46 66.3016 53.8373ZM58.2128 55.3782L64.0417 60.7543C64.3146 61.0061 64.6702 61.1423 65.0349 61.1423C65.1232 61.1423 65.2122 61.1343 65.3005 61.118C65.754 61.0345 66.1416 60.7423 66.3468 60.3293L68.4979 56.0009L70.6492 60.3293C70.8543 60.7423 71.242 61.0344 71.6956 61.118C72.1495 61.2017 72.6152 61.0666 72.9543 60.7543L78.7832 55.3782C82.5624 57.3865 83.6314 60.0399 83.7439 67.5644H53.2523C53.3648 60.0399 54.4338 57.3865 58.2128 55.3782ZM103.07 73.9707C103.07 74.4956 102.643 74.9226 102.119 74.9226H75.0709C74.262 74.9226 73.606 75.5785 73.606 76.3874C73.606 77.1963 74.262 77.8522 75.0709 77.8522H97.3009L92.1733 97.9238L44.8267 97.9237L39.699 77.8524H61.9125C62.7213 77.8524 63.3773 77.1964 63.3773 76.3876C63.3773 75.5787 62.7213 74.9227 61.9125 74.9227H34.8814C34.3656 74.9227 33.9297 74.4868 33.9297 73.9708V71.446C33.9297 70.9301 34.3656 70.4942 34.8814 70.4942H102.119C102.634 70.4942 103.07 70.9301 103.07 71.446V73.9707Z" fill="#C7C7C7"/>
<path d="M68.4938 77.8525H68.4979C69.3068 77.8525 69.9607 77.1966 69.9607 76.3877C69.9607 75.5788 69.3027 74.9229 68.4937 74.9229C67.6846 74.9229 67.0288 75.5788 67.0288 76.3877C67.0288 77.1966 67.6849 77.8525 68.4938 77.8525Z" fill="#7568F6"/>
</g>
<defs>
<clipPath id="clip0">
<rect width="75" height="75" fill="white" transform="translate(31 26)"/>
</clipPath>
</defs>
</svg>
